G04 #@! TF.GenerationSoftware,KiCad,Pcbnew,6.0.9+dfsg-1*
G04 #@! TF.CreationDate,2022-12-29T14:55:31+02:00*
G04 #@! TF.ProjectId,ATF1502AS-EVB,41544631-3530-4324-9153-2d4556422e6b,rev?*
G04 #@! TF.SameCoordinates,PX2c9ce60PY9405110*
G04 #@! TF.FileFunction,Soldermask,Top*
G04 #@! TF.FilePolarity,Negative*
%FSLAX46Y46*%
G04 Gerber Fmt 4.6, Leading zero omitted, Abs format (unit mm)*
G04 Created by KiCad (PCBNEW 6.0.9+dfsg-1) date 2022-12-29 14:55:31*
%MOMM*%
%LPD*%
G01*
G04 APERTURE LIST*
G04 Aperture macros list*
%AMRoundRect*
0 Rectangle with rounded corners*
0 $1 Rounding radius*
0 $2 $3 $4 $5 $6 $7 $8 $9 X,Y pos of 4 corners*
0 Add a 4 corners polygon primitive as box body*
4,1,4,$2,$3,$4,$5,$6,$7,$8,$9,$2,$3,0*
0 Add four circle primitives for the rounded corners*
1,1,$1+$1,$2,$3*
1,1,$1+$1,$4,$5*
1,1,$1+$1,$6,$7*
1,1,$1+$1,$8,$9*
0 Add four rect primitives between the rounded corners*
20,1,$1+$1,$2,$3,$4,$5,0*
20,1,$1+$1,$4,$5,$6,$7,0*
20,1,$1+$1,$6,$7,$8,$9,0*
20,1,$1+$1,$8,$9,$2,$3,0*%
%AMFreePoly0*
4,1,6,0.500000,-0.750000,-0.650000,-0.750000,-0.150000,0.000000,-0.650000,0.750000,0.500000,0.750000,0.500000,-0.750000,0.500000,-0.750000,$1*%
%AMFreePoly1*
4,1,6,1.000000,0.000000,0.500000,-0.750000,-0.500000,-0.750000,-0.500000,0.750000,0.500000,0.750000,1.000000,0.000000,1.000000,0.000000,$1*%
G04 Aperture macros list end*
%ADD10C,6.400000*%
%ADD11O,1.700000X1.700000*%
%ADD12R,1.700000X1.700000*%
%ADD13R,0.700000X2.925000*%
%ADD14R,2.925000X0.700000*%
%ADD15RoundRect,0.250000X0.325000X0.450000X-0.325000X0.450000X-0.325000X-0.450000X0.325000X-0.450000X0*%
%ADD16FreePoly0,0.000000*%
%ADD17FreePoly1,0.000000*%
%ADD18RoundRect,0.250000X-0.600000X-0.600000X0.600000X-0.600000X0.600000X0.600000X-0.600000X0.600000X0*%
%ADD19C,1.700000*%
%ADD20RoundRect,0.250000X-0.325000X-0.450000X0.325000X-0.450000X0.325000X0.450000X-0.325000X0.450000X0*%
G04 APERTURE END LIST*
D10*
X94220000Y14210000D03*
X12220000Y14210000D03*
X94220000Y96210000D03*
X12220000Y96210000D03*
D11*
X95760000Y29810000D03*
X95760000Y32350000D03*
X95760000Y34890000D03*
X95760000Y37430000D03*
X95760000Y39970000D03*
X95760000Y42510000D03*
X95760000Y45050000D03*
X95760000Y47590000D03*
X95760000Y50130000D03*
X95760000Y52670000D03*
X95760000Y55210000D03*
X95760000Y57750000D03*
X95760000Y60290000D03*
X95760000Y62830000D03*
X95760000Y65370000D03*
X95760000Y67910000D03*
X95760000Y70450000D03*
X95760000Y72990000D03*
X95760000Y75530000D03*
X95760000Y78070000D03*
D12*
X95760000Y80610000D03*
X27820000Y97750000D03*
D11*
X30360000Y97750000D03*
X32900000Y97750000D03*
X35440000Y97750000D03*
X37980000Y97750000D03*
X40520000Y97750000D03*
X43060000Y97750000D03*
X45600000Y97750000D03*
X48140000Y97750000D03*
X50680000Y97750000D03*
X53220000Y97750000D03*
X55760000Y97750000D03*
X58300000Y97750000D03*
X60840000Y97750000D03*
X63380000Y97750000D03*
X65920000Y97750000D03*
X68460000Y97750000D03*
X71000000Y97750000D03*
X73540000Y97750000D03*
X76080000Y97750000D03*
X78620000Y97750000D03*
D12*
X10680000Y29810000D03*
D11*
X10680000Y32350000D03*
X10680000Y34890000D03*
X10680000Y37430000D03*
X10680000Y39970000D03*
X10680000Y42510000D03*
X10680000Y45050000D03*
X10680000Y47590000D03*
X10680000Y50130000D03*
X10680000Y52670000D03*
X10680000Y55210000D03*
X10680000Y57750000D03*
X10680000Y60290000D03*
X10680000Y62830000D03*
X10680000Y65370000D03*
X10680000Y67910000D03*
X10680000Y70450000D03*
X10680000Y72990000D03*
X10680000Y75530000D03*
X10680000Y78070000D03*
X10680000Y80610000D03*
D12*
X78620000Y12670000D03*
D11*
X76080000Y12670000D03*
X73540000Y12670000D03*
X71000000Y12670000D03*
X68460000Y12670000D03*
X65920000Y12670000D03*
X63380000Y12670000D03*
X60840000Y12670000D03*
X58300000Y12670000D03*
X55760000Y12670000D03*
X53220000Y12670000D03*
X50680000Y12670000D03*
X48140000Y12670000D03*
X45600000Y12670000D03*
X43060000Y12670000D03*
X40520000Y12670000D03*
X37980000Y12670000D03*
X35440000Y12670000D03*
X32900000Y12670000D03*
X30360000Y12670000D03*
X27820000Y12670000D03*
X93220000Y29810000D03*
X93220000Y32350000D03*
X93220000Y34890000D03*
X93220000Y37430000D03*
X93220000Y39970000D03*
X93220000Y42510000D03*
X93220000Y45050000D03*
X93220000Y47590000D03*
X93220000Y50130000D03*
X93220000Y52670000D03*
X93220000Y55210000D03*
X93220000Y57750000D03*
X93220000Y60290000D03*
X93220000Y62830000D03*
X93220000Y65370000D03*
X93220000Y67910000D03*
X93220000Y70450000D03*
X93220000Y72990000D03*
X93220000Y75530000D03*
X93220000Y78070000D03*
D12*
X93220000Y80610000D03*
D11*
X27820000Y15210000D03*
X30360000Y15210000D03*
X32900000Y15210000D03*
X35440000Y15210000D03*
X37980000Y15210000D03*
X40520000Y15210000D03*
X43060000Y15210000D03*
X45600000Y15210000D03*
X48140000Y15210000D03*
X50680000Y15210000D03*
X53220000Y15210000D03*
X55760000Y15210000D03*
X58300000Y15210000D03*
X60840000Y15210000D03*
X63380000Y15210000D03*
X65920000Y15210000D03*
X68460000Y15210000D03*
X71000000Y15210000D03*
X73540000Y15210000D03*
X76080000Y15210000D03*
D12*
X78620000Y15210000D03*
D11*
X78620000Y95210000D03*
X76080000Y95210000D03*
X73540000Y95210000D03*
X71000000Y95210000D03*
X68460000Y95210000D03*
X65920000Y95210000D03*
X63380000Y95210000D03*
X60840000Y95210000D03*
X58300000Y95210000D03*
X55760000Y95210000D03*
X53220000Y95210000D03*
X50680000Y95210000D03*
X48140000Y95210000D03*
X45600000Y95210000D03*
X43060000Y95210000D03*
X40520000Y95210000D03*
X37980000Y95210000D03*
X35440000Y95210000D03*
X32900000Y95210000D03*
X30360000Y95210000D03*
D12*
X27820000Y95210000D03*
X13220000Y29810000D03*
D11*
X13220000Y32350000D03*
X13220000Y34890000D03*
X13220000Y37430000D03*
X13220000Y39970000D03*
X13220000Y42510000D03*
X13220000Y45050000D03*
X13220000Y47590000D03*
X13220000Y50130000D03*
X13220000Y52670000D03*
X13220000Y55210000D03*
X13220000Y57750000D03*
X13220000Y60290000D03*
X13220000Y62830000D03*
X13220000Y65370000D03*
X13220000Y67910000D03*
X13220000Y70450000D03*
X13220000Y72990000D03*
X13220000Y75530000D03*
X13220000Y78070000D03*
X13220000Y80610000D03*
D13*
X54490000Y69922500D03*
X55760000Y69922500D03*
X57030000Y69922500D03*
X58300000Y69922500D03*
X59570000Y69922500D03*
X60840000Y69922500D03*
X62110000Y69922500D03*
X63380000Y69922500D03*
X64650000Y69922500D03*
X65920000Y69922500D03*
D14*
X67932500Y67910000D03*
X67932500Y66640000D03*
X67932500Y65370000D03*
X67932500Y64100000D03*
X67932500Y62830000D03*
X67932500Y61560000D03*
X67932500Y60290000D03*
X67932500Y59020000D03*
X67932500Y57750000D03*
X67932500Y56480000D03*
X67932500Y55210000D03*
X67932500Y53940000D03*
X67932500Y52670000D03*
X67932500Y51400000D03*
X67932500Y50130000D03*
X67932500Y48860000D03*
X67932500Y47590000D03*
X67932500Y46320000D03*
X67932500Y45050000D03*
X67932500Y43780000D03*
X67932500Y42510000D03*
D13*
X65920000Y40497500D03*
X64650000Y40497500D03*
X63380000Y40497500D03*
X62110000Y40497500D03*
X60840000Y40497500D03*
X59570000Y40497500D03*
X58300000Y40497500D03*
X57030000Y40497500D03*
X55760000Y40497500D03*
X54490000Y40497500D03*
X53220000Y40497500D03*
X51950000Y40497500D03*
X50680000Y40497500D03*
X49410000Y40497500D03*
X48140000Y40497500D03*
X46870000Y40497500D03*
X45600000Y40497500D03*
X44330000Y40497500D03*
X43060000Y40497500D03*
X41790000Y40497500D03*
X40520000Y40497500D03*
D14*
X38507500Y42510000D03*
X38507500Y43780000D03*
X38507500Y45050000D03*
X38507500Y46320000D03*
X38507500Y47590000D03*
X38507500Y48860000D03*
X38507500Y50130000D03*
X38507500Y51400000D03*
X38507500Y52670000D03*
X38507500Y53940000D03*
X38507500Y55210000D03*
X38507500Y56480000D03*
X38507500Y57750000D03*
X38507500Y59020000D03*
X38507500Y60290000D03*
X38507500Y61560000D03*
X38507500Y62830000D03*
X38507500Y64100000D03*
X38507500Y65370000D03*
X38507500Y66640000D03*
X38507500Y67910000D03*
D13*
X40520000Y69922500D03*
X41790000Y69922500D03*
X43060000Y69922500D03*
X44330000Y69922500D03*
X45600000Y69922500D03*
X46870000Y69922500D03*
X48140000Y69922500D03*
X49410000Y69922500D03*
X50680000Y69922500D03*
X51950000Y69922500D03*
X53220000Y69922500D03*
D15*
X17165000Y21685000D03*
X19215000Y21685000D03*
X19215000Y19040000D03*
X17165000Y19040000D03*
D16*
X12815000Y21695000D03*
D17*
X11365000Y21695000D03*
X11365000Y24360000D03*
D16*
X12815000Y24360000D03*
D12*
X83205000Y93815000D03*
D11*
X83205000Y96355000D03*
X85745000Y93815000D03*
X85745000Y96355000D03*
X88285000Y93815000D03*
X88285000Y96355000D03*
D15*
X19215000Y24360000D03*
X17165000Y24360000D03*
D18*
X80040000Y84680000D03*
D19*
X82580000Y84680000D03*
X80040000Y82140000D03*
X82580000Y82140000D03*
X80040000Y79600000D03*
X82580000Y79600000D03*
X80040000Y77060000D03*
X82580000Y77060000D03*
X80040000Y74520000D03*
X82580000Y74520000D03*
X80040000Y71980000D03*
X82580000Y71980000D03*
X80040000Y69440000D03*
X82580000Y69440000D03*
X80040000Y66900000D03*
X82580000Y66900000D03*
X80040000Y64360000D03*
X82580000Y64360000D03*
X80040000Y61820000D03*
X82580000Y61820000D03*
D12*
X79895000Y52300000D03*
D11*
X82435000Y52300000D03*
D20*
X21595000Y19040000D03*
X23645000Y19040000D03*
X21595000Y24360000D03*
X23645000Y24360000D03*
X21595000Y21685000D03*
X23645000Y21685000D03*
M02*
