M48
; DRILL file {KiCad 6.0.9+dfsg-1} date Thu 29 Dec 2022 02:55:34 PM EET
; FORMAT={-:-/ absolute / metric / decimal}
; #@! TF.CreationDate,2022-12-29T14:55:34+02:00
; #@! TF.GenerationSoftware,Kicad,Pcbnew,6.0.9+dfsg-1
; #@! TF.FileFunction,MixedPlating,1,2
FMAT,2
METRIC
; #@! TA.AperFunction,Plated,PTH,ViaDrill
T1C0.400
; #@! TA.AperFunction,Plated,PTH,ComponentDrill
T2C1.000
; #@! TA.AperFunction,Plated,PTH,ComponentDrill
T3C3.200
%
G90
G05
T1
X40.42Y43.02
X40.51Y67.48
X40.54Y59.02
X40.64Y50.13
X45.6Y67.87
X46.88Y42.53
X50.68Y67.82
X51.96Y42.63
X53.22Y42.56
X57.03Y67.85
X58.32Y42.56
X62.1Y67.75
X64.69Y67.525
X65.415Y66.77
X65.81Y48.87
X65.82Y57.75
X65.89Y42.53
X65.9Y65.36
X66.81Y69.16
X67.95Y68.8
T2
X10.68Y80.61
X10.68Y78.07
X10.68Y75.53
X10.68Y72.99
X10.68Y70.45
X10.68Y67.91
X10.68Y65.37
X10.68Y62.83
X10.68Y60.29
X10.68Y57.75
X10.68Y55.21
X10.68Y52.67
X10.68Y50.13
X10.68Y47.59
X10.68Y45.05
X10.68Y42.51
X10.68Y39.97
X10.68Y37.43
X10.68Y34.89
X10.68Y32.35
X10.68Y29.81
X13.22Y80.61
X13.22Y78.07
X13.22Y75.53
X13.22Y72.99
X13.22Y70.45
X13.22Y67.91
X13.22Y65.37
X13.22Y62.83
X13.22Y60.29
X13.22Y57.75
X13.22Y55.21
X13.22Y52.67
X13.22Y50.13
X13.22Y47.59
X13.22Y45.05
X13.22Y42.51
X13.22Y39.97
X13.22Y37.43
X13.22Y34.89
X13.22Y32.35
X13.22Y29.81
X27.82Y97.75
X27.82Y95.21
X27.82Y15.21
X27.82Y12.67
X30.36Y97.75
X30.36Y95.21
X30.36Y15.21
X30.36Y12.67
X32.9Y97.75
X32.9Y95.21
X32.9Y15.21
X32.9Y12.67
X35.44Y97.75
X35.44Y95.21
X35.44Y15.21
X35.44Y12.67
X37.98Y97.75
X37.98Y95.21
X37.98Y15.21
X37.98Y12.67
X40.52Y97.75
X40.52Y95.21
X40.52Y15.21
X40.52Y12.67
X43.06Y97.75
X43.06Y95.21
X43.06Y15.21
X43.06Y12.67
X45.6Y97.75
X45.6Y95.21
X45.6Y15.21
X45.6Y12.67
X48.14Y97.75
X48.14Y95.21
X48.14Y15.21
X48.14Y12.67
X50.68Y97.75
X50.68Y95.21
X50.68Y15.21
X50.68Y12.67
X53.22Y97.75
X53.22Y95.21
X53.22Y15.21
X53.22Y12.67
X55.76Y97.75
X55.76Y95.21
X55.76Y15.21
X55.76Y12.67
X58.3Y97.75
X58.3Y95.21
X58.3Y15.21
X58.3Y12.67
X60.84Y97.75
X60.84Y95.21
X60.84Y15.21
X60.84Y12.67
X63.38Y97.75
X63.38Y95.21
X63.38Y15.21
X63.38Y12.67
X65.92Y97.75
X65.92Y95.21
X65.92Y15.21
X65.92Y12.67
X68.46Y97.75
X68.46Y95.21
X68.46Y15.21
X68.46Y12.67
X71.0Y97.75
X71.0Y95.21
X71.0Y15.21
X71.0Y12.67
X73.54Y97.75
X73.54Y95.21
X73.54Y15.21
X73.54Y12.67
X76.08Y97.75
X76.08Y95.21
X76.08Y15.21
X76.08Y12.67
X78.62Y97.75
X78.62Y95.21
X78.62Y15.21
X78.62Y12.67
X79.895Y52.3
X80.04Y84.68
X80.04Y82.14
X80.04Y79.6
X80.04Y77.06
X80.04Y74.52
X80.04Y71.98
X80.04Y69.44
X80.04Y66.9
X80.04Y64.36
X80.04Y61.82
X82.435Y52.3
X82.58Y84.68
X82.58Y82.14
X82.58Y79.6
X82.58Y77.06
X82.58Y74.52
X82.58Y71.98
X82.58Y69.44
X82.58Y66.9
X82.58Y64.36
X82.58Y61.82
X83.205Y96.355
X83.205Y93.815
X85.745Y96.355
X85.745Y93.815
X88.285Y96.355
X88.285Y93.815
X93.22Y80.61
X93.22Y78.07
X93.22Y75.53
X93.22Y72.99
X93.22Y70.45
X93.22Y67.91
X93.22Y65.37
X93.22Y62.83
X93.22Y60.29
X93.22Y57.75
X93.22Y55.21
X93.22Y52.67
X93.22Y50.13
X93.22Y47.59
X93.22Y45.05
X93.22Y42.51
X93.22Y39.97
X93.22Y37.43
X93.22Y34.89
X93.22Y32.35
X93.22Y29.81
X95.76Y80.61
X95.76Y78.07
X95.76Y75.53
X95.76Y72.99
X95.76Y70.45
X95.76Y67.91
X95.76Y65.37
X95.76Y62.83
X95.76Y60.29
X95.76Y57.75
X95.76Y55.21
X95.76Y52.67
X95.76Y50.13
X95.76Y47.59
X95.76Y45.05
X95.76Y42.51
X95.76Y39.97
X95.76Y37.43
X95.76Y34.89
X95.76Y32.35
X95.76Y29.81
T3
X12.22Y96.21
X12.22Y14.21
X94.22Y96.21
X94.22Y14.21
T0
M30
