G04 #@! TF.GenerationSoftware,KiCad,Pcbnew,6.0.9+dfsg-1*
G04 #@! TF.CreationDate,2022-12-29T14:55:31+02:00*
G04 #@! TF.ProjectId,ATF1502AS-EVB,41544631-3530-4324-9153-2d4556422e6b,rev?*
G04 #@! TF.SameCoordinates,PX2c9ce60PY9405110*
G04 #@! TF.FileFunction,Paste,Top*
G04 #@! TF.FilePolarity,Positive*
%FSLAX46Y46*%
G04 Gerber Fmt 4.6, Leading zero omitted, Abs format (unit mm)*
G04 Created by KiCad (PCBNEW 6.0.9+dfsg-1) date 2022-12-29 14:55:31*
%MOMM*%
%LPD*%
G01*
G04 APERTURE LIST*
G04 Aperture macros list*
%AMRoundRect*
0 Rectangle with rounded corners*
0 $1 Rounding radius*
0 $2 $3 $4 $5 $6 $7 $8 $9 X,Y pos of 4 corners*
0 Add a 4 corners polygon primitive as box body*
4,1,4,$2,$3,$4,$5,$6,$7,$8,$9,$2,$3,0*
0 Add four circle primitives for the rounded corners*
1,1,$1+$1,$2,$3*
1,1,$1+$1,$4,$5*
1,1,$1+$1,$6,$7*
1,1,$1+$1,$8,$9*
0 Add four rect primitives between the rounded corners*
20,1,$1+$1,$2,$3,$4,$5,0*
20,1,$1+$1,$4,$5,$6,$7,0*
20,1,$1+$1,$6,$7,$8,$9,0*
20,1,$1+$1,$8,$9,$2,$3,0*%
G04 Aperture macros list end*
%ADD10R,0.700000X2.925000*%
%ADD11R,2.925000X0.700000*%
%ADD12RoundRect,0.250000X0.325000X0.450000X-0.325000X0.450000X-0.325000X-0.450000X0.325000X-0.450000X0*%
%ADD13RoundRect,0.250000X-0.325000X-0.450000X0.325000X-0.450000X0.325000X0.450000X-0.325000X0.450000X0*%
G04 APERTURE END LIST*
D10*
X54490000Y69922500D03*
X55760000Y69922500D03*
X57030000Y69922500D03*
X58300000Y69922500D03*
X59570000Y69922500D03*
X60840000Y69922500D03*
X62110000Y69922500D03*
X63380000Y69922500D03*
X64650000Y69922500D03*
X65920000Y69922500D03*
D11*
X67932500Y67910000D03*
X67932500Y66640000D03*
X67932500Y65370000D03*
X67932500Y64100000D03*
X67932500Y62830000D03*
X67932500Y61560000D03*
X67932500Y60290000D03*
X67932500Y59020000D03*
X67932500Y57750000D03*
X67932500Y56480000D03*
X67932500Y55210000D03*
X67932500Y53940000D03*
X67932500Y52670000D03*
X67932500Y51400000D03*
X67932500Y50130000D03*
X67932500Y48860000D03*
X67932500Y47590000D03*
X67932500Y46320000D03*
X67932500Y45050000D03*
X67932500Y43780000D03*
X67932500Y42510000D03*
D10*
X65920000Y40497500D03*
X64650000Y40497500D03*
X63380000Y40497500D03*
X62110000Y40497500D03*
X60840000Y40497500D03*
X59570000Y40497500D03*
X58300000Y40497500D03*
X57030000Y40497500D03*
X55760000Y40497500D03*
X54490000Y40497500D03*
X53220000Y40497500D03*
X51950000Y40497500D03*
X50680000Y40497500D03*
X49410000Y40497500D03*
X48140000Y40497500D03*
X46870000Y40497500D03*
X45600000Y40497500D03*
X44330000Y40497500D03*
X43060000Y40497500D03*
X41790000Y40497500D03*
X40520000Y40497500D03*
D11*
X38507500Y42510000D03*
X38507500Y43780000D03*
X38507500Y45050000D03*
X38507500Y46320000D03*
X38507500Y47590000D03*
X38507500Y48860000D03*
X38507500Y50130000D03*
X38507500Y51400000D03*
X38507500Y52670000D03*
X38507500Y53940000D03*
X38507500Y55210000D03*
X38507500Y56480000D03*
X38507500Y57750000D03*
X38507500Y59020000D03*
X38507500Y60290000D03*
X38507500Y61560000D03*
X38507500Y62830000D03*
X38507500Y64100000D03*
X38507500Y65370000D03*
X38507500Y66640000D03*
X38507500Y67910000D03*
D10*
X40520000Y69922500D03*
X41790000Y69922500D03*
X43060000Y69922500D03*
X44330000Y69922500D03*
X45600000Y69922500D03*
X46870000Y69922500D03*
X48140000Y69922500D03*
X49410000Y69922500D03*
X50680000Y69922500D03*
X51950000Y69922500D03*
X53220000Y69922500D03*
D12*
X17165000Y21685000D03*
X19215000Y21685000D03*
X19215000Y19040000D03*
X17165000Y19040000D03*
X19215000Y24360000D03*
X17165000Y24360000D03*
D13*
X21595000Y19040000D03*
X23645000Y19040000D03*
X21595000Y24360000D03*
X23645000Y24360000D03*
X21595000Y21685000D03*
X23645000Y21685000D03*
M02*
