G04 #@! TF.GenerationSoftware,KiCad,Pcbnew,6.0.9+dfsg-1*
G04 #@! TF.CreationDate,2022-12-29T08:22:08+02:00*
G04 #@! TF.ProjectId,ATF1502AS-EVB,41544631-3530-4324-9153-2d4556422e6b,rev?*
G04 #@! TF.SameCoordinates,PX75d6040PY9a0c090*
G04 #@! TF.FileFunction,Soldermask,Bot*
G04 #@! TF.FilePolarity,Negative*
%FSLAX46Y46*%
G04 Gerber Fmt 4.6, Leading zero omitted, Abs format (unit mm)*
G04 Created by KiCad (PCBNEW 6.0.9+dfsg-1) date 2022-12-29 08:22:08*
%MOMM*%
%LPD*%
G01*
G04 APERTURE LIST*
G04 Aperture macros list*
%AMRoundRect*
0 Rectangle with rounded corners*
0 $1 Rounding radius*
0 $2 $3 $4 $5 $6 $7 $8 $9 X,Y pos of 4 corners*
0 Add a 4 corners polygon primitive as box body*
4,1,4,$2,$3,$4,$5,$6,$7,$8,$9,$2,$3,0*
0 Add four circle primitives for the rounded corners*
1,1,$1+$1,$2,$3*
1,1,$1+$1,$4,$5*
1,1,$1+$1,$6,$7*
1,1,$1+$1,$8,$9*
0 Add four rect primitives between the rounded corners*
20,1,$1+$1,$2,$3,$4,$5,0*
20,1,$1+$1,$4,$5,$6,$7,0*
20,1,$1+$1,$6,$7,$8,$9,0*
20,1,$1+$1,$8,$9,$2,$3,0*%
G04 Aperture macros list end*
%ADD10R,1.700000X1.700000*%
%ADD11O,1.700000X1.700000*%
%ADD12RoundRect,0.250000X-0.600000X-0.600000X0.600000X-0.600000X0.600000X0.600000X-0.600000X0.600000X0*%
%ADD13C,1.700000*%
%ADD14RoundRect,0.250000X0.548008X0.088388X0.088388X0.548008X-0.548008X-0.088388X-0.088388X-0.548008X0*%
%ADD15RoundRect,0.250000X-0.088388X0.548008X-0.548008X0.088388X0.088388X-0.548008X0.548008X-0.088388X0*%
%ADD16RoundRect,0.250000X0.088388X-0.548008X0.548008X-0.088388X-0.088388X0.548008X-0.548008X0.088388X0*%
%ADD17RoundRect,0.250000X0.450000X-0.325000X0.450000X0.325000X-0.450000X0.325000X-0.450000X-0.325000X0*%
%ADD18RoundRect,0.250000X-0.325000X-0.450000X0.325000X-0.450000X0.325000X0.450000X-0.325000X0.450000X0*%
%ADD19RoundRect,0.250000X0.325000X0.450000X-0.325000X0.450000X-0.325000X-0.450000X0.325000X-0.450000X0*%
G04 APERTURE END LIST*
D10*
X12020000Y70220000D03*
D11*
X14560000Y70220000D03*
X12020000Y67680000D03*
X14560000Y67680000D03*
X12020000Y65140000D03*
X14560000Y65140000D03*
D12*
X51227500Y90040000D03*
D13*
X53767500Y90040000D03*
X51227500Y87500000D03*
X53767500Y87500000D03*
X51227500Y84960000D03*
X53767500Y84960000D03*
X51227500Y82420000D03*
X53767500Y82420000D03*
X51227500Y79880000D03*
X53767500Y79880000D03*
X51227500Y77340000D03*
X53767500Y77340000D03*
X51227500Y74800000D03*
X53767500Y74800000D03*
X51227500Y72260000D03*
X53767500Y72260000D03*
X51227500Y69720000D03*
X53767500Y69720000D03*
X51227500Y67180000D03*
X53767500Y67180000D03*
D10*
X41790000Y63335000D03*
D11*
X41790000Y65875000D03*
D14*
X29740000Y75800000D03*
X28290432Y77249568D03*
D15*
X36894784Y77084784D03*
X35445216Y75635216D03*
D11*
X39140000Y59790000D03*
X39140000Y57250000D03*
X39140000Y54710000D03*
X39140000Y52170000D03*
X39140000Y49630000D03*
X39140000Y47090000D03*
X39140000Y44550000D03*
X39140000Y42010000D03*
X39140000Y39470000D03*
X39140000Y36930000D03*
X39140000Y34390000D03*
X39140000Y31850000D03*
X39140000Y29310000D03*
X39140000Y26770000D03*
X39140000Y24230000D03*
X39140000Y21690000D03*
X39140000Y19150000D03*
X39140000Y16610000D03*
X39140000Y14070000D03*
X39140000Y11530000D03*
D16*
X27425216Y80685216D03*
X28874784Y82134784D03*
D11*
X26440000Y11530000D03*
X26440000Y14070000D03*
X26440000Y16610000D03*
X26440000Y19150000D03*
X26440000Y21690000D03*
X26440000Y24230000D03*
X26440000Y26770000D03*
X26440000Y29310000D03*
X26440000Y31850000D03*
X26440000Y34390000D03*
X26440000Y36930000D03*
X26440000Y39470000D03*
X26440000Y42010000D03*
X26440000Y44550000D03*
X26440000Y47090000D03*
X26440000Y49630000D03*
X26440000Y52170000D03*
D10*
X26440000Y54710000D03*
D11*
X26440000Y57250000D03*
X26440000Y59790000D03*
D15*
X34324784Y84714784D03*
X32875216Y83265216D03*
D17*
X32790000Y12815000D03*
X32790000Y14865000D03*
D18*
X33815000Y9440000D03*
X35865000Y9440000D03*
D19*
X31775000Y9440000D03*
X29725000Y9440000D03*
M02*
