G04 #@! TF.GenerationSoftware,KiCad,Pcbnew,6.0.9+dfsg-1*
G04 #@! TF.CreationDate,2022-12-29T08:22:08+02:00*
G04 #@! TF.ProjectId,ATF1502AS-EVB,41544631-3530-4324-9153-2d4556422e6b,rev?*
G04 #@! TF.SameCoordinates,PX75d6040PY9a0c090*
G04 #@! TF.FileFunction,Copper,L2,Bot*
G04 #@! TF.FilePolarity,Positive*
%FSLAX46Y46*%
G04 Gerber Fmt 4.6, Leading zero omitted, Abs format (unit mm)*
G04 Created by KiCad (PCBNEW 6.0.9+dfsg-1) date 2022-12-29 08:22:08*
%MOMM*%
%LPD*%
G01*
G04 APERTURE LIST*
G04 Aperture macros list*
%AMRoundRect*
0 Rectangle with rounded corners*
0 $1 Rounding radius*
0 $2 $3 $4 $5 $6 $7 $8 $9 X,Y pos of 4 corners*
0 Add a 4 corners polygon primitive as box body*
4,1,4,$2,$3,$4,$5,$6,$7,$8,$9,$2,$3,0*
0 Add four circle primitives for the rounded corners*
1,1,$1+$1,$2,$3*
1,1,$1+$1,$4,$5*
1,1,$1+$1,$6,$7*
1,1,$1+$1,$8,$9*
0 Add four rect primitives between the rounded corners*
20,1,$1+$1,$2,$3,$4,$5,0*
20,1,$1+$1,$4,$5,$6,$7,0*
20,1,$1+$1,$6,$7,$8,$9,0*
20,1,$1+$1,$8,$9,$2,$3,0*%
G04 Aperture macros list end*
G04 #@! TA.AperFunction,ComponentPad*
%ADD10R,1.700000X1.700000*%
G04 #@! TD*
G04 #@! TA.AperFunction,ComponentPad*
%ADD11O,1.700000X1.700000*%
G04 #@! TD*
G04 #@! TA.AperFunction,ComponentPad*
%ADD12RoundRect,0.250000X-0.600000X-0.600000X0.600000X-0.600000X0.600000X0.600000X-0.600000X0.600000X0*%
G04 #@! TD*
G04 #@! TA.AperFunction,ComponentPad*
%ADD13C,1.700000*%
G04 #@! TD*
G04 #@! TA.AperFunction,SMDPad,CuDef*
%ADD14RoundRect,0.250000X0.548008X0.088388X0.088388X0.548008X-0.548008X-0.088388X-0.088388X-0.548008X0*%
G04 #@! TD*
G04 #@! TA.AperFunction,SMDPad,CuDef*
%ADD15RoundRect,0.250000X-0.088388X0.548008X-0.548008X0.088388X0.088388X-0.548008X0.548008X-0.088388X0*%
G04 #@! TD*
G04 #@! TA.AperFunction,SMDPad,CuDef*
%ADD16RoundRect,0.250000X0.088388X-0.548008X0.548008X-0.088388X-0.088388X0.548008X-0.548008X0.088388X0*%
G04 #@! TD*
G04 #@! TA.AperFunction,SMDPad,CuDef*
%ADD17RoundRect,0.250000X0.450000X-0.325000X0.450000X0.325000X-0.450000X0.325000X-0.450000X-0.325000X0*%
G04 #@! TD*
G04 #@! TA.AperFunction,SMDPad,CuDef*
%ADD18RoundRect,0.250000X-0.325000X-0.450000X0.325000X-0.450000X0.325000X0.450000X-0.325000X0.450000X0*%
G04 #@! TD*
G04 #@! TA.AperFunction,SMDPad,CuDef*
%ADD19RoundRect,0.250000X0.325000X0.450000X-0.325000X0.450000X-0.325000X-0.450000X0.325000X-0.450000X0*%
G04 #@! TD*
G04 #@! TA.AperFunction,ViaPad*
%ADD20C,0.800000*%
G04 #@! TD*
G04 #@! TA.AperFunction,Conductor*
%ADD21C,0.140000*%
G04 #@! TD*
G04 #@! TA.AperFunction,Conductor*
%ADD22C,0.250000*%
G04 #@! TD*
G04 APERTURE END LIST*
D10*
X12020000Y70220000D03*
D11*
X14560000Y70220000D03*
X12020000Y67680000D03*
X14560000Y67680000D03*
X12020000Y65140000D03*
X14560000Y65140000D03*
D12*
X51227500Y90040000D03*
D13*
X53767500Y90040000D03*
X51227500Y87500000D03*
X53767500Y87500000D03*
X51227500Y84960000D03*
X53767500Y84960000D03*
X51227500Y82420000D03*
X53767500Y82420000D03*
X51227500Y79880000D03*
X53767500Y79880000D03*
X51227500Y77340000D03*
X53767500Y77340000D03*
X51227500Y74800000D03*
X53767500Y74800000D03*
X51227500Y72260000D03*
X53767500Y72260000D03*
X51227500Y69720000D03*
X53767500Y69720000D03*
X51227500Y67180000D03*
X53767500Y67180000D03*
D10*
X41790000Y63335000D03*
D11*
X41790000Y65875000D03*
D14*
X29740000Y75800000D03*
X28290432Y77249568D03*
D15*
X36894784Y77084784D03*
X35445216Y75635216D03*
D11*
X39140000Y59790000D03*
X39140000Y57250000D03*
X39140000Y54710000D03*
X39140000Y52170000D03*
X39140000Y49630000D03*
X39140000Y47090000D03*
X39140000Y44550000D03*
X39140000Y42010000D03*
X39140000Y39470000D03*
X39140000Y36930000D03*
X39140000Y34390000D03*
X39140000Y31850000D03*
X39140000Y29310000D03*
X39140000Y26770000D03*
X39140000Y24230000D03*
X39140000Y21690000D03*
X39140000Y19150000D03*
X39140000Y16610000D03*
X39140000Y14070000D03*
X39140000Y11530000D03*
D16*
X27425216Y80685216D03*
X28874784Y82134784D03*
D11*
X26440000Y11530000D03*
X26440000Y14070000D03*
X26440000Y16610000D03*
X26440000Y19150000D03*
X26440000Y21690000D03*
X26440000Y24230000D03*
X26440000Y26770000D03*
X26440000Y29310000D03*
X26440000Y31850000D03*
X26440000Y34390000D03*
X26440000Y36930000D03*
X26440000Y39470000D03*
X26440000Y42010000D03*
X26440000Y44550000D03*
X26440000Y47090000D03*
X26440000Y49630000D03*
X26440000Y52170000D03*
D10*
X26440000Y54710000D03*
D11*
X26440000Y57250000D03*
X26440000Y59790000D03*
D15*
X34324784Y84714784D03*
X32875216Y83265216D03*
D17*
X32790000Y12815000D03*
X32790000Y14865000D03*
D18*
X33815000Y9440000D03*
X35865000Y9440000D03*
D19*
X31775000Y9440000D03*
X29725000Y9440000D03*
D20*
X27510000Y76040000D03*
X39770000Y81220000D03*
X33560000Y71630000D03*
X30280000Y85690000D03*
X55150000Y83630000D03*
X32430000Y71250000D03*
X32800000Y68940000D03*
X38100000Y76090000D03*
X28320000Y75100000D03*
X25740000Y81230000D03*
X35320000Y85710000D03*
X40730000Y78820000D03*
X35390000Y73420000D03*
X27450000Y83100000D03*
X31770000Y10760000D03*
X33810000Y10720000D03*
X32790000Y11700000D03*
D21*
X51227500Y79880000D02*
X49527500Y81580000D01*
X49527500Y81580000D02*
X42040000Y81580000D01*
X38500000Y79640000D02*
X38500000Y77950000D01*
X42040000Y81580000D02*
X40770000Y80310000D01*
X40770000Y80310000D02*
X39170000Y80310000D01*
X39170000Y80310000D02*
X38500000Y79640000D01*
X38500000Y77950000D02*
X39780000Y76670000D01*
X39780000Y76670000D02*
X39780000Y75840000D01*
X39780000Y75840000D02*
X37360000Y73420000D01*
X37360000Y73420000D02*
X35390000Y73420000D01*
X30635000Y8530000D02*
X34955000Y8530000D01*
D22*
X53767500Y87500000D02*
X53767500Y67180000D01*
D21*
X29725000Y11800000D02*
X29725000Y9440000D01*
D22*
X27510000Y76469136D02*
X28290432Y77249568D01*
D21*
X34955000Y8530000D02*
X35865000Y9440000D01*
D22*
X27510000Y76040000D02*
X27510000Y76469136D01*
D21*
X32790000Y14865000D02*
X29725000Y11800000D01*
X29725000Y9440000D02*
X30635000Y8530000D01*
D22*
X25680000Y62260000D02*
X26440000Y61500000D01*
X55840000Y82940000D02*
X55150000Y83630000D01*
X34324784Y84714784D02*
X35320000Y85710000D01*
X14560000Y70220000D02*
X13270000Y68930000D01*
X39140000Y62660000D02*
X39815000Y63335000D01*
X39650000Y90040000D02*
X35320000Y85710000D01*
X25740000Y81230000D02*
X26880432Y81230000D01*
X10420000Y63000000D02*
X11160000Y62260000D01*
X51227500Y90040000D02*
X53767500Y90040000D01*
X13270000Y67050000D02*
X12475000Y66255000D01*
X26880432Y81230000D02*
X27425216Y80685216D01*
X29040000Y75100000D02*
X29740000Y75800000D01*
X12475000Y66255000D02*
X10785000Y66255000D01*
X39140000Y59790000D02*
X39140000Y62660000D01*
X53975000Y63335000D02*
X55840000Y65200000D01*
X41790000Y63335000D02*
X53975000Y63335000D01*
X36894784Y77084784D02*
X37105216Y77084784D01*
X32800000Y68940000D02*
X32800000Y70880000D01*
X39815000Y63335000D02*
X41790000Y63335000D01*
X13270000Y68930000D02*
X13270000Y67050000D01*
X55840000Y65200000D02*
X55840000Y82940000D01*
X26440000Y61500000D02*
X26440000Y59790000D01*
X10785000Y66255000D02*
X10420000Y65890000D01*
X11160000Y62260000D02*
X25680000Y62260000D01*
X32800000Y70880000D02*
X32430000Y71250000D01*
X10420000Y65890000D02*
X10420000Y63000000D01*
X51227500Y90040000D02*
X39650000Y90040000D01*
X28320000Y75100000D02*
X29040000Y75100000D01*
X37105216Y77084784D02*
X38100000Y76090000D01*
D21*
X44750000Y74800000D02*
X51227500Y74800000D01*
X40730000Y78820000D02*
X44750000Y74800000D01*
X9630000Y78150000D02*
X9630000Y87010000D01*
X10400000Y67680000D02*
X9630000Y68450000D01*
X56360000Y90100000D02*
X55120000Y88860000D01*
X52900000Y88860000D02*
X52470000Y88430000D01*
X17400000Y94780000D02*
X27440000Y94780000D01*
X27450000Y94770000D02*
X27440000Y94780000D01*
X52470000Y88430000D02*
X52470000Y83662500D01*
X52470000Y83662500D02*
X51227500Y82420000D01*
X27450000Y83100000D02*
X27450000Y94770000D01*
X55120000Y88860000D02*
X52900000Y88860000D01*
X9630000Y87010000D02*
X17400000Y94780000D01*
X27440000Y94780000D02*
X54610000Y94780000D01*
X12020000Y67680000D02*
X10400000Y67680000D01*
X9630000Y68450000D02*
X9630000Y78150000D01*
X54610000Y94780000D02*
X56360000Y93030000D01*
X56360000Y93030000D02*
X56360000Y90100000D01*
X31775000Y9440000D02*
X31775000Y10755000D01*
X31775000Y10755000D02*
X31770000Y10760000D01*
X33810000Y10720000D02*
X33810000Y9445000D01*
X33810000Y9445000D02*
X33815000Y9440000D01*
X32790000Y11700000D02*
X32790000Y12815000D01*
D22*
X51227500Y67180000D02*
X43095000Y67180000D01*
X43095000Y67180000D02*
X41790000Y65875000D01*
G04 #@! TA.AperFunction,Conductor*
G36*
X27067621Y94435498D02*
G01*
X27114114Y94381842D01*
X27125500Y94329500D01*
X27125500Y83742231D01*
X27105498Y83674110D01*
X27078473Y83646379D01*
X27079414Y83645300D01*
X26960039Y83541162D01*
X26868950Y83411556D01*
X26866190Y83404476D01*
X26814924Y83272985D01*
X26811406Y83263963D01*
X26810414Y83256430D01*
X26810414Y83256429D01*
X26798536Y83166202D01*
X26790729Y83106904D01*
X26795397Y83064626D01*
X26805676Y82971524D01*
X26808113Y82949447D01*
X26810723Y82942316D01*
X26810723Y82942314D01*
X26856198Y82818048D01*
X26862553Y82800681D01*
X26866789Y82794378D01*
X26866789Y82794377D01*
X26937866Y82688604D01*
X26950908Y82669195D01*
X26956527Y82664082D01*
X26956528Y82664081D01*
X26985855Y82637396D01*
X27068076Y82562581D01*
X27207293Y82486992D01*
X27360522Y82446793D01*
X27445659Y82445456D01*
X27513457Y82424387D01*
X27559101Y82370008D01*
X27567961Y82310887D01*
X27568674Y82310888D01*
X27568678Y82306102D01*
X27568845Y82304989D01*
X27568680Y82303566D01*
X27568822Y82141450D01*
X27570517Y82127015D01*
X27607951Y81969276D01*
X27612923Y81955617D01*
X27643919Y81893854D01*
X27656597Y81823998D01*
X27629495Y81758378D01*
X27571219Y81717827D01*
X27495942Y81716402D01*
X27488054Y81718709D01*
X27479880Y81722425D01*
X27336828Y81742912D01*
X27327939Y81741639D01*
X27202662Y81723698D01*
X27202660Y81723697D01*
X27193775Y81722425D01*
X27185605Y81718710D01*
X27185604Y81718710D01*
X27069410Y81665880D01*
X27069408Y81665879D01*
X27062223Y81662612D01*
X27056071Y81657665D01*
X27056070Y81657665D01*
X27030195Y81636861D01*
X26964572Y81609765D01*
X26945802Y81609176D01*
X26943716Y81609266D01*
X26941016Y81609500D01*
X26938305Y81609500D01*
X26935674Y81609614D01*
X26935576Y81609643D01*
X26935583Y81609807D01*
X26934879Y81609851D01*
X26928654Y81611713D01*
X26874797Y81609597D01*
X26869850Y81609500D01*
X26339682Y81609500D01*
X26271561Y81629502D01*
X26245114Y81655140D01*
X26243878Y81654051D01*
X26238855Y81659749D01*
X26234553Y81666008D01*
X26116275Y81771389D01*
X26108889Y81775300D01*
X26016965Y81823971D01*
X25976274Y81845516D01*
X25822633Y81884108D01*
X25815034Y81884148D01*
X25815033Y81884148D01*
X25749181Y81884493D01*
X25664221Y81884938D01*
X25656841Y81883166D01*
X25656839Y81883166D01*
X25517563Y81849729D01*
X25517560Y81849728D01*
X25510184Y81847957D01*
X25369414Y81775300D01*
X25250039Y81671162D01*
X25158950Y81541556D01*
X25156190Y81534476D01*
X25106359Y81406666D01*
X25101406Y81393963D01*
X25100414Y81386430D01*
X25100414Y81386429D01*
X25088397Y81295147D01*
X25080729Y81236904D01*
X25083825Y81208861D01*
X25097149Y81088182D01*
X25098113Y81079447D01*
X25100723Y81072316D01*
X25100723Y81072314D01*
X25147430Y80944681D01*
X25152553Y80930681D01*
X25156789Y80924378D01*
X25156789Y80924377D01*
X25196520Y80865252D01*
X25240908Y80799195D01*
X25358076Y80692581D01*
X25497293Y80616992D01*
X25650522Y80576793D01*
X25734477Y80575474D01*
X25801319Y80574424D01*
X25801322Y80574424D01*
X25808916Y80574305D01*
X25963332Y80609671D01*
X26086078Y80671405D01*
X26098072Y80677437D01*
X26098075Y80677439D01*
X26104855Y80680849D01*
X26176630Y80742151D01*
X26241420Y80771182D01*
X26311620Y80760577D01*
X26364942Y80713702D01*
X26383187Y80664207D01*
X26388007Y80630552D01*
X26391722Y80622382D01*
X26391722Y80622381D01*
X26438642Y80519186D01*
X26447820Y80498999D01*
X26452769Y80492844D01*
X26484182Y80453775D01*
X26486704Y80450638D01*
X27190638Y79746704D01*
X27238999Y79707820D01*
X27246186Y79704552D01*
X27246188Y79704551D01*
X27254269Y79700877D01*
X27370552Y79648007D01*
X27379437Y79646735D01*
X27379439Y79646734D01*
X27504715Y79628793D01*
X27513604Y79627520D01*
X27522493Y79628793D01*
X27647770Y79646734D01*
X27647772Y79646735D01*
X27656657Y79648007D01*
X27702209Y79668718D01*
X27781022Y79704552D01*
X27781024Y79704553D01*
X27788209Y79707820D01*
X27836571Y79746704D01*
X28363728Y80273861D01*
X28402612Y80322223D01*
X28417614Y80355217D01*
X28458710Y80445604D01*
X28458710Y80445605D01*
X28462425Y80453775D01*
X28463713Y80462764D01*
X28481639Y80587939D01*
X28482912Y80596828D01*
X28480024Y80616992D01*
X28463698Y80730993D01*
X28463697Y80730995D01*
X28462425Y80739880D01*
X28458710Y80748050D01*
X28456395Y80755968D01*
X28456475Y80826964D01*
X28494926Y80886647D01*
X28559540Y80916068D01*
X28633651Y80904042D01*
X28696855Y80872461D01*
X28710537Y80867507D01*
X28868334Y80830351D01*
X28882776Y80828680D01*
X29044895Y80828822D01*
X29059330Y80830517D01*
X29217069Y80867951D01*
X29230732Y80872924D01*
X29376016Y80945835D01*
X29387499Y80953263D01*
X29461053Y81013146D01*
X29465826Y81017456D01*
X29536552Y81088182D01*
X29544166Y81102126D01*
X29544035Y81103959D01*
X29539784Y81110574D01*
X28604669Y82045689D01*
X28570643Y82108001D01*
X28572478Y82133652D01*
X29239192Y82133652D01*
X29239323Y82131819D01*
X29243574Y82125204D01*
X29895761Y81473017D01*
X29909705Y81465403D01*
X29911538Y81465534D01*
X29918153Y81469785D01*
X29992079Y81543711D01*
X29996447Y81548555D01*
X30057028Y81623162D01*
X30064459Y81634687D01*
X30137107Y81780078D01*
X30142061Y81793760D01*
X30179217Y81951557D01*
X30180888Y81965999D01*
X30180746Y82128118D01*
X30179051Y82142553D01*
X30141617Y82300292D01*
X30136644Y82313955D01*
X30134271Y82318683D01*
X32294223Y82318683D01*
X32294354Y82316850D01*
X32298605Y82310235D01*
X32460926Y82147914D01*
X32465749Y82143565D01*
X32540379Y82082966D01*
X32551890Y82075544D01*
X32697287Y82002893D01*
X32710969Y81997939D01*
X32868766Y81960783D01*
X32883208Y81959112D01*
X33045327Y81959254D01*
X33059762Y81960949D01*
X33217501Y81998383D01*
X33231164Y82003356D01*
X33376448Y82076267D01*
X33387931Y82083695D01*
X33461485Y82143578D01*
X33466258Y82147888D01*
X33536984Y82218614D01*
X33544598Y82232558D01*
X33544467Y82234391D01*
X33540216Y82241006D01*
X32888028Y82893194D01*
X32874084Y82900808D01*
X32872251Y82900677D01*
X32865636Y82896426D01*
X32301837Y82332627D01*
X32294223Y82318683D01*
X30134271Y82318683D01*
X30063734Y82459237D01*
X30056304Y82470723D01*
X29996421Y82544278D01*
X29992113Y82549049D01*
X29832998Y82708164D01*
X29819054Y82715778D01*
X29817221Y82715647D01*
X29810606Y82711396D01*
X29246806Y82147596D01*
X29239192Y82133652D01*
X28572478Y82133652D01*
X28575708Y82178816D01*
X28604669Y82223879D01*
X29448163Y83067373D01*
X29455777Y83081317D01*
X29455646Y83083150D01*
X29451395Y83089765D01*
X29289074Y83252086D01*
X29284251Y83256435D01*
X29209621Y83317034D01*
X29198110Y83324456D01*
X29052713Y83397107D01*
X29039031Y83402061D01*
X28903386Y83434001D01*
X31569112Y83434001D01*
X31569254Y83271882D01*
X31570949Y83257447D01*
X31608383Y83099708D01*
X31613356Y83086045D01*
X31686266Y82940763D01*
X31693696Y82929277D01*
X31753579Y82855722D01*
X31757887Y82850951D01*
X31917002Y82691836D01*
X31930946Y82684222D01*
X31932779Y82684353D01*
X31939394Y82688604D01*
X32503194Y83252404D01*
X32510808Y83266348D01*
X32510677Y83268181D01*
X32506426Y83274796D01*
X31854239Y83926983D01*
X31840295Y83934597D01*
X31838462Y83934466D01*
X31831847Y83930215D01*
X31757921Y83856289D01*
X31753553Y83851445D01*
X31692972Y83776838D01*
X31685541Y83765313D01*
X31612893Y83619922D01*
X31607939Y83606240D01*
X31570783Y83448443D01*
X31569112Y83434001D01*
X28903386Y83434001D01*
X28881234Y83439217D01*
X28866792Y83440888D01*
X28704673Y83440746D01*
X28690238Y83439051D01*
X28532499Y83401617D01*
X28518836Y83396644D01*
X28373552Y83323733D01*
X28362069Y83316305D01*
X28288518Y83256424D01*
X28283734Y83252105D01*
X28282730Y83251101D01*
X28282456Y83250952D01*
X28281358Y83249960D01*
X28281121Y83250222D01*
X28220418Y83217075D01*
X28149603Y83222140D01*
X28092767Y83264687D01*
X28075769Y83295658D01*
X28036964Y83398351D01*
X28034280Y83405454D01*
X28020413Y83425630D01*
X27948855Y83529749D01*
X27948854Y83529751D01*
X27944553Y83536008D01*
X27826275Y83641389D01*
X27826341Y83641463D01*
X27784068Y83693971D01*
X27774500Y83742134D01*
X27774500Y94329500D01*
X27794502Y94397621D01*
X27848158Y94444114D01*
X27900500Y94455500D01*
X54423398Y94455500D01*
X54491519Y94435498D01*
X54512493Y94418595D01*
X55998595Y92932493D01*
X56032621Y92870181D01*
X56035500Y92843398D01*
X56035500Y90286602D01*
X56015498Y90218481D01*
X55998595Y90197507D01*
X55022493Y89221405D01*
X54960181Y89187379D01*
X54933398Y89184500D01*
X54761343Y89184500D01*
X54693222Y89204502D01*
X54646729Y89258158D01*
X54636625Y89328432D01*
X54664470Y89391070D01*
X54677948Y89407275D01*
X54677954Y89407283D01*
X54681647Y89411724D01*
X54780834Y89588835D01*
X54782690Y89594302D01*
X54782692Y89594307D01*
X54844228Y89775586D01*
X54844229Y89775591D01*
X54846084Y89781055D01*
X54846912Y89786764D01*
X54846913Y89786769D01*
X54866334Y89920714D01*
X54875212Y89981947D01*
X54876732Y90040000D01*
X54858158Y90242141D01*
X54841601Y90300848D01*
X54804625Y90431954D01*
X54804624Y90431956D01*
X54803057Y90437513D01*
X54783398Y90477379D01*
X54715831Y90614391D01*
X54713276Y90619572D01*
X54591820Y90782221D01*
X54442758Y90920013D01*
X54437875Y90923094D01*
X54437871Y90923097D01*
X54275964Y91025252D01*
X54271081Y91028333D01*
X54082539Y91103554D01*
X54076879Y91104680D01*
X54076875Y91104681D01*
X53889113Y91142029D01*
X53889110Y91142029D01*
X53883446Y91143156D01*
X53877671Y91143232D01*
X53877667Y91143232D01*
X53776293Y91144559D01*
X53680471Y91145813D01*
X53674774Y91144834D01*
X53674773Y91144834D01*
X53486107Y91112415D01*
X53480410Y91111436D01*
X53289963Y91041176D01*
X53115510Y90937388D01*
X53111170Y90933582D01*
X53111166Y90933579D01*
X53055504Y90884764D01*
X52962892Y90803545D01*
X52837220Y90644131D01*
X52834531Y90639020D01*
X52834529Y90639017D01*
X52754460Y90486832D01*
X52705040Y90435859D01*
X52642952Y90419500D01*
X52458000Y90419500D01*
X52389879Y90439502D01*
X52343386Y90493158D01*
X52332000Y90545500D01*
X52332000Y90687756D01*
X52325298Y90749448D01*
X52274571Y90884764D01*
X52269191Y90891943D01*
X52269189Y90891946D01*
X52193285Y90993224D01*
X52187904Y91000404D01*
X52130836Y91043174D01*
X52079446Y91081689D01*
X52079443Y91081691D01*
X52072264Y91087071D01*
X51982546Y91120704D01*
X51944343Y91135026D01*
X51944341Y91135026D01*
X51936948Y91137798D01*
X51929098Y91138651D01*
X51929097Y91138651D01*
X51878653Y91144131D01*
X51878652Y91144131D01*
X51875256Y91144500D01*
X50579744Y91144500D01*
X50576348Y91144131D01*
X50576347Y91144131D01*
X50525903Y91138651D01*
X50525902Y91138651D01*
X50518052Y91137798D01*
X50510659Y91135026D01*
X50510657Y91135026D01*
X50472454Y91120704D01*
X50382736Y91087071D01*
X50375557Y91081691D01*
X50375554Y91081689D01*
X50324164Y91043174D01*
X50267096Y91000404D01*
X50261715Y90993224D01*
X50185811Y90891946D01*
X50185809Y90891943D01*
X50180429Y90884764D01*
X50129702Y90749448D01*
X50123000Y90687756D01*
X50123000Y90545500D01*
X50102998Y90477379D01*
X50049342Y90430886D01*
X49997000Y90419500D01*
X39703925Y90419500D01*
X39679967Y90422050D01*
X39678308Y90422128D01*
X39668124Y90424321D01*
X39657782Y90423097D01*
X39657779Y90423097D01*
X39634779Y90420374D01*
X39628848Y90420024D01*
X39628856Y90419928D01*
X39623680Y90419500D01*
X39618476Y90419500D01*
X39599412Y90416327D01*
X39593566Y90415496D01*
X39582117Y90414141D01*
X39542659Y90409470D01*
X39534407Y90405507D01*
X39525374Y90404004D01*
X39516205Y90399057D01*
X39516203Y90399056D01*
X39480268Y90379666D01*
X39474976Y90376969D01*
X39428768Y90354781D01*
X39424493Y90351187D01*
X39422568Y90349262D01*
X39420638Y90347491D01*
X39420553Y90347445D01*
X39420441Y90347568D01*
X39419906Y90347096D01*
X39414186Y90344010D01*
X39407119Y90336365D01*
X39377584Y90304414D01*
X39374154Y90300848D01*
X35474411Y86401105D01*
X35412099Y86367079D01*
X35384658Y86364202D01*
X35244221Y86364938D01*
X35236841Y86363166D01*
X35236839Y86363166D01*
X35097563Y86329729D01*
X35097560Y86329728D01*
X35090184Y86327957D01*
X34949414Y86255300D01*
X34830039Y86151162D01*
X34738950Y86021556D01*
X34736190Y86014476D01*
X34692994Y85903684D01*
X34681406Y85873963D01*
X34680414Y85866430D01*
X34680414Y85866429D01*
X34671407Y85798013D01*
X34642685Y85733086D01*
X34583419Y85693994D01*
X34512428Y85693149D01*
X34494334Y85699758D01*
X34387619Y85748278D01*
X34387618Y85748278D01*
X34379448Y85751993D01*
X34370563Y85753265D01*
X34370561Y85753266D01*
X34245285Y85771207D01*
X34236396Y85772480D01*
X34227507Y85771207D01*
X34102230Y85753266D01*
X34102228Y85753265D01*
X34093343Y85751993D01*
X34085173Y85748278D01*
X34085172Y85748278D01*
X33968978Y85695448D01*
X33968976Y85695447D01*
X33961791Y85692180D01*
X33913429Y85653296D01*
X33386272Y85126139D01*
X33347388Y85077777D01*
X33344121Y85070592D01*
X33344120Y85070590D01*
X33291290Y84954396D01*
X33287575Y84946225D01*
X33267088Y84803172D01*
X33268361Y84794283D01*
X33270748Y84777619D01*
X33287575Y84660120D01*
X33291290Y84651950D01*
X33293605Y84644032D01*
X33293525Y84573036D01*
X33255074Y84513353D01*
X33190460Y84483932D01*
X33116349Y84495958D01*
X33053145Y84527539D01*
X33039463Y84532493D01*
X32881666Y84569649D01*
X32867224Y84571320D01*
X32705105Y84571178D01*
X32690670Y84569483D01*
X32532931Y84532049D01*
X32519268Y84527076D01*
X32373984Y84454165D01*
X32362501Y84446737D01*
X32288947Y84386854D01*
X32284174Y84382544D01*
X32213448Y84311818D01*
X32205834Y84297874D01*
X32205965Y84296041D01*
X32210216Y84289426D01*
X33896193Y82603449D01*
X33910137Y82595835D01*
X33911970Y82595966D01*
X33918585Y82600217D01*
X33992511Y82674143D01*
X33996879Y82678987D01*
X34057460Y82753594D01*
X34064891Y82765119D01*
X34137539Y82910510D01*
X34142493Y82924192D01*
X34179649Y83081989D01*
X34181320Y83096431D01*
X34181178Y83258550D01*
X34179483Y83272985D01*
X34142049Y83430724D01*
X34137077Y83444383D01*
X34106081Y83506146D01*
X34093403Y83576002D01*
X34120505Y83641622D01*
X34178781Y83682173D01*
X34254058Y83683598D01*
X34261946Y83681291D01*
X34270120Y83677575D01*
X34413172Y83657088D01*
X34422061Y83658361D01*
X34547338Y83676302D01*
X34547340Y83676303D01*
X34556225Y83677575D01*
X34569472Y83683598D01*
X34680590Y83734120D01*
X34680592Y83734121D01*
X34687777Y83737388D01*
X34736139Y83776272D01*
X35263296Y84303429D01*
X35286046Y84331724D01*
X35297233Y84345638D01*
X35297233Y84345639D01*
X35302180Y84351791D01*
X35349982Y84456925D01*
X35358278Y84475172D01*
X35358278Y84475173D01*
X35361993Y84483343D01*
X35368323Y84527539D01*
X35381207Y84617507D01*
X35382480Y84626396D01*
X35379954Y84644032D01*
X35363266Y84760561D01*
X35363265Y84760563D01*
X35361993Y84769448D01*
X35311118Y84881343D01*
X35301132Y84951634D01*
X35330733Y85016165D01*
X35390523Y85054449D01*
X35397689Y85056314D01*
X35535929Y85087975D01*
X35535933Y85087976D01*
X35543332Y85089671D01*
X35620649Y85128557D01*
X35678072Y85157437D01*
X35678075Y85157439D01*
X35684855Y85160849D01*
X35690626Y85165778D01*
X35690629Y85165780D01*
X35799536Y85258796D01*
X35799536Y85258797D01*
X35805314Y85263731D01*
X35897755Y85392376D01*
X35956842Y85539359D01*
X35979162Y85696193D01*
X35979307Y85710000D01*
X35973437Y85758504D01*
X35985109Y85828532D01*
X36009429Y85862735D01*
X39770289Y89623595D01*
X39832601Y89657621D01*
X39859384Y89660500D01*
X49997000Y89660500D01*
X50065121Y89640498D01*
X50111614Y89586842D01*
X50123000Y89534500D01*
X50123000Y89392244D01*
X50129702Y89330552D01*
X50132474Y89323159D01*
X50132474Y89323157D01*
X50140101Y89302813D01*
X50180429Y89195236D01*
X50185809Y89188057D01*
X50185811Y89188054D01*
X50228429Y89131189D01*
X50267096Y89079596D01*
X50274276Y89074215D01*
X50375554Y88998311D01*
X50375557Y88998309D01*
X50382736Y88992929D01*
X50472454Y88959296D01*
X50510657Y88944974D01*
X50510659Y88944974D01*
X50518052Y88942202D01*
X50525902Y88941349D01*
X50525903Y88941349D01*
X50576347Y88935869D01*
X50579744Y88935500D01*
X51875256Y88935500D01*
X51878653Y88935869D01*
X51929097Y88941349D01*
X51929098Y88941349D01*
X51936948Y88942202D01*
X51944341Y88944974D01*
X51944343Y88944974D01*
X51982546Y88959296D01*
X52072264Y88992929D01*
X52079443Y88998309D01*
X52079446Y88998311D01*
X52180724Y89074215D01*
X52187904Y89079596D01*
X52226571Y89131189D01*
X52269189Y89188054D01*
X52269191Y89188057D01*
X52274571Y89195236D01*
X52314899Y89302813D01*
X52322526Y89323157D01*
X52322526Y89323159D01*
X52325298Y89330552D01*
X52332000Y89392244D01*
X52332000Y89534500D01*
X52352002Y89602621D01*
X52405658Y89649114D01*
X52458000Y89660500D01*
X52645490Y89660500D01*
X52713611Y89640498D01*
X52759916Y89587251D01*
X52806877Y89485384D01*
X52810210Y89480668D01*
X52888431Y89369987D01*
X52911412Y89302813D01*
X52894427Y89233878D01*
X52842870Y89185068D01*
X52807417Y89173182D01*
X52798161Y89171550D01*
X52798155Y89171548D01*
X52787302Y89169634D01*
X52777757Y89164123D01*
X52774520Y89162945D01*
X52771394Y89161487D01*
X52760745Y89158634D01*
X52751714Y89152310D01*
X52729985Y89137095D01*
X52720714Y89131189D01*
X52688198Y89112416D01*
X52681115Y89103975D01*
X52681114Y89103974D01*
X52664056Y89083645D01*
X52656630Y89075542D01*
X52254458Y88673370D01*
X52246355Y88665944D01*
X52217584Y88641802D01*
X52212074Y88632258D01*
X52198811Y88609286D01*
X52192907Y88600018D01*
X52171366Y88569255D01*
X52168513Y88558606D01*
X52167055Y88555480D01*
X52165877Y88552243D01*
X52160366Y88542698D01*
X52158452Y88531843D01*
X52158450Y88531838D01*
X52153843Y88505713D01*
X52151465Y88494986D01*
X52144600Y88469364D01*
X52141748Y88458718D01*
X52142708Y88447742D01*
X52141747Y88436755D01*
X52137724Y88437107D01*
X52127866Y88388014D01*
X52078476Y88337014D01*
X52009352Y88320812D01*
X51942443Y88344553D01*
X51930804Y88354087D01*
X51902758Y88380013D01*
X51897875Y88383094D01*
X51897871Y88383097D01*
X51735964Y88485252D01*
X51731081Y88488333D01*
X51542539Y88563554D01*
X51536879Y88564680D01*
X51536875Y88564681D01*
X51349113Y88602029D01*
X51349110Y88602029D01*
X51343446Y88603156D01*
X51337671Y88603232D01*
X51337667Y88603232D01*
X51236293Y88604559D01*
X51140471Y88605813D01*
X51134774Y88604834D01*
X51134773Y88604834D01*
X51025516Y88586060D01*
X50940410Y88571436D01*
X50749963Y88501176D01*
X50575510Y88397388D01*
X50571170Y88393582D01*
X50571166Y88393579D01*
X50495331Y88327073D01*
X50422892Y88263545D01*
X50297220Y88104131D01*
X50202703Y87924485D01*
X50142507Y87730622D01*
X50118648Y87529036D01*
X50131924Y87326478D01*
X50133345Y87320882D01*
X50133346Y87320877D01*
X50162246Y87207085D01*
X50181892Y87129731D01*
X50184308Y87124491D01*
X50184308Y87124490D01*
X50228910Y87027741D01*
X50266877Y86945384D01*
X50270210Y86940668D01*
X50367631Y86802820D01*
X50384033Y86779611D01*
X50529438Y86637965D01*
X50698220Y86525188D01*
X50703523Y86522910D01*
X50703526Y86522908D01*
X50792207Y86484808D01*
X50884728Y86445058D01*
X50957744Y86428536D01*
X51077079Y86401533D01*
X51077084Y86401532D01*
X51082716Y86400258D01*
X51088487Y86400031D01*
X51088489Y86400031D01*
X51148256Y86397683D01*
X51285553Y86392288D01*
X51385999Y86406852D01*
X51480731Y86420587D01*
X51480736Y86420588D01*
X51486445Y86421416D01*
X51491909Y86423271D01*
X51491914Y86423272D01*
X51673193Y86484808D01*
X51673198Y86484810D01*
X51678665Y86486666D01*
X51855776Y86585853D01*
X51938930Y86655012D01*
X52004094Y86683193D01*
X52074150Y86671670D01*
X52126854Y86624101D01*
X52145500Y86558138D01*
X52145500Y85903684D01*
X52125498Y85835563D01*
X52071842Y85789070D01*
X52001568Y85778966D01*
X51933973Y85811158D01*
X51902758Y85840013D01*
X51897875Y85843094D01*
X51897871Y85843097D01*
X51735964Y85945252D01*
X51731081Y85948333D01*
X51542539Y86023554D01*
X51536879Y86024680D01*
X51536875Y86024681D01*
X51349113Y86062029D01*
X51349110Y86062029D01*
X51343446Y86063156D01*
X51337671Y86063232D01*
X51337667Y86063232D01*
X51236293Y86064559D01*
X51140471Y86065813D01*
X51134774Y86064834D01*
X51134773Y86064834D01*
X50946107Y86032415D01*
X50940410Y86031436D01*
X50749963Y85961176D01*
X50575510Y85857388D01*
X50571170Y85853582D01*
X50571166Y85853579D01*
X50451094Y85748278D01*
X50422892Y85723545D01*
X50419317Y85719010D01*
X50419316Y85719009D01*
X50412214Y85710000D01*
X50297220Y85564131D01*
X50294531Y85559020D01*
X50294529Y85559017D01*
X50280475Y85532305D01*
X50202703Y85384485D01*
X50142507Y85190622D01*
X50118648Y84989036D01*
X50131924Y84786478D01*
X50133345Y84780882D01*
X50133346Y84780877D01*
X50172580Y84626396D01*
X50181892Y84589731D01*
X50184309Y84584488D01*
X50230666Y84483932D01*
X50266877Y84405384D01*
X50270210Y84400668D01*
X50378135Y84247957D01*
X50384033Y84239611D01*
X50529438Y84097965D01*
X50534242Y84094755D01*
X50577265Y84066008D01*
X50698220Y83985188D01*
X50703523Y83982910D01*
X50703526Y83982908D01*
X50826173Y83930215D01*
X50884728Y83905058D01*
X50957744Y83888536D01*
X51077079Y83861533D01*
X51077084Y83861532D01*
X51082716Y83860258D01*
X51088487Y83860031D01*
X51088489Y83860031D01*
X51148256Y83857683D01*
X51285553Y83852288D01*
X51385999Y83866852D01*
X51480731Y83880587D01*
X51480736Y83880588D01*
X51486445Y83881416D01*
X51491909Y83883271D01*
X51491914Y83883272D01*
X51673193Y83944808D01*
X51673198Y83944810D01*
X51678665Y83946666D01*
X51855776Y84045853D01*
X51938930Y84115012D01*
X52004094Y84143193D01*
X52074150Y84131670D01*
X52126854Y84084101D01*
X52145500Y84018138D01*
X52145500Y83849103D01*
X52125498Y83780982D01*
X52108595Y83760008D01*
X51808243Y83459656D01*
X51745931Y83425630D01*
X51672459Y83431721D01*
X51542539Y83483554D01*
X51536879Y83484680D01*
X51536875Y83484681D01*
X51349113Y83522029D01*
X51349110Y83522029D01*
X51343446Y83523156D01*
X51337671Y83523232D01*
X51337667Y83523232D01*
X51236293Y83524559D01*
X51140471Y83525813D01*
X51134774Y83524834D01*
X51134773Y83524834D01*
X50946107Y83492415D01*
X50940410Y83491436D01*
X50749963Y83421176D01*
X50575510Y83317388D01*
X50571170Y83313582D01*
X50571166Y83313579D01*
X50498922Y83250222D01*
X50422892Y83183545D01*
X50297220Y83024131D01*
X50294531Y83019020D01*
X50294529Y83019017D01*
X50256720Y82947153D01*
X50202703Y82844485D01*
X50142507Y82650622D01*
X50118648Y82449036D01*
X50131924Y82246478D01*
X50133345Y82240882D01*
X50133346Y82240877D01*
X50161044Y82131819D01*
X50181892Y82049731D01*
X50184309Y82044488D01*
X50223602Y81959254D01*
X50266877Y81865384D01*
X50270210Y81860668D01*
X50367631Y81722820D01*
X50384033Y81699611D01*
X50388175Y81695576D01*
X50413237Y81671162D01*
X50529438Y81557965D01*
X50534242Y81554755D01*
X50553996Y81541556D01*
X50698220Y81445188D01*
X50703523Y81442910D01*
X50703526Y81442908D01*
X50879421Y81367338D01*
X50884728Y81365058D01*
X50957744Y81348536D01*
X51077079Y81321533D01*
X51077084Y81321532D01*
X51082716Y81320258D01*
X51088487Y81320031D01*
X51088489Y81320031D01*
X51148256Y81317683D01*
X51285553Y81312288D01*
X51385999Y81326852D01*
X51480731Y81340587D01*
X51480736Y81340588D01*
X51486445Y81341416D01*
X51491909Y81343271D01*
X51491914Y81343272D01*
X51673193Y81404808D01*
X51673198Y81404810D01*
X51678665Y81406666D01*
X51855776Y81505853D01*
X51890192Y81534476D01*
X52007413Y81631969D01*
X52011845Y81635655D01*
X52068963Y81704331D01*
X52137953Y81787282D01*
X52137955Y81787285D01*
X52141647Y81791724D01*
X52235389Y81959112D01*
X52238010Y81963792D01*
X52238011Y81963794D01*
X52240834Y81968835D01*
X52243220Y81975865D01*
X52243670Y81976504D01*
X52245041Y81979584D01*
X52245646Y81979315D01*
X52284053Y82033941D01*
X52349805Y82060722D01*
X52419598Y82047705D01*
X52471273Y81999020D01*
X52479277Y81982771D01*
X52549270Y81810397D01*
X52553913Y81801206D01*
X52633960Y81670580D01*
X52644416Y81661120D01*
X52653194Y81664904D01*
X53678405Y82690115D01*
X53740717Y82724141D01*
X53811532Y82719076D01*
X53856595Y82690115D01*
X54877974Y81668736D01*
X54889984Y81662177D01*
X54901723Y81671145D01*
X54932504Y81713981D01*
X54937815Y81722820D01*
X55032170Y81913733D01*
X55035969Y81923328D01*
X55097876Y82127085D01*
X55100055Y82137166D01*
X55128090Y82350113D01*
X55128609Y82356788D01*
X55130072Y82416636D01*
X55129878Y82423354D01*
X55112281Y82637396D01*
X55110596Y82647576D01*
X55067776Y82818048D01*
X55070580Y82888989D01*
X55111293Y82947153D01*
X55176988Y82974072D01*
X55191958Y82974728D01*
X55218771Y82974307D01*
X55286569Y82953238D01*
X55305888Y82937418D01*
X55423595Y82819711D01*
X55457621Y82757399D01*
X55460500Y82730616D01*
X55460500Y65409384D01*
X55440498Y65341263D01*
X55423595Y65320289D01*
X53854711Y63751405D01*
X53792399Y63717379D01*
X53765616Y63714500D01*
X43020499Y63714500D01*
X42952378Y63734502D01*
X42905885Y63788158D01*
X42894499Y63840500D01*
X42894499Y64210066D01*
X42879734Y64284301D01*
X42823484Y64368484D01*
X42739301Y64424734D01*
X42665067Y64439500D01*
X41790142Y64439500D01*
X40914934Y64439499D01*
X40879182Y64432388D01*
X40852874Y64427156D01*
X40852872Y64427155D01*
X40840699Y64424734D01*
X40830379Y64417839D01*
X40830378Y64417838D01*
X40826993Y64415576D01*
X40756516Y64368484D01*
X40700266Y64284301D01*
X40685500Y64210067D01*
X40685500Y63840500D01*
X40665498Y63772379D01*
X40611842Y63725886D01*
X40559500Y63714500D01*
X39868920Y63714500D01*
X39844972Y63717049D01*
X39843307Y63717128D01*
X39833124Y63719320D01*
X39822783Y63718096D01*
X39799777Y63715373D01*
X39793846Y63715023D01*
X39793854Y63714928D01*
X39788676Y63714500D01*
X39783476Y63714500D01*
X39778347Y63713646D01*
X39778344Y63713646D01*
X39764435Y63711331D01*
X39758557Y63710494D01*
X39717999Y63705694D01*
X39717998Y63705694D01*
X39707659Y63704470D01*
X39699407Y63700507D01*
X39690374Y63699004D01*
X39645227Y63674644D01*
X39639963Y63671963D01*
X39593768Y63649780D01*
X39589492Y63646186D01*
X39587552Y63644246D01*
X39585641Y63642493D01*
X39585551Y63642444D01*
X39585439Y63642567D01*
X39584904Y63642095D01*
X39579186Y63639010D01*
X39572119Y63631365D01*
X39542584Y63599414D01*
X39539154Y63595848D01*
X38909784Y62966478D01*
X38891036Y62951336D01*
X38889811Y62950221D01*
X38881060Y62944571D01*
X38874613Y62936393D01*
X38874611Y62936391D01*
X38860271Y62918200D01*
X38856325Y62913759D01*
X38856398Y62913697D01*
X38853039Y62909733D01*
X38849362Y62906056D01*
X38838108Y62890308D01*
X38834602Y62885638D01*
X38802844Y62845353D01*
X38799812Y62836719D01*
X38794486Y62829266D01*
X38791501Y62819285D01*
X38779799Y62780156D01*
X38777964Y62774508D01*
X38776582Y62770573D01*
X38760982Y62726149D01*
X38760500Y62720584D01*
X38760500Y62717876D01*
X38760386Y62715242D01*
X38760357Y62715144D01*
X38760193Y62715151D01*
X38760149Y62714447D01*
X38758287Y62708222D01*
X38758696Y62697817D01*
X38760403Y62654365D01*
X38760500Y62649418D01*
X38760500Y60915161D01*
X38740498Y60847040D01*
X38686842Y60800547D01*
X38678118Y60796951D01*
X38662463Y60791176D01*
X38488010Y60687388D01*
X38483670Y60683582D01*
X38483666Y60683579D01*
X38356554Y60572104D01*
X38335392Y60553545D01*
X38209720Y60394131D01*
X38207031Y60389020D01*
X38207029Y60389017D01*
X38194073Y60364391D01*
X38115203Y60214485D01*
X38055007Y60020622D01*
X38031148Y59819036D01*
X38044424Y59616478D01*
X38045845Y59610882D01*
X38045846Y59610877D01*
X38066119Y59531055D01*
X38094392Y59419731D01*
X38096809Y59414488D01*
X38134010Y59333792D01*
X38179377Y59235384D01*
X38296533Y59069611D01*
X38441938Y58927965D01*
X38610720Y58815188D01*
X38616023Y58812910D01*
X38616026Y58812908D01*
X38712954Y58771265D01*
X38767647Y58725997D01*
X38789184Y58658346D01*
X38770727Y58589790D01*
X38718136Y58542096D01*
X38702361Y58535732D01*
X38616868Y58507788D01*
X38607359Y58503791D01*
X38418463Y58405458D01*
X38409738Y58399964D01*
X38239433Y58272095D01*
X38231726Y58265252D01*
X38084590Y58111283D01*
X38078104Y58103273D01*
X37958098Y57927351D01*
X37953000Y57918377D01*
X37863338Y57725217D01*
X37859775Y57715530D01*
X37804389Y57515817D01*
X37805912Y57507393D01*
X37818292Y57504000D01*
X39268000Y57504000D01*
X39336121Y57483998D01*
X39382614Y57430342D01*
X39394000Y57378000D01*
X39394000Y57122000D01*
X39373998Y57053879D01*
X39320342Y57007386D01*
X39268000Y56996000D01*
X37823225Y56996000D01*
X37809694Y56992027D01*
X37808257Y56982034D01*
X37838565Y56847554D01*
X37841645Y56837725D01*
X37921770Y56640397D01*
X37926413Y56631206D01*
X38037694Y56449612D01*
X38043777Y56441301D01*
X38183213Y56280333D01*
X38190580Y56273117D01*
X38354434Y56137084D01*
X38362881Y56131169D01*
X38546756Y56023721D01*
X38556042Y56019271D01*
X38705124Y55962343D01*
X38761627Y55919356D01*
X38785920Y55852645D01*
X38770290Y55783390D01*
X38719699Y55733579D01*
X38703785Y55726421D01*
X38662463Y55711176D01*
X38488010Y55607388D01*
X38483670Y55603582D01*
X38483666Y55603579D01*
X38408839Y55537957D01*
X38335392Y55473545D01*
X38209720Y55314131D01*
X38207031Y55309020D01*
X38207029Y55309017D01*
X38171488Y55241464D01*
X38115203Y55134485D01*
X38055007Y54940622D01*
X38031148Y54739036D01*
X38044424Y54536478D01*
X38094392Y54339731D01*
X38179377Y54155384D01*
X38296533Y53989611D01*
X38441938Y53847965D01*
X38610720Y53735188D01*
X38616023Y53732910D01*
X38616026Y53732908D01*
X38747283Y53676516D01*
X38797228Y53655058D01*
X38870244Y53638536D01*
X38989579Y53611533D01*
X38989584Y53611532D01*
X38995216Y53610258D01*
X39000987Y53610031D01*
X39000989Y53610031D01*
X39060756Y53607683D01*
X39198053Y53602288D01*
X39305341Y53617844D01*
X39393231Y53630587D01*
X39393236Y53630588D01*
X39398945Y53631416D01*
X39404409Y53633271D01*
X39404414Y53633272D01*
X39585693Y53694808D01*
X39585698Y53694810D01*
X39591165Y53696666D01*
X39768276Y53795853D01*
X39786453Y53810970D01*
X39902930Y53907844D01*
X39968095Y53936025D01*
X40038150Y53924501D01*
X40090854Y53876933D01*
X40109500Y53810970D01*
X40109500Y53066078D01*
X40089498Y52997957D01*
X40035842Y52951464D01*
X39965568Y52941360D01*
X39897972Y52973552D01*
X39815258Y53050013D01*
X39810375Y53053094D01*
X39810371Y53053097D01*
X39648464Y53155252D01*
X39643581Y53158333D01*
X39455039Y53233554D01*
X39449379Y53234680D01*
X39449375Y53234681D01*
X39261613Y53272029D01*
X39261610Y53272029D01*
X39255946Y53273156D01*
X39250171Y53273232D01*
X39250167Y53273232D01*
X39148793Y53274559D01*
X39052971Y53275813D01*
X39047274Y53274834D01*
X39047273Y53274834D01*
X38858607Y53242415D01*
X38852910Y53241436D01*
X38662463Y53171176D01*
X38488010Y53067388D01*
X38483670Y53063582D01*
X38483666Y53063579D01*
X38356554Y52952104D01*
X38335392Y52933545D01*
X38209720Y52774131D01*
X38207031Y52769020D01*
X38207029Y52769017D01*
X38194073Y52744391D01*
X38115203Y52594485D01*
X38055007Y52400622D01*
X38031148Y52199036D01*
X38044424Y51996478D01*
X38045845Y51990882D01*
X38045846Y51990877D01*
X38066119Y51911055D01*
X38094392Y51799731D01*
X38096809Y51794488D01*
X38134010Y51713792D01*
X38179377Y51615384D01*
X38296533Y51449611D01*
X38441938Y51307965D01*
X38610720Y51195188D01*
X38616023Y51192910D01*
X38616026Y51192908D01*
X38704707Y51154808D01*
X38797228Y51115058D01*
X38870244Y51098536D01*
X38989579Y51071533D01*
X38989584Y51071532D01*
X38995216Y51070258D01*
X39000987Y51070031D01*
X39000989Y51070031D01*
X39060756Y51067683D01*
X39198053Y51062288D01*
X39298499Y51076852D01*
X39393231Y51090587D01*
X39393236Y51090588D01*
X39398945Y51091416D01*
X39404409Y51093271D01*
X39404414Y51093272D01*
X39585693Y51154808D01*
X39585698Y51154810D01*
X39591165Y51156666D01*
X39768276Y51255853D01*
X39786453Y51270970D01*
X39902930Y51367844D01*
X39968095Y51396025D01*
X40038150Y51384501D01*
X40090854Y51336933D01*
X40109500Y51270970D01*
X40109500Y50526078D01*
X40089498Y50457957D01*
X40035842Y50411464D01*
X39965568Y50401360D01*
X39897972Y50433552D01*
X39815258Y50510013D01*
X39810375Y50513094D01*
X39810371Y50513097D01*
X39648464Y50615252D01*
X39643581Y50618333D01*
X39455039Y50693554D01*
X39449379Y50694680D01*
X39449375Y50694681D01*
X39261613Y50732029D01*
X39261610Y50732029D01*
X39255946Y50733156D01*
X39250171Y50733232D01*
X39250167Y50733232D01*
X39148793Y50734559D01*
X39052971Y50735813D01*
X39047274Y50734834D01*
X39047273Y50734834D01*
X38858607Y50702415D01*
X38852910Y50701436D01*
X38662463Y50631176D01*
X38488010Y50527388D01*
X38483670Y50523582D01*
X38483666Y50523579D01*
X38356554Y50412104D01*
X38335392Y50393545D01*
X38209720Y50234131D01*
X38207031Y50229020D01*
X38207029Y50229017D01*
X38194073Y50204391D01*
X38115203Y50054485D01*
X38055007Y49860622D01*
X38031148Y49659036D01*
X38044424Y49456478D01*
X38045845Y49450882D01*
X38045846Y49450877D01*
X38066119Y49371055D01*
X38094392Y49259731D01*
X38096809Y49254488D01*
X38134010Y49173792D01*
X38179377Y49075384D01*
X38296533Y48909611D01*
X38441938Y48767965D01*
X38610720Y48655188D01*
X38616023Y48652910D01*
X38616026Y48652908D01*
X38704707Y48614808D01*
X38797228Y48575058D01*
X38870244Y48558536D01*
X38989579Y48531533D01*
X38989584Y48531532D01*
X38995216Y48530258D01*
X39000987Y48530031D01*
X39000989Y48530031D01*
X39060756Y48527683D01*
X39198053Y48522288D01*
X39298499Y48536852D01*
X39393231Y48550587D01*
X39393236Y48550588D01*
X39398945Y48551416D01*
X39404409Y48553271D01*
X39404414Y48553272D01*
X39585693Y48614808D01*
X39585698Y48614810D01*
X39591165Y48616666D01*
X39768276Y48715853D01*
X39786453Y48730970D01*
X39902930Y48827844D01*
X39968095Y48856025D01*
X40038150Y48844501D01*
X40090854Y48796933D01*
X40109500Y48730970D01*
X40109500Y47986078D01*
X40089498Y47917957D01*
X40035842Y47871464D01*
X39965568Y47861360D01*
X39897972Y47893552D01*
X39815258Y47970013D01*
X39810375Y47973094D01*
X39810371Y47973097D01*
X39648464Y48075252D01*
X39643581Y48078333D01*
X39455039Y48153554D01*
X39449379Y48154680D01*
X39449375Y48154681D01*
X39261613Y48192029D01*
X39261610Y48192029D01*
X39255946Y48193156D01*
X39250171Y48193232D01*
X39250167Y48193232D01*
X39148793Y48194559D01*
X39052971Y48195813D01*
X39047274Y48194834D01*
X39047273Y48194834D01*
X38858607Y48162415D01*
X38852910Y48161436D01*
X38662463Y48091176D01*
X38488010Y47987388D01*
X38483670Y47983582D01*
X38483666Y47983579D01*
X38356554Y47872104D01*
X38335392Y47853545D01*
X38209720Y47694131D01*
X38207031Y47689020D01*
X38207029Y47689017D01*
X38194073Y47664391D01*
X38115203Y47514485D01*
X38055007Y47320622D01*
X38031148Y47119036D01*
X38044424Y46916478D01*
X38045845Y46910882D01*
X38045846Y46910877D01*
X38066119Y46831055D01*
X38094392Y46719731D01*
X38096809Y46714488D01*
X38134010Y46633792D01*
X38179377Y46535384D01*
X38296533Y46369611D01*
X38441938Y46227965D01*
X38610720Y46115188D01*
X38616023Y46112910D01*
X38616026Y46112908D01*
X38704707Y46074808D01*
X38797228Y46035058D01*
X38870244Y46018536D01*
X38989579Y45991533D01*
X38989584Y45991532D01*
X38995216Y45990258D01*
X39000987Y45990031D01*
X39000989Y45990031D01*
X39060756Y45987683D01*
X39198053Y45982288D01*
X39298499Y45996852D01*
X39393231Y46010587D01*
X39393236Y46010588D01*
X39398945Y46011416D01*
X39404409Y46013271D01*
X39404414Y46013272D01*
X39585693Y46074808D01*
X39585698Y46074810D01*
X39591165Y46076666D01*
X39768276Y46175853D01*
X39786453Y46190970D01*
X39902930Y46287844D01*
X39968095Y46316025D01*
X40038150Y46304501D01*
X40090854Y46256933D01*
X40109500Y46190970D01*
X40109500Y45446078D01*
X40089498Y45377957D01*
X40035842Y45331464D01*
X39965568Y45321360D01*
X39897972Y45353552D01*
X39815258Y45430013D01*
X39810375Y45433094D01*
X39810371Y45433097D01*
X39648464Y45535252D01*
X39643581Y45538333D01*
X39455039Y45613554D01*
X39449379Y45614680D01*
X39449375Y45614681D01*
X39261613Y45652029D01*
X39261610Y45652029D01*
X39255946Y45653156D01*
X39250171Y45653232D01*
X39250167Y45653232D01*
X39148793Y45654559D01*
X39052971Y45655813D01*
X39047274Y45654834D01*
X39047273Y45654834D01*
X38858607Y45622415D01*
X38852910Y45621436D01*
X38662463Y45551176D01*
X38488010Y45447388D01*
X38483670Y45443582D01*
X38483666Y45443579D01*
X38356554Y45332104D01*
X38335392Y45313545D01*
X38209720Y45154131D01*
X38207031Y45149020D01*
X38207029Y45149017D01*
X38194073Y45124391D01*
X38115203Y44974485D01*
X38055007Y44780622D01*
X38031148Y44579036D01*
X38044424Y44376478D01*
X38045845Y44370882D01*
X38045846Y44370877D01*
X38066119Y44291055D01*
X38094392Y44179731D01*
X38096809Y44174488D01*
X38134010Y44093792D01*
X38179377Y43995384D01*
X38296533Y43829611D01*
X38441938Y43687965D01*
X38610720Y43575188D01*
X38616023Y43572910D01*
X38616026Y43572908D01*
X38704707Y43534808D01*
X38797228Y43495058D01*
X38870244Y43478536D01*
X38989579Y43451533D01*
X38989584Y43451532D01*
X38995216Y43450258D01*
X39000987Y43450031D01*
X39000989Y43450031D01*
X39060756Y43447683D01*
X39198053Y43442288D01*
X39298499Y43456852D01*
X39393231Y43470587D01*
X39393236Y43470588D01*
X39398945Y43471416D01*
X39404409Y43473271D01*
X39404414Y43473272D01*
X39585693Y43534808D01*
X39585698Y43534810D01*
X39591165Y43536666D01*
X39768276Y43635853D01*
X39786453Y43650970D01*
X39902930Y43747844D01*
X39968095Y43776025D01*
X40038150Y43764501D01*
X40090854Y43716933D01*
X40109500Y43650970D01*
X40109500Y42906078D01*
X40089498Y42837957D01*
X40035842Y42791464D01*
X39965568Y42781360D01*
X39897972Y42813552D01*
X39815258Y42890013D01*
X39810375Y42893094D01*
X39810371Y42893097D01*
X39648464Y42995252D01*
X39643581Y42998333D01*
X39455039Y43073554D01*
X39449379Y43074680D01*
X39449375Y43074681D01*
X39261613Y43112029D01*
X39261610Y43112029D01*
X39255946Y43113156D01*
X39250171Y43113232D01*
X39250167Y43113232D01*
X39148793Y43114559D01*
X39052971Y43115813D01*
X39047274Y43114834D01*
X39047273Y43114834D01*
X38858607Y43082415D01*
X38852910Y43081436D01*
X38662463Y43011176D01*
X38488010Y42907388D01*
X38483670Y42903582D01*
X38483666Y42903579D01*
X38356554Y42792104D01*
X38335392Y42773545D01*
X38209720Y42614131D01*
X38207031Y42609020D01*
X38207029Y42609017D01*
X38194073Y42584391D01*
X38115203Y42434485D01*
X38055007Y42240622D01*
X38031148Y42039036D01*
X38044424Y41836478D01*
X38045845Y41830882D01*
X38045846Y41830877D01*
X38066119Y41751055D01*
X38094392Y41639731D01*
X38096809Y41634488D01*
X38134010Y41553792D01*
X38179377Y41455384D01*
X38296533Y41289611D01*
X38441938Y41147965D01*
X38610720Y41035188D01*
X38616023Y41032910D01*
X38616026Y41032908D01*
X38704707Y40994808D01*
X38797228Y40955058D01*
X38870244Y40938536D01*
X38989579Y40911533D01*
X38989584Y40911532D01*
X38995216Y40910258D01*
X39000987Y40910031D01*
X39000989Y40910031D01*
X39060756Y40907683D01*
X39198053Y40902288D01*
X39298499Y40916852D01*
X39393231Y40930587D01*
X39393236Y40930588D01*
X39398945Y40931416D01*
X39404409Y40933271D01*
X39404414Y40933272D01*
X39585693Y40994808D01*
X39585698Y40994810D01*
X39591165Y40996666D01*
X39768276Y41095853D01*
X39786453Y41110970D01*
X39902930Y41207844D01*
X39968095Y41236025D01*
X40038150Y41224501D01*
X40090854Y41176933D01*
X40109500Y41110970D01*
X40109500Y40366078D01*
X40089498Y40297957D01*
X40035842Y40251464D01*
X39965568Y40241360D01*
X39897972Y40273552D01*
X39815258Y40350013D01*
X39810375Y40353094D01*
X39810371Y40353097D01*
X39648464Y40455252D01*
X39643581Y40458333D01*
X39455039Y40533554D01*
X39449379Y40534680D01*
X39449375Y40534681D01*
X39261613Y40572029D01*
X39261610Y40572029D01*
X39255946Y40573156D01*
X39250171Y40573232D01*
X39250167Y40573232D01*
X39148793Y40574559D01*
X39052971Y40575813D01*
X39047274Y40574834D01*
X39047273Y40574834D01*
X38858607Y40542415D01*
X38852910Y40541436D01*
X38662463Y40471176D01*
X38488010Y40367388D01*
X38483670Y40363582D01*
X38483666Y40363579D01*
X38356554Y40252104D01*
X38335392Y40233545D01*
X38209720Y40074131D01*
X38207031Y40069020D01*
X38207029Y40069017D01*
X38194073Y40044391D01*
X38115203Y39894485D01*
X38055007Y39700622D01*
X38031148Y39499036D01*
X38044424Y39296478D01*
X38045845Y39290882D01*
X38045846Y39290877D01*
X38066119Y39211055D01*
X38094392Y39099731D01*
X38096809Y39094488D01*
X38134010Y39013792D01*
X38179377Y38915384D01*
X38296533Y38749611D01*
X38441938Y38607965D01*
X38610720Y38495188D01*
X38616023Y38492910D01*
X38616026Y38492908D01*
X38704707Y38454808D01*
X38797228Y38415058D01*
X38870244Y38398536D01*
X38989579Y38371533D01*
X38989584Y38371532D01*
X38995216Y38370258D01*
X39000987Y38370031D01*
X39000989Y38370031D01*
X39060756Y38367683D01*
X39198053Y38362288D01*
X39298499Y38376852D01*
X39393231Y38390587D01*
X39393236Y38390588D01*
X39398945Y38391416D01*
X39404409Y38393271D01*
X39404414Y38393272D01*
X39585693Y38454808D01*
X39585698Y38454810D01*
X39591165Y38456666D01*
X39768276Y38555853D01*
X39786453Y38570970D01*
X39902930Y38667844D01*
X39968095Y38696025D01*
X40038150Y38684501D01*
X40090854Y38636933D01*
X40109500Y38570970D01*
X40109500Y37826078D01*
X40089498Y37757957D01*
X40035842Y37711464D01*
X39965568Y37701360D01*
X39897972Y37733552D01*
X39815258Y37810013D01*
X39810375Y37813094D01*
X39810371Y37813097D01*
X39648464Y37915252D01*
X39643581Y37918333D01*
X39455039Y37993554D01*
X39449379Y37994680D01*
X39449375Y37994681D01*
X39261613Y38032029D01*
X39261610Y38032029D01*
X39255946Y38033156D01*
X39250171Y38033232D01*
X39250167Y38033232D01*
X39148793Y38034559D01*
X39052971Y38035813D01*
X39047274Y38034834D01*
X39047273Y38034834D01*
X38858607Y38002415D01*
X38852910Y38001436D01*
X38662463Y37931176D01*
X38488010Y37827388D01*
X38483670Y37823582D01*
X38483666Y37823579D01*
X38356554Y37712104D01*
X38335392Y37693545D01*
X38209720Y37534131D01*
X38207031Y37529020D01*
X38207029Y37529017D01*
X38194073Y37504391D01*
X38115203Y37354485D01*
X38055007Y37160622D01*
X38031148Y36959036D01*
X38044424Y36756478D01*
X38045845Y36750882D01*
X38045846Y36750877D01*
X38066119Y36671055D01*
X38094392Y36559731D01*
X38096809Y36554488D01*
X38134010Y36473792D01*
X38179377Y36375384D01*
X38296533Y36209611D01*
X38441938Y36067965D01*
X38610720Y35955188D01*
X38616023Y35952910D01*
X38616026Y35952908D01*
X38704707Y35914808D01*
X38797228Y35875058D01*
X38870244Y35858536D01*
X38989579Y35831533D01*
X38989584Y35831532D01*
X38995216Y35830258D01*
X39000987Y35830031D01*
X39000989Y35830031D01*
X39060756Y35827683D01*
X39198053Y35822288D01*
X39298499Y35836852D01*
X39393231Y35850587D01*
X39393236Y35850588D01*
X39398945Y35851416D01*
X39404409Y35853271D01*
X39404414Y35853272D01*
X39585693Y35914808D01*
X39585698Y35914810D01*
X39591165Y35916666D01*
X39768276Y36015853D01*
X39786453Y36030970D01*
X39902930Y36127844D01*
X39968095Y36156025D01*
X40038150Y36144501D01*
X40090854Y36096933D01*
X40109500Y36030970D01*
X40109500Y35286078D01*
X40089498Y35217957D01*
X40035842Y35171464D01*
X39965568Y35161360D01*
X39897972Y35193552D01*
X39815258Y35270013D01*
X39810375Y35273094D01*
X39810371Y35273097D01*
X39648464Y35375252D01*
X39643581Y35378333D01*
X39455039Y35453554D01*
X39449379Y35454680D01*
X39449375Y35454681D01*
X39261613Y35492029D01*
X39261610Y35492029D01*
X39255946Y35493156D01*
X39250171Y35493232D01*
X39250167Y35493232D01*
X39148793Y35494559D01*
X39052971Y35495813D01*
X39047274Y35494834D01*
X39047273Y35494834D01*
X38858607Y35462415D01*
X38852910Y35461436D01*
X38662463Y35391176D01*
X38488010Y35287388D01*
X38483670Y35283582D01*
X38483666Y35283579D01*
X38356554Y35172104D01*
X38335392Y35153545D01*
X38209720Y34994131D01*
X38207031Y34989020D01*
X38207029Y34989017D01*
X38194073Y34964391D01*
X38115203Y34814485D01*
X38055007Y34620622D01*
X38031148Y34419036D01*
X38044424Y34216478D01*
X38045845Y34210882D01*
X38045846Y34210877D01*
X38066119Y34131055D01*
X38094392Y34019731D01*
X38096809Y34014488D01*
X38134010Y33933792D01*
X38179377Y33835384D01*
X38296533Y33669611D01*
X38441938Y33527965D01*
X38610720Y33415188D01*
X38616023Y33412910D01*
X38616026Y33412908D01*
X38704707Y33374808D01*
X38797228Y33335058D01*
X38870244Y33318536D01*
X38989579Y33291533D01*
X38989584Y33291532D01*
X38995216Y33290258D01*
X39000987Y33290031D01*
X39000989Y33290031D01*
X39060756Y33287683D01*
X39198053Y33282288D01*
X39298499Y33296852D01*
X39393231Y33310587D01*
X39393236Y33310588D01*
X39398945Y33311416D01*
X39404409Y33313271D01*
X39404414Y33313272D01*
X39585693Y33374808D01*
X39585698Y33374810D01*
X39591165Y33376666D01*
X39768276Y33475853D01*
X39786453Y33490970D01*
X39902930Y33587844D01*
X39968095Y33616025D01*
X40038150Y33604501D01*
X40090854Y33556933D01*
X40109500Y33490970D01*
X40109500Y32746078D01*
X40089498Y32677957D01*
X40035842Y32631464D01*
X39965568Y32621360D01*
X39897972Y32653552D01*
X39815258Y32730013D01*
X39810375Y32733094D01*
X39810371Y32733097D01*
X39648464Y32835252D01*
X39643581Y32838333D01*
X39455039Y32913554D01*
X39449379Y32914680D01*
X39449375Y32914681D01*
X39261613Y32952029D01*
X39261610Y32952029D01*
X39255946Y32953156D01*
X39250171Y32953232D01*
X39250167Y32953232D01*
X39148793Y32954559D01*
X39052971Y32955813D01*
X39047274Y32954834D01*
X39047273Y32954834D01*
X38858607Y32922415D01*
X38852910Y32921436D01*
X38662463Y32851176D01*
X38488010Y32747388D01*
X38483670Y32743582D01*
X38483666Y32743579D01*
X38356554Y32632104D01*
X38335392Y32613545D01*
X38209720Y32454131D01*
X38207031Y32449020D01*
X38207029Y32449017D01*
X38194073Y32424391D01*
X38115203Y32274485D01*
X38055007Y32080622D01*
X38031148Y31879036D01*
X38044424Y31676478D01*
X38045845Y31670882D01*
X38045846Y31670877D01*
X38066119Y31591055D01*
X38094392Y31479731D01*
X38096809Y31474488D01*
X38134010Y31393792D01*
X38179377Y31295384D01*
X38296533Y31129611D01*
X38441938Y30987965D01*
X38610720Y30875188D01*
X38616023Y30872910D01*
X38616026Y30872908D01*
X38704707Y30834808D01*
X38797228Y30795058D01*
X38870244Y30778536D01*
X38989579Y30751533D01*
X38989584Y30751532D01*
X38995216Y30750258D01*
X39000987Y30750031D01*
X39000989Y30750031D01*
X39060756Y30747683D01*
X39198053Y30742288D01*
X39298499Y30756852D01*
X39393231Y30770587D01*
X39393236Y30770588D01*
X39398945Y30771416D01*
X39404409Y30773271D01*
X39404414Y30773272D01*
X39585693Y30834808D01*
X39585698Y30834810D01*
X39591165Y30836666D01*
X39768276Y30935853D01*
X39786453Y30950970D01*
X39902930Y31047844D01*
X39968095Y31076025D01*
X40038150Y31064501D01*
X40090854Y31016933D01*
X40109500Y30950970D01*
X40109500Y30206078D01*
X40089498Y30137957D01*
X40035842Y30091464D01*
X39965568Y30081360D01*
X39897972Y30113552D01*
X39815258Y30190013D01*
X39810375Y30193094D01*
X39810371Y30193097D01*
X39648464Y30295252D01*
X39643581Y30298333D01*
X39455039Y30373554D01*
X39449379Y30374680D01*
X39449375Y30374681D01*
X39261613Y30412029D01*
X39261610Y30412029D01*
X39255946Y30413156D01*
X39250171Y30413232D01*
X39250167Y30413232D01*
X39148793Y30414559D01*
X39052971Y30415813D01*
X39047274Y30414834D01*
X39047273Y30414834D01*
X38858607Y30382415D01*
X38852910Y30381436D01*
X38662463Y30311176D01*
X38488010Y30207388D01*
X38483670Y30203582D01*
X38483666Y30203579D01*
X38356554Y30092104D01*
X38335392Y30073545D01*
X38209720Y29914131D01*
X38207031Y29909020D01*
X38207029Y29909017D01*
X38194073Y29884391D01*
X38115203Y29734485D01*
X38055007Y29540622D01*
X38031148Y29339036D01*
X38044424Y29136478D01*
X38045845Y29130882D01*
X38045846Y29130877D01*
X38066119Y29051055D01*
X38094392Y28939731D01*
X38096809Y28934488D01*
X38134010Y28853792D01*
X38179377Y28755384D01*
X38296533Y28589611D01*
X38441938Y28447965D01*
X38610720Y28335188D01*
X38616023Y28332910D01*
X38616026Y28332908D01*
X38704707Y28294808D01*
X38797228Y28255058D01*
X38870244Y28238536D01*
X38989579Y28211533D01*
X38989584Y28211532D01*
X38995216Y28210258D01*
X39000987Y28210031D01*
X39000989Y28210031D01*
X39060756Y28207683D01*
X39198053Y28202288D01*
X39298499Y28216852D01*
X39393231Y28230587D01*
X39393236Y28230588D01*
X39398945Y28231416D01*
X39404409Y28233271D01*
X39404414Y28233272D01*
X39585693Y28294808D01*
X39585698Y28294810D01*
X39591165Y28296666D01*
X39768276Y28395853D01*
X39786453Y28410970D01*
X39902930Y28507844D01*
X39968095Y28536025D01*
X40038150Y28524501D01*
X40090854Y28476933D01*
X40109500Y28410970D01*
X40109500Y27666078D01*
X40089498Y27597957D01*
X40035842Y27551464D01*
X39965568Y27541360D01*
X39897972Y27573552D01*
X39815258Y27650013D01*
X39810375Y27653094D01*
X39810371Y27653097D01*
X39648464Y27755252D01*
X39643581Y27758333D01*
X39455039Y27833554D01*
X39449379Y27834680D01*
X39449375Y27834681D01*
X39261613Y27872029D01*
X39261610Y27872029D01*
X39255946Y27873156D01*
X39250171Y27873232D01*
X39250167Y27873232D01*
X39148793Y27874559D01*
X39052971Y27875813D01*
X39047274Y27874834D01*
X39047273Y27874834D01*
X38858607Y27842415D01*
X38852910Y27841436D01*
X38662463Y27771176D01*
X38488010Y27667388D01*
X38483670Y27663582D01*
X38483666Y27663579D01*
X38356554Y27552104D01*
X38335392Y27533545D01*
X38209720Y27374131D01*
X38207031Y27369020D01*
X38207029Y27369017D01*
X38194073Y27344391D01*
X38115203Y27194485D01*
X38055007Y27000622D01*
X38031148Y26799036D01*
X38044424Y26596478D01*
X38045845Y26590882D01*
X38045846Y26590877D01*
X38066119Y26511055D01*
X38094392Y26399731D01*
X38096809Y26394488D01*
X38134010Y26313792D01*
X38179377Y26215384D01*
X38296533Y26049611D01*
X38441938Y25907965D01*
X38610720Y25795188D01*
X38616023Y25792910D01*
X38616026Y25792908D01*
X38704707Y25754808D01*
X38797228Y25715058D01*
X38870244Y25698536D01*
X38989579Y25671533D01*
X38989584Y25671532D01*
X38995216Y25670258D01*
X39000987Y25670031D01*
X39000989Y25670031D01*
X39060756Y25667683D01*
X39198053Y25662288D01*
X39298499Y25676852D01*
X39393231Y25690587D01*
X39393236Y25690588D01*
X39398945Y25691416D01*
X39404409Y25693271D01*
X39404414Y25693272D01*
X39585693Y25754808D01*
X39585698Y25754810D01*
X39591165Y25756666D01*
X39768276Y25855853D01*
X39786453Y25870970D01*
X39902930Y25967844D01*
X39968095Y25996025D01*
X40038150Y25984501D01*
X40090854Y25936933D01*
X40109500Y25870970D01*
X40109500Y25126078D01*
X40089498Y25057957D01*
X40035842Y25011464D01*
X39965568Y25001360D01*
X39897972Y25033552D01*
X39815258Y25110013D01*
X39810375Y25113094D01*
X39810371Y25113097D01*
X39648464Y25215252D01*
X39643581Y25218333D01*
X39455039Y25293554D01*
X39449379Y25294680D01*
X39449375Y25294681D01*
X39261613Y25332029D01*
X39261610Y25332029D01*
X39255946Y25333156D01*
X39250171Y25333232D01*
X39250167Y25333232D01*
X39148793Y25334559D01*
X39052971Y25335813D01*
X39047274Y25334834D01*
X39047273Y25334834D01*
X38858607Y25302415D01*
X38852910Y25301436D01*
X38662463Y25231176D01*
X38488010Y25127388D01*
X38483670Y25123582D01*
X38483666Y25123579D01*
X38356554Y25012104D01*
X38335392Y24993545D01*
X38209720Y24834131D01*
X38207031Y24829020D01*
X38207029Y24829017D01*
X38194073Y24804391D01*
X38115203Y24654485D01*
X38055007Y24460622D01*
X38031148Y24259036D01*
X38044424Y24056478D01*
X38045845Y24050882D01*
X38045846Y24050877D01*
X38066119Y23971055D01*
X38094392Y23859731D01*
X38096809Y23854488D01*
X38134010Y23773792D01*
X38179377Y23675384D01*
X38296533Y23509611D01*
X38441938Y23367965D01*
X38610720Y23255188D01*
X38616023Y23252910D01*
X38616026Y23252908D01*
X38704707Y23214808D01*
X38797228Y23175058D01*
X38870244Y23158536D01*
X38989579Y23131533D01*
X38989584Y23131532D01*
X38995216Y23130258D01*
X39000987Y23130031D01*
X39000989Y23130031D01*
X39060756Y23127683D01*
X39198053Y23122288D01*
X39298499Y23136852D01*
X39393231Y23150587D01*
X39393236Y23150588D01*
X39398945Y23151416D01*
X39404409Y23153271D01*
X39404414Y23153272D01*
X39585693Y23214808D01*
X39585698Y23214810D01*
X39591165Y23216666D01*
X39768276Y23315853D01*
X39786453Y23330970D01*
X39902930Y23427844D01*
X39968095Y23456025D01*
X40038150Y23444501D01*
X40090854Y23396933D01*
X40109500Y23330970D01*
X40109500Y22586078D01*
X40089498Y22517957D01*
X40035842Y22471464D01*
X39965568Y22461360D01*
X39897972Y22493552D01*
X39815258Y22570013D01*
X39810375Y22573094D01*
X39810371Y22573097D01*
X39648464Y22675252D01*
X39643581Y22678333D01*
X39455039Y22753554D01*
X39449379Y22754680D01*
X39449375Y22754681D01*
X39261613Y22792029D01*
X39261610Y22792029D01*
X39255946Y22793156D01*
X39250171Y22793232D01*
X39250167Y22793232D01*
X39148793Y22794559D01*
X39052971Y22795813D01*
X39047274Y22794834D01*
X39047273Y22794834D01*
X38858607Y22762415D01*
X38852910Y22761436D01*
X38662463Y22691176D01*
X38488010Y22587388D01*
X38483670Y22583582D01*
X38483666Y22583579D01*
X38356554Y22472104D01*
X38335392Y22453545D01*
X38209720Y22294131D01*
X38207031Y22289020D01*
X38207029Y22289017D01*
X38194073Y22264391D01*
X38115203Y22114485D01*
X38055007Y21920622D01*
X38031148Y21719036D01*
X38044424Y21516478D01*
X38045845Y21510882D01*
X38045846Y21510877D01*
X38066119Y21431055D01*
X38094392Y21319731D01*
X38096809Y21314488D01*
X38134010Y21233792D01*
X38179377Y21135384D01*
X38296533Y20969611D01*
X38441938Y20827965D01*
X38610720Y20715188D01*
X38616023Y20712910D01*
X38616026Y20712908D01*
X38704707Y20674808D01*
X38797228Y20635058D01*
X38870244Y20618536D01*
X38989579Y20591533D01*
X38989584Y20591532D01*
X38995216Y20590258D01*
X39000987Y20590031D01*
X39000989Y20590031D01*
X39060756Y20587683D01*
X39198053Y20582288D01*
X39298499Y20596852D01*
X39393231Y20610587D01*
X39393236Y20610588D01*
X39398945Y20611416D01*
X39404409Y20613271D01*
X39404414Y20613272D01*
X39585693Y20674808D01*
X39585698Y20674810D01*
X39591165Y20676666D01*
X39768276Y20775853D01*
X39786453Y20790970D01*
X39902930Y20887844D01*
X39968095Y20916025D01*
X40038150Y20904501D01*
X40090854Y20856933D01*
X40109500Y20790970D01*
X40109500Y20046078D01*
X40089498Y19977957D01*
X40035842Y19931464D01*
X39965568Y19921360D01*
X39897972Y19953552D01*
X39815258Y20030013D01*
X39810375Y20033094D01*
X39810371Y20033097D01*
X39648464Y20135252D01*
X39643581Y20138333D01*
X39455039Y20213554D01*
X39449379Y20214680D01*
X39449375Y20214681D01*
X39261613Y20252029D01*
X39261610Y20252029D01*
X39255946Y20253156D01*
X39250171Y20253232D01*
X39250167Y20253232D01*
X39148793Y20254559D01*
X39052971Y20255813D01*
X39047274Y20254834D01*
X39047273Y20254834D01*
X38858607Y20222415D01*
X38852910Y20221436D01*
X38662463Y20151176D01*
X38488010Y20047388D01*
X38483670Y20043582D01*
X38483666Y20043579D01*
X38356554Y19932104D01*
X38335392Y19913545D01*
X38209720Y19754131D01*
X38207031Y19749020D01*
X38207029Y19749017D01*
X38194073Y19724391D01*
X38115203Y19574485D01*
X38055007Y19380622D01*
X38031148Y19179036D01*
X38044424Y18976478D01*
X38045845Y18970882D01*
X38045846Y18970877D01*
X38066119Y18891055D01*
X38094392Y18779731D01*
X38096809Y18774488D01*
X38134010Y18693792D01*
X38179377Y18595384D01*
X38296533Y18429611D01*
X38441938Y18287965D01*
X38610720Y18175188D01*
X38616023Y18172910D01*
X38616026Y18172908D01*
X38704707Y18134808D01*
X38797228Y18095058D01*
X38870244Y18078536D01*
X38989579Y18051533D01*
X38989584Y18051532D01*
X38995216Y18050258D01*
X39000987Y18050031D01*
X39000989Y18050031D01*
X39060756Y18047683D01*
X39198053Y18042288D01*
X39298499Y18056852D01*
X39393231Y18070587D01*
X39393236Y18070588D01*
X39398945Y18071416D01*
X39404409Y18073271D01*
X39404414Y18073272D01*
X39585693Y18134808D01*
X39585698Y18134810D01*
X39591165Y18136666D01*
X39768276Y18235853D01*
X39786453Y18250970D01*
X39902930Y18347844D01*
X39968095Y18376025D01*
X40038150Y18364501D01*
X40090854Y18316933D01*
X40109500Y18250970D01*
X40109500Y17506078D01*
X40089498Y17437957D01*
X40035842Y17391464D01*
X39965568Y17381360D01*
X39897972Y17413552D01*
X39815258Y17490013D01*
X39810375Y17493094D01*
X39810371Y17493097D01*
X39648464Y17595252D01*
X39643581Y17598333D01*
X39455039Y17673554D01*
X39449379Y17674680D01*
X39449375Y17674681D01*
X39261613Y17712029D01*
X39261610Y17712029D01*
X39255946Y17713156D01*
X39250171Y17713232D01*
X39250167Y17713232D01*
X39148793Y17714559D01*
X39052971Y17715813D01*
X39047274Y17714834D01*
X39047273Y17714834D01*
X38858607Y17682415D01*
X38852910Y17681436D01*
X38662463Y17611176D01*
X38488010Y17507388D01*
X38483670Y17503582D01*
X38483666Y17503579D01*
X38356554Y17392104D01*
X38335392Y17373545D01*
X38209720Y17214131D01*
X38207031Y17209020D01*
X38207029Y17209017D01*
X38194073Y17184391D01*
X38115203Y17034485D01*
X38055007Y16840622D01*
X38031148Y16639036D01*
X38044424Y16436478D01*
X38045845Y16430882D01*
X38045846Y16430877D01*
X38066119Y16351055D01*
X38094392Y16239731D01*
X38096809Y16234488D01*
X38134010Y16153792D01*
X38179377Y16055384D01*
X38182710Y16050668D01*
X38258431Y15943525D01*
X38296533Y15889611D01*
X38300675Y15885576D01*
X38308641Y15877816D01*
X38441938Y15747965D01*
X38610720Y15635188D01*
X38616023Y15632910D01*
X38616026Y15632908D01*
X38704707Y15594808D01*
X38797228Y15555058D01*
X38870244Y15538536D01*
X38989579Y15511533D01*
X38989584Y15511532D01*
X38995216Y15510258D01*
X39000987Y15510031D01*
X39000989Y15510031D01*
X39060756Y15507683D01*
X39198053Y15502288D01*
X39311638Y15518757D01*
X39393231Y15530587D01*
X39393236Y15530588D01*
X39398945Y15531416D01*
X39404409Y15533271D01*
X39404414Y15533272D01*
X39585693Y15594808D01*
X39585698Y15594810D01*
X39591165Y15596666D01*
X39768276Y15695853D01*
X39786453Y15710970D01*
X39902930Y15807844D01*
X39968095Y15836025D01*
X40038150Y15824501D01*
X40090854Y15776933D01*
X40109500Y15710970D01*
X40109500Y14966078D01*
X40089498Y14897957D01*
X40035842Y14851464D01*
X39965568Y14841360D01*
X39897972Y14873552D01*
X39815258Y14950013D01*
X39810375Y14953094D01*
X39810371Y14953097D01*
X39648464Y15055252D01*
X39643581Y15058333D01*
X39455039Y15133554D01*
X39449379Y15134680D01*
X39449375Y15134681D01*
X39261613Y15172029D01*
X39261610Y15172029D01*
X39255946Y15173156D01*
X39250171Y15173232D01*
X39250167Y15173232D01*
X39148793Y15174559D01*
X39052971Y15175813D01*
X39047274Y15174834D01*
X39047273Y15174834D01*
X38858607Y15142415D01*
X38852910Y15141436D01*
X38662463Y15071176D01*
X38488010Y14967388D01*
X38483670Y14963582D01*
X38483666Y14963579D01*
X38356554Y14852104D01*
X38335392Y14833545D01*
X38209720Y14674131D01*
X38207031Y14669020D01*
X38207029Y14669017D01*
X38173419Y14605135D01*
X38115203Y14494485D01*
X38055007Y14300622D01*
X38031148Y14099036D01*
X38044424Y13896478D01*
X38045845Y13890882D01*
X38045846Y13890877D01*
X38092971Y13705326D01*
X38094392Y13699731D01*
X38096809Y13694488D01*
X38134010Y13613792D01*
X38179377Y13515384D01*
X38296533Y13349611D01*
X38441938Y13207965D01*
X38610720Y13095188D01*
X38616023Y13092910D01*
X38616026Y13092908D01*
X38704707Y13054808D01*
X38797228Y13015058D01*
X38870244Y12998536D01*
X38989579Y12971533D01*
X38989584Y12971532D01*
X38995216Y12970258D01*
X39000987Y12970031D01*
X39000989Y12970031D01*
X39060756Y12967683D01*
X39198053Y12962288D01*
X39298499Y12976852D01*
X39393231Y12990587D01*
X39393236Y12990588D01*
X39398945Y12991416D01*
X39404409Y12993271D01*
X39404414Y12993272D01*
X39585693Y13054808D01*
X39585698Y13054810D01*
X39591165Y13056666D01*
X39768276Y13155853D01*
X39786453Y13170970D01*
X39902930Y13267844D01*
X39968095Y13296025D01*
X40038150Y13284501D01*
X40090854Y13236933D01*
X40109500Y13170970D01*
X40109500Y12426078D01*
X40089498Y12357957D01*
X40035842Y12311464D01*
X39965568Y12301360D01*
X39897972Y12333552D01*
X39815258Y12410013D01*
X39810375Y12413094D01*
X39810371Y12413097D01*
X39648464Y12515252D01*
X39643581Y12518333D01*
X39455039Y12593554D01*
X39449379Y12594680D01*
X39449375Y12594681D01*
X39261613Y12632029D01*
X39261610Y12632029D01*
X39255946Y12633156D01*
X39250171Y12633232D01*
X39250167Y12633232D01*
X39148793Y12634559D01*
X39052971Y12635813D01*
X39047274Y12634834D01*
X39047273Y12634834D01*
X38858607Y12602415D01*
X38852910Y12601436D01*
X38662463Y12531176D01*
X38488010Y12427388D01*
X38483670Y12423582D01*
X38483666Y12423579D01*
X38356554Y12312104D01*
X38335392Y12293545D01*
X38209720Y12134131D01*
X38207031Y12129020D01*
X38207029Y12129017D01*
X38194073Y12104391D01*
X38115203Y11954485D01*
X38055007Y11760622D01*
X38031148Y11559036D01*
X38044424Y11356478D01*
X38045845Y11350882D01*
X38045846Y11350877D01*
X38082602Y11206154D01*
X38094392Y11159731D01*
X38096809Y11154488D01*
X38132176Y11077772D01*
X38179377Y10975384D01*
X38182710Y10970668D01*
X38243987Y10883963D01*
X38296533Y10809611D01*
X38300675Y10805576D01*
X38357637Y10750087D01*
X38441938Y10667965D01*
X38610720Y10555188D01*
X38616023Y10552910D01*
X38616026Y10552908D01*
X38704707Y10514808D01*
X38797228Y10475058D01*
X38870244Y10458536D01*
X38989579Y10431533D01*
X38989584Y10431532D01*
X38995216Y10430258D01*
X39000987Y10430031D01*
X39000989Y10430031D01*
X39060756Y10427683D01*
X39198053Y10422288D01*
X39298499Y10436852D01*
X39393231Y10450587D01*
X39393236Y10450588D01*
X39398945Y10451416D01*
X39404409Y10453271D01*
X39404414Y10453272D01*
X39585693Y10514808D01*
X39585698Y10514810D01*
X39591165Y10516666D01*
X39768276Y10615853D01*
X39785147Y10629884D01*
X39902930Y10727844D01*
X39968095Y10756025D01*
X40038150Y10744501D01*
X40090854Y10696933D01*
X40109500Y10630970D01*
X40109500Y8546500D01*
X40089498Y8478379D01*
X40035842Y8431886D01*
X39983500Y8420500D01*
X36955103Y8420500D01*
X36886982Y8440502D01*
X36840489Y8494158D01*
X36830385Y8564432D01*
X36847843Y8612615D01*
X36877814Y8661238D01*
X36883963Y8674424D01*
X36935138Y8828710D01*
X36938005Y8842086D01*
X36947672Y8936438D01*
X36948000Y8942854D01*
X36948000Y9167885D01*
X36943525Y9183124D01*
X36942135Y9184329D01*
X36934452Y9186000D01*
X35737000Y9186000D01*
X35668879Y9206002D01*
X35622386Y9259658D01*
X35611000Y9312000D01*
X35611000Y9712115D01*
X36119000Y9712115D01*
X36123475Y9696876D01*
X36124865Y9695671D01*
X36132548Y9694000D01*
X36929884Y9694000D01*
X36945123Y9698475D01*
X36946328Y9699865D01*
X36947999Y9707548D01*
X36947999Y9937095D01*
X36947662Y9943614D01*
X36937743Y10039206D01*
X36934851Y10052600D01*
X36883412Y10206784D01*
X36877239Y10219962D01*
X36791937Y10357807D01*
X36782901Y10369208D01*
X36668171Y10483739D01*
X36656760Y10492751D01*
X36518757Y10577816D01*
X36505576Y10583963D01*
X36351290Y10635138D01*
X36337914Y10638005D01*
X36243562Y10647672D01*
X36237145Y10648000D01*
X36137115Y10648000D01*
X36121876Y10643525D01*
X36120671Y10642135D01*
X36119000Y10634452D01*
X36119000Y9712115D01*
X35611000Y9712115D01*
X35611000Y10629884D01*
X35606525Y10645123D01*
X35605135Y10646328D01*
X35597452Y10647999D01*
X35492905Y10647999D01*
X35486386Y10647662D01*
X35390794Y10637743D01*
X35377400Y10634851D01*
X35223216Y10583412D01*
X35210038Y10577239D01*
X35072193Y10491937D01*
X35060792Y10482901D01*
X34946261Y10368171D01*
X34937249Y10356760D01*
X34852184Y10218757D01*
X34846036Y10205574D01*
X34824283Y10139990D01*
X34783853Y10081630D01*
X34718288Y10054393D01*
X34648407Y10066926D01*
X34594170Y10119147D01*
X34590221Y10126360D01*
X34587071Y10134764D01*
X34500404Y10250404D01*
X34444325Y10292433D01*
X34401810Y10349292D01*
X34396784Y10420111D01*
X34402983Y10440255D01*
X34444006Y10542302D01*
X34444008Y10542309D01*
X34446842Y10549359D01*
X34454378Y10602314D01*
X34468581Y10702109D01*
X34468581Y10702112D01*
X34469162Y10706193D01*
X34469307Y10720000D01*
X34466203Y10745655D01*
X34451188Y10869727D01*
X34450276Y10877267D01*
X34394280Y11025454D01*
X34381242Y11044424D01*
X34308855Y11149749D01*
X34308854Y11149751D01*
X34304553Y11156008D01*
X34186275Y11261389D01*
X34178889Y11265300D01*
X34096767Y11308781D01*
X34046274Y11335516D01*
X33892633Y11374108D01*
X33885034Y11374148D01*
X33885033Y11374148D01*
X33819181Y11374493D01*
X33734221Y11374938D01*
X33726841Y11373166D01*
X33726839Y11373166D01*
X33587567Y11339730D01*
X33587563Y11339729D01*
X33580184Y11337957D01*
X33575231Y11335400D01*
X33505268Y11330464D01*
X33442989Y11364550D01*
X33409024Y11426895D01*
X33415263Y11500556D01*
X33424007Y11522306D01*
X33424008Y11522308D01*
X33426842Y11529359D01*
X33449162Y11686193D01*
X33449307Y11700000D01*
X33430276Y11857267D01*
X33427592Y11864370D01*
X33427591Y11864374D01*
X33419748Y11885128D01*
X33414380Y11955922D01*
X33448137Y12018379D01*
X33476762Y12039929D01*
X33484764Y12042929D01*
X33509496Y12061464D01*
X33593224Y12124215D01*
X33600404Y12129596D01*
X33615713Y12150023D01*
X33681689Y12238054D01*
X33681691Y12238057D01*
X33687071Y12245236D01*
X33737798Y12380552D01*
X33744500Y12442244D01*
X33744500Y13187756D01*
X33737798Y13249448D01*
X33687071Y13384764D01*
X33681691Y13391943D01*
X33681689Y13391946D01*
X33605785Y13493224D01*
X33600404Y13500404D01*
X33484764Y13587071D01*
X33476355Y13590223D01*
X33469126Y13594181D01*
X33418979Y13644438D01*
X33403964Y13713829D01*
X33428848Y13780322D01*
X33489757Y13824226D01*
X33556784Y13846588D01*
X33569962Y13852761D01*
X33707807Y13938063D01*
X33719208Y13947099D01*
X33833739Y14061829D01*
X33842751Y14073240D01*
X33927816Y14211243D01*
X33933963Y14224424D01*
X33985138Y14378710D01*
X33988005Y14392086D01*
X33997672Y14486438D01*
X33998000Y14492854D01*
X33998000Y14592885D01*
X33993525Y14608124D01*
X33992135Y14609329D01*
X33984452Y14611000D01*
X31600116Y14611000D01*
X31584877Y14606525D01*
X31583672Y14605135D01*
X31582001Y14597452D01*
X31582001Y14492905D01*
X31582338Y14486386D01*
X31592257Y14390794D01*
X31595149Y14377400D01*
X31646588Y14223216D01*
X31652761Y14210038D01*
X31738063Y14072193D01*
X31747099Y14060792D01*
X31861829Y13946261D01*
X31873240Y13937249D01*
X32011243Y13852184D01*
X32024426Y13846036D01*
X32090010Y13824283D01*
X32148370Y13783853D01*
X32175607Y13718288D01*
X32163074Y13648407D01*
X32110853Y13594170D01*
X32103643Y13590223D01*
X32095236Y13587071D01*
X32088051Y13581686D01*
X32088049Y13581685D01*
X32025277Y13534640D01*
X31979596Y13500404D01*
X31974215Y13493224D01*
X31898311Y13391946D01*
X31898309Y13391943D01*
X31892929Y13384764D01*
X31842202Y13249448D01*
X31835500Y13187756D01*
X31835500Y12442244D01*
X31842202Y12380552D01*
X31892929Y12245236D01*
X31898309Y12238057D01*
X31898311Y12238054D01*
X31964287Y12150023D01*
X31979596Y12129596D01*
X31986776Y12124215D01*
X32070505Y12061464D01*
X32095236Y12042929D01*
X32102742Y12040115D01*
X32152545Y11990201D01*
X32167560Y11920810D01*
X32159283Y11884167D01*
X32151406Y11863963D01*
X32150414Y11856430D01*
X32150414Y11856429D01*
X32137046Y11754885D01*
X32130729Y11706904D01*
X32148113Y11549447D01*
X32150723Y11542315D01*
X32150725Y11542306D01*
X32150783Y11542148D01*
X32150791Y11542025D01*
X32152458Y11534918D01*
X32151273Y11534640D01*
X32155406Y11471302D01*
X32120992Y11409204D01*
X32058468Y11375569D01*
X32001759Y11376650D01*
X31872157Y11409204D01*
X31852633Y11414108D01*
X31845034Y11414148D01*
X31845033Y11414148D01*
X31779181Y11414493D01*
X31694221Y11414938D01*
X31686841Y11413166D01*
X31686839Y11413166D01*
X31547563Y11379729D01*
X31547560Y11379728D01*
X31540184Y11377957D01*
X31399414Y11305300D01*
X31280039Y11201162D01*
X31188950Y11071556D01*
X31173416Y11031712D01*
X31134421Y10931695D01*
X31131406Y10923963D01*
X31130414Y10916430D01*
X31130414Y10916429D01*
X31116973Y10814331D01*
X31110729Y10766904D01*
X31117432Y10706193D01*
X31126998Y10619547D01*
X31128113Y10609447D01*
X31130723Y10602316D01*
X31130723Y10602314D01*
X31170817Y10492751D01*
X31182553Y10460681D01*
X31186790Y10454376D01*
X31187013Y10453938D01*
X31200118Y10384162D01*
X31173419Y10318377D01*
X31150312Y10295908D01*
X31089596Y10250404D01*
X31002929Y10134764D01*
X30999779Y10126360D01*
X30995819Y10119126D01*
X30945562Y10068979D01*
X30876171Y10053964D01*
X30809678Y10078848D01*
X30765774Y10139757D01*
X30743412Y10206784D01*
X30737239Y10219962D01*
X30651937Y10357807D01*
X30642901Y10369208D01*
X30528171Y10483739D01*
X30516760Y10492751D01*
X30378757Y10577816D01*
X30365576Y10583963D01*
X30211290Y10635138D01*
X30197914Y10638005D01*
X30103562Y10647672D01*
X30097145Y10648000D01*
X29997115Y10648000D01*
X29981876Y10643525D01*
X29980671Y10642135D01*
X29979000Y10634452D01*
X29979000Y9312000D01*
X29958998Y9243879D01*
X29905342Y9197386D01*
X29853000Y9186000D01*
X28660116Y9186000D01*
X28644877Y9181525D01*
X28643672Y9180135D01*
X28642001Y9172452D01*
X28642001Y8942905D01*
X28642338Y8936386D01*
X28652257Y8840794D01*
X28655149Y8827400D01*
X28706588Y8673216D01*
X28712759Y8660044D01*
X28741992Y8612803D01*
X28760829Y8544351D01*
X28739668Y8476581D01*
X28685227Y8431010D01*
X28634847Y8420500D01*
X25596500Y8420500D01*
X25528379Y8440502D01*
X25481886Y8494158D01*
X25470500Y8546500D01*
X25470500Y9712115D01*
X28642000Y9712115D01*
X28646475Y9696876D01*
X28647865Y9695671D01*
X28655548Y9694000D01*
X29452885Y9694000D01*
X29468124Y9698475D01*
X29469329Y9699865D01*
X29471000Y9707548D01*
X29471000Y10629884D01*
X29466525Y10645123D01*
X29465135Y10646328D01*
X29457452Y10647999D01*
X29352905Y10647999D01*
X29346386Y10647662D01*
X29250794Y10637743D01*
X29237400Y10634851D01*
X29083216Y10583412D01*
X29070038Y10577239D01*
X28932193Y10491937D01*
X28920792Y10482901D01*
X28806261Y10368171D01*
X28797249Y10356760D01*
X28712184Y10218757D01*
X28706037Y10205576D01*
X28654862Y10051290D01*
X28651995Y10037914D01*
X28642328Y9943562D01*
X28642000Y9937145D01*
X28642000Y9712115D01*
X25470500Y9712115D01*
X25470500Y10633741D01*
X25490502Y10701862D01*
X25544158Y10748355D01*
X25614432Y10758459D01*
X25679012Y10728965D01*
X25684404Y10724011D01*
X25741938Y10667965D01*
X25910720Y10555188D01*
X25916023Y10552910D01*
X25916026Y10552908D01*
X26004707Y10514808D01*
X26097228Y10475058D01*
X26170244Y10458536D01*
X26289579Y10431533D01*
X26289584Y10431532D01*
X26295216Y10430258D01*
X26300987Y10430031D01*
X26300989Y10430031D01*
X26360756Y10427683D01*
X26498053Y10422288D01*
X26598499Y10436852D01*
X26693231Y10450587D01*
X26693236Y10450588D01*
X26698945Y10451416D01*
X26704409Y10453271D01*
X26704414Y10453272D01*
X26885693Y10514808D01*
X26885698Y10514810D01*
X26891165Y10516666D01*
X27068276Y10615853D01*
X27085147Y10629884D01*
X27198438Y10724108D01*
X27224345Y10745655D01*
X27281463Y10814331D01*
X27350453Y10897282D01*
X27350455Y10897285D01*
X27354147Y10901724D01*
X27423439Y11025454D01*
X27450510Y11073792D01*
X27450511Y11073794D01*
X27453334Y11078835D01*
X27455190Y11084302D01*
X27455192Y11084307D01*
X27516728Y11265586D01*
X27516729Y11265591D01*
X27518584Y11271055D01*
X27519412Y11276764D01*
X27519413Y11276769D01*
X27539326Y11414108D01*
X27547712Y11471947D01*
X27549232Y11530000D01*
X27533671Y11699354D01*
X27531187Y11726387D01*
X27531186Y11726390D01*
X27530658Y11732141D01*
X27529090Y11737701D01*
X27477125Y11921954D01*
X27477124Y11921956D01*
X27475557Y11927513D01*
X27464978Y11948967D01*
X27388331Y12104391D01*
X27385776Y12109572D01*
X27264320Y12272221D01*
X27147129Y12380552D01*
X27119503Y12406089D01*
X27115258Y12410013D01*
X27110375Y12413094D01*
X27110371Y12413097D01*
X26948464Y12515252D01*
X26943581Y12518333D01*
X26755039Y12593554D01*
X26749379Y12594680D01*
X26749375Y12594681D01*
X26561613Y12632029D01*
X26561610Y12632029D01*
X26555946Y12633156D01*
X26550171Y12633232D01*
X26550167Y12633232D01*
X26448793Y12634559D01*
X26352971Y12635813D01*
X26347274Y12634834D01*
X26347273Y12634834D01*
X26158607Y12602415D01*
X26152910Y12601436D01*
X25962463Y12531176D01*
X25788010Y12427388D01*
X25783670Y12423582D01*
X25783666Y12423579D01*
X25679578Y12332295D01*
X25615174Y12302418D01*
X25544841Y12312104D01*
X25490909Y12358276D01*
X25470500Y12427027D01*
X25470500Y13173741D01*
X25490502Y13241862D01*
X25544158Y13288355D01*
X25614432Y13298459D01*
X25679012Y13268965D01*
X25684404Y13264011D01*
X25741938Y13207965D01*
X25910720Y13095188D01*
X25916023Y13092910D01*
X25916026Y13092908D01*
X26004707Y13054808D01*
X26097228Y13015058D01*
X26170244Y12998536D01*
X26289579Y12971533D01*
X26289584Y12971532D01*
X26295216Y12970258D01*
X26300987Y12970031D01*
X26300989Y12970031D01*
X26360756Y12967683D01*
X26498053Y12962288D01*
X26598499Y12976852D01*
X26693231Y12990587D01*
X26693236Y12990588D01*
X26698945Y12991416D01*
X26704409Y12993271D01*
X26704414Y12993272D01*
X26885693Y13054808D01*
X26885698Y13054810D01*
X26891165Y13056666D01*
X27068276Y13155853D01*
X27086453Y13170970D01*
X27219913Y13281969D01*
X27224345Y13285655D01*
X27354147Y13441724D01*
X27453334Y13618835D01*
X27455190Y13624302D01*
X27455192Y13624307D01*
X27516728Y13805586D01*
X27516729Y13805591D01*
X27518584Y13811055D01*
X27519412Y13816764D01*
X27519413Y13816769D01*
X27547179Y14008273D01*
X27547712Y14011947D01*
X27549232Y14070000D01*
X27530658Y14272141D01*
X27529090Y14277701D01*
X27477125Y14461954D01*
X27477124Y14461956D01*
X27475557Y14467513D01*
X27466225Y14486438D01*
X27388331Y14644391D01*
X27385776Y14649572D01*
X27264320Y14812221D01*
X27115258Y14950013D01*
X27110375Y14953094D01*
X27110371Y14953097D01*
X26948464Y15055252D01*
X26943581Y15058333D01*
X26755039Y15133554D01*
X26749379Y15134680D01*
X26749375Y15134681D01*
X26737138Y15137115D01*
X31582000Y15137115D01*
X31586475Y15121876D01*
X31587865Y15120671D01*
X31595548Y15119000D01*
X32517885Y15119000D01*
X32533124Y15123475D01*
X32534329Y15124865D01*
X32536000Y15132548D01*
X32536000Y15137115D01*
X33044000Y15137115D01*
X33048475Y15121876D01*
X33049865Y15120671D01*
X33057548Y15119000D01*
X33979884Y15119000D01*
X33995123Y15123475D01*
X33996328Y15124865D01*
X33997999Y15132548D01*
X33997999Y15237095D01*
X33997662Y15243614D01*
X33987743Y15339206D01*
X33984851Y15352600D01*
X33933412Y15506784D01*
X33927239Y15519962D01*
X33841937Y15657807D01*
X33832901Y15669208D01*
X33718171Y15783739D01*
X33706760Y15792751D01*
X33568757Y15877816D01*
X33555576Y15883963D01*
X33401290Y15935138D01*
X33387914Y15938005D01*
X33293562Y15947672D01*
X33287145Y15948000D01*
X33062115Y15948000D01*
X33046876Y15943525D01*
X33045671Y15942135D01*
X33044000Y15934452D01*
X33044000Y15137115D01*
X32536000Y15137115D01*
X32536000Y15929884D01*
X32531525Y15945123D01*
X32530135Y15946328D01*
X32522452Y15947999D01*
X32292905Y15947999D01*
X32286386Y15947662D01*
X32190794Y15937743D01*
X32177400Y15934851D01*
X32023216Y15883412D01*
X32010038Y15877239D01*
X31872193Y15791937D01*
X31860792Y15782901D01*
X31746261Y15668171D01*
X31737249Y15656760D01*
X31652184Y15518757D01*
X31646037Y15505576D01*
X31594862Y15351290D01*
X31591995Y15337914D01*
X31582328Y15243562D01*
X31582000Y15237145D01*
X31582000Y15137115D01*
X26737138Y15137115D01*
X26561613Y15172029D01*
X26561610Y15172029D01*
X26555946Y15173156D01*
X26550171Y15173232D01*
X26550167Y15173232D01*
X26448793Y15174559D01*
X26352971Y15175813D01*
X26347274Y15174834D01*
X26347273Y15174834D01*
X26158607Y15142415D01*
X26152910Y15141436D01*
X25962463Y15071176D01*
X25788010Y14967388D01*
X25783670Y14963582D01*
X25783666Y14963579D01*
X25679578Y14872295D01*
X25615174Y14842418D01*
X25544841Y14852104D01*
X25490909Y14898276D01*
X25470500Y14967027D01*
X25470500Y15713741D01*
X25490502Y15781862D01*
X25544158Y15828355D01*
X25614432Y15838459D01*
X25679012Y15808965D01*
X25684404Y15804011D01*
X25741938Y15747965D01*
X25910720Y15635188D01*
X25916023Y15632910D01*
X25916026Y15632908D01*
X26004707Y15594808D01*
X26097228Y15555058D01*
X26170244Y15538536D01*
X26289579Y15511533D01*
X26289584Y15511532D01*
X26295216Y15510258D01*
X26300987Y15510031D01*
X26300989Y15510031D01*
X26360756Y15507683D01*
X26498053Y15502288D01*
X26611638Y15518757D01*
X26693231Y15530587D01*
X26693236Y15530588D01*
X26698945Y15531416D01*
X26704409Y15533271D01*
X26704414Y15533272D01*
X26885693Y15594808D01*
X26885698Y15594810D01*
X26891165Y15596666D01*
X27068276Y15695853D01*
X27086453Y15710970D01*
X27219913Y15821969D01*
X27224345Y15825655D01*
X27323706Y15945123D01*
X27350453Y15977282D01*
X27350455Y15977285D01*
X27354147Y15981724D01*
X27453334Y16158835D01*
X27455190Y16164302D01*
X27455192Y16164307D01*
X27516728Y16345586D01*
X27516729Y16345591D01*
X27518584Y16351055D01*
X27519412Y16356764D01*
X27519413Y16356769D01*
X27547179Y16548273D01*
X27547712Y16551947D01*
X27549232Y16610000D01*
X27530658Y16812141D01*
X27529090Y16817701D01*
X27477125Y17001954D01*
X27477124Y17001956D01*
X27475557Y17007513D01*
X27464978Y17028967D01*
X27388331Y17184391D01*
X27385776Y17189572D01*
X27264320Y17352221D01*
X27115258Y17490013D01*
X27110375Y17493094D01*
X27110371Y17493097D01*
X26948464Y17595252D01*
X26943581Y17598333D01*
X26755039Y17673554D01*
X26749379Y17674680D01*
X26749375Y17674681D01*
X26561613Y17712029D01*
X26561610Y17712029D01*
X26555946Y17713156D01*
X26550171Y17713232D01*
X26550167Y17713232D01*
X26448793Y17714559D01*
X26352971Y17715813D01*
X26347274Y17714834D01*
X26347273Y17714834D01*
X26158607Y17682415D01*
X26152910Y17681436D01*
X25962463Y17611176D01*
X25788010Y17507388D01*
X25783670Y17503582D01*
X25783666Y17503579D01*
X25679578Y17412295D01*
X25615174Y17382418D01*
X25544841Y17392104D01*
X25490909Y17438276D01*
X25470500Y17507027D01*
X25470500Y18253741D01*
X25490502Y18321862D01*
X25544158Y18368355D01*
X25614432Y18378459D01*
X25679012Y18348965D01*
X25684404Y18344011D01*
X25741938Y18287965D01*
X25910720Y18175188D01*
X25916023Y18172910D01*
X25916026Y18172908D01*
X26004707Y18134808D01*
X26097228Y18095058D01*
X26170244Y18078536D01*
X26289579Y18051533D01*
X26289584Y18051532D01*
X26295216Y18050258D01*
X26300987Y18050031D01*
X26300989Y18050031D01*
X26360756Y18047683D01*
X26498053Y18042288D01*
X26598499Y18056852D01*
X26693231Y18070587D01*
X26693236Y18070588D01*
X26698945Y18071416D01*
X26704409Y18073271D01*
X26704414Y18073272D01*
X26885693Y18134808D01*
X26885698Y18134810D01*
X26891165Y18136666D01*
X27068276Y18235853D01*
X27086453Y18250970D01*
X27219913Y18361969D01*
X27224345Y18365655D01*
X27354147Y18521724D01*
X27453334Y18698835D01*
X27455190Y18704302D01*
X27455192Y18704307D01*
X27516728Y18885586D01*
X27516729Y18885591D01*
X27518584Y18891055D01*
X27519412Y18896764D01*
X27519413Y18896769D01*
X27547179Y19088273D01*
X27547712Y19091947D01*
X27549232Y19150000D01*
X27530658Y19352141D01*
X27529090Y19357701D01*
X27477125Y19541954D01*
X27477124Y19541956D01*
X27475557Y19547513D01*
X27464978Y19568967D01*
X27388331Y19724391D01*
X27385776Y19729572D01*
X27264320Y19892221D01*
X27115258Y20030013D01*
X27110375Y20033094D01*
X27110371Y20033097D01*
X26948464Y20135252D01*
X26943581Y20138333D01*
X26755039Y20213554D01*
X26749379Y20214680D01*
X26749375Y20214681D01*
X26561613Y20252029D01*
X26561610Y20252029D01*
X26555946Y20253156D01*
X26550171Y20253232D01*
X26550167Y20253232D01*
X26448793Y20254559D01*
X26352971Y20255813D01*
X26347274Y20254834D01*
X26347273Y20254834D01*
X26158607Y20222415D01*
X26152910Y20221436D01*
X25962463Y20151176D01*
X25788010Y20047388D01*
X25783670Y20043582D01*
X25783666Y20043579D01*
X25679578Y19952295D01*
X25615174Y19922418D01*
X25544841Y19932104D01*
X25490909Y19978276D01*
X25470500Y20047027D01*
X25470500Y20793741D01*
X25490502Y20861862D01*
X25544158Y20908355D01*
X25614432Y20918459D01*
X25679012Y20888965D01*
X25684404Y20884011D01*
X25741938Y20827965D01*
X25910720Y20715188D01*
X25916023Y20712910D01*
X25916026Y20712908D01*
X26004707Y20674808D01*
X26097228Y20635058D01*
X26170244Y20618536D01*
X26289579Y20591533D01*
X26289584Y20591532D01*
X26295216Y20590258D01*
X26300987Y20590031D01*
X26300989Y20590031D01*
X26360756Y20587683D01*
X26498053Y20582288D01*
X26598499Y20596852D01*
X26693231Y20610587D01*
X26693236Y20610588D01*
X26698945Y20611416D01*
X26704409Y20613271D01*
X26704414Y20613272D01*
X26885693Y20674808D01*
X26885698Y20674810D01*
X26891165Y20676666D01*
X27068276Y20775853D01*
X27086453Y20790970D01*
X27219913Y20901969D01*
X27224345Y20905655D01*
X27354147Y21061724D01*
X27453334Y21238835D01*
X27455190Y21244302D01*
X27455192Y21244307D01*
X27516728Y21425586D01*
X27516729Y21425591D01*
X27518584Y21431055D01*
X27519412Y21436764D01*
X27519413Y21436769D01*
X27547179Y21628273D01*
X27547712Y21631947D01*
X27549232Y21690000D01*
X27530658Y21892141D01*
X27529090Y21897701D01*
X27477125Y22081954D01*
X27477124Y22081956D01*
X27475557Y22087513D01*
X27464978Y22108967D01*
X27388331Y22264391D01*
X27385776Y22269572D01*
X27264320Y22432221D01*
X27115258Y22570013D01*
X27110375Y22573094D01*
X27110371Y22573097D01*
X26948464Y22675252D01*
X26943581Y22678333D01*
X26755039Y22753554D01*
X26749379Y22754680D01*
X26749375Y22754681D01*
X26561613Y22792029D01*
X26561610Y22792029D01*
X26555946Y22793156D01*
X26550171Y22793232D01*
X26550167Y22793232D01*
X26448793Y22794559D01*
X26352971Y22795813D01*
X26347274Y22794834D01*
X26347273Y22794834D01*
X26158607Y22762415D01*
X26152910Y22761436D01*
X25962463Y22691176D01*
X25788010Y22587388D01*
X25783670Y22583582D01*
X25783666Y22583579D01*
X25679578Y22492295D01*
X25615174Y22462418D01*
X25544841Y22472104D01*
X25490909Y22518276D01*
X25470500Y22587027D01*
X25470500Y23333741D01*
X25490502Y23401862D01*
X25544158Y23448355D01*
X25614432Y23458459D01*
X25679012Y23428965D01*
X25684404Y23424011D01*
X25741938Y23367965D01*
X25910720Y23255188D01*
X25916023Y23252910D01*
X25916026Y23252908D01*
X26004707Y23214808D01*
X26097228Y23175058D01*
X26170244Y23158536D01*
X26289579Y23131533D01*
X26289584Y23131532D01*
X26295216Y23130258D01*
X26300987Y23130031D01*
X26300989Y23130031D01*
X26360756Y23127683D01*
X26498053Y23122288D01*
X26598499Y23136852D01*
X26693231Y23150587D01*
X26693236Y23150588D01*
X26698945Y23151416D01*
X26704409Y23153271D01*
X26704414Y23153272D01*
X26885693Y23214808D01*
X26885698Y23214810D01*
X26891165Y23216666D01*
X27068276Y23315853D01*
X27086453Y23330970D01*
X27219913Y23441969D01*
X27224345Y23445655D01*
X27354147Y23601724D01*
X27453334Y23778835D01*
X27455190Y23784302D01*
X27455192Y23784307D01*
X27516728Y23965586D01*
X27516729Y23965591D01*
X27518584Y23971055D01*
X27519412Y23976764D01*
X27519413Y23976769D01*
X27547179Y24168273D01*
X27547712Y24171947D01*
X27549232Y24230000D01*
X27530658Y24432141D01*
X27529090Y24437701D01*
X27477125Y24621954D01*
X27477124Y24621956D01*
X27475557Y24627513D01*
X27464978Y24648967D01*
X27388331Y24804391D01*
X27385776Y24809572D01*
X27264320Y24972221D01*
X27115258Y25110013D01*
X27110375Y25113094D01*
X27110371Y25113097D01*
X26948464Y25215252D01*
X26943581Y25218333D01*
X26755039Y25293554D01*
X26749379Y25294680D01*
X26749375Y25294681D01*
X26561613Y25332029D01*
X26561610Y25332029D01*
X26555946Y25333156D01*
X26550171Y25333232D01*
X26550167Y25333232D01*
X26448793Y25334559D01*
X26352971Y25335813D01*
X26347274Y25334834D01*
X26347273Y25334834D01*
X26158607Y25302415D01*
X26152910Y25301436D01*
X25962463Y25231176D01*
X25788010Y25127388D01*
X25783670Y25123582D01*
X25783666Y25123579D01*
X25679578Y25032295D01*
X25615174Y25002418D01*
X25544841Y25012104D01*
X25490909Y25058276D01*
X25470500Y25127027D01*
X25470500Y25873741D01*
X25490502Y25941862D01*
X25544158Y25988355D01*
X25614432Y25998459D01*
X25679012Y25968965D01*
X25684404Y25964011D01*
X25741938Y25907965D01*
X25910720Y25795188D01*
X25916023Y25792910D01*
X25916026Y25792908D01*
X26004707Y25754808D01*
X26097228Y25715058D01*
X26170244Y25698536D01*
X26289579Y25671533D01*
X26289584Y25671532D01*
X26295216Y25670258D01*
X26300987Y25670031D01*
X26300989Y25670031D01*
X26360756Y25667683D01*
X26498053Y25662288D01*
X26598499Y25676852D01*
X26693231Y25690587D01*
X26693236Y25690588D01*
X26698945Y25691416D01*
X26704409Y25693271D01*
X26704414Y25693272D01*
X26885693Y25754808D01*
X26885698Y25754810D01*
X26891165Y25756666D01*
X27068276Y25855853D01*
X27086453Y25870970D01*
X27219913Y25981969D01*
X27224345Y25985655D01*
X27354147Y26141724D01*
X27453334Y26318835D01*
X27455190Y26324302D01*
X27455192Y26324307D01*
X27516728Y26505586D01*
X27516729Y26505591D01*
X27518584Y26511055D01*
X27519412Y26516764D01*
X27519413Y26516769D01*
X27547179Y26708273D01*
X27547712Y26711947D01*
X27549232Y26770000D01*
X27530658Y26972141D01*
X27529090Y26977701D01*
X27477125Y27161954D01*
X27477124Y27161956D01*
X27475557Y27167513D01*
X27464978Y27188967D01*
X27388331Y27344391D01*
X27385776Y27349572D01*
X27264320Y27512221D01*
X27115258Y27650013D01*
X27110375Y27653094D01*
X27110371Y27653097D01*
X26948464Y27755252D01*
X26943581Y27758333D01*
X26755039Y27833554D01*
X26749379Y27834680D01*
X26749375Y27834681D01*
X26561613Y27872029D01*
X26561610Y27872029D01*
X26555946Y27873156D01*
X26550171Y27873232D01*
X26550167Y27873232D01*
X26448793Y27874559D01*
X26352971Y27875813D01*
X26347274Y27874834D01*
X26347273Y27874834D01*
X26158607Y27842415D01*
X26152910Y27841436D01*
X25962463Y27771176D01*
X25788010Y27667388D01*
X25783670Y27663582D01*
X25783666Y27663579D01*
X25679578Y27572295D01*
X25615174Y27542418D01*
X25544841Y27552104D01*
X25490909Y27598276D01*
X25470500Y27667027D01*
X25470500Y28413741D01*
X25490502Y28481862D01*
X25544158Y28528355D01*
X25614432Y28538459D01*
X25679012Y28508965D01*
X25684404Y28504011D01*
X25741938Y28447965D01*
X25910720Y28335188D01*
X25916023Y28332910D01*
X25916026Y28332908D01*
X26004707Y28294808D01*
X26097228Y28255058D01*
X26170244Y28238536D01*
X26289579Y28211533D01*
X26289584Y28211532D01*
X26295216Y28210258D01*
X26300987Y28210031D01*
X26300989Y28210031D01*
X26360756Y28207683D01*
X26498053Y28202288D01*
X26598499Y28216852D01*
X26693231Y28230587D01*
X26693236Y28230588D01*
X26698945Y28231416D01*
X26704409Y28233271D01*
X26704414Y28233272D01*
X26885693Y28294808D01*
X26885698Y28294810D01*
X26891165Y28296666D01*
X27068276Y28395853D01*
X27086453Y28410970D01*
X27219913Y28521969D01*
X27224345Y28525655D01*
X27354147Y28681724D01*
X27453334Y28858835D01*
X27455190Y28864302D01*
X27455192Y28864307D01*
X27516728Y29045586D01*
X27516729Y29045591D01*
X27518584Y29051055D01*
X27519412Y29056764D01*
X27519413Y29056769D01*
X27547179Y29248273D01*
X27547712Y29251947D01*
X27549232Y29310000D01*
X27530658Y29512141D01*
X27529090Y29517701D01*
X27477125Y29701954D01*
X27477124Y29701956D01*
X27475557Y29707513D01*
X27464978Y29728967D01*
X27388331Y29884391D01*
X27385776Y29889572D01*
X27264320Y30052221D01*
X27115258Y30190013D01*
X27110375Y30193094D01*
X27110371Y30193097D01*
X26948464Y30295252D01*
X26943581Y30298333D01*
X26755039Y30373554D01*
X26749379Y30374680D01*
X26749375Y30374681D01*
X26561613Y30412029D01*
X26561610Y30412029D01*
X26555946Y30413156D01*
X26550171Y30413232D01*
X26550167Y30413232D01*
X26448793Y30414559D01*
X26352971Y30415813D01*
X26347274Y30414834D01*
X26347273Y30414834D01*
X26158607Y30382415D01*
X26152910Y30381436D01*
X25962463Y30311176D01*
X25788010Y30207388D01*
X25783670Y30203582D01*
X25783666Y30203579D01*
X25679578Y30112295D01*
X25615174Y30082418D01*
X25544841Y30092104D01*
X25490909Y30138276D01*
X25470500Y30207027D01*
X25470500Y30953741D01*
X25490502Y31021862D01*
X25544158Y31068355D01*
X25614432Y31078459D01*
X25679012Y31048965D01*
X25684404Y31044011D01*
X25741938Y30987965D01*
X25910720Y30875188D01*
X25916023Y30872910D01*
X25916026Y30872908D01*
X26004707Y30834808D01*
X26097228Y30795058D01*
X26170244Y30778536D01*
X26289579Y30751533D01*
X26289584Y30751532D01*
X26295216Y30750258D01*
X26300987Y30750031D01*
X26300989Y30750031D01*
X26360756Y30747683D01*
X26498053Y30742288D01*
X26598499Y30756852D01*
X26693231Y30770587D01*
X26693236Y30770588D01*
X26698945Y30771416D01*
X26704409Y30773271D01*
X26704414Y30773272D01*
X26885693Y30834808D01*
X26885698Y30834810D01*
X26891165Y30836666D01*
X27068276Y30935853D01*
X27086453Y30950970D01*
X27219913Y31061969D01*
X27224345Y31065655D01*
X27354147Y31221724D01*
X27453334Y31398835D01*
X27455190Y31404302D01*
X27455192Y31404307D01*
X27516728Y31585586D01*
X27516729Y31585591D01*
X27518584Y31591055D01*
X27519412Y31596764D01*
X27519413Y31596769D01*
X27547179Y31788273D01*
X27547712Y31791947D01*
X27549232Y31850000D01*
X27530658Y32052141D01*
X27529090Y32057701D01*
X27477125Y32241954D01*
X27477124Y32241956D01*
X27475557Y32247513D01*
X27464978Y32268967D01*
X27388331Y32424391D01*
X27385776Y32429572D01*
X27264320Y32592221D01*
X27115258Y32730013D01*
X27110375Y32733094D01*
X27110371Y32733097D01*
X26948464Y32835252D01*
X26943581Y32838333D01*
X26755039Y32913554D01*
X26749379Y32914680D01*
X26749375Y32914681D01*
X26561613Y32952029D01*
X26561610Y32952029D01*
X26555946Y32953156D01*
X26550171Y32953232D01*
X26550167Y32953232D01*
X26448793Y32954559D01*
X26352971Y32955813D01*
X26347274Y32954834D01*
X26347273Y32954834D01*
X26158607Y32922415D01*
X26152910Y32921436D01*
X25962463Y32851176D01*
X25788010Y32747388D01*
X25783670Y32743582D01*
X25783666Y32743579D01*
X25679578Y32652295D01*
X25615174Y32622418D01*
X25544841Y32632104D01*
X25490909Y32678276D01*
X25470500Y32747027D01*
X25470500Y33493741D01*
X25490502Y33561862D01*
X25544158Y33608355D01*
X25614432Y33618459D01*
X25679012Y33588965D01*
X25684404Y33584011D01*
X25741938Y33527965D01*
X25910720Y33415188D01*
X25916023Y33412910D01*
X25916026Y33412908D01*
X26004707Y33374808D01*
X26097228Y33335058D01*
X26170244Y33318536D01*
X26289579Y33291533D01*
X26289584Y33291532D01*
X26295216Y33290258D01*
X26300987Y33290031D01*
X26300989Y33290031D01*
X26360756Y33287683D01*
X26498053Y33282288D01*
X26598499Y33296852D01*
X26693231Y33310587D01*
X26693236Y33310588D01*
X26698945Y33311416D01*
X26704409Y33313271D01*
X26704414Y33313272D01*
X26885693Y33374808D01*
X26885698Y33374810D01*
X26891165Y33376666D01*
X27068276Y33475853D01*
X27086453Y33490970D01*
X27219913Y33601969D01*
X27224345Y33605655D01*
X27354147Y33761724D01*
X27453334Y33938835D01*
X27455190Y33944302D01*
X27455192Y33944307D01*
X27516728Y34125586D01*
X27516729Y34125591D01*
X27518584Y34131055D01*
X27519412Y34136764D01*
X27519413Y34136769D01*
X27547179Y34328273D01*
X27547712Y34331947D01*
X27549232Y34390000D01*
X27530658Y34592141D01*
X27529090Y34597701D01*
X27477125Y34781954D01*
X27477124Y34781956D01*
X27475557Y34787513D01*
X27464978Y34808967D01*
X27388331Y34964391D01*
X27385776Y34969572D01*
X27264320Y35132221D01*
X27115258Y35270013D01*
X27110375Y35273094D01*
X27110371Y35273097D01*
X26948464Y35375252D01*
X26943581Y35378333D01*
X26755039Y35453554D01*
X26749379Y35454680D01*
X26749375Y35454681D01*
X26561613Y35492029D01*
X26561610Y35492029D01*
X26555946Y35493156D01*
X26550171Y35493232D01*
X26550167Y35493232D01*
X26448793Y35494559D01*
X26352971Y35495813D01*
X26347274Y35494834D01*
X26347273Y35494834D01*
X26158607Y35462415D01*
X26152910Y35461436D01*
X25962463Y35391176D01*
X25788010Y35287388D01*
X25783670Y35283582D01*
X25783666Y35283579D01*
X25679578Y35192295D01*
X25615174Y35162418D01*
X25544841Y35172104D01*
X25490909Y35218276D01*
X25470500Y35287027D01*
X25470500Y36033741D01*
X25490502Y36101862D01*
X25544158Y36148355D01*
X25614432Y36158459D01*
X25679012Y36128965D01*
X25684404Y36124011D01*
X25741938Y36067965D01*
X25910720Y35955188D01*
X25916023Y35952910D01*
X25916026Y35952908D01*
X26004707Y35914808D01*
X26097228Y35875058D01*
X26170244Y35858536D01*
X26289579Y35831533D01*
X26289584Y35831532D01*
X26295216Y35830258D01*
X26300987Y35830031D01*
X26300989Y35830031D01*
X26360756Y35827683D01*
X26498053Y35822288D01*
X26598499Y35836852D01*
X26693231Y35850587D01*
X26693236Y35850588D01*
X26698945Y35851416D01*
X26704409Y35853271D01*
X26704414Y35853272D01*
X26885693Y35914808D01*
X26885698Y35914810D01*
X26891165Y35916666D01*
X27068276Y36015853D01*
X27086453Y36030970D01*
X27219913Y36141969D01*
X27224345Y36145655D01*
X27354147Y36301724D01*
X27453334Y36478835D01*
X27455190Y36484302D01*
X27455192Y36484307D01*
X27516728Y36665586D01*
X27516729Y36665591D01*
X27518584Y36671055D01*
X27519412Y36676764D01*
X27519413Y36676769D01*
X27547179Y36868273D01*
X27547712Y36871947D01*
X27549232Y36930000D01*
X27530658Y37132141D01*
X27529090Y37137701D01*
X27477125Y37321954D01*
X27477124Y37321956D01*
X27475557Y37327513D01*
X27464978Y37348967D01*
X27388331Y37504391D01*
X27385776Y37509572D01*
X27264320Y37672221D01*
X27115258Y37810013D01*
X27110375Y37813094D01*
X27110371Y37813097D01*
X26948464Y37915252D01*
X26943581Y37918333D01*
X26755039Y37993554D01*
X26749379Y37994680D01*
X26749375Y37994681D01*
X26561613Y38032029D01*
X26561610Y38032029D01*
X26555946Y38033156D01*
X26550171Y38033232D01*
X26550167Y38033232D01*
X26448793Y38034559D01*
X26352971Y38035813D01*
X26347274Y38034834D01*
X26347273Y38034834D01*
X26158607Y38002415D01*
X26152910Y38001436D01*
X25962463Y37931176D01*
X25788010Y37827388D01*
X25783670Y37823582D01*
X25783666Y37823579D01*
X25679578Y37732295D01*
X25615174Y37702418D01*
X25544841Y37712104D01*
X25490909Y37758276D01*
X25470500Y37827027D01*
X25470500Y38573741D01*
X25490502Y38641862D01*
X25544158Y38688355D01*
X25614432Y38698459D01*
X25679012Y38668965D01*
X25684404Y38664011D01*
X25741938Y38607965D01*
X25910720Y38495188D01*
X25916023Y38492910D01*
X25916026Y38492908D01*
X26004707Y38454808D01*
X26097228Y38415058D01*
X26170244Y38398536D01*
X26289579Y38371533D01*
X26289584Y38371532D01*
X26295216Y38370258D01*
X26300987Y38370031D01*
X26300989Y38370031D01*
X26360756Y38367683D01*
X26498053Y38362288D01*
X26598499Y38376852D01*
X26693231Y38390587D01*
X26693236Y38390588D01*
X26698945Y38391416D01*
X26704409Y38393271D01*
X26704414Y38393272D01*
X26885693Y38454808D01*
X26885698Y38454810D01*
X26891165Y38456666D01*
X27068276Y38555853D01*
X27086453Y38570970D01*
X27219913Y38681969D01*
X27224345Y38685655D01*
X27354147Y38841724D01*
X27453334Y39018835D01*
X27455190Y39024302D01*
X27455192Y39024307D01*
X27516728Y39205586D01*
X27516729Y39205591D01*
X27518584Y39211055D01*
X27519412Y39216764D01*
X27519413Y39216769D01*
X27547179Y39408273D01*
X27547712Y39411947D01*
X27549232Y39470000D01*
X27530658Y39672141D01*
X27529090Y39677701D01*
X27477125Y39861954D01*
X27477124Y39861956D01*
X27475557Y39867513D01*
X27464978Y39888967D01*
X27388331Y40044391D01*
X27385776Y40049572D01*
X27264320Y40212221D01*
X27115258Y40350013D01*
X27110375Y40353094D01*
X27110371Y40353097D01*
X26948464Y40455252D01*
X26943581Y40458333D01*
X26755039Y40533554D01*
X26749379Y40534680D01*
X26749375Y40534681D01*
X26561613Y40572029D01*
X26561610Y40572029D01*
X26555946Y40573156D01*
X26550171Y40573232D01*
X26550167Y40573232D01*
X26448793Y40574559D01*
X26352971Y40575813D01*
X26347274Y40574834D01*
X26347273Y40574834D01*
X26158607Y40542415D01*
X26152910Y40541436D01*
X25962463Y40471176D01*
X25788010Y40367388D01*
X25783670Y40363582D01*
X25783666Y40363579D01*
X25679578Y40272295D01*
X25615174Y40242418D01*
X25544841Y40252104D01*
X25490909Y40298276D01*
X25470500Y40367027D01*
X25470500Y41113741D01*
X25490502Y41181862D01*
X25544158Y41228355D01*
X25614432Y41238459D01*
X25679012Y41208965D01*
X25684404Y41204011D01*
X25741938Y41147965D01*
X25910720Y41035188D01*
X25916023Y41032910D01*
X25916026Y41032908D01*
X26004707Y40994808D01*
X26097228Y40955058D01*
X26170244Y40938536D01*
X26289579Y40911533D01*
X26289584Y40911532D01*
X26295216Y40910258D01*
X26300987Y40910031D01*
X26300989Y40910031D01*
X26360756Y40907683D01*
X26498053Y40902288D01*
X26598499Y40916852D01*
X26693231Y40930587D01*
X26693236Y40930588D01*
X26698945Y40931416D01*
X26704409Y40933271D01*
X26704414Y40933272D01*
X26885693Y40994808D01*
X26885698Y40994810D01*
X26891165Y40996666D01*
X27068276Y41095853D01*
X27086453Y41110970D01*
X27219913Y41221969D01*
X27224345Y41225655D01*
X27354147Y41381724D01*
X27453334Y41558835D01*
X27455190Y41564302D01*
X27455192Y41564307D01*
X27516728Y41745586D01*
X27516729Y41745591D01*
X27518584Y41751055D01*
X27519412Y41756764D01*
X27519413Y41756769D01*
X27547179Y41948273D01*
X27547712Y41951947D01*
X27549232Y42010000D01*
X27530658Y42212141D01*
X27529090Y42217701D01*
X27477125Y42401954D01*
X27477124Y42401956D01*
X27475557Y42407513D01*
X27464978Y42428967D01*
X27388331Y42584391D01*
X27385776Y42589572D01*
X27264320Y42752221D01*
X27115258Y42890013D01*
X27110375Y42893094D01*
X27110371Y42893097D01*
X26948464Y42995252D01*
X26943581Y42998333D01*
X26755039Y43073554D01*
X26749379Y43074680D01*
X26749375Y43074681D01*
X26561613Y43112029D01*
X26561610Y43112029D01*
X26555946Y43113156D01*
X26550171Y43113232D01*
X26550167Y43113232D01*
X26448793Y43114559D01*
X26352971Y43115813D01*
X26347274Y43114834D01*
X26347273Y43114834D01*
X26158607Y43082415D01*
X26152910Y43081436D01*
X25962463Y43011176D01*
X25788010Y42907388D01*
X25783670Y42903582D01*
X25783666Y42903579D01*
X25679578Y42812295D01*
X25615174Y42782418D01*
X25544841Y42792104D01*
X25490909Y42838276D01*
X25470500Y42907027D01*
X25470500Y43653741D01*
X25490502Y43721862D01*
X25544158Y43768355D01*
X25614432Y43778459D01*
X25679012Y43748965D01*
X25684404Y43744011D01*
X25741938Y43687965D01*
X25910720Y43575188D01*
X25916023Y43572910D01*
X25916026Y43572908D01*
X26004707Y43534808D01*
X26097228Y43495058D01*
X26170244Y43478536D01*
X26289579Y43451533D01*
X26289584Y43451532D01*
X26295216Y43450258D01*
X26300987Y43450031D01*
X26300989Y43450031D01*
X26360756Y43447683D01*
X26498053Y43442288D01*
X26598499Y43456852D01*
X26693231Y43470587D01*
X26693236Y43470588D01*
X26698945Y43471416D01*
X26704409Y43473271D01*
X26704414Y43473272D01*
X26885693Y43534808D01*
X26885698Y43534810D01*
X26891165Y43536666D01*
X27068276Y43635853D01*
X27086453Y43650970D01*
X27219913Y43761969D01*
X27224345Y43765655D01*
X27354147Y43921724D01*
X27453334Y44098835D01*
X27455190Y44104302D01*
X27455192Y44104307D01*
X27516728Y44285586D01*
X27516729Y44285591D01*
X27518584Y44291055D01*
X27519412Y44296764D01*
X27519413Y44296769D01*
X27547179Y44488273D01*
X27547712Y44491947D01*
X27549232Y44550000D01*
X27530658Y44752141D01*
X27529090Y44757701D01*
X27477125Y44941954D01*
X27477124Y44941956D01*
X27475557Y44947513D01*
X27464978Y44968967D01*
X27388331Y45124391D01*
X27385776Y45129572D01*
X27264320Y45292221D01*
X27115258Y45430013D01*
X27110375Y45433094D01*
X27110371Y45433097D01*
X26948464Y45535252D01*
X26943581Y45538333D01*
X26755039Y45613554D01*
X26749379Y45614680D01*
X26749375Y45614681D01*
X26561613Y45652029D01*
X26561610Y45652029D01*
X26555946Y45653156D01*
X26550171Y45653232D01*
X26550167Y45653232D01*
X26448793Y45654559D01*
X26352971Y45655813D01*
X26347274Y45654834D01*
X26347273Y45654834D01*
X26158607Y45622415D01*
X26152910Y45621436D01*
X25962463Y45551176D01*
X25788010Y45447388D01*
X25783670Y45443582D01*
X25783666Y45443579D01*
X25679578Y45352295D01*
X25615174Y45322418D01*
X25544841Y45332104D01*
X25490909Y45378276D01*
X25470500Y45447027D01*
X25470500Y46193741D01*
X25490502Y46261862D01*
X25544158Y46308355D01*
X25614432Y46318459D01*
X25679012Y46288965D01*
X25684404Y46284011D01*
X25741938Y46227965D01*
X25910720Y46115188D01*
X25916023Y46112910D01*
X25916026Y46112908D01*
X26004707Y46074808D01*
X26097228Y46035058D01*
X26170244Y46018536D01*
X26289579Y45991533D01*
X26289584Y45991532D01*
X26295216Y45990258D01*
X26300987Y45990031D01*
X26300989Y45990031D01*
X26360756Y45987683D01*
X26498053Y45982288D01*
X26598499Y45996852D01*
X26693231Y46010587D01*
X26693236Y46010588D01*
X26698945Y46011416D01*
X26704409Y46013271D01*
X26704414Y46013272D01*
X26885693Y46074808D01*
X26885698Y46074810D01*
X26891165Y46076666D01*
X27068276Y46175853D01*
X27086453Y46190970D01*
X27219913Y46301969D01*
X27224345Y46305655D01*
X27354147Y46461724D01*
X27453334Y46638835D01*
X27455190Y46644302D01*
X27455192Y46644307D01*
X27516728Y46825586D01*
X27516729Y46825591D01*
X27518584Y46831055D01*
X27519412Y46836764D01*
X27519413Y46836769D01*
X27547179Y47028273D01*
X27547712Y47031947D01*
X27549232Y47090000D01*
X27530658Y47292141D01*
X27529090Y47297701D01*
X27477125Y47481954D01*
X27477124Y47481956D01*
X27475557Y47487513D01*
X27464978Y47508967D01*
X27388331Y47664391D01*
X27385776Y47669572D01*
X27264320Y47832221D01*
X27115258Y47970013D01*
X27110375Y47973094D01*
X27110371Y47973097D01*
X26948464Y48075252D01*
X26943581Y48078333D01*
X26755039Y48153554D01*
X26749379Y48154680D01*
X26749375Y48154681D01*
X26561613Y48192029D01*
X26561610Y48192029D01*
X26555946Y48193156D01*
X26550171Y48193232D01*
X26550167Y48193232D01*
X26448793Y48194559D01*
X26352971Y48195813D01*
X26347274Y48194834D01*
X26347273Y48194834D01*
X26158607Y48162415D01*
X26152910Y48161436D01*
X25962463Y48091176D01*
X25788010Y47987388D01*
X25783670Y47983582D01*
X25783666Y47983579D01*
X25679578Y47892295D01*
X25615174Y47862418D01*
X25544841Y47872104D01*
X25490909Y47918276D01*
X25470500Y47987027D01*
X25470500Y48733741D01*
X25490502Y48801862D01*
X25544158Y48848355D01*
X25614432Y48858459D01*
X25679012Y48828965D01*
X25684404Y48824011D01*
X25741938Y48767965D01*
X25910720Y48655188D01*
X25916023Y48652910D01*
X25916026Y48652908D01*
X26004707Y48614808D01*
X26097228Y48575058D01*
X26170244Y48558536D01*
X26289579Y48531533D01*
X26289584Y48531532D01*
X26295216Y48530258D01*
X26300987Y48530031D01*
X26300989Y48530031D01*
X26360756Y48527683D01*
X26498053Y48522288D01*
X26598499Y48536852D01*
X26693231Y48550587D01*
X26693236Y48550588D01*
X26698945Y48551416D01*
X26704409Y48553271D01*
X26704414Y48553272D01*
X26885693Y48614808D01*
X26885698Y48614810D01*
X26891165Y48616666D01*
X27068276Y48715853D01*
X27086453Y48730970D01*
X27219913Y48841969D01*
X27224345Y48845655D01*
X27354147Y49001724D01*
X27453334Y49178835D01*
X27455190Y49184302D01*
X27455192Y49184307D01*
X27516728Y49365586D01*
X27516729Y49365591D01*
X27518584Y49371055D01*
X27519412Y49376764D01*
X27519413Y49376769D01*
X27547179Y49568273D01*
X27547712Y49571947D01*
X27549232Y49630000D01*
X27530658Y49832141D01*
X27529090Y49837701D01*
X27477125Y50021954D01*
X27477124Y50021956D01*
X27475557Y50027513D01*
X27464978Y50048967D01*
X27388331Y50204391D01*
X27385776Y50209572D01*
X27264320Y50372221D01*
X27115258Y50510013D01*
X27110375Y50513094D01*
X27110371Y50513097D01*
X26948464Y50615252D01*
X26943581Y50618333D01*
X26755039Y50693554D01*
X26749379Y50694680D01*
X26749375Y50694681D01*
X26561613Y50732029D01*
X26561610Y50732029D01*
X26555946Y50733156D01*
X26550171Y50733232D01*
X26550167Y50733232D01*
X26448793Y50734559D01*
X26352971Y50735813D01*
X26347274Y50734834D01*
X26347273Y50734834D01*
X26158607Y50702415D01*
X26152910Y50701436D01*
X25962463Y50631176D01*
X25788010Y50527388D01*
X25783670Y50523582D01*
X25783666Y50523579D01*
X25679578Y50432295D01*
X25615174Y50402418D01*
X25544841Y50412104D01*
X25490909Y50458276D01*
X25470500Y50527027D01*
X25470500Y51273741D01*
X25490502Y51341862D01*
X25544158Y51388355D01*
X25614432Y51398459D01*
X25679012Y51368965D01*
X25684404Y51364011D01*
X25741938Y51307965D01*
X25910720Y51195188D01*
X25916023Y51192910D01*
X25916026Y51192908D01*
X26004707Y51154808D01*
X26097228Y51115058D01*
X26170244Y51098536D01*
X26289579Y51071533D01*
X26289584Y51071532D01*
X26295216Y51070258D01*
X26300987Y51070031D01*
X26300989Y51070031D01*
X26360756Y51067683D01*
X26498053Y51062288D01*
X26598499Y51076852D01*
X26693231Y51090587D01*
X26693236Y51090588D01*
X26698945Y51091416D01*
X26704409Y51093271D01*
X26704414Y51093272D01*
X26885693Y51154808D01*
X26885698Y51154810D01*
X26891165Y51156666D01*
X27068276Y51255853D01*
X27086453Y51270970D01*
X27219913Y51381969D01*
X27224345Y51385655D01*
X27354147Y51541724D01*
X27453334Y51718835D01*
X27455190Y51724302D01*
X27455192Y51724307D01*
X27516728Y51905586D01*
X27516729Y51905591D01*
X27518584Y51911055D01*
X27519412Y51916764D01*
X27519413Y51916769D01*
X27547179Y52108273D01*
X27547712Y52111947D01*
X27549232Y52170000D01*
X27530658Y52372141D01*
X27529090Y52377701D01*
X27477125Y52561954D01*
X27477124Y52561956D01*
X27475557Y52567513D01*
X27464978Y52588967D01*
X27388331Y52744391D01*
X27385776Y52749572D01*
X27264320Y52912221D01*
X27115258Y53050013D01*
X27110375Y53053094D01*
X27110371Y53053097D01*
X26948464Y53155252D01*
X26943581Y53158333D01*
X26755039Y53233554D01*
X26749379Y53234680D01*
X26749375Y53234681D01*
X26561613Y53272029D01*
X26561610Y53272029D01*
X26555946Y53273156D01*
X26550171Y53273232D01*
X26550167Y53273232D01*
X26448793Y53274559D01*
X26352971Y53275813D01*
X26347274Y53274834D01*
X26347273Y53274834D01*
X26158607Y53242415D01*
X26152910Y53241436D01*
X25962463Y53171176D01*
X25788010Y53067388D01*
X25783670Y53063582D01*
X25783666Y53063579D01*
X25679578Y52972295D01*
X25615174Y52942418D01*
X25544841Y52952104D01*
X25490909Y52998276D01*
X25470500Y53067027D01*
X25470500Y53479500D01*
X25490502Y53547621D01*
X25544158Y53594114D01*
X25596500Y53605500D01*
X27028183Y53605501D01*
X27315066Y53605501D01*
X27350818Y53612612D01*
X27377126Y53617844D01*
X27377128Y53617845D01*
X27389301Y53620266D01*
X27399621Y53627161D01*
X27399622Y53627162D01*
X27463168Y53669623D01*
X27473484Y53676516D01*
X27529734Y53760699D01*
X27544500Y53834933D01*
X27544499Y55585066D01*
X27529734Y55659301D01*
X27503654Y55698333D01*
X27480377Y55733168D01*
X27473484Y55743484D01*
X27389301Y55799734D01*
X27315067Y55814500D01*
X27140334Y55814500D01*
X27072213Y55834502D01*
X27025720Y55888158D01*
X27015616Y55958432D01*
X27045110Y56023012D01*
X27084902Y56053652D01*
X27133100Y56077264D01*
X27141945Y56082536D01*
X27315328Y56206208D01*
X27323200Y56212861D01*
X27474052Y56363188D01*
X27480730Y56371035D01*
X27605003Y56543980D01*
X27610313Y56552817D01*
X27704670Y56743733D01*
X27708469Y56753328D01*
X27770377Y56957090D01*
X27772555Y56967163D01*
X27773986Y56978038D01*
X27771775Y56992222D01*
X27758617Y56996000D01*
X26312000Y56996000D01*
X26243879Y57016002D01*
X26197386Y57069658D01*
X26186000Y57122000D01*
X26186000Y57378000D01*
X26206002Y57446121D01*
X26259658Y57492614D01*
X26312000Y57504000D01*
X27758344Y57504000D01*
X27771875Y57507973D01*
X27773180Y57517053D01*
X27731214Y57684125D01*
X27727894Y57693876D01*
X27642972Y57889186D01*
X27638105Y57898261D01*
X27522426Y58077074D01*
X27516136Y58085243D01*
X27372806Y58242760D01*
X27365273Y58249785D01*
X27198139Y58381778D01*
X27189552Y58387483D01*
X27003117Y58490401D01*
X26993705Y58494631D01*
X26879391Y58535112D01*
X26821855Y58576706D01*
X26795939Y58642804D01*
X26809873Y58712420D01*
X26859232Y58763451D01*
X26880943Y58773196D01*
X26891165Y58776666D01*
X27068276Y58875853D01*
X27086453Y58890970D01*
X27219913Y59001969D01*
X27224345Y59005655D01*
X27354147Y59161724D01*
X27453334Y59338835D01*
X27455190Y59344302D01*
X27455192Y59344307D01*
X27516728Y59525586D01*
X27516729Y59525591D01*
X27518584Y59531055D01*
X27519412Y59536764D01*
X27519413Y59536769D01*
X27547179Y59728273D01*
X27547712Y59731947D01*
X27549232Y59790000D01*
X27530658Y59992141D01*
X27529090Y59997701D01*
X27477125Y60181954D01*
X27477124Y60181956D01*
X27475557Y60187513D01*
X27464978Y60208967D01*
X27388331Y60364391D01*
X27385776Y60369572D01*
X27264320Y60532221D01*
X27115258Y60670013D01*
X27110375Y60673094D01*
X27110371Y60673097D01*
X26948464Y60775252D01*
X26943581Y60778333D01*
X26898810Y60796195D01*
X26842951Y60840015D01*
X26819500Y60913225D01*
X26819500Y61446080D01*
X26822049Y61470027D01*
X26822128Y61471693D01*
X26824320Y61481876D01*
X26823096Y61492218D01*
X26823096Y61492221D01*
X26820374Y61515213D01*
X26820023Y61521154D01*
X26819928Y61521146D01*
X26819500Y61526326D01*
X26819500Y61531524D01*
X26818081Y61540052D01*
X26816329Y61550573D01*
X26815492Y61556453D01*
X26810693Y61597003D01*
X26810692Y61597005D01*
X26809469Y61607341D01*
X26805508Y61615590D01*
X26804004Y61624626D01*
X26798060Y61635643D01*
X26779652Y61669760D01*
X26776957Y61675049D01*
X26758212Y61714085D01*
X26754780Y61721232D01*
X26751186Y61725508D01*
X26749246Y61727448D01*
X26747493Y61729359D01*
X26747444Y61729449D01*
X26747567Y61729561D01*
X26747095Y61730096D01*
X26744010Y61735814D01*
X26704413Y61772417D01*
X26700848Y61775846D01*
X25986478Y62490216D01*
X25971336Y62508964D01*
X25970221Y62510189D01*
X25964571Y62518940D01*
X25956393Y62525387D01*
X25956391Y62525389D01*
X25938200Y62539729D01*
X25933759Y62543675D01*
X25933697Y62543602D01*
X25929733Y62546961D01*
X25926056Y62550638D01*
X25910308Y62561892D01*
X25905638Y62565398D01*
X25865353Y62597156D01*
X25856719Y62600188D01*
X25849266Y62605514D01*
X25800150Y62620203D01*
X25794508Y62622036D01*
X25753633Y62636390D01*
X25753632Y62636390D01*
X25746149Y62639018D01*
X25740584Y62639500D01*
X25737876Y62639500D01*
X25735242Y62639614D01*
X25735144Y62639643D01*
X25735151Y62639807D01*
X25734447Y62639851D01*
X25728222Y62641713D01*
X25674365Y62639597D01*
X25669418Y62639500D01*
X11369384Y62639500D01*
X11301263Y62659502D01*
X11280289Y62676405D01*
X10836405Y63120289D01*
X10802379Y63182601D01*
X10799500Y63209384D01*
X10799500Y64574826D01*
X10819502Y64642947D01*
X10873158Y64689440D01*
X10943432Y64699544D01*
X11008012Y64670050D01*
X11039925Y64627578D01*
X11059377Y64585384D01*
X11062710Y64580668D01*
X11162478Y64439499D01*
X11176533Y64419611D01*
X11321938Y64277965D01*
X11490720Y64165188D01*
X11496023Y64162910D01*
X11496026Y64162908D01*
X11584707Y64124808D01*
X11677228Y64085058D01*
X11750244Y64068536D01*
X11869579Y64041533D01*
X11869584Y64041532D01*
X11875216Y64040258D01*
X11880987Y64040031D01*
X11880989Y64040031D01*
X11940756Y64037683D01*
X12078053Y64032288D01*
X12178499Y64046852D01*
X12273231Y64060587D01*
X12273236Y64060588D01*
X12278945Y64061416D01*
X12284409Y64063271D01*
X12284414Y64063272D01*
X12465693Y64124808D01*
X12465698Y64124810D01*
X12471165Y64126666D01*
X12648276Y64225853D01*
X12703916Y64272128D01*
X12799913Y64351969D01*
X12804345Y64355655D01*
X12934147Y64511724D01*
X12999028Y64627577D01*
X13030510Y64683792D01*
X13030511Y64683794D01*
X13033334Y64688835D01*
X13035190Y64694302D01*
X13035192Y64694307D01*
X13096728Y64875586D01*
X13096729Y64875591D01*
X13098584Y64881055D01*
X13099412Y64886764D01*
X13099413Y64886769D01*
X13118295Y65016998D01*
X13127712Y65081947D01*
X13129232Y65140000D01*
X13126564Y65169036D01*
X13451148Y65169036D01*
X13464424Y64966478D01*
X13465845Y64960882D01*
X13465846Y64960877D01*
X13486119Y64881055D01*
X13514392Y64769731D01*
X13516809Y64764488D01*
X13554010Y64683792D01*
X13599377Y64585384D01*
X13602710Y64580668D01*
X13702478Y64439499D01*
X13716533Y64419611D01*
X13861938Y64277965D01*
X14030720Y64165188D01*
X14036023Y64162910D01*
X14036026Y64162908D01*
X14124707Y64124808D01*
X14217228Y64085058D01*
X14290244Y64068536D01*
X14409579Y64041533D01*
X14409584Y64041532D01*
X14415216Y64040258D01*
X14420987Y64040031D01*
X14420989Y64040031D01*
X14480756Y64037683D01*
X14618053Y64032288D01*
X14718499Y64046852D01*
X14813231Y64060587D01*
X14813236Y64060588D01*
X14818945Y64061416D01*
X14824409Y64063271D01*
X14824414Y64063272D01*
X15005693Y64124808D01*
X15005698Y64124810D01*
X15011165Y64126666D01*
X15188276Y64225853D01*
X15243916Y64272128D01*
X15339913Y64351969D01*
X15344345Y64355655D01*
X15474147Y64511724D01*
X15539028Y64627577D01*
X15570510Y64683792D01*
X15570511Y64683794D01*
X15573334Y64688835D01*
X15575190Y64694302D01*
X15575192Y64694307D01*
X15636728Y64875586D01*
X15636729Y64875591D01*
X15638584Y64881055D01*
X15639412Y64886764D01*
X15639413Y64886769D01*
X15658295Y65016998D01*
X15667712Y65081947D01*
X15669232Y65140000D01*
X15650658Y65342141D01*
X15646413Y65357194D01*
X15597125Y65531954D01*
X15597124Y65531956D01*
X15595557Y65537513D01*
X15584978Y65558967D01*
X15508331Y65714391D01*
X15505776Y65719572D01*
X15384320Y65882221D01*
X15360721Y65904036D01*
X40681148Y65904036D01*
X40694424Y65701478D01*
X40695845Y65695882D01*
X40695846Y65695877D01*
X40734751Y65542693D01*
X40744392Y65504731D01*
X40746809Y65499488D01*
X40803674Y65376139D01*
X40829377Y65320384D01*
X40832710Y65315668D01*
X40941182Y65162183D01*
X40946533Y65154611D01*
X40950675Y65150576D01*
X41007637Y65095087D01*
X41091938Y65012965D01*
X41260720Y64900188D01*
X41266023Y64897910D01*
X41266026Y64897908D01*
X41354707Y64859808D01*
X41447228Y64820058D01*
X41520244Y64803536D01*
X41639579Y64776533D01*
X41639584Y64776532D01*
X41645216Y64775258D01*
X41650987Y64775031D01*
X41650989Y64775031D01*
X41710756Y64772683D01*
X41848053Y64767288D01*
X41948499Y64781852D01*
X42043231Y64795587D01*
X42043236Y64795588D01*
X42048945Y64796416D01*
X42054409Y64798271D01*
X42054414Y64798272D01*
X42235693Y64859808D01*
X42235698Y64859810D01*
X42241165Y64861666D01*
X42418276Y64960853D01*
X42425040Y64966478D01*
X42569913Y65086969D01*
X42574345Y65090655D01*
X42610271Y65133851D01*
X42700453Y65242282D01*
X42700455Y65242285D01*
X42704147Y65246724D01*
X42803334Y65423835D01*
X42805190Y65429302D01*
X42805192Y65429307D01*
X42866728Y65610586D01*
X42866729Y65610591D01*
X42868584Y65616055D01*
X42869412Y65621764D01*
X42869413Y65621769D01*
X42897179Y65813273D01*
X42897712Y65816947D01*
X42899232Y65875000D01*
X42882679Y66055147D01*
X53007477Y66055147D01*
X53012758Y66048093D01*
X53174256Y65953721D01*
X53183542Y65949271D01*
X53382501Y65873297D01*
X53392399Y65870421D01*
X53601095Y65827962D01*
X53611323Y65826743D01*
X53824150Y65818938D01*
X53834436Y65819405D01*
X54045685Y65846466D01*
X54055762Y65848608D01*
X54259755Y65909809D01*
X54269342Y65913567D01*
X54460598Y66007262D01*
X54469444Y66012535D01*
X54516747Y66046277D01*
X54525148Y66056977D01*
X54518160Y66070130D01*
X53780312Y66807978D01*
X53766368Y66815592D01*
X53764535Y66815461D01*
X53757920Y66811210D01*
X53014237Y66067527D01*
X53007477Y66055147D01*
X42882679Y66055147D01*
X42882381Y66058394D01*
X42881187Y66071387D01*
X42881186Y66071390D01*
X42880658Y66077141D01*
X42878856Y66083532D01*
X42827127Y66266947D01*
X42827126Y66266949D01*
X42825557Y66272513D01*
X42826058Y66272654D01*
X42820618Y66339711D01*
X42854894Y66403200D01*
X43215289Y66763595D01*
X43277601Y66797621D01*
X43304384Y66800500D01*
X50105490Y66800500D01*
X50173611Y66780498D01*
X50219916Y66727251D01*
X50266877Y66625384D01*
X50270210Y66620668D01*
X50370238Y66479131D01*
X50384033Y66459611D01*
X50529438Y66317965D01*
X50534242Y66314755D01*
X50557095Y66299485D01*
X50698220Y66205188D01*
X50703523Y66202910D01*
X50703526Y66202908D01*
X50844442Y66142366D01*
X50884728Y66125058D01*
X50957744Y66108536D01*
X51077079Y66081533D01*
X51077084Y66081532D01*
X51082716Y66080258D01*
X51088487Y66080031D01*
X51088489Y66080031D01*
X51148256Y66077683D01*
X51285553Y66072288D01*
X51385999Y66086852D01*
X51480731Y66100587D01*
X51480736Y66100588D01*
X51486445Y66101416D01*
X51491909Y66103271D01*
X51491914Y66103272D01*
X51673193Y66164808D01*
X51673198Y66164810D01*
X51678665Y66166666D01*
X51692781Y66174571D01*
X51755034Y66209435D01*
X51855776Y66265853D01*
X51860716Y66269961D01*
X52007413Y66391969D01*
X52011845Y66395655D01*
X52068963Y66464331D01*
X52137953Y66547282D01*
X52137955Y66547285D01*
X52141647Y66551724D01*
X52240834Y66728835D01*
X52243220Y66735865D01*
X52243670Y66736504D01*
X52245041Y66739584D01*
X52245646Y66739315D01*
X52284053Y66793941D01*
X52349805Y66820722D01*
X52419598Y66807705D01*
X52471273Y66759020D01*
X52479277Y66742771D01*
X52549270Y66570397D01*
X52553913Y66561206D01*
X52633960Y66430580D01*
X52644416Y66421120D01*
X52653194Y66424904D01*
X53395478Y67167188D01*
X53401856Y67178868D01*
X54131908Y67178868D01*
X54132039Y67177035D01*
X54136290Y67170420D01*
X54877974Y66428736D01*
X54889984Y66422177D01*
X54901723Y66431145D01*
X54932504Y66473981D01*
X54937815Y66482820D01*
X55032170Y66673733D01*
X55035969Y66683328D01*
X55097876Y66887085D01*
X55100055Y66897166D01*
X55128090Y67110113D01*
X55128609Y67116788D01*
X55130072Y67176636D01*
X55129878Y67183354D01*
X55112281Y67397396D01*
X55110596Y67407576D01*
X55058714Y67614125D01*
X55055394Y67623876D01*
X54970472Y67819186D01*
X54965605Y67828261D01*
X54900563Y67928803D01*
X54889877Y67938005D01*
X54880312Y67933602D01*
X54139522Y67192812D01*
X54131908Y67178868D01*
X53401856Y67178868D01*
X53403092Y67181132D01*
X53402961Y67182965D01*
X53398710Y67189580D01*
X52657349Y67930941D01*
X52645813Y67937241D01*
X52633531Y67927618D01*
X52585589Y67857338D01*
X52580504Y67848387D01*
X52490838Y67655217D01*
X52487277Y67645536D01*
X52482791Y67629360D01*
X52445313Y67569061D01*
X52381184Y67538597D01*
X52310766Y67547640D01*
X52256415Y67593318D01*
X52248367Y67607302D01*
X52175831Y67754391D01*
X52173276Y67759572D01*
X52051820Y67922221D01*
X51902758Y68060013D01*
X51897875Y68063094D01*
X51897871Y68063097D01*
X51735964Y68165252D01*
X51731081Y68168333D01*
X51542539Y68243554D01*
X51536879Y68244680D01*
X51536875Y68244681D01*
X51349113Y68282029D01*
X51349110Y68282029D01*
X51343446Y68283156D01*
X51337671Y68283232D01*
X51337667Y68283232D01*
X51236293Y68284559D01*
X51140471Y68285813D01*
X51134774Y68284834D01*
X51134773Y68284834D01*
X50987758Y68259572D01*
X50940410Y68251436D01*
X50749963Y68181176D01*
X50575510Y68077388D01*
X50571170Y68073582D01*
X50571166Y68073579D01*
X50427233Y67947352D01*
X50422892Y67943545D01*
X50419317Y67939010D01*
X50419316Y67939009D01*
X50412956Y67930941D01*
X50297220Y67784131D01*
X50294531Y67779020D01*
X50294529Y67779017D01*
X50214460Y67626832D01*
X50165040Y67575859D01*
X50102952Y67559500D01*
X43148925Y67559500D01*
X43124967Y67562050D01*
X43123308Y67562128D01*
X43113124Y67564321D01*
X43102782Y67563097D01*
X43102779Y67563097D01*
X43079779Y67560374D01*
X43073848Y67560024D01*
X43073856Y67559928D01*
X43068680Y67559500D01*
X43063476Y67559500D01*
X43044412Y67556327D01*
X43038566Y67555496D01*
X43027117Y67554141D01*
X42987659Y67549470D01*
X42979407Y67545507D01*
X42970374Y67544004D01*
X42961205Y67539057D01*
X42961203Y67539056D01*
X42925268Y67519666D01*
X42919976Y67516969D01*
X42873768Y67494781D01*
X42869493Y67491187D01*
X42867568Y67489262D01*
X42865638Y67487491D01*
X42865553Y67487445D01*
X42865441Y67487568D01*
X42864906Y67487096D01*
X42859186Y67484010D01*
X42852119Y67476365D01*
X42822584Y67444414D01*
X42819154Y67440848D01*
X42315144Y66936838D01*
X42252832Y66902812D01*
X42179360Y66908903D01*
X42105039Y66938554D01*
X42099379Y66939680D01*
X42099375Y66939681D01*
X41911613Y66977029D01*
X41911610Y66977029D01*
X41905946Y66978156D01*
X41900171Y66978232D01*
X41900167Y66978232D01*
X41798793Y66979559D01*
X41702971Y66980813D01*
X41697274Y66979834D01*
X41697273Y66979834D01*
X41607052Y66964331D01*
X41502910Y66946436D01*
X41312463Y66876176D01*
X41138010Y66772388D01*
X41133670Y66768582D01*
X41133666Y66768579D01*
X41036457Y66683328D01*
X40985392Y66638545D01*
X40981817Y66634010D01*
X40981816Y66634009D01*
X40973036Y66622871D01*
X40859720Y66479131D01*
X40857031Y66474020D01*
X40857029Y66474017D01*
X40809128Y66382973D01*
X40765203Y66299485D01*
X40738167Y66212415D01*
X40708106Y66115601D01*
X40705007Y66105622D01*
X40681148Y65904036D01*
X15360721Y65904036D01*
X15235258Y66020013D01*
X15230375Y66023094D01*
X15230371Y66023097D01*
X15080064Y66117933D01*
X15063581Y66128333D01*
X14875039Y66203554D01*
X14869379Y66204680D01*
X14869375Y66204681D01*
X14681613Y66242029D01*
X14681610Y66242029D01*
X14675946Y66243156D01*
X14670171Y66243232D01*
X14670167Y66243232D01*
X14568793Y66244559D01*
X14472971Y66245813D01*
X14467274Y66244834D01*
X14467273Y66244834D01*
X14278607Y66212415D01*
X14272910Y66211436D01*
X14082463Y66141176D01*
X13908010Y66037388D01*
X13903670Y66033582D01*
X13903666Y66033579D01*
X13811622Y65952858D01*
X13755392Y65903545D01*
X13751817Y65899010D01*
X13751816Y65899009D01*
X13746236Y65891931D01*
X13629720Y65744131D01*
X13627031Y65739020D01*
X13627029Y65739017D01*
X13614073Y65714391D01*
X13535203Y65564485D01*
X13475007Y65370622D01*
X13451148Y65169036D01*
X13126564Y65169036D01*
X13110658Y65342141D01*
X13106413Y65357194D01*
X13057125Y65531954D01*
X13057124Y65531956D01*
X13055557Y65537513D01*
X13044978Y65558967D01*
X12968331Y65714391D01*
X12965776Y65719572D01*
X12885748Y65826743D01*
X12847773Y65877597D01*
X12847772Y65877598D01*
X12844320Y65882221D01*
X12840084Y65886137D01*
X12840081Y65886140D01*
X12833816Y65891931D01*
X12797369Y65952858D01*
X12799647Y66023818D01*
X12830247Y66073553D01*
X13500216Y66743522D01*
X13518964Y66758664D01*
X13520189Y66759779D01*
X13528940Y66765429D01*
X13535387Y66773607D01*
X13535389Y66773609D01*
X13549729Y66791800D01*
X13553675Y66796241D01*
X13553602Y66796303D01*
X13556961Y66800267D01*
X13560638Y66803944D01*
X13571892Y66819692D01*
X13575398Y66824362D01*
X13607156Y66864647D01*
X13607157Y66864649D01*
X13609272Y66862981D01*
X13648631Y66902111D01*
X13718049Y66916999D01*
X13784496Y66891994D01*
X13796600Y66881614D01*
X13861938Y66817965D01*
X13866742Y66814755D01*
X13934400Y66769547D01*
X14030720Y66705188D01*
X14036023Y66702910D01*
X14036026Y66702908D01*
X14194255Y66634928D01*
X14217228Y66625058D01*
X14265850Y66614056D01*
X14409579Y66581533D01*
X14409584Y66581532D01*
X14415216Y66580258D01*
X14420987Y66580031D01*
X14420989Y66580031D01*
X14480756Y66577683D01*
X14618053Y66572288D01*
X14718499Y66586852D01*
X14813231Y66600587D01*
X14813236Y66600588D01*
X14818945Y66601416D01*
X14824409Y66603271D01*
X14824414Y66603272D01*
X15005693Y66664808D01*
X15005698Y66664810D01*
X15011165Y66666666D01*
X15188276Y66765853D01*
X15196134Y66772388D01*
X15323293Y66878146D01*
X15344345Y66895655D01*
X15401463Y66964331D01*
X15470453Y67047282D01*
X15470455Y67047285D01*
X15474147Y67051724D01*
X15573334Y67228835D01*
X15575190Y67234302D01*
X15575192Y67234307D01*
X15636728Y67415586D01*
X15636729Y67415591D01*
X15638584Y67421055D01*
X15639412Y67426764D01*
X15639413Y67426769D01*
X15660044Y67569061D01*
X15667712Y67621947D01*
X15669232Y67680000D01*
X15650658Y67882141D01*
X15639354Y67922221D01*
X15597125Y68071954D01*
X15597124Y68071956D01*
X15595557Y68077513D01*
X15587854Y68093135D01*
X15508331Y68254391D01*
X15505776Y68259572D01*
X15486041Y68286001D01*
X15453214Y68329961D01*
X15384320Y68422221D01*
X15283412Y68515500D01*
X15239503Y68556089D01*
X15235258Y68560013D01*
X15230375Y68563094D01*
X15230371Y68563097D01*
X15070792Y68663783D01*
X15063581Y68668333D01*
X14875039Y68743554D01*
X14869379Y68744680D01*
X14869375Y68744681D01*
X14681613Y68782029D01*
X14681610Y68782029D01*
X14675946Y68783156D01*
X14670171Y68783232D01*
X14670167Y68783232D01*
X14568793Y68784559D01*
X14472971Y68785813D01*
X14467274Y68784834D01*
X14467273Y68784834D01*
X14421013Y68776885D01*
X14272910Y68751436D01*
X14082463Y68681176D01*
X13908010Y68577388D01*
X13903670Y68573582D01*
X13903666Y68573579D01*
X13858578Y68534037D01*
X13794174Y68504160D01*
X13723841Y68513846D01*
X13669909Y68560018D01*
X13649500Y68628769D01*
X13649500Y68720616D01*
X13669502Y68788737D01*
X13686405Y68809711D01*
X14034107Y69157413D01*
X14096419Y69191439D01*
X14172941Y69184085D01*
X14217228Y69165058D01*
X14290244Y69148536D01*
X14409579Y69121533D01*
X14409584Y69121532D01*
X14415216Y69120258D01*
X14420987Y69120031D01*
X14420989Y69120031D01*
X14480756Y69117683D01*
X14618053Y69112288D01*
X14718499Y69126852D01*
X14813231Y69140587D01*
X14813236Y69140588D01*
X14818945Y69141416D01*
X14824409Y69143271D01*
X14824414Y69143272D01*
X15005693Y69204808D01*
X15005698Y69204810D01*
X15011165Y69206666D01*
X15025281Y69214571D01*
X15120056Y69267648D01*
X15188276Y69305853D01*
X15203495Y69318510D01*
X15339913Y69431969D01*
X15344345Y69435655D01*
X15398845Y69501184D01*
X15470453Y69587282D01*
X15470455Y69587285D01*
X15474147Y69591724D01*
X15573334Y69768835D01*
X15575190Y69774302D01*
X15575192Y69774307D01*
X15636728Y69955586D01*
X15636729Y69955591D01*
X15638584Y69961055D01*
X15639412Y69966764D01*
X15639413Y69966769D01*
X15665180Y70144485D01*
X15667712Y70161947D01*
X15669232Y70220000D01*
X15650658Y70422141D01*
X15649090Y70427701D01*
X15597125Y70611954D01*
X15597124Y70611956D01*
X15595557Y70617513D01*
X15585952Y70636992D01*
X15508331Y70794391D01*
X15505776Y70799572D01*
X15485982Y70826080D01*
X15422177Y70911524D01*
X15384320Y70962221D01*
X15283926Y71055025D01*
X15239503Y71096089D01*
X15235258Y71100013D01*
X15230375Y71103094D01*
X15230371Y71103097D01*
X15070792Y71203783D01*
X15063581Y71208333D01*
X14941837Y71256904D01*
X31770729Y71256904D01*
X31778380Y71187606D01*
X31787057Y71109016D01*
X31788113Y71099447D01*
X31790723Y71092316D01*
X31790723Y71092314D01*
X31832187Y70979009D01*
X31842553Y70950681D01*
X31846789Y70944378D01*
X31846789Y70944377D01*
X31914527Y70843573D01*
X31930908Y70819195D01*
X31936527Y70814082D01*
X31936528Y70814081D01*
X32028952Y70729982D01*
X32048076Y70712581D01*
X32187293Y70636992D01*
X32250755Y70620343D01*
X32326474Y70600478D01*
X32387289Y70563844D01*
X32418644Y70500146D01*
X32420500Y70478602D01*
X32420500Y69534813D01*
X32400498Y69466692D01*
X32377330Y69439865D01*
X32310039Y69381162D01*
X32218950Y69251556D01*
X32202549Y69209490D01*
X32164652Y69112288D01*
X32161406Y69103963D01*
X32160414Y69096430D01*
X32160414Y69096429D01*
X32142601Y68961120D01*
X32140729Y68946904D01*
X32149052Y68871522D01*
X32156614Y68803028D01*
X32158113Y68789447D01*
X32160723Y68782316D01*
X32160723Y68782314D01*
X32201651Y68670473D01*
X32212553Y68640681D01*
X32216789Y68634378D01*
X32216789Y68634377D01*
X32272793Y68551035D01*
X32300908Y68509195D01*
X32306527Y68504082D01*
X32306528Y68504081D01*
X32412460Y68407691D01*
X32418076Y68402581D01*
X32557293Y68326992D01*
X32710522Y68286793D01*
X32794477Y68285474D01*
X32861319Y68284424D01*
X32861322Y68284424D01*
X32868916Y68284305D01*
X33023332Y68319671D01*
X33104272Y68360379D01*
X33158072Y68387437D01*
X33158075Y68387439D01*
X33164855Y68390849D01*
X33170626Y68395778D01*
X33170629Y68395780D01*
X33279536Y68488796D01*
X33279536Y68488797D01*
X33285314Y68493731D01*
X33358189Y68595147D01*
X53007477Y68595147D01*
X53012758Y68588093D01*
X53059979Y68560499D01*
X53108703Y68508861D01*
X53121774Y68439078D01*
X53095043Y68373306D01*
X53054587Y68339947D01*
X53045966Y68335459D01*
X53037234Y68329961D01*
X53017177Y68314901D01*
X53008723Y68303573D01*
X53015468Y68291242D01*
X53754688Y67552022D01*
X53768632Y67544408D01*
X53770465Y67544539D01*
X53777080Y67548790D01*
X54520889Y68292599D01*
X54527910Y68305456D01*
X54521111Y68314787D01*
X54517059Y68317479D01*
X54479616Y68338148D01*
X54429645Y68388580D01*
X54414873Y68458023D01*
X54439989Y68524428D01*
X54467340Y68551035D01*
X54516747Y68586277D01*
X54525148Y68596977D01*
X54518160Y68610130D01*
X53780312Y69347978D01*
X53766368Y69355592D01*
X53764535Y69355461D01*
X53757920Y69351210D01*
X53014237Y68607527D01*
X53007477Y68595147D01*
X33358189Y68595147D01*
X33377755Y68622376D01*
X33436842Y68769359D01*
X33450865Y68867895D01*
X33458581Y68922109D01*
X33458581Y68922112D01*
X33459162Y68926193D01*
X33459231Y68932735D01*
X33459264Y68935866D01*
X33459264Y68935872D01*
X33459307Y68940000D01*
X33455607Y68970580D01*
X33451522Y69004331D01*
X33440276Y69097267D01*
X33384280Y69245454D01*
X33314005Y69347705D01*
X33298855Y69369749D01*
X33298854Y69369751D01*
X33294553Y69376008D01*
X33221681Y69440935D01*
X33184126Y69501184D01*
X33179500Y69535011D01*
X33179500Y69749036D01*
X50118648Y69749036D01*
X50131924Y69546478D01*
X50133345Y69540882D01*
X50133346Y69540877D01*
X50143427Y69501184D01*
X50181892Y69349731D01*
X50184309Y69344488D01*
X50244588Y69213733D01*
X50266877Y69165384D01*
X50297207Y69122468D01*
X50367631Y69022820D01*
X50384033Y68999611D01*
X50388175Y68995576D01*
X50398393Y68985622D01*
X50529438Y68857965D01*
X50698220Y68745188D01*
X50703523Y68742910D01*
X50703526Y68742908D01*
X50847212Y68681176D01*
X50884728Y68665058D01*
X50957744Y68648536D01*
X51077079Y68621533D01*
X51077084Y68621532D01*
X51082716Y68620258D01*
X51088487Y68620031D01*
X51088489Y68620031D01*
X51148256Y68617683D01*
X51285553Y68612288D01*
X51391944Y68627714D01*
X51480731Y68640587D01*
X51480736Y68640588D01*
X51486445Y68641416D01*
X51491909Y68643271D01*
X51491914Y68643272D01*
X51673193Y68704808D01*
X51673198Y68704810D01*
X51678665Y68706666D01*
X51703575Y68720616D01*
X51755034Y68749435D01*
X51855776Y68805853D01*
X51899236Y68841998D01*
X52007413Y68931969D01*
X52011845Y68935655D01*
X52068963Y69004331D01*
X52137953Y69087282D01*
X52137955Y69087285D01*
X52141647Y69091724D01*
X52231628Y69252396D01*
X52238010Y69263792D01*
X52238011Y69263794D01*
X52240834Y69268835D01*
X52243220Y69275865D01*
X52243670Y69276504D01*
X52245041Y69279584D01*
X52245646Y69279315D01*
X52284053Y69333941D01*
X52349805Y69360722D01*
X52419598Y69347705D01*
X52471273Y69299020D01*
X52479277Y69282771D01*
X52549270Y69110397D01*
X52553913Y69101206D01*
X52633960Y68970580D01*
X52644416Y68961120D01*
X52653194Y68964904D01*
X53395478Y69707188D01*
X53401856Y69718868D01*
X54131908Y69718868D01*
X54132039Y69717035D01*
X54136290Y69710420D01*
X54877974Y68968736D01*
X54889984Y68962177D01*
X54901723Y68971145D01*
X54932504Y69013981D01*
X54937815Y69022820D01*
X55032170Y69213733D01*
X55035969Y69223328D01*
X55097876Y69427085D01*
X55100055Y69437166D01*
X55128090Y69650113D01*
X55128609Y69656788D01*
X55130072Y69716636D01*
X55129878Y69723354D01*
X55112281Y69937396D01*
X55110596Y69947576D01*
X55058714Y70154125D01*
X55055394Y70163876D01*
X54970472Y70359186D01*
X54965605Y70368261D01*
X54900563Y70468803D01*
X54889877Y70478005D01*
X54880312Y70473602D01*
X54139522Y69732812D01*
X54131908Y69718868D01*
X53401856Y69718868D01*
X53403092Y69721132D01*
X53402961Y69722965D01*
X53398710Y69729580D01*
X52657349Y70470941D01*
X52645813Y70477241D01*
X52633531Y70467618D01*
X52585589Y70397338D01*
X52580504Y70388387D01*
X52490838Y70195217D01*
X52487277Y70185536D01*
X52482791Y70169360D01*
X52445313Y70109061D01*
X52381184Y70078597D01*
X52310766Y70087640D01*
X52256415Y70133318D01*
X52248367Y70147302D01*
X52175831Y70294391D01*
X52173276Y70299572D01*
X52051820Y70462221D01*
X51902758Y70600013D01*
X51897875Y70603094D01*
X51897871Y70603097D01*
X51735964Y70705252D01*
X51731081Y70708333D01*
X51542539Y70783554D01*
X51536879Y70784680D01*
X51536875Y70784681D01*
X51349113Y70822029D01*
X51349110Y70822029D01*
X51343446Y70823156D01*
X51337671Y70823232D01*
X51337667Y70823232D01*
X51236293Y70824559D01*
X51140471Y70825813D01*
X51134774Y70824834D01*
X51134773Y70824834D01*
X50987758Y70799572D01*
X50940410Y70791436D01*
X50749963Y70721176D01*
X50575510Y70617388D01*
X50571170Y70613582D01*
X50571166Y70613579D01*
X50427233Y70487352D01*
X50422892Y70483545D01*
X50419317Y70479010D01*
X50419316Y70479009D01*
X50412956Y70470941D01*
X50297220Y70324131D01*
X50294531Y70319020D01*
X50294529Y70319017D01*
X50281573Y70294391D01*
X50202703Y70144485D01*
X50184049Y70084408D01*
X50145747Y69961055D01*
X50142507Y69950622D01*
X50118648Y69749036D01*
X33179500Y69749036D01*
X33179500Y70826080D01*
X33182049Y70850028D01*
X33182128Y70851693D01*
X33184320Y70861876D01*
X33180373Y70895223D01*
X33180023Y70901154D01*
X33179928Y70901146D01*
X33179500Y70906324D01*
X33179500Y70911524D01*
X33176661Y70928580D01*
X33176331Y70930565D01*
X33175494Y70936443D01*
X33170694Y70977001D01*
X33170694Y70977002D01*
X33169470Y70987341D01*
X33165507Y70995593D01*
X33164004Y71004626D01*
X33139665Y71049734D01*
X33136969Y71055025D01*
X33118215Y71094082D01*
X33118212Y71094086D01*
X33114781Y71101232D01*
X33111186Y71105508D01*
X33110200Y71106494D01*
X33105376Y71113964D01*
X33107570Y71115381D01*
X33098893Y71135147D01*
X53007477Y71135147D01*
X53012758Y71128093D01*
X53059979Y71100499D01*
X53108703Y71048861D01*
X53121774Y70979078D01*
X53095043Y70913306D01*
X53054587Y70879947D01*
X53045966Y70875459D01*
X53037234Y70869961D01*
X53017177Y70854901D01*
X53008723Y70843573D01*
X53015468Y70831242D01*
X53754688Y70092022D01*
X53768632Y70084408D01*
X53770465Y70084539D01*
X53777080Y70088790D01*
X54520889Y70832599D01*
X54527910Y70845456D01*
X54521111Y70854787D01*
X54517059Y70857479D01*
X54479616Y70878148D01*
X54429645Y70928580D01*
X54414873Y70998023D01*
X54439989Y71064428D01*
X54467340Y71091035D01*
X54516747Y71126277D01*
X54525148Y71136977D01*
X54518160Y71150130D01*
X53780312Y71887978D01*
X53766368Y71895592D01*
X53764535Y71895461D01*
X53757920Y71891210D01*
X53014237Y71147527D01*
X53007477Y71135147D01*
X33098893Y71135147D01*
X33084151Y71168730D01*
X33084377Y71202573D01*
X33084759Y71205252D01*
X33089162Y71236193D01*
X33089231Y71242735D01*
X33089264Y71245866D01*
X33089264Y71245872D01*
X33089307Y71250000D01*
X33070276Y71407267D01*
X33014280Y71555454D01*
X32958394Y71636769D01*
X32928855Y71679749D01*
X32928854Y71679751D01*
X32924553Y71686008D01*
X32806275Y71791389D01*
X32798889Y71795300D01*
X32672988Y71861961D01*
X32672989Y71861961D01*
X32666274Y71865516D01*
X32512633Y71904108D01*
X32505034Y71904148D01*
X32505033Y71904148D01*
X32439181Y71904493D01*
X32354221Y71904938D01*
X32346841Y71903166D01*
X32346839Y71903166D01*
X32207563Y71869729D01*
X32207560Y71869728D01*
X32200184Y71867957D01*
X32059414Y71795300D01*
X31940039Y71691162D01*
X31848950Y71561556D01*
X31840394Y71539611D01*
X31800889Y71438285D01*
X31791406Y71413963D01*
X31790414Y71406430D01*
X31790414Y71406429D01*
X31773956Y71281414D01*
X31770729Y71256904D01*
X14941837Y71256904D01*
X14875039Y71283554D01*
X14869379Y71284680D01*
X14869375Y71284681D01*
X14681613Y71322029D01*
X14681610Y71322029D01*
X14675946Y71323156D01*
X14670171Y71323232D01*
X14670167Y71323232D01*
X14568793Y71324559D01*
X14472971Y71325813D01*
X14467274Y71324834D01*
X14467273Y71324834D01*
X14369620Y71308054D01*
X14272910Y71291436D01*
X14082463Y71221176D01*
X13908010Y71117388D01*
X13903670Y71113582D01*
X13903666Y71113579D01*
X13774647Y71000431D01*
X13755392Y70983545D01*
X13629720Y70824131D01*
X13627031Y70819020D01*
X13627029Y70819017D01*
X13615507Y70797117D01*
X13566087Y70746144D01*
X13496955Y70729982D01*
X13430059Y70753761D01*
X13386638Y70809932D01*
X13377999Y70855785D01*
X13377999Y71114669D01*
X13377629Y71121490D01*
X13372105Y71172352D01*
X13368479Y71187604D01*
X13323324Y71308054D01*
X13314786Y71323649D01*
X13238285Y71425724D01*
X13225724Y71438285D01*
X13123649Y71514786D01*
X13108054Y71523324D01*
X12987606Y71568478D01*
X12972351Y71572105D01*
X12921486Y71577631D01*
X12914672Y71578000D01*
X12292115Y71578000D01*
X12276876Y71573525D01*
X12275671Y71572135D01*
X12274000Y71564452D01*
X12274000Y70092000D01*
X12253998Y70023879D01*
X12200342Y69977386D01*
X12148000Y69966000D01*
X10680116Y69966000D01*
X10664877Y69961525D01*
X10663672Y69960135D01*
X10662001Y69952452D01*
X10662001Y69325331D01*
X10662371Y69318510D01*
X10667895Y69267648D01*
X10671521Y69252396D01*
X10716676Y69131946D01*
X10725214Y69116351D01*
X10801715Y69014276D01*
X10814276Y69001715D01*
X10916351Y68925214D01*
X10931946Y68916676D01*
X11052394Y68871522D01*
X11067649Y68867895D01*
X11118514Y68862369D01*
X11125328Y68862000D01*
X11388180Y68862000D01*
X11456301Y68841998D01*
X11502794Y68788342D01*
X11512898Y68718068D01*
X11483404Y68653488D01*
X11452605Y68627716D01*
X11368010Y68577388D01*
X11363670Y68573582D01*
X11363666Y68573579D01*
X11245190Y68469677D01*
X11215392Y68443545D01*
X11089720Y68284131D01*
X11087031Y68279020D01*
X11087029Y68279017D01*
X11068964Y68244681D01*
X10995203Y68104485D01*
X10993489Y68098964D01*
X10993487Y68098960D01*
X10991678Y68093135D01*
X10952375Y68034010D01*
X10887346Y68005520D01*
X10871346Y68004500D01*
X10586604Y68004500D01*
X10518483Y68024502D01*
X10497509Y68041404D01*
X9991405Y68547507D01*
X9957380Y68609820D01*
X9954500Y68636603D01*
X9954500Y70492115D01*
X10662000Y70492115D01*
X10666475Y70476876D01*
X10667865Y70475671D01*
X10675548Y70474000D01*
X11747885Y70474000D01*
X11763124Y70478475D01*
X11764329Y70479865D01*
X11766000Y70487548D01*
X11766000Y71559884D01*
X11761525Y71575123D01*
X11760135Y71576328D01*
X11752452Y71577999D01*
X11125331Y71577999D01*
X11118510Y71577629D01*
X11067648Y71572105D01*
X11052396Y71568479D01*
X10931946Y71523324D01*
X10916351Y71514786D01*
X10814276Y71438285D01*
X10801715Y71425724D01*
X10725214Y71323649D01*
X10716676Y71308054D01*
X10671522Y71187606D01*
X10667895Y71172351D01*
X10662369Y71121486D01*
X10662000Y71114672D01*
X10662000Y70492115D01*
X9954500Y70492115D01*
X9954500Y72289036D01*
X50118648Y72289036D01*
X50131924Y72086478D01*
X50133345Y72080882D01*
X50133346Y72080877D01*
X50178241Y71904108D01*
X50181892Y71889731D01*
X50184309Y71884488D01*
X50221510Y71803792D01*
X50266877Y71705384D01*
X50270210Y71700668D01*
X50373528Y71554476D01*
X50384033Y71539611D01*
X50529438Y71397965D01*
X50698220Y71285188D01*
X50703523Y71282910D01*
X50703526Y71282908D01*
X50847212Y71221176D01*
X50884728Y71205058D01*
X50957744Y71188536D01*
X51077079Y71161533D01*
X51077084Y71161532D01*
X51082716Y71160258D01*
X51088487Y71160031D01*
X51088489Y71160031D01*
X51148256Y71157683D01*
X51285553Y71152288D01*
X51385999Y71166852D01*
X51480731Y71180587D01*
X51480736Y71180588D01*
X51486445Y71181416D01*
X51491909Y71183271D01*
X51491914Y71183272D01*
X51673193Y71244808D01*
X51673198Y71244810D01*
X51678665Y71246666D01*
X51684619Y71250000D01*
X51755034Y71289435D01*
X51855776Y71345853D01*
X51918434Y71397965D01*
X52007413Y71471969D01*
X52011845Y71475655D01*
X52072306Y71548351D01*
X52137953Y71627282D01*
X52137955Y71627285D01*
X52141647Y71631724D01*
X52233254Y71795300D01*
X52238010Y71803792D01*
X52238011Y71803794D01*
X52240834Y71808835D01*
X52243220Y71815865D01*
X52243670Y71816504D01*
X52245041Y71819584D01*
X52245646Y71819315D01*
X52284053Y71873941D01*
X52349805Y71900722D01*
X52419598Y71887705D01*
X52471273Y71839020D01*
X52479277Y71822771D01*
X52549270Y71650397D01*
X52553913Y71641206D01*
X52633960Y71510580D01*
X52644416Y71501120D01*
X52653194Y71504904D01*
X53395478Y72247188D01*
X53401856Y72258868D01*
X54131908Y72258868D01*
X54132039Y72257035D01*
X54136290Y72250420D01*
X54877974Y71508736D01*
X54889984Y71502177D01*
X54901723Y71511145D01*
X54932504Y71553981D01*
X54937815Y71562820D01*
X55032170Y71753733D01*
X55035969Y71763328D01*
X55097876Y71967085D01*
X55100055Y71977166D01*
X55128090Y72190113D01*
X55128609Y72196788D01*
X55130072Y72256636D01*
X55129878Y72263354D01*
X55112281Y72477396D01*
X55110596Y72487576D01*
X55058714Y72694125D01*
X55055394Y72703876D01*
X54970472Y72899186D01*
X54965605Y72908261D01*
X54900563Y73008803D01*
X54889877Y73018005D01*
X54880312Y73013602D01*
X54139522Y72272812D01*
X54131908Y72258868D01*
X53401856Y72258868D01*
X53403092Y72261132D01*
X53402961Y72262965D01*
X53398710Y72269580D01*
X52657349Y73010941D01*
X52645813Y73017241D01*
X52633531Y73007618D01*
X52585589Y72937338D01*
X52580504Y72928387D01*
X52490838Y72735217D01*
X52487277Y72725536D01*
X52482791Y72709360D01*
X52445313Y72649061D01*
X52381184Y72618597D01*
X52310766Y72627640D01*
X52256415Y72673318D01*
X52248367Y72687302D01*
X52175831Y72834391D01*
X52173276Y72839572D01*
X52051820Y73002221D01*
X51902758Y73140013D01*
X51897875Y73143094D01*
X51897871Y73143097D01*
X51735964Y73245252D01*
X51731081Y73248333D01*
X51542539Y73323554D01*
X51536879Y73324680D01*
X51536875Y73324681D01*
X51349113Y73362029D01*
X51349110Y73362029D01*
X51343446Y73363156D01*
X51337671Y73363232D01*
X51337667Y73363232D01*
X51236293Y73364559D01*
X51140471Y73365813D01*
X51134774Y73364834D01*
X51134773Y73364834D01*
X50946107Y73332415D01*
X50940410Y73331436D01*
X50749963Y73261176D01*
X50575510Y73157388D01*
X50571170Y73153582D01*
X50571166Y73153579D01*
X50445107Y73043027D01*
X50422892Y73023545D01*
X50419317Y73019010D01*
X50419316Y73019009D01*
X50412956Y73010941D01*
X50297220Y72864131D01*
X50294531Y72859020D01*
X50294529Y72859017D01*
X50266144Y72805066D01*
X50202703Y72684485D01*
X50142507Y72490622D01*
X50118648Y72289036D01*
X9954500Y72289036D01*
X9954500Y73426904D01*
X34730729Y73426904D01*
X34734275Y73394787D01*
X34742376Y73321414D01*
X34748113Y73269447D01*
X34750723Y73262316D01*
X34750723Y73262314D01*
X34796915Y73136089D01*
X34802553Y73120681D01*
X34806789Y73114378D01*
X34806789Y73114377D01*
X34865268Y73027352D01*
X34890908Y72989195D01*
X34896527Y72984082D01*
X34896528Y72984081D01*
X34979854Y72908261D01*
X35008076Y72882581D01*
X35147293Y72806992D01*
X35300522Y72766793D01*
X35384477Y72765474D01*
X35451319Y72764424D01*
X35451322Y72764424D01*
X35458916Y72764305D01*
X35613332Y72799671D01*
X35701867Y72844199D01*
X35748072Y72867437D01*
X35748075Y72867439D01*
X35754855Y72870849D01*
X35760626Y72875778D01*
X35760629Y72875780D01*
X35869536Y72968796D01*
X35869536Y72968797D01*
X35875314Y72973731D01*
X35925109Y73043028D01*
X35981103Y73086674D01*
X36027430Y73095500D01*
X37340323Y73095500D01*
X37351304Y73095021D01*
X37377741Y73092708D01*
X37377743Y73092708D01*
X37388718Y73091748D01*
X37399361Y73094600D01*
X37399364Y73094600D01*
X37424986Y73101465D01*
X37435713Y73103843D01*
X37461838Y73108450D01*
X37461843Y73108452D01*
X37472698Y73110366D01*
X37482243Y73115877D01*
X37485480Y73117055D01*
X37488606Y73118513D01*
X37499255Y73121366D01*
X37530018Y73142907D01*
X37539286Y73148811D01*
X37562258Y73162074D01*
X37571802Y73167584D01*
X37595944Y73196355D01*
X37603370Y73204458D01*
X38074059Y73675147D01*
X53007477Y73675147D01*
X53012758Y73668093D01*
X53059979Y73640499D01*
X53108703Y73588861D01*
X53121774Y73519078D01*
X53095043Y73453306D01*
X53054587Y73419947D01*
X53045966Y73415459D01*
X53037234Y73409961D01*
X53017177Y73394901D01*
X53008723Y73383573D01*
X53015468Y73371242D01*
X53754688Y72632022D01*
X53768632Y72624408D01*
X53770465Y72624539D01*
X53777080Y72628790D01*
X54520889Y73372599D01*
X54527910Y73385456D01*
X54521111Y73394787D01*
X54517059Y73397479D01*
X54479616Y73418148D01*
X54429645Y73468580D01*
X54414873Y73538023D01*
X54439989Y73604428D01*
X54467340Y73631035D01*
X54516747Y73666277D01*
X54525148Y73676977D01*
X54518160Y73690130D01*
X53780312Y74427978D01*
X53766368Y74435592D01*
X53764535Y74435461D01*
X53757920Y74431210D01*
X53014237Y73687527D01*
X53007477Y73675147D01*
X38074059Y73675147D01*
X39995542Y75596630D01*
X40003645Y75604056D01*
X40023974Y75621114D01*
X40023975Y75621115D01*
X40032416Y75628198D01*
X40051189Y75660714D01*
X40057095Y75669985D01*
X40072310Y75691714D01*
X40078634Y75700745D01*
X40081487Y75711394D01*
X40082945Y75714520D01*
X40084123Y75717757D01*
X40089634Y75727302D01*
X40091548Y75738157D01*
X40091550Y75738162D01*
X40096157Y75764287D01*
X40098535Y75775014D01*
X40105400Y75800636D01*
X40105400Y75800639D01*
X40108252Y75811282D01*
X40104979Y75848696D01*
X40104500Y75859677D01*
X40104500Y76650335D01*
X40104979Y76661315D01*
X40107290Y76687738D01*
X40108251Y76698719D01*
X40105399Y76709364D01*
X40105398Y76709371D01*
X40098533Y76734988D01*
X40096153Y76745724D01*
X40089634Y76782698D01*
X40084121Y76792247D01*
X40082941Y76795489D01*
X40081487Y76798607D01*
X40078634Y76809255D01*
X40057085Y76840030D01*
X40051197Y76849273D01*
X40032416Y76881802D01*
X40003651Y76905939D01*
X39995548Y76913365D01*
X39454983Y77453930D01*
X38861405Y78047507D01*
X38827380Y78109819D01*
X38824500Y78136602D01*
X38824500Y78826904D01*
X40070729Y78826904D01*
X40073543Y78801416D01*
X40082477Y78720499D01*
X40088113Y78669447D01*
X40090723Y78662316D01*
X40090723Y78662314D01*
X40132344Y78548580D01*
X40142553Y78520681D01*
X40146789Y78514378D01*
X40146789Y78514377D01*
X40215963Y78411436D01*
X40230908Y78389195D01*
X40236527Y78384082D01*
X40236528Y78384081D01*
X40286925Y78338224D01*
X40348076Y78282581D01*
X40487293Y78206992D01*
X40640522Y78166793D01*
X40721238Y78165525D01*
X40791317Y78164424D01*
X40791320Y78164424D01*
X40798916Y78164305D01*
X40835016Y78172573D01*
X40905882Y78168284D01*
X40952240Y78138848D01*
X44506630Y74584458D01*
X44514056Y74576355D01*
X44538198Y74547584D01*
X44570736Y74528797D01*
X44579969Y74522915D01*
X44610746Y74501366D01*
X44621395Y74498513D01*
X44624514Y74497058D01*
X44627753Y74495879D01*
X44637302Y74490366D01*
X44648157Y74488452D01*
X44648162Y74488450D01*
X44674283Y74483844D01*
X44685011Y74481466D01*
X44710637Y74474600D01*
X44710639Y74474600D01*
X44721282Y74471748D01*
X44732257Y74472708D01*
X44732259Y74472708D01*
X44758696Y74475021D01*
X44769677Y74475500D01*
X50080134Y74475500D01*
X50148255Y74455498D01*
X50194560Y74402251D01*
X50228212Y74329254D01*
X50266877Y74245384D01*
X50270210Y74240668D01*
X50367631Y74102820D01*
X50384033Y74079611D01*
X50388175Y74075576D01*
X50445137Y74020087D01*
X50529438Y73937965D01*
X50698220Y73825188D01*
X50703523Y73822910D01*
X50703526Y73822908D01*
X50879326Y73747379D01*
X50884728Y73745058D01*
X50957744Y73728536D01*
X51077079Y73701533D01*
X51077084Y73701532D01*
X51082716Y73700258D01*
X51088487Y73700031D01*
X51088489Y73700031D01*
X51148256Y73697683D01*
X51285553Y73692288D01*
X51385999Y73706852D01*
X51480731Y73720587D01*
X51480736Y73720588D01*
X51486445Y73721416D01*
X51491909Y73723271D01*
X51491914Y73723272D01*
X51673193Y73784808D01*
X51673198Y73784810D01*
X51678665Y73786666D01*
X51700927Y73799133D01*
X51753183Y73828398D01*
X51855776Y73885853D01*
X51918434Y73937965D01*
X52007413Y74011969D01*
X52011845Y74015655D01*
X52060460Y74074108D01*
X52137953Y74167282D01*
X52137955Y74167285D01*
X52141647Y74171724D01*
X52229868Y74329254D01*
X52238010Y74343792D01*
X52238011Y74343794D01*
X52240834Y74348835D01*
X52243220Y74355865D01*
X52243670Y74356504D01*
X52245041Y74359584D01*
X52245646Y74359315D01*
X52284053Y74413941D01*
X52349805Y74440722D01*
X52419598Y74427705D01*
X52471273Y74379020D01*
X52479277Y74362771D01*
X52549270Y74190397D01*
X52553913Y74181206D01*
X52633960Y74050580D01*
X52644416Y74041120D01*
X52653194Y74044904D01*
X53395478Y74787188D01*
X53401856Y74798868D01*
X54131908Y74798868D01*
X54132039Y74797035D01*
X54136290Y74790420D01*
X54877974Y74048736D01*
X54889984Y74042177D01*
X54901723Y74051145D01*
X54932504Y74093981D01*
X54937815Y74102820D01*
X55032170Y74293733D01*
X55035969Y74303328D01*
X55097876Y74507085D01*
X55100055Y74517166D01*
X55128090Y74730113D01*
X55128609Y74736788D01*
X55130072Y74796636D01*
X55129878Y74803354D01*
X55112281Y75017396D01*
X55110596Y75027576D01*
X55058714Y75234125D01*
X55055394Y75243876D01*
X54970472Y75439186D01*
X54965605Y75448261D01*
X54900563Y75548803D01*
X54889877Y75558005D01*
X54880312Y75553602D01*
X54139522Y74812812D01*
X54131908Y74798868D01*
X53401856Y74798868D01*
X53403092Y74801132D01*
X53402961Y74802965D01*
X53398710Y74809580D01*
X52657349Y75550941D01*
X52645813Y75557241D01*
X52633531Y75547618D01*
X52585589Y75477338D01*
X52580504Y75468387D01*
X52490838Y75275217D01*
X52487277Y75265536D01*
X52482791Y75249360D01*
X52445313Y75189061D01*
X52381184Y75158597D01*
X52310766Y75167640D01*
X52256415Y75213318D01*
X52248367Y75227302D01*
X52175831Y75374391D01*
X52173276Y75379572D01*
X52051820Y75542221D01*
X51925279Y75659195D01*
X51907003Y75676089D01*
X51902758Y75680013D01*
X51897875Y75683094D01*
X51897871Y75683097D01*
X51735964Y75785252D01*
X51731081Y75788333D01*
X51542539Y75863554D01*
X51536879Y75864680D01*
X51536875Y75864681D01*
X51349113Y75902029D01*
X51349110Y75902029D01*
X51343446Y75903156D01*
X51337671Y75903232D01*
X51337667Y75903232D01*
X51236293Y75904559D01*
X51140471Y75905813D01*
X51134774Y75904834D01*
X51134773Y75904834D01*
X50967820Y75876146D01*
X50940410Y75871436D01*
X50749963Y75801176D01*
X50575510Y75697388D01*
X50571170Y75693582D01*
X50571166Y75693579D01*
X50480177Y75613783D01*
X50422892Y75563545D01*
X50419317Y75559010D01*
X50419316Y75559009D01*
X50411270Y75548803D01*
X50297220Y75404131D01*
X50294531Y75399020D01*
X50294529Y75399017D01*
X50281573Y75374391D01*
X50202703Y75224485D01*
X50200989Y75218964D01*
X50200987Y75218960D01*
X50199178Y75213135D01*
X50159875Y75154010D01*
X50094846Y75125520D01*
X50078846Y75124500D01*
X44936602Y75124500D01*
X44868481Y75144502D01*
X44847507Y75161405D01*
X43793765Y76215147D01*
X53007477Y76215147D01*
X53012758Y76208093D01*
X53059979Y76180499D01*
X53108703Y76128861D01*
X53121774Y76059078D01*
X53095043Y75993306D01*
X53054587Y75959947D01*
X53045966Y75955459D01*
X53037234Y75949961D01*
X53017177Y75934901D01*
X53008723Y75923573D01*
X53015468Y75911242D01*
X53754688Y75172022D01*
X53768632Y75164408D01*
X53770465Y75164539D01*
X53777080Y75168790D01*
X54520889Y75912599D01*
X54527910Y75925456D01*
X54521111Y75934787D01*
X54517059Y75937479D01*
X54479616Y75958148D01*
X54429645Y76008580D01*
X54414873Y76078023D01*
X54439989Y76144428D01*
X54467340Y76171035D01*
X54516747Y76206277D01*
X54525148Y76216977D01*
X54518160Y76230130D01*
X53780312Y76967978D01*
X53766368Y76975592D01*
X53764535Y76975461D01*
X53757920Y76971210D01*
X53014237Y76227527D01*
X53007477Y76215147D01*
X43793765Y76215147D01*
X42639876Y77369036D01*
X50118648Y77369036D01*
X50131924Y77166478D01*
X50133345Y77160882D01*
X50133346Y77160877D01*
X50153619Y77081055D01*
X50181892Y76969731D01*
X50184309Y76964488D01*
X50242985Y76837209D01*
X50266877Y76785384D01*
X50276449Y76771840D01*
X50367631Y76642820D01*
X50384033Y76619611D01*
X50529438Y76477965D01*
X50698220Y76365188D01*
X50703523Y76362910D01*
X50703526Y76362908D01*
X50849449Y76300215D01*
X50884728Y76285058D01*
X50957744Y76268536D01*
X51077079Y76241533D01*
X51077084Y76241532D01*
X51082716Y76240258D01*
X51088487Y76240031D01*
X51088489Y76240031D01*
X51148256Y76237683D01*
X51285553Y76232288D01*
X51388861Y76247267D01*
X51480731Y76260587D01*
X51480736Y76260588D01*
X51486445Y76261416D01*
X51491909Y76263271D01*
X51491914Y76263272D01*
X51673193Y76324808D01*
X51673198Y76324810D01*
X51678665Y76326666D01*
X51855776Y76425853D01*
X51918434Y76477965D01*
X52007413Y76551969D01*
X52011845Y76555655D01*
X52074833Y76631389D01*
X52137953Y76707282D01*
X52137955Y76707285D01*
X52141647Y76711724D01*
X52221287Y76853932D01*
X52238010Y76883792D01*
X52238011Y76883794D01*
X52240834Y76888835D01*
X52243220Y76895865D01*
X52243670Y76896504D01*
X52245041Y76899584D01*
X52245646Y76899315D01*
X52284053Y76953941D01*
X52349805Y76980722D01*
X52419598Y76967705D01*
X52471273Y76919020D01*
X52479277Y76902771D01*
X52549270Y76730397D01*
X52553913Y76721206D01*
X52633960Y76590580D01*
X52644416Y76581120D01*
X52653194Y76584904D01*
X53395478Y77327188D01*
X53401856Y77338868D01*
X54131908Y77338868D01*
X54132039Y77337035D01*
X54136290Y77330420D01*
X54877974Y76588736D01*
X54889984Y76582177D01*
X54901723Y76591145D01*
X54932504Y76633981D01*
X54937815Y76642820D01*
X55032170Y76833733D01*
X55035969Y76843328D01*
X55097876Y77047085D01*
X55100055Y77057166D01*
X55128090Y77270113D01*
X55128609Y77276788D01*
X55130072Y77336636D01*
X55129878Y77343354D01*
X55112281Y77557396D01*
X55110596Y77567576D01*
X55058714Y77774125D01*
X55055394Y77783876D01*
X54970472Y77979186D01*
X54965605Y77988261D01*
X54900563Y78088803D01*
X54889877Y78098005D01*
X54880312Y78093602D01*
X54139522Y77352812D01*
X54131908Y77338868D01*
X53401856Y77338868D01*
X53403092Y77341132D01*
X53402961Y77342965D01*
X53398710Y77349580D01*
X52657349Y78090941D01*
X52645813Y78097241D01*
X52633531Y78087618D01*
X52585589Y78017338D01*
X52580504Y78008387D01*
X52490838Y77815217D01*
X52487277Y77805536D01*
X52482791Y77789360D01*
X52445313Y77729061D01*
X52381184Y77698597D01*
X52310766Y77707640D01*
X52256415Y77753318D01*
X52248367Y77767302D01*
X52175831Y77914391D01*
X52173276Y77919572D01*
X52051820Y78082221D01*
X51902758Y78220013D01*
X51897875Y78223094D01*
X51897871Y78223097D01*
X51735964Y78325252D01*
X51731081Y78328333D01*
X51542539Y78403554D01*
X51536879Y78404680D01*
X51536875Y78404681D01*
X51349113Y78442029D01*
X51349110Y78442029D01*
X51343446Y78443156D01*
X51337671Y78443232D01*
X51337667Y78443232D01*
X51236293Y78444559D01*
X51140471Y78445813D01*
X51134774Y78444834D01*
X51134773Y78444834D01*
X51054777Y78431088D01*
X50940410Y78411436D01*
X50749963Y78341176D01*
X50575510Y78237388D01*
X50571170Y78233582D01*
X50571166Y78233579D01*
X50465837Y78141207D01*
X50422892Y78103545D01*
X50419317Y78099010D01*
X50419316Y78099009D01*
X50392859Y78065448D01*
X50297220Y77944131D01*
X50294531Y77939020D01*
X50294529Y77939017D01*
X50279597Y77910636D01*
X50202703Y77764485D01*
X50142507Y77570622D01*
X50118648Y77369036D01*
X42639876Y77369036D01*
X41410452Y78598460D01*
X41376426Y78660772D01*
X41374804Y78705308D01*
X41381897Y78755147D01*
X53007477Y78755147D01*
X53012758Y78748093D01*
X53059979Y78720499D01*
X53108703Y78668861D01*
X53121774Y78599078D01*
X53095043Y78533306D01*
X53054587Y78499947D01*
X53045966Y78495459D01*
X53037234Y78489961D01*
X53017177Y78474901D01*
X53008723Y78463573D01*
X53015468Y78451242D01*
X53754688Y77712022D01*
X53768632Y77704408D01*
X53770465Y77704539D01*
X53777080Y77708790D01*
X54520889Y78452599D01*
X54527910Y78465456D01*
X54521111Y78474787D01*
X54517059Y78477479D01*
X54479616Y78498148D01*
X54429645Y78548580D01*
X54414873Y78618023D01*
X54439989Y78684428D01*
X54467340Y78711035D01*
X54516747Y78746277D01*
X54525148Y78756977D01*
X54518160Y78770130D01*
X53780312Y79507978D01*
X53766368Y79515592D01*
X53764535Y79515461D01*
X53757920Y79511210D01*
X53014237Y78767527D01*
X53007477Y78755147D01*
X41381897Y78755147D01*
X41388581Y78802109D01*
X41388581Y78802112D01*
X41389162Y78806193D01*
X41389307Y78820000D01*
X41370276Y78977267D01*
X41314280Y79125454D01*
X41287561Y79164331D01*
X41228855Y79249749D01*
X41228854Y79249751D01*
X41224553Y79256008D01*
X41106275Y79361389D01*
X41098889Y79365300D01*
X40972988Y79431961D01*
X40972989Y79431961D01*
X40966274Y79435516D01*
X40812633Y79474108D01*
X40805034Y79474148D01*
X40805033Y79474148D01*
X40739181Y79474493D01*
X40654221Y79474938D01*
X40646841Y79473166D01*
X40646839Y79473166D01*
X40507563Y79439729D01*
X40507560Y79439728D01*
X40500184Y79437957D01*
X40359414Y79365300D01*
X40240039Y79261162D01*
X40148950Y79131556D01*
X40091406Y78983963D01*
X40090414Y78976430D01*
X40090414Y78976429D01*
X40075964Y78866666D01*
X40070729Y78826904D01*
X38824500Y78826904D01*
X38824500Y79453398D01*
X38844502Y79521519D01*
X38861405Y79542493D01*
X39267507Y79948595D01*
X39329819Y79982621D01*
X39356602Y79985500D01*
X40750323Y79985500D01*
X40761304Y79985021D01*
X40787741Y79982708D01*
X40787743Y79982708D01*
X40798718Y79981748D01*
X40809361Y79984600D01*
X40809364Y79984600D01*
X40834986Y79991465D01*
X40845713Y79993843D01*
X40871838Y79998450D01*
X40871843Y79998452D01*
X40882698Y80000366D01*
X40892243Y80005877D01*
X40895480Y80007055D01*
X40898606Y80008513D01*
X40909255Y80011366D01*
X40940018Y80032907D01*
X40949286Y80038811D01*
X40972258Y80052074D01*
X40981802Y80057584D01*
X41005944Y80086355D01*
X41013370Y80094458D01*
X42137508Y81218595D01*
X42199820Y81252621D01*
X42226603Y81255500D01*
X49340898Y81255500D01*
X49409019Y81235498D01*
X49429993Y81218595D01*
X50185824Y80462764D01*
X50219850Y80400452D01*
X50214785Y80329637D01*
X50208242Y80315013D01*
X50202703Y80304485D01*
X50142507Y80110622D01*
X50118648Y79909036D01*
X50131924Y79706478D01*
X50133345Y79700882D01*
X50133346Y79700877D01*
X50151977Y79627520D01*
X50181892Y79509731D01*
X50184309Y79504488D01*
X50248639Y79364945D01*
X50266877Y79325384D01*
X50270210Y79320668D01*
X50367631Y79182820D01*
X50384033Y79159611D01*
X50388175Y79155576D01*
X50413254Y79131145D01*
X50529438Y79017965D01*
X50698220Y78905188D01*
X50703523Y78902910D01*
X50703526Y78902908D01*
X50792207Y78864808D01*
X50884728Y78825058D01*
X50949870Y78810318D01*
X51077079Y78781533D01*
X51077084Y78781532D01*
X51082716Y78780258D01*
X51088487Y78780031D01*
X51088489Y78780031D01*
X51148256Y78777683D01*
X51285553Y78772288D01*
X51385999Y78786852D01*
X51480731Y78800587D01*
X51480736Y78800588D01*
X51486445Y78801416D01*
X51491909Y78803271D01*
X51491914Y78803272D01*
X51673193Y78864808D01*
X51673198Y78864810D01*
X51678665Y78866666D01*
X51855776Y78965853D01*
X51868493Y78976429D01*
X52007413Y79091969D01*
X52011845Y79095655D01*
X52068963Y79164331D01*
X52137953Y79247282D01*
X52137955Y79247285D01*
X52141647Y79251724D01*
X52240834Y79428835D01*
X52243220Y79435865D01*
X52243670Y79436504D01*
X52245041Y79439584D01*
X52245646Y79439315D01*
X52284053Y79493941D01*
X52349805Y79520722D01*
X52419598Y79507705D01*
X52471273Y79459020D01*
X52479277Y79442771D01*
X52549270Y79270397D01*
X52553913Y79261206D01*
X52633960Y79130580D01*
X52644416Y79121120D01*
X52653194Y79124904D01*
X53395478Y79867188D01*
X53401856Y79878868D01*
X54131908Y79878868D01*
X54132039Y79877035D01*
X54136290Y79870420D01*
X54877974Y79128736D01*
X54889984Y79122177D01*
X54901723Y79131145D01*
X54932504Y79173981D01*
X54937815Y79182820D01*
X55032170Y79373733D01*
X55035969Y79383328D01*
X55097876Y79587085D01*
X55100055Y79597166D01*
X55128090Y79810113D01*
X55128609Y79816788D01*
X55130072Y79876636D01*
X55129878Y79883354D01*
X55112281Y80097396D01*
X55110596Y80107576D01*
X55058714Y80314125D01*
X55055394Y80323876D01*
X54970472Y80519186D01*
X54965605Y80528261D01*
X54900563Y80628803D01*
X54889877Y80638005D01*
X54880312Y80633602D01*
X54139522Y79892812D01*
X54131908Y79878868D01*
X53401856Y79878868D01*
X53403092Y79881132D01*
X53402961Y79882965D01*
X53398710Y79889580D01*
X52657349Y80630941D01*
X52645813Y80637241D01*
X52633531Y80627618D01*
X52585589Y80557338D01*
X52580504Y80548387D01*
X52490838Y80355217D01*
X52487277Y80345536D01*
X52482791Y80329360D01*
X52445313Y80269061D01*
X52381184Y80238597D01*
X52310766Y80247640D01*
X52256415Y80293318D01*
X52248367Y80307302D01*
X52175831Y80454391D01*
X52173276Y80459572D01*
X52051820Y80622221D01*
X51902758Y80760013D01*
X51897875Y80763094D01*
X51897871Y80763097D01*
X51735964Y80865252D01*
X51731081Y80868333D01*
X51542539Y80943554D01*
X51536879Y80944680D01*
X51536875Y80944681D01*
X51349113Y80982029D01*
X51349110Y80982029D01*
X51343446Y80983156D01*
X51337671Y80983232D01*
X51337667Y80983232D01*
X51236293Y80984559D01*
X51140471Y80985813D01*
X51134774Y80984834D01*
X51134773Y80984834D01*
X50951042Y80953263D01*
X50940410Y80951436D01*
X50778351Y80891649D01*
X50707519Y80886837D01*
X50645646Y80920766D01*
X50271265Y81295147D01*
X53007477Y81295147D01*
X53012758Y81288093D01*
X53059979Y81260499D01*
X53108703Y81208861D01*
X53121774Y81139078D01*
X53095043Y81073306D01*
X53054587Y81039947D01*
X53045966Y81035459D01*
X53037234Y81029961D01*
X53017177Y81014901D01*
X53008723Y81003573D01*
X53015468Y80991242D01*
X53754688Y80252022D01*
X53768632Y80244408D01*
X53770465Y80244539D01*
X53777080Y80248790D01*
X54520889Y80992599D01*
X54527910Y81005456D01*
X54521111Y81014787D01*
X54517059Y81017479D01*
X54479616Y81038148D01*
X54429645Y81088580D01*
X54414873Y81158023D01*
X54439989Y81224428D01*
X54467340Y81251035D01*
X54516747Y81286277D01*
X54525148Y81296977D01*
X54518160Y81310130D01*
X53780312Y82047978D01*
X53766368Y82055592D01*
X53764535Y82055461D01*
X53757920Y82051210D01*
X53014237Y81307527D01*
X53007477Y81295147D01*
X50271265Y81295147D01*
X49770870Y81795542D01*
X49763444Y81803645D01*
X49746386Y81823974D01*
X49746385Y81823975D01*
X49739302Y81832416D01*
X49706786Y81851189D01*
X49697515Y81857095D01*
X49666755Y81878634D01*
X49656106Y81881487D01*
X49652980Y81882945D01*
X49649743Y81884123D01*
X49640198Y81889634D01*
X49629343Y81891548D01*
X49629338Y81891550D01*
X49603213Y81896157D01*
X49592486Y81898535D01*
X49566864Y81905400D01*
X49566861Y81905400D01*
X49556218Y81908252D01*
X49545243Y81907292D01*
X49545241Y81907292D01*
X49518804Y81904979D01*
X49507823Y81904500D01*
X42059676Y81904500D01*
X42048695Y81904979D01*
X42022260Y81907292D01*
X42022257Y81907292D01*
X42011281Y81908252D01*
X41975009Y81898533D01*
X41964284Y81896155D01*
X41955518Y81894609D01*
X41927302Y81889634D01*
X41917752Y81884120D01*
X41914510Y81882940D01*
X41911394Y81881487D01*
X41900745Y81878634D01*
X41869970Y81857085D01*
X41860727Y81851197D01*
X41828198Y81832416D01*
X41821112Y81823971D01*
X41804061Y81803651D01*
X41796635Y81795548D01*
X41219683Y81218595D01*
X40672493Y80671405D01*
X40610181Y80637380D01*
X40583398Y80634500D01*
X39189677Y80634500D01*
X39178696Y80634979D01*
X39152259Y80637292D01*
X39152257Y80637292D01*
X39141282Y80638252D01*
X39130639Y80635400D01*
X39130636Y80635400D01*
X39105014Y80628535D01*
X39094287Y80626157D01*
X39068162Y80621550D01*
X39068157Y80621548D01*
X39057302Y80619634D01*
X39047757Y80614123D01*
X39044520Y80612945D01*
X39041394Y80611487D01*
X39030745Y80608634D01*
X39021714Y80602310D01*
X38999985Y80587095D01*
X38990714Y80581189D01*
X38958198Y80562416D01*
X38951115Y80553975D01*
X38951114Y80553974D01*
X38934056Y80533645D01*
X38926630Y80525542D01*
X38284458Y79883370D01*
X38276355Y79875944D01*
X38247584Y79851802D01*
X38242074Y79842258D01*
X38228811Y79819286D01*
X38222907Y79810018D01*
X38201366Y79779255D01*
X38198513Y79768606D01*
X38197055Y79765480D01*
X38195877Y79762243D01*
X38190366Y79752698D01*
X38188452Y79741843D01*
X38188450Y79741838D01*
X38183843Y79715713D01*
X38181465Y79704986D01*
X38174600Y79679364D01*
X38171748Y79668718D01*
X38172708Y79657743D01*
X38172708Y79657741D01*
X38175021Y79631304D01*
X38175500Y79620323D01*
X38175500Y77969677D01*
X38175021Y77958696D01*
X38171748Y77921282D01*
X38174600Y77910639D01*
X38174600Y77910636D01*
X38181465Y77885014D01*
X38183843Y77874287D01*
X38188450Y77848162D01*
X38188452Y77848157D01*
X38190366Y77837302D01*
X38195877Y77827757D01*
X38197055Y77824520D01*
X38198513Y77821394D01*
X38201366Y77810745D01*
X38207690Y77801714D01*
X38222905Y77779985D01*
X38228811Y77770714D01*
X38247584Y77738198D01*
X38256025Y77731115D01*
X38256026Y77731114D01*
X38276355Y77714056D01*
X38284458Y77706630D01*
X39418595Y76572492D01*
X39452621Y76510180D01*
X39455500Y76483397D01*
X39455500Y76026602D01*
X39435498Y75958481D01*
X39418595Y75937507D01*
X37262493Y73781405D01*
X37200181Y73747379D01*
X37173398Y73744500D01*
X36027482Y73744500D01*
X35959361Y73764502D01*
X35923642Y73799133D01*
X35888855Y73849749D01*
X35888854Y73849751D01*
X35884553Y73856008D01*
X35766275Y73961389D01*
X35758889Y73965300D01*
X35632988Y74031961D01*
X35632989Y74031961D01*
X35626274Y74035516D01*
X35472633Y74074108D01*
X35465034Y74074148D01*
X35465033Y74074148D01*
X35399181Y74074493D01*
X35314221Y74074938D01*
X35306841Y74073166D01*
X35306839Y74073166D01*
X35167563Y74039729D01*
X35167560Y74039728D01*
X35160184Y74037957D01*
X35019414Y73965300D01*
X34900039Y73861162D01*
X34808950Y73731556D01*
X34796659Y73700031D01*
X34769759Y73631035D01*
X34751406Y73583963D01*
X34750414Y73576430D01*
X34750414Y73576429D01*
X34734205Y73453306D01*
X34730729Y73426904D01*
X9954500Y73426904D01*
X9954500Y76214647D01*
X27621051Y76214647D01*
X27621182Y76212814D01*
X27625433Y76206199D01*
X27699359Y76132273D01*
X27704203Y76127905D01*
X27778810Y76067324D01*
X27790335Y76059893D01*
X27935726Y75987245D01*
X27949408Y75982291D01*
X28066841Y75954640D01*
X28128564Y75919557D01*
X28161521Y75856674D01*
X28155250Y75785955D01*
X28111740Y75729853D01*
X28090032Y75718251D01*
X28090184Y75717957D01*
X27949414Y75645300D01*
X27830039Y75541162D01*
X27738950Y75411556D01*
X27728284Y75384199D01*
X27685794Y75275217D01*
X27681406Y75263963D01*
X27680414Y75256430D01*
X27680414Y75256429D01*
X27663046Y75124500D01*
X27660729Y75106904D01*
X27667123Y75048987D01*
X27676304Y74965835D01*
X27678113Y74949447D01*
X27680723Y74942316D01*
X27680723Y74942314D01*
X27728114Y74812812D01*
X27732553Y74800681D01*
X27736789Y74794378D01*
X27736789Y74794377D01*
X27807813Y74688683D01*
X27820908Y74669195D01*
X27826527Y74664082D01*
X27826528Y74664081D01*
X27909466Y74588614D01*
X27938076Y74562581D01*
X28077293Y74486992D01*
X28230522Y74446793D01*
X28314477Y74445474D01*
X28381319Y74444424D01*
X28381322Y74444424D01*
X28388916Y74444305D01*
X28543332Y74479671D01*
X28619319Y74517888D01*
X28678072Y74547437D01*
X28678075Y74547439D01*
X28684855Y74550849D01*
X28690626Y74555778D01*
X28690629Y74555780D01*
X28799542Y74648801D01*
X28799543Y74648802D01*
X28805314Y74653731D01*
X28815586Y74668026D01*
X28842086Y74688683D01*
X34864223Y74688683D01*
X34864354Y74686850D01*
X34868605Y74680235D01*
X35030926Y74517914D01*
X35035749Y74513565D01*
X35110379Y74452966D01*
X35121890Y74445544D01*
X35267287Y74372893D01*
X35280969Y74367939D01*
X35438766Y74330783D01*
X35453208Y74329112D01*
X35615327Y74329254D01*
X35629762Y74330949D01*
X35787501Y74368383D01*
X35801164Y74373356D01*
X35946448Y74446267D01*
X35957931Y74453695D01*
X36031485Y74513578D01*
X36036258Y74517888D01*
X36106984Y74588614D01*
X36114598Y74602558D01*
X36114467Y74604391D01*
X36110216Y74611006D01*
X35458028Y75263194D01*
X35444084Y75270808D01*
X35442251Y75270677D01*
X35435636Y75266426D01*
X34871837Y74702627D01*
X34864223Y74688683D01*
X28842086Y74688683D01*
X28871581Y74711674D01*
X28917909Y74720500D01*
X28986080Y74720500D01*
X29010028Y74717951D01*
X29011693Y74717872D01*
X29021876Y74715680D01*
X29032217Y74716904D01*
X29055223Y74719627D01*
X29061154Y74719977D01*
X29061146Y74720072D01*
X29066324Y74720500D01*
X29071524Y74720500D01*
X29076653Y74721354D01*
X29076656Y74721354D01*
X29090565Y74723669D01*
X29096443Y74724506D01*
X29137001Y74729306D01*
X29137002Y74729306D01*
X29147341Y74730530D01*
X29155593Y74734493D01*
X29164626Y74735996D01*
X29173795Y74740943D01*
X29173797Y74740944D01*
X29209732Y74760334D01*
X29215025Y74763031D01*
X29254082Y74781785D01*
X29254086Y74781788D01*
X29261232Y74785219D01*
X29265508Y74788814D01*
X29266494Y74789800D01*
X29273964Y74794624D01*
X29274692Y74793497D01*
X29329248Y74820307D01*
X29402861Y74810849D01*
X29508559Y74762791D01*
X29517444Y74761519D01*
X29517446Y74761518D01*
X29642723Y74743577D01*
X29651612Y74742304D01*
X29660501Y74743577D01*
X29785777Y74761518D01*
X29785779Y74761519D01*
X29794664Y74762791D01*
X29802835Y74766506D01*
X29919028Y74819335D01*
X29919030Y74819336D01*
X29926217Y74822604D01*
X29974578Y74861488D01*
X30678512Y75565422D01*
X30717396Y75613783D01*
X30720730Y75621114D01*
X30773494Y75737165D01*
X30773494Y75737166D01*
X30777209Y75745336D01*
X30780198Y75766202D01*
X30785611Y75804001D01*
X34139112Y75804001D01*
X34139254Y75641882D01*
X34140949Y75627447D01*
X34178383Y75469708D01*
X34183356Y75456045D01*
X34256266Y75310763D01*
X34263696Y75299277D01*
X34323579Y75225722D01*
X34327887Y75220951D01*
X34487002Y75061836D01*
X34500946Y75054222D01*
X34502779Y75054353D01*
X34509394Y75058604D01*
X35073194Y75622404D01*
X35080808Y75636348D01*
X35080677Y75638181D01*
X35076426Y75644796D01*
X34424239Y76296983D01*
X34410295Y76304597D01*
X34408462Y76304466D01*
X34401847Y76300215D01*
X34327921Y76226289D01*
X34323553Y76221445D01*
X34262972Y76146838D01*
X34255541Y76135313D01*
X34182893Y75989922D01*
X34177939Y75976240D01*
X34140783Y75818443D01*
X34139112Y75804001D01*
X30785611Y75804001D01*
X30796423Y75879499D01*
X30797696Y75888388D01*
X30789445Y75946002D01*
X30778482Y76022554D01*
X30778481Y76022556D01*
X30777209Y76031441D01*
X30760894Y76067324D01*
X30720664Y76155806D01*
X30720663Y76155808D01*
X30717396Y76162993D01*
X30678512Y76211355D01*
X30221993Y76667874D01*
X34775834Y76667874D01*
X34775965Y76666041D01*
X34780216Y76659426D01*
X36466193Y74973449D01*
X36480137Y74965835D01*
X36481970Y74965966D01*
X36488585Y74970217D01*
X36562511Y75044143D01*
X36566879Y75048987D01*
X36627460Y75123594D01*
X36634891Y75135119D01*
X36707539Y75280510D01*
X36712493Y75294192D01*
X36749649Y75451989D01*
X36751320Y75466431D01*
X36751178Y75628550D01*
X36749483Y75642985D01*
X36712049Y75800724D01*
X36707077Y75814383D01*
X36676081Y75876146D01*
X36663403Y75946002D01*
X36690505Y76011622D01*
X36748781Y76052173D01*
X36824058Y76053598D01*
X36831946Y76051291D01*
X36840120Y76047575D01*
X36849009Y76046302D01*
X36930873Y76034578D01*
X36983172Y76027088D01*
X36992061Y76028361D01*
X37117338Y76046302D01*
X37117340Y76046303D01*
X37126225Y76047575D01*
X37134396Y76051290D01*
X37250590Y76104120D01*
X37250592Y76104121D01*
X37257777Y76107388D01*
X37260367Y76109470D01*
X37326905Y76127625D01*
X37394628Y76106315D01*
X37440080Y76051775D01*
X37449719Y76015475D01*
X37456436Y75954640D01*
X37458113Y75939447D01*
X37460723Y75932316D01*
X37460723Y75932314D01*
X37509793Y75798224D01*
X37512553Y75790681D01*
X37516789Y75784378D01*
X37516789Y75784377D01*
X37589556Y75676089D01*
X37600908Y75659195D01*
X37606527Y75654082D01*
X37606528Y75654081D01*
X37706622Y75563003D01*
X37718076Y75552581D01*
X37857293Y75476992D01*
X38010522Y75436793D01*
X38094477Y75435474D01*
X38161319Y75434424D01*
X38161322Y75434424D01*
X38168916Y75434305D01*
X38323332Y75469671D01*
X38393742Y75505083D01*
X38458072Y75537437D01*
X38458075Y75537439D01*
X38464855Y75540849D01*
X38470626Y75545778D01*
X38470629Y75545780D01*
X38579536Y75638796D01*
X38579536Y75638797D01*
X38585314Y75643731D01*
X38677755Y75772376D01*
X38736842Y75919359D01*
X38751528Y76022554D01*
X38758581Y76072109D01*
X38758581Y76072112D01*
X38759162Y76076193D01*
X38759307Y76090000D01*
X38740276Y76247267D01*
X38684280Y76395454D01*
X38623839Y76483397D01*
X38598855Y76519749D01*
X38598854Y76519751D01*
X38594553Y76526008D01*
X38476275Y76631389D01*
X38336274Y76705516D01*
X38182633Y76744108D01*
X38175034Y76744148D01*
X38175033Y76744148D01*
X38061110Y76744745D01*
X37993095Y76765104D01*
X37946884Y76819002D01*
X37937043Y76888606D01*
X37943591Y76934324D01*
X37952480Y76996396D01*
X37931993Y77139448D01*
X37884858Y77243118D01*
X37875449Y77263812D01*
X37875448Y77263814D01*
X37872180Y77271001D01*
X37842964Y77307338D01*
X37835435Y77316702D01*
X37835432Y77316705D01*
X37833296Y77319362D01*
X37129362Y78023296D01*
X37081001Y78062180D01*
X37073814Y78065448D01*
X37073812Y78065449D01*
X36957619Y78118278D01*
X36957618Y78118278D01*
X36949448Y78121993D01*
X36940563Y78123265D01*
X36940561Y78123266D01*
X36815285Y78141207D01*
X36806396Y78142480D01*
X36797507Y78141207D01*
X36672230Y78123266D01*
X36672228Y78123265D01*
X36663343Y78121993D01*
X36655173Y78118278D01*
X36655172Y78118278D01*
X36538978Y78065448D01*
X36538976Y78065447D01*
X36531791Y78062180D01*
X36483429Y78023296D01*
X35956272Y77496139D01*
X35917388Y77447777D01*
X35914121Y77440592D01*
X35914120Y77440590D01*
X35861290Y77324396D01*
X35857575Y77316225D01*
X35856303Y77307340D01*
X35856302Y77307338D01*
X35848453Y77252533D01*
X35837088Y77173172D01*
X35838361Y77164283D01*
X35853702Y77057166D01*
X35857575Y77030120D01*
X35861290Y77021950D01*
X35863605Y77014032D01*
X35863525Y76943036D01*
X35825074Y76883353D01*
X35760460Y76853932D01*
X35686349Y76865958D01*
X35623145Y76897539D01*
X35609463Y76902493D01*
X35451666Y76939649D01*
X35437224Y76941320D01*
X35275105Y76941178D01*
X35260670Y76939483D01*
X35102931Y76902049D01*
X35089268Y76897076D01*
X34943984Y76824165D01*
X34932501Y76816737D01*
X34858947Y76756854D01*
X34854174Y76752544D01*
X34783448Y76681818D01*
X34775834Y76667874D01*
X30221993Y76667874D01*
X30151355Y76738512D01*
X30142385Y76745724D01*
X30109146Y76772449D01*
X30109145Y76772449D01*
X30102993Y76777396D01*
X30095808Y76780663D01*
X30095806Y76780664D01*
X29979612Y76833494D01*
X29979611Y76833494D01*
X29971441Y76837209D01*
X29962556Y76838481D01*
X29962554Y76838482D01*
X29837277Y76856423D01*
X29828388Y76857696D01*
X29819499Y76856423D01*
X29694223Y76838482D01*
X29694221Y76838481D01*
X29685336Y76837209D01*
X29677166Y76833494D01*
X29669248Y76831179D01*
X29598252Y76831259D01*
X29538569Y76869710D01*
X29509148Y76934324D01*
X29521174Y77008435D01*
X29552755Y77071639D01*
X29557709Y77085321D01*
X29594865Y77243118D01*
X29596536Y77257560D01*
X29596394Y77419679D01*
X29594699Y77434114D01*
X29557265Y77591853D01*
X29552292Y77605516D01*
X29479381Y77750800D01*
X29471953Y77762283D01*
X29412070Y77835837D01*
X29407760Y77840610D01*
X29337034Y77911336D01*
X29323090Y77918950D01*
X29321257Y77918819D01*
X29314642Y77914568D01*
X27628665Y76228591D01*
X27621051Y76214647D01*
X9954500Y76214647D01*
X9954500Y77241576D01*
X26984328Y77241576D01*
X26984470Y77079457D01*
X26986165Y77065022D01*
X27023599Y76907283D01*
X27028572Y76893620D01*
X27101483Y76748336D01*
X27108911Y76736853D01*
X27168794Y76663299D01*
X27173104Y76658526D01*
X27243830Y76587800D01*
X27257774Y76580186D01*
X27259607Y76580317D01*
X27266222Y76584568D01*
X27918410Y77236756D01*
X27926024Y77250700D01*
X27925893Y77252533D01*
X27921642Y77259148D01*
X27357843Y77822947D01*
X27343899Y77830561D01*
X27342066Y77830430D01*
X27335451Y77826179D01*
X27173130Y77663858D01*
X27168781Y77659035D01*
X27108182Y77584405D01*
X27100760Y77572894D01*
X27028109Y77427497D01*
X27023155Y77413815D01*
X26985999Y77256018D01*
X26984328Y77241576D01*
X9954500Y77241576D01*
X9954500Y78193838D01*
X27709438Y78193838D01*
X27709569Y78192005D01*
X27713820Y78185390D01*
X28277620Y77621590D01*
X28291564Y77613976D01*
X28293397Y77614107D01*
X28300012Y77618358D01*
X28952199Y78270545D01*
X28959813Y78284489D01*
X28959682Y78286322D01*
X28955431Y78292937D01*
X28881505Y78366863D01*
X28876661Y78371231D01*
X28802054Y78431812D01*
X28790529Y78439243D01*
X28645138Y78511891D01*
X28631456Y78516845D01*
X28473659Y78554001D01*
X28459217Y78555672D01*
X28297098Y78555530D01*
X28282663Y78553835D01*
X28124924Y78516401D01*
X28111261Y78511428D01*
X27965979Y78438518D01*
X27954493Y78431088D01*
X27880938Y78371205D01*
X27876167Y78366897D01*
X27717052Y78207782D01*
X27709438Y78193838D01*
X9954500Y78193838D01*
X9954500Y86823398D01*
X9974502Y86891519D01*
X9991405Y86912493D01*
X17497508Y94418595D01*
X17559820Y94452621D01*
X17586603Y94455500D01*
X26999500Y94455500D01*
X27067621Y94435498D01*
G37*
G04 #@! TD.AperFunction*
G04 #@! TA.AperFunction,Conductor*
G36*
X57101621Y95329498D02*
G01*
X57148114Y95275842D01*
X57159500Y95223500D01*
X57159500Y61994500D01*
X57139498Y61926379D01*
X57085842Y61879886D01*
X57033500Y61868500D01*
X40462374Y61868500D01*
X40450817Y61869065D01*
X40439832Y61872246D01*
X40402006Y61868970D01*
X40391134Y61868500D01*
X40382052Y61868500D01*
X40376351Y61867438D01*
X40376349Y61867438D01*
X40375479Y61867276D01*
X40363280Y61865616D01*
X40339895Y61863591D01*
X40339894Y61863591D01*
X40328304Y61862587D01*
X40317855Y61857480D01*
X40314567Y61856568D01*
X40311383Y61855339D01*
X40299947Y61853209D01*
X40280316Y61841108D01*
X40270048Y61834779D01*
X40259265Y61828840D01*
X40227731Y61813425D01*
X40219822Y61804899D01*
X40217084Y61802866D01*
X40214554Y61800572D01*
X40204652Y61794468D01*
X40197613Y61785212D01*
X40197608Y61785207D01*
X40183393Y61766513D01*
X40175474Y61757092D01*
X40151599Y61731354D01*
X40147290Y61720553D01*
X40145471Y61717676D01*
X40143934Y61714619D01*
X40136892Y61705359D01*
X40133656Y61694183D01*
X40127126Y61671633D01*
X40123129Y61659992D01*
X40110117Y61627378D01*
X40109500Y61621085D01*
X40109500Y61618003D01*
X40109350Y61614933D01*
X40109234Y61614939D01*
X40108935Y61608817D01*
X40105754Y61597832D01*
X40106758Y61586241D01*
X40109030Y61560006D01*
X40109500Y61549134D01*
X40109500Y60686078D01*
X40089498Y60617957D01*
X40035842Y60571464D01*
X39965568Y60561360D01*
X39897972Y60593552D01*
X39815258Y60670013D01*
X39810375Y60673094D01*
X39810371Y60673097D01*
X39648464Y60775252D01*
X39643581Y60778333D01*
X39598810Y60796195D01*
X39542951Y60840015D01*
X39519500Y60913225D01*
X39519500Y62450616D01*
X39539502Y62518737D01*
X39556405Y62539711D01*
X39935289Y62918595D01*
X39997601Y62952621D01*
X40024384Y62955500D01*
X40559501Y62955500D01*
X40627622Y62935498D01*
X40674115Y62881842D01*
X40685501Y62829500D01*
X40685501Y62459934D01*
X40700266Y62385699D01*
X40756516Y62301516D01*
X40840699Y62245266D01*
X40914933Y62230500D01*
X41789858Y62230500D01*
X42665066Y62230501D01*
X42700818Y62237612D01*
X42727126Y62242844D01*
X42727128Y62242845D01*
X42739301Y62245266D01*
X42749621Y62252161D01*
X42749622Y62252162D01*
X42813168Y62294623D01*
X42823484Y62301516D01*
X42879734Y62385699D01*
X42894500Y62459933D01*
X42894500Y62829500D01*
X42914502Y62897621D01*
X42968158Y62944114D01*
X43020500Y62955500D01*
X53921080Y62955500D01*
X53945028Y62952951D01*
X53946693Y62952872D01*
X53956876Y62950680D01*
X53967217Y62951904D01*
X53990223Y62954627D01*
X53996154Y62954977D01*
X53996146Y62955072D01*
X54001324Y62955500D01*
X54006524Y62955500D01*
X54011653Y62956354D01*
X54011656Y62956354D01*
X54025565Y62958669D01*
X54031443Y62959506D01*
X54072001Y62964306D01*
X54072002Y62964306D01*
X54082341Y62965530D01*
X54090593Y62969493D01*
X54099626Y62970996D01*
X54108795Y62975943D01*
X54108797Y62975944D01*
X54144732Y62995334D01*
X54150025Y62998031D01*
X54189082Y63016785D01*
X54189086Y63016788D01*
X54196232Y63020219D01*
X54200508Y63023814D01*
X54202431Y63025737D01*
X54204363Y63027509D01*
X54204442Y63027552D01*
X54204555Y63027428D01*
X54205095Y63027904D01*
X54210814Y63030990D01*
X54247417Y63070587D01*
X54250846Y63074152D01*
X56070216Y64893522D01*
X56088964Y64908664D01*
X56090189Y64909779D01*
X56098940Y64915429D01*
X56105387Y64923607D01*
X56105389Y64923609D01*
X56119729Y64941800D01*
X56123678Y64946244D01*
X56123604Y64946306D01*
X56126957Y64950263D01*
X56130638Y64953944D01*
X56141865Y64969654D01*
X56145421Y64974391D01*
X56170708Y65006468D01*
X56177156Y65014647D01*
X56180189Y65023284D01*
X56185513Y65030734D01*
X56200202Y65079849D01*
X56202034Y65085486D01*
X56216390Y65126367D01*
X56216390Y65126368D01*
X56219018Y65133851D01*
X56219500Y65139416D01*
X56219500Y65142124D01*
X56219614Y65144758D01*
X56219643Y65144856D01*
X56219807Y65144849D01*
X56219851Y65145553D01*
X56221713Y65151778D01*
X56219597Y65205635D01*
X56219500Y65210582D01*
X56219500Y82886080D01*
X56222049Y82910027D01*
X56222128Y82911693D01*
X56224320Y82921876D01*
X56223096Y82932218D01*
X56223096Y82932221D01*
X56220374Y82955213D01*
X56220023Y82961154D01*
X56219928Y82961146D01*
X56219500Y82966326D01*
X56219500Y82971524D01*
X56217484Y82983638D01*
X56216329Y82990573D01*
X56215492Y82996453D01*
X56210693Y83037003D01*
X56210692Y83037005D01*
X56209469Y83047341D01*
X56205508Y83055590D01*
X56204004Y83064626D01*
X56199056Y83073797D01*
X56179652Y83109760D01*
X56176957Y83115049D01*
X56158212Y83154085D01*
X56154780Y83161232D01*
X56151186Y83165508D01*
X56149246Y83167448D01*
X56147493Y83169359D01*
X56147444Y83169449D01*
X56147567Y83169561D01*
X56147095Y83170096D01*
X56144010Y83175814D01*
X56104413Y83212417D01*
X56100848Y83215846D01*
X55840143Y83476551D01*
X55806117Y83538863D01*
X55804495Y83583399D01*
X55808581Y83612108D01*
X55808581Y83612114D01*
X55809162Y83616193D01*
X55809307Y83630000D01*
X55790276Y83787267D01*
X55734280Y83935454D01*
X55658405Y84045853D01*
X55648855Y84059749D01*
X55648854Y84059751D01*
X55644553Y84066008D01*
X55526275Y84171389D01*
X55518889Y84175300D01*
X55405047Y84235576D01*
X55386274Y84245516D01*
X55232633Y84284108D01*
X55225034Y84284148D01*
X55225033Y84284148D01*
X55199484Y84284282D01*
X55149924Y84284541D01*
X55081910Y84304899D01*
X55035699Y84358797D01*
X55025963Y84429123D01*
X55033434Y84456925D01*
X55035969Y84463327D01*
X55097876Y84667085D01*
X55100055Y84677166D01*
X55128090Y84890113D01*
X55128609Y84896788D01*
X55130072Y84956636D01*
X55129878Y84963354D01*
X55112281Y85177396D01*
X55110596Y85187576D01*
X55058714Y85394125D01*
X55055394Y85403876D01*
X54970472Y85599186D01*
X54965605Y85608261D01*
X54900563Y85708803D01*
X54889877Y85718005D01*
X54880312Y85713602D01*
X53856595Y84689885D01*
X53794283Y84655859D01*
X53723468Y84660924D01*
X53678405Y84689885D01*
X53497385Y84870905D01*
X53463359Y84933217D01*
X53468424Y85004032D01*
X53497385Y85049095D01*
X54520889Y86072599D01*
X54527910Y86085456D01*
X54521111Y86094787D01*
X54517059Y86097479D01*
X54479616Y86118148D01*
X54429645Y86168580D01*
X54414873Y86238023D01*
X54439989Y86304428D01*
X54467340Y86331035D01*
X54516747Y86366277D01*
X54525148Y86376977D01*
X54518160Y86390130D01*
X53497385Y87410905D01*
X53463359Y87473217D01*
X53468424Y87544032D01*
X53497385Y87589095D01*
X53678405Y87770115D01*
X53740717Y87804141D01*
X53811532Y87799076D01*
X53856595Y87770115D01*
X54877974Y86748736D01*
X54889984Y86742177D01*
X54901723Y86751145D01*
X54932504Y86793981D01*
X54937815Y86802820D01*
X55032170Y86993733D01*
X55035969Y87003328D01*
X55097876Y87207085D01*
X55100055Y87217166D01*
X55128090Y87430113D01*
X55128609Y87436788D01*
X55130072Y87496636D01*
X55129878Y87503354D01*
X55112281Y87717396D01*
X55110596Y87727576D01*
X55058714Y87934125D01*
X55055394Y87943876D01*
X54970472Y88139186D01*
X54965605Y88148261D01*
X54849927Y88327073D01*
X54845654Y88332622D01*
X54819938Y88398798D01*
X54834082Y88468372D01*
X54883595Y88519254D01*
X54945483Y88535500D01*
X55100323Y88535500D01*
X55111304Y88535021D01*
X55137741Y88532708D01*
X55137743Y88532708D01*
X55148718Y88531748D01*
X55159361Y88534600D01*
X55159364Y88534600D01*
X55184986Y88541465D01*
X55195713Y88543843D01*
X55221838Y88548450D01*
X55221843Y88548452D01*
X55232698Y88550366D01*
X55242243Y88555877D01*
X55245480Y88557055D01*
X55248606Y88558513D01*
X55259255Y88561366D01*
X55290018Y88582907D01*
X55299286Y88588811D01*
X55322258Y88602074D01*
X55331802Y88607584D01*
X55355944Y88636355D01*
X55363370Y88644458D01*
X56575542Y89856630D01*
X56583645Y89864056D01*
X56603974Y89881114D01*
X56603975Y89881115D01*
X56612416Y89888198D01*
X56631189Y89920714D01*
X56637095Y89929985D01*
X56652310Y89951714D01*
X56658634Y89960745D01*
X56661487Y89971394D01*
X56662945Y89974520D01*
X56664123Y89977757D01*
X56669634Y89987302D01*
X56671548Y89998157D01*
X56671550Y89998162D01*
X56676157Y90024287D01*
X56678535Y90035014D01*
X56685400Y90060636D01*
X56685400Y90060639D01*
X56688252Y90071282D01*
X56684979Y90108696D01*
X56684500Y90119677D01*
X56684500Y93010323D01*
X56684979Y93021304D01*
X56687292Y93047741D01*
X56687292Y93047743D01*
X56688252Y93058718D01*
X56685400Y93069364D01*
X56678535Y93094986D01*
X56676157Y93105713D01*
X56671550Y93131838D01*
X56671548Y93131843D01*
X56669634Y93142698D01*
X56664123Y93152243D01*
X56662945Y93155480D01*
X56661487Y93158606D01*
X56658634Y93169255D01*
X56637093Y93200018D01*
X56631189Y93209286D01*
X56617926Y93232258D01*
X56612416Y93241802D01*
X56583645Y93265944D01*
X56575542Y93273370D01*
X54853370Y94995542D01*
X54845944Y95003645D01*
X54828886Y95023974D01*
X54828885Y95023975D01*
X54821802Y95032416D01*
X54789286Y95051189D01*
X54780015Y95057095D01*
X54758286Y95072310D01*
X54749255Y95078634D01*
X54738606Y95081487D01*
X54735480Y95082945D01*
X54732243Y95084123D01*
X54722698Y95089634D01*
X54711843Y95091548D01*
X54711838Y95091550D01*
X54685713Y95096157D01*
X54674989Y95098534D01*
X54662828Y95101792D01*
X54602204Y95138741D01*
X54571179Y95202600D01*
X54579605Y95273095D01*
X54624806Y95327844D01*
X54695434Y95349500D01*
X57033500Y95349500D01*
X57101621Y95329498D01*
G37*
G04 #@! TD.AperFunction*
M02*
