G04 #@! TF.GenerationSoftware,KiCad,Pcbnew,6.0.9+dfsg-1*
G04 #@! TF.CreationDate,2022-12-29T08:22:08+02:00*
G04 #@! TF.ProjectId,ATF1502AS-EVB,41544631-3530-4324-9153-2d4556422e6b,rev?*
G04 #@! TF.SameCoordinates,PX75d6040PY9a0c090*
G04 #@! TF.FileFunction,Soldermask,Top*
G04 #@! TF.FilePolarity,Negative*
%FSLAX46Y46*%
G04 Gerber Fmt 4.6, Leading zero omitted, Abs format (unit mm)*
G04 Created by KiCad (PCBNEW 6.0.9+dfsg-1) date 2022-12-29 08:22:08*
%MOMM*%
%LPD*%
G01*
G04 APERTURE LIST*
G04 Aperture macros list*
%AMRoundRect*
0 Rectangle with rounded corners*
0 $1 Rounding radius*
0 $2 $3 $4 $5 $6 $7 $8 $9 X,Y pos of 4 corners*
0 Add a 4 corners polygon primitive as box body*
4,1,4,$2,$3,$4,$5,$6,$7,$8,$9,$2,$3,0*
0 Add four circle primitives for the rounded corners*
1,1,$1+$1,$2,$3*
1,1,$1+$1,$4,$5*
1,1,$1+$1,$6,$7*
1,1,$1+$1,$8,$9*
0 Add four rect primitives between the rounded corners*
20,1,$1+$1,$2,$3,$4,$5,0*
20,1,$1+$1,$4,$5,$6,$7,0*
20,1,$1+$1,$6,$7,$8,$9,0*
20,1,$1+$1,$8,$9,$2,$3,0*%
%AMRotRect*
0 Rectangle, with rotation*
0 The origin of the aperture is its center*
0 $1 length*
0 $2 width*
0 $3 Rotation angle, in degrees counterclockwise*
0 Add horizontal line*
21,1,$1,$2,0,0,$3*%
%AMFreePoly0*
4,1,6,1.000000,0.000000,0.500000,-0.750000,-0.500000,-0.750000,-0.500000,0.750000,0.500000,0.750000,1.000000,0.000000,1.000000,0.000000,$1*%
%AMFreePoly1*
4,1,6,0.500000,-0.750000,-0.650000,-0.750000,-0.150000,0.000000,-0.650000,0.750000,0.500000,0.750000,0.500000,-0.750000,0.500000,-0.750000,$1*%
G04 Aperture macros list end*
%ADD10RoundRect,0.250000X0.325000X0.450000X-0.325000X0.450000X-0.325000X-0.450000X0.325000X-0.450000X0*%
%ADD11RoundRect,0.250000X0.450000X-0.325000X0.450000X0.325000X-0.450000X0.325000X-0.450000X-0.325000X0*%
%ADD12FreePoly0,0.000000*%
%ADD13FreePoly1,0.000000*%
%ADD14FreePoly0,180.000000*%
%ADD15FreePoly1,180.000000*%
%ADD16R,1.700000X1.700000*%
%ADD17O,1.700000X1.700000*%
%ADD18RoundRect,0.250000X-0.325000X-0.450000X0.325000X-0.450000X0.325000X0.450000X-0.325000X0.450000X0*%
%ADD19RoundRect,0.250000X-0.600000X-0.600000X0.600000X-0.600000X0.600000X0.600000X-0.600000X0.600000X0*%
%ADD20C,1.700000*%
%ADD21RotRect,0.700000X2.925000X315.000000*%
%ADD22RotRect,2.925000X0.700000X315.000000*%
G04 APERTURE END LIST*
D10*
X31768333Y9440000D03*
X29718333Y9440000D03*
D11*
X32790000Y12817500D03*
X32790000Y14867500D03*
D12*
X26215000Y9440000D03*
D13*
X27665000Y9440000D03*
D14*
X39365000Y9440000D03*
D15*
X37915000Y9440000D03*
D16*
X12020000Y70220000D03*
D17*
X14560000Y70220000D03*
X12020000Y67680000D03*
X14560000Y67680000D03*
X12020000Y65140000D03*
X14560000Y65140000D03*
D18*
X33811666Y9440000D03*
X35861666Y9440000D03*
D19*
X51227500Y90040000D03*
D20*
X53767500Y90040000D03*
X51227500Y87500000D03*
X53767500Y87500000D03*
X51227500Y84960000D03*
X53767500Y84960000D03*
X51227500Y82420000D03*
X53767500Y82420000D03*
X51227500Y79880000D03*
X53767500Y79880000D03*
X51227500Y77340000D03*
X53767500Y77340000D03*
X51227500Y74800000D03*
X53767500Y74800000D03*
X51227500Y72260000D03*
X53767500Y72260000D03*
X51227500Y69720000D03*
X53767500Y69720000D03*
X51227500Y67180000D03*
X53767500Y67180000D03*
D21*
X38703180Y85493180D03*
X37805155Y86391206D03*
X36907129Y87289232D03*
X36009104Y88187257D03*
X35111078Y89085283D03*
X34213052Y89983309D03*
D22*
X31366948Y89983309D03*
X30468922Y89085283D03*
X29570896Y88187257D03*
X28672871Y87289232D03*
X27774845Y86391206D03*
X26876820Y85493180D03*
X25978794Y84595155D03*
X25080768Y83697129D03*
X24182743Y82799104D03*
X23284717Y81901078D03*
X22386691Y81003052D03*
D21*
X22386691Y78156948D03*
X23284717Y77258922D03*
X24182743Y76360896D03*
X25080768Y75462871D03*
X25978794Y74564845D03*
X26876820Y73666820D03*
X27774845Y72768794D03*
X28672871Y71870768D03*
X29570896Y70972743D03*
X30468922Y70074717D03*
X31366948Y69176691D03*
D22*
X34213052Y69176691D03*
X35111078Y70074717D03*
X36009104Y70972743D03*
X36907129Y71870768D03*
X37805155Y72768794D03*
X38703180Y73666820D03*
X39601206Y74564845D03*
X40499232Y75462871D03*
X41397257Y76360896D03*
X42295283Y77258922D03*
X43193309Y78156948D03*
D21*
X43193309Y81003052D03*
X42295283Y81901078D03*
X41397257Y82799104D03*
X40499232Y83697129D03*
X39601206Y84595155D03*
D16*
X41790000Y63335000D03*
D17*
X41790000Y65875000D03*
X39140000Y59790000D03*
X39140000Y57250000D03*
X39140000Y54710000D03*
X39140000Y52170000D03*
X39140000Y49630000D03*
X39140000Y47090000D03*
X39140000Y44550000D03*
X39140000Y42010000D03*
X39140000Y39470000D03*
X39140000Y36930000D03*
X39140000Y34390000D03*
X39140000Y31850000D03*
X39140000Y29310000D03*
X39140000Y26770000D03*
X39140000Y24230000D03*
X39140000Y21690000D03*
X39140000Y19150000D03*
X39140000Y16610000D03*
X39140000Y14070000D03*
X39140000Y11530000D03*
X26440000Y11530000D03*
X26440000Y14070000D03*
X26440000Y16610000D03*
X26440000Y19150000D03*
X26440000Y21690000D03*
X26440000Y24230000D03*
X26440000Y26770000D03*
X26440000Y29310000D03*
X26440000Y31850000D03*
X26440000Y34390000D03*
X26440000Y36930000D03*
X26440000Y39470000D03*
X26440000Y42010000D03*
X26440000Y44550000D03*
X26440000Y47090000D03*
X26440000Y49630000D03*
X26440000Y52170000D03*
D16*
X26440000Y54710000D03*
D17*
X26440000Y57250000D03*
X26440000Y59790000D03*
M02*
