M48
; DRILL file {KiCad 6.0.9+dfsg-1} date Thu 29 Dec 2022 08:22:10 AM EET
; FORMAT={-:-/ absolute / metric / decimal}
; #@! TF.CreationDate,2022-12-29T08:22:10+02:00
; #@! TF.GenerationSoftware,Kicad,Pcbnew,6.0.9+dfsg-1
; #@! TF.FileFunction,MixedPlating,1,2
FMAT,2
METRIC
; #@! TA.AperFunction,Plated,PTH,ViaDrill
T1C0.400
; #@! TA.AperFunction,Plated,PTH,ComponentDrill
T2C1.000
%
G90
G05
T1
X25.74Y81.23
X27.45Y83.1
X27.51Y76.04
X28.32Y75.1
X30.28Y85.69
X31.77Y10.76
X32.43Y71.25
X32.79Y11.7
X32.8Y68.94
X33.56Y71.63
X33.81Y10.72
X35.32Y85.71
X35.39Y73.42
X38.1Y76.09
X39.77Y81.22
X40.73Y78.82
X55.15Y83.63
T2
X12.02Y70.22
X12.02Y67.68
X12.02Y65.14
X14.56Y70.22
X14.56Y67.68
X14.56Y65.14
X26.44Y59.79
X26.44Y57.25
X26.44Y54.71
X26.44Y52.17
X26.44Y49.63
X26.44Y47.09
X26.44Y44.55
X26.44Y42.01
X26.44Y39.47
X26.44Y36.93
X26.44Y34.39
X26.44Y31.85
X26.44Y29.31
X26.44Y26.77
X26.44Y24.23
X26.44Y21.69
X26.44Y19.15
X26.44Y16.61
X26.44Y14.07
X26.44Y11.53
X39.14Y59.79
X39.14Y57.25
X39.14Y54.71
X39.14Y52.17
X39.14Y49.63
X39.14Y47.09
X39.14Y44.55
X39.14Y42.01
X39.14Y39.47
X39.14Y36.93
X39.14Y34.39
X39.14Y31.85
X39.14Y29.31
X39.14Y26.77
X39.14Y24.23
X39.14Y21.69
X39.14Y19.15
X39.14Y16.61
X39.14Y14.07
X39.14Y11.53
X41.79Y65.875
X41.79Y63.335
X51.227Y90.04
X51.227Y87.5
X51.227Y84.96
X51.227Y82.42
X51.227Y79.88
X51.227Y77.34
X51.227Y74.8
X51.227Y72.26
X51.227Y69.72
X51.227Y67.18
X53.767Y90.04
X53.767Y87.5
X53.767Y84.96
X53.767Y82.42
X53.767Y79.88
X53.767Y77.34
X53.767Y74.8
X53.767Y72.26
X53.767Y69.72
X53.767Y67.18
T0
M30
