G04 #@! TF.GenerationSoftware,KiCad,Pcbnew,6.0.9+dfsg-1*
G04 #@! TF.CreationDate,2022-12-29T08:22:08+02:00*
G04 #@! TF.ProjectId,ATF1502AS-EVB,41544631-3530-4324-9153-2d4556422e6b,rev?*
G04 #@! TF.SameCoordinates,PX75d6040PY9a0c090*
G04 #@! TF.FileFunction,Copper,L1,Top*
G04 #@! TF.FilePolarity,Positive*
%FSLAX46Y46*%
G04 Gerber Fmt 4.6, Leading zero omitted, Abs format (unit mm)*
G04 Created by KiCad (PCBNEW 6.0.9+dfsg-1) date 2022-12-29 08:22:08*
%MOMM*%
%LPD*%
G01*
G04 APERTURE LIST*
G04 Aperture macros list*
%AMRoundRect*
0 Rectangle with rounded corners*
0 $1 Rounding radius*
0 $2 $3 $4 $5 $6 $7 $8 $9 X,Y pos of 4 corners*
0 Add a 4 corners polygon primitive as box body*
4,1,4,$2,$3,$4,$5,$6,$7,$8,$9,$2,$3,0*
0 Add four circle primitives for the rounded corners*
1,1,$1+$1,$2,$3*
1,1,$1+$1,$4,$5*
1,1,$1+$1,$6,$7*
1,1,$1+$1,$8,$9*
0 Add four rect primitives between the rounded corners*
20,1,$1+$1,$2,$3,$4,$5,0*
20,1,$1+$1,$4,$5,$6,$7,0*
20,1,$1+$1,$6,$7,$8,$9,0*
20,1,$1+$1,$8,$9,$2,$3,0*%
%AMRotRect*
0 Rectangle, with rotation*
0 The origin of the aperture is its center*
0 $1 length*
0 $2 width*
0 $3 Rotation angle, in degrees counterclockwise*
0 Add horizontal line*
21,1,$1,$2,0,0,$3*%
%AMFreePoly0*
4,1,6,1.000000,0.000000,0.500000,-0.750000,-0.500000,-0.750000,-0.500000,0.750000,0.500000,0.750000,1.000000,0.000000,1.000000,0.000000,$1*%
%AMFreePoly1*
4,1,6,0.500000,-0.750000,-0.650000,-0.750000,-0.150000,0.000000,-0.650000,0.750000,0.500000,0.750000,0.500000,-0.750000,0.500000,-0.750000,$1*%
G04 Aperture macros list end*
G04 #@! TA.AperFunction,SMDPad,CuDef*
%ADD10RoundRect,0.250000X0.325000X0.450000X-0.325000X0.450000X-0.325000X-0.450000X0.325000X-0.450000X0*%
G04 #@! TD*
G04 #@! TA.AperFunction,SMDPad,CuDef*
%ADD11RoundRect,0.250000X0.450000X-0.325000X0.450000X0.325000X-0.450000X0.325000X-0.450000X-0.325000X0*%
G04 #@! TD*
G04 #@! TA.AperFunction,SMDPad,CuDef*
%ADD12FreePoly0,0.000000*%
G04 #@! TD*
G04 #@! TA.AperFunction,SMDPad,CuDef*
%ADD13FreePoly1,0.000000*%
G04 #@! TD*
G04 #@! TA.AperFunction,SMDPad,CuDef*
%ADD14FreePoly0,180.000000*%
G04 #@! TD*
G04 #@! TA.AperFunction,SMDPad,CuDef*
%ADD15FreePoly1,180.000000*%
G04 #@! TD*
G04 #@! TA.AperFunction,ComponentPad*
%ADD16R,1.700000X1.700000*%
G04 #@! TD*
G04 #@! TA.AperFunction,ComponentPad*
%ADD17O,1.700000X1.700000*%
G04 #@! TD*
G04 #@! TA.AperFunction,SMDPad,CuDef*
%ADD18RoundRect,0.250000X-0.325000X-0.450000X0.325000X-0.450000X0.325000X0.450000X-0.325000X0.450000X0*%
G04 #@! TD*
G04 #@! TA.AperFunction,ComponentPad*
%ADD19RoundRect,0.250000X-0.600000X-0.600000X0.600000X-0.600000X0.600000X0.600000X-0.600000X0.600000X0*%
G04 #@! TD*
G04 #@! TA.AperFunction,ComponentPad*
%ADD20C,1.700000*%
G04 #@! TD*
G04 #@! TA.AperFunction,SMDPad,CuDef*
%ADD21RotRect,0.700000X2.925000X315.000000*%
G04 #@! TD*
G04 #@! TA.AperFunction,SMDPad,CuDef*
%ADD22RotRect,2.925000X0.700000X315.000000*%
G04 #@! TD*
G04 #@! TA.AperFunction,ViaPad*
%ADD23C,0.800000*%
G04 #@! TD*
G04 #@! TA.AperFunction,Conductor*
%ADD24C,0.250000*%
G04 #@! TD*
G04 #@! TA.AperFunction,Conductor*
%ADD25C,0.140000*%
G04 #@! TD*
G04 APERTURE END LIST*
D10*
X31768333Y9440000D03*
X29718333Y9440000D03*
D11*
X32790000Y12817500D03*
X32790000Y14867500D03*
D12*
X26215000Y9440000D03*
D13*
X27665000Y9440000D03*
D14*
X39365000Y9440000D03*
D15*
X37915000Y9440000D03*
D16*
X12020000Y70220000D03*
D17*
X14560000Y70220000D03*
X12020000Y67680000D03*
X14560000Y67680000D03*
X12020000Y65140000D03*
X14560000Y65140000D03*
D18*
X33811666Y9440000D03*
X35861666Y9440000D03*
D19*
X51227500Y90040000D03*
D20*
X53767500Y90040000D03*
X51227500Y87500000D03*
X53767500Y87500000D03*
X51227500Y84960000D03*
X53767500Y84960000D03*
X51227500Y82420000D03*
X53767500Y82420000D03*
X51227500Y79880000D03*
X53767500Y79880000D03*
X51227500Y77340000D03*
X53767500Y77340000D03*
X51227500Y74800000D03*
X53767500Y74800000D03*
X51227500Y72260000D03*
X53767500Y72260000D03*
X51227500Y69720000D03*
X53767500Y69720000D03*
X51227500Y67180000D03*
X53767500Y67180000D03*
D21*
X38703180Y85493180D03*
X37805155Y86391206D03*
X36907129Y87289232D03*
X36009104Y88187257D03*
X35111078Y89085283D03*
X34213052Y89983309D03*
D22*
X31366948Y89983309D03*
X30468922Y89085283D03*
X29570896Y88187257D03*
X28672871Y87289232D03*
X27774845Y86391206D03*
X26876820Y85493180D03*
X25978794Y84595155D03*
X25080768Y83697129D03*
X24182743Y82799104D03*
X23284717Y81901078D03*
X22386691Y81003052D03*
D21*
X22386691Y78156948D03*
X23284717Y77258922D03*
X24182743Y76360896D03*
X25080768Y75462871D03*
X25978794Y74564845D03*
X26876820Y73666820D03*
X27774845Y72768794D03*
X28672871Y71870768D03*
X29570896Y70972743D03*
X30468922Y70074717D03*
X31366948Y69176691D03*
D22*
X34213052Y69176691D03*
X35111078Y70074717D03*
X36009104Y70972743D03*
X36907129Y71870768D03*
X37805155Y72768794D03*
X38703180Y73666820D03*
X39601206Y74564845D03*
X40499232Y75462871D03*
X41397257Y76360896D03*
X42295283Y77258922D03*
X43193309Y78156948D03*
D21*
X43193309Y81003052D03*
X42295283Y81901078D03*
X41397257Y82799104D03*
X40499232Y83697129D03*
X39601206Y84595155D03*
D16*
X41790000Y63335000D03*
D17*
X41790000Y65875000D03*
X39140000Y59790000D03*
X39140000Y57250000D03*
X39140000Y54710000D03*
X39140000Y52170000D03*
X39140000Y49630000D03*
X39140000Y47090000D03*
X39140000Y44550000D03*
X39140000Y42010000D03*
X39140000Y39470000D03*
X39140000Y36930000D03*
X39140000Y34390000D03*
X39140000Y31850000D03*
X39140000Y29310000D03*
X39140000Y26770000D03*
X39140000Y24230000D03*
X39140000Y21690000D03*
X39140000Y19150000D03*
X39140000Y16610000D03*
X39140000Y14070000D03*
X39140000Y11530000D03*
X26440000Y11530000D03*
X26440000Y14070000D03*
X26440000Y16610000D03*
X26440000Y19150000D03*
X26440000Y21690000D03*
X26440000Y24230000D03*
X26440000Y26770000D03*
X26440000Y29310000D03*
X26440000Y31850000D03*
X26440000Y34390000D03*
X26440000Y36930000D03*
X26440000Y39470000D03*
X26440000Y42010000D03*
X26440000Y44550000D03*
X26440000Y47090000D03*
X26440000Y49630000D03*
X26440000Y52170000D03*
D16*
X26440000Y54710000D03*
D17*
X26440000Y57250000D03*
X26440000Y59790000D03*
D23*
X27510000Y76040000D03*
X39770000Y81220000D03*
X33560000Y71630000D03*
X30280000Y85690000D03*
X55150000Y83630000D03*
X32430000Y71250000D03*
X32800000Y68940000D03*
X38100000Y76090000D03*
X28320000Y75100000D03*
X25740000Y81230000D03*
X35320000Y85710000D03*
X40730000Y78820000D03*
X35390000Y73420000D03*
X27450000Y83100000D03*
X31770000Y10760000D03*
X33810000Y10720000D03*
X32790000Y11700000D03*
D24*
X28680768Y87289232D02*
X30280000Y85690000D01*
X35111078Y70078922D02*
X33560000Y71630000D01*
X28672871Y87289232D02*
X28680768Y87289232D01*
X35111078Y70074717D02*
X35111078Y70078922D01*
X26034845Y74564845D02*
X27510000Y76040000D01*
X41397257Y82799104D02*
X41349104Y82799104D01*
X41349104Y82799104D02*
X39770000Y81220000D01*
X25978794Y74564845D02*
X26034845Y74564845D01*
X26886820Y73666820D02*
X28320000Y75100000D01*
X35320000Y85710000D02*
X35320000Y77850000D01*
X53767500Y90982500D02*
X51410000Y93340000D01*
X55150000Y88657500D02*
X55150000Y83630000D01*
X16900000Y85450000D02*
X16900000Y68400000D01*
X25740000Y79640000D02*
X28650000Y76730000D01*
X28650000Y75430000D02*
X28320000Y75100000D01*
X26876820Y73666820D02*
X26886820Y73666820D01*
X32430000Y71250000D02*
X31040000Y72640000D01*
X36899232Y87289232D02*
X35320000Y85710000D01*
X13260000Y66890000D02*
X13260000Y68920000D01*
X53767500Y90040000D02*
X53767500Y90982500D01*
X34530000Y77740000D02*
X31040000Y74250000D01*
X24182743Y82799104D02*
X24182743Y82787257D01*
X38100000Y76090000D02*
X36450000Y77740000D01*
X39601206Y74564845D02*
X39601206Y74588794D01*
X35320000Y77850000D02*
X35430000Y77740000D01*
X24182743Y82787257D02*
X25740000Y81230000D01*
X31040000Y72640000D02*
X31040000Y74250000D01*
X24790000Y93340000D02*
X16900000Y85450000D01*
X39601206Y74588794D02*
X38100000Y76090000D01*
X28650000Y76730000D02*
X28650000Y75430000D01*
X31040000Y74250000D02*
X29170000Y74250000D01*
X16900000Y68400000D02*
X14810000Y66310000D01*
X29170000Y74250000D02*
X28320000Y75100000D01*
X14810000Y66310000D02*
X13840000Y66310000D01*
X53767500Y90040000D02*
X55150000Y88657500D01*
X25740000Y81230000D02*
X25740000Y79640000D01*
X32800000Y68940000D02*
X32800000Y14877500D01*
X13260000Y68920000D02*
X14560000Y70220000D01*
X13840000Y66310000D02*
X13260000Y66890000D01*
X36907129Y87289232D02*
X36899232Y87289232D01*
X36450000Y77740000D02*
X35430000Y77740000D01*
X32800000Y14877500D02*
X32790000Y14867500D01*
X51410000Y93340000D02*
X24790000Y93340000D01*
X35430000Y77740000D02*
X34530000Y77740000D01*
D25*
X42295283Y76934717D02*
X43080000Y76150000D01*
X49010000Y77017500D02*
X49010000Y83600000D01*
X43080000Y73302487D02*
X35280000Y65502487D01*
X51980000Y83700000D02*
X52530000Y84250000D01*
X42295283Y77258922D02*
X40734205Y78820000D01*
X52530000Y90950000D02*
X50550000Y92930000D01*
X50550000Y92930000D02*
X25280000Y92930000D01*
X40734205Y78820000D02*
X40730000Y78820000D01*
X43080000Y76150000D02*
X43080000Y73302487D01*
X25280000Y92930000D02*
X17550000Y85200000D01*
X42295283Y77258922D02*
X42295283Y76934717D01*
X49110000Y83700000D02*
X51980000Y83700000D01*
X51227500Y74800000D02*
X49010000Y77017500D01*
X35280000Y65502487D02*
X35280000Y33170000D01*
X17550000Y85200000D02*
X17550000Y68130000D01*
X52530000Y84250000D02*
X52530000Y90950000D01*
X17550000Y68130000D02*
X14560000Y65140000D01*
X35280000Y33170000D02*
X39140000Y29310000D01*
X49010000Y83600000D02*
X49110000Y83700000D01*
X40040000Y92050000D02*
X47130000Y84960000D01*
X47130000Y84960000D02*
X51227500Y84960000D01*
X27510000Y64332686D02*
X27510000Y55780000D01*
X33433639Y92050000D02*
X40040000Y92050000D01*
X14250000Y62910000D02*
X25200000Y62910000D01*
X27016508Y90770000D02*
X18620000Y82373492D01*
X18620000Y73222686D02*
X27066343Y64776343D01*
X31366948Y89983309D02*
X30580257Y90770000D01*
X27510000Y55780000D02*
X26440000Y54710000D01*
X30580257Y90770000D02*
X27016508Y90770000D01*
X27066343Y64776343D02*
X27510000Y64332686D01*
X25200000Y62910000D02*
X27066343Y64776343D01*
X31366948Y89983309D02*
X33433639Y92050000D01*
X18620000Y82373492D02*
X18620000Y73222686D01*
X12020000Y65140000D02*
X14250000Y62910000D01*
X51227500Y79880000D02*
X52397500Y81050000D01*
X37700000Y70730000D02*
X37700000Y69902387D01*
X33880000Y21870000D02*
X39140000Y16610000D01*
X52397500Y81050000D02*
X55320000Y81050000D01*
X16360000Y85610000D02*
X16360000Y69480000D01*
X36907129Y71902871D02*
X35390000Y73420000D01*
X55920000Y81650000D02*
X55920000Y91850000D01*
X36907129Y71870768D02*
X36907129Y71902871D01*
X36907129Y71870768D02*
X36907129Y71522871D01*
X16360000Y69480000D02*
X14560000Y67680000D01*
X55920000Y91850000D02*
X54010000Y93760000D01*
X37700000Y69902387D02*
X33880000Y66082387D01*
X54010000Y93760000D02*
X24510000Y93760000D01*
X33880000Y66082387D02*
X33880000Y21870000D01*
X55320000Y81050000D02*
X55920000Y81650000D01*
X36907129Y71522871D02*
X37700000Y70730000D01*
X24510000Y93760000D02*
X16360000Y85610000D01*
X28910000Y64912586D02*
X28910000Y44480000D01*
X23606408Y85380000D02*
X20020000Y81793592D01*
X25978794Y84595155D02*
X25978794Y84571206D01*
X25714845Y84595155D02*
X24930000Y85380000D01*
X24930000Y85380000D02*
X23606408Y85380000D01*
X20020000Y73802586D02*
X28910000Y64912586D01*
X25978794Y84571206D02*
X27450000Y83100000D01*
X25978794Y84595155D02*
X25714845Y84595155D01*
X20020000Y81793592D02*
X20020000Y73802586D01*
X28910000Y44480000D02*
X26440000Y42010000D01*
X30154717Y89085283D02*
X29360000Y89880000D01*
X26522488Y89880000D02*
X18900000Y82257512D01*
X30468922Y89085283D02*
X30154717Y89085283D01*
X18900000Y82257512D02*
X18900000Y73338666D01*
X18900000Y73338666D02*
X27790000Y64448666D01*
X27790000Y53520000D02*
X26440000Y52170000D01*
X27790000Y64448666D02*
X27790000Y53520000D01*
X29360000Y89880000D02*
X26522488Y89880000D01*
X19180000Y73454646D02*
X28070000Y64564646D01*
X28070000Y64564646D02*
X28070000Y51260000D01*
X26028468Y88990000D02*
X19180000Y82141532D01*
X29342743Y88187257D02*
X28540000Y88990000D01*
X19180000Y82141532D02*
X19180000Y73454646D01*
X28070000Y51260000D02*
X26440000Y49630000D01*
X29570896Y88187257D02*
X29342743Y88187257D01*
X28540000Y88990000D02*
X26028468Y88990000D01*
X27774845Y86391206D02*
X27468794Y86391206D01*
X19460000Y73570626D02*
X28350000Y64680626D01*
X19460000Y82025552D02*
X19460000Y73570626D01*
X24604448Y87170000D02*
X19460000Y82025552D01*
X28350000Y64680626D02*
X28350000Y49000000D01*
X28350000Y49000000D02*
X26440000Y47090000D01*
X26690000Y87170000D02*
X24604448Y87170000D01*
X27468794Y86391206D02*
X26690000Y87170000D01*
X28630000Y64796606D02*
X28630000Y46740000D01*
X26090000Y86280000D02*
X24110428Y86280000D01*
X24110428Y86280000D02*
X19740000Y81909572D01*
X28630000Y46740000D02*
X26440000Y44550000D01*
X26876820Y85493180D02*
X26090000Y86280000D01*
X19740000Y81909572D02*
X19740000Y73686606D01*
X19740000Y73686606D02*
X28630000Y64796606D01*
X20300000Y81677613D02*
X20300000Y73918566D01*
X24307897Y84470000D02*
X23092388Y84470000D01*
X29190000Y65028566D02*
X29190000Y42220000D01*
X29190000Y42220000D02*
X26440000Y39470000D01*
X20300000Y73918566D02*
X29190000Y65028566D01*
X25080768Y83697129D02*
X24307897Y84470000D01*
X23092388Y84470000D02*
X20300000Y81677613D01*
X23284717Y81901078D02*
X23098922Y81901078D01*
X22310000Y82690000D02*
X21708367Y82690000D01*
X21708367Y82690000D02*
X20580000Y81561633D01*
X20580000Y81561633D02*
X20580000Y74034546D01*
X29470000Y39960000D02*
X26440000Y36930000D01*
X20580000Y74034546D02*
X29470000Y65144546D01*
X23098922Y81901078D02*
X22310000Y82690000D01*
X29470000Y65144546D02*
X29470000Y39960000D01*
X22386691Y81003052D02*
X20860000Y79476360D01*
X29760000Y37710000D02*
X26440000Y34390000D01*
X20860000Y79476360D02*
X20860000Y74150526D01*
X20860000Y74150526D02*
X29760000Y65250526D01*
X29760000Y65250526D02*
X29760000Y37710000D01*
X21590000Y77360257D02*
X21590000Y73816506D01*
X21590000Y73816506D02*
X30040000Y65366506D01*
X30040000Y65366506D02*
X30040000Y35450000D01*
X30040000Y35450000D02*
X26440000Y31850000D01*
X22386691Y78156948D02*
X21590000Y77360257D01*
X23284717Y77258922D02*
X23284717Y76944717D01*
X22480000Y73322486D02*
X30320000Y65482486D01*
X30320000Y33190000D02*
X26440000Y29310000D01*
X23284717Y76944717D02*
X22480000Y76140000D01*
X22480000Y76140000D02*
X22480000Y73322486D01*
X30320000Y65482486D02*
X30320000Y33190000D01*
X30600000Y65598467D02*
X30600000Y30930000D01*
X24182743Y76142743D02*
X23390000Y75350000D01*
X23390000Y72808466D02*
X30600000Y65598467D01*
X24182743Y76360896D02*
X24182743Y76142743D01*
X23390000Y75350000D02*
X23390000Y72808466D01*
X30600000Y30930000D02*
X26440000Y26770000D01*
X30880000Y28670000D02*
X26440000Y24230000D01*
X25080768Y75462871D02*
X24290000Y74672103D01*
X24290000Y72304447D02*
X30880000Y65714447D01*
X24290000Y74672103D02*
X24290000Y72304447D01*
X30880000Y65714447D02*
X30880000Y28670000D01*
X31160000Y65830427D02*
X31160000Y26410000D01*
X27774845Y72544845D02*
X26980000Y71750000D01*
X31160000Y26410000D02*
X26440000Y21690000D01*
X26990000Y70000427D02*
X31160000Y65830427D01*
X26980000Y71750000D02*
X26980000Y71310000D01*
X27774845Y72768794D02*
X27774845Y72544845D01*
X26980000Y71310000D02*
X26990000Y71300000D01*
X26990000Y71300000D02*
X26990000Y70000427D01*
X28672871Y71870768D02*
X27900000Y71097897D01*
X31440000Y24150000D02*
X26440000Y19150000D01*
X31440000Y65946407D02*
X31440000Y24150000D01*
X27900000Y69486407D02*
X31440000Y65946407D01*
X27900000Y71097897D02*
X27900000Y69486407D01*
X31720000Y21890000D02*
X26440000Y16610000D01*
X28750000Y69032387D02*
X31720000Y66062387D01*
X29570896Y70810896D02*
X28750000Y69990000D01*
X31720000Y66062387D02*
X31720000Y21890000D01*
X29570896Y70972743D02*
X29570896Y70810896D01*
X28750000Y69990000D02*
X28750000Y69032387D01*
X34160000Y65966407D02*
X34160000Y24130000D01*
X34160000Y24130000D02*
X39140000Y19150000D01*
X38600000Y71640000D02*
X38600000Y70406407D01*
X38600000Y70406407D02*
X34160000Y65966407D01*
X37805155Y72768794D02*
X37805155Y72434845D01*
X37805155Y72434845D02*
X38600000Y71640000D01*
X38703180Y73316820D02*
X39490000Y72530000D01*
X34440000Y65850427D02*
X34440000Y26390000D01*
X34440000Y26390000D02*
X39140000Y21690000D01*
X38703180Y73666820D02*
X38703180Y73316820D01*
X39490000Y72530000D02*
X39490000Y70900427D01*
X39490000Y70900427D02*
X34440000Y65850427D01*
X41300000Y74350000D02*
X41300000Y72314447D01*
X40499232Y75150768D02*
X41300000Y74350000D01*
X34720000Y65734447D02*
X34720000Y28650000D01*
X40499232Y75462871D02*
X40499232Y75150768D01*
X41300000Y72314447D02*
X34720000Y65734447D01*
X34720000Y28650000D02*
X39140000Y24230000D01*
X42180000Y72798467D02*
X35000000Y65618467D01*
X41397257Y76002743D02*
X42180000Y75220000D01*
X42180000Y75220000D02*
X42180000Y72798467D01*
X41397257Y76360896D02*
X41397257Y76002743D01*
X35000000Y65618467D02*
X35000000Y30910000D01*
X35000000Y30910000D02*
X39140000Y26770000D01*
X43980000Y73806507D02*
X35560000Y65386507D01*
X43980000Y77010000D02*
X43980000Y73806507D01*
X35560000Y65386507D02*
X35560000Y35430000D01*
X43193309Y78156948D02*
X43193309Y77796691D01*
X43193309Y77796691D02*
X43980000Y77010000D01*
X35560000Y35430000D02*
X39140000Y31850000D01*
X35840000Y37690000D02*
X35840000Y65270527D01*
X39140000Y34390000D02*
X35840000Y37690000D01*
X35840000Y65270527D02*
X44690000Y74120526D01*
X44690000Y79506360D02*
X43193309Y81003052D01*
X44690000Y74120526D02*
X44690000Y79506360D01*
X36120000Y65154547D02*
X36120000Y39950000D01*
X36120000Y39950000D02*
X39140000Y36930000D01*
X43034205Y82640000D02*
X43930000Y82640000D01*
X43930000Y82640000D02*
X44970000Y81600000D01*
X44970000Y81600000D02*
X44970000Y74004546D01*
X42295283Y81901078D02*
X43034205Y82640000D01*
X44970000Y74004546D02*
X36120000Y65154547D01*
X45250000Y81715980D02*
X45250000Y73888566D01*
X41610000Y84480000D02*
X42485980Y84480000D01*
X40499232Y83697129D02*
X40827129Y83697129D01*
X36400000Y42210000D02*
X39140000Y39470000D01*
X36400000Y65038567D02*
X36400000Y42210000D01*
X45250000Y73888566D02*
X36400000Y65038567D01*
X42485980Y84480000D02*
X45250000Y81715980D01*
X40827129Y83697129D02*
X41610000Y84480000D01*
X36680000Y64922587D02*
X36680000Y44470000D01*
X45530000Y81831960D02*
X45530000Y73772586D01*
X39865155Y84595155D02*
X40640000Y85370000D01*
X45530000Y73772586D02*
X36680000Y64922587D01*
X41991960Y85370000D02*
X45530000Y81831960D01*
X39601206Y84595155D02*
X39865155Y84595155D01*
X36680000Y44470000D02*
X39140000Y42010000D01*
X40640000Y85370000D02*
X41991960Y85370000D01*
X38703180Y85493180D02*
X39033180Y85493180D01*
X45810000Y73656607D02*
X36960000Y64806607D01*
X39033180Y85493180D02*
X39820000Y86280000D01*
X45810000Y81947940D02*
X45810000Y73656607D01*
X36960000Y64806607D02*
X36960000Y46730000D01*
X39820000Y86280000D02*
X41477940Y86280000D01*
X36960000Y46730000D02*
X39140000Y44550000D01*
X41477940Y86280000D02*
X45810000Y81947940D01*
X37240000Y64690627D02*
X37240000Y48990000D01*
X37805155Y86391206D02*
X38061206Y86391206D01*
X38850000Y87180000D02*
X40973920Y87180000D01*
X40973920Y87180000D02*
X46090000Y82063920D01*
X38061206Y86391206D02*
X38850000Y87180000D01*
X46090000Y73540627D02*
X37240000Y64690627D01*
X46090000Y82063920D02*
X46090000Y73540627D01*
X37240000Y48990000D02*
X39140000Y47090000D01*
X36287257Y88187257D02*
X37070000Y88970000D01*
X36009104Y88187257D02*
X36287257Y88187257D01*
X37070000Y88970000D02*
X39579900Y88970000D01*
X37520000Y51250000D02*
X39140000Y49630000D01*
X37520000Y64574647D02*
X37520000Y51250000D01*
X46370000Y73424647D02*
X37520000Y64574647D01*
X46370000Y82179900D02*
X46370000Y73424647D01*
X39579900Y88970000D02*
X46370000Y82179900D01*
X46650000Y73308667D02*
X37800000Y64458667D01*
X46650000Y82295880D02*
X46650000Y73308667D01*
X35111078Y89085283D02*
X35895795Y89870000D01*
X39075880Y89870000D02*
X46650000Y82295880D01*
X37800000Y64458667D02*
X37800000Y53510000D01*
X35895795Y89870000D02*
X39075880Y89870000D01*
X37800000Y53510000D02*
X39140000Y52170000D01*
X46930000Y82411860D02*
X46930000Y73192687D01*
X38080000Y55770000D02*
X39140000Y54710000D01*
X34213052Y89983309D02*
X34473309Y89983309D01*
X34473309Y89983309D02*
X35270000Y90780000D01*
X46930000Y73192687D02*
X38080000Y64342687D01*
X35270000Y90780000D02*
X38561860Y90780000D01*
X38561860Y90780000D02*
X46930000Y82411860D01*
X38080000Y64342687D02*
X38080000Y55770000D01*
X27665000Y9440000D02*
X29718333Y9440000D01*
X37915000Y9440000D02*
X35861666Y9440000D01*
X26440000Y9665000D02*
X26215000Y9440000D01*
X32280000Y17370000D02*
X32280000Y68263638D01*
X32280000Y68263638D02*
X31366948Y69176691D01*
X26440000Y11530000D02*
X26440000Y9665000D01*
X26440000Y11530000D02*
X32280000Y17370000D01*
X33320000Y68283639D02*
X33320000Y17350000D01*
X33320000Y17350000D02*
X39140000Y11530000D01*
X34213052Y69176691D02*
X33320000Y68283639D01*
X39140000Y9665000D02*
X39365000Y9440000D01*
X39140000Y11530000D02*
X39140000Y9665000D01*
X30468922Y70074717D02*
X29680000Y69285795D01*
X29680000Y69285795D02*
X29680000Y68498367D01*
X32000000Y66178367D02*
X32000000Y19630000D01*
X29680000Y68498367D02*
X32000000Y66178367D01*
X32000000Y19630000D02*
X26440000Y14070000D01*
X33600000Y66198367D02*
X33600000Y19610000D01*
X36800000Y69398367D02*
X33600000Y66198367D01*
X33600000Y19610000D02*
X39140000Y14070000D01*
X36800000Y69830000D02*
X36800000Y69398367D01*
X36009104Y70620896D02*
X36800000Y69830000D01*
X36009104Y70972743D02*
X36009104Y70620896D01*
X31770000Y10760000D02*
X31770000Y9441667D01*
X31770000Y9441667D02*
X31768333Y9440000D01*
X33811666Y9440000D02*
X33811666Y10718334D01*
X33811666Y10718334D02*
X33810000Y10720000D01*
X32790000Y12817500D02*
X32790000Y11700000D01*
G04 #@! TA.AperFunction,Conductor*
G36*
X32834031Y69684718D02*
G01*
X32879094Y69655757D01*
X33467054Y69067797D01*
X33501080Y69005485D01*
X33496015Y68934670D01*
X33467055Y68889607D01*
X33104453Y68527004D01*
X33096349Y68519578D01*
X33067584Y68495441D01*
X33056037Y68475440D01*
X33048811Y68462925D01*
X33042907Y68453657D01*
X33021366Y68422894D01*
X33018513Y68412245D01*
X33017055Y68409119D01*
X33015877Y68405882D01*
X33010366Y68396337D01*
X33008452Y68385482D01*
X33008450Y68385477D01*
X33003843Y68359352D01*
X33001465Y68348625D01*
X32994600Y68323003D01*
X32991748Y68312357D01*
X32992708Y68301382D01*
X32992708Y68301380D01*
X32995021Y68274943D01*
X32995500Y68263962D01*
X32995500Y17369677D01*
X32995021Y17358696D01*
X32993498Y17341281D01*
X32991748Y17321282D01*
X32994600Y17310639D01*
X32994600Y17310636D01*
X33001465Y17285014D01*
X33003843Y17274287D01*
X33008450Y17248162D01*
X33008452Y17248157D01*
X33010366Y17237302D01*
X33015877Y17227757D01*
X33017055Y17224520D01*
X33018513Y17221394D01*
X33021366Y17210745D01*
X33027690Y17201714D01*
X33042905Y17179985D01*
X33048811Y17170714D01*
X33067584Y17138198D01*
X33076025Y17131115D01*
X33076026Y17131114D01*
X33096355Y17114056D01*
X33104458Y17106630D01*
X38098324Y12112764D01*
X38132350Y12050452D01*
X38127285Y11979637D01*
X38120742Y11965013D01*
X38115203Y11954485D01*
X38055007Y11760622D01*
X38031148Y11559036D01*
X38044424Y11356478D01*
X38045845Y11350882D01*
X38045846Y11350877D01*
X38082602Y11206154D01*
X38094392Y11159731D01*
X38096809Y11154488D01*
X38132176Y11077772D01*
X38179377Y10975384D01*
X38182710Y10970668D01*
X38243987Y10883963D01*
X38296533Y10809611D01*
X38300675Y10805576D01*
X38441938Y10667965D01*
X38440696Y10666690D01*
X38476409Y10615000D01*
X38478779Y10544043D01*
X38442410Y10483069D01*
X38378849Y10451436D01*
X38356765Y10449486D01*
X37415000Y10449486D01*
X37315699Y10429734D01*
X37231516Y10373484D01*
X37175266Y10289301D01*
X37155514Y10190000D01*
X37155514Y9890500D01*
X37135512Y9822379D01*
X37081856Y9775886D01*
X37029514Y9764500D01*
X36817166Y9764500D01*
X36749045Y9784502D01*
X36702552Y9838158D01*
X36691166Y9890500D01*
X36691166Y9937756D01*
X36684464Y9999448D01*
X36633737Y10134764D01*
X36628357Y10141943D01*
X36628355Y10141946D01*
X36552451Y10243224D01*
X36547070Y10250404D01*
X36495170Y10289301D01*
X36438612Y10331689D01*
X36438609Y10331691D01*
X36431430Y10337071D01*
X36315910Y10380377D01*
X36303509Y10385026D01*
X36303507Y10385026D01*
X36296114Y10387798D01*
X36288264Y10388651D01*
X36288263Y10388651D01*
X36237819Y10394131D01*
X36237818Y10394131D01*
X36234422Y10394500D01*
X35488910Y10394500D01*
X35485514Y10394131D01*
X35485513Y10394131D01*
X35435069Y10388651D01*
X35435068Y10388651D01*
X35427218Y10387798D01*
X35419825Y10385026D01*
X35419823Y10385026D01*
X35407422Y10380377D01*
X35291902Y10337071D01*
X35284723Y10331691D01*
X35284720Y10331689D01*
X35228162Y10289301D01*
X35176262Y10250404D01*
X35170881Y10243224D01*
X35094977Y10141946D01*
X35094975Y10141943D01*
X35089595Y10134764D01*
X35038868Y9999448D01*
X35032166Y9937756D01*
X35032166Y8942244D01*
X35038868Y8880552D01*
X35089595Y8745236D01*
X35094975Y8738057D01*
X35094977Y8738054D01*
X35160953Y8650023D01*
X35176262Y8629596D01*
X35175606Y8629104D01*
X35206088Y8573283D01*
X35201023Y8502468D01*
X35158476Y8445632D01*
X35091956Y8420821D01*
X35082967Y8420500D01*
X34590365Y8420500D01*
X34522244Y8440502D01*
X34475751Y8494158D01*
X34465647Y8564432D01*
X34494543Y8627702D01*
X34497070Y8629596D01*
X34512379Y8650023D01*
X34578355Y8738054D01*
X34578357Y8738057D01*
X34583737Y8745236D01*
X34634464Y8880552D01*
X34641166Y8942244D01*
X34641166Y9937756D01*
X34634464Y9999448D01*
X34583737Y10134764D01*
X34578357Y10141943D01*
X34578355Y10141946D01*
X34502451Y10243224D01*
X34497070Y10250404D01*
X34445170Y10289301D01*
X34443553Y10290513D01*
X34401038Y10347372D01*
X34396012Y10418191D01*
X34402211Y10438335D01*
X34444006Y10542302D01*
X34444008Y10542309D01*
X34446842Y10549359D01*
X34454378Y10602314D01*
X34468581Y10702109D01*
X34468581Y10702112D01*
X34469162Y10706193D01*
X34469307Y10720000D01*
X34466203Y10745655D01*
X34451188Y10869727D01*
X34450276Y10877267D01*
X34394280Y11025454D01*
X34381242Y11044424D01*
X34308855Y11149749D01*
X34308854Y11149751D01*
X34304553Y11156008D01*
X34186275Y11261389D01*
X34178889Y11265300D01*
X34096767Y11308781D01*
X34046274Y11335516D01*
X33892633Y11374108D01*
X33885034Y11374148D01*
X33885033Y11374148D01*
X33819181Y11374493D01*
X33734221Y11374938D01*
X33726841Y11373166D01*
X33726839Y11373166D01*
X33587567Y11339730D01*
X33587563Y11339729D01*
X33580184Y11337957D01*
X33575231Y11335400D01*
X33505268Y11330464D01*
X33442989Y11364550D01*
X33409024Y11426895D01*
X33415263Y11500556D01*
X33424007Y11522306D01*
X33424008Y11522308D01*
X33426842Y11529359D01*
X33449162Y11686193D01*
X33449307Y11700000D01*
X33430276Y11857267D01*
X33418965Y11887201D01*
X33413597Y11957993D01*
X33447354Y12020450D01*
X33476322Y12042258D01*
X33476358Y12042278D01*
X33484764Y12045429D01*
X33600404Y12132096D01*
X33615713Y12152523D01*
X33681689Y12240554D01*
X33681691Y12240557D01*
X33687071Y12247736D01*
X33720704Y12337454D01*
X33735026Y12375657D01*
X33735026Y12375659D01*
X33737798Y12383052D01*
X33744500Y12444744D01*
X33744500Y13190256D01*
X33737798Y13251948D01*
X33733282Y13263996D01*
X33690221Y13378860D01*
X33687071Y13387264D01*
X33681691Y13394443D01*
X33681689Y13394446D01*
X33605785Y13495724D01*
X33600404Y13502904D01*
X33484764Y13589571D01*
X33476355Y13592723D01*
X33469126Y13596681D01*
X33418979Y13646938D01*
X33403964Y13716329D01*
X33428848Y13782822D01*
X33489757Y13826726D01*
X33556784Y13849088D01*
X33569962Y13855261D01*
X33707807Y13940563D01*
X33719208Y13949599D01*
X33833739Y14064329D01*
X33842751Y14075740D01*
X33927816Y14213743D01*
X33933963Y14226924D01*
X33985138Y14381210D01*
X33988005Y14394586D01*
X33997672Y14488938D01*
X33998000Y14495354D01*
X33998000Y14595385D01*
X33993525Y14610624D01*
X33992135Y14611829D01*
X33984452Y14613500D01*
X31600116Y14613500D01*
X31584877Y14609025D01*
X31583672Y14607635D01*
X31582001Y14599952D01*
X31582001Y14495405D01*
X31582338Y14488886D01*
X31592257Y14393294D01*
X31595149Y14379900D01*
X31646588Y14225716D01*
X31652761Y14212538D01*
X31738063Y14074693D01*
X31747099Y14063292D01*
X31861829Y13948761D01*
X31873240Y13939749D01*
X32011243Y13854684D01*
X32024426Y13848536D01*
X32090010Y13826783D01*
X32148370Y13786353D01*
X32175607Y13720788D01*
X32163074Y13650907D01*
X32110853Y13596670D01*
X32103643Y13592723D01*
X32095236Y13589571D01*
X31979596Y13502904D01*
X31974215Y13495724D01*
X31898311Y13394446D01*
X31898309Y13394443D01*
X31892929Y13387264D01*
X31889779Y13378860D01*
X31846719Y13263996D01*
X31842202Y13251948D01*
X31835500Y13190256D01*
X31835500Y12444744D01*
X31842202Y12383052D01*
X31844974Y12375659D01*
X31844974Y12375657D01*
X31859296Y12337454D01*
X31892929Y12247736D01*
X31898309Y12240557D01*
X31898311Y12240554D01*
X31964287Y12152523D01*
X31979596Y12132096D01*
X32095236Y12045429D01*
X32103322Y12042398D01*
X32153347Y11992264D01*
X32168363Y11922874D01*
X32160087Y11886230D01*
X32154167Y11871046D01*
X32154166Y11871042D01*
X32151406Y11863963D01*
X32150414Y11856430D01*
X32150414Y11856429D01*
X32137046Y11754885D01*
X32130729Y11706904D01*
X32148113Y11549447D01*
X32150723Y11542315D01*
X32150725Y11542306D01*
X32150783Y11542148D01*
X32150791Y11542025D01*
X32152458Y11534918D01*
X32151273Y11534640D01*
X32155406Y11471302D01*
X32120992Y11409204D01*
X32058468Y11375569D01*
X32001759Y11376650D01*
X31872157Y11409204D01*
X31852633Y11414108D01*
X31845034Y11414148D01*
X31845033Y11414148D01*
X31779181Y11414493D01*
X31694221Y11414938D01*
X31686841Y11413166D01*
X31686839Y11413166D01*
X31547563Y11379729D01*
X31547560Y11379728D01*
X31540184Y11377957D01*
X31399414Y11305300D01*
X31280039Y11201162D01*
X31188950Y11071556D01*
X31173416Y11031712D01*
X31134421Y10931695D01*
X31131406Y10923963D01*
X31130414Y10916430D01*
X31130414Y10916429D01*
X31116973Y10814331D01*
X31110729Y10766904D01*
X31128113Y10609447D01*
X31130723Y10602316D01*
X31130723Y10602314D01*
X31174360Y10483069D01*
X31182553Y10460681D01*
X31185373Y10456485D01*
X31198275Y10387771D01*
X31171572Y10321987D01*
X31148475Y10299528D01*
X31082929Y10250404D01*
X31077548Y10243224D01*
X31001644Y10141946D01*
X31001642Y10141943D01*
X30996262Y10134764D01*
X30945535Y9999448D01*
X30938833Y9937756D01*
X30938833Y8942244D01*
X30945535Y8880552D01*
X30996262Y8745236D01*
X31001642Y8738057D01*
X31001644Y8738054D01*
X31067620Y8650023D01*
X31082929Y8629596D01*
X31082273Y8629104D01*
X31112755Y8573283D01*
X31107690Y8502468D01*
X31065143Y8445632D01*
X30998623Y8420821D01*
X30989634Y8420500D01*
X30497032Y8420500D01*
X30428911Y8440502D01*
X30382418Y8494158D01*
X30372314Y8564432D01*
X30401210Y8627702D01*
X30403737Y8629596D01*
X30419046Y8650023D01*
X30485022Y8738054D01*
X30485024Y8738057D01*
X30490404Y8745236D01*
X30541131Y8880552D01*
X30547833Y8942244D01*
X30547833Y9937756D01*
X30541131Y9999448D01*
X30490404Y10134764D01*
X30485024Y10141943D01*
X30485022Y10141946D01*
X30409118Y10243224D01*
X30403737Y10250404D01*
X30351837Y10289301D01*
X30295279Y10331689D01*
X30295276Y10331691D01*
X30288097Y10337071D01*
X30172577Y10380377D01*
X30160176Y10385026D01*
X30160174Y10385026D01*
X30152781Y10387798D01*
X30144931Y10388651D01*
X30144930Y10388651D01*
X30094486Y10394131D01*
X30094485Y10394131D01*
X30091089Y10394500D01*
X29345577Y10394500D01*
X29342181Y10394131D01*
X29342180Y10394131D01*
X29291736Y10388651D01*
X29291735Y10388651D01*
X29283885Y10387798D01*
X29276492Y10385026D01*
X29276490Y10385026D01*
X29264089Y10380377D01*
X29148569Y10337071D01*
X29141390Y10331691D01*
X29141387Y10331689D01*
X29084829Y10289301D01*
X29032929Y10250404D01*
X29027548Y10243224D01*
X28951644Y10141946D01*
X28951642Y10141943D01*
X28946262Y10134764D01*
X28895535Y9999448D01*
X28888833Y9937756D01*
X28888833Y9890500D01*
X28868831Y9822379D01*
X28815175Y9775886D01*
X28762833Y9764500D01*
X28550486Y9764500D01*
X28482365Y9784502D01*
X28435872Y9838158D01*
X28424486Y9890500D01*
X28424486Y10190000D01*
X28404734Y10289301D01*
X28348484Y10373484D01*
X28264301Y10429734D01*
X28165000Y10449486D01*
X27216788Y10449486D01*
X27148667Y10469488D01*
X27102174Y10523144D01*
X27092070Y10593418D01*
X27121564Y10657998D01*
X27136218Y10672360D01*
X27198438Y10724108D01*
X27224345Y10745655D01*
X27281463Y10814331D01*
X27350453Y10897282D01*
X27350455Y10897285D01*
X27354147Y10901724D01*
X27423439Y11025454D01*
X27450510Y11073792D01*
X27450511Y11073794D01*
X27453334Y11078835D01*
X27455190Y11084302D01*
X27455192Y11084307D01*
X27516728Y11265586D01*
X27516729Y11265591D01*
X27518584Y11271055D01*
X27519412Y11276764D01*
X27519413Y11276769D01*
X27539326Y11414108D01*
X27547712Y11471947D01*
X27549232Y11530000D01*
X27533671Y11699354D01*
X27531187Y11726387D01*
X27531186Y11726390D01*
X27530658Y11732141D01*
X27529090Y11737701D01*
X27477125Y11921954D01*
X27477124Y11921956D01*
X27475557Y11927513D01*
X27456328Y11966506D01*
X27444140Y12036449D01*
X27471700Y12101878D01*
X27480240Y12111328D01*
X29959365Y14590452D01*
X30508528Y15139615D01*
X31582000Y15139615D01*
X31586475Y15124376D01*
X31587865Y15123171D01*
X31595548Y15121500D01*
X32517885Y15121500D01*
X32533124Y15125975D01*
X32534329Y15127365D01*
X32536000Y15135048D01*
X32536000Y15139615D01*
X33044000Y15139615D01*
X33048475Y15124376D01*
X33049865Y15123171D01*
X33057548Y15121500D01*
X33979884Y15121500D01*
X33995123Y15125975D01*
X33996328Y15127365D01*
X33997999Y15135048D01*
X33997999Y15239595D01*
X33997662Y15246114D01*
X33987743Y15341706D01*
X33984851Y15355100D01*
X33933412Y15509284D01*
X33927239Y15522462D01*
X33841937Y15660307D01*
X33832901Y15671708D01*
X33718171Y15786239D01*
X33706760Y15795251D01*
X33568757Y15880316D01*
X33555576Y15886463D01*
X33401290Y15937638D01*
X33387914Y15940505D01*
X33293562Y15950172D01*
X33287145Y15950500D01*
X33062115Y15950500D01*
X33046876Y15946025D01*
X33045671Y15944635D01*
X33044000Y15936952D01*
X33044000Y15139615D01*
X32536000Y15139615D01*
X32536000Y15932384D01*
X32531525Y15947623D01*
X32530135Y15948828D01*
X32522452Y15950499D01*
X32292905Y15950499D01*
X32286386Y15950162D01*
X32190794Y15940243D01*
X32177400Y15937351D01*
X32023216Y15885912D01*
X32010038Y15879739D01*
X31872193Y15794437D01*
X31860792Y15785401D01*
X31746261Y15670671D01*
X31737249Y15659260D01*
X31652184Y15521257D01*
X31646037Y15508076D01*
X31594862Y15353790D01*
X31591995Y15340414D01*
X31582328Y15246062D01*
X31582000Y15239645D01*
X31582000Y15139615D01*
X30508528Y15139615D01*
X32495548Y17126635D01*
X32503651Y17134061D01*
X32508581Y17138198D01*
X32532416Y17158198D01*
X32551197Y17190727D01*
X32557085Y17199970D01*
X32578634Y17230745D01*
X32581487Y17241394D01*
X32582940Y17244510D01*
X32584120Y17247752D01*
X32589634Y17257302D01*
X32596155Y17294284D01*
X32598534Y17305015D01*
X32602893Y17321282D01*
X32608252Y17341281D01*
X32605430Y17373545D01*
X32604979Y17378695D01*
X32604500Y17389676D01*
X32604500Y68243964D01*
X32604979Y68254946D01*
X32607292Y68281380D01*
X32607292Y68281382D01*
X32608252Y68292356D01*
X32601756Y68316602D01*
X32598535Y68328624D01*
X32596157Y68339351D01*
X32591550Y68365476D01*
X32591548Y68365481D01*
X32589634Y68376336D01*
X32584123Y68385881D01*
X32582945Y68389118D01*
X32581487Y68392244D01*
X32578634Y68402893D01*
X32557093Y68433656D01*
X32551189Y68442924D01*
X32544994Y68453654D01*
X32532416Y68475440D01*
X32503651Y68499577D01*
X32495548Y68507003D01*
X32112944Y68889607D01*
X32078918Y68951919D01*
X32083983Y69022734D01*
X32112944Y69067797D01*
X32700904Y69655757D01*
X32763216Y69689783D01*
X32834031Y69684718D01*
G37*
G04 #@! TD.AperFunction*
G04 #@! TA.AperFunction,Conductor*
G36*
X57101621Y95329498D02*
G01*
X57148114Y95275842D01*
X57159500Y95223500D01*
X57159500Y61994500D01*
X57139498Y61926379D01*
X57085842Y61879886D01*
X57033500Y61868500D01*
X43042750Y61868500D01*
X42974629Y61888502D01*
X42928136Y61942158D01*
X42918032Y62012432D01*
X42947526Y62077012D01*
X42967185Y62095326D01*
X42995723Y62116714D01*
X43008285Y62129276D01*
X43084786Y62231351D01*
X43093324Y62246946D01*
X43138478Y62367394D01*
X43142105Y62382649D01*
X43147631Y62433514D01*
X43148000Y62440328D01*
X43148000Y63062885D01*
X43143525Y63078124D01*
X43142135Y63079329D01*
X43134452Y63081000D01*
X40450116Y63081000D01*
X40434877Y63076525D01*
X40433672Y63075135D01*
X40432001Y63067452D01*
X40432001Y62440331D01*
X40432371Y62433510D01*
X40437895Y62382648D01*
X40441521Y62367396D01*
X40486676Y62246946D01*
X40495214Y62231351D01*
X40571715Y62129276D01*
X40584277Y62116714D01*
X40612815Y62095326D01*
X40655330Y62038467D01*
X40660356Y61967648D01*
X40626296Y61905355D01*
X40563965Y61871365D01*
X40537250Y61868500D01*
X40462374Y61868500D01*
X40450817Y61869065D01*
X40439832Y61872246D01*
X40402006Y61868970D01*
X40391134Y61868500D01*
X40382052Y61868500D01*
X40376351Y61867438D01*
X40376349Y61867438D01*
X40375479Y61867276D01*
X40363280Y61865616D01*
X40339895Y61863591D01*
X40339894Y61863591D01*
X40328304Y61862587D01*
X40317855Y61857480D01*
X40314567Y61856568D01*
X40311383Y61855339D01*
X40299947Y61853209D01*
X40280316Y61841108D01*
X40270048Y61834779D01*
X40259265Y61828840D01*
X40227731Y61813425D01*
X40219822Y61804899D01*
X40217084Y61802866D01*
X40214554Y61800572D01*
X40204652Y61794468D01*
X40197613Y61785212D01*
X40197608Y61785207D01*
X40183393Y61766513D01*
X40175474Y61757092D01*
X40151599Y61731354D01*
X40147290Y61720553D01*
X40145471Y61717676D01*
X40143934Y61714619D01*
X40136892Y61705359D01*
X40133656Y61694183D01*
X40127126Y61671633D01*
X40123129Y61659992D01*
X40110117Y61627378D01*
X40109500Y61621085D01*
X40109500Y61618003D01*
X40109350Y61614933D01*
X40109234Y61614939D01*
X40108935Y61608817D01*
X40105754Y61597832D01*
X40106758Y61586241D01*
X40109030Y61560006D01*
X40109500Y61549134D01*
X40109500Y61014920D01*
X40089498Y60946799D01*
X40035842Y60900306D01*
X39965568Y60890202D01*
X39905411Y60916036D01*
X39898144Y60921775D01*
X39889552Y60927483D01*
X39703117Y61030401D01*
X39693705Y61034631D01*
X39492959Y61105720D01*
X39482988Y61108354D01*
X39411837Y61121028D01*
X39398540Y61119568D01*
X39394000Y61105011D01*
X39394000Y59662000D01*
X39373998Y59593879D01*
X39320342Y59547386D01*
X39268000Y59536000D01*
X39012000Y59536000D01*
X38943879Y59556002D01*
X38897386Y59609658D01*
X38886000Y59662000D01*
X38886000Y61106898D01*
X38882082Y61120242D01*
X38867806Y61122229D01*
X38829324Y61116340D01*
X38819288Y61113949D01*
X38616868Y61047788D01*
X38607370Y61043796D01*
X38588682Y61034067D01*
X38519022Y61020354D01*
X38453007Y61046478D01*
X38411595Y61104146D01*
X38404500Y61145830D01*
X38404500Y64156085D01*
X38424502Y64224206D01*
X38441405Y64245180D01*
X40525875Y66329650D01*
X40588187Y66363676D01*
X40659002Y66358611D01*
X40715838Y66316064D01*
X40740649Y66249544D01*
X40735303Y66203191D01*
X40705007Y66105622D01*
X40681148Y65904036D01*
X40694424Y65701478D01*
X40695845Y65695882D01*
X40695846Y65695877D01*
X40734751Y65542693D01*
X40744392Y65504731D01*
X40746809Y65499488D01*
X40784010Y65418792D01*
X40829377Y65320384D01*
X40946533Y65154611D01*
X41091938Y65012965D01*
X41096742Y65009755D01*
X41225436Y64923764D01*
X41270964Y64869287D01*
X41279812Y64798844D01*
X41249170Y64734800D01*
X41188768Y64697488D01*
X41155434Y64692999D01*
X40895331Y64692999D01*
X40888510Y64692629D01*
X40837648Y64687105D01*
X40822396Y64683479D01*
X40701946Y64638324D01*
X40686351Y64629786D01*
X40584276Y64553285D01*
X40571715Y64540724D01*
X40495214Y64438649D01*
X40486676Y64423054D01*
X40441522Y64302606D01*
X40437895Y64287351D01*
X40432369Y64236486D01*
X40432000Y64229672D01*
X40432000Y63607115D01*
X40436475Y63591876D01*
X40437865Y63590671D01*
X40445548Y63589000D01*
X43129884Y63589000D01*
X43145123Y63593475D01*
X43146328Y63594865D01*
X43147999Y63602548D01*
X43147999Y64229669D01*
X43147629Y64236490D01*
X43142105Y64287352D01*
X43138479Y64302604D01*
X43093324Y64423054D01*
X43084786Y64438649D01*
X43008285Y64540724D01*
X42995724Y64553285D01*
X42893649Y64629786D01*
X42878054Y64638324D01*
X42757606Y64683478D01*
X42742351Y64687105D01*
X42691486Y64692631D01*
X42684672Y64693000D01*
X42422846Y64693000D01*
X42354725Y64713002D01*
X42308232Y64766658D01*
X42298128Y64836932D01*
X42327622Y64901512D01*
X42361275Y64928931D01*
X42418276Y64960853D01*
X42425040Y64966478D01*
X42569913Y65086969D01*
X42574345Y65090655D01*
X42598172Y65119304D01*
X42700453Y65242282D01*
X42700455Y65242285D01*
X42704147Y65246724D01*
X42803334Y65423835D01*
X42805190Y65429302D01*
X42805192Y65429307D01*
X42866728Y65610586D01*
X42866729Y65610591D01*
X42868584Y65616055D01*
X42869412Y65621764D01*
X42869413Y65621769D01*
X42897179Y65813273D01*
X42897712Y65816947D01*
X42899232Y65875000D01*
X42880658Y66077141D01*
X42879090Y66082701D01*
X42827125Y66266954D01*
X42827124Y66266956D01*
X42825557Y66272513D01*
X42804081Y66316064D01*
X42738331Y66449391D01*
X42735776Y66454572D01*
X42614320Y66617221D01*
X42465258Y66755013D01*
X42460375Y66758094D01*
X42460371Y66758097D01*
X42298464Y66860252D01*
X42293581Y66863333D01*
X42105039Y66938554D01*
X42099379Y66939680D01*
X42099375Y66939681D01*
X41911613Y66977029D01*
X41911610Y66977029D01*
X41905946Y66978156D01*
X41900171Y66978232D01*
X41900167Y66978232D01*
X41798793Y66979559D01*
X41702971Y66980813D01*
X41697274Y66979834D01*
X41697273Y66979834D01*
X41607052Y66964331D01*
X41502910Y66946436D01*
X41470844Y66934606D01*
X41400011Y66929794D01*
X41337821Y66964041D01*
X41304018Y67026474D01*
X41309335Y67097271D01*
X41338138Y67141913D01*
X41405261Y67209036D01*
X50118648Y67209036D01*
X50131924Y67006478D01*
X50133345Y67000882D01*
X50133346Y67000877D01*
X50179801Y66817965D01*
X50181892Y66809731D01*
X50184309Y66804488D01*
X50221510Y66723792D01*
X50266877Y66625384D01*
X50270210Y66620668D01*
X50370238Y66479131D01*
X50384033Y66459611D01*
X50529438Y66317965D01*
X50698220Y66205188D01*
X50703523Y66202910D01*
X50703526Y66202908D01*
X50847212Y66141176D01*
X50884728Y66125058D01*
X50957744Y66108536D01*
X51077079Y66081533D01*
X51077084Y66081532D01*
X51082716Y66080258D01*
X51088487Y66080031D01*
X51088489Y66080031D01*
X51148256Y66077683D01*
X51285553Y66072288D01*
X51385999Y66086852D01*
X51480731Y66100587D01*
X51480736Y66100588D01*
X51486445Y66101416D01*
X51491909Y66103271D01*
X51491914Y66103272D01*
X51673193Y66164808D01*
X51673198Y66164810D01*
X51678665Y66166666D01*
X51701861Y66179656D01*
X51755034Y66209435D01*
X51855776Y66265853D01*
X51918434Y66317965D01*
X52007413Y66391969D01*
X52011845Y66395655D01*
X52141647Y66551724D01*
X52240834Y66728835D01*
X52242690Y66734302D01*
X52242692Y66734307D01*
X52304228Y66915586D01*
X52304229Y66915591D01*
X52306084Y66921055D01*
X52306912Y66926764D01*
X52306913Y66926769D01*
X52334679Y67118273D01*
X52335212Y67121947D01*
X52336732Y67180000D01*
X52334064Y67209036D01*
X52658648Y67209036D01*
X52671924Y67006478D01*
X52673345Y67000882D01*
X52673346Y67000877D01*
X52719801Y66817965D01*
X52721892Y66809731D01*
X52724309Y66804488D01*
X52761510Y66723792D01*
X52806877Y66625384D01*
X52810210Y66620668D01*
X52910238Y66479131D01*
X52924033Y66459611D01*
X53069438Y66317965D01*
X53238220Y66205188D01*
X53243523Y66202910D01*
X53243526Y66202908D01*
X53387212Y66141176D01*
X53424728Y66125058D01*
X53497744Y66108536D01*
X53617079Y66081533D01*
X53617084Y66081532D01*
X53622716Y66080258D01*
X53628487Y66080031D01*
X53628489Y66080031D01*
X53688256Y66077683D01*
X53825553Y66072288D01*
X53925999Y66086852D01*
X54020731Y66100587D01*
X54020736Y66100588D01*
X54026445Y66101416D01*
X54031909Y66103271D01*
X54031914Y66103272D01*
X54213193Y66164808D01*
X54213198Y66164810D01*
X54218665Y66166666D01*
X54241861Y66179656D01*
X54295034Y66209435D01*
X54395776Y66265853D01*
X54458434Y66317965D01*
X54547413Y66391969D01*
X54551845Y66395655D01*
X54681647Y66551724D01*
X54780834Y66728835D01*
X54782690Y66734302D01*
X54782692Y66734307D01*
X54844228Y66915586D01*
X54844229Y66915591D01*
X54846084Y66921055D01*
X54846912Y66926764D01*
X54846913Y66926769D01*
X54874679Y67118273D01*
X54875212Y67121947D01*
X54876732Y67180000D01*
X54865293Y67304488D01*
X54858687Y67376387D01*
X54858686Y67376390D01*
X54858158Y67382141D01*
X54856590Y67387701D01*
X54804625Y67571954D01*
X54804624Y67571956D01*
X54803057Y67577513D01*
X54792478Y67598967D01*
X54715831Y67754391D01*
X54713276Y67759572D01*
X54591820Y67922221D01*
X54442758Y68060013D01*
X54437875Y68063094D01*
X54437871Y68063097D01*
X54275964Y68165252D01*
X54271081Y68168333D01*
X54082539Y68243554D01*
X54076879Y68244680D01*
X54076875Y68244681D01*
X53889113Y68282029D01*
X53889110Y68282029D01*
X53883446Y68283156D01*
X53877671Y68283232D01*
X53877667Y68283232D01*
X53776293Y68284559D01*
X53680471Y68285813D01*
X53674774Y68284834D01*
X53674773Y68284834D01*
X53497607Y68254391D01*
X53480410Y68251436D01*
X53289963Y68181176D01*
X53115510Y68077388D01*
X53111170Y68073582D01*
X53111166Y68073579D01*
X53016714Y67990746D01*
X52962892Y67943545D01*
X52837220Y67784131D01*
X52834531Y67779020D01*
X52834529Y67779017D01*
X52821573Y67754391D01*
X52742703Y67604485D01*
X52734328Y67577513D01*
X52685747Y67421055D01*
X52682507Y67410622D01*
X52658648Y67209036D01*
X52334064Y67209036D01*
X52325293Y67304488D01*
X52318687Y67376387D01*
X52318686Y67376390D01*
X52318158Y67382141D01*
X52316590Y67387701D01*
X52264625Y67571954D01*
X52264624Y67571956D01*
X52263057Y67577513D01*
X52252478Y67598967D01*
X52175831Y67754391D01*
X52173276Y67759572D01*
X52051820Y67922221D01*
X51902758Y68060013D01*
X51897875Y68063094D01*
X51897871Y68063097D01*
X51735964Y68165252D01*
X51731081Y68168333D01*
X51542539Y68243554D01*
X51536879Y68244680D01*
X51536875Y68244681D01*
X51349113Y68282029D01*
X51349110Y68282029D01*
X51343446Y68283156D01*
X51337671Y68283232D01*
X51337667Y68283232D01*
X51236293Y68284559D01*
X51140471Y68285813D01*
X51134774Y68284834D01*
X51134773Y68284834D01*
X50957607Y68254391D01*
X50940410Y68251436D01*
X50749963Y68181176D01*
X50575510Y68077388D01*
X50571170Y68073582D01*
X50571166Y68073579D01*
X50476714Y67990746D01*
X50422892Y67943545D01*
X50297220Y67784131D01*
X50294531Y67779020D01*
X50294529Y67779017D01*
X50281573Y67754391D01*
X50202703Y67604485D01*
X50194328Y67577513D01*
X50145747Y67421055D01*
X50142507Y67410622D01*
X50118648Y67209036D01*
X41405261Y67209036D01*
X43945261Y69749036D01*
X50118648Y69749036D01*
X50131924Y69546478D01*
X50133345Y69540882D01*
X50133346Y69540877D01*
X50166255Y69411301D01*
X50181892Y69349731D01*
X50184309Y69344488D01*
X50219479Y69268198D01*
X50266877Y69165384D01*
X50270210Y69160668D01*
X50379882Y69005485D01*
X50384033Y68999611D01*
X50529438Y68857965D01*
X50698220Y68745188D01*
X50703523Y68742910D01*
X50703526Y68742908D01*
X50847212Y68681176D01*
X50884728Y68665058D01*
X50914431Y68658337D01*
X51077079Y68621533D01*
X51077084Y68621532D01*
X51082716Y68620258D01*
X51088487Y68620031D01*
X51088489Y68620031D01*
X51148256Y68617683D01*
X51285553Y68612288D01*
X51385999Y68626852D01*
X51480731Y68640587D01*
X51480736Y68640588D01*
X51486445Y68641416D01*
X51491909Y68643271D01*
X51491914Y68643272D01*
X51673193Y68704808D01*
X51673198Y68704810D01*
X51678665Y68706666D01*
X51855776Y68805853D01*
X51918434Y68857965D01*
X52007413Y68931969D01*
X52011845Y68935655D01*
X52141647Y69091724D01*
X52222802Y69236636D01*
X52238010Y69263792D01*
X52238011Y69263794D01*
X52240834Y69268835D01*
X52242690Y69274302D01*
X52242692Y69274307D01*
X52304228Y69455586D01*
X52304229Y69455591D01*
X52306084Y69461055D01*
X52306912Y69466764D01*
X52306913Y69466769D01*
X52334679Y69658273D01*
X52335212Y69661947D01*
X52336732Y69720000D01*
X52334064Y69749036D01*
X52658648Y69749036D01*
X52671924Y69546478D01*
X52673345Y69540882D01*
X52673346Y69540877D01*
X52706255Y69411301D01*
X52721892Y69349731D01*
X52724309Y69344488D01*
X52759479Y69268198D01*
X52806877Y69165384D01*
X52810210Y69160668D01*
X52919882Y69005485D01*
X52924033Y68999611D01*
X53069438Y68857965D01*
X53238220Y68745188D01*
X53243523Y68742910D01*
X53243526Y68742908D01*
X53387212Y68681176D01*
X53424728Y68665058D01*
X53454431Y68658337D01*
X53617079Y68621533D01*
X53617084Y68621532D01*
X53622716Y68620258D01*
X53628487Y68620031D01*
X53628489Y68620031D01*
X53688256Y68617683D01*
X53825553Y68612288D01*
X53925999Y68626852D01*
X54020731Y68640587D01*
X54020736Y68640588D01*
X54026445Y68641416D01*
X54031909Y68643271D01*
X54031914Y68643272D01*
X54213193Y68704808D01*
X54213198Y68704810D01*
X54218665Y68706666D01*
X54395776Y68805853D01*
X54458434Y68857965D01*
X54547413Y68931969D01*
X54551845Y68935655D01*
X54681647Y69091724D01*
X54762802Y69236636D01*
X54778010Y69263792D01*
X54778011Y69263794D01*
X54780834Y69268835D01*
X54782690Y69274302D01*
X54782692Y69274307D01*
X54844228Y69455586D01*
X54844229Y69455591D01*
X54846084Y69461055D01*
X54846912Y69466764D01*
X54846913Y69466769D01*
X54874679Y69658273D01*
X54875212Y69661947D01*
X54876732Y69720000D01*
X54862596Y69873839D01*
X54858687Y69916387D01*
X54858686Y69916390D01*
X54858158Y69922141D01*
X54856590Y69927701D01*
X54804625Y70111954D01*
X54804624Y70111956D01*
X54803057Y70117513D01*
X54792478Y70138967D01*
X54715831Y70294391D01*
X54713276Y70299572D01*
X54591820Y70462221D01*
X54442758Y70600013D01*
X54437875Y70603094D01*
X54437871Y70603097D01*
X54275964Y70705252D01*
X54271081Y70708333D01*
X54082539Y70783554D01*
X54076879Y70784680D01*
X54076875Y70784681D01*
X53889113Y70822029D01*
X53889110Y70822029D01*
X53883446Y70823156D01*
X53877671Y70823232D01*
X53877667Y70823232D01*
X53776293Y70824559D01*
X53680471Y70825813D01*
X53674774Y70824834D01*
X53674773Y70824834D01*
X53494400Y70793840D01*
X53480410Y70791436D01*
X53289963Y70721176D01*
X53285002Y70718224D01*
X53285001Y70718224D01*
X53277000Y70713464D01*
X53115510Y70617388D01*
X53111170Y70613582D01*
X53111166Y70613579D01*
X52967680Y70487744D01*
X52962892Y70483545D01*
X52837220Y70324131D01*
X52834531Y70319020D01*
X52834529Y70319017D01*
X52793997Y70241978D01*
X52742703Y70144485D01*
X52682507Y69950622D01*
X52658648Y69749036D01*
X52334064Y69749036D01*
X52322596Y69873839D01*
X52318687Y69916387D01*
X52318686Y69916390D01*
X52318158Y69922141D01*
X52316590Y69927701D01*
X52264625Y70111954D01*
X52264624Y70111956D01*
X52263057Y70117513D01*
X52252478Y70138967D01*
X52175831Y70294391D01*
X52173276Y70299572D01*
X52051820Y70462221D01*
X51902758Y70600013D01*
X51897875Y70603094D01*
X51897871Y70603097D01*
X51735964Y70705252D01*
X51731081Y70708333D01*
X51542539Y70783554D01*
X51536879Y70784680D01*
X51536875Y70784681D01*
X51349113Y70822029D01*
X51349110Y70822029D01*
X51343446Y70823156D01*
X51337671Y70823232D01*
X51337667Y70823232D01*
X51236293Y70824559D01*
X51140471Y70825813D01*
X51134774Y70824834D01*
X51134773Y70824834D01*
X50954400Y70793840D01*
X50940410Y70791436D01*
X50749963Y70721176D01*
X50745002Y70718224D01*
X50745001Y70718224D01*
X50737000Y70713464D01*
X50575510Y70617388D01*
X50571170Y70613582D01*
X50571166Y70613579D01*
X50427680Y70487744D01*
X50422892Y70483545D01*
X50297220Y70324131D01*
X50294531Y70319020D01*
X50294529Y70319017D01*
X50253997Y70241978D01*
X50202703Y70144485D01*
X50142507Y69950622D01*
X50118648Y69749036D01*
X43945261Y69749036D01*
X46485261Y72289036D01*
X50118648Y72289036D01*
X50131924Y72086478D01*
X50133345Y72080882D01*
X50133346Y72080877D01*
X50158423Y71982138D01*
X50181892Y71889731D01*
X50184309Y71884488D01*
X50221510Y71803792D01*
X50266877Y71705384D01*
X50270210Y71700668D01*
X50376935Y71549655D01*
X50384033Y71539611D01*
X50529438Y71397965D01*
X50534242Y71394755D01*
X50590023Y71357483D01*
X50698220Y71285188D01*
X50703523Y71282910D01*
X50703526Y71282908D01*
X50866801Y71212760D01*
X50884728Y71205058D01*
X50957744Y71188536D01*
X51077079Y71161533D01*
X51077084Y71161532D01*
X51082716Y71160258D01*
X51088487Y71160031D01*
X51088489Y71160031D01*
X51148256Y71157683D01*
X51285553Y71152288D01*
X51385999Y71166852D01*
X51480731Y71180587D01*
X51480736Y71180588D01*
X51486445Y71181416D01*
X51491909Y71183271D01*
X51491914Y71183272D01*
X51673193Y71244808D01*
X51673198Y71244810D01*
X51678665Y71246666D01*
X51690840Y71253484D01*
X51795604Y71312155D01*
X51855776Y71345853D01*
X51869527Y71357289D01*
X52007413Y71471969D01*
X52011845Y71475655D01*
X52068963Y71544331D01*
X52137953Y71627282D01*
X52137955Y71627285D01*
X52141647Y71631724D01*
X52201956Y71739413D01*
X52238010Y71803792D01*
X52238011Y71803794D01*
X52240834Y71808835D01*
X52242690Y71814302D01*
X52242692Y71814307D01*
X52304228Y71995586D01*
X52304229Y71995591D01*
X52306084Y72001055D01*
X52306912Y72006764D01*
X52306913Y72006769D01*
X52326864Y72144371D01*
X52335212Y72201947D01*
X52336732Y72260000D01*
X52334064Y72289036D01*
X52658648Y72289036D01*
X52671924Y72086478D01*
X52673345Y72080882D01*
X52673346Y72080877D01*
X52698423Y71982138D01*
X52721892Y71889731D01*
X52724309Y71884488D01*
X52761510Y71803792D01*
X52806877Y71705384D01*
X52810210Y71700668D01*
X52916935Y71549655D01*
X52924033Y71539611D01*
X53069438Y71397965D01*
X53074242Y71394755D01*
X53130023Y71357483D01*
X53238220Y71285188D01*
X53243523Y71282910D01*
X53243526Y71282908D01*
X53406801Y71212760D01*
X53424728Y71205058D01*
X53497744Y71188536D01*
X53617079Y71161533D01*
X53617084Y71161532D01*
X53622716Y71160258D01*
X53628487Y71160031D01*
X53628489Y71160031D01*
X53688256Y71157683D01*
X53825553Y71152288D01*
X53925999Y71166852D01*
X54020731Y71180587D01*
X54020736Y71180588D01*
X54026445Y71181416D01*
X54031909Y71183271D01*
X54031914Y71183272D01*
X54213193Y71244808D01*
X54213198Y71244810D01*
X54218665Y71246666D01*
X54230840Y71253484D01*
X54335604Y71312155D01*
X54395776Y71345853D01*
X54409527Y71357289D01*
X54547413Y71471969D01*
X54551845Y71475655D01*
X54608963Y71544331D01*
X54677953Y71627282D01*
X54677955Y71627285D01*
X54681647Y71631724D01*
X54741956Y71739413D01*
X54778010Y71803792D01*
X54778011Y71803794D01*
X54780834Y71808835D01*
X54782690Y71814302D01*
X54782692Y71814307D01*
X54844228Y71995586D01*
X54844229Y71995591D01*
X54846084Y72001055D01*
X54846912Y72006764D01*
X54846913Y72006769D01*
X54866864Y72144371D01*
X54875212Y72201947D01*
X54876732Y72260000D01*
X54863688Y72401954D01*
X54858687Y72456387D01*
X54858686Y72456390D01*
X54858158Y72462141D01*
X54856590Y72467701D01*
X54804625Y72651954D01*
X54804624Y72651956D01*
X54803057Y72657513D01*
X54795266Y72673313D01*
X54715831Y72834391D01*
X54713276Y72839572D01*
X54591820Y73002221D01*
X54442758Y73140013D01*
X54437875Y73143094D01*
X54437871Y73143097D01*
X54275964Y73245252D01*
X54271081Y73248333D01*
X54082539Y73323554D01*
X54076879Y73324680D01*
X54076875Y73324681D01*
X53889113Y73362029D01*
X53889110Y73362029D01*
X53883446Y73363156D01*
X53877671Y73363232D01*
X53877667Y73363232D01*
X53776293Y73364559D01*
X53680471Y73365813D01*
X53674774Y73364834D01*
X53674773Y73364834D01*
X53486107Y73332415D01*
X53480410Y73331436D01*
X53289963Y73261176D01*
X53115510Y73157388D01*
X53111170Y73153582D01*
X53111166Y73153579D01*
X52985623Y73043480D01*
X52962892Y73023545D01*
X52959317Y73019010D01*
X52959316Y73019009D01*
X52954895Y73013401D01*
X52837220Y72864131D01*
X52834531Y72859020D01*
X52834529Y72859017D01*
X52806144Y72805066D01*
X52742703Y72684485D01*
X52682507Y72490622D01*
X52658648Y72289036D01*
X52334064Y72289036D01*
X52323688Y72401954D01*
X52318687Y72456387D01*
X52318686Y72456390D01*
X52318158Y72462141D01*
X52316590Y72467701D01*
X52264625Y72651954D01*
X52264624Y72651956D01*
X52263057Y72657513D01*
X52255266Y72673313D01*
X52175831Y72834391D01*
X52173276Y72839572D01*
X52051820Y73002221D01*
X51902758Y73140013D01*
X51897875Y73143094D01*
X51897871Y73143097D01*
X51735964Y73245252D01*
X51731081Y73248333D01*
X51542539Y73323554D01*
X51536879Y73324680D01*
X51536875Y73324681D01*
X51349113Y73362029D01*
X51349110Y73362029D01*
X51343446Y73363156D01*
X51337671Y73363232D01*
X51337667Y73363232D01*
X51236293Y73364559D01*
X51140471Y73365813D01*
X51134774Y73364834D01*
X51134773Y73364834D01*
X50946107Y73332415D01*
X50940410Y73331436D01*
X50749963Y73261176D01*
X50575510Y73157388D01*
X50571170Y73153582D01*
X50571166Y73153579D01*
X50445623Y73043480D01*
X50422892Y73023545D01*
X50419317Y73019010D01*
X50419316Y73019009D01*
X50414895Y73013401D01*
X50297220Y72864131D01*
X50294531Y72859020D01*
X50294529Y72859017D01*
X50266144Y72805066D01*
X50202703Y72684485D01*
X50142507Y72490622D01*
X50118648Y72289036D01*
X46485261Y72289036D01*
X47145542Y72949317D01*
X47153645Y72956743D01*
X47173974Y72973801D01*
X47173975Y72973802D01*
X47182416Y72980885D01*
X47201189Y73013401D01*
X47207095Y73022672D01*
X47207706Y73023545D01*
X47228634Y73053432D01*
X47231487Y73064081D01*
X47232945Y73067207D01*
X47234123Y73070444D01*
X47239634Y73079989D01*
X47241548Y73090844D01*
X47241550Y73090849D01*
X47246157Y73116974D01*
X47248535Y73127701D01*
X47255400Y73153323D01*
X47255400Y73153326D01*
X47258252Y73163969D01*
X47254979Y73201383D01*
X47254500Y73212364D01*
X47254500Y82392183D01*
X47254979Y82403164D01*
X47257292Y82429601D01*
X47257292Y82429603D01*
X47258252Y82440578D01*
X47255400Y82451224D01*
X47248535Y82476846D01*
X47246157Y82487573D01*
X47241550Y82513698D01*
X47241548Y82513703D01*
X47239634Y82524558D01*
X47234123Y82534103D01*
X47232945Y82537340D01*
X47231487Y82540466D01*
X47228634Y82551115D01*
X47207093Y82581878D01*
X47201189Y82591146D01*
X47187926Y82614118D01*
X47182416Y82623662D01*
X47153645Y82647804D01*
X47145542Y82655230D01*
X38805230Y90995542D01*
X38797804Y91003645D01*
X38780746Y91023974D01*
X38780745Y91023975D01*
X38773662Y91032416D01*
X38741146Y91051189D01*
X38731875Y91057095D01*
X38724429Y91062309D01*
X38701115Y91078634D01*
X38690466Y91081487D01*
X38687340Y91082945D01*
X38684103Y91084123D01*
X38674558Y91089634D01*
X38663703Y91091548D01*
X38663698Y91091550D01*
X38637573Y91096157D01*
X38626846Y91098535D01*
X38601224Y91105400D01*
X38601221Y91105400D01*
X38590578Y91108252D01*
X38579603Y91107292D01*
X38579601Y91107292D01*
X38553164Y91104979D01*
X38542183Y91104500D01*
X35572256Y91104500D01*
X35504135Y91124502D01*
X35483161Y91141404D01*
X35166317Y91458247D01*
X35161942Y91462622D01*
X35132432Y91482341D01*
X35113882Y91494736D01*
X35068355Y91549214D01*
X35059509Y91619657D01*
X35090151Y91683701D01*
X35150554Y91721011D01*
X35183886Y91725500D01*
X39853398Y91725500D01*
X39921519Y91705498D01*
X39942493Y91688595D01*
X43419586Y88211501D01*
X46886635Y84744452D01*
X46894061Y84736349D01*
X46918198Y84707584D01*
X46950727Y84688803D01*
X46959970Y84682915D01*
X46990745Y84661366D01*
X47001394Y84658513D01*
X47004510Y84657060D01*
X47007752Y84655880D01*
X47017302Y84650366D01*
X47045518Y84645391D01*
X47054284Y84643845D01*
X47065009Y84641467D01*
X47101281Y84631748D01*
X47112257Y84632708D01*
X47112260Y84632708D01*
X47138695Y84635021D01*
X47149676Y84635500D01*
X50080134Y84635500D01*
X50148255Y84615498D01*
X50194560Y84562251D01*
X50221510Y84503792D01*
X50266877Y84405384D01*
X50384033Y84239611D01*
X50388175Y84235576D01*
X50390945Y84232333D01*
X50419978Y84167544D01*
X50409374Y84097344D01*
X50362501Y84044020D01*
X50295136Y84024500D01*
X49129665Y84024500D01*
X49118685Y84024979D01*
X49108224Y84025894D01*
X49081281Y84028251D01*
X49070636Y84025399D01*
X49070629Y84025398D01*
X49045012Y84018533D01*
X49034279Y84016154D01*
X48997302Y84009634D01*
X48987753Y84004121D01*
X48984511Y84002941D01*
X48981393Y84001487D01*
X48970745Y83998634D01*
X48939970Y83977085D01*
X48930727Y83971197D01*
X48898198Y83952416D01*
X48891112Y83943971D01*
X48874065Y83923656D01*
X48866640Y83915553D01*
X48794452Y83843364D01*
X48786348Y83835938D01*
X48757584Y83811802D01*
X48752074Y83802258D01*
X48738811Y83779286D01*
X48732907Y83770018D01*
X48711366Y83739255D01*
X48708513Y83728606D01*
X48707055Y83725480D01*
X48705877Y83722243D01*
X48700366Y83712698D01*
X48698452Y83701843D01*
X48698450Y83701838D01*
X48693843Y83675713D01*
X48691465Y83664986D01*
X48685143Y83641389D01*
X48681748Y83628718D01*
X48682708Y83617743D01*
X48682708Y83617741D01*
X48685021Y83591304D01*
X48685500Y83580323D01*
X48685500Y77037177D01*
X48685021Y77026196D01*
X48683863Y77012953D01*
X48681748Y76988782D01*
X48684600Y76978139D01*
X48684600Y76978136D01*
X48691465Y76952514D01*
X48693843Y76941787D01*
X48698450Y76915662D01*
X48698452Y76915657D01*
X48700366Y76904802D01*
X48705877Y76895257D01*
X48707055Y76892020D01*
X48708513Y76888894D01*
X48711366Y76878245D01*
X48717690Y76869214D01*
X48732905Y76847485D01*
X48738811Y76838214D01*
X48757584Y76805698D01*
X48766025Y76798615D01*
X48766026Y76798614D01*
X48786355Y76781556D01*
X48794458Y76774130D01*
X50185824Y75382764D01*
X50219850Y75320452D01*
X50214785Y75249637D01*
X50208242Y75235013D01*
X50202703Y75224485D01*
X50142507Y75030622D01*
X50118648Y74829036D01*
X50131924Y74626478D01*
X50133345Y74620882D01*
X50133346Y74620877D01*
X50172770Y74465647D01*
X50181892Y74429731D01*
X50184309Y74424488D01*
X50221510Y74343792D01*
X50266877Y74245384D01*
X50384033Y74079611D01*
X50388175Y74075576D01*
X50445137Y74020087D01*
X50529438Y73937965D01*
X50698220Y73825188D01*
X50703523Y73822910D01*
X50703526Y73822908D01*
X50792207Y73784808D01*
X50884728Y73745058D01*
X50957744Y73728536D01*
X51077079Y73701533D01*
X51077084Y73701532D01*
X51082716Y73700258D01*
X51088487Y73700031D01*
X51088489Y73700031D01*
X51148256Y73697683D01*
X51285553Y73692288D01*
X51385999Y73706852D01*
X51480731Y73720587D01*
X51480736Y73720588D01*
X51486445Y73721416D01*
X51491909Y73723271D01*
X51491914Y73723272D01*
X51673193Y73784808D01*
X51673198Y73784810D01*
X51678665Y73786666D01*
X51855776Y73885853D01*
X51918434Y73937965D01*
X52007413Y74011969D01*
X52011845Y74015655D01*
X52060460Y74074108D01*
X52137953Y74167282D01*
X52137955Y74167285D01*
X52141647Y74171724D01*
X52218069Y74308185D01*
X52238010Y74343792D01*
X52238011Y74343794D01*
X52240834Y74348835D01*
X52242690Y74354302D01*
X52242692Y74354307D01*
X52304228Y74535586D01*
X52304229Y74535591D01*
X52306084Y74541055D01*
X52306912Y74546764D01*
X52306913Y74546769D01*
X52334679Y74738273D01*
X52335212Y74741947D01*
X52336732Y74800000D01*
X52334064Y74829036D01*
X52658648Y74829036D01*
X52671924Y74626478D01*
X52673345Y74620882D01*
X52673346Y74620877D01*
X52712770Y74465647D01*
X52721892Y74429731D01*
X52724309Y74424488D01*
X52761510Y74343792D01*
X52806877Y74245384D01*
X52924033Y74079611D01*
X52928175Y74075576D01*
X52985137Y74020087D01*
X53069438Y73937965D01*
X53238220Y73825188D01*
X53243523Y73822910D01*
X53243526Y73822908D01*
X53332207Y73784808D01*
X53424728Y73745058D01*
X53497744Y73728536D01*
X53617079Y73701533D01*
X53617084Y73701532D01*
X53622716Y73700258D01*
X53628487Y73700031D01*
X53628489Y73700031D01*
X53688256Y73697683D01*
X53825553Y73692288D01*
X53925999Y73706852D01*
X54020731Y73720587D01*
X54020736Y73720588D01*
X54026445Y73721416D01*
X54031909Y73723271D01*
X54031914Y73723272D01*
X54213193Y73784808D01*
X54213198Y73784810D01*
X54218665Y73786666D01*
X54395776Y73885853D01*
X54458434Y73937965D01*
X54547413Y74011969D01*
X54551845Y74015655D01*
X54600460Y74074108D01*
X54677953Y74167282D01*
X54677955Y74167285D01*
X54681647Y74171724D01*
X54758069Y74308185D01*
X54778010Y74343792D01*
X54778011Y74343794D01*
X54780834Y74348835D01*
X54782690Y74354302D01*
X54782692Y74354307D01*
X54844228Y74535586D01*
X54844229Y74535591D01*
X54846084Y74541055D01*
X54846912Y74546764D01*
X54846913Y74546769D01*
X54874679Y74738273D01*
X54875212Y74741947D01*
X54876732Y74800000D01*
X54858158Y75002141D01*
X54856590Y75007701D01*
X54804625Y75191954D01*
X54804624Y75191956D01*
X54803057Y75197513D01*
X54797917Y75207937D01*
X54715831Y75374391D01*
X54713276Y75379572D01*
X54591820Y75542221D01*
X54506792Y75620820D01*
X54447003Y75676089D01*
X54442758Y75680013D01*
X54437875Y75683094D01*
X54437871Y75683097D01*
X54275964Y75785252D01*
X54271081Y75788333D01*
X54082539Y75863554D01*
X54076879Y75864680D01*
X54076875Y75864681D01*
X53889113Y75902029D01*
X53889110Y75902029D01*
X53883446Y75903156D01*
X53877671Y75903232D01*
X53877667Y75903232D01*
X53776293Y75904559D01*
X53680471Y75905813D01*
X53674774Y75904834D01*
X53674773Y75904834D01*
X53512121Y75876885D01*
X53480410Y75871436D01*
X53289963Y75801176D01*
X53115510Y75697388D01*
X53111170Y75693582D01*
X53111166Y75693579D01*
X53094687Y75679127D01*
X52962892Y75563545D01*
X52837220Y75404131D01*
X52834531Y75399020D01*
X52834529Y75399017D01*
X52809530Y75351501D01*
X52742703Y75224485D01*
X52682507Y75030622D01*
X52658648Y74829036D01*
X52334064Y74829036D01*
X52318158Y75002141D01*
X52316590Y75007701D01*
X52264625Y75191954D01*
X52264624Y75191956D01*
X52263057Y75197513D01*
X52257917Y75207937D01*
X52175831Y75374391D01*
X52173276Y75379572D01*
X52051820Y75542221D01*
X51966792Y75620820D01*
X51907003Y75676089D01*
X51902758Y75680013D01*
X51897875Y75683094D01*
X51897871Y75683097D01*
X51735964Y75785252D01*
X51731081Y75788333D01*
X51542539Y75863554D01*
X51536879Y75864680D01*
X51536875Y75864681D01*
X51349113Y75902029D01*
X51349110Y75902029D01*
X51343446Y75903156D01*
X51337671Y75903232D01*
X51337667Y75903232D01*
X51236293Y75904559D01*
X51140471Y75905813D01*
X51134774Y75904834D01*
X51134773Y75904834D01*
X50972121Y75876885D01*
X50940410Y75871436D01*
X50778351Y75811649D01*
X50707519Y75806837D01*
X50645646Y75840766D01*
X49371405Y77115007D01*
X49337379Y77177319D01*
X49334500Y77204102D01*
X49334500Y77369036D01*
X50118648Y77369036D01*
X50131924Y77166478D01*
X50133345Y77160882D01*
X50133346Y77160877D01*
X50180471Y76975326D01*
X50181892Y76969731D01*
X50184309Y76964488D01*
X50221510Y76883792D01*
X50266877Y76785384D01*
X50289342Y76753597D01*
X50357351Y76657366D01*
X50384033Y76619611D01*
X50388175Y76615576D01*
X50419619Y76584945D01*
X50529438Y76477965D01*
X50698220Y76365188D01*
X50703523Y76362910D01*
X50703526Y76362908D01*
X50792207Y76324808D01*
X50884728Y76285058D01*
X50957744Y76268536D01*
X51077079Y76241533D01*
X51077084Y76241532D01*
X51082716Y76240258D01*
X51088487Y76240031D01*
X51088489Y76240031D01*
X51148256Y76237683D01*
X51285553Y76232288D01*
X51385999Y76246852D01*
X51480731Y76260587D01*
X51480736Y76260588D01*
X51486445Y76261416D01*
X51491909Y76263271D01*
X51491914Y76263272D01*
X51673193Y76324808D01*
X51673198Y76324810D01*
X51678665Y76326666D01*
X51712214Y76345454D01*
X51813292Y76402061D01*
X51855776Y76425853D01*
X51916081Y76476008D01*
X52007413Y76551969D01*
X52011845Y76555655D01*
X52068963Y76624331D01*
X52137953Y76707282D01*
X52137955Y76707285D01*
X52141647Y76711724D01*
X52229846Y76869214D01*
X52238010Y76883792D01*
X52238011Y76883794D01*
X52240834Y76888835D01*
X52242690Y76894302D01*
X52242692Y76894307D01*
X52304228Y77075586D01*
X52304229Y77075591D01*
X52306084Y77081055D01*
X52306912Y77086764D01*
X52306913Y77086769D01*
X52328359Y77234683D01*
X52335212Y77281947D01*
X52336732Y77340000D01*
X52334064Y77369036D01*
X52658648Y77369036D01*
X52671924Y77166478D01*
X52673345Y77160882D01*
X52673346Y77160877D01*
X52720471Y76975326D01*
X52721892Y76969731D01*
X52724309Y76964488D01*
X52761510Y76883792D01*
X52806877Y76785384D01*
X52829342Y76753597D01*
X52897351Y76657366D01*
X52924033Y76619611D01*
X52928175Y76615576D01*
X52959619Y76584945D01*
X53069438Y76477965D01*
X53238220Y76365188D01*
X53243523Y76362910D01*
X53243526Y76362908D01*
X53332207Y76324808D01*
X53424728Y76285058D01*
X53497744Y76268536D01*
X53617079Y76241533D01*
X53617084Y76241532D01*
X53622716Y76240258D01*
X53628487Y76240031D01*
X53628489Y76240031D01*
X53688256Y76237683D01*
X53825553Y76232288D01*
X53925999Y76246852D01*
X54020731Y76260587D01*
X54020736Y76260588D01*
X54026445Y76261416D01*
X54031909Y76263271D01*
X54031914Y76263272D01*
X54213193Y76324808D01*
X54213198Y76324810D01*
X54218665Y76326666D01*
X54252214Y76345454D01*
X54353292Y76402061D01*
X54395776Y76425853D01*
X54456081Y76476008D01*
X54547413Y76551969D01*
X54551845Y76555655D01*
X54608963Y76624331D01*
X54677953Y76707282D01*
X54677955Y76707285D01*
X54681647Y76711724D01*
X54769846Y76869214D01*
X54778010Y76883792D01*
X54778011Y76883794D01*
X54780834Y76888835D01*
X54782690Y76894302D01*
X54782692Y76894307D01*
X54844228Y77075586D01*
X54844229Y77075591D01*
X54846084Y77081055D01*
X54846912Y77086764D01*
X54846913Y77086769D01*
X54868359Y77234683D01*
X54875212Y77281947D01*
X54876732Y77340000D01*
X54858158Y77542141D01*
X54856590Y77547701D01*
X54804625Y77731954D01*
X54804624Y77731956D01*
X54803057Y77737513D01*
X54792478Y77758967D01*
X54715831Y77914391D01*
X54713276Y77919572D01*
X54591820Y78082221D01*
X54442758Y78220013D01*
X54437875Y78223094D01*
X54437871Y78223097D01*
X54275964Y78325252D01*
X54271081Y78328333D01*
X54082539Y78403554D01*
X54076879Y78404680D01*
X54076875Y78404681D01*
X53889113Y78442029D01*
X53889110Y78442029D01*
X53883446Y78443156D01*
X53877671Y78443232D01*
X53877667Y78443232D01*
X53776293Y78444559D01*
X53680471Y78445813D01*
X53674774Y78444834D01*
X53674773Y78444834D01*
X53486107Y78412415D01*
X53480410Y78411436D01*
X53289963Y78341176D01*
X53115510Y78237388D01*
X53111170Y78233582D01*
X53111166Y78233579D01*
X52996147Y78132709D01*
X52962892Y78103545D01*
X52837220Y77944131D01*
X52834531Y77939020D01*
X52834529Y77939017D01*
X52821573Y77914391D01*
X52742703Y77764485D01*
X52682507Y77570622D01*
X52658648Y77369036D01*
X52334064Y77369036D01*
X52318158Y77542141D01*
X52316590Y77547701D01*
X52264625Y77731954D01*
X52264624Y77731956D01*
X52263057Y77737513D01*
X52252478Y77758967D01*
X52175831Y77914391D01*
X52173276Y77919572D01*
X52051820Y78082221D01*
X51902758Y78220013D01*
X51897875Y78223094D01*
X51897871Y78223097D01*
X51735964Y78325252D01*
X51731081Y78328333D01*
X51542539Y78403554D01*
X51536879Y78404680D01*
X51536875Y78404681D01*
X51349113Y78442029D01*
X51349110Y78442029D01*
X51343446Y78443156D01*
X51337671Y78443232D01*
X51337667Y78443232D01*
X51236293Y78444559D01*
X51140471Y78445813D01*
X51134774Y78444834D01*
X51134773Y78444834D01*
X50946107Y78412415D01*
X50940410Y78411436D01*
X50749963Y78341176D01*
X50575510Y78237388D01*
X50571170Y78233582D01*
X50571166Y78233579D01*
X50456147Y78132709D01*
X50422892Y78103545D01*
X50297220Y77944131D01*
X50294531Y77939020D01*
X50294529Y77939017D01*
X50281573Y77914391D01*
X50202703Y77764485D01*
X50142507Y77570622D01*
X50118648Y77369036D01*
X49334500Y77369036D01*
X49334500Y83249500D01*
X49354502Y83317621D01*
X49408158Y83364114D01*
X49460500Y83375500D01*
X50314442Y83375500D01*
X50382563Y83355498D01*
X50429056Y83301842D01*
X50439160Y83231568D01*
X50413392Y83171495D01*
X50297220Y83024131D01*
X50294531Y83019020D01*
X50294529Y83019017D01*
X50251317Y82936885D01*
X50202703Y82844485D01*
X50142507Y82650622D01*
X50118648Y82449036D01*
X50131924Y82246478D01*
X50133345Y82240882D01*
X50133346Y82240877D01*
X50155008Y82155586D01*
X50181892Y82049731D01*
X50184309Y82044488D01*
X50221510Y81963792D01*
X50266877Y81865384D01*
X50270210Y81860668D01*
X50362713Y81729779D01*
X50384033Y81699611D01*
X50388175Y81695576D01*
X50423502Y81661162D01*
X50529438Y81557965D01*
X50534242Y81554755D01*
X50568962Y81531556D01*
X50698220Y81445188D01*
X50703523Y81442910D01*
X50703526Y81442908D01*
X50862751Y81374500D01*
X50884728Y81365058D01*
X50957312Y81348634D01*
X51077079Y81321533D01*
X51077084Y81321532D01*
X51082716Y81320258D01*
X51088487Y81320031D01*
X51088489Y81320031D01*
X51148256Y81317683D01*
X51285553Y81312288D01*
X51403414Y81329377D01*
X51480731Y81340587D01*
X51480736Y81340588D01*
X51486445Y81341416D01*
X51491909Y81343271D01*
X51491914Y81343272D01*
X51673193Y81404808D01*
X51673198Y81404810D01*
X51678665Y81406666D01*
X51692149Y81414217D01*
X51809585Y81479985D01*
X51855776Y81505853D01*
X51878209Y81524510D01*
X52007413Y81631969D01*
X52011845Y81635655D01*
X52115521Y81760311D01*
X52137953Y81787282D01*
X52137955Y81787285D01*
X52141647Y81791724D01*
X52209647Y81913147D01*
X52238010Y81963792D01*
X52238011Y81963794D01*
X52240834Y81968835D01*
X52242690Y81974302D01*
X52242692Y81974307D01*
X52304228Y82155586D01*
X52304229Y82155591D01*
X52306084Y82161055D01*
X52306912Y82166764D01*
X52306913Y82166769D01*
X52334679Y82358273D01*
X52335212Y82361947D01*
X52336732Y82420000D01*
X52323964Y82558958D01*
X52318687Y82616387D01*
X52318686Y82616390D01*
X52318158Y82622141D01*
X52315731Y82630746D01*
X52264625Y82811954D01*
X52264624Y82811956D01*
X52263057Y82817513D01*
X52260183Y82823342D01*
X52175831Y82994391D01*
X52173276Y82999572D01*
X52051820Y83162221D01*
X52036432Y83176445D01*
X51999989Y83237373D01*
X52002270Y83308333D01*
X52042553Y83366795D01*
X52078868Y83387369D01*
X52081843Y83388452D01*
X52092698Y83390366D01*
X52102244Y83395877D01*
X52105477Y83397054D01*
X52108604Y83398512D01*
X52119255Y83401366D01*
X52150018Y83422907D01*
X52159286Y83428811D01*
X52164186Y83431640D01*
X52191802Y83447584D01*
X52215939Y83476349D01*
X52223365Y83484453D01*
X52745554Y84006641D01*
X52753657Y84014066D01*
X52773974Y84031114D01*
X52773975Y84031115D01*
X52782416Y84038198D01*
X52788969Y84049547D01*
X52801191Y84070717D01*
X52807096Y84079986D01*
X52819250Y84097344D01*
X52828633Y84110745D01*
X52829095Y84110422D01*
X52870218Y84157127D01*
X52938494Y84176589D01*
X53006455Y84156048D01*
X53025418Y84140847D01*
X53069438Y84097965D01*
X53238220Y83985188D01*
X53243523Y83982910D01*
X53243526Y83982908D01*
X53381440Y83923656D01*
X53424728Y83905058D01*
X53460954Y83896861D01*
X53617079Y83861533D01*
X53617084Y83861532D01*
X53622716Y83860258D01*
X53628487Y83860031D01*
X53628489Y83860031D01*
X53688256Y83857683D01*
X53825553Y83852288D01*
X53925999Y83866852D01*
X54020731Y83880587D01*
X54020736Y83880588D01*
X54026445Y83881416D01*
X54031909Y83883271D01*
X54031914Y83883272D01*
X54213193Y83944808D01*
X54213198Y83944810D01*
X54218665Y83946666D01*
X54228933Y83952416D01*
X54331102Y84009634D01*
X54395776Y84045853D01*
X54431399Y84075480D01*
X54547413Y84171969D01*
X54551845Y84175655D01*
X54608962Y84244330D01*
X54677953Y84327282D01*
X54677955Y84327285D01*
X54681647Y84331724D01*
X54780834Y84508835D01*
X54782690Y84514302D01*
X54782692Y84514307D01*
X54844228Y84695586D01*
X54844229Y84695591D01*
X54846084Y84701055D01*
X54846912Y84706764D01*
X54846913Y84706769D01*
X54874679Y84898273D01*
X54875212Y84901947D01*
X54876732Y84960000D01*
X54860428Y85137437D01*
X54858687Y85156387D01*
X54858686Y85156390D01*
X54858158Y85162141D01*
X54812091Y85325480D01*
X54804625Y85351954D01*
X54804624Y85351956D01*
X54803057Y85357513D01*
X54798773Y85366202D01*
X54715831Y85534391D01*
X54713276Y85539572D01*
X54707732Y85546997D01*
X54667178Y85601304D01*
X54591820Y85702221D01*
X54507572Y85780099D01*
X54447003Y85836089D01*
X54442758Y85840013D01*
X54437875Y85843094D01*
X54437871Y85843097D01*
X54275964Y85945252D01*
X54271081Y85948333D01*
X54082539Y86023554D01*
X54076879Y86024680D01*
X54076875Y86024681D01*
X53889113Y86062029D01*
X53889110Y86062029D01*
X53883446Y86063156D01*
X53877671Y86063232D01*
X53877667Y86063232D01*
X53776293Y86064559D01*
X53680471Y86065813D01*
X53674774Y86064834D01*
X53674773Y86064834D01*
X53486107Y86032415D01*
X53480410Y86031436D01*
X53289963Y85961176D01*
X53115510Y85857388D01*
X53111167Y85853579D01*
X53111160Y85853574D01*
X53063577Y85811845D01*
X52999173Y85781968D01*
X52928840Y85791654D01*
X52874909Y85837827D01*
X52854500Y85906577D01*
X52854500Y86548702D01*
X52874502Y86616823D01*
X52928158Y86663316D01*
X52998432Y86673420D01*
X53060399Y86645119D01*
X53060813Y86645630D01*
X53062795Y86644025D01*
X53063012Y86643926D01*
X53063716Y86643279D01*
X53065298Y86641998D01*
X53069438Y86637965D01*
X53238220Y86525188D01*
X53243523Y86522910D01*
X53243526Y86522908D01*
X53419421Y86447338D01*
X53424728Y86445058D01*
X53497744Y86428536D01*
X53617079Y86401533D01*
X53617084Y86401532D01*
X53622716Y86400258D01*
X53628487Y86400031D01*
X53628489Y86400031D01*
X53688256Y86397683D01*
X53825553Y86392288D01*
X53925999Y86406852D01*
X54020731Y86420587D01*
X54020736Y86420588D01*
X54026445Y86421416D01*
X54031909Y86423271D01*
X54031914Y86423272D01*
X54213193Y86484808D01*
X54213198Y86484810D01*
X54218665Y86486666D01*
X54247075Y86502576D01*
X54329438Y86548702D01*
X54395776Y86585853D01*
X54401583Y86590682D01*
X54547413Y86711969D01*
X54551845Y86715655D01*
X54681647Y86871724D01*
X54780834Y87048835D01*
X54782690Y87054302D01*
X54782692Y87054307D01*
X54844228Y87235586D01*
X54844229Y87235591D01*
X54846084Y87241055D01*
X54846912Y87246764D01*
X54846913Y87246769D01*
X54864491Y87368004D01*
X54875212Y87441947D01*
X54876732Y87500000D01*
X54858158Y87702141D01*
X54856056Y87709595D01*
X54804625Y87891954D01*
X54804624Y87891956D01*
X54803057Y87897513D01*
X54799031Y87905678D01*
X54715831Y88074391D01*
X54713276Y88079572D01*
X54706939Y88088059D01*
X54631558Y88189005D01*
X54591820Y88242221D01*
X54507572Y88320099D01*
X54447003Y88376089D01*
X54442758Y88380013D01*
X54437875Y88383094D01*
X54437871Y88383097D01*
X54275964Y88485252D01*
X54271081Y88488333D01*
X54199114Y88517045D01*
X54143255Y88560866D01*
X54119955Y88627931D01*
X54136611Y88696946D01*
X54187936Y88746000D01*
X54209598Y88754761D01*
X54259752Y88769808D01*
X54269342Y88773567D01*
X54460598Y88867262D01*
X54469444Y88872535D01*
X54516747Y88906277D01*
X54525148Y88916977D01*
X54518160Y88930130D01*
X53497385Y89950905D01*
X53463359Y90013217D01*
X53465194Y90038868D01*
X54131908Y90038868D01*
X54132039Y90037035D01*
X54136290Y90030420D01*
X54877974Y89288736D01*
X54889984Y89282177D01*
X54901723Y89291145D01*
X54932504Y89333981D01*
X54937815Y89342820D01*
X55032170Y89533733D01*
X55035969Y89543328D01*
X55097876Y89747085D01*
X55100055Y89757166D01*
X55128090Y89970113D01*
X55128609Y89976788D01*
X55130072Y90036636D01*
X55129878Y90043354D01*
X55112281Y90257396D01*
X55110596Y90267576D01*
X55058714Y90474125D01*
X55055394Y90483876D01*
X54970472Y90679186D01*
X54965605Y90688261D01*
X54900563Y90788803D01*
X54889877Y90798005D01*
X54880312Y90793602D01*
X54139522Y90052812D01*
X54131908Y90038868D01*
X53465194Y90038868D01*
X53468424Y90084032D01*
X53497385Y90129095D01*
X54520889Y91152599D01*
X54527910Y91165456D01*
X54521111Y91174787D01*
X54517054Y91177482D01*
X54330617Y91280401D01*
X54321205Y91284631D01*
X54120459Y91355720D01*
X54110489Y91358354D01*
X53900827Y91395699D01*
X53890573Y91396669D01*
X53677616Y91399272D01*
X53667332Y91398552D01*
X53456821Y91366339D01*
X53446793Y91363950D01*
X53244368Y91297788D01*
X53234859Y91293791D01*
X53045963Y91195458D01*
X53037238Y91189964D01*
X52960328Y91132218D01*
X52893843Y91107312D01*
X52824448Y91122304D01*
X52788153Y91151987D01*
X52787927Y91152256D01*
X52782416Y91161802D01*
X52753645Y91185944D01*
X52745542Y91193370D01*
X50793370Y93145542D01*
X50785944Y93153645D01*
X50768886Y93173974D01*
X50768885Y93173975D01*
X50761802Y93182416D01*
X50730685Y93200381D01*
X50681692Y93251762D01*
X50668255Y93321476D01*
X50694642Y93387387D01*
X50752473Y93428570D01*
X50793685Y93435500D01*
X53823398Y93435500D01*
X53891519Y93415498D01*
X53912493Y93398595D01*
X55558595Y91752493D01*
X55592621Y91690181D01*
X55595500Y91663398D01*
X55595500Y81836602D01*
X55575498Y81768481D01*
X55558595Y81747507D01*
X55222493Y81411405D01*
X55160181Y81377379D01*
X55133398Y81374500D01*
X54586387Y81374500D01*
X54518266Y81394502D01*
X54471773Y81448158D01*
X54461669Y81518432D01*
X54491163Y81583012D01*
X54505818Y81597374D01*
X54547408Y81631964D01*
X54547413Y81631969D01*
X54551845Y81635655D01*
X54655521Y81760311D01*
X54677953Y81787282D01*
X54677955Y81787285D01*
X54681647Y81791724D01*
X54749647Y81913147D01*
X54778010Y81963792D01*
X54778011Y81963794D01*
X54780834Y81968835D01*
X54782690Y81974302D01*
X54782692Y81974307D01*
X54844228Y82155586D01*
X54844229Y82155591D01*
X54846084Y82161055D01*
X54846912Y82166764D01*
X54846913Y82166769D01*
X54874679Y82358273D01*
X54875212Y82361947D01*
X54876732Y82420000D01*
X54863964Y82558958D01*
X54858687Y82616387D01*
X54858686Y82616390D01*
X54858158Y82622141D01*
X54855731Y82630746D01*
X54804625Y82811954D01*
X54804624Y82811956D01*
X54803057Y82817513D01*
X54800183Y82823342D01*
X54715831Y82994391D01*
X54713276Y82999572D01*
X54591820Y83162221D01*
X54442758Y83300013D01*
X54437875Y83303094D01*
X54437871Y83303097D01*
X54288070Y83397614D01*
X54271081Y83408333D01*
X54082539Y83483554D01*
X54076879Y83484680D01*
X54076875Y83484681D01*
X53889113Y83522029D01*
X53889110Y83522029D01*
X53883446Y83523156D01*
X53877671Y83523232D01*
X53877667Y83523232D01*
X53776293Y83524559D01*
X53680471Y83525813D01*
X53674774Y83524834D01*
X53674773Y83524834D01*
X53486107Y83492415D01*
X53480410Y83491436D01*
X53289963Y83421176D01*
X53115510Y83317388D01*
X53111170Y83313582D01*
X53111166Y83313579D01*
X53038099Y83249500D01*
X52962892Y83183545D01*
X52837220Y83024131D01*
X52834531Y83019020D01*
X52834529Y83019017D01*
X52791317Y82936885D01*
X52742703Y82844485D01*
X52682507Y82650622D01*
X52658648Y82449036D01*
X52671924Y82246478D01*
X52673345Y82240882D01*
X52673346Y82240877D01*
X52695008Y82155586D01*
X52721892Y82049731D01*
X52724309Y82044488D01*
X52761510Y81963792D01*
X52806877Y81865384D01*
X52810210Y81860668D01*
X52902713Y81729779D01*
X52924033Y81699611D01*
X53035780Y81590752D01*
X53070617Y81528893D01*
X53066480Y81458017D01*
X53024681Y81400629D01*
X52958492Y81374950D01*
X52947858Y81374500D01*
X52417177Y81374500D01*
X52406196Y81374979D01*
X52379759Y81377292D01*
X52379757Y81377292D01*
X52368782Y81378252D01*
X52358139Y81375400D01*
X52358136Y81375400D01*
X52332514Y81368535D01*
X52321787Y81366157D01*
X52295662Y81361550D01*
X52295657Y81361548D01*
X52284802Y81359634D01*
X52275257Y81354123D01*
X52272020Y81352945D01*
X52268894Y81351487D01*
X52258245Y81348634D01*
X52249214Y81342310D01*
X52227485Y81327095D01*
X52218214Y81321189D01*
X52216208Y81320031D01*
X52185698Y81302416D01*
X52178615Y81293975D01*
X52178614Y81293974D01*
X52161556Y81273645D01*
X52154130Y81265542D01*
X51808244Y80919656D01*
X51745932Y80885630D01*
X51672459Y80891721D01*
X51645752Y80902376D01*
X51542539Y80943554D01*
X51536879Y80944680D01*
X51536875Y80944681D01*
X51349113Y80982029D01*
X51349110Y80982029D01*
X51343446Y80983156D01*
X51337671Y80983232D01*
X51337667Y80983232D01*
X51236293Y80984559D01*
X51140471Y80985813D01*
X51134774Y80984834D01*
X51134773Y80984834D01*
X50974734Y80957334D01*
X50940410Y80951436D01*
X50749963Y80881176D01*
X50575510Y80777388D01*
X50571170Y80773582D01*
X50571166Y80773579D01*
X50459649Y80675780D01*
X50422892Y80643545D01*
X50297220Y80484131D01*
X50294531Y80479020D01*
X50294529Y80479017D01*
X50266709Y80426140D01*
X50202703Y80304485D01*
X50142507Y80110622D01*
X50118648Y79909036D01*
X50131924Y79706478D01*
X50133345Y79700882D01*
X50133346Y79700877D01*
X50152863Y79624031D01*
X50181892Y79509731D01*
X50184309Y79504488D01*
X50248639Y79364945D01*
X50266877Y79325384D01*
X50384033Y79159611D01*
X50388175Y79155576D01*
X50419096Y79125454D01*
X50529438Y79017965D01*
X50698220Y78905188D01*
X50703523Y78902910D01*
X50703526Y78902908D01*
X50792207Y78864808D01*
X50884728Y78825058D01*
X50955677Y78809004D01*
X51077079Y78781533D01*
X51077084Y78781532D01*
X51082716Y78780258D01*
X51088487Y78780031D01*
X51088489Y78780031D01*
X51148256Y78777683D01*
X51285553Y78772288D01*
X51385999Y78786852D01*
X51480731Y78800587D01*
X51480736Y78800588D01*
X51486445Y78801416D01*
X51491909Y78803271D01*
X51491914Y78803272D01*
X51673193Y78864808D01*
X51673198Y78864810D01*
X51678665Y78866666D01*
X51855776Y78965853D01*
X51868493Y78976429D01*
X52007413Y79091969D01*
X52011845Y79095655D01*
X52141647Y79251724D01*
X52212843Y79378853D01*
X52238010Y79423792D01*
X52238011Y79423794D01*
X52240834Y79428835D01*
X52242690Y79434302D01*
X52242692Y79434307D01*
X52304228Y79615586D01*
X52304229Y79615591D01*
X52306084Y79621055D01*
X52306912Y79626764D01*
X52306913Y79626769D01*
X52334679Y79818273D01*
X52335212Y79821947D01*
X52336732Y79880000D01*
X52318158Y80082141D01*
X52316590Y80087701D01*
X52264625Y80271954D01*
X52264624Y80271956D01*
X52263057Y80277513D01*
X52243828Y80316506D01*
X52231640Y80386449D01*
X52259200Y80451878D01*
X52267740Y80461328D01*
X52495007Y80688595D01*
X52557319Y80722621D01*
X52584102Y80725500D01*
X52767725Y80725500D01*
X52835846Y80705498D01*
X52882339Y80651842D01*
X52892443Y80581568D01*
X52866674Y80521494D01*
X52840801Y80488675D01*
X52840795Y80488666D01*
X52837220Y80484131D01*
X52834531Y80479020D01*
X52834529Y80479017D01*
X52806709Y80426140D01*
X52742703Y80304485D01*
X52682507Y80110622D01*
X52658648Y79909036D01*
X52671924Y79706478D01*
X52673345Y79700882D01*
X52673346Y79700877D01*
X52692863Y79624031D01*
X52721892Y79509731D01*
X52724309Y79504488D01*
X52788639Y79364945D01*
X52806877Y79325384D01*
X52924033Y79159611D01*
X52928175Y79155576D01*
X52959096Y79125454D01*
X53069438Y79017965D01*
X53238220Y78905188D01*
X53243523Y78902910D01*
X53243526Y78902908D01*
X53332207Y78864808D01*
X53424728Y78825058D01*
X53495677Y78809004D01*
X53617079Y78781533D01*
X53617084Y78781532D01*
X53622716Y78780258D01*
X53628487Y78780031D01*
X53628489Y78780031D01*
X53688256Y78777683D01*
X53825553Y78772288D01*
X53925999Y78786852D01*
X54020731Y78800587D01*
X54020736Y78800588D01*
X54026445Y78801416D01*
X54031909Y78803271D01*
X54031914Y78803272D01*
X54213193Y78864808D01*
X54213198Y78864810D01*
X54218665Y78866666D01*
X54395776Y78965853D01*
X54408493Y78976429D01*
X54547413Y79091969D01*
X54551845Y79095655D01*
X54681647Y79251724D01*
X54752843Y79378853D01*
X54778010Y79423792D01*
X54778011Y79423794D01*
X54780834Y79428835D01*
X54782690Y79434302D01*
X54782692Y79434307D01*
X54844228Y79615586D01*
X54844229Y79615591D01*
X54846084Y79621055D01*
X54846912Y79626764D01*
X54846913Y79626769D01*
X54874679Y79818273D01*
X54875212Y79821947D01*
X54876732Y79880000D01*
X54858158Y80082141D01*
X54856590Y80087701D01*
X54804625Y80271954D01*
X54804624Y80271956D01*
X54803057Y80277513D01*
X54800505Y80282689D01*
X54800503Y80282693D01*
X54715831Y80454391D01*
X54713276Y80459572D01*
X54665082Y80524112D01*
X54640350Y80590660D01*
X54655524Y80660016D01*
X54705786Y80710159D01*
X54766040Y80725500D01*
X55300323Y80725500D01*
X55311304Y80725021D01*
X55337741Y80722708D01*
X55337743Y80722708D01*
X55348718Y80721748D01*
X55359361Y80724600D01*
X55359364Y80724600D01*
X55384986Y80731465D01*
X55395713Y80733843D01*
X55421838Y80738450D01*
X55421843Y80738452D01*
X55432698Y80740366D01*
X55442243Y80745877D01*
X55445480Y80747055D01*
X55448606Y80748513D01*
X55459255Y80751366D01*
X55490018Y80772907D01*
X55499286Y80778811D01*
X55508414Y80784081D01*
X55531802Y80797584D01*
X55555944Y80826355D01*
X55563370Y80834458D01*
X56135542Y81406630D01*
X56143645Y81414056D01*
X56163974Y81431114D01*
X56163975Y81431115D01*
X56172416Y81438198D01*
X56191189Y81470714D01*
X56197095Y81479985D01*
X56212310Y81501713D01*
X56212311Y81501715D01*
X56218634Y81510745D01*
X56221487Y81521394D01*
X56222940Y81524510D01*
X56224120Y81527752D01*
X56229634Y81537302D01*
X56236155Y81574284D01*
X56238534Y81585015D01*
X56240018Y81590554D01*
X56248252Y81621281D01*
X56244979Y81658695D01*
X56244500Y81669676D01*
X56244500Y91830323D01*
X56244979Y91841304D01*
X56247292Y91867741D01*
X56247292Y91867743D01*
X56248252Y91878718D01*
X56245400Y91889364D01*
X56238535Y91914986D01*
X56236157Y91925713D01*
X56231550Y91951838D01*
X56231548Y91951843D01*
X56229634Y91962698D01*
X56224123Y91972243D01*
X56222945Y91975480D01*
X56221487Y91978606D01*
X56218634Y91989255D01*
X56197093Y92020018D01*
X56191189Y92029286D01*
X56177926Y92052258D01*
X56172416Y92061802D01*
X56143645Y92085944D01*
X56135542Y92093370D01*
X54253370Y93975542D01*
X54245944Y93983645D01*
X54228886Y94003974D01*
X54228885Y94003975D01*
X54221802Y94012416D01*
X54189286Y94031189D01*
X54180015Y94037095D01*
X54158286Y94052310D01*
X54149255Y94058634D01*
X54138606Y94061487D01*
X54135480Y94062945D01*
X54132243Y94064123D01*
X54122698Y94069634D01*
X54111843Y94071548D01*
X54111838Y94071550D01*
X54085713Y94076157D01*
X54074986Y94078535D01*
X54049364Y94085400D01*
X54049361Y94085400D01*
X54038718Y94088252D01*
X54027743Y94087292D01*
X54027741Y94087292D01*
X54001304Y94084979D01*
X53990323Y94084500D01*
X24529677Y94084500D01*
X24518696Y94084979D01*
X24492259Y94087292D01*
X24492257Y94087292D01*
X24481282Y94088252D01*
X24470639Y94085400D01*
X24470637Y94085400D01*
X24445011Y94078534D01*
X24434283Y94076156D01*
X24408162Y94071550D01*
X24408157Y94071548D01*
X24397302Y94069634D01*
X24387753Y94064121D01*
X24384514Y94062942D01*
X24381395Y94061487D01*
X24370746Y94058634D01*
X24339969Y94037085D01*
X24330736Y94031203D01*
X24298198Y94012416D01*
X24291115Y94003975D01*
X24291114Y94003974D01*
X24274056Y93983645D01*
X24266630Y93975542D01*
X16144458Y85853370D01*
X16136355Y85845944D01*
X16107584Y85821802D01*
X16100722Y85809917D01*
X16088811Y85789286D01*
X16082907Y85780018D01*
X16061366Y85749255D01*
X16058513Y85738606D01*
X16057055Y85735480D01*
X16055877Y85732243D01*
X16050366Y85722698D01*
X16048452Y85711843D01*
X16048450Y85711838D01*
X16043843Y85685713D01*
X16041465Y85674986D01*
X16034600Y85649364D01*
X16031748Y85638718D01*
X16032708Y85627743D01*
X16032708Y85627741D01*
X16035021Y85601304D01*
X16035500Y85590323D01*
X16035500Y70838182D01*
X16015498Y70770061D01*
X15961842Y70723568D01*
X15891568Y70713464D01*
X15826988Y70742958D01*
X15793950Y70787940D01*
X15762972Y70859186D01*
X15758105Y70868261D01*
X15642426Y71047074D01*
X15636136Y71055243D01*
X15492806Y71212760D01*
X15485273Y71219785D01*
X15318139Y71351778D01*
X15309552Y71357483D01*
X15123117Y71460401D01*
X15113705Y71464631D01*
X14912959Y71535720D01*
X14902988Y71538354D01*
X14831837Y71551028D01*
X14818540Y71549568D01*
X14814000Y71535011D01*
X14814000Y70092000D01*
X14793998Y70023879D01*
X14740342Y69977386D01*
X14688000Y69966000D01*
X14432000Y69966000D01*
X14363879Y69986002D01*
X14317386Y70039658D01*
X14306000Y70092000D01*
X14306000Y71536898D01*
X14302082Y71550242D01*
X14287806Y71552229D01*
X14249324Y71546340D01*
X14239288Y71543949D01*
X14036868Y71477788D01*
X14027359Y71473791D01*
X13838463Y71375458D01*
X13829738Y71369964D01*
X13659433Y71242095D01*
X13651726Y71235252D01*
X13504590Y71081283D01*
X13498104Y71073273D01*
X13378098Y70897351D01*
X13373000Y70888377D01*
X13364787Y70870684D01*
X13317963Y70817317D01*
X13249720Y70797736D01*
X13181724Y70818159D01*
X13135564Y70872101D01*
X13124499Y70923734D01*
X13124499Y71095066D01*
X13109734Y71169301D01*
X13093177Y71194081D01*
X13060377Y71243168D01*
X13053484Y71253484D01*
X12969301Y71309734D01*
X12895067Y71324500D01*
X12020142Y71324500D01*
X11144934Y71324499D01*
X11115758Y71318696D01*
X11082874Y71312156D01*
X11082872Y71312155D01*
X11070699Y71309734D01*
X11060379Y71302839D01*
X11060378Y71302838D01*
X11028118Y71281282D01*
X10986516Y71253484D01*
X10930266Y71169301D01*
X10915500Y71095067D01*
X10915501Y69344934D01*
X10930266Y69270699D01*
X10937161Y69260380D01*
X10937162Y69260378D01*
X10953026Y69236636D01*
X10986516Y69186516D01*
X11070699Y69130266D01*
X11144933Y69115500D01*
X12019858Y69115500D01*
X12895066Y69115501D01*
X12930818Y69122612D01*
X12957126Y69127844D01*
X12957128Y69127845D01*
X12969301Y69130266D01*
X12979621Y69137161D01*
X12979622Y69137162D01*
X13043168Y69179623D01*
X13053484Y69186516D01*
X13109734Y69270699D01*
X13124500Y69344933D01*
X13124500Y69516572D01*
X13144502Y69584693D01*
X13198158Y69631186D01*
X13268432Y69641290D01*
X13333012Y69611796D01*
X13357933Y69582407D01*
X13457694Y69419612D01*
X13463777Y69411301D01*
X13603213Y69250333D01*
X13610580Y69243117D01*
X13774434Y69107084D01*
X13782881Y69101169D01*
X13966756Y68993721D01*
X13976042Y68989271D01*
X14125124Y68932343D01*
X14181627Y68889356D01*
X14205920Y68822645D01*
X14190290Y68753390D01*
X14139699Y68703579D01*
X14123785Y68696421D01*
X14082463Y68681176D01*
X13908010Y68577388D01*
X13903670Y68573582D01*
X13903666Y68573579D01*
X13773761Y68459654D01*
X13755392Y68443545D01*
X13751817Y68439010D01*
X13751816Y68439009D01*
X13745261Y68430694D01*
X13629720Y68284131D01*
X13627031Y68279020D01*
X13627029Y68279017D01*
X13612518Y68251436D01*
X13535203Y68104485D01*
X13475007Y67910622D01*
X13451148Y67709036D01*
X13464424Y67506478D01*
X13465845Y67500882D01*
X13465846Y67500877D01*
X13494590Y67387701D01*
X13514392Y67309731D01*
X13516809Y67304488D01*
X13554010Y67223792D01*
X13599377Y67125384D01*
X13602710Y67120668D01*
X13701603Y66980737D01*
X13716533Y66959611D01*
X13861938Y66817965D01*
X13866742Y66814755D01*
X13934400Y66769547D01*
X14030720Y66705188D01*
X14036023Y66702910D01*
X14036026Y66702908D01*
X14124707Y66664808D01*
X14217228Y66625058D01*
X14290244Y66608536D01*
X14409579Y66581533D01*
X14409584Y66581532D01*
X14415216Y66580258D01*
X14420987Y66580031D01*
X14420989Y66580031D01*
X14480756Y66577683D01*
X14618053Y66572288D01*
X14718499Y66586852D01*
X14813231Y66600587D01*
X14813236Y66600588D01*
X14818945Y66601416D01*
X14824409Y66603271D01*
X14824414Y66603272D01*
X15005693Y66664808D01*
X15005698Y66664810D01*
X15011165Y66666666D01*
X15188276Y66765853D01*
X15196134Y66772388D01*
X15339913Y66891969D01*
X15344345Y66895655D01*
X15397537Y66959611D01*
X15470453Y67047282D01*
X15470455Y67047285D01*
X15474147Y67051724D01*
X15573334Y67228835D01*
X15575190Y67234302D01*
X15575192Y67234307D01*
X15636728Y67415586D01*
X15636729Y67415591D01*
X15638584Y67421055D01*
X15639412Y67426764D01*
X15639413Y67426769D01*
X15667179Y67618273D01*
X15667712Y67621947D01*
X15669232Y67680000D01*
X15650658Y67882141D01*
X15649090Y67887701D01*
X15597125Y68071954D01*
X15597124Y68071956D01*
X15595557Y68077513D01*
X15576328Y68116506D01*
X15564140Y68186449D01*
X15591700Y68251878D01*
X15600230Y68261318D01*
X16575560Y69236647D01*
X16583651Y69244061D01*
X16612416Y69268198D01*
X16631197Y69300727D01*
X16637085Y69309970D01*
X16658634Y69340745D01*
X16661487Y69351393D01*
X16662941Y69354511D01*
X16664121Y69357753D01*
X16669634Y69367302D01*
X16676154Y69404279D01*
X16678533Y69415012D01*
X16685398Y69440629D01*
X16685399Y69440636D01*
X16688251Y69451281D01*
X16684979Y69488685D01*
X16684500Y69499665D01*
X16684500Y85423398D01*
X16704502Y85491519D01*
X16721405Y85512493D01*
X24607507Y93398595D01*
X24669819Y93432621D01*
X24696602Y93435500D01*
X25036315Y93435500D01*
X25104436Y93415498D01*
X25150929Y93361842D01*
X25161033Y93291568D01*
X25131539Y93226988D01*
X25099317Y93200382D01*
X25068198Y93182416D01*
X25061115Y93173975D01*
X25061114Y93173974D01*
X25044056Y93153645D01*
X25036630Y93145542D01*
X17334458Y85443370D01*
X17326355Y85435944D01*
X17297584Y85411802D01*
X17292074Y85402258D01*
X17278811Y85379286D01*
X17272907Y85370018D01*
X17251366Y85339255D01*
X17248513Y85328606D01*
X17247055Y85325480D01*
X17245877Y85322243D01*
X17240366Y85312698D01*
X17238452Y85301843D01*
X17238450Y85301838D01*
X17233843Y85275713D01*
X17231465Y85264986D01*
X17224600Y85239364D01*
X17221748Y85228718D01*
X17222708Y85217743D01*
X17222708Y85217741D01*
X17225021Y85191304D01*
X17225500Y85180323D01*
X17225500Y68316602D01*
X17205498Y68248481D01*
X17188595Y68227507D01*
X15140744Y66179656D01*
X15078432Y66145630D01*
X15004959Y66151721D01*
X14967499Y66166666D01*
X14875039Y66203554D01*
X14869379Y66204680D01*
X14869375Y66204681D01*
X14681613Y66242029D01*
X14681610Y66242029D01*
X14675946Y66243156D01*
X14670171Y66243232D01*
X14670167Y66243232D01*
X14568793Y66244559D01*
X14472971Y66245813D01*
X14467274Y66244834D01*
X14467273Y66244834D01*
X14278607Y66212415D01*
X14272910Y66211436D01*
X14082463Y66141176D01*
X13908010Y66037388D01*
X13903670Y66033582D01*
X13903666Y66033579D01*
X13883723Y66016089D01*
X13755392Y65903545D01*
X13751817Y65899010D01*
X13751816Y65899009D01*
X13741675Y65886145D01*
X13629720Y65744131D01*
X13627031Y65739020D01*
X13627029Y65739017D01*
X13610313Y65707245D01*
X13535203Y65564485D01*
X13475007Y65370622D01*
X13451148Y65169036D01*
X13464424Y64966478D01*
X13465845Y64960882D01*
X13465846Y64960877D01*
X13490085Y64865438D01*
X13514392Y64769731D01*
X13516809Y64764488D01*
X13552417Y64687248D01*
X13599377Y64585384D01*
X13716533Y64419611D01*
X13861938Y64277965D01*
X14030720Y64165188D01*
X14036023Y64162910D01*
X14036026Y64162908D01*
X14211921Y64087338D01*
X14217228Y64085058D01*
X14290244Y64068536D01*
X14409579Y64041533D01*
X14409584Y64041532D01*
X14415216Y64040258D01*
X14420987Y64040031D01*
X14420989Y64040031D01*
X14480756Y64037683D01*
X14618053Y64032288D01*
X14718499Y64046852D01*
X14813231Y64060587D01*
X14813236Y64060588D01*
X14818945Y64061416D01*
X14824409Y64063271D01*
X14824414Y64063272D01*
X15005693Y64124808D01*
X15005698Y64124810D01*
X15011165Y64126666D01*
X15021401Y64132398D01*
X15156888Y64208275D01*
X15188276Y64225853D01*
X15192865Y64229669D01*
X15339913Y64351969D01*
X15344345Y64355655D01*
X15397537Y64419611D01*
X15470453Y64507282D01*
X15470455Y64507285D01*
X15474147Y64511724D01*
X15540265Y64629786D01*
X15570510Y64683792D01*
X15570511Y64683794D01*
X15573334Y64688835D01*
X15575190Y64694302D01*
X15575192Y64694307D01*
X15636728Y64875586D01*
X15636729Y64875591D01*
X15638584Y64881055D01*
X15639412Y64886764D01*
X15639413Y64886769D01*
X15667179Y65078273D01*
X15667712Y65081947D01*
X15669232Y65140000D01*
X15650658Y65342141D01*
X15649090Y65347701D01*
X15597125Y65531954D01*
X15597124Y65531956D01*
X15595557Y65537513D01*
X15576328Y65576506D01*
X15564140Y65646449D01*
X15591700Y65711878D01*
X15600240Y65721328D01*
X17765542Y67886630D01*
X17773645Y67894056D01*
X17793974Y67911114D01*
X17793975Y67911115D01*
X17802416Y67918198D01*
X17821203Y67950736D01*
X17827085Y67959969D01*
X17848634Y67990746D01*
X17851487Y68001395D01*
X17852942Y68004514D01*
X17854121Y68007753D01*
X17859634Y68017302D01*
X17861548Y68028157D01*
X17861550Y68028162D01*
X17866156Y68054283D01*
X17868534Y68065011D01*
X17875400Y68090637D01*
X17875400Y68090639D01*
X17878252Y68101282D01*
X17874979Y68138696D01*
X17874500Y68149677D01*
X17874500Y85013398D01*
X17894502Y85081519D01*
X17911405Y85102493D01*
X25377507Y92568595D01*
X25439819Y92602621D01*
X25466602Y92605500D01*
X33287469Y92605500D01*
X33355590Y92585498D01*
X33402083Y92531842D01*
X33412187Y92461568D01*
X33382693Y92396988D01*
X33331016Y92361410D01*
X33320941Y92359634D01*
X33311392Y92354121D01*
X33308150Y92352941D01*
X33305032Y92351487D01*
X33294384Y92348634D01*
X33263609Y92327085D01*
X33254366Y92321197D01*
X33221837Y92302416D01*
X33214751Y92293971D01*
X33197700Y92273651D01*
X33190274Y92265548D01*
X32382969Y91458242D01*
X31654032Y90729305D01*
X31591720Y90695280D01*
X31520905Y90700344D01*
X31475842Y90729305D01*
X30742525Y91462622D01*
X30737380Y91466060D01*
X30737375Y91466064D01*
X30700239Y91490878D01*
X30679593Y91504674D01*
X30667419Y91507095D01*
X30667418Y91507096D01*
X30592463Y91522005D01*
X30580292Y91524426D01*
X30568121Y91522005D01*
X30493161Y91507095D01*
X30493160Y91507094D01*
X30480991Y91504674D01*
X30466118Y91494736D01*
X30423204Y91466063D01*
X30423200Y91466060D01*
X30418058Y91462624D01*
X30235836Y91280401D01*
X30086840Y91131405D01*
X30024527Y91097380D01*
X29997744Y91094500D01*
X27036173Y91094500D01*
X27025193Y91094979D01*
X26998769Y91097291D01*
X26998766Y91097291D01*
X26987789Y91098251D01*
X26955631Y91089634D01*
X26951533Y91088536D01*
X26940802Y91086157D01*
X26903810Y91079634D01*
X26894258Y91074119D01*
X26891033Y91072945D01*
X26887907Y91071488D01*
X26877253Y91068633D01*
X26856269Y91053940D01*
X26846494Y91047096D01*
X26837226Y91041192D01*
X26804706Y91022416D01*
X26797623Y91013975D01*
X26797622Y91013974D01*
X26780569Y90993651D01*
X26773143Y90985548D01*
X18404458Y82616862D01*
X18396355Y82609436D01*
X18367584Y82585294D01*
X18362074Y82575750D01*
X18348811Y82552778D01*
X18342907Y82543510D01*
X18321366Y82512747D01*
X18318513Y82502098D01*
X18317055Y82498972D01*
X18315877Y82495735D01*
X18310366Y82486190D01*
X18308452Y82475335D01*
X18308450Y82475330D01*
X18303843Y82449205D01*
X18301465Y82438478D01*
X18295522Y82416296D01*
X18291748Y82402210D01*
X18292708Y82391235D01*
X18292708Y82391233D01*
X18295021Y82364796D01*
X18295500Y82353815D01*
X18295500Y73242363D01*
X18295021Y73231382D01*
X18292876Y73206858D01*
X18291748Y73193968D01*
X18294600Y73183325D01*
X18294600Y73183322D01*
X18301465Y73157700D01*
X18303843Y73146973D01*
X18308450Y73120848D01*
X18308452Y73120843D01*
X18310366Y73109988D01*
X18315877Y73100443D01*
X18317055Y73097206D01*
X18318513Y73094080D01*
X18321366Y73083431D01*
X18342372Y73053432D01*
X18342905Y73052671D01*
X18348811Y73043400D01*
X18367584Y73010884D01*
X18376025Y73003801D01*
X18376026Y73003800D01*
X18396355Y72986742D01*
X18404458Y72979316D01*
X26518336Y64865438D01*
X26552362Y64803126D01*
X26547297Y64732311D01*
X26518336Y64687248D01*
X25102493Y63271405D01*
X25040181Y63237379D01*
X25013398Y63234500D01*
X14436603Y63234500D01*
X14368482Y63254502D01*
X14347508Y63271405D01*
X13062357Y64556555D01*
X13028332Y64618867D01*
X13033335Y64688835D01*
X13033334Y64688835D01*
X13033336Y64688840D01*
X13033336Y64688841D01*
X13077878Y64820058D01*
X13096728Y64875586D01*
X13096729Y64875591D01*
X13098584Y64881055D01*
X13099412Y64886764D01*
X13099413Y64886769D01*
X13127179Y65078273D01*
X13127712Y65081947D01*
X13129232Y65140000D01*
X13110658Y65342141D01*
X13109090Y65347701D01*
X13057125Y65531954D01*
X13057124Y65531956D01*
X13055557Y65537513D01*
X13053005Y65542689D01*
X13053003Y65542693D01*
X12968331Y65714391D01*
X12965776Y65719572D01*
X12844320Y65882221D01*
X12695258Y66020013D01*
X12690375Y66023094D01*
X12690371Y66023097D01*
X12530792Y66123783D01*
X12523581Y66128333D01*
X12335039Y66203554D01*
X12329379Y66204680D01*
X12329375Y66204681D01*
X12141613Y66242029D01*
X12141610Y66242029D01*
X12135946Y66243156D01*
X12130171Y66243232D01*
X12130167Y66243232D01*
X12028793Y66244559D01*
X11932971Y66245813D01*
X11927274Y66244834D01*
X11927273Y66244834D01*
X11738607Y66212415D01*
X11732910Y66211436D01*
X11542463Y66141176D01*
X11368010Y66037388D01*
X11363670Y66033582D01*
X11363666Y66033579D01*
X11343723Y66016089D01*
X11215392Y65903545D01*
X11211817Y65899010D01*
X11211816Y65899009D01*
X11201675Y65886145D01*
X11089720Y65744131D01*
X11087031Y65739020D01*
X11087029Y65739017D01*
X11070313Y65707245D01*
X10995203Y65564485D01*
X10935007Y65370622D01*
X10911148Y65169036D01*
X10924424Y64966478D01*
X10925845Y64960882D01*
X10925846Y64960877D01*
X10950085Y64865438D01*
X10974392Y64769731D01*
X10976809Y64764488D01*
X11012417Y64687248D01*
X11059377Y64585384D01*
X11176533Y64419611D01*
X11321938Y64277965D01*
X11490720Y64165188D01*
X11496023Y64162910D01*
X11496026Y64162908D01*
X11671921Y64087338D01*
X11677228Y64085058D01*
X11750244Y64068536D01*
X11869579Y64041533D01*
X11869584Y64041532D01*
X11875216Y64040258D01*
X11880987Y64040031D01*
X11880989Y64040031D01*
X11940756Y64037683D01*
X12078053Y64032288D01*
X12178499Y64046852D01*
X12273231Y64060587D01*
X12273236Y64060588D01*
X12278945Y64061416D01*
X12284409Y64063271D01*
X12284414Y64063272D01*
X12471165Y64126666D01*
X12471792Y64124820D01*
X12533468Y64133089D01*
X12597765Y64102983D01*
X12603445Y64097643D01*
X14006635Y62694452D01*
X14014056Y62686355D01*
X14038198Y62657584D01*
X14070727Y62638803D01*
X14079970Y62632915D01*
X14110745Y62611366D01*
X14121394Y62608513D01*
X14124510Y62607060D01*
X14127752Y62605880D01*
X14137302Y62600366D01*
X14165518Y62595391D01*
X14174284Y62593845D01*
X14185009Y62591467D01*
X14221281Y62581748D01*
X14258691Y62585021D01*
X14269673Y62585500D01*
X25180323Y62585500D01*
X25191304Y62585021D01*
X25217741Y62582708D01*
X25217743Y62582708D01*
X25228718Y62581748D01*
X25239361Y62584600D01*
X25239364Y62584600D01*
X25264986Y62591465D01*
X25275713Y62593843D01*
X25301838Y62598450D01*
X25301843Y62598452D01*
X25312698Y62600366D01*
X25322243Y62605877D01*
X25325480Y62607055D01*
X25328606Y62608513D01*
X25339255Y62611366D01*
X25370018Y62632907D01*
X25379286Y62638811D01*
X25402258Y62652074D01*
X25411802Y62657584D01*
X25418889Y62666029D01*
X25435944Y62686355D01*
X25443370Y62694458D01*
X26970405Y64221493D01*
X27032717Y64255519D01*
X27103532Y64250454D01*
X27160368Y64207907D01*
X27185179Y64141387D01*
X27185500Y64132398D01*
X27185500Y61143199D01*
X27165498Y61075078D01*
X27111842Y61028585D01*
X27041568Y61018481D01*
X27008486Y61029762D01*
X27007823Y61028286D01*
X26993705Y61034631D01*
X26792959Y61105720D01*
X26782988Y61108354D01*
X26711837Y61121028D01*
X26698540Y61119568D01*
X26694000Y61105011D01*
X26694000Y59662000D01*
X26673998Y59593879D01*
X26620342Y59547386D01*
X26568000Y59536000D01*
X26312000Y59536000D01*
X26243879Y59556002D01*
X26197386Y59609658D01*
X26186000Y59662000D01*
X26186000Y61106898D01*
X26182082Y61120242D01*
X26167806Y61122229D01*
X26129324Y61116340D01*
X26119288Y61113949D01*
X25916868Y61047788D01*
X25907359Y61043791D01*
X25718463Y60945458D01*
X25709738Y60939964D01*
X25672153Y60911744D01*
X25605668Y60886838D01*
X25536273Y60901830D01*
X25485999Y60951961D01*
X25470500Y61012504D01*
X25470500Y61515626D01*
X25471065Y61527183D01*
X25474246Y61538168D01*
X25470970Y61575994D01*
X25470500Y61586866D01*
X25470500Y61595948D01*
X25469276Y61602521D01*
X25467616Y61614720D01*
X25465591Y61638105D01*
X25465591Y61638106D01*
X25464587Y61649696D01*
X25459480Y61660145D01*
X25458568Y61663433D01*
X25457339Y61666617D01*
X25455209Y61678053D01*
X25436779Y61707952D01*
X25430840Y61718734D01*
X25420533Y61739819D01*
X25415425Y61750269D01*
X25406899Y61758178D01*
X25404866Y61760916D01*
X25402572Y61763446D01*
X25396468Y61773348D01*
X25387212Y61780387D01*
X25387207Y61780392D01*
X25368513Y61794607D01*
X25359092Y61802526D01*
X25341882Y61818490D01*
X25341883Y61818490D01*
X25333354Y61826401D01*
X25322553Y61830710D01*
X25319676Y61832529D01*
X25316619Y61834066D01*
X25307359Y61841108D01*
X25273632Y61850874D01*
X25261992Y61854871D01*
X25229378Y61867883D01*
X25223085Y61868500D01*
X25220003Y61868500D01*
X25216933Y61868650D01*
X25216939Y61868766D01*
X25210817Y61869065D01*
X25199832Y61872246D01*
X25162006Y61868970D01*
X25151134Y61868500D01*
X8546500Y61868500D01*
X8478379Y61888502D01*
X8431886Y61942158D01*
X8420500Y61994500D01*
X8420500Y67709036D01*
X10911148Y67709036D01*
X10924424Y67506478D01*
X10925845Y67500882D01*
X10925846Y67500877D01*
X10954590Y67387701D01*
X10974392Y67309731D01*
X10976809Y67304488D01*
X11014010Y67223792D01*
X11059377Y67125384D01*
X11062710Y67120668D01*
X11161603Y66980737D01*
X11176533Y66959611D01*
X11321938Y66817965D01*
X11326742Y66814755D01*
X11394400Y66769547D01*
X11490720Y66705188D01*
X11496023Y66702910D01*
X11496026Y66702908D01*
X11584707Y66664808D01*
X11677228Y66625058D01*
X11750244Y66608536D01*
X11869579Y66581533D01*
X11869584Y66581532D01*
X11875216Y66580258D01*
X11880987Y66580031D01*
X11880989Y66580031D01*
X11940756Y66577683D01*
X12078053Y66572288D01*
X12178499Y66586852D01*
X12273231Y66600587D01*
X12273236Y66600588D01*
X12278945Y66601416D01*
X12284409Y66603271D01*
X12284414Y66603272D01*
X12465693Y66664808D01*
X12465698Y66664810D01*
X12471165Y66666666D01*
X12648276Y66765853D01*
X12656134Y66772388D01*
X12799913Y66891969D01*
X12804345Y66895655D01*
X12857537Y66959611D01*
X12930453Y67047282D01*
X12930455Y67047285D01*
X12934147Y67051724D01*
X13033334Y67228835D01*
X13035190Y67234302D01*
X13035192Y67234307D01*
X13096728Y67415586D01*
X13096729Y67415591D01*
X13098584Y67421055D01*
X13099412Y67426764D01*
X13099413Y67426769D01*
X13127179Y67618273D01*
X13127712Y67621947D01*
X13129232Y67680000D01*
X13110658Y67882141D01*
X13109090Y67887701D01*
X13057125Y68071954D01*
X13057124Y68071956D01*
X13055557Y68077513D01*
X13053005Y68082689D01*
X13053003Y68082693D01*
X12968331Y68254391D01*
X12965776Y68259572D01*
X12844320Y68422221D01*
X12695258Y68560013D01*
X12690375Y68563094D01*
X12690371Y68563097D01*
X12530792Y68663783D01*
X12523581Y68668333D01*
X12335039Y68743554D01*
X12329379Y68744680D01*
X12329375Y68744681D01*
X12141613Y68782029D01*
X12141610Y68782029D01*
X12135946Y68783156D01*
X12130171Y68783232D01*
X12130167Y68783232D01*
X12028793Y68784559D01*
X11932971Y68785813D01*
X11927274Y68784834D01*
X11927273Y68784834D01*
X11738607Y68752415D01*
X11732910Y68751436D01*
X11542463Y68681176D01*
X11368010Y68577388D01*
X11363670Y68573582D01*
X11363666Y68573579D01*
X11233761Y68459654D01*
X11215392Y68443545D01*
X11211817Y68439010D01*
X11211816Y68439009D01*
X11205261Y68430694D01*
X11089720Y68284131D01*
X11087031Y68279020D01*
X11087029Y68279017D01*
X11072518Y68251436D01*
X10995203Y68104485D01*
X10935007Y67910622D01*
X10911148Y67709036D01*
X8420500Y67709036D01*
X8420500Y95223500D01*
X8440502Y95291621D01*
X8494158Y95338114D01*
X8546500Y95349500D01*
X57033500Y95349500D01*
X57101621Y95329498D01*
G37*
G04 #@! TD.AperFunction*
G04 #@! TA.AperFunction,Conductor*
G36*
X32834031Y88918022D02*
G01*
X32879094Y88889062D01*
X33165002Y88603156D01*
X33264162Y88503996D01*
X33269306Y88500559D01*
X33316774Y88468840D01*
X33316776Y88468839D01*
X33327095Y88461944D01*
X33339269Y88459523D01*
X33339270Y88459522D01*
X33398635Y88447714D01*
X33426396Y88442192D01*
X33438567Y88444613D01*
X33446382Y88444613D01*
X33514503Y88424611D01*
X33560996Y88370955D01*
X33572382Y88318613D01*
X33572382Y88310798D01*
X33569961Y88298627D01*
X33589713Y88199326D01*
X33602975Y88179477D01*
X33628324Y88141539D01*
X33628326Y88141537D01*
X33631763Y88136393D01*
X34162188Y87605970D01*
X34167332Y87602533D01*
X34214800Y87570814D01*
X34214802Y87570813D01*
X34225121Y87563918D01*
X34237295Y87561497D01*
X34237296Y87561496D01*
X34298138Y87549394D01*
X34324422Y87544166D01*
X34336593Y87546587D01*
X34344408Y87546587D01*
X34412529Y87526585D01*
X34459022Y87472929D01*
X34470408Y87420587D01*
X34470408Y87412772D01*
X34467987Y87400601D01*
X34487739Y87301300D01*
X34494632Y87290984D01*
X34526350Y87243513D01*
X34526352Y87243511D01*
X34529789Y87238367D01*
X35060214Y86707944D01*
X35065358Y86704507D01*
X35065359Y86704506D01*
X35068596Y86702343D01*
X35069910Y86700771D01*
X35070145Y86700578D01*
X35070108Y86700533D01*
X35114124Y86647866D01*
X35123321Y86579716D01*
X35113547Y86511466D01*
X35113547Y86493687D01*
X35131630Y86367417D01*
X35136617Y86350362D01*
X35189860Y86233259D01*
X35198083Y86219906D01*
X35230149Y86180025D01*
X35234692Y86174962D01*
X35321363Y86088292D01*
X35335299Y86080682D01*
X35337136Y86080813D01*
X35343752Y86085065D01*
X36818034Y87559347D01*
X36880346Y87593373D01*
X36951161Y87588308D01*
X36996224Y87559347D01*
X37177244Y87378327D01*
X37211270Y87316015D01*
X37206205Y87245200D01*
X37177244Y87200137D01*
X35706193Y85729086D01*
X35698579Y85715142D01*
X35698710Y85713309D01*
X35702961Y85706694D01*
X35792847Y85616808D01*
X35797931Y85612246D01*
X35837804Y85580186D01*
X35851154Y85571964D01*
X35968259Y85518720D01*
X35985314Y85513733D01*
X36111584Y85495650D01*
X36129362Y85495650D01*
X36197610Y85505424D01*
X36267879Y85495282D01*
X36318446Y85452226D01*
X36318473Y85452249D01*
X36318598Y85452097D01*
X36320236Y85450702D01*
X36322398Y85447466D01*
X36322403Y85447460D01*
X36325840Y85442316D01*
X36856265Y84911893D01*
X36861409Y84908456D01*
X36908877Y84876737D01*
X36908879Y84876736D01*
X36919198Y84869841D01*
X36931372Y84867420D01*
X36931373Y84867419D01*
X36992215Y84855317D01*
X37018499Y84850089D01*
X37030670Y84852510D01*
X37038484Y84852510D01*
X37106605Y84832508D01*
X37153098Y84778852D01*
X37164484Y84726510D01*
X37164484Y84718695D01*
X37162063Y84706524D01*
X37164484Y84694353D01*
X37176286Y84635021D01*
X37181815Y84607223D01*
X37188708Y84596907D01*
X37220426Y84549436D01*
X37220428Y84549434D01*
X37223865Y84544290D01*
X37228242Y84539913D01*
X37362772Y84405384D01*
X37754290Y84013867D01*
X37759434Y84010430D01*
X37806902Y83978711D01*
X37806904Y83978710D01*
X37817223Y83971815D01*
X37829397Y83969394D01*
X37829398Y83969393D01*
X37881634Y83959003D01*
X37916524Y83952063D01*
X37928695Y83954484D01*
X37936510Y83954484D01*
X38004631Y83934482D01*
X38051124Y83880826D01*
X38062510Y83828484D01*
X38062510Y83820670D01*
X38060089Y83808499D01*
X38062510Y83796328D01*
X38076648Y83725252D01*
X38079841Y83709198D01*
X38086734Y83698882D01*
X38118452Y83651411D01*
X38118455Y83651407D01*
X38121891Y83646265D01*
X38652316Y83115842D01*
X38657460Y83112405D01*
X38704928Y83080686D01*
X38704930Y83080685D01*
X38715249Y83073790D01*
X38727423Y83071369D01*
X38727424Y83071368D01*
X38784104Y83060094D01*
X38814550Y83054038D01*
X38826721Y83056459D01*
X38834536Y83056459D01*
X38902657Y83036457D01*
X38949150Y82982801D01*
X38960536Y82930459D01*
X38960536Y82922644D01*
X38958115Y82910473D01*
X38960536Y82898302D01*
X38975445Y82823350D01*
X38977867Y82811172D01*
X38984760Y82800856D01*
X39016478Y82753385D01*
X39016480Y82753383D01*
X39019917Y82748239D01*
X39024294Y82743862D01*
X39155190Y82612967D01*
X39550342Y82217816D01*
X39555486Y82214379D01*
X39602954Y82182660D01*
X39602956Y82182659D01*
X39613275Y82175764D01*
X39625449Y82173343D01*
X39625450Y82173342D01*
X39658496Y82166769D01*
X39712576Y82156012D01*
X39724747Y82158433D01*
X39732561Y82158433D01*
X39800682Y82138431D01*
X39847175Y82084775D01*
X39858561Y82032433D01*
X39858561Y82024619D01*
X39856140Y82012448D01*
X39858506Y82000552D01*
X39838559Y81932618D01*
X39784903Y81886125D01*
X39731902Y81874741D01*
X39711565Y81874847D01*
X39694221Y81874938D01*
X39686841Y81873166D01*
X39686839Y81873166D01*
X39547563Y81839729D01*
X39547560Y81839728D01*
X39540184Y81837957D01*
X39399414Y81765300D01*
X39280039Y81661162D01*
X39188950Y81531556D01*
X39177315Y81501713D01*
X39135429Y81394281D01*
X39131406Y81383963D01*
X39130414Y81376430D01*
X39130414Y81376429D01*
X39111891Y81235727D01*
X39110729Y81226904D01*
X39112227Y81213338D01*
X39123148Y81114422D01*
X39128113Y81069447D01*
X39130723Y81062316D01*
X39130723Y81062314D01*
X39174183Y80943554D01*
X39182553Y80920681D01*
X39186789Y80914378D01*
X39186789Y80914377D01*
X39240493Y80834458D01*
X39270908Y80789195D01*
X39276527Y80784082D01*
X39276528Y80784081D01*
X39324571Y80740366D01*
X39388076Y80682581D01*
X39527293Y80606992D01*
X39680522Y80566793D01*
X39764477Y80565474D01*
X39831319Y80564424D01*
X39831322Y80564424D01*
X39838916Y80564305D01*
X39993332Y80599671D01*
X40088136Y80647352D01*
X40128072Y80667437D01*
X40128075Y80667439D01*
X40134855Y80670849D01*
X40140626Y80675778D01*
X40140629Y80675780D01*
X40249536Y80768796D01*
X40249536Y80768797D01*
X40255314Y80773731D01*
X40347755Y80902376D01*
X40406842Y81049359D01*
X40422568Y81159862D01*
X40451968Y81224484D01*
X40511639Y81262953D01*
X40571891Y81265687D01*
X40610601Y81257987D01*
X40622772Y81260408D01*
X40630587Y81260408D01*
X40698708Y81240406D01*
X40745201Y81186750D01*
X40756587Y81134408D01*
X40756587Y81126593D01*
X40754166Y81114422D01*
X40773918Y81015121D01*
X40780811Y81004805D01*
X40812529Y80957334D01*
X40812532Y80957330D01*
X40815968Y80952188D01*
X41346393Y80421765D01*
X41351537Y80418328D01*
X41399005Y80386609D01*
X41399007Y80386608D01*
X41409326Y80379713D01*
X41421500Y80377292D01*
X41421501Y80377291D01*
X41482343Y80365189D01*
X41508627Y80359961D01*
X41520798Y80362382D01*
X41528613Y80362382D01*
X41596734Y80342380D01*
X41643227Y80288724D01*
X41654613Y80236382D01*
X41654613Y80228567D01*
X41652192Y80216396D01*
X41671944Y80117095D01*
X41678837Y80106779D01*
X41710555Y80059308D01*
X41710557Y80059306D01*
X41713994Y80054162D01*
X42067281Y79700877D01*
X42099061Y79669097D01*
X42133086Y79606785D01*
X42128022Y79535969D01*
X42099062Y79490906D01*
X41987010Y79378853D01*
X41713996Y79105838D01*
X41710153Y79100087D01*
X41678840Y79053226D01*
X41678839Y79053224D01*
X41671944Y79042905D01*
X41669523Y79030731D01*
X41669522Y79030730D01*
X41661628Y78991043D01*
X41652192Y78943604D01*
X41654613Y78931433D01*
X41654613Y78923618D01*
X41634611Y78855497D01*
X41580955Y78809004D01*
X41528613Y78797618D01*
X41520798Y78797618D01*
X41508627Y78800039D01*
X41500767Y78798475D01*
X41435566Y78817620D01*
X41389073Y78871276D01*
X41378600Y78908481D01*
X41376620Y78924841D01*
X41370276Y78977267D01*
X41314280Y79125454D01*
X41287561Y79164331D01*
X41228855Y79249749D01*
X41228854Y79249751D01*
X41224553Y79256008D01*
X41106275Y79361389D01*
X41098889Y79365300D01*
X40972988Y79431961D01*
X40972989Y79431961D01*
X40966274Y79435516D01*
X40812633Y79474108D01*
X40805034Y79474148D01*
X40805033Y79474148D01*
X40739181Y79474493D01*
X40654221Y79474938D01*
X40646841Y79473166D01*
X40646839Y79473166D01*
X40507563Y79439729D01*
X40507560Y79439728D01*
X40500184Y79437957D01*
X40359414Y79365300D01*
X40240039Y79261162D01*
X40148950Y79131556D01*
X40136917Y79100692D01*
X40109642Y79030735D01*
X40091406Y78983963D01*
X40090414Y78976430D01*
X40090414Y78976429D01*
X40073020Y78844303D01*
X40070729Y78826904D01*
X40088113Y78669447D01*
X40142553Y78520681D01*
X40146789Y78514378D01*
X40146789Y78514377D01*
X40215963Y78411436D01*
X40230908Y78389195D01*
X40236527Y78384082D01*
X40236528Y78384081D01*
X40286925Y78338224D01*
X40348076Y78282581D01*
X40487293Y78206992D01*
X40640522Y78166793D01*
X40647805Y78166679D01*
X40712459Y78137675D01*
X40751242Y78078207D01*
X40755246Y78051008D01*
X40754166Y78045578D01*
X40756587Y78033407D01*
X40756587Y78025592D01*
X40736585Y77957471D01*
X40682929Y77910978D01*
X40630587Y77899592D01*
X40622772Y77899592D01*
X40610601Y77902013D01*
X40598430Y77899592D01*
X40523470Y77884682D01*
X40523469Y77884681D01*
X40511300Y77882261D01*
X40491451Y77868999D01*
X40453513Y77843650D01*
X40453509Y77843647D01*
X40448367Y77840211D01*
X39917944Y77309786D01*
X39904644Y77289882D01*
X39882788Y77257174D01*
X39882787Y77257172D01*
X39875892Y77246853D01*
X39856140Y77147552D01*
X39858561Y77135381D01*
X39858561Y77127567D01*
X39838559Y77059446D01*
X39784903Y77012953D01*
X39732561Y77001567D01*
X39724747Y77001567D01*
X39712576Y77003988D01*
X39700405Y77001567D01*
X39625445Y76986657D01*
X39625444Y76986656D01*
X39613275Y76984236D01*
X39599940Y76975326D01*
X39555488Y76945625D01*
X39555484Y76945622D01*
X39550342Y76942186D01*
X39019919Y76411761D01*
X39016482Y76406618D01*
X39016480Y76406615D01*
X39014315Y76403375D01*
X39012742Y76402061D01*
X39012553Y76401830D01*
X39012509Y76401866D01*
X38959837Y76357849D01*
X38891690Y76348653D01*
X38823440Y76358427D01*
X38805661Y76358427D01*
X38679391Y76340344D01*
X38662336Y76335357D01*
X38545233Y76282114D01*
X38531880Y76273891D01*
X38491999Y76241825D01*
X38486936Y76237282D01*
X38400266Y76150611D01*
X38392656Y76136675D01*
X38392787Y76134838D01*
X38397039Y76128222D01*
X39871321Y74653940D01*
X39905347Y74591628D01*
X39900282Y74520813D01*
X39871321Y74475750D01*
X39690301Y74294730D01*
X39627989Y74260704D01*
X39557174Y74265769D01*
X39512111Y74294730D01*
X38041060Y75765781D01*
X38027116Y75773395D01*
X38025283Y75773264D01*
X38018668Y75769013D01*
X37928782Y75679127D01*
X37924220Y75674043D01*
X37892160Y75634170D01*
X37883938Y75620820D01*
X37830694Y75503715D01*
X37825707Y75486660D01*
X37807624Y75360390D01*
X37807624Y75342612D01*
X37817398Y75274365D01*
X37807256Y75204096D01*
X37764200Y75153529D01*
X37764223Y75153502D01*
X37764071Y75153377D01*
X37762676Y75151739D01*
X37759440Y75149577D01*
X37759434Y75149572D01*
X37754290Y75146135D01*
X37223867Y74615710D01*
X37220430Y74610566D01*
X37188711Y74563098D01*
X37188710Y74563096D01*
X37181815Y74552777D01*
X37179394Y74540603D01*
X37179393Y74540602D01*
X37175457Y74520813D01*
X37162063Y74453476D01*
X37164484Y74441305D01*
X37164484Y74433490D01*
X37144482Y74365369D01*
X37090826Y74318876D01*
X37038484Y74307490D01*
X37030670Y74307490D01*
X37018499Y74309911D01*
X37006328Y74307490D01*
X36931368Y74292580D01*
X36931367Y74292579D01*
X36919198Y74290159D01*
X36908881Y74283266D01*
X36908882Y74283266D01*
X36861411Y74251548D01*
X36861407Y74251545D01*
X36856265Y74248109D01*
X36325842Y73717684D01*
X36320653Y73709918D01*
X36290686Y73665072D01*
X36290685Y73665070D01*
X36283790Y73654751D01*
X36281369Y73642577D01*
X36281368Y73642576D01*
X36272067Y73595815D01*
X36239160Y73532905D01*
X36177465Y73497773D01*
X36106570Y73501573D01*
X36048984Y73543098D01*
X36032116Y73577962D01*
X36030276Y73577267D01*
X35976964Y73718351D01*
X35974280Y73725454D01*
X35932210Y73786666D01*
X35888855Y73849749D01*
X35888854Y73849751D01*
X35884553Y73856008D01*
X35766275Y73961389D01*
X35758889Y73965300D01*
X35632988Y74031961D01*
X35632989Y74031961D01*
X35626274Y74035516D01*
X35472633Y74074108D01*
X35465034Y74074148D01*
X35465033Y74074148D01*
X35399181Y74074493D01*
X35314221Y74074938D01*
X35306841Y74073166D01*
X35306839Y74073166D01*
X35167563Y74039729D01*
X35167560Y74039728D01*
X35160184Y74037957D01*
X35019414Y73965300D01*
X34900039Y73861162D01*
X34808950Y73731556D01*
X34751406Y73583963D01*
X34750414Y73576430D01*
X34750414Y73576429D01*
X34732045Y73436899D01*
X34730729Y73426904D01*
X34734448Y73393217D01*
X34745627Y73291968D01*
X34748113Y73269447D01*
X34750723Y73262316D01*
X34750723Y73262314D01*
X34796915Y73136089D01*
X34802553Y73120681D01*
X34806789Y73114378D01*
X34806789Y73114377D01*
X34876334Y73010884D01*
X34890908Y72989195D01*
X34896527Y72984082D01*
X34896528Y72984081D01*
X35002460Y72887691D01*
X35008076Y72882581D01*
X35147293Y72806992D01*
X35240064Y72782654D01*
X35274407Y72773644D01*
X35335222Y72737010D01*
X35366577Y72673313D01*
X35367361Y72664208D01*
X35366012Y72657424D01*
X35368433Y72645253D01*
X35368433Y72637439D01*
X35348431Y72569318D01*
X35294775Y72522825D01*
X35242433Y72511439D01*
X35234619Y72511439D01*
X35222448Y72513860D01*
X35210277Y72511439D01*
X35135317Y72496529D01*
X35135316Y72496528D01*
X35123147Y72494108D01*
X35109344Y72484885D01*
X35065360Y72455497D01*
X35065356Y72455494D01*
X35060214Y72452058D01*
X34529791Y71921633D01*
X34516491Y71901729D01*
X34494635Y71869021D01*
X34494634Y71869019D01*
X34487739Y71858700D01*
X34485318Y71846526D01*
X34485317Y71846525D01*
X34481690Y71828290D01*
X34467987Y71759399D01*
X34470408Y71747228D01*
X34470408Y71739413D01*
X34450406Y71671292D01*
X34396750Y71624799D01*
X34344408Y71613413D01*
X34336593Y71613413D01*
X34325410Y71615637D01*
X34264865Y71633415D01*
X34218372Y71687071D01*
X34207899Y71724275D01*
X34203648Y71759399D01*
X34200276Y71787267D01*
X34144280Y71935454D01*
X34106906Y71989834D01*
X34058855Y72059749D01*
X34058854Y72059751D01*
X34054553Y72066008D01*
X34037234Y72081439D01*
X34008910Y72106674D01*
X33936275Y72171389D01*
X33928889Y72175300D01*
X33802988Y72241961D01*
X33802989Y72241961D01*
X33796274Y72245516D01*
X33642633Y72284108D01*
X33635034Y72284148D01*
X33635033Y72284148D01*
X33569181Y72284493D01*
X33484221Y72284938D01*
X33476841Y72283166D01*
X33476839Y72283166D01*
X33337563Y72249729D01*
X33337560Y72249728D01*
X33330184Y72247957D01*
X33189414Y72175300D01*
X33070039Y72071162D01*
X32978950Y71941556D01*
X32950670Y71869021D01*
X32929338Y71814307D01*
X32921406Y71793963D01*
X32920414Y71786430D01*
X32920414Y71786429D01*
X32903783Y71660098D01*
X32900729Y71636904D01*
X32905236Y71596082D01*
X32916193Y71496840D01*
X32918113Y71479447D01*
X32920723Y71472316D01*
X32920723Y71472314D01*
X32968035Y71343028D01*
X32972553Y71330681D01*
X32976789Y71324378D01*
X32976789Y71324377D01*
X33051793Y71212760D01*
X33060908Y71199195D01*
X33066527Y71194082D01*
X33066528Y71194081D01*
X33111547Y71153117D01*
X33178076Y71092581D01*
X33317293Y71016992D01*
X33393907Y70996893D01*
X33463180Y70978719D01*
X33463181Y70978719D01*
X33470522Y70976793D01*
X33470223Y70975653D01*
X33528257Y70949617D01*
X33567038Y70890149D01*
X33570715Y70865166D01*
X33569961Y70861373D01*
X33572382Y70849202D01*
X33572382Y70841387D01*
X33552380Y70773266D01*
X33498724Y70726773D01*
X33446382Y70715387D01*
X33438567Y70715387D01*
X33426396Y70717808D01*
X33414225Y70715387D01*
X33339265Y70700477D01*
X33339264Y70700476D01*
X33327095Y70698056D01*
X33307246Y70684794D01*
X33269308Y70659445D01*
X33269304Y70659442D01*
X33264162Y70656006D01*
X32912357Y70304199D01*
X32879097Y70270939D01*
X32816785Y70236914D01*
X32745969Y70241978D01*
X32700906Y70270938D01*
X32320213Y70651629D01*
X32315838Y70656004D01*
X32295934Y70669304D01*
X32263226Y70691160D01*
X32263224Y70691161D01*
X32252905Y70698056D01*
X32240731Y70700477D01*
X32240730Y70700478D01*
X32165775Y70715387D01*
X32153604Y70717808D01*
X32141433Y70715387D01*
X32133618Y70715387D01*
X32065497Y70735389D01*
X32019004Y70789045D01*
X32007618Y70841387D01*
X32007618Y70849202D01*
X32010039Y70861373D01*
X31990287Y70960674D01*
X31953944Y71015066D01*
X31951676Y71018461D01*
X31951673Y71018465D01*
X31948237Y71023607D01*
X31814718Y71157126D01*
X31422187Y71549655D01*
X31417812Y71554030D01*
X31374366Y71583061D01*
X31365200Y71589186D01*
X31365198Y71589187D01*
X31354879Y71596082D01*
X31342705Y71598503D01*
X31342704Y71598504D01*
X31267749Y71613413D01*
X31255578Y71615834D01*
X31243407Y71613413D01*
X31235592Y71613413D01*
X31167471Y71633415D01*
X31120978Y71687071D01*
X31109592Y71739413D01*
X31109592Y71747228D01*
X31112013Y71759399D01*
X31098310Y71828290D01*
X31094682Y71846530D01*
X31094681Y71846531D01*
X31092261Y71858700D01*
X31067789Y71895326D01*
X31053650Y71916487D01*
X31053647Y71916491D01*
X31050211Y71921633D01*
X30519786Y72452056D01*
X30499098Y72465880D01*
X30467174Y72487212D01*
X30467172Y72487213D01*
X30456853Y72494108D01*
X30444679Y72496529D01*
X30444678Y72496530D01*
X30369723Y72511439D01*
X30357552Y72513860D01*
X30345381Y72511439D01*
X30337567Y72511439D01*
X30269446Y72531441D01*
X30222953Y72585097D01*
X30211567Y72637439D01*
X30211567Y72645253D01*
X30213988Y72657424D01*
X30201953Y72717930D01*
X30196657Y72744555D01*
X30196656Y72744556D01*
X30194236Y72756725D01*
X30172440Y72789346D01*
X30155625Y72814512D01*
X30155622Y72814516D01*
X30152186Y72819658D01*
X30018632Y72953212D01*
X29626136Y73345706D01*
X29621761Y73350081D01*
X29583915Y73375370D01*
X29569149Y73385237D01*
X29569147Y73385238D01*
X29558828Y73392133D01*
X29546654Y73394554D01*
X29546653Y73394555D01*
X29471698Y73409464D01*
X29459527Y73411885D01*
X29447356Y73409464D01*
X29439541Y73409464D01*
X29371420Y73429466D01*
X29324927Y73483122D01*
X29313541Y73535464D01*
X29313541Y73543279D01*
X29315962Y73555450D01*
X29296210Y73654751D01*
X29270575Y73693117D01*
X29257599Y73712538D01*
X29257596Y73712542D01*
X29254160Y73717684D01*
X28723735Y74248107D01*
X28718590Y74251545D01*
X28715353Y74253708D01*
X28714039Y74255280D01*
X28713804Y74255473D01*
X28713841Y74255518D01*
X28669825Y74308185D01*
X28660627Y74376335D01*
X28670402Y74444593D01*
X28670402Y74462365D01*
X28652319Y74588635D01*
X28647332Y74605690D01*
X28594089Y74722793D01*
X28585866Y74736146D01*
X28553800Y74776027D01*
X28549257Y74781090D01*
X28462586Y74867760D01*
X28448650Y74875370D01*
X28446813Y74875239D01*
X28440197Y74870987D01*
X25675884Y72106674D01*
X25668270Y72092730D01*
X25668401Y72090897D01*
X25672652Y72084282D01*
X25762538Y71994396D01*
X25767622Y71989834D01*
X25807495Y71957774D01*
X25820845Y71949552D01*
X25937950Y71896308D01*
X25955005Y71891321D01*
X26081275Y71873238D01*
X26099053Y71873238D01*
X26167300Y71883012D01*
X26237569Y71872870D01*
X26288136Y71829814D01*
X26288163Y71829837D01*
X26288288Y71829685D01*
X26289926Y71828290D01*
X26292088Y71825054D01*
X26292093Y71825048D01*
X26295530Y71819904D01*
X26471000Y71644435D01*
X26618595Y71496840D01*
X26652620Y71434527D01*
X26655500Y71407744D01*
X26655500Y71329677D01*
X26655021Y71318696D01*
X26651748Y71281282D01*
X26654600Y71270638D01*
X26661207Y71245979D01*
X26665500Y71213369D01*
X26665500Y70692049D01*
X26645498Y70623928D01*
X26591842Y70577435D01*
X26521568Y70567331D01*
X26456988Y70596825D01*
X26450405Y70602954D01*
X24651405Y72401954D01*
X24617379Y72464266D01*
X24614500Y72491049D01*
X24614500Y73196744D01*
X24634502Y73264865D01*
X24688158Y73311358D01*
X24758432Y73321462D01*
X24823012Y73291968D01*
X24829596Y73285840D01*
X25029904Y73085532D01*
X25035047Y73082095D01*
X25035050Y73082093D01*
X25038290Y73079928D01*
X25039604Y73078355D01*
X25039835Y73078166D01*
X25039799Y73078122D01*
X25083816Y73025450D01*
X25093012Y72957303D01*
X25083238Y72889054D01*
X25083238Y72871275D01*
X25101321Y72745005D01*
X25106308Y72727950D01*
X25159551Y72610847D01*
X25167774Y72597494D01*
X25199840Y72557613D01*
X25204383Y72552550D01*
X25291054Y72465880D01*
X25304990Y72458270D01*
X25306827Y72458401D01*
X25313443Y72462653D01*
X28077756Y75226966D01*
X28085370Y75240910D01*
X28085239Y75242743D01*
X28080988Y75249358D01*
X27991102Y75339244D01*
X27986012Y75343811D01*
X27958565Y75365880D01*
X27918010Y75424153D01*
X27915398Y75495102D01*
X27955687Y75559886D01*
X27989536Y75588796D01*
X27989536Y75588797D01*
X27995314Y75593731D01*
X28087755Y75722376D01*
X28146842Y75869359D01*
X28157438Y75943815D01*
X28168581Y76022109D01*
X28168581Y76022112D01*
X28169162Y76026193D01*
X28169307Y76040000D01*
X28150276Y76197267D01*
X28094280Y76345454D01*
X28045702Y76416136D01*
X28008855Y76469749D01*
X28008854Y76469751D01*
X28004553Y76476008D01*
X27886275Y76581389D01*
X27878889Y76585300D01*
X27752988Y76651961D01*
X27752989Y76651961D01*
X27746274Y76655516D01*
X27592633Y76694108D01*
X27585034Y76694148D01*
X27585033Y76694148D01*
X27519181Y76694493D01*
X27434221Y76694938D01*
X27426841Y76693166D01*
X27426839Y76693166D01*
X27287563Y76659729D01*
X27287560Y76659728D01*
X27280184Y76657957D01*
X27139414Y76585300D01*
X27020039Y76481162D01*
X26928950Y76351556D01*
X26871406Y76203963D01*
X26870585Y76197726D01*
X26834552Y76137197D01*
X26771019Y76105511D01*
X26768736Y76105308D01*
X26765450Y76105962D01*
X26756866Y76104255D01*
X26748828Y76103541D01*
X26745464Y76103541D01*
X26677343Y76123543D01*
X26630850Y76177199D01*
X26619464Y76229541D01*
X26619464Y76237356D01*
X26621885Y76249527D01*
X26602133Y76348828D01*
X26566695Y76401866D01*
X26563522Y76406615D01*
X26563519Y76406619D01*
X26560083Y76411761D01*
X26029658Y76942184D01*
X25996279Y76964488D01*
X25977046Y76977340D01*
X25977044Y76977341D01*
X25966725Y76984236D01*
X25954551Y76986657D01*
X25954550Y76986658D01*
X25879595Y77001567D01*
X25867424Y77003988D01*
X25855253Y77001567D01*
X25847439Y77001567D01*
X25779318Y77021569D01*
X25732825Y77075225D01*
X25721439Y77127567D01*
X25721439Y77135381D01*
X25723860Y77147552D01*
X25704108Y77246853D01*
X25678181Y77285656D01*
X25665497Y77304640D01*
X25665494Y77304644D01*
X25662058Y77309786D01*
X25131633Y77840209D01*
X25111729Y77853509D01*
X25079021Y77875365D01*
X25079019Y77875366D01*
X25068700Y77882261D01*
X25056526Y77884682D01*
X25056525Y77884683D01*
X24981570Y77899592D01*
X24969399Y77902013D01*
X24957228Y77899592D01*
X24949413Y77899592D01*
X24881292Y77919594D01*
X24834799Y77973250D01*
X24823413Y78025592D01*
X24823413Y78033407D01*
X24825834Y78045578D01*
X24814304Y78103545D01*
X24808503Y78132709D01*
X24808502Y78132710D01*
X24806082Y78144879D01*
X24791440Y78166793D01*
X24767471Y78202666D01*
X24767468Y78202670D01*
X24764032Y78207812D01*
X24630668Y78341176D01*
X24237982Y78733860D01*
X24233607Y78738235D01*
X24197030Y78762676D01*
X24180995Y78773391D01*
X24180993Y78773392D01*
X24170674Y78780287D01*
X24158500Y78782708D01*
X24158499Y78782709D01*
X24083544Y78797618D01*
X24071373Y78800039D01*
X24059202Y78797618D01*
X24051387Y78797618D01*
X23983266Y78817620D01*
X23936773Y78871276D01*
X23925387Y78923618D01*
X23925387Y78931433D01*
X23927808Y78943604D01*
X23918372Y78991043D01*
X23910477Y79030735D01*
X23910476Y79030736D01*
X23908056Y79042905D01*
X23869849Y79100087D01*
X23869445Y79100692D01*
X23869442Y79100696D01*
X23866006Y79105838D01*
X23480939Y79490904D01*
X23446914Y79553215D01*
X23451978Y79624031D01*
X23480938Y79669094D01*
X23861629Y80049787D01*
X23866004Y80054162D01*
X23888415Y80087701D01*
X23901160Y80106774D01*
X23901161Y80106776D01*
X23908056Y80117095D01*
X23927808Y80216396D01*
X23925387Y80228567D01*
X23925387Y80236382D01*
X23945389Y80304503D01*
X23999045Y80350996D01*
X24051387Y80362382D01*
X24059202Y80362382D01*
X24071373Y80359961D01*
X24083544Y80362382D01*
X24158504Y80377292D01*
X24158505Y80377293D01*
X24170674Y80379713D01*
X24197269Y80397483D01*
X24228461Y80418324D01*
X24228466Y80418328D01*
X24233607Y80421763D01*
X24764030Y80952188D01*
X24769634Y80960574D01*
X24771207Y80961888D01*
X24771396Y80962119D01*
X24771440Y80962083D01*
X24824112Y81006100D01*
X24892259Y81015296D01*
X24960509Y81005522D01*
X24978288Y81005522D01*
X25104558Y81023605D01*
X25121613Y81028592D01*
X25238716Y81081835D01*
X25252069Y81090058D01*
X25291950Y81122124D01*
X25297013Y81126667D01*
X25383683Y81213338D01*
X25391293Y81227274D01*
X25391162Y81229111D01*
X25386910Y81235727D01*
X23912628Y82710009D01*
X23878602Y82772321D01*
X23883667Y82843136D01*
X23912628Y82888199D01*
X24093648Y83069219D01*
X24155960Y83103245D01*
X24226775Y83098180D01*
X24271838Y83069219D01*
X25742889Y81598168D01*
X25756833Y81590554D01*
X25758666Y81590685D01*
X25765281Y81594936D01*
X25855167Y81684822D01*
X25859729Y81689906D01*
X25891789Y81729779D01*
X25900011Y81743129D01*
X25953255Y81860234D01*
X25958242Y81877289D01*
X25976325Y82003559D01*
X25976325Y82021337D01*
X25966551Y82089585D01*
X25976693Y82159854D01*
X26019748Y82210419D01*
X26019725Y82210447D01*
X26019882Y82210576D01*
X26021276Y82212213D01*
X26024509Y82214373D01*
X26024513Y82214376D01*
X26029658Y82217814D01*
X26560081Y82748239D01*
X26578766Y82776202D01*
X26595237Y82800851D01*
X26595238Y82800853D01*
X26602133Y82811172D01*
X26604555Y82823347D01*
X26604556Y82823350D01*
X26604890Y82825029D01*
X26606627Y82828349D01*
X26609303Y82834810D01*
X26609881Y82834570D01*
X26637798Y82887938D01*
X26699494Y82923068D01*
X26770389Y82919267D01*
X26827974Y82877741D01*
X26846794Y82843745D01*
X26859941Y82807817D01*
X26859943Y82807813D01*
X26862553Y82800681D01*
X26866789Y82794378D01*
X26866789Y82794377D01*
X26897793Y82748239D01*
X26950908Y82669195D01*
X26956527Y82664082D01*
X26956528Y82664081D01*
X27046872Y82581875D01*
X27068076Y82562581D01*
X27207293Y82486992D01*
X27360522Y82446793D01*
X27444477Y82445474D01*
X27511319Y82444424D01*
X27511322Y82444424D01*
X27518916Y82444305D01*
X27673332Y82479671D01*
X27787542Y82537112D01*
X27808072Y82547437D01*
X27808075Y82547439D01*
X27814855Y82550849D01*
X27820626Y82555778D01*
X27820629Y82555780D01*
X27929536Y82648796D01*
X27929536Y82648797D01*
X27935314Y82653731D01*
X28027755Y82782376D01*
X28086842Y82929359D01*
X28104586Y83054038D01*
X28108581Y83082109D01*
X28108581Y83082112D01*
X28109162Y83086193D01*
X28109307Y83100000D01*
X28090276Y83257267D01*
X28034280Y83405454D01*
X27999523Y83456026D01*
X27948855Y83529749D01*
X27948854Y83529751D01*
X27944553Y83536008D01*
X27826275Y83641389D01*
X27686274Y83715516D01*
X27678901Y83717368D01*
X27677794Y83717793D01*
X27621366Y83760880D01*
X27597191Y83827634D01*
X27612943Y83896861D01*
X27663622Y83946582D01*
X27698368Y83959003D01*
X27750608Y83969394D01*
X27750610Y83969395D01*
X27762777Y83971815D01*
X27787596Y83988398D01*
X27820564Y84010426D01*
X27820569Y84010430D01*
X27825710Y84013865D01*
X28356133Y84544290D01*
X28386497Y84589731D01*
X28391289Y84596902D01*
X28391290Y84596904D01*
X28398185Y84607223D01*
X28403715Y84635021D01*
X28415516Y84694353D01*
X28417937Y84706524D01*
X28415516Y84718695D01*
X28415516Y84726510D01*
X28435518Y84794631D01*
X28489174Y84841124D01*
X28541516Y84852510D01*
X28549330Y84852510D01*
X28561501Y84850089D01*
X28573672Y84852510D01*
X28648632Y84867420D01*
X28648633Y84867421D01*
X28660802Y84869841D01*
X28680651Y84883103D01*
X28718589Y84908452D01*
X28718594Y84908456D01*
X28723735Y84911891D01*
X28857344Y85045500D01*
X29249783Y85437941D01*
X29254158Y85442316D01*
X29275482Y85474228D01*
X29289314Y85494928D01*
X29289315Y85494930D01*
X29296210Y85505249D01*
X29303013Y85539447D01*
X29313541Y85592379D01*
X29315962Y85604550D01*
X29313541Y85616721D01*
X29313541Y85624536D01*
X29333543Y85692657D01*
X29387199Y85739150D01*
X29439541Y85750536D01*
X29447356Y85750536D01*
X29459527Y85748115D01*
X29471698Y85750536D01*
X29471702Y85750536D01*
X29476991Y85751588D01*
X29547705Y85745259D01*
X29603772Y85701703D01*
X29626809Y85641836D01*
X29635388Y85564131D01*
X29638113Y85539447D01*
X29640723Y85532316D01*
X29640723Y85532314D01*
X29682232Y85418886D01*
X29692553Y85390681D01*
X29696789Y85384378D01*
X29696789Y85384377D01*
X29739105Y85321405D01*
X29780908Y85259195D01*
X29786527Y85254082D01*
X29786528Y85254081D01*
X29892460Y85157691D01*
X29898076Y85152581D01*
X30037293Y85076992D01*
X30190522Y85036793D01*
X30274477Y85035474D01*
X30341319Y85034424D01*
X30341322Y85034424D01*
X30348916Y85034305D01*
X30503332Y85069671D01*
X30573742Y85105083D01*
X30638072Y85137437D01*
X30638075Y85137439D01*
X30644855Y85140849D01*
X30650626Y85145778D01*
X30650629Y85145780D01*
X30759536Y85238796D01*
X30759536Y85238797D01*
X30765314Y85243731D01*
X30857755Y85372376D01*
X30916842Y85519359D01*
X30930711Y85616808D01*
X30938581Y85672109D01*
X30938581Y85672112D01*
X30939162Y85676193D01*
X30939307Y85690000D01*
X30938763Y85694500D01*
X30932274Y85748115D01*
X30920276Y85847267D01*
X30864280Y85995454D01*
X30846438Y86021414D01*
X30778855Y86119749D01*
X30778854Y86119751D01*
X30774553Y86126008D01*
X30656275Y86231389D01*
X30516274Y86305516D01*
X30362633Y86344108D01*
X30355034Y86344148D01*
X30355033Y86344148D01*
X30335365Y86344251D01*
X30267350Y86364610D01*
X30221139Y86418509D01*
X30214365Y86477995D01*
X30211567Y86477995D01*
X30211567Y86490405D01*
X30213988Y86502576D01*
X30211567Y86514747D01*
X30211567Y86522561D01*
X30231569Y86590682D01*
X30285225Y86637175D01*
X30337567Y86648561D01*
X30345381Y86648561D01*
X30357552Y86646140D01*
X30369723Y86648561D01*
X30444683Y86663471D01*
X30444684Y86663472D01*
X30456853Y86665892D01*
X30508698Y86700533D01*
X30514640Y86704503D01*
X30514644Y86704506D01*
X30519786Y86707942D01*
X31050209Y87238367D01*
X31063509Y87258271D01*
X31085365Y87290979D01*
X31085366Y87290981D01*
X31092261Y87301300D01*
X31112013Y87400601D01*
X31109592Y87412772D01*
X31109592Y87420587D01*
X31129594Y87488708D01*
X31183250Y87535201D01*
X31235592Y87546587D01*
X31243407Y87546587D01*
X31255578Y87544166D01*
X31267749Y87546587D01*
X31342709Y87561497D01*
X31342710Y87561498D01*
X31354879Y87563918D01*
X31391382Y87588308D01*
X31412666Y87602529D01*
X31412671Y87602533D01*
X31417812Y87605968D01*
X31948235Y88136393D01*
X31974159Y88175189D01*
X31983391Y88189005D01*
X31983392Y88189007D01*
X31990287Y88199326D01*
X32010039Y88298627D01*
X32007618Y88310798D01*
X32007618Y88318613D01*
X32027620Y88386734D01*
X32081276Y88433227D01*
X32133618Y88444613D01*
X32141433Y88444613D01*
X32153604Y88442192D01*
X32165775Y88444613D01*
X32240735Y88459523D01*
X32240736Y88459524D01*
X32252905Y88461944D01*
X32272754Y88475206D01*
X32310692Y88500555D01*
X32310697Y88500559D01*
X32315838Y88503994D01*
X32700904Y88889061D01*
X32763215Y88923086D01*
X32834031Y88918022D01*
G37*
G04 #@! TD.AperFunction*
G04 #@! TA.AperFunction,Conductor*
G36*
X50431519Y92585498D02*
G01*
X50452493Y92568595D01*
X51467898Y91553190D01*
X51501924Y91490878D01*
X51496859Y91420063D01*
X51484840Y91399806D01*
X51481500Y91384452D01*
X51481500Y89912000D01*
X51461498Y89843879D01*
X51407842Y89797386D01*
X51355500Y89786000D01*
X49887616Y89786000D01*
X49872377Y89781525D01*
X49871172Y89780135D01*
X49869501Y89772452D01*
X49869501Y89392905D01*
X49869838Y89386386D01*
X49879757Y89290794D01*
X49882649Y89277400D01*
X49934088Y89123216D01*
X49940261Y89110038D01*
X50025563Y88972193D01*
X50034599Y88960792D01*
X50149329Y88846261D01*
X50160740Y88837249D01*
X50298743Y88752184D01*
X50311924Y88746037D01*
X50466210Y88694862D01*
X50479586Y88691995D01*
X50573938Y88682328D01*
X50580354Y88682000D01*
X50595680Y88682000D01*
X50663801Y88661998D01*
X50710294Y88608342D01*
X50720398Y88538068D01*
X50690904Y88473488D01*
X50660105Y88447716D01*
X50575510Y88397388D01*
X50571170Y88393582D01*
X50571166Y88393579D01*
X50462895Y88298627D01*
X50422892Y88263545D01*
X50297220Y88104131D01*
X50294531Y88099020D01*
X50294529Y88099017D01*
X50281573Y88074391D01*
X50202703Y87924485D01*
X50142507Y87730622D01*
X50118648Y87529036D01*
X50131924Y87326478D01*
X50133345Y87320882D01*
X50133346Y87320877D01*
X50155413Y87233990D01*
X50181892Y87129731D01*
X50184309Y87124488D01*
X50221510Y87043792D01*
X50266877Y86945384D01*
X50270210Y86940668D01*
X50337468Y86845500D01*
X50384033Y86779611D01*
X50529438Y86637965D01*
X50698220Y86525188D01*
X50703523Y86522910D01*
X50703526Y86522908D01*
X50879421Y86447338D01*
X50884728Y86445058D01*
X50957744Y86428536D01*
X51077079Y86401533D01*
X51077084Y86401532D01*
X51082716Y86400258D01*
X51088487Y86400031D01*
X51088489Y86400031D01*
X51148256Y86397683D01*
X51285553Y86392288D01*
X51385999Y86406852D01*
X51480731Y86420587D01*
X51480736Y86420588D01*
X51486445Y86421416D01*
X51491909Y86423271D01*
X51491914Y86423272D01*
X51673193Y86484808D01*
X51673198Y86484810D01*
X51678665Y86486666D01*
X51707075Y86502576D01*
X51789438Y86548702D01*
X51855776Y86585853D01*
X51861583Y86590682D01*
X51933061Y86650130D01*
X51998931Y86704914D01*
X52064094Y86733095D01*
X52134150Y86721572D01*
X52186854Y86674003D01*
X52205500Y86608040D01*
X52205500Y85848220D01*
X52185498Y85780099D01*
X52131842Y85733606D01*
X52061568Y85723502D01*
X51993971Y85755696D01*
X51935316Y85809917D01*
X51902758Y85840013D01*
X51897875Y85843094D01*
X51897871Y85843097D01*
X51735964Y85945252D01*
X51731081Y85948333D01*
X51542539Y86023554D01*
X51536879Y86024680D01*
X51536875Y86024681D01*
X51349113Y86062029D01*
X51349110Y86062029D01*
X51343446Y86063156D01*
X51337671Y86063232D01*
X51337667Y86063232D01*
X51236293Y86064559D01*
X51140471Y86065813D01*
X51134774Y86064834D01*
X51134773Y86064834D01*
X50946107Y86032415D01*
X50940410Y86031436D01*
X50749963Y85961176D01*
X50575510Y85857388D01*
X50571170Y85853582D01*
X50571166Y85853579D01*
X50447652Y85745259D01*
X50422892Y85723545D01*
X50419317Y85719010D01*
X50419316Y85719009D01*
X50413663Y85711838D01*
X50297220Y85564131D01*
X50294531Y85559020D01*
X50294529Y85559017D01*
X50260810Y85494928D01*
X50202703Y85384485D01*
X50200989Y85378964D01*
X50200987Y85378960D01*
X50199178Y85373135D01*
X50159875Y85314010D01*
X50094846Y85285520D01*
X50078846Y85284500D01*
X47316603Y85284500D01*
X47248482Y85304502D01*
X47227508Y85321405D01*
X42236797Y90312115D01*
X49869500Y90312115D01*
X49873975Y90296876D01*
X49875365Y90295671D01*
X49883048Y90294000D01*
X50955385Y90294000D01*
X50970624Y90298475D01*
X50971829Y90299865D01*
X50973500Y90307548D01*
X50973500Y91379884D01*
X50969025Y91395123D01*
X50967635Y91396328D01*
X50959952Y91397999D01*
X50580405Y91397999D01*
X50573886Y91397662D01*
X50478294Y91387743D01*
X50464900Y91384851D01*
X50310716Y91333412D01*
X50297538Y91327239D01*
X50159693Y91241937D01*
X50148292Y91232901D01*
X50033761Y91118171D01*
X50024749Y91106760D01*
X49939684Y90968757D01*
X49933537Y90955576D01*
X49882362Y90801290D01*
X49879495Y90787914D01*
X49869828Y90693562D01*
X49869500Y90687145D01*
X49869500Y90312115D01*
X42236797Y90312115D01*
X40283370Y92265542D01*
X40275944Y92273645D01*
X40258886Y92293974D01*
X40258885Y92293975D01*
X40251802Y92302416D01*
X40219286Y92321189D01*
X40210015Y92327095D01*
X40188286Y92342310D01*
X40179255Y92348634D01*
X40168606Y92351487D01*
X40165480Y92352945D01*
X40162243Y92354123D01*
X40152698Y92359634D01*
X40142664Y92361403D01*
X40085906Y92403195D01*
X40060569Y92469516D01*
X40075111Y92539008D01*
X40124914Y92589606D01*
X40186173Y92605500D01*
X50363398Y92605500D01*
X50431519Y92585498D01*
G37*
G04 #@! TD.AperFunction*
M02*
