G04 #@! TF.GenerationSoftware,KiCad,Pcbnew,6.0.9+dfsg-1*
G04 #@! TF.CreationDate,2022-12-29T08:22:08+02:00*
G04 #@! TF.ProjectId,ATF1502AS-EVB,41544631-3530-4324-9153-2d4556422e6b,rev?*
G04 #@! TF.SameCoordinates,PX75d6040PY9a0c090*
G04 #@! TF.FileFunction,Legend,Top*
G04 #@! TF.FilePolarity,Positive*
%FSLAX46Y46*%
G04 Gerber Fmt 4.6, Leading zero omitted, Abs format (unit mm)*
G04 Created by KiCad (PCBNEW 6.0.9+dfsg-1) date 2022-12-29 08:22:08*
%MOMM*%
%LPD*%
G01*
G04 APERTURE LIST*
%ADD10C,0.150000*%
%ADD11C,0.120000*%
%ADD12C,0.225000*%
%ADD13C,0.254000*%
%ADD14C,0.300000*%
%ADD15C,0.250000*%
%ADD16C,0.100000*%
G04 APERTURE END LIST*
D10*
X28070952Y79937620D02*
X28070952Y79223334D01*
X28023333Y79080477D01*
X27928095Y78985239D01*
X27785238Y78937620D01*
X27690000Y78937620D01*
X29023333Y78937620D02*
X28547142Y78937620D01*
X28547142Y79937620D01*
X29928095Y79032858D02*
X29880476Y78985239D01*
X29737619Y78937620D01*
X29642380Y78937620D01*
X29499523Y78985239D01*
X29404285Y79080477D01*
X29356666Y79175715D01*
X29309047Y79366191D01*
X29309047Y79509048D01*
X29356666Y79699524D01*
X29404285Y79794762D01*
X29499523Y79890000D01*
X29642380Y79937620D01*
X29737619Y79937620D01*
X29880476Y79890000D01*
X29928095Y79842381D01*
X30642380Y79937620D02*
X30642380Y79223334D01*
X30594761Y79080477D01*
X30499523Y78985239D01*
X30356666Y78937620D01*
X30261428Y78937620D01*
X31594761Y78937620D02*
X31118571Y78937620D01*
X31118571Y79937620D01*
X32499523Y79032858D02*
X32451904Y78985239D01*
X32309047Y78937620D01*
X32213809Y78937620D01*
X32070952Y78985239D01*
X31975714Y79080477D01*
X31928095Y79175715D01*
X31880476Y79366191D01*
X31880476Y79509048D01*
X31928095Y79699524D01*
X31975714Y79794762D01*
X32070952Y79890000D01*
X32213809Y79937620D01*
X32309047Y79937620D01*
X32451904Y79890000D01*
X32499523Y79842381D01*
X33213809Y79937620D02*
X33213809Y79223334D01*
X33166190Y79080477D01*
X33070952Y78985239D01*
X32928095Y78937620D01*
X32832857Y78937620D01*
X34166190Y78937620D02*
X33690000Y78937620D01*
X33690000Y79937620D01*
X35070952Y79032858D02*
X35023333Y78985239D01*
X34880476Y78937620D01*
X34785238Y78937620D01*
X34642380Y78985239D01*
X34547142Y79080477D01*
X34499523Y79175715D01*
X34451904Y79366191D01*
X34451904Y79509048D01*
X34499523Y79699524D01*
X34547142Y79794762D01*
X34642380Y79890000D01*
X34785238Y79937620D01*
X34880476Y79937620D01*
X35023333Y79890000D01*
X35070952Y79842381D01*
X35785238Y79937620D02*
X35785238Y79223334D01*
X35737619Y79080477D01*
X35642380Y78985239D01*
X35499523Y78937620D01*
X35404285Y78937620D01*
X36737619Y78937620D02*
X36261428Y78937620D01*
X36261428Y79937620D01*
X37642380Y79032858D02*
X37594761Y78985239D01*
X37451904Y78937620D01*
X37356666Y78937620D01*
X37213809Y78985239D01*
X37118571Y79080477D01*
X37070952Y79175715D01*
X37023333Y79366191D01*
X37023333Y79509048D01*
X37070952Y79699524D01*
X37118571Y79794762D01*
X37213809Y79890000D01*
X37356666Y79937620D01*
X37451904Y79937620D01*
X37594761Y79890000D01*
X37642380Y79842381D01*
D11*
X25170000Y48360000D02*
X27710000Y48360000D01*
X27710000Y48360000D02*
X27710000Y45820000D01*
X27710000Y45820000D02*
X25170000Y45820000D01*
X25170000Y45820000D02*
X25170000Y48360000D01*
G36*
X25170000Y48360000D02*
G01*
X27710000Y48360000D01*
X27710000Y45820000D01*
X25170000Y45820000D01*
X25170000Y48360000D01*
G37*
X34568000Y57250000D02*
X37870000Y57250000D01*
X32536000Y42010000D02*
X32028000Y42010000D01*
X25170000Y55980000D02*
X27710000Y55980000D01*
X27710000Y55980000D02*
X27710000Y53440000D01*
X27710000Y53440000D02*
X25170000Y53440000D01*
X25170000Y53440000D02*
X25170000Y55980000D01*
G36*
X25170000Y55980000D02*
G01*
X27710000Y55980000D01*
X27710000Y53440000D01*
X25170000Y53440000D01*
X25170000Y55980000D01*
G37*
X37870000Y38200000D02*
X32790000Y38200000D01*
X25170000Y43280000D02*
X27710000Y43280000D01*
X27710000Y43280000D02*
X27710000Y40740000D01*
X27710000Y40740000D02*
X25170000Y40740000D01*
X25170000Y40740000D02*
X25170000Y43280000D01*
G36*
X25170000Y43280000D02*
G01*
X27710000Y43280000D01*
X27710000Y40740000D01*
X25170000Y40740000D01*
X25170000Y43280000D01*
G37*
X40410000Y17880000D02*
X37870000Y17880000D01*
X37870000Y17880000D02*
X37870000Y15340000D01*
X37870000Y15340000D02*
X40410000Y15340000D01*
X40410000Y15340000D02*
X40410000Y17880000D01*
G36*
X40410000Y17880000D02*
G01*
X37870000Y17880000D01*
X37870000Y15340000D01*
X40410000Y15340000D01*
X40410000Y17880000D01*
G37*
X40410000Y48360000D02*
X37870000Y48360000D01*
X37870000Y48360000D02*
X37870000Y35660000D01*
X37870000Y35660000D02*
X40410000Y35660000D01*
X40410000Y35660000D02*
X40410000Y48360000D01*
G36*
X40410000Y48360000D02*
G01*
X37870000Y48360000D01*
X37870000Y35660000D01*
X40410000Y35660000D01*
X40410000Y48360000D01*
G37*
X34568000Y59790000D02*
X37870000Y59790000D01*
X27710000Y59790000D02*
X31012000Y59790000D01*
X33298000Y48106000D02*
X33298000Y48614000D01*
X32790000Y48106000D02*
X37870000Y48106000D01*
X32028000Y42010000D02*
X32028000Y48614000D01*
X40410000Y30580000D02*
X37870000Y30580000D01*
X37870000Y30580000D02*
X37870000Y28040000D01*
X37870000Y28040000D02*
X40410000Y28040000D01*
X40410000Y28040000D02*
X40410000Y30580000D01*
G36*
X40410000Y30580000D02*
G01*
X37870000Y30580000D01*
X37870000Y28040000D01*
X40410000Y28040000D01*
X40410000Y30580000D01*
G37*
X32790000Y38200000D02*
X32790000Y48106000D01*
X27710000Y57250000D02*
X31012000Y57250000D01*
X25170000Y20420000D02*
X27710000Y20420000D01*
X27710000Y20420000D02*
X27710000Y17880000D01*
X27710000Y17880000D02*
X25170000Y17880000D01*
X25170000Y17880000D02*
X25170000Y20420000D01*
G36*
X25170000Y20420000D02*
G01*
X27710000Y20420000D01*
X27710000Y17880000D01*
X25170000Y17880000D01*
X25170000Y20420000D01*
G37*
D12*
X28561964Y54252858D02*
X28047678Y54252858D01*
X28304821Y54252858D02*
X28304821Y55152858D01*
X28219107Y55024286D01*
X28133392Y54938572D01*
X28047678Y54895715D01*
X29590535Y55195715D02*
X28819107Y54038572D01*
X29804821Y55152858D02*
X30404821Y55152858D01*
X30019107Y54252858D01*
X27827678Y52527143D02*
X27870535Y52570000D01*
X27956250Y52612858D01*
X28170535Y52612858D01*
X28256250Y52570000D01*
X28299107Y52527143D01*
X28341964Y52441429D01*
X28341964Y52355715D01*
X28299107Y52227143D01*
X27784821Y51712858D01*
X28341964Y51712858D01*
X29370535Y52655715D02*
X28599107Y51498572D01*
X29799107Y52227143D02*
X29713392Y52270000D01*
X29670535Y52312858D01*
X29627678Y52398572D01*
X29627678Y52441429D01*
X29670535Y52527143D01*
X29713392Y52570000D01*
X29799107Y52612858D01*
X29970535Y52612858D01*
X30056250Y52570000D01*
X30099107Y52527143D01*
X30141964Y52441429D01*
X30141964Y52398572D01*
X30099107Y52312858D01*
X30056250Y52270000D01*
X29970535Y52227143D01*
X29799107Y52227143D01*
X29713392Y52184286D01*
X29670535Y52141429D01*
X29627678Y52055715D01*
X29627678Y51884286D01*
X29670535Y51798572D01*
X29713392Y51755715D01*
X29799107Y51712858D01*
X29970535Y51712858D01*
X30056250Y51755715D01*
X30099107Y51798572D01*
X30141964Y51884286D01*
X30141964Y52055715D01*
X30099107Y52141429D01*
X30056250Y52184286D01*
X29970535Y52227143D01*
X27784821Y50072858D02*
X28341964Y50072858D01*
X28041964Y49730000D01*
X28170535Y49730000D01*
X28256250Y49687143D01*
X28299107Y49644286D01*
X28341964Y49558572D01*
X28341964Y49344286D01*
X28299107Y49258572D01*
X28256250Y49215715D01*
X28170535Y49172858D01*
X27913392Y49172858D01*
X27827678Y49215715D01*
X27784821Y49258572D01*
X29370535Y50115715D02*
X28599107Y48958572D01*
X29713392Y49172858D02*
X29884821Y49172858D01*
X29970535Y49215715D01*
X30013392Y49258572D01*
X30099107Y49387143D01*
X30141964Y49558572D01*
X30141964Y49901429D01*
X30099107Y49987143D01*
X30056250Y50030000D01*
X29970535Y50072858D01*
X29799107Y50072858D01*
X29713392Y50030000D01*
X29670535Y49987143D01*
X29627678Y49901429D01*
X29627678Y49687143D01*
X29670535Y49601429D01*
X29713392Y49558572D01*
X29799107Y49515715D01*
X29970535Y49515715D01*
X30056250Y49558572D01*
X30099107Y49601429D01*
X30141964Y49687143D01*
X28519107Y47582858D02*
X28090535Y47582858D01*
X28047678Y47154286D01*
X28090535Y47197143D01*
X28176250Y47240000D01*
X28390535Y47240000D01*
X28476250Y47197143D01*
X28519107Y47154286D01*
X28561964Y47068572D01*
X28561964Y46854286D01*
X28519107Y46768572D01*
X28476250Y46725715D01*
X28390535Y46682858D01*
X28176250Y46682858D01*
X28090535Y46725715D01*
X28047678Y46768572D01*
X29590535Y47625715D02*
X28819107Y46468572D01*
X30361964Y46682858D02*
X29847678Y46682858D01*
X30104821Y46682858D02*
X30104821Y47582858D01*
X30019107Y47454286D01*
X29933392Y47368572D01*
X29847678Y47325715D01*
X31219107Y46682858D02*
X30704821Y46682858D01*
X30961964Y46682858D02*
X30961964Y47582858D01*
X30876250Y47454286D01*
X30790535Y47368572D01*
X30704821Y47325715D01*
X28256250Y44992858D02*
X28084821Y44992858D01*
X27999107Y44950000D01*
X27956250Y44907143D01*
X27870535Y44778572D01*
X27827678Y44607143D01*
X27827678Y44264286D01*
X27870535Y44178572D01*
X27913392Y44135715D01*
X27999107Y44092858D01*
X28170535Y44092858D01*
X28256250Y44135715D01*
X28299107Y44178572D01*
X28341964Y44264286D01*
X28341964Y44478572D01*
X28299107Y44564286D01*
X28256250Y44607143D01*
X28170535Y44650000D01*
X27999107Y44650000D01*
X27913392Y44607143D01*
X27870535Y44564286D01*
X27827678Y44478572D01*
X29370535Y45035715D02*
X28599107Y43878572D01*
X30141964Y44092858D02*
X29627678Y44092858D01*
X29884821Y44092858D02*
X29884821Y44992858D01*
X29799107Y44864286D01*
X29713392Y44778572D01*
X29627678Y44735715D01*
X30484821Y44907143D02*
X30527678Y44950000D01*
X30613392Y44992858D01*
X30827678Y44992858D01*
X30913392Y44950000D01*
X30956250Y44907143D01*
X30999107Y44821429D01*
X30999107Y44735715D01*
X30956250Y44607143D01*
X30441964Y44092858D01*
X30999107Y44092858D01*
X28004821Y42502858D02*
X28604821Y42502858D01*
X28219107Y41602858D01*
X29590535Y42545715D02*
X28819107Y41388572D01*
X30361964Y41602858D02*
X29847678Y41602858D01*
X30104821Y41602858D02*
X30104821Y42502858D01*
X30019107Y42374286D01*
X29933392Y42288572D01*
X29847678Y42245715D01*
X30661964Y42502858D02*
X31219107Y42502858D01*
X30919107Y42160000D01*
X31047678Y42160000D01*
X31133392Y42117143D01*
X31176250Y42074286D01*
X31219107Y41988572D01*
X31219107Y41774286D01*
X31176250Y41688572D01*
X31133392Y41645715D01*
X31047678Y41602858D01*
X30790535Y41602858D01*
X30704821Y41645715D01*
X30661964Y41688572D01*
X27999107Y39527143D02*
X27913392Y39570000D01*
X27870535Y39612858D01*
X27827678Y39698572D01*
X27827678Y39741429D01*
X27870535Y39827143D01*
X27913392Y39870000D01*
X27999107Y39912858D01*
X28170535Y39912858D01*
X28256250Y39870000D01*
X28299107Y39827143D01*
X28341964Y39741429D01*
X28341964Y39698572D01*
X28299107Y39612858D01*
X28256250Y39570000D01*
X28170535Y39527143D01*
X27999107Y39527143D01*
X27913392Y39484286D01*
X27870535Y39441429D01*
X27827678Y39355715D01*
X27827678Y39184286D01*
X27870535Y39098572D01*
X27913392Y39055715D01*
X27999107Y39012858D01*
X28170535Y39012858D01*
X28256250Y39055715D01*
X28299107Y39098572D01*
X28341964Y39184286D01*
X28341964Y39355715D01*
X28299107Y39441429D01*
X28256250Y39484286D01*
X28170535Y39527143D01*
X29370535Y39955715D02*
X28599107Y38798572D01*
X30141964Y39012858D02*
X29627678Y39012858D01*
X29884821Y39012858D02*
X29884821Y39912858D01*
X29799107Y39784286D01*
X29713392Y39698572D01*
X29627678Y39655715D01*
X30913392Y39612858D02*
X30913392Y39012858D01*
X30699107Y39955715D02*
X30484821Y39312858D01*
X31041964Y39312858D01*
X28341964Y36472858D02*
X27827678Y36472858D01*
X28084821Y36472858D02*
X28084821Y37372858D01*
X27999107Y37244286D01*
X27913392Y37158572D01*
X27827678Y37115715D01*
X28899107Y37372858D02*
X28984821Y37372858D01*
X29070535Y37330000D01*
X29113392Y37287143D01*
X29156250Y37201429D01*
X29199107Y37030000D01*
X29199107Y36815715D01*
X29156250Y36644286D01*
X29113392Y36558572D01*
X29070535Y36515715D01*
X28984821Y36472858D01*
X28899107Y36472858D01*
X28813392Y36515715D01*
X28770535Y36558572D01*
X28727678Y36644286D01*
X28684821Y36815715D01*
X28684821Y37030000D01*
X28727678Y37201429D01*
X28770535Y37287143D01*
X28813392Y37330000D01*
X28899107Y37372858D01*
X30227678Y37415715D02*
X29456250Y36258572D01*
X30999107Y36472858D02*
X30484821Y36472858D01*
X30741964Y36472858D02*
X30741964Y37372858D01*
X30656250Y37244286D01*
X30570535Y37158572D01*
X30484821Y37115715D01*
X31770535Y37372858D02*
X31599107Y37372858D01*
X31513392Y37330000D01*
X31470535Y37287143D01*
X31384821Y37158572D01*
X31341964Y36987143D01*
X31341964Y36644286D01*
X31384821Y36558572D01*
X31427678Y36515715D01*
X31513392Y36472858D01*
X31684821Y36472858D01*
X31770535Y36515715D01*
X31813392Y36558572D01*
X31856250Y36644286D01*
X31856250Y36858572D01*
X31813392Y36944286D01*
X31770535Y36987143D01*
X31684821Y37030000D01*
X31513392Y37030000D01*
X31427678Y36987143D01*
X31384821Y36944286D01*
X31341964Y36858572D01*
X28341964Y33932858D02*
X27827678Y33932858D01*
X28084821Y33932858D02*
X28084821Y34832858D01*
X27999107Y34704286D01*
X27913392Y34618572D01*
X27827678Y34575715D01*
X29199107Y33932858D02*
X28684821Y33932858D01*
X28941964Y33932858D02*
X28941964Y34832858D01*
X28856250Y34704286D01*
X28770535Y34618572D01*
X28684821Y34575715D01*
X30227678Y34875715D02*
X29456250Y33718572D01*
X30999107Y33932858D02*
X30484821Y33932858D01*
X30741964Y33932858D02*
X30741964Y34832858D01*
X30656250Y34704286D01*
X30570535Y34618572D01*
X30484821Y34575715D01*
X31299107Y34832858D02*
X31899107Y34832858D01*
X31513392Y33932858D01*
X28341964Y31392858D02*
X27827678Y31392858D01*
X28084821Y31392858D02*
X28084821Y32292858D01*
X27999107Y32164286D01*
X27913392Y32078572D01*
X27827678Y32035715D01*
X28684821Y32207143D02*
X28727678Y32250000D01*
X28813392Y32292858D01*
X29027678Y32292858D01*
X29113392Y32250000D01*
X29156250Y32207143D01*
X29199107Y32121429D01*
X29199107Y32035715D01*
X29156250Y31907143D01*
X28641964Y31392858D01*
X29199107Y31392858D01*
X30227678Y32335715D02*
X29456250Y31178572D01*
X30999107Y31392858D02*
X30484821Y31392858D01*
X30741964Y31392858D02*
X30741964Y32292858D01*
X30656250Y32164286D01*
X30570535Y32078572D01*
X30484821Y32035715D01*
X31513392Y31907143D02*
X31427678Y31950000D01*
X31384821Y31992858D01*
X31341964Y32078572D01*
X31341964Y32121429D01*
X31384821Y32207143D01*
X31427678Y32250000D01*
X31513392Y32292858D01*
X31684821Y32292858D01*
X31770535Y32250000D01*
X31813392Y32207143D01*
X31856250Y32121429D01*
X31856250Y32078572D01*
X31813392Y31992858D01*
X31770535Y31950000D01*
X31684821Y31907143D01*
X31513392Y31907143D01*
X31427678Y31864286D01*
X31384821Y31821429D01*
X31341964Y31735715D01*
X31341964Y31564286D01*
X31384821Y31478572D01*
X31427678Y31435715D01*
X31513392Y31392858D01*
X31684821Y31392858D01*
X31770535Y31435715D01*
X31813392Y31478572D01*
X31856250Y31564286D01*
X31856250Y31735715D01*
X31813392Y31821429D01*
X31770535Y31864286D01*
X31684821Y31907143D01*
X28341964Y28852858D02*
X27827678Y28852858D01*
X28084821Y28852858D02*
X28084821Y29752858D01*
X27999107Y29624286D01*
X27913392Y29538572D01*
X27827678Y29495715D01*
X28641964Y29752858D02*
X29199107Y29752858D01*
X28899107Y29410000D01*
X29027678Y29410000D01*
X29113392Y29367143D01*
X29156250Y29324286D01*
X29199107Y29238572D01*
X29199107Y29024286D01*
X29156250Y28938572D01*
X29113392Y28895715D01*
X29027678Y28852858D01*
X28770535Y28852858D01*
X28684821Y28895715D01*
X28641964Y28938572D01*
X30227678Y29795715D02*
X29456250Y28638572D01*
X30999107Y28852858D02*
X30484821Y28852858D01*
X30741964Y28852858D02*
X30741964Y29752858D01*
X30656250Y29624286D01*
X30570535Y29538572D01*
X30484821Y29495715D01*
X31427678Y28852858D02*
X31599107Y28852858D01*
X31684821Y28895715D01*
X31727678Y28938572D01*
X31813392Y29067143D01*
X31856250Y29238572D01*
X31856250Y29581429D01*
X31813392Y29667143D01*
X31770535Y29710000D01*
X31684821Y29752858D01*
X31513392Y29752858D01*
X31427678Y29710000D01*
X31384821Y29667143D01*
X31341964Y29581429D01*
X31341964Y29367143D01*
X31384821Y29281429D01*
X31427678Y29238572D01*
X31513392Y29195715D01*
X31684821Y29195715D01*
X31770535Y29238572D01*
X31813392Y29281429D01*
X31856250Y29367143D01*
X28341964Y26312858D02*
X27827678Y26312858D01*
X28084821Y26312858D02*
X28084821Y27212858D01*
X27999107Y27084286D01*
X27913392Y26998572D01*
X27827678Y26955715D01*
X29113392Y26912858D02*
X29113392Y26312858D01*
X28899107Y27255715D02*
X28684821Y26612858D01*
X29241964Y26612858D01*
X30227678Y27255715D02*
X29456250Y26098572D01*
X30484821Y27127143D02*
X30527678Y27170000D01*
X30613392Y27212858D01*
X30827678Y27212858D01*
X30913392Y27170000D01*
X30956250Y27127143D01*
X30999107Y27041429D01*
X30999107Y26955715D01*
X30956250Y26827143D01*
X30441964Y26312858D01*
X30999107Y26312858D01*
X31556250Y27212858D02*
X31641964Y27212858D01*
X31727678Y27170000D01*
X31770535Y27127143D01*
X31813392Y27041429D01*
X31856250Y26870000D01*
X31856250Y26655715D01*
X31813392Y26484286D01*
X31770535Y26398572D01*
X31727678Y26355715D01*
X31641964Y26312858D01*
X31556250Y26312858D01*
X31470535Y26355715D01*
X31427678Y26398572D01*
X31384821Y26484286D01*
X31341964Y26655715D01*
X31341964Y26870000D01*
X31384821Y27041429D01*
X31427678Y27127143D01*
X31470535Y27170000D01*
X31556250Y27212858D01*
X28341964Y23772858D02*
X27827678Y23772858D01*
X28084821Y23772858D02*
X28084821Y24672858D01*
X27999107Y24544286D01*
X27913392Y24458572D01*
X27827678Y24415715D01*
X29156250Y24672858D02*
X28727678Y24672858D01*
X28684821Y24244286D01*
X28727678Y24287143D01*
X28813392Y24330000D01*
X29027678Y24330000D01*
X29113392Y24287143D01*
X29156250Y24244286D01*
X29199107Y24158572D01*
X29199107Y23944286D01*
X29156250Y23858572D01*
X29113392Y23815715D01*
X29027678Y23772858D01*
X28813392Y23772858D01*
X28727678Y23815715D01*
X28684821Y23858572D01*
X30227678Y24715715D02*
X29456250Y23558572D01*
X30484821Y24587143D02*
X30527678Y24630000D01*
X30613392Y24672858D01*
X30827678Y24672858D01*
X30913392Y24630000D01*
X30956250Y24587143D01*
X30999107Y24501429D01*
X30999107Y24415715D01*
X30956250Y24287143D01*
X30441964Y23772858D01*
X30999107Y23772858D01*
X31856250Y23772858D02*
X31341964Y23772858D01*
X31599107Y23772858D02*
X31599107Y24672858D01*
X31513392Y24544286D01*
X31427678Y24458572D01*
X31341964Y24415715D01*
X28341964Y21232858D02*
X27827678Y21232858D01*
X28084821Y21232858D02*
X28084821Y22132858D01*
X27999107Y22004286D01*
X27913392Y21918572D01*
X27827678Y21875715D01*
X28856250Y21747143D02*
X28770535Y21790000D01*
X28727678Y21832858D01*
X28684821Y21918572D01*
X28684821Y21961429D01*
X28727678Y22047143D01*
X28770535Y22090000D01*
X28856250Y22132858D01*
X29027678Y22132858D01*
X29113392Y22090000D01*
X29156250Y22047143D01*
X29199107Y21961429D01*
X29199107Y21918572D01*
X29156250Y21832858D01*
X29113392Y21790000D01*
X29027678Y21747143D01*
X28856250Y21747143D01*
X28770535Y21704286D01*
X28727678Y21661429D01*
X28684821Y21575715D01*
X28684821Y21404286D01*
X28727678Y21318572D01*
X28770535Y21275715D01*
X28856250Y21232858D01*
X29027678Y21232858D01*
X29113392Y21275715D01*
X29156250Y21318572D01*
X29199107Y21404286D01*
X29199107Y21575715D01*
X29156250Y21661429D01*
X29113392Y21704286D01*
X29027678Y21747143D01*
X30227678Y22175715D02*
X29456250Y21018572D01*
X30484821Y22047143D02*
X30527678Y22090000D01*
X30613392Y22132858D01*
X30827678Y22132858D01*
X30913392Y22090000D01*
X30956250Y22047143D01*
X30999107Y21961429D01*
X30999107Y21875715D01*
X30956250Y21747143D01*
X30441964Y21232858D01*
X30999107Y21232858D01*
X31770535Y21832858D02*
X31770535Y21232858D01*
X31556250Y22175715D02*
X31341964Y21532858D01*
X31899107Y21532858D01*
X28571964Y18742858D02*
X28057678Y18742858D01*
X28314821Y18742858D02*
X28314821Y19642858D01*
X28229107Y19514286D01*
X28143392Y19428572D01*
X28057678Y19385715D01*
X29000535Y18742858D02*
X29171964Y18742858D01*
X29257678Y18785715D01*
X29300535Y18828572D01*
X29386250Y18957143D01*
X29429107Y19128572D01*
X29429107Y19471429D01*
X29386250Y19557143D01*
X29343392Y19600000D01*
X29257678Y19642858D01*
X29086250Y19642858D01*
X29000535Y19600000D01*
X28957678Y19557143D01*
X28914821Y19471429D01*
X28914821Y19257143D01*
X28957678Y19171429D01*
X29000535Y19128572D01*
X29086250Y19085715D01*
X29257678Y19085715D01*
X29343392Y19128572D01*
X29386250Y19171429D01*
X29429107Y19257143D01*
X30457678Y19685715D02*
X29686250Y18528572D01*
X30714821Y19557143D02*
X30757678Y19600000D01*
X30843392Y19642858D01*
X31057678Y19642858D01*
X31143392Y19600000D01*
X31186250Y19557143D01*
X31229107Y19471429D01*
X31229107Y19385715D01*
X31186250Y19257143D01*
X30671964Y18742858D01*
X31229107Y18742858D01*
X32043392Y19642858D02*
X31614821Y19642858D01*
X31571964Y19214286D01*
X31614821Y19257143D01*
X31700535Y19300000D01*
X31914821Y19300000D01*
X32000535Y19257143D01*
X32043392Y19214286D01*
X32086250Y19128572D01*
X32086250Y18914286D01*
X32043392Y18828572D01*
X32000535Y18785715D01*
X31914821Y18742858D01*
X31700535Y18742858D01*
X31614821Y18785715D01*
X31571964Y18828572D01*
X27827678Y16967143D02*
X27870535Y17010000D01*
X27956250Y17052858D01*
X28170535Y17052858D01*
X28256250Y17010000D01*
X28299107Y16967143D01*
X28341964Y16881429D01*
X28341964Y16795715D01*
X28299107Y16667143D01*
X27784821Y16152858D01*
X28341964Y16152858D01*
X28899107Y17052858D02*
X28984821Y17052858D01*
X29070535Y17010000D01*
X29113392Y16967143D01*
X29156250Y16881429D01*
X29199107Y16710000D01*
X29199107Y16495715D01*
X29156250Y16324286D01*
X29113392Y16238572D01*
X29070535Y16195715D01*
X28984821Y16152858D01*
X28899107Y16152858D01*
X28813392Y16195715D01*
X28770535Y16238572D01*
X28727678Y16324286D01*
X28684821Y16495715D01*
X28684821Y16710000D01*
X28727678Y16881429D01*
X28770535Y16967143D01*
X28813392Y17010000D01*
X28899107Y17052858D01*
X30227678Y17095715D02*
X29456250Y15938572D01*
X30484821Y16967143D02*
X30527678Y17010000D01*
X30613392Y17052858D01*
X30827678Y17052858D01*
X30913392Y17010000D01*
X30956250Y16967143D01*
X30999107Y16881429D01*
X30999107Y16795715D01*
X30956250Y16667143D01*
X30441964Y16152858D01*
X30999107Y16152858D01*
X31770535Y17052858D02*
X31599107Y17052858D01*
X31513392Y17010000D01*
X31470535Y16967143D01*
X31384821Y16838572D01*
X31341964Y16667143D01*
X31341964Y16324286D01*
X31384821Y16238572D01*
X31427678Y16195715D01*
X31513392Y16152858D01*
X31684821Y16152858D01*
X31770535Y16195715D01*
X31813392Y16238572D01*
X31856250Y16324286D01*
X31856250Y16538572D01*
X31813392Y16624286D01*
X31770535Y16667143D01*
X31684821Y16710000D01*
X31513392Y16710000D01*
X31427678Y16667143D01*
X31384821Y16624286D01*
X31341964Y16538572D01*
X27587678Y14427143D02*
X27630535Y14470000D01*
X27716250Y14512858D01*
X27930535Y14512858D01*
X28016250Y14470000D01*
X28059107Y14427143D01*
X28101964Y14341429D01*
X28101964Y14255715D01*
X28059107Y14127143D01*
X27544821Y13612858D01*
X28101964Y13612858D01*
X28959107Y13612858D02*
X28444821Y13612858D01*
X28701964Y13612858D02*
X28701964Y14512858D01*
X28616250Y14384286D01*
X28530535Y14298572D01*
X28444821Y14255715D01*
X29987678Y14555715D02*
X29216250Y13398572D01*
X30244821Y14427143D02*
X30287678Y14470000D01*
X30373392Y14512858D01*
X30587678Y14512858D01*
X30673392Y14470000D01*
X30716250Y14427143D01*
X30759107Y14341429D01*
X30759107Y14255715D01*
X30716250Y14127143D01*
X30201964Y13612858D01*
X30759107Y13612858D01*
X31059107Y14512858D02*
X31659107Y14512858D01*
X31273392Y13612858D01*
X27587678Y11887143D02*
X27630535Y11930000D01*
X27716250Y11972858D01*
X27930535Y11972858D01*
X28016250Y11930000D01*
X28059107Y11887143D01*
X28101964Y11801429D01*
X28101964Y11715715D01*
X28059107Y11587143D01*
X27544821Y11072858D01*
X28101964Y11072858D01*
X28444821Y11887143D02*
X28487678Y11930000D01*
X28573392Y11972858D01*
X28787678Y11972858D01*
X28873392Y11930000D01*
X28916250Y11887143D01*
X28959107Y11801429D01*
X28959107Y11715715D01*
X28916250Y11587143D01*
X28401964Y11072858D01*
X28959107Y11072858D01*
X29987678Y12015715D02*
X29216250Y10858572D01*
X30244821Y11887143D02*
X30287678Y11930000D01*
X30373392Y11972858D01*
X30587678Y11972858D01*
X30673392Y11930000D01*
X30716250Y11887143D01*
X30759107Y11801429D01*
X30759107Y11715715D01*
X30716250Y11587143D01*
X30201964Y11072858D01*
X30759107Y11072858D01*
X31273392Y11587143D02*
X31187678Y11630000D01*
X31144821Y11672858D01*
X31101964Y11758572D01*
X31101964Y11801429D01*
X31144821Y11887143D01*
X31187678Y11930000D01*
X31273392Y11972858D01*
X31444821Y11972858D01*
X31530535Y11930000D01*
X31573392Y11887143D01*
X31616250Y11801429D01*
X31616250Y11758572D01*
X31573392Y11672858D01*
X31530535Y11630000D01*
X31444821Y11587143D01*
X31273392Y11587143D01*
X31187678Y11544286D01*
X31144821Y11501429D01*
X31101964Y11415715D01*
X31101964Y11244286D01*
X31144821Y11158572D01*
X31187678Y11115715D01*
X31273392Y11072858D01*
X31444821Y11072858D01*
X31530535Y11115715D01*
X31573392Y11158572D01*
X31616250Y11244286D01*
X31616250Y11415715D01*
X31573392Y11501429D01*
X31530535Y11544286D01*
X31444821Y11587143D01*
X33933750Y11887143D02*
X33976607Y11930000D01*
X34062321Y11972858D01*
X34276607Y11972858D01*
X34362321Y11930000D01*
X34405178Y11887143D01*
X34448035Y11801429D01*
X34448035Y11715715D01*
X34405178Y11587143D01*
X33890892Y11072858D01*
X34448035Y11072858D01*
X34748035Y11972858D02*
X35305178Y11972858D01*
X35005178Y11630000D01*
X35133750Y11630000D01*
X35219464Y11587143D01*
X35262321Y11544286D01*
X35305178Y11458572D01*
X35305178Y11244286D01*
X35262321Y11158572D01*
X35219464Y11115715D01*
X35133750Y11072858D01*
X34876607Y11072858D01*
X34790892Y11115715D01*
X34748035Y11158572D01*
X36333750Y12015715D02*
X35562321Y10858572D01*
X36590892Y11887143D02*
X36633750Y11930000D01*
X36719464Y11972858D01*
X36933750Y11972858D01*
X37019464Y11930000D01*
X37062321Y11887143D01*
X37105178Y11801429D01*
X37105178Y11715715D01*
X37062321Y11587143D01*
X36548035Y11072858D01*
X37105178Y11072858D01*
X37533750Y11072858D02*
X37705178Y11072858D01*
X37790892Y11115715D01*
X37833750Y11158572D01*
X37919464Y11287143D01*
X37962321Y11458572D01*
X37962321Y11801429D01*
X37919464Y11887143D01*
X37876607Y11930000D01*
X37790892Y11972858D01*
X37619464Y11972858D01*
X37533750Y11930000D01*
X37490892Y11887143D01*
X37448035Y11801429D01*
X37448035Y11587143D01*
X37490892Y11501429D01*
X37533750Y11458572D01*
X37619464Y11415715D01*
X37790892Y11415715D01*
X37876607Y11458572D01*
X37919464Y11501429D01*
X37962321Y11587143D01*
X34013750Y14427143D02*
X34056607Y14470000D01*
X34142321Y14512858D01*
X34356607Y14512858D01*
X34442321Y14470000D01*
X34485178Y14427143D01*
X34528035Y14341429D01*
X34528035Y14255715D01*
X34485178Y14127143D01*
X33970892Y13612858D01*
X34528035Y13612858D01*
X35342321Y14512858D02*
X34913750Y14512858D01*
X34870892Y14084286D01*
X34913750Y14127143D01*
X34999464Y14170000D01*
X35213750Y14170000D01*
X35299464Y14127143D01*
X35342321Y14084286D01*
X35385178Y13998572D01*
X35385178Y13784286D01*
X35342321Y13698572D01*
X35299464Y13655715D01*
X35213750Y13612858D01*
X34999464Y13612858D01*
X34913750Y13655715D01*
X34870892Y13698572D01*
X36413750Y14555715D02*
X35642321Y13398572D01*
X36628035Y14512858D02*
X37185178Y14512858D01*
X36885178Y14170000D01*
X37013750Y14170000D01*
X37099464Y14127143D01*
X37142321Y14084286D01*
X37185178Y13998572D01*
X37185178Y13784286D01*
X37142321Y13698572D01*
X37099464Y13655715D01*
X37013750Y13612858D01*
X36756607Y13612858D01*
X36670892Y13655715D01*
X36628035Y13698572D01*
X38042321Y13612858D02*
X37528035Y13612858D01*
X37785178Y13612858D02*
X37785178Y14512858D01*
X37699464Y14384286D01*
X37613750Y14298572D01*
X37528035Y14255715D01*
X33413750Y17017143D02*
X33456607Y17060000D01*
X33542321Y17102858D01*
X33756607Y17102858D01*
X33842321Y17060000D01*
X33885178Y17017143D01*
X33928035Y16931429D01*
X33928035Y16845715D01*
X33885178Y16717143D01*
X33370892Y16202858D01*
X33928035Y16202858D01*
X34699464Y17102858D02*
X34528035Y17102858D01*
X34442321Y17060000D01*
X34399464Y17017143D01*
X34313750Y16888572D01*
X34270892Y16717143D01*
X34270892Y16374286D01*
X34313750Y16288572D01*
X34356607Y16245715D01*
X34442321Y16202858D01*
X34613750Y16202858D01*
X34699464Y16245715D01*
X34742321Y16288572D01*
X34785178Y16374286D01*
X34785178Y16588572D01*
X34742321Y16674286D01*
X34699464Y16717143D01*
X34613750Y16760000D01*
X34442321Y16760000D01*
X34356607Y16717143D01*
X34313750Y16674286D01*
X34270892Y16588572D01*
X35813750Y17145715D02*
X35042321Y15988572D01*
X36028035Y17102858D02*
X36585178Y17102858D01*
X36285178Y16760000D01*
X36413750Y16760000D01*
X36499464Y16717143D01*
X36542321Y16674286D01*
X36585178Y16588572D01*
X36585178Y16374286D01*
X36542321Y16288572D01*
X36499464Y16245715D01*
X36413750Y16202858D01*
X36156607Y16202858D01*
X36070892Y16245715D01*
X36028035Y16288572D01*
X36928035Y17017143D02*
X36970892Y17060000D01*
X37056607Y17102858D01*
X37270892Y17102858D01*
X37356607Y17060000D01*
X37399464Y17017143D01*
X37442321Y16931429D01*
X37442321Y16845715D01*
X37399464Y16717143D01*
X36885178Y16202858D01*
X37442321Y16202858D01*
X33777750Y19507143D02*
X33820607Y19550000D01*
X33906321Y19592858D01*
X34120607Y19592858D01*
X34206321Y19550000D01*
X34249178Y19507143D01*
X34292035Y19421429D01*
X34292035Y19335715D01*
X34249178Y19207143D01*
X33734892Y18692858D01*
X34292035Y18692858D01*
X34592035Y19592858D02*
X35192035Y19592858D01*
X34806321Y18692858D01*
X36177750Y19635715D02*
X35406321Y18478572D01*
X36392035Y19592858D02*
X36949178Y19592858D01*
X36649178Y19250000D01*
X36777750Y19250000D01*
X36863464Y19207143D01*
X36906321Y19164286D01*
X36949178Y19078572D01*
X36949178Y18864286D01*
X36906321Y18778572D01*
X36863464Y18735715D01*
X36777750Y18692858D01*
X36520607Y18692858D01*
X36434892Y18735715D01*
X36392035Y18778572D01*
X37249178Y19592858D02*
X37806321Y19592858D01*
X37506321Y19250000D01*
X37634892Y19250000D01*
X37720607Y19207143D01*
X37763464Y19164286D01*
X37806321Y19078572D01*
X37806321Y18864286D01*
X37763464Y18778572D01*
X37720607Y18735715D01*
X37634892Y18692858D01*
X37377750Y18692858D01*
X37292035Y18735715D01*
X37249178Y18778572D01*
X33777750Y22047143D02*
X33820607Y22090000D01*
X33906321Y22132858D01*
X34120607Y22132858D01*
X34206321Y22090000D01*
X34249178Y22047143D01*
X34292035Y21961429D01*
X34292035Y21875715D01*
X34249178Y21747143D01*
X33734892Y21232858D01*
X34292035Y21232858D01*
X34806321Y21747143D02*
X34720607Y21790000D01*
X34677750Y21832858D01*
X34634892Y21918572D01*
X34634892Y21961429D01*
X34677750Y22047143D01*
X34720607Y22090000D01*
X34806321Y22132858D01*
X34977750Y22132858D01*
X35063464Y22090000D01*
X35106321Y22047143D01*
X35149178Y21961429D01*
X35149178Y21918572D01*
X35106321Y21832858D01*
X35063464Y21790000D01*
X34977750Y21747143D01*
X34806321Y21747143D01*
X34720607Y21704286D01*
X34677750Y21661429D01*
X34634892Y21575715D01*
X34634892Y21404286D01*
X34677750Y21318572D01*
X34720607Y21275715D01*
X34806321Y21232858D01*
X34977750Y21232858D01*
X35063464Y21275715D01*
X35106321Y21318572D01*
X35149178Y21404286D01*
X35149178Y21575715D01*
X35106321Y21661429D01*
X35063464Y21704286D01*
X34977750Y21747143D01*
X36177750Y22175715D02*
X35406321Y21018572D01*
X36392035Y22132858D02*
X36949178Y22132858D01*
X36649178Y21790000D01*
X36777750Y21790000D01*
X36863464Y21747143D01*
X36906321Y21704286D01*
X36949178Y21618572D01*
X36949178Y21404286D01*
X36906321Y21318572D01*
X36863464Y21275715D01*
X36777750Y21232858D01*
X36520607Y21232858D01*
X36434892Y21275715D01*
X36392035Y21318572D01*
X37720607Y21832858D02*
X37720607Y21232858D01*
X37506321Y22175715D02*
X37292035Y21532858D01*
X37849178Y21532858D01*
X33734892Y24672858D02*
X34292035Y24672858D01*
X33992035Y24330000D01*
X34120607Y24330000D01*
X34206321Y24287143D01*
X34249178Y24244286D01*
X34292035Y24158572D01*
X34292035Y23944286D01*
X34249178Y23858572D01*
X34206321Y23815715D01*
X34120607Y23772858D01*
X33863464Y23772858D01*
X33777750Y23815715D01*
X33734892Y23858572D01*
X34849178Y24672858D02*
X34934892Y24672858D01*
X35020607Y24630000D01*
X35063464Y24587143D01*
X35106321Y24501429D01*
X35149178Y24330000D01*
X35149178Y24115715D01*
X35106321Y23944286D01*
X35063464Y23858572D01*
X35020607Y23815715D01*
X34934892Y23772858D01*
X34849178Y23772858D01*
X34763464Y23815715D01*
X34720607Y23858572D01*
X34677750Y23944286D01*
X34634892Y24115715D01*
X34634892Y24330000D01*
X34677750Y24501429D01*
X34720607Y24587143D01*
X34763464Y24630000D01*
X34849178Y24672858D01*
X36177750Y24715715D02*
X35406321Y23558572D01*
X36392035Y24672858D02*
X36949178Y24672858D01*
X36649178Y24330000D01*
X36777750Y24330000D01*
X36863464Y24287143D01*
X36906321Y24244286D01*
X36949178Y24158572D01*
X36949178Y23944286D01*
X36906321Y23858572D01*
X36863464Y23815715D01*
X36777750Y23772858D01*
X36520607Y23772858D01*
X36434892Y23815715D01*
X36392035Y23858572D01*
X37720607Y24672858D02*
X37549178Y24672858D01*
X37463464Y24630000D01*
X37420607Y24587143D01*
X37334892Y24458572D01*
X37292035Y24287143D01*
X37292035Y23944286D01*
X37334892Y23858572D01*
X37377750Y23815715D01*
X37463464Y23772858D01*
X37634892Y23772858D01*
X37720607Y23815715D01*
X37763464Y23858572D01*
X37806321Y23944286D01*
X37806321Y24158572D01*
X37763464Y24244286D01*
X37720607Y24287143D01*
X37634892Y24330000D01*
X37463464Y24330000D01*
X37377750Y24287143D01*
X37334892Y24244286D01*
X37292035Y24158572D01*
X33734892Y27212858D02*
X34292035Y27212858D01*
X33992035Y26870000D01*
X34120607Y26870000D01*
X34206321Y26827143D01*
X34249178Y26784286D01*
X34292035Y26698572D01*
X34292035Y26484286D01*
X34249178Y26398572D01*
X34206321Y26355715D01*
X34120607Y26312858D01*
X33863464Y26312858D01*
X33777750Y26355715D01*
X33734892Y26398572D01*
X35149178Y26312858D02*
X34634892Y26312858D01*
X34892035Y26312858D02*
X34892035Y27212858D01*
X34806321Y27084286D01*
X34720607Y26998572D01*
X34634892Y26955715D01*
X36177750Y27255715D02*
X35406321Y26098572D01*
X36392035Y27212858D02*
X36949178Y27212858D01*
X36649178Y26870000D01*
X36777750Y26870000D01*
X36863464Y26827143D01*
X36906321Y26784286D01*
X36949178Y26698572D01*
X36949178Y26484286D01*
X36906321Y26398572D01*
X36863464Y26355715D01*
X36777750Y26312858D01*
X36520607Y26312858D01*
X36434892Y26355715D01*
X36392035Y26398572D01*
X37249178Y27212858D02*
X37849178Y27212858D01*
X37463464Y26312858D01*
X33450892Y29802858D02*
X34008035Y29802858D01*
X33708035Y29460000D01*
X33836607Y29460000D01*
X33922321Y29417143D01*
X33965178Y29374286D01*
X34008035Y29288572D01*
X34008035Y29074286D01*
X33965178Y28988572D01*
X33922321Y28945715D01*
X33836607Y28902858D01*
X33579464Y28902858D01*
X33493750Y28945715D01*
X33450892Y28988572D01*
X34350892Y29717143D02*
X34393750Y29760000D01*
X34479464Y29802858D01*
X34693750Y29802858D01*
X34779464Y29760000D01*
X34822321Y29717143D01*
X34865178Y29631429D01*
X34865178Y29545715D01*
X34822321Y29417143D01*
X34308035Y28902858D01*
X34865178Y28902858D01*
X35893750Y29845715D02*
X35122321Y28688572D01*
X36108035Y29802858D02*
X36665178Y29802858D01*
X36365178Y29460000D01*
X36493750Y29460000D01*
X36579464Y29417143D01*
X36622321Y29374286D01*
X36665178Y29288572D01*
X36665178Y29074286D01*
X36622321Y28988572D01*
X36579464Y28945715D01*
X36493750Y28902858D01*
X36236607Y28902858D01*
X36150892Y28945715D01*
X36108035Y28988572D01*
X37179464Y29417143D02*
X37093750Y29460000D01*
X37050892Y29502858D01*
X37008035Y29588572D01*
X37008035Y29631429D01*
X37050892Y29717143D01*
X37093750Y29760000D01*
X37179464Y29802858D01*
X37350892Y29802858D01*
X37436607Y29760000D01*
X37479464Y29717143D01*
X37522321Y29631429D01*
X37522321Y29588572D01*
X37479464Y29502858D01*
X37436607Y29460000D01*
X37350892Y29417143D01*
X37179464Y29417143D01*
X37093750Y29374286D01*
X37050892Y29331429D01*
X37008035Y29245715D01*
X37008035Y29074286D01*
X37050892Y28988572D01*
X37093750Y28945715D01*
X37179464Y28902858D01*
X37350892Y28902858D01*
X37436607Y28945715D01*
X37479464Y28988572D01*
X37522321Y29074286D01*
X37522321Y29245715D01*
X37479464Y29331429D01*
X37436607Y29374286D01*
X37350892Y29417143D01*
X33734892Y32292858D02*
X34292035Y32292858D01*
X33992035Y31950000D01*
X34120607Y31950000D01*
X34206321Y31907143D01*
X34249178Y31864286D01*
X34292035Y31778572D01*
X34292035Y31564286D01*
X34249178Y31478572D01*
X34206321Y31435715D01*
X34120607Y31392858D01*
X33863464Y31392858D01*
X33777750Y31435715D01*
X33734892Y31478572D01*
X34592035Y32292858D02*
X35149178Y32292858D01*
X34849178Y31950000D01*
X34977750Y31950000D01*
X35063464Y31907143D01*
X35106321Y31864286D01*
X35149178Y31778572D01*
X35149178Y31564286D01*
X35106321Y31478572D01*
X35063464Y31435715D01*
X34977750Y31392858D01*
X34720607Y31392858D01*
X34634892Y31435715D01*
X34592035Y31478572D01*
X36177750Y32335715D02*
X35406321Y31178572D01*
X36392035Y32292858D02*
X36949178Y32292858D01*
X36649178Y31950000D01*
X36777750Y31950000D01*
X36863464Y31907143D01*
X36906321Y31864286D01*
X36949178Y31778572D01*
X36949178Y31564286D01*
X36906321Y31478572D01*
X36863464Y31435715D01*
X36777750Y31392858D01*
X36520607Y31392858D01*
X36434892Y31435715D01*
X36392035Y31478572D01*
X37377750Y31392858D02*
X37549178Y31392858D01*
X37634892Y31435715D01*
X37677750Y31478572D01*
X37763464Y31607143D01*
X37806321Y31778572D01*
X37806321Y32121429D01*
X37763464Y32207143D01*
X37720607Y32250000D01*
X37634892Y32292858D01*
X37463464Y32292858D01*
X37377750Y32250000D01*
X37334892Y32207143D01*
X37292035Y32121429D01*
X37292035Y31907143D01*
X37334892Y31821429D01*
X37377750Y31778572D01*
X37463464Y31735715D01*
X37634892Y31735715D01*
X37720607Y31778572D01*
X37763464Y31821429D01*
X37806321Y31907143D01*
X33734892Y34832858D02*
X34292035Y34832858D01*
X33992035Y34490000D01*
X34120607Y34490000D01*
X34206321Y34447143D01*
X34249178Y34404286D01*
X34292035Y34318572D01*
X34292035Y34104286D01*
X34249178Y34018572D01*
X34206321Y33975715D01*
X34120607Y33932858D01*
X33863464Y33932858D01*
X33777750Y33975715D01*
X33734892Y34018572D01*
X35063464Y34532858D02*
X35063464Y33932858D01*
X34849178Y34875715D02*
X34634892Y34232858D01*
X35192035Y34232858D01*
X36177750Y34875715D02*
X35406321Y33718572D01*
X36863464Y34532858D02*
X36863464Y33932858D01*
X36649178Y34875715D02*
X36434892Y34232858D01*
X36992035Y34232858D01*
X37506321Y34832858D02*
X37592035Y34832858D01*
X37677750Y34790000D01*
X37720607Y34747143D01*
X37763464Y34661429D01*
X37806321Y34490000D01*
X37806321Y34275715D01*
X37763464Y34104286D01*
X37720607Y34018572D01*
X37677750Y33975715D01*
X37592035Y33932858D01*
X37506321Y33932858D01*
X37420607Y33975715D01*
X37377750Y34018572D01*
X37334892Y34104286D01*
X37292035Y34275715D01*
X37292035Y34490000D01*
X37334892Y34661429D01*
X37377750Y34747143D01*
X37420607Y34790000D01*
X37506321Y34832858D01*
X33450892Y37422858D02*
X34008035Y37422858D01*
X33708035Y37080000D01*
X33836607Y37080000D01*
X33922321Y37037143D01*
X33965178Y36994286D01*
X34008035Y36908572D01*
X34008035Y36694286D01*
X33965178Y36608572D01*
X33922321Y36565715D01*
X33836607Y36522858D01*
X33579464Y36522858D01*
X33493750Y36565715D01*
X33450892Y36608572D01*
X34822321Y37422858D02*
X34393750Y37422858D01*
X34350892Y36994286D01*
X34393750Y37037143D01*
X34479464Y37080000D01*
X34693750Y37080000D01*
X34779464Y37037143D01*
X34822321Y36994286D01*
X34865178Y36908572D01*
X34865178Y36694286D01*
X34822321Y36608572D01*
X34779464Y36565715D01*
X34693750Y36522858D01*
X34479464Y36522858D01*
X34393750Y36565715D01*
X34350892Y36608572D01*
X35893750Y37465715D02*
X35122321Y36308572D01*
X36579464Y37122858D02*
X36579464Y36522858D01*
X36365178Y37465715D02*
X36150892Y36822858D01*
X36708035Y36822858D01*
X37522321Y36522858D02*
X37008035Y36522858D01*
X37265178Y36522858D02*
X37265178Y37422858D01*
X37179464Y37294286D01*
X37093750Y37208572D01*
X37008035Y37165715D01*
X33450892Y39912858D02*
X34008035Y39912858D01*
X33708035Y39570000D01*
X33836607Y39570000D01*
X33922321Y39527143D01*
X33965178Y39484286D01*
X34008035Y39398572D01*
X34008035Y39184286D01*
X33965178Y39098572D01*
X33922321Y39055715D01*
X33836607Y39012858D01*
X33579464Y39012858D01*
X33493750Y39055715D01*
X33450892Y39098572D01*
X34308035Y39912858D02*
X34908035Y39912858D01*
X34522321Y39012858D01*
X35893750Y39955715D02*
X35122321Y38798572D01*
X36579464Y39612858D02*
X36579464Y39012858D01*
X36365178Y39955715D02*
X36150892Y39312858D01*
X36708035Y39312858D01*
X36965178Y39912858D02*
X37522321Y39912858D01*
X37222321Y39570000D01*
X37350892Y39570000D01*
X37436607Y39527143D01*
X37479464Y39484286D01*
X37522321Y39398572D01*
X37522321Y39184286D01*
X37479464Y39098572D01*
X37436607Y39055715D01*
X37350892Y39012858D01*
X37093750Y39012858D01*
X37008035Y39055715D01*
X36965178Y39098572D01*
X33450892Y42452858D02*
X34008035Y42452858D01*
X33708035Y42110000D01*
X33836607Y42110000D01*
X33922321Y42067143D01*
X33965178Y42024286D01*
X34008035Y41938572D01*
X34008035Y41724286D01*
X33965178Y41638572D01*
X33922321Y41595715D01*
X33836607Y41552858D01*
X33579464Y41552858D01*
X33493750Y41595715D01*
X33450892Y41638572D01*
X34522321Y42067143D02*
X34436607Y42110000D01*
X34393750Y42152858D01*
X34350892Y42238572D01*
X34350892Y42281429D01*
X34393750Y42367143D01*
X34436607Y42410000D01*
X34522321Y42452858D01*
X34693750Y42452858D01*
X34779464Y42410000D01*
X34822321Y42367143D01*
X34865178Y42281429D01*
X34865178Y42238572D01*
X34822321Y42152858D01*
X34779464Y42110000D01*
X34693750Y42067143D01*
X34522321Y42067143D01*
X34436607Y42024286D01*
X34393750Y41981429D01*
X34350892Y41895715D01*
X34350892Y41724286D01*
X34393750Y41638572D01*
X34436607Y41595715D01*
X34522321Y41552858D01*
X34693750Y41552858D01*
X34779464Y41595715D01*
X34822321Y41638572D01*
X34865178Y41724286D01*
X34865178Y41895715D01*
X34822321Y41981429D01*
X34779464Y42024286D01*
X34693750Y42067143D01*
X35893750Y42495715D02*
X35122321Y41338572D01*
X36579464Y42152858D02*
X36579464Y41552858D01*
X36365178Y42495715D02*
X36150892Y41852858D01*
X36708035Y41852858D01*
X37436607Y42152858D02*
X37436607Y41552858D01*
X37222321Y42495715D02*
X37008035Y41852858D01*
X37565178Y41852858D01*
X34308035Y44992858D02*
X34865178Y44992858D01*
X34565178Y44650000D01*
X34693750Y44650000D01*
X34779464Y44607143D01*
X34822321Y44564286D01*
X34865178Y44478572D01*
X34865178Y44264286D01*
X34822321Y44178572D01*
X34779464Y44135715D01*
X34693750Y44092858D01*
X34436607Y44092858D01*
X34350892Y44135715D01*
X34308035Y44178572D01*
X35293750Y44092858D02*
X35465178Y44092858D01*
X35550892Y44135715D01*
X35593750Y44178572D01*
X35679464Y44307143D01*
X35722321Y44478572D01*
X35722321Y44821429D01*
X35679464Y44907143D01*
X35636607Y44950000D01*
X35550892Y44992858D01*
X35379464Y44992858D01*
X35293750Y44950000D01*
X35250892Y44907143D01*
X35208035Y44821429D01*
X35208035Y44607143D01*
X35250892Y44521429D01*
X35293750Y44478572D01*
X35379464Y44435715D01*
X35550892Y44435715D01*
X35636607Y44478572D01*
X35679464Y44521429D01*
X35722321Y44607143D01*
X36750892Y45035715D02*
X35979464Y43878572D01*
X37522321Y44092858D02*
X37008035Y44092858D01*
X37265178Y44092858D02*
X37265178Y44992858D01*
X37179464Y44864286D01*
X37093750Y44778572D01*
X37008035Y44735715D01*
X34779464Y47232858D02*
X34779464Y46632858D01*
X34565178Y47575715D02*
X34350892Y46932858D01*
X34908035Y46932858D01*
X35422321Y47532858D02*
X35508035Y47532858D01*
X35593750Y47490000D01*
X35636607Y47447143D01*
X35679464Y47361429D01*
X35722321Y47190000D01*
X35722321Y46975715D01*
X35679464Y46804286D01*
X35636607Y46718572D01*
X35593750Y46675715D01*
X35508035Y46632858D01*
X35422321Y46632858D01*
X35336607Y46675715D01*
X35293750Y46718572D01*
X35250892Y46804286D01*
X35208035Y46975715D01*
X35208035Y47190000D01*
X35250892Y47361429D01*
X35293750Y47447143D01*
X35336607Y47490000D01*
X35422321Y47532858D01*
X36750892Y47575715D02*
X35979464Y46418572D01*
X37008035Y47447143D02*
X37050892Y47490000D01*
X37136607Y47532858D01*
X37350892Y47532858D01*
X37436607Y47490000D01*
X37479464Y47447143D01*
X37522321Y47361429D01*
X37522321Y47275715D01*
X37479464Y47147143D01*
X36965178Y46632858D01*
X37522321Y46632858D01*
X35063464Y49772858D02*
X35063464Y49172858D01*
X34849178Y50115715D02*
X34634892Y49472858D01*
X35192035Y49472858D01*
X35492035Y49987143D02*
X35534892Y50030000D01*
X35620607Y50072858D01*
X35834892Y50072858D01*
X35920607Y50030000D01*
X35963464Y49987143D01*
X36006321Y49901429D01*
X36006321Y49815715D01*
X35963464Y49687143D01*
X35449178Y49172858D01*
X36006321Y49172858D01*
X37034892Y50115715D02*
X36263464Y48958572D01*
X37720607Y49772858D02*
X37720607Y49172858D01*
X37506321Y50115715D02*
X37292035Y49472858D01*
X37849178Y49472858D01*
X35063464Y52312858D02*
X35063464Y51712858D01*
X34849178Y52655715D02*
X34634892Y52012858D01*
X35192035Y52012858D01*
X35449178Y52612858D02*
X36006321Y52612858D01*
X35706321Y52270000D01*
X35834892Y52270000D01*
X35920607Y52227143D01*
X35963464Y52184286D01*
X36006321Y52098572D01*
X36006321Y51884286D01*
X35963464Y51798572D01*
X35920607Y51755715D01*
X35834892Y51712858D01*
X35577750Y51712858D01*
X35492035Y51755715D01*
X35449178Y51798572D01*
X37034892Y52655715D02*
X36263464Y51498572D01*
X37763464Y52612858D02*
X37334892Y52612858D01*
X37292035Y52184286D01*
X37334892Y52227143D01*
X37420607Y52270000D01*
X37634892Y52270000D01*
X37720607Y52227143D01*
X37763464Y52184286D01*
X37806321Y52098572D01*
X37806321Y51884286D01*
X37763464Y51798572D01*
X37720607Y51755715D01*
X37634892Y51712858D01*
X37420607Y51712858D01*
X37334892Y51755715D01*
X37292035Y51798572D01*
X35063464Y54852858D02*
X35063464Y54252858D01*
X34849178Y55195715D02*
X34634892Y54552858D01*
X35192035Y54552858D01*
X35920607Y54852858D02*
X35920607Y54252858D01*
X35706321Y55195715D02*
X35492035Y54552858D01*
X36049178Y54552858D01*
X37034892Y55195715D02*
X36263464Y54038572D01*
X37720607Y55152858D02*
X37549178Y55152858D01*
X37463464Y55110000D01*
X37420607Y55067143D01*
X37334892Y54938572D01*
X37292035Y54767143D01*
X37292035Y54424286D01*
X37334892Y54338572D01*
X37377750Y54295715D01*
X37463464Y54252858D01*
X37634892Y54252858D01*
X37720607Y54295715D01*
X37763464Y54338572D01*
X37806321Y54424286D01*
X37806321Y54638572D01*
X37763464Y54724286D01*
X37720607Y54767143D01*
X37634892Y54810000D01*
X37463464Y54810000D01*
X37377750Y54767143D01*
X37334892Y54724286D01*
X37292035Y54638572D01*
D13*
X9776380Y69081196D02*
X9776380Y68500624D01*
X8760380Y68790910D02*
X9776380Y68790910D01*
X8760380Y68161958D02*
X9776380Y68161958D01*
X9050666Y67823291D01*
X9776380Y67484624D01*
X8760380Y67484624D01*
X8808761Y67049196D02*
X8760380Y66904053D01*
X8760380Y66662148D01*
X8808761Y66565386D01*
X8857142Y66517005D01*
X8953904Y66468624D01*
X9050666Y66468624D01*
X9147428Y66517005D01*
X9195809Y66565386D01*
X9244190Y66662148D01*
X9292571Y66855672D01*
X9340952Y66952434D01*
X9389333Y67000815D01*
X9486095Y67049196D01*
X9582857Y67049196D01*
X9679619Y67000815D01*
X9728000Y66952434D01*
X9776380Y66855672D01*
X9776380Y66613767D01*
X9728000Y66468624D01*
X9776380Y65202243D02*
X9776380Y64621672D01*
X8760380Y64911958D02*
X9776380Y64911958D01*
X8760380Y64283005D02*
X9776380Y64283005D01*
X9776380Y64041100D01*
X9728000Y63895958D01*
X9631238Y63799196D01*
X9534476Y63750815D01*
X9340952Y63702434D01*
X9195809Y63702434D01*
X9002285Y63750815D01*
X8905523Y63799196D01*
X8808761Y63895958D01*
X8760380Y64041100D01*
X8760380Y64283005D01*
X8760380Y63267005D02*
X9776380Y63267005D01*
X9728000Y72437005D02*
X9776380Y72533767D01*
X9776380Y72678910D01*
X9728000Y72824053D01*
X9631238Y72920815D01*
X9534476Y72969196D01*
X9340952Y73017577D01*
X9195809Y73017577D01*
X9002285Y72969196D01*
X8905523Y72920815D01*
X8808761Y72824053D01*
X8760380Y72678910D01*
X8760380Y72582148D01*
X8808761Y72437005D01*
X8857142Y72388624D01*
X9195809Y72388624D01*
X9195809Y72582148D01*
X8760380Y71953196D02*
X9776380Y71953196D01*
X8760380Y71372624D01*
X9776380Y71372624D01*
X8760380Y70888815D02*
X9776380Y70888815D01*
X9776380Y70646910D01*
X9728000Y70501767D01*
X9631238Y70405005D01*
X9534476Y70356624D01*
X9340952Y70308243D01*
X9195809Y70308243D01*
X9002285Y70356624D01*
X8905523Y70405005D01*
X8808761Y70501767D01*
X8760380Y70646910D01*
X8760380Y70888815D01*
D14*
X11290000Y74151429D02*
X11290000Y73080000D01*
X11218571Y72865715D01*
X11075714Y72722858D01*
X10861428Y72651429D01*
X10718571Y72651429D01*
X11790000Y74151429D02*
X12647142Y74151429D01*
X12218571Y72651429D02*
X12218571Y74151429D01*
X13075714Y73080000D02*
X13790000Y73080000D01*
X12932857Y72651429D02*
X13432857Y74151429D01*
X13932857Y72651429D01*
X15218571Y74080000D02*
X15075714Y74151429D01*
X14861428Y74151429D01*
X14647142Y74080000D01*
X14504285Y73937143D01*
X14432857Y73794286D01*
X14361428Y73508572D01*
X14361428Y73294286D01*
X14432857Y73008572D01*
X14504285Y72865715D01*
X14647142Y72722858D01*
X14861428Y72651429D01*
X15004285Y72651429D01*
X15218571Y72722858D01*
X15290000Y72794286D01*
X15290000Y73294286D01*
X15004285Y73294286D01*
D13*
X17616380Y73038139D02*
X16600380Y72699472D01*
X17616380Y72360805D01*
X16697142Y71441567D02*
X16648761Y71489948D01*
X16600380Y71635091D01*
X16600380Y71731853D01*
X16648761Y71876996D01*
X16745523Y71973758D01*
X16842285Y72022139D01*
X17035809Y72070520D01*
X17180952Y72070520D01*
X17374476Y72022139D01*
X17471238Y71973758D01*
X17568000Y71876996D01*
X17616380Y71731853D01*
X17616380Y71635091D01*
X17568000Y71489948D01*
X17519619Y71441567D01*
X16697142Y70425567D02*
X16648761Y70473948D01*
X16600380Y70619091D01*
X16600380Y70715853D01*
X16648761Y70860996D01*
X16745523Y70957758D01*
X16842285Y71006139D01*
X17035809Y71054520D01*
X17180952Y71054520D01*
X17374476Y71006139D01*
X17471238Y70957758D01*
X17568000Y70860996D01*
X17616380Y70715853D01*
X17616380Y70619091D01*
X17568000Y70473948D01*
X17519619Y70425567D01*
X17616380Y69098139D02*
X17616380Y68517567D01*
X16600380Y68807853D02*
X17616380Y68807853D01*
X16697142Y67598329D02*
X16648761Y67646710D01*
X16600380Y67791853D01*
X16600380Y67888615D01*
X16648761Y68033758D01*
X16745523Y68130520D01*
X16842285Y68178900D01*
X17035809Y68227281D01*
X17180952Y68227281D01*
X17374476Y68178900D01*
X17471238Y68130520D01*
X17568000Y68033758D01*
X17616380Y67888615D01*
X17616380Y67791853D01*
X17568000Y67646710D01*
X17519619Y67598329D01*
X16600380Y67162900D02*
X17616380Y67162900D01*
X16600380Y66582329D02*
X17180952Y67017758D01*
X17616380Y66582329D02*
X17035809Y67162900D01*
X17616380Y65298139D02*
X17616380Y64717567D01*
X16600380Y65007853D02*
X17616380Y65007853D01*
X16600380Y64378900D02*
X17616380Y64378900D01*
X17616380Y64136996D01*
X17568000Y63991853D01*
X17471238Y63895091D01*
X17374476Y63846710D01*
X17180952Y63798329D01*
X17035809Y63798329D01*
X16842285Y63846710D01*
X16745523Y63895091D01*
X16648761Y63991853D01*
X16600380Y64136996D01*
X16600380Y64378900D01*
X17616380Y63169377D02*
X17616380Y62975853D01*
X17568000Y62879091D01*
X17471238Y62782329D01*
X17277714Y62733948D01*
X16939047Y62733948D01*
X16745523Y62782329D01*
X16648761Y62879091D01*
X16600380Y62975853D01*
X16600380Y63169377D01*
X16648761Y63266139D01*
X16745523Y63362900D01*
X16939047Y63411281D01*
X17277714Y63411281D01*
X17471238Y63362900D01*
X17568000Y63266139D01*
X17616380Y63169377D01*
X31576242Y60296381D02*
X31914909Y59280381D01*
X32253576Y60296381D01*
X33172814Y59377143D02*
X33124433Y59328762D01*
X32979290Y59280381D01*
X32882528Y59280381D01*
X32737385Y59328762D01*
X32640623Y59425524D01*
X32592242Y59522286D01*
X32543861Y59715810D01*
X32543861Y59860953D01*
X32592242Y60054477D01*
X32640623Y60151239D01*
X32737385Y60248000D01*
X32882528Y60296381D01*
X32979290Y60296381D01*
X33124433Y60248000D01*
X33172814Y60199620D01*
X34188814Y59377143D02*
X34140433Y59328762D01*
X33995290Y59280381D01*
X33898528Y59280381D01*
X33753385Y59328762D01*
X33656623Y59425524D01*
X33608242Y59522286D01*
X33559861Y59715810D01*
X33559861Y59860953D01*
X33608242Y60054477D01*
X33656623Y60151239D01*
X33753385Y60248000D01*
X33898528Y60296381D01*
X33995290Y60296381D01*
X34140433Y60248000D01*
X34188814Y60199620D01*
D10*
X24340000Y65226834D02*
X24740000Y65226834D01*
X24540000Y64526834D02*
X24540000Y65226834D01*
X25073333Y64526834D02*
X25006666Y64560167D01*
X24973333Y64593500D01*
X24940000Y64660167D01*
X24940000Y64860167D01*
X24973333Y64926834D01*
X25006666Y64960167D01*
X25073333Y64993500D01*
X25173333Y64993500D01*
X25240000Y64960167D01*
X25273333Y64926834D01*
X25306666Y64860167D01*
X25306666Y64660167D01*
X25273333Y64593500D01*
X25240000Y64560167D01*
X25173333Y64526834D01*
X25073333Y64526834D01*
X26140000Y64993500D02*
X26140000Y64293500D01*
X26140000Y64960167D02*
X26206666Y64993500D01*
X26340000Y64993500D01*
X26406666Y64960167D01*
X26440000Y64926834D01*
X26473333Y64860167D01*
X26473333Y64660167D01*
X26440000Y64593500D01*
X26406666Y64560167D01*
X26340000Y64526834D01*
X26206666Y64526834D01*
X26140000Y64560167D01*
X26873333Y64526834D02*
X26806666Y64560167D01*
X26773333Y64593500D01*
X26740000Y64660167D01*
X26740000Y64860167D01*
X26773333Y64926834D01*
X26806666Y64960167D01*
X26873333Y64993500D01*
X26973333Y64993500D01*
X27040000Y64960167D01*
X27073333Y64926834D01*
X27106666Y64860167D01*
X27106666Y64660167D01*
X27073333Y64593500D01*
X27040000Y64560167D01*
X26973333Y64526834D01*
X26873333Y64526834D01*
X27340000Y64993500D02*
X27473333Y64526834D01*
X27606666Y64860167D01*
X27740000Y64526834D01*
X27873333Y64993500D01*
X28406666Y64560167D02*
X28340000Y64526834D01*
X28206666Y64526834D01*
X28140000Y64560167D01*
X28106666Y64626834D01*
X28106666Y64893500D01*
X28140000Y64960167D01*
X28206666Y64993500D01*
X28340000Y64993500D01*
X28406666Y64960167D01*
X28440000Y64893500D01*
X28440000Y64826834D01*
X28106666Y64760167D01*
X28740000Y64526834D02*
X28740000Y64993500D01*
X28740000Y64860167D02*
X28773333Y64926834D01*
X28806666Y64960167D01*
X28873333Y64993500D01*
X28940000Y64993500D01*
X29640000Y64993500D02*
X29806666Y64526834D01*
X29973333Y64993500D01*
X30240000Y64526834D02*
X30240000Y64993500D01*
X30240000Y65226834D02*
X30206666Y65193500D01*
X30240000Y65160167D01*
X30273333Y65193500D01*
X30240000Y65226834D01*
X30240000Y65160167D01*
X30873333Y64526834D02*
X30873333Y64893500D01*
X30840000Y64960167D01*
X30773333Y64993500D01*
X30640000Y64993500D01*
X30573333Y64960167D01*
X30873333Y64560167D02*
X30806666Y64526834D01*
X30640000Y64526834D01*
X30573333Y64560167D01*
X30540000Y64626834D01*
X30540000Y64693500D01*
X30573333Y64760167D01*
X30640000Y64793500D01*
X30806666Y64793500D01*
X30873333Y64826834D01*
X31706666Y64726834D02*
X32040000Y64726834D01*
X31640000Y64526834D02*
X31873333Y65226834D01*
X32106666Y64526834D01*
X32740000Y64526834D02*
X32506666Y64860167D01*
X32340000Y64526834D02*
X32340000Y65226834D01*
X32606666Y65226834D01*
X32673333Y65193500D01*
X32706666Y65160167D01*
X32740000Y65093500D01*
X32740000Y64993500D01*
X32706666Y64926834D01*
X32673333Y64893500D01*
X32606666Y64860167D01*
X32340000Y64860167D01*
X33040000Y64526834D02*
X33040000Y65226834D01*
X33273333Y64726834D01*
X33506666Y65226834D01*
X33506666Y64526834D01*
X33840000Y64793500D02*
X34373333Y64793500D01*
X34706666Y65226834D02*
X34706666Y64660167D01*
X34740000Y64593500D01*
X34773333Y64560167D01*
X34840000Y64526834D01*
X34973333Y64526834D01*
X35040000Y64560167D01*
X35073333Y64593500D01*
X35106666Y64660167D01*
X35106666Y65226834D01*
X35406666Y64560167D02*
X35506666Y64526834D01*
X35673333Y64526834D01*
X35740000Y64560167D01*
X35773333Y64593500D01*
X35806666Y64660167D01*
X35806666Y64726834D01*
X35773333Y64793500D01*
X35740000Y64826834D01*
X35673333Y64860167D01*
X35540000Y64893500D01*
X35473333Y64926834D01*
X35440000Y64960167D01*
X35406666Y65026834D01*
X35406666Y65093500D01*
X35440000Y65160167D01*
X35473333Y65193500D01*
X35540000Y65226834D01*
X35706666Y65226834D01*
X35806666Y65193500D01*
X36340000Y64893500D02*
X36440000Y64860167D01*
X36473333Y64826834D01*
X36506666Y64760167D01*
X36506666Y64660167D01*
X36473333Y64593500D01*
X36440000Y64560167D01*
X36373333Y64526834D01*
X36106666Y64526834D01*
X36106666Y65226834D01*
X36340000Y65226834D01*
X36406666Y65193500D01*
X36440000Y65160167D01*
X36473333Y65093500D01*
X36473333Y65026834D01*
X36440000Y64960167D01*
X36406666Y64926834D01*
X36340000Y64893500D01*
X36106666Y64893500D01*
X36806666Y64793500D02*
X37340000Y64793500D01*
X37573333Y65226834D02*
X37973333Y65226834D01*
X37773333Y64526834D02*
X37773333Y65226834D01*
X38206666Y64526834D02*
X38206666Y65226834D01*
X38540000Y64526834D02*
X38540000Y65226834D01*
X38940000Y64526834D01*
X38940000Y65226834D01*
X39406666Y64860167D02*
X39406666Y64526834D01*
X39173333Y65226834D02*
X39406666Y64860167D01*
X39640000Y65226834D01*
X25523333Y63399834D02*
X25523333Y63766500D01*
X25490000Y63833167D01*
X25423333Y63866500D01*
X25290000Y63866500D01*
X25223333Y63833167D01*
X25523333Y63433167D02*
X25456666Y63399834D01*
X25290000Y63399834D01*
X25223333Y63433167D01*
X25190000Y63499834D01*
X25190000Y63566500D01*
X25223333Y63633167D01*
X25290000Y63666500D01*
X25456666Y63666500D01*
X25523333Y63699834D01*
X26156666Y63399834D02*
X26156666Y64099834D01*
X26156666Y63433167D02*
X26090000Y63399834D01*
X25956666Y63399834D01*
X25890000Y63433167D01*
X25856666Y63466500D01*
X25823333Y63533167D01*
X25823333Y63733167D01*
X25856666Y63799834D01*
X25890000Y63833167D01*
X25956666Y63866500D01*
X26090000Y63866500D01*
X26156666Y63833167D01*
X26790000Y63399834D02*
X26790000Y63766500D01*
X26756666Y63833167D01*
X26690000Y63866500D01*
X26556666Y63866500D01*
X26490000Y63833167D01*
X26790000Y63433167D02*
X26723333Y63399834D01*
X26556666Y63399834D01*
X26490000Y63433167D01*
X26456666Y63499834D01*
X26456666Y63566500D01*
X26490000Y63633167D01*
X26556666Y63666500D01*
X26723333Y63666500D01*
X26790000Y63699834D01*
X27123333Y63866500D02*
X27123333Y63166500D01*
X27123333Y63833167D02*
X27190000Y63866500D01*
X27323333Y63866500D01*
X27390000Y63833167D01*
X27423333Y63799834D01*
X27456666Y63733167D01*
X27456666Y63533167D01*
X27423333Y63466500D01*
X27390000Y63433167D01*
X27323333Y63399834D01*
X27190000Y63399834D01*
X27123333Y63433167D01*
X27656666Y63866500D02*
X27923333Y63866500D01*
X27756666Y64099834D02*
X27756666Y63499834D01*
X27790000Y63433167D01*
X27856666Y63399834D01*
X27923333Y63399834D01*
X28423333Y63433167D02*
X28356666Y63399834D01*
X28223333Y63399834D01*
X28156666Y63433167D01*
X28123333Y63499834D01*
X28123333Y63766500D01*
X28156666Y63833167D01*
X28223333Y63866500D01*
X28356666Y63866500D01*
X28423333Y63833167D01*
X28456666Y63766500D01*
X28456666Y63699834D01*
X28123333Y63633167D01*
X28756666Y63399834D02*
X28756666Y63866500D01*
X28756666Y63733167D02*
X28790000Y63799834D01*
X28823333Y63833167D01*
X28890000Y63866500D01*
X28956666Y63866500D01*
X29223333Y63433167D02*
X29223333Y63399834D01*
X29190000Y63333167D01*
X29156666Y63299834D01*
X30023333Y63433167D02*
X30090000Y63399834D01*
X30223333Y63399834D01*
X30290000Y63433167D01*
X30323333Y63499834D01*
X30323333Y63533167D01*
X30290000Y63599834D01*
X30223333Y63633167D01*
X30123333Y63633167D01*
X30056666Y63666500D01*
X30023333Y63733167D01*
X30023333Y63766500D01*
X30056666Y63833167D01*
X30123333Y63866500D01*
X30223333Y63866500D01*
X30290000Y63833167D01*
X30623333Y63399834D02*
X30623333Y64099834D01*
X30923333Y63399834D02*
X30923333Y63766500D01*
X30890000Y63833167D01*
X30823333Y63866500D01*
X30723333Y63866500D01*
X30656666Y63833167D01*
X30623333Y63799834D01*
X31356666Y63399834D02*
X31290000Y63433167D01*
X31256666Y63466500D01*
X31223333Y63533167D01*
X31223333Y63733167D01*
X31256666Y63799834D01*
X31290000Y63833167D01*
X31356666Y63866500D01*
X31456666Y63866500D01*
X31523333Y63833167D01*
X31556666Y63799834D01*
X31590000Y63733167D01*
X31590000Y63533167D01*
X31556666Y63466500D01*
X31523333Y63433167D01*
X31456666Y63399834D01*
X31356666Y63399834D01*
X31890000Y63399834D02*
X31890000Y63866500D01*
X31890000Y63733167D02*
X31923333Y63799834D01*
X31956666Y63833167D01*
X32023333Y63866500D01*
X32090000Y63866500D01*
X32223333Y63866500D02*
X32490000Y63866500D01*
X32323333Y64099834D02*
X32323333Y63499834D01*
X32356666Y63433167D01*
X32423333Y63399834D01*
X32490000Y63399834D01*
X33256666Y63866500D02*
X33256666Y63266500D01*
X33223333Y63199834D01*
X33156666Y63166500D01*
X33123333Y63166500D01*
X33256666Y64099834D02*
X33223333Y64066500D01*
X33256666Y64033167D01*
X33290000Y64066500D01*
X33256666Y64099834D01*
X33256666Y64033167D01*
X33890000Y63866500D02*
X33890000Y63399834D01*
X33590000Y63866500D02*
X33590000Y63499834D01*
X33623333Y63433167D01*
X33690000Y63399834D01*
X33790000Y63399834D01*
X33856666Y63433167D01*
X33890000Y63466500D01*
X34223333Y63399834D02*
X34223333Y63866500D01*
X34223333Y63799834D02*
X34256666Y63833167D01*
X34323333Y63866500D01*
X34423333Y63866500D01*
X34490000Y63833167D01*
X34523333Y63766500D01*
X34523333Y63399834D01*
X34523333Y63766500D02*
X34556666Y63833167D01*
X34623333Y63866500D01*
X34723333Y63866500D01*
X34790000Y63833167D01*
X34823333Y63766500D01*
X34823333Y63399834D01*
X35156666Y63866500D02*
X35156666Y63166500D01*
X35156666Y63833167D02*
X35223333Y63866500D01*
X35356666Y63866500D01*
X35423333Y63833167D01*
X35456666Y63799834D01*
X35490000Y63733167D01*
X35490000Y63533167D01*
X35456666Y63466500D01*
X35423333Y63433167D01*
X35356666Y63399834D01*
X35223333Y63399834D01*
X35156666Y63433167D01*
X36056666Y63433167D02*
X35990000Y63399834D01*
X35856666Y63399834D01*
X35790000Y63433167D01*
X35756666Y63499834D01*
X35756666Y63766500D01*
X35790000Y63833167D01*
X35856666Y63866500D01*
X35990000Y63866500D01*
X36056666Y63833167D01*
X36090000Y63766500D01*
X36090000Y63699834D01*
X35756666Y63633167D01*
X36390000Y63399834D02*
X36390000Y63866500D01*
X36390000Y63733167D02*
X36423333Y63799834D01*
X36456666Y63833167D01*
X36523333Y63866500D01*
X36590000Y63866500D01*
X37356666Y63666500D02*
X37890000Y63666500D01*
X38223333Y63866500D02*
X38756666Y63666500D01*
X38223333Y63466500D01*
X26323333Y61951334D02*
X26723333Y61951334D01*
X26523333Y61251334D02*
X26523333Y61951334D01*
X27423333Y61184667D02*
X27356666Y61218000D01*
X27290000Y61284667D01*
X27190000Y61384667D01*
X27123333Y61418000D01*
X27056666Y61418000D01*
X27090000Y61251334D02*
X27023333Y61284667D01*
X26956666Y61351334D01*
X26923333Y61484667D01*
X26923333Y61718000D01*
X26956666Y61851334D01*
X27023333Y61918000D01*
X27090000Y61951334D01*
X27223333Y61951334D01*
X27290000Y61918000D01*
X27356666Y61851334D01*
X27390000Y61718000D01*
X27390000Y61484667D01*
X27356666Y61351334D01*
X27290000Y61284667D01*
X27223333Y61251334D01*
X27090000Y61251334D01*
X27923333Y61618000D02*
X27690000Y61618000D01*
X27690000Y61251334D02*
X27690000Y61951334D01*
X28023333Y61951334D01*
X28290000Y61251334D02*
X28290000Y61951334D01*
X28556666Y61951334D01*
X28623333Y61918000D01*
X28656666Y61884667D01*
X28690000Y61818000D01*
X28690000Y61718000D01*
X28656666Y61651334D01*
X28623333Y61618000D01*
X28556666Y61584667D01*
X28290000Y61584667D01*
X29490000Y61984667D02*
X28890000Y61084667D01*
X29723333Y61251334D02*
X29723333Y61951334D01*
X29990000Y61951334D01*
X30056666Y61918000D01*
X30090000Y61884667D01*
X30123333Y61818000D01*
X30123333Y61718000D01*
X30090000Y61651334D01*
X30056666Y61618000D01*
X29990000Y61584667D01*
X29723333Y61584667D01*
X30756666Y61251334D02*
X30423333Y61251334D01*
X30423333Y61951334D01*
X31390000Y61318000D02*
X31356666Y61284667D01*
X31256666Y61251334D01*
X31190000Y61251334D01*
X31090000Y61284667D01*
X31023333Y61351334D01*
X30990000Y61418000D01*
X30956666Y61551334D01*
X30956666Y61651334D01*
X30990000Y61784667D01*
X31023333Y61851334D01*
X31090000Y61918000D01*
X31190000Y61951334D01*
X31256666Y61951334D01*
X31356666Y61918000D01*
X31390000Y61884667D01*
X32090000Y61318000D02*
X32056666Y61284667D01*
X31956666Y61251334D01*
X31890000Y61251334D01*
X31790000Y61284667D01*
X31723333Y61351334D01*
X31690000Y61418000D01*
X31656666Y61551334D01*
X31656666Y61651334D01*
X31690000Y61784667D01*
X31723333Y61851334D01*
X31790000Y61918000D01*
X31890000Y61951334D01*
X31956666Y61951334D01*
X32056666Y61918000D01*
X32090000Y61884667D01*
X32923333Y61718000D02*
X32923333Y61018000D01*
X32923333Y61684667D02*
X32990000Y61718000D01*
X33123333Y61718000D01*
X33190000Y61684667D01*
X33223333Y61651334D01*
X33256666Y61584667D01*
X33256666Y61384667D01*
X33223333Y61318000D01*
X33190000Y61284667D01*
X33123333Y61251334D01*
X32990000Y61251334D01*
X32923333Y61284667D01*
X33556666Y61251334D02*
X33556666Y61718000D01*
X33556666Y61951334D02*
X33523333Y61918000D01*
X33556666Y61884667D01*
X33590000Y61918000D01*
X33556666Y61951334D01*
X33556666Y61884667D01*
X33890000Y61718000D02*
X33890000Y61251334D01*
X33890000Y61651334D02*
X33923333Y61684667D01*
X33990000Y61718000D01*
X34090000Y61718000D01*
X34156666Y61684667D01*
X34190000Y61618000D01*
X34190000Y61251334D01*
X35056666Y61718000D02*
X35056666Y61251334D01*
X35056666Y61651334D02*
X35090000Y61684667D01*
X35156666Y61718000D01*
X35256666Y61718000D01*
X35323333Y61684667D01*
X35356666Y61618000D01*
X35356666Y61251334D01*
X35990000Y61718000D02*
X35990000Y61251334D01*
X35690000Y61718000D02*
X35690000Y61351334D01*
X35723333Y61284667D01*
X35790000Y61251334D01*
X35890000Y61251334D01*
X35956666Y61284667D01*
X35990000Y61318000D01*
X36323333Y61251334D02*
X36323333Y61718000D01*
X36323333Y61651334D02*
X36356666Y61684667D01*
X36423333Y61718000D01*
X36523333Y61718000D01*
X36590000Y61684667D01*
X36623333Y61618000D01*
X36623333Y61251334D01*
X36623333Y61618000D02*
X36656666Y61684667D01*
X36723333Y61718000D01*
X36823333Y61718000D01*
X36890000Y61684667D01*
X36923333Y61618000D01*
X36923333Y61251334D01*
X37256666Y61251334D02*
X37256666Y61951334D01*
X37256666Y61684667D02*
X37323333Y61718000D01*
X37456666Y61718000D01*
X37523333Y61684667D01*
X37556666Y61651334D01*
X37590000Y61584667D01*
X37590000Y61384667D01*
X37556666Y61318000D01*
X37523333Y61284667D01*
X37456666Y61251334D01*
X37323333Y61251334D01*
X37256666Y61284667D01*
X38156666Y61284667D02*
X38090000Y61251334D01*
X37956666Y61251334D01*
X37890000Y61284667D01*
X37856666Y61351334D01*
X37856666Y61618000D01*
X37890000Y61684667D01*
X37956666Y61718000D01*
X38090000Y61718000D01*
X38156666Y61684667D01*
X38190000Y61618000D01*
X38190000Y61551334D01*
X37856666Y61484667D01*
X38490000Y61251334D02*
X38490000Y61718000D01*
X38490000Y61584667D02*
X38523333Y61651334D01*
X38556666Y61684667D01*
X38623333Y61718000D01*
X38690000Y61718000D01*
X38890000Y61284667D02*
X38956666Y61251334D01*
X39090000Y61251334D01*
X39156666Y61284667D01*
X39190000Y61351334D01*
X39190000Y61384667D01*
X39156666Y61451334D01*
X39090000Y61484667D01*
X38990000Y61484667D01*
X38923333Y61518000D01*
X38890000Y61584667D01*
X38890000Y61618000D01*
X38923333Y61684667D01*
X38990000Y61718000D01*
X39090000Y61718000D01*
X39156666Y61684667D01*
D15*
X18232130Y77725027D02*
X18636191Y77320966D01*
X17908881Y77563403D02*
X19040252Y78129088D01*
X18474567Y76997717D01*
X19484719Y77684621D02*
X19969592Y77199748D01*
X18878628Y76593656D02*
X19727156Y77442185D01*
X20131217Y76230002D02*
X19848374Y76512844D01*
X19403907Y76068377D02*
X20252435Y76916905D01*
X20656496Y76512844D01*
X20575684Y74896600D02*
X20090811Y75381473D01*
X20333247Y75139037D02*
X21181775Y75987565D01*
X20979745Y75947159D01*
X20818121Y75947159D01*
X20696902Y75987565D01*
X22191928Y74977412D02*
X21787867Y75381473D01*
X21343400Y75017818D01*
X21424212Y75017818D01*
X21545430Y74977412D01*
X21747461Y74775382D01*
X21787867Y74654164D01*
X21787867Y74573351D01*
X21747461Y74452133D01*
X21545430Y74250103D01*
X21424212Y74209696D01*
X21343400Y74209696D01*
X21222182Y74250103D01*
X21020151Y74452133D01*
X20979745Y74573351D01*
X20979745Y74654164D01*
X22757613Y74411727D02*
X22838426Y74330915D01*
X22878832Y74209696D01*
X22878832Y74128884D01*
X22838426Y74007666D01*
X22717207Y73805635D01*
X22515177Y73603605D01*
X22313146Y73482387D01*
X22191928Y73441981D01*
X22111116Y73441981D01*
X21989897Y73482387D01*
X21909085Y73563199D01*
X21868679Y73684417D01*
X21868679Y73765229D01*
X21909085Y73886448D01*
X22030304Y74088478D01*
X22232334Y74290509D01*
X22434365Y74411727D01*
X22555583Y74452133D01*
X22636395Y74452133D01*
X22757613Y74411727D01*
X23282893Y73724823D02*
X23363705Y73724823D01*
X23484923Y73684417D01*
X23686954Y73482387D01*
X23727360Y73361168D01*
X23727360Y73280356D01*
X23686954Y73159138D01*
X23606142Y73078326D01*
X23444517Y72997513D01*
X22474771Y72997513D01*
X23000050Y72472234D01*
X23565735Y72391422D02*
X23969796Y71987361D01*
X23242487Y72229797D02*
X24373857Y72795483D01*
X23808172Y71664112D01*
X24091015Y71462082D02*
X24171827Y71300457D01*
X24373857Y71098427D01*
X24495076Y71058020D01*
X24575888Y71058020D01*
X24697106Y71098427D01*
X24777918Y71179239D01*
X24818325Y71300457D01*
X24818325Y71381269D01*
X24777918Y71502488D01*
X24656700Y71704518D01*
X24616294Y71825736D01*
X24616294Y71906549D01*
X24656700Y72027767D01*
X24737512Y72108579D01*
X24858731Y72148985D01*
X24939543Y72148985D01*
X25060761Y72108579D01*
X25262792Y71906549D01*
X25343604Y71744924D01*
X25222386Y70896396D02*
X25868883Y70249898D01*
X25868883Y69603401D02*
X26879036Y69724619D01*
X26434569Y70169086D02*
X26313350Y69158934D01*
X27727564Y69441776D02*
X27121472Y68835685D01*
X26959848Y68754873D01*
X26798224Y68754873D01*
X26636599Y68835685D01*
X26555787Y68916497D01*
X27202285Y68269999D02*
X28212437Y68391218D01*
X27767970Y68835685D02*
X27646752Y67825532D01*
X28899341Y67704314D02*
X28333655Y67138629D01*
X29020559Y68229593D02*
X28212437Y67825532D01*
X28737716Y67300253D01*
X29707463Y66896192D02*
X29141777Y66330507D01*
X29828681Y67421471D02*
X29020559Y67017410D01*
X29545838Y66492131D01*
X46926666Y62459524D02*
X46926666Y62935715D01*
X47212380Y62364286D02*
X46212380Y62697620D01*
X47212380Y63030953D01*
X47212380Y63935715D02*
X46736190Y63602381D01*
X47212380Y63364286D02*
X46212380Y63364286D01*
X46212380Y63745239D01*
X46260000Y63840477D01*
X46307619Y63888096D01*
X46402857Y63935715D01*
X46545714Y63935715D01*
X46640952Y63888096D01*
X46688571Y63840477D01*
X46736190Y63745239D01*
X46736190Y63364286D01*
X47212380Y64364286D02*
X46212380Y64364286D01*
X46926666Y64697620D01*
X46212380Y65030953D01*
X47212380Y65030953D01*
X46831428Y65507143D02*
X46831428Y66269048D01*
X46212380Y66745239D02*
X47021904Y66745239D01*
X47117142Y66792858D01*
X47164761Y66840477D01*
X47212380Y66935715D01*
X47212380Y67126191D01*
X47164761Y67221429D01*
X47117142Y67269048D01*
X47021904Y67316667D01*
X46212380Y67316667D01*
X47164761Y67745239D02*
X47212380Y67888096D01*
X47212380Y68126191D01*
X47164761Y68221429D01*
X47117142Y68269048D01*
X47021904Y68316667D01*
X46926666Y68316667D01*
X46831428Y68269048D01*
X46783809Y68221429D01*
X46736190Y68126191D01*
X46688571Y67935715D01*
X46640952Y67840477D01*
X46593333Y67792858D01*
X46498095Y67745239D01*
X46402857Y67745239D01*
X46307619Y67792858D01*
X46260000Y67840477D01*
X46212380Y67935715D01*
X46212380Y68173810D01*
X46260000Y68316667D01*
X46688571Y69078572D02*
X46736190Y69221429D01*
X46783809Y69269048D01*
X46879047Y69316667D01*
X47021904Y69316667D01*
X47117142Y69269048D01*
X47164761Y69221429D01*
X47212380Y69126191D01*
X47212380Y68745239D01*
X46212380Y68745239D01*
X46212380Y69078572D01*
X46260000Y69173810D01*
X46307619Y69221429D01*
X46402857Y69269048D01*
X46498095Y69269048D01*
X46593333Y69221429D01*
X46640952Y69173810D01*
X46688571Y69078572D01*
X46688571Y68745239D01*
X46831428Y69745239D02*
X46831428Y70507143D01*
X46212380Y70840477D02*
X46212380Y71411905D01*
X47212380Y71126191D02*
X46212380Y71126191D01*
X47212380Y71745239D02*
X46212380Y71745239D01*
X47212380Y72221429D02*
X46212380Y72221429D01*
X47212380Y72792858D01*
X46212380Y72792858D01*
X46736190Y73459524D02*
X47212380Y73459524D01*
X46212380Y73126191D02*
X46736190Y73459524D01*
X46212380Y73792858D01*
X46212380Y75173810D02*
X46926666Y75173810D01*
X47069523Y75126191D01*
X47164761Y75030953D01*
X47212380Y74888096D01*
X47212380Y74792858D01*
X46212380Y75507143D02*
X46212380Y76078572D01*
X47212380Y75792858D02*
X46212380Y75792858D01*
X46926666Y76364286D02*
X46926666Y76840477D01*
X47212380Y76269048D02*
X46212380Y76602381D01*
X47212380Y76935715D01*
X46260000Y77792858D02*
X46212380Y77697620D01*
X46212380Y77554762D01*
X46260000Y77411905D01*
X46355238Y77316667D01*
X46450476Y77269048D01*
X46640952Y77221429D01*
X46783809Y77221429D01*
X46974285Y77269048D01*
X47069523Y77316667D01*
X47164761Y77411905D01*
X47212380Y77554762D01*
X47212380Y77650000D01*
X47164761Y77792858D01*
X47117142Y77840477D01*
X46783809Y77840477D01*
X46783809Y77650000D01*
D13*
X32156814Y57708000D02*
X32060052Y57756381D01*
X31914909Y57756381D01*
X31769766Y57708000D01*
X31673004Y57611239D01*
X31624623Y57514477D01*
X31576242Y57320953D01*
X31576242Y57175810D01*
X31624623Y56982286D01*
X31673004Y56885524D01*
X31769766Y56788762D01*
X31914909Y56740381D01*
X32011671Y56740381D01*
X32156814Y56788762D01*
X32205195Y56837143D01*
X32205195Y57175810D01*
X32011671Y57175810D01*
X32640623Y56740381D02*
X32640623Y57756381D01*
X33221195Y56740381D01*
X33221195Y57756381D01*
X33705004Y56740381D02*
X33705004Y57756381D01*
X33946909Y57756381D01*
X34092052Y57708000D01*
X34188814Y57611239D01*
X34237195Y57514477D01*
X34285576Y57320953D01*
X34285576Y57175810D01*
X34237195Y56982286D01*
X34188814Y56885524D01*
X34092052Y56788762D01*
X33946909Y56740381D01*
X33705004Y56740381D01*
D10*
X31589904Y49211239D02*
X31589904Y49363620D01*
X31628000Y49439810D01*
X31704190Y49516000D01*
X31856571Y49554096D01*
X32123238Y49554096D01*
X32275619Y49516000D01*
X32351809Y49439810D01*
X32389904Y49363620D01*
X32389904Y49211239D01*
X32351809Y49135048D01*
X32275619Y49058858D01*
X32123238Y49020762D01*
X31856571Y49020762D01*
X31704190Y49058858D01*
X31628000Y49135048D01*
X31589904Y49211239D01*
X31970857Y49896953D02*
X31970857Y50163620D01*
X32389904Y50277905D02*
X32389904Y49896953D01*
X31589904Y49896953D01*
X31589904Y50277905D01*
X32389904Y51039810D02*
X32389904Y50582667D01*
X32389904Y50811239D02*
X31589904Y50811239D01*
X31704190Y50735048D01*
X31780380Y50658858D01*
X31818476Y50582667D01*
X31551809Y51954096D02*
X32580380Y51268381D01*
X31589904Y52106477D02*
X32389904Y52373143D01*
X31589904Y52639810D01*
X31856571Y52906477D02*
X32656571Y52906477D01*
X31894666Y52906477D02*
X31856571Y52982667D01*
X31856571Y53135048D01*
X31894666Y53211239D01*
X31932761Y53249334D01*
X32008952Y53287429D01*
X32237523Y53287429D01*
X32313714Y53249334D01*
X32351809Y53211239D01*
X32389904Y53135048D01*
X32389904Y52982667D01*
X32351809Y52906477D01*
X31856571Y53630286D02*
X32656571Y53630286D01*
X31894666Y53630286D02*
X31856571Y53706477D01*
X31856571Y53858858D01*
X31894666Y53935048D01*
X31932761Y53973143D01*
X32008952Y54011239D01*
X32237523Y54011239D01*
X32313714Y53973143D01*
X32351809Y53935048D01*
X32389904Y53858858D01*
X32389904Y53706477D01*
X32351809Y53630286D01*
X33659904Y49058858D02*
X33126571Y49058858D01*
X32859904Y49058858D02*
X32898000Y49020762D01*
X32936095Y49058858D01*
X32898000Y49096953D01*
X32859904Y49058858D01*
X32936095Y49058858D01*
X33126571Y49439810D02*
X33659904Y49439810D01*
X33202761Y49439810D02*
X33164666Y49477905D01*
X33126571Y49554096D01*
X33126571Y49668381D01*
X33164666Y49744572D01*
X33240857Y49782667D01*
X33659904Y49782667D01*
X33126571Y50163620D02*
X33926571Y50163620D01*
X33164666Y50163620D02*
X33126571Y50239810D01*
X33126571Y50392191D01*
X33164666Y50468381D01*
X33202761Y50506477D01*
X33278952Y50544572D01*
X33507523Y50544572D01*
X33583714Y50506477D01*
X33621809Y50468381D01*
X33659904Y50392191D01*
X33659904Y50239810D01*
X33621809Y50163620D01*
X33126571Y51230286D02*
X33659904Y51230286D01*
X33126571Y50887429D02*
X33545619Y50887429D01*
X33621809Y50925524D01*
X33659904Y51001715D01*
X33659904Y51116000D01*
X33621809Y51192191D01*
X33583714Y51230286D01*
X33126571Y51496953D02*
X33126571Y51801715D01*
X32859904Y51611239D02*
X33545619Y51611239D01*
X33621809Y51649334D01*
X33659904Y51725524D01*
X33659904Y51801715D01*
X33659904Y52792191D02*
X33621809Y52716000D01*
X33583714Y52677905D01*
X33507523Y52639810D01*
X33278952Y52639810D01*
X33202761Y52677905D01*
X33164666Y52716000D01*
X33126571Y52792191D01*
X33126571Y52906477D01*
X33164666Y52982667D01*
X33202761Y53020762D01*
X33278952Y53058858D01*
X33507523Y53058858D01*
X33583714Y53020762D01*
X33621809Y52982667D01*
X33659904Y52906477D01*
X33659904Y52792191D01*
X33126571Y53401715D02*
X33659904Y53401715D01*
X33202761Y53401715D02*
X33164666Y53439810D01*
X33126571Y53516000D01*
X33126571Y53630286D01*
X33164666Y53706477D01*
X33240857Y53744572D01*
X33659904Y53744572D01*
X33659904Y54239810D02*
X33621809Y54163620D01*
X33545619Y54125524D01*
X32859904Y54125524D01*
X33126571Y54468381D02*
X33659904Y54658858D01*
X33126571Y54849334D02*
X33659904Y54658858D01*
X33850380Y54582667D01*
X33888476Y54544572D01*
X33926571Y54468381D01*
X45666666Y94457620D02*
X45666666Y93743334D01*
X45619047Y93600477D01*
X45523809Y93505239D01*
X45380952Y93457620D01*
X45285714Y93457620D01*
X46571428Y94124286D02*
X46571428Y93457620D01*
X46333333Y94505239D02*
X46095238Y93790953D01*
X46714285Y93790953D01*
X32088095Y93087619D02*
X32088095Y92278095D01*
X32135714Y92182857D01*
X32183333Y92135238D01*
X32278571Y92087619D01*
X32469047Y92087619D01*
X32564285Y92135238D01*
X32611904Y92182857D01*
X32659523Y92278095D01*
X32659523Y93087619D01*
X33659523Y92087619D02*
X33088095Y92087619D01*
X33373809Y92087619D02*
X33373809Y93087619D01*
X33278571Y92944761D01*
X33183333Y92849523D01*
X33088095Y92801904D01*
X40866666Y69097620D02*
X40866666Y68383334D01*
X40819047Y68240477D01*
X40723809Y68145239D01*
X40580952Y68097620D01*
X40485714Y68097620D01*
X41342857Y68097620D02*
X41342857Y69097620D01*
X41723809Y69097620D01*
X41819047Y69050000D01*
X41866666Y69002381D01*
X41914285Y68907143D01*
X41914285Y68764286D01*
X41866666Y68669048D01*
X41819047Y68621429D01*
X41723809Y68573810D01*
X41342857Y68573810D01*
X42247619Y69097620D02*
X42866666Y69097620D01*
X42533333Y68716667D01*
X42676190Y68716667D01*
X42771428Y68669048D01*
X42819047Y68621429D01*
X42866666Y68526191D01*
X42866666Y68288096D01*
X42819047Y68192858D01*
X42771428Y68145239D01*
X42676190Y68097620D01*
X42390476Y68097620D01*
X42295238Y68145239D01*
X42247619Y68192858D01*
D11*
X29743333Y8480000D02*
X32603333Y8480000D01*
X32603333Y8480000D02*
X32603333Y10400000D01*
X32603333Y10400000D02*
X29743333Y10400000D01*
X31830000Y14842500D02*
X31830000Y11982500D01*
X33750000Y11982500D02*
X33750000Y14842500D01*
X31830000Y11982500D02*
X33750000Y11982500D01*
X25540000Y8440000D02*
X25540000Y10440000D01*
X28340000Y8440000D02*
X25540000Y8440000D01*
X28340000Y10440000D02*
X28340000Y8440000D01*
X25540000Y10440000D02*
X28340000Y10440000D01*
X40040000Y8440000D02*
X37240000Y8440000D01*
X40040000Y10440000D02*
X40040000Y8440000D01*
X37240000Y10440000D02*
X40040000Y10440000D01*
X37240000Y8440000D02*
X37240000Y10440000D01*
X10690000Y70220000D02*
X10690000Y71550000D01*
X10690000Y63810000D02*
X15890000Y63810000D01*
X13290000Y68950000D02*
X13290000Y71550000D01*
X10690000Y68950000D02*
X13290000Y68950000D01*
X13290000Y71550000D02*
X15890000Y71550000D01*
X10690000Y71550000D02*
X12020000Y71550000D01*
X15890000Y71550000D02*
X15890000Y63810000D01*
X10690000Y68950000D02*
X10690000Y63810000D01*
X35836666Y10400000D02*
X32976666Y10400000D01*
X32976666Y8480000D02*
X35836666Y8480000D01*
X32976666Y10400000D02*
X32976666Y8480000D01*
X49247500Y63270000D02*
X49247500Y76560000D01*
X47937500Y61970000D02*
X47937500Y95250000D01*
X49247500Y76560000D02*
X47937500Y76560000D01*
X55747500Y63270000D02*
X49247500Y63270000D01*
X49247500Y93950000D02*
X55747500Y93950000D01*
X46547500Y89540000D02*
X47547500Y90040000D01*
X49247500Y76560000D02*
X49247500Y76560000D01*
X57057500Y61970000D02*
X47937500Y61970000D01*
X55747500Y93950000D02*
X55747500Y63270000D01*
X57057500Y95250000D02*
X57057500Y61970000D01*
X47937500Y80660000D02*
X49247500Y80660000D01*
X49247500Y80660000D02*
X49247500Y93950000D01*
X47937500Y95250000D02*
X57057500Y95250000D01*
X47547500Y90040000D02*
X46547500Y90540000D01*
X46547500Y90540000D02*
X46547500Y89540000D01*
D16*
X21264159Y78413274D02*
X20097433Y79580000D01*
X32790000Y66887433D02*
X33956726Y68054159D01*
X31976827Y91459394D02*
X31623274Y91105841D01*
X44315841Y80746726D02*
X45482567Y79580000D01*
X33603173Y91459394D02*
X31976827Y91459394D01*
X33956726Y91105841D02*
X33603173Y91459394D01*
X20097433Y79580000D02*
X21264159Y80746726D01*
X45482567Y79580000D02*
X44315841Y78413274D01*
X31623274Y68054159D02*
X32790000Y66887433D01*
D11*
X43120000Y62005000D02*
X41790000Y62005000D01*
X43120000Y67205000D02*
X40460000Y67205000D01*
X43120000Y64605000D02*
X40460000Y64605000D01*
X43120000Y63335000D02*
X43120000Y62005000D01*
X43120000Y64605000D02*
X43120000Y67205000D01*
X40460000Y64605000D02*
X40460000Y67205000D01*
M02*
