G04 #@! TF.GenerationSoftware,KiCad,Pcbnew,(5.99.0-8453-g50e22de3ba)*
G04 #@! TF.CreationDate,2021-01-21T16:08:03-08:00*
G04 #@! TF.ProjectId,ATF1502AS-EVB,41544631-3530-4324-9153-2d4556422e6b,rev?*
G04 #@! TF.SameCoordinates,Original*
G04 #@! TF.FileFunction,Legend,Top*
G04 #@! TF.FilePolarity,Positive*
%FSLAX46Y46*%
G04 Gerber Fmt 4.6, Leading zero omitted, Abs format (unit mm)*
G04 Created by KiCad (PCBNEW (5.99.0-8453-g50e22de3ba)) date 2021-01-21 16:08:03*
%MOMM*%
%LPD*%
G01*
G04 APERTURE LIST*
%ADD10C,0.120000*%
%ADD11C,0.300000*%
%ADD12C,0.254000*%
%ADD13C,0.250000*%
%ADD14C,0.150000*%
G04 APERTURE END LIST*
D10*
X55245000Y-95885000D02*
X58420000Y-95885000D01*
X55245000Y-99060000D02*
X55245000Y-95885000D01*
X54610000Y-99060000D02*
X55245000Y-99060000D01*
X69215000Y-95885000D02*
X66040000Y-95885000D01*
X69215000Y-96520000D02*
X69215000Y-95885000D01*
X69215000Y-99060000D02*
X69215000Y-96520000D01*
X69850000Y-99060000D02*
X69215000Y-99060000D01*
D11*
X60480000Y-51883571D02*
X60480000Y-52955000D01*
X60408571Y-53169285D01*
X60265714Y-53312142D01*
X60051428Y-53383571D01*
X59908571Y-53383571D01*
X60980000Y-51883571D02*
X61837142Y-51883571D01*
X61408571Y-53383571D02*
X61408571Y-51883571D01*
X62265714Y-52955000D02*
X62980000Y-52955000D01*
X62122857Y-53383571D02*
X62622857Y-51883571D01*
X63122857Y-53383571D01*
X64408571Y-51955000D02*
X64265714Y-51883571D01*
X64051428Y-51883571D01*
X63837142Y-51955000D01*
X63694285Y-52097857D01*
X63622857Y-52240714D01*
X63551428Y-52526428D01*
X63551428Y-52740714D01*
X63622857Y-53026428D01*
X63694285Y-53169285D01*
X63837142Y-53312142D01*
X64051428Y-53383571D01*
X64194285Y-53383571D01*
X64408571Y-53312142D01*
X64480000Y-53240714D01*
X64480000Y-52740714D01*
X64194285Y-52740714D01*
D12*
X65666861Y-60403619D02*
X66247433Y-60403619D01*
X65957147Y-61419619D02*
X65957147Y-60403619D01*
X66586100Y-61419619D02*
X66586100Y-60403619D01*
X66828004Y-60403619D01*
X66973147Y-60452000D01*
X67069909Y-60548761D01*
X67118290Y-60645523D01*
X67166671Y-60839047D01*
X67166671Y-60984190D01*
X67118290Y-61177714D01*
X67069909Y-61274476D01*
X66973147Y-61371238D01*
X66828004Y-61419619D01*
X66586100Y-61419619D01*
X67795623Y-60403619D02*
X67989147Y-60403619D01*
X68085909Y-60452000D01*
X68182671Y-60548761D01*
X68231052Y-60742285D01*
X68231052Y-61080952D01*
X68182671Y-61274476D01*
X68085909Y-61371238D01*
X67989147Y-61419619D01*
X67795623Y-61419619D01*
X67698861Y-61371238D01*
X67602100Y-61274476D01*
X67553719Y-61080952D01*
X67553719Y-60742285D01*
X67602100Y-60548761D01*
X67698861Y-60452000D01*
X67795623Y-60403619D01*
X65666861Y-57863619D02*
X66247433Y-57863619D01*
X65957147Y-58879619D02*
X65957147Y-57863619D01*
X67166671Y-58782857D02*
X67118290Y-58831238D01*
X66973147Y-58879619D01*
X66876385Y-58879619D01*
X66731242Y-58831238D01*
X66634480Y-58734476D01*
X66586100Y-58637714D01*
X66537719Y-58444190D01*
X66537719Y-58299047D01*
X66586100Y-58105523D01*
X66634480Y-58008761D01*
X66731242Y-57912000D01*
X66876385Y-57863619D01*
X66973147Y-57863619D01*
X67118290Y-57912000D01*
X67166671Y-57960380D01*
X67602100Y-58879619D02*
X67602100Y-57863619D01*
X68182671Y-58879619D02*
X67747242Y-58299047D01*
X68182671Y-57863619D02*
X67602100Y-58444190D01*
X65666861Y-55323619D02*
X66005528Y-56339619D01*
X66344195Y-55323619D01*
X67263433Y-56242857D02*
X67215052Y-56291238D01*
X67069909Y-56339619D01*
X66973147Y-56339619D01*
X66828004Y-56291238D01*
X66731242Y-56194476D01*
X66682861Y-56097714D01*
X66634480Y-55904190D01*
X66634480Y-55759047D01*
X66682861Y-55565523D01*
X66731242Y-55468761D01*
X66828004Y-55372000D01*
X66973147Y-55323619D01*
X67069909Y-55323619D01*
X67215052Y-55372000D01*
X67263433Y-55420380D01*
X68279433Y-56242857D02*
X68231052Y-56291238D01*
X68085909Y-56339619D01*
X67989147Y-56339619D01*
X67844004Y-56291238D01*
X67747242Y-56194476D01*
X67698861Y-56097714D01*
X67650480Y-55904190D01*
X67650480Y-55759047D01*
X67698861Y-55565523D01*
X67747242Y-55468761D01*
X67844004Y-55372000D01*
X67989147Y-55323619D01*
X68085909Y-55323619D01*
X68231052Y-55372000D01*
X68279433Y-55420380D01*
X56712757Y-60403619D02*
X57293328Y-60403619D01*
X57003042Y-61419619D02*
X57003042Y-60403619D01*
X57631995Y-61419619D02*
X57631995Y-60403619D01*
X57873900Y-60403619D01*
X58019042Y-60452000D01*
X58115804Y-60548761D01*
X58164185Y-60645523D01*
X58212566Y-60839047D01*
X58212566Y-60984190D01*
X58164185Y-61177714D01*
X58115804Y-61274476D01*
X58019042Y-61371238D01*
X57873900Y-61419619D01*
X57631995Y-61419619D01*
X58647995Y-61419619D02*
X58647995Y-60403619D01*
X56083804Y-57863619D02*
X56664376Y-57863619D01*
X56374090Y-58879619D02*
X56374090Y-57863619D01*
X57003042Y-58879619D02*
X57003042Y-57863619D01*
X57341709Y-58589333D01*
X57680376Y-57863619D01*
X57680376Y-58879619D01*
X58115804Y-58831238D02*
X58260947Y-58879619D01*
X58502852Y-58879619D01*
X58599614Y-58831238D01*
X58647995Y-58782857D01*
X58696376Y-58686095D01*
X58696376Y-58589333D01*
X58647995Y-58492571D01*
X58599614Y-58444190D01*
X58502852Y-58395809D01*
X58309328Y-58347428D01*
X58212566Y-58299047D01*
X58164185Y-58250666D01*
X58115804Y-58153904D01*
X58115804Y-58057142D01*
X58164185Y-57960380D01*
X58212566Y-57912000D01*
X58309328Y-57863619D01*
X58551233Y-57863619D01*
X58696376Y-57912000D01*
X56567614Y-55372000D02*
X56470852Y-55323619D01*
X56325709Y-55323619D01*
X56180566Y-55372000D01*
X56083804Y-55468761D01*
X56035423Y-55565523D01*
X55987042Y-55759047D01*
X55987042Y-55904190D01*
X56035423Y-56097714D01*
X56083804Y-56194476D01*
X56180566Y-56291238D01*
X56325709Y-56339619D01*
X56422471Y-56339619D01*
X56567614Y-56291238D01*
X56615995Y-56242857D01*
X56615995Y-55904190D01*
X56422471Y-55904190D01*
X57051423Y-56339619D02*
X57051423Y-55323619D01*
X57631995Y-56339619D01*
X57631995Y-55323619D01*
X58115804Y-56339619D02*
X58115804Y-55323619D01*
X58357709Y-55323619D01*
X58502852Y-55372000D01*
X58599614Y-55468761D01*
X58647995Y-55565523D01*
X58696376Y-55759047D01*
X58696376Y-55904190D01*
X58647995Y-56097714D01*
X58599614Y-56194476D01*
X58502852Y-56291238D01*
X58357709Y-56339619D01*
X58115804Y-56339619D01*
X69902614Y-52832000D02*
X69805852Y-52783619D01*
X69660709Y-52783619D01*
X69515566Y-52832000D01*
X69418804Y-52928761D01*
X69370423Y-53025523D01*
X69322042Y-53219047D01*
X69322042Y-53364190D01*
X69370423Y-53557714D01*
X69418804Y-53654476D01*
X69515566Y-53751238D01*
X69660709Y-53799619D01*
X69757471Y-53799619D01*
X69902614Y-53751238D01*
X69950995Y-53702857D01*
X69950995Y-53364190D01*
X69757471Y-53364190D01*
X70386423Y-53799619D02*
X70386423Y-52783619D01*
X70966995Y-53799619D01*
X70966995Y-52783619D01*
X71450804Y-53799619D02*
X71450804Y-52783619D01*
X71692709Y-52783619D01*
X71837852Y-52832000D01*
X71934614Y-52928761D01*
X71982995Y-53025523D01*
X72031376Y-53219047D01*
X72031376Y-53364190D01*
X71982995Y-53557714D01*
X71934614Y-53654476D01*
X71837852Y-53751238D01*
X71692709Y-53799619D01*
X71450804Y-53799619D01*
X69418804Y-50243619D02*
X69757471Y-51259619D01*
X70096138Y-50243619D01*
X71015376Y-51162857D02*
X70966995Y-51211238D01*
X70821852Y-51259619D01*
X70725090Y-51259619D01*
X70579947Y-51211238D01*
X70483185Y-51114476D01*
X70434804Y-51017714D01*
X70386423Y-50824190D01*
X70386423Y-50679047D01*
X70434804Y-50485523D01*
X70483185Y-50388761D01*
X70579947Y-50292000D01*
X70725090Y-50243619D01*
X70821852Y-50243619D01*
X70966995Y-50292000D01*
X71015376Y-50340380D01*
X72031376Y-51162857D02*
X71982995Y-51211238D01*
X71837852Y-51259619D01*
X71741090Y-51259619D01*
X71595947Y-51211238D01*
X71499185Y-51114476D01*
X71450804Y-51017714D01*
X71402423Y-50824190D01*
X71402423Y-50679047D01*
X71450804Y-50485523D01*
X71499185Y-50388761D01*
X71595947Y-50292000D01*
X71741090Y-50243619D01*
X71837852Y-50243619D01*
X71982995Y-50292000D01*
X72031376Y-50340380D01*
X70966995Y-55662285D02*
X70966995Y-56339619D01*
X70725090Y-55275238D02*
X70483185Y-56000952D01*
X71112138Y-56000952D01*
X71934614Y-55662285D02*
X71934614Y-56339619D01*
X71692709Y-55275238D02*
X71450804Y-56000952D01*
X72079757Y-56000952D01*
X70966995Y-58202285D02*
X70966995Y-58879619D01*
X70725090Y-57815238D02*
X70483185Y-58540952D01*
X71112138Y-58540952D01*
X71402423Y-57863619D02*
X72031376Y-57863619D01*
X71692709Y-58250666D01*
X71837852Y-58250666D01*
X71934614Y-58299047D01*
X71982995Y-58347428D01*
X72031376Y-58444190D01*
X72031376Y-58686095D01*
X71982995Y-58782857D01*
X71934614Y-58831238D01*
X71837852Y-58879619D01*
X71547566Y-58879619D01*
X71450804Y-58831238D01*
X71402423Y-58782857D01*
X70966995Y-60742285D02*
X70966995Y-61419619D01*
X70725090Y-60355238D02*
X70483185Y-61080952D01*
X71112138Y-61080952D01*
X71450804Y-60500380D02*
X71499185Y-60452000D01*
X71595947Y-60403619D01*
X71837852Y-60403619D01*
X71934614Y-60452000D01*
X71982995Y-60500380D01*
X72031376Y-60597142D01*
X72031376Y-60693904D01*
X71982995Y-60839047D01*
X71402423Y-61419619D01*
X72031376Y-61419619D01*
X69467185Y-64298285D02*
X69225280Y-64298285D01*
X69225280Y-62846857D01*
X69467185Y-62846857D01*
X70289661Y-63282285D02*
X70289661Y-63959619D01*
X70047757Y-62895238D02*
X69805852Y-63620952D01*
X70434804Y-63620952D01*
X71015376Y-62943619D02*
X71112138Y-62943619D01*
X71208900Y-62992000D01*
X71257280Y-63040380D01*
X71305661Y-63137142D01*
X71354042Y-63330666D01*
X71354042Y-63572571D01*
X71305661Y-63766095D01*
X71257280Y-63862857D01*
X71208900Y-63911238D01*
X71112138Y-63959619D01*
X71015376Y-63959619D01*
X70918614Y-63911238D01*
X70870233Y-63862857D01*
X70821852Y-63766095D01*
X70773471Y-63572571D01*
X70773471Y-63330666D01*
X70821852Y-63137142D01*
X70870233Y-63040380D01*
X70918614Y-62992000D01*
X71015376Y-62943619D01*
X71692709Y-64298285D02*
X71934614Y-64298285D01*
X71934614Y-62846857D01*
X71692709Y-62846857D01*
X69467185Y-66838285D02*
X69225280Y-66838285D01*
X69225280Y-65386857D01*
X69467185Y-65386857D01*
X69757471Y-65483619D02*
X70386423Y-65483619D01*
X70047757Y-65870666D01*
X70192900Y-65870666D01*
X70289661Y-65919047D01*
X70338042Y-65967428D01*
X70386423Y-66064190D01*
X70386423Y-66306095D01*
X70338042Y-66402857D01*
X70289661Y-66451238D01*
X70192900Y-66499619D01*
X69902614Y-66499619D01*
X69805852Y-66451238D01*
X69757471Y-66402857D01*
X70870233Y-66499619D02*
X71063757Y-66499619D01*
X71160519Y-66451238D01*
X71208900Y-66402857D01*
X71305661Y-66257714D01*
X71354042Y-66064190D01*
X71354042Y-65677142D01*
X71305661Y-65580380D01*
X71257280Y-65532000D01*
X71160519Y-65483619D01*
X70966995Y-65483619D01*
X70870233Y-65532000D01*
X70821852Y-65580380D01*
X70773471Y-65677142D01*
X70773471Y-65919047D01*
X70821852Y-66015809D01*
X70870233Y-66064190D01*
X70966995Y-66112571D01*
X71160519Y-66112571D01*
X71257280Y-66064190D01*
X71305661Y-66015809D01*
X71354042Y-65919047D01*
X71692709Y-66838285D02*
X71934614Y-66838285D01*
X71934614Y-65386857D01*
X71692709Y-65386857D01*
X69467185Y-69378285D02*
X69225280Y-69378285D01*
X69225280Y-67926857D01*
X69467185Y-67926857D01*
X69757471Y-68023619D02*
X70386423Y-68023619D01*
X70047757Y-68410666D01*
X70192900Y-68410666D01*
X70289661Y-68459047D01*
X70338042Y-68507428D01*
X70386423Y-68604190D01*
X70386423Y-68846095D01*
X70338042Y-68942857D01*
X70289661Y-68991238D01*
X70192900Y-69039619D01*
X69902614Y-69039619D01*
X69805852Y-68991238D01*
X69757471Y-68942857D01*
X70966995Y-68459047D02*
X70870233Y-68410666D01*
X70821852Y-68362285D01*
X70773471Y-68265523D01*
X70773471Y-68217142D01*
X70821852Y-68120380D01*
X70870233Y-68072000D01*
X70966995Y-68023619D01*
X71160519Y-68023619D01*
X71257280Y-68072000D01*
X71305661Y-68120380D01*
X71354042Y-68217142D01*
X71354042Y-68265523D01*
X71305661Y-68362285D01*
X71257280Y-68410666D01*
X71160519Y-68459047D01*
X70966995Y-68459047D01*
X70870233Y-68507428D01*
X70821852Y-68555809D01*
X70773471Y-68652571D01*
X70773471Y-68846095D01*
X70821852Y-68942857D01*
X70870233Y-68991238D01*
X70966995Y-69039619D01*
X71160519Y-69039619D01*
X71257280Y-68991238D01*
X71305661Y-68942857D01*
X71354042Y-68846095D01*
X71354042Y-68652571D01*
X71305661Y-68555809D01*
X71257280Y-68507428D01*
X71160519Y-68459047D01*
X71692709Y-69378285D02*
X71934614Y-69378285D01*
X71934614Y-67926857D01*
X71692709Y-67926857D01*
X69467185Y-71918285D02*
X69225280Y-71918285D01*
X69225280Y-70466857D01*
X69467185Y-70466857D01*
X69757471Y-70563619D02*
X70386423Y-70563619D01*
X70047757Y-70950666D01*
X70192900Y-70950666D01*
X70289661Y-70999047D01*
X70338042Y-71047428D01*
X70386423Y-71144190D01*
X70386423Y-71386095D01*
X70338042Y-71482857D01*
X70289661Y-71531238D01*
X70192900Y-71579619D01*
X69902614Y-71579619D01*
X69805852Y-71531238D01*
X69757471Y-71482857D01*
X70725090Y-70563619D02*
X71402423Y-70563619D01*
X70966995Y-71579619D01*
X71692709Y-71918285D02*
X71934614Y-71918285D01*
X71934614Y-70466857D01*
X71692709Y-70466857D01*
X70434804Y-73103619D02*
X71063757Y-73103619D01*
X70725090Y-73490666D01*
X70870233Y-73490666D01*
X70966995Y-73539047D01*
X71015376Y-73587428D01*
X71063757Y-73684190D01*
X71063757Y-73926095D01*
X71015376Y-74022857D01*
X70966995Y-74071238D01*
X70870233Y-74119619D01*
X70579947Y-74119619D01*
X70483185Y-74071238D01*
X70434804Y-74022857D01*
X71982995Y-73103619D02*
X71499185Y-73103619D01*
X71450804Y-73587428D01*
X71499185Y-73539047D01*
X71595947Y-73490666D01*
X71837852Y-73490666D01*
X71934614Y-73539047D01*
X71982995Y-73587428D01*
X72031376Y-73684190D01*
X72031376Y-73926095D01*
X71982995Y-74022857D01*
X71934614Y-74071238D01*
X71837852Y-74119619D01*
X71595947Y-74119619D01*
X71499185Y-74071238D01*
X71450804Y-74022857D01*
X70434804Y-75643619D02*
X71063757Y-75643619D01*
X70725090Y-76030666D01*
X70870233Y-76030666D01*
X70966995Y-76079047D01*
X71015376Y-76127428D01*
X71063757Y-76224190D01*
X71063757Y-76466095D01*
X71015376Y-76562857D01*
X70966995Y-76611238D01*
X70870233Y-76659619D01*
X70579947Y-76659619D01*
X70483185Y-76611238D01*
X70434804Y-76562857D01*
X71934614Y-75982285D02*
X71934614Y-76659619D01*
X71692709Y-75595238D02*
X71450804Y-76320952D01*
X72079757Y-76320952D01*
X70434804Y-78183619D02*
X71063757Y-78183619D01*
X70725090Y-78570666D01*
X70870233Y-78570666D01*
X70966995Y-78619047D01*
X71015376Y-78667428D01*
X71063757Y-78764190D01*
X71063757Y-79006095D01*
X71015376Y-79102857D01*
X70966995Y-79151238D01*
X70870233Y-79199619D01*
X70579947Y-79199619D01*
X70483185Y-79151238D01*
X70434804Y-79102857D01*
X71402423Y-78183619D02*
X72031376Y-78183619D01*
X71692709Y-78570666D01*
X71837852Y-78570666D01*
X71934614Y-78619047D01*
X71982995Y-78667428D01*
X72031376Y-78764190D01*
X72031376Y-79006095D01*
X71982995Y-79102857D01*
X71934614Y-79151238D01*
X71837852Y-79199619D01*
X71547566Y-79199619D01*
X71450804Y-79151238D01*
X71402423Y-79102857D01*
X69467185Y-82078285D02*
X69225280Y-82078285D01*
X69225280Y-80626857D01*
X69467185Y-80626857D01*
X69757471Y-80723619D02*
X70386423Y-80723619D01*
X70047757Y-81110666D01*
X70192900Y-81110666D01*
X70289661Y-81159047D01*
X70338042Y-81207428D01*
X70386423Y-81304190D01*
X70386423Y-81546095D01*
X70338042Y-81642857D01*
X70289661Y-81691238D01*
X70192900Y-81739619D01*
X69902614Y-81739619D01*
X69805852Y-81691238D01*
X69757471Y-81642857D01*
X70773471Y-80820380D02*
X70821852Y-80772000D01*
X70918614Y-80723619D01*
X71160519Y-80723619D01*
X71257280Y-80772000D01*
X71305661Y-80820380D01*
X71354042Y-80917142D01*
X71354042Y-81013904D01*
X71305661Y-81159047D01*
X70725090Y-81739619D01*
X71354042Y-81739619D01*
X71692709Y-82078285D02*
X71934614Y-82078285D01*
X71934614Y-80626857D01*
X71692709Y-80626857D01*
X70434804Y-83263619D02*
X71063757Y-83263619D01*
X70725090Y-83650666D01*
X70870233Y-83650666D01*
X70966995Y-83699047D01*
X71015376Y-83747428D01*
X71063757Y-83844190D01*
X71063757Y-84086095D01*
X71015376Y-84182857D01*
X70966995Y-84231238D01*
X70870233Y-84279619D01*
X70579947Y-84279619D01*
X70483185Y-84231238D01*
X70434804Y-84182857D01*
X72031376Y-84279619D02*
X71450804Y-84279619D01*
X71741090Y-84279619D02*
X71741090Y-83263619D01*
X71644328Y-83408761D01*
X71547566Y-83505523D01*
X71450804Y-83553904D01*
X70434804Y-85803619D02*
X71063757Y-85803619D01*
X70725090Y-86190666D01*
X70870233Y-86190666D01*
X70966995Y-86239047D01*
X71015376Y-86287428D01*
X71063757Y-86384190D01*
X71063757Y-86626095D01*
X71015376Y-86722857D01*
X70966995Y-86771238D01*
X70870233Y-86819619D01*
X70579947Y-86819619D01*
X70483185Y-86771238D01*
X70434804Y-86722857D01*
X71692709Y-85803619D02*
X71789471Y-85803619D01*
X71886233Y-85852000D01*
X71934614Y-85900380D01*
X71982995Y-85997142D01*
X72031376Y-86190666D01*
X72031376Y-86432571D01*
X71982995Y-86626095D01*
X71934614Y-86722857D01*
X71886233Y-86771238D01*
X71789471Y-86819619D01*
X71692709Y-86819619D01*
X71595947Y-86771238D01*
X71547566Y-86722857D01*
X71499185Y-86626095D01*
X71450804Y-86432571D01*
X71450804Y-86190666D01*
X71499185Y-85997142D01*
X71547566Y-85900380D01*
X71595947Y-85852000D01*
X71692709Y-85803619D01*
X70483185Y-88440380D02*
X70531566Y-88392000D01*
X70628328Y-88343619D01*
X70870233Y-88343619D01*
X70966995Y-88392000D01*
X71015376Y-88440380D01*
X71063757Y-88537142D01*
X71063757Y-88633904D01*
X71015376Y-88779047D01*
X70434804Y-89359619D01*
X71063757Y-89359619D01*
X71644328Y-88779047D02*
X71547566Y-88730666D01*
X71499185Y-88682285D01*
X71450804Y-88585523D01*
X71450804Y-88537142D01*
X71499185Y-88440380D01*
X71547566Y-88392000D01*
X71644328Y-88343619D01*
X71837852Y-88343619D01*
X71934614Y-88392000D01*
X71982995Y-88440380D01*
X72031376Y-88537142D01*
X72031376Y-88585523D01*
X71982995Y-88682285D01*
X71934614Y-88730666D01*
X71837852Y-88779047D01*
X71644328Y-88779047D01*
X71547566Y-88827428D01*
X71499185Y-88875809D01*
X71450804Y-88972571D01*
X71450804Y-89166095D01*
X71499185Y-89262857D01*
X71547566Y-89311238D01*
X71644328Y-89359619D01*
X71837852Y-89359619D01*
X71934614Y-89311238D01*
X71982995Y-89262857D01*
X72031376Y-89166095D01*
X72031376Y-88972571D01*
X71982995Y-88875809D01*
X71934614Y-88827428D01*
X71837852Y-88779047D01*
X70483185Y-90980380D02*
X70531566Y-90932000D01*
X70628328Y-90883619D01*
X70870233Y-90883619D01*
X70966995Y-90932000D01*
X71015376Y-90980380D01*
X71063757Y-91077142D01*
X71063757Y-91173904D01*
X71015376Y-91319047D01*
X70434804Y-91899619D01*
X71063757Y-91899619D01*
X71402423Y-90883619D02*
X72079757Y-90883619D01*
X71644328Y-91899619D01*
X69467185Y-94778285D02*
X69225280Y-94778285D01*
X69225280Y-93326857D01*
X69467185Y-93326857D01*
X69805852Y-93520380D02*
X69854233Y-93472000D01*
X69950995Y-93423619D01*
X70192900Y-93423619D01*
X70289661Y-93472000D01*
X70338042Y-93520380D01*
X70386423Y-93617142D01*
X70386423Y-93713904D01*
X70338042Y-93859047D01*
X69757471Y-94439619D01*
X70386423Y-94439619D01*
X71257280Y-93423619D02*
X71063757Y-93423619D01*
X70966995Y-93472000D01*
X70918614Y-93520380D01*
X70821852Y-93665523D01*
X70773471Y-93859047D01*
X70773471Y-94246095D01*
X70821852Y-94342857D01*
X70870233Y-94391238D01*
X70966995Y-94439619D01*
X71160519Y-94439619D01*
X71257280Y-94391238D01*
X71305661Y-94342857D01*
X71354042Y-94246095D01*
X71354042Y-94004190D01*
X71305661Y-93907428D01*
X71257280Y-93859047D01*
X71160519Y-93810666D01*
X70966995Y-93810666D01*
X70870233Y-93859047D01*
X70821852Y-93907428D01*
X70773471Y-94004190D01*
X71692709Y-94778285D02*
X71934614Y-94778285D01*
X71934614Y-93326857D01*
X71692709Y-93326857D01*
X70483185Y-96060380D02*
X70531566Y-96012000D01*
X70628328Y-95963619D01*
X70870233Y-95963619D01*
X70966995Y-96012000D01*
X71015376Y-96060380D01*
X71063757Y-96157142D01*
X71063757Y-96253904D01*
X71015376Y-96399047D01*
X70434804Y-96979619D01*
X71063757Y-96979619D01*
X71982995Y-95963619D02*
X71499185Y-95963619D01*
X71450804Y-96447428D01*
X71499185Y-96399047D01*
X71595947Y-96350666D01*
X71837852Y-96350666D01*
X71934614Y-96399047D01*
X71982995Y-96447428D01*
X72031376Y-96544190D01*
X72031376Y-96786095D01*
X71982995Y-96882857D01*
X71934614Y-96931238D01*
X71837852Y-96979619D01*
X71595947Y-96979619D01*
X71499185Y-96931238D01*
X71450804Y-96882857D01*
X70483185Y-98600380D02*
X70531566Y-98552000D01*
X70628328Y-98503619D01*
X70870233Y-98503619D01*
X70966995Y-98552000D01*
X71015376Y-98600380D01*
X71063757Y-98697142D01*
X71063757Y-98793904D01*
X71015376Y-98939047D01*
X70434804Y-99519619D01*
X71063757Y-99519619D01*
X71402423Y-98503619D02*
X72031376Y-98503619D01*
X71692709Y-98890666D01*
X71837852Y-98890666D01*
X71934614Y-98939047D01*
X71982995Y-98987428D01*
X72031376Y-99084190D01*
X72031376Y-99326095D01*
X71982995Y-99422857D01*
X71934614Y-99471238D01*
X71837852Y-99519619D01*
X71547566Y-99519619D01*
X71450804Y-99471238D01*
X71402423Y-99422857D01*
X52428623Y-98600380D02*
X52477004Y-98552000D01*
X52573766Y-98503619D01*
X52815671Y-98503619D01*
X52912433Y-98552000D01*
X52960814Y-98600380D01*
X53009195Y-98697142D01*
X53009195Y-98793904D01*
X52960814Y-98939047D01*
X52380242Y-99519619D01*
X53009195Y-99519619D01*
X53396242Y-98600380D02*
X53444623Y-98552000D01*
X53541385Y-98503619D01*
X53783290Y-98503619D01*
X53880052Y-98552000D01*
X53928433Y-98600380D01*
X53976814Y-98697142D01*
X53976814Y-98793904D01*
X53928433Y-98939047D01*
X53347861Y-99519619D01*
X53976814Y-99519619D01*
X52428623Y-96060380D02*
X52477004Y-96012000D01*
X52573766Y-95963619D01*
X52815671Y-95963619D01*
X52912433Y-96012000D01*
X52960814Y-96060380D01*
X53009195Y-96157142D01*
X53009195Y-96253904D01*
X52960814Y-96399047D01*
X52380242Y-96979619D01*
X53009195Y-96979619D01*
X53976814Y-96979619D02*
X53396242Y-96979619D01*
X53686528Y-96979619D02*
X53686528Y-95963619D01*
X53589766Y-96108761D01*
X53493004Y-96205523D01*
X53396242Y-96253904D01*
X52428623Y-93520380D02*
X52477004Y-93472000D01*
X52573766Y-93423619D01*
X52815671Y-93423619D01*
X52912433Y-93472000D01*
X52960814Y-93520380D01*
X53009195Y-93617142D01*
X53009195Y-93713904D01*
X52960814Y-93859047D01*
X52380242Y-94439619D01*
X53009195Y-94439619D01*
X53638147Y-93423619D02*
X53734909Y-93423619D01*
X53831671Y-93472000D01*
X53880052Y-93520380D01*
X53928433Y-93617142D01*
X53976814Y-93810666D01*
X53976814Y-94052571D01*
X53928433Y-94246095D01*
X53880052Y-94342857D01*
X53831671Y-94391238D01*
X53734909Y-94439619D01*
X53638147Y-94439619D01*
X53541385Y-94391238D01*
X53493004Y-94342857D01*
X53444623Y-94246095D01*
X53396242Y-94052571D01*
X53396242Y-93810666D01*
X53444623Y-93617142D01*
X53493004Y-93520380D01*
X53541385Y-93472000D01*
X53638147Y-93423619D01*
X53009195Y-91899619D02*
X52428623Y-91899619D01*
X52718909Y-91899619D02*
X52718909Y-90883619D01*
X52622147Y-91028761D01*
X52525385Y-91125523D01*
X52428623Y-91173904D01*
X53493004Y-91899619D02*
X53686528Y-91899619D01*
X53783290Y-91851238D01*
X53831671Y-91802857D01*
X53928433Y-91657714D01*
X53976814Y-91464190D01*
X53976814Y-91077142D01*
X53928433Y-90980380D01*
X53880052Y-90932000D01*
X53783290Y-90883619D01*
X53589766Y-90883619D01*
X53493004Y-90932000D01*
X53444623Y-90980380D01*
X53396242Y-91077142D01*
X53396242Y-91319047D01*
X53444623Y-91415809D01*
X53493004Y-91464190D01*
X53589766Y-91512571D01*
X53783290Y-91512571D01*
X53880052Y-91464190D01*
X53928433Y-91415809D01*
X53976814Y-91319047D01*
X53009195Y-89359619D02*
X52428623Y-89359619D01*
X52718909Y-89359619D02*
X52718909Y-88343619D01*
X52622147Y-88488761D01*
X52525385Y-88585523D01*
X52428623Y-88633904D01*
X53589766Y-88779047D02*
X53493004Y-88730666D01*
X53444623Y-88682285D01*
X53396242Y-88585523D01*
X53396242Y-88537142D01*
X53444623Y-88440380D01*
X53493004Y-88392000D01*
X53589766Y-88343619D01*
X53783290Y-88343619D01*
X53880052Y-88392000D01*
X53928433Y-88440380D01*
X53976814Y-88537142D01*
X53976814Y-88585523D01*
X53928433Y-88682285D01*
X53880052Y-88730666D01*
X53783290Y-88779047D01*
X53589766Y-88779047D01*
X53493004Y-88827428D01*
X53444623Y-88875809D01*
X53396242Y-88972571D01*
X53396242Y-89166095D01*
X53444623Y-89262857D01*
X53493004Y-89311238D01*
X53589766Y-89359619D01*
X53783290Y-89359619D01*
X53880052Y-89311238D01*
X53928433Y-89262857D01*
X53976814Y-89166095D01*
X53976814Y-88972571D01*
X53928433Y-88875809D01*
X53880052Y-88827428D01*
X53783290Y-88779047D01*
X53009195Y-86819619D02*
X52428623Y-86819619D01*
X52718909Y-86819619D02*
X52718909Y-85803619D01*
X52622147Y-85948761D01*
X52525385Y-86045523D01*
X52428623Y-86093904D01*
X53928433Y-85803619D02*
X53444623Y-85803619D01*
X53396242Y-86287428D01*
X53444623Y-86239047D01*
X53541385Y-86190666D01*
X53783290Y-86190666D01*
X53880052Y-86239047D01*
X53928433Y-86287428D01*
X53976814Y-86384190D01*
X53976814Y-86626095D01*
X53928433Y-86722857D01*
X53880052Y-86771238D01*
X53783290Y-86819619D01*
X53541385Y-86819619D01*
X53444623Y-86771238D01*
X53396242Y-86722857D01*
X53009195Y-84279619D02*
X52428623Y-84279619D01*
X52718909Y-84279619D02*
X52718909Y-83263619D01*
X52622147Y-83408761D01*
X52525385Y-83505523D01*
X52428623Y-83553904D01*
X53880052Y-83602285D02*
X53880052Y-84279619D01*
X53638147Y-83215238D02*
X53396242Y-83940952D01*
X54025195Y-83940952D01*
X53009195Y-81739619D02*
X52428623Y-81739619D01*
X52718909Y-81739619D02*
X52718909Y-80723619D01*
X52622147Y-80868761D01*
X52525385Y-80965523D01*
X52428623Y-81013904D01*
X53347861Y-80723619D02*
X53976814Y-80723619D01*
X53638147Y-81110666D01*
X53783290Y-81110666D01*
X53880052Y-81159047D01*
X53928433Y-81207428D01*
X53976814Y-81304190D01*
X53976814Y-81546095D01*
X53928433Y-81642857D01*
X53880052Y-81691238D01*
X53783290Y-81739619D01*
X53493004Y-81739619D01*
X53396242Y-81691238D01*
X53347861Y-81642857D01*
X53009195Y-79199619D02*
X52428623Y-79199619D01*
X52718909Y-79199619D02*
X52718909Y-78183619D01*
X52622147Y-78328761D01*
X52525385Y-78425523D01*
X52428623Y-78473904D01*
X53396242Y-78280380D02*
X53444623Y-78232000D01*
X53541385Y-78183619D01*
X53783290Y-78183619D01*
X53880052Y-78232000D01*
X53928433Y-78280380D01*
X53976814Y-78377142D01*
X53976814Y-78473904D01*
X53928433Y-78619047D01*
X53347861Y-79199619D01*
X53976814Y-79199619D01*
X53009195Y-76659619D02*
X52428623Y-76659619D01*
X52718909Y-76659619D02*
X52718909Y-75643619D01*
X52622147Y-75788761D01*
X52525385Y-75885523D01*
X52428623Y-75933904D01*
X53976814Y-76659619D02*
X53396242Y-76659619D01*
X53686528Y-76659619D02*
X53686528Y-75643619D01*
X53589766Y-75788761D01*
X53493004Y-75885523D01*
X53396242Y-75933904D01*
X53009195Y-74119619D02*
X52428623Y-74119619D01*
X52718909Y-74119619D02*
X52718909Y-73103619D01*
X52622147Y-73248761D01*
X52525385Y-73345523D01*
X52428623Y-73393904D01*
X53638147Y-73103619D02*
X53734909Y-73103619D01*
X53831671Y-73152000D01*
X53880052Y-73200380D01*
X53928433Y-73297142D01*
X53976814Y-73490666D01*
X53976814Y-73732571D01*
X53928433Y-73926095D01*
X53880052Y-74022857D01*
X53831671Y-74071238D01*
X53734909Y-74119619D01*
X53638147Y-74119619D01*
X53541385Y-74071238D01*
X53493004Y-74022857D01*
X53444623Y-73926095D01*
X53396242Y-73732571D01*
X53396242Y-73490666D01*
X53444623Y-73297142D01*
X53493004Y-73200380D01*
X53541385Y-73152000D01*
X53638147Y-73103619D01*
X52622147Y-70999047D02*
X52525385Y-70950666D01*
X52477004Y-70902285D01*
X52428623Y-70805523D01*
X52428623Y-70757142D01*
X52477004Y-70660380D01*
X52525385Y-70612000D01*
X52622147Y-70563619D01*
X52815671Y-70563619D01*
X52912433Y-70612000D01*
X52960814Y-70660380D01*
X53009195Y-70757142D01*
X53009195Y-70805523D01*
X52960814Y-70902285D01*
X52912433Y-70950666D01*
X52815671Y-70999047D01*
X52622147Y-70999047D01*
X52525385Y-71047428D01*
X52477004Y-71095809D01*
X52428623Y-71192571D01*
X52428623Y-71386095D01*
X52477004Y-71482857D01*
X52525385Y-71531238D01*
X52622147Y-71579619D01*
X52815671Y-71579619D01*
X52912433Y-71531238D01*
X52960814Y-71482857D01*
X53009195Y-71386095D01*
X53009195Y-71192571D01*
X52960814Y-71095809D01*
X52912433Y-71047428D01*
X52815671Y-70999047D01*
X52767290Y-69378285D02*
X52525385Y-69378285D01*
X52525385Y-67926857D01*
X52767290Y-67926857D01*
X53057576Y-68023619D02*
X53734909Y-68023619D01*
X53299480Y-69039619D01*
X54025195Y-69378285D02*
X54267100Y-69378285D01*
X54267100Y-67926857D01*
X54025195Y-67926857D01*
X52912433Y-65483619D02*
X52718909Y-65483619D01*
X52622147Y-65532000D01*
X52573766Y-65580380D01*
X52477004Y-65725523D01*
X52428623Y-65919047D01*
X52428623Y-66306095D01*
X52477004Y-66402857D01*
X52525385Y-66451238D01*
X52622147Y-66499619D01*
X52815671Y-66499619D01*
X52912433Y-66451238D01*
X52960814Y-66402857D01*
X53009195Y-66306095D01*
X53009195Y-66064190D01*
X52960814Y-65967428D01*
X52912433Y-65919047D01*
X52815671Y-65870666D01*
X52622147Y-65870666D01*
X52525385Y-65919047D01*
X52477004Y-65967428D01*
X52428623Y-66064190D01*
X52960814Y-62943619D02*
X52477004Y-62943619D01*
X52428623Y-63427428D01*
X52477004Y-63379047D01*
X52573766Y-63330666D01*
X52815671Y-63330666D01*
X52912433Y-63379047D01*
X52960814Y-63427428D01*
X53009195Y-63524190D01*
X53009195Y-63766095D01*
X52960814Y-63862857D01*
X52912433Y-63911238D01*
X52815671Y-63959619D01*
X52573766Y-63959619D01*
X52477004Y-63911238D01*
X52428623Y-63862857D01*
X52380242Y-60403619D02*
X53009195Y-60403619D01*
X52670528Y-60790666D01*
X52815671Y-60790666D01*
X52912433Y-60839047D01*
X52960814Y-60887428D01*
X53009195Y-60984190D01*
X53009195Y-61226095D01*
X52960814Y-61322857D01*
X52912433Y-61371238D01*
X52815671Y-61419619D01*
X52525385Y-61419619D01*
X52428623Y-61371238D01*
X52380242Y-61322857D01*
X52428623Y-57960380D02*
X52477004Y-57912000D01*
X52573766Y-57863619D01*
X52815671Y-57863619D01*
X52912433Y-57912000D01*
X52960814Y-57960380D01*
X53009195Y-58057142D01*
X53009195Y-58153904D01*
X52960814Y-58299047D01*
X52380242Y-58879619D01*
X53009195Y-58879619D01*
X52767290Y-56678285D02*
X52525385Y-56678285D01*
X52525385Y-55226857D01*
X52767290Y-55226857D01*
X53686528Y-56339619D02*
X53105957Y-56339619D01*
X53396242Y-56339619D02*
X53396242Y-55323619D01*
X53299480Y-55468761D01*
X53202719Y-55565523D01*
X53105957Y-55613904D01*
X54025195Y-56678285D02*
X54267100Y-56678285D01*
X54267100Y-55226857D01*
X54025195Y-55226857D01*
X52331861Y-50243619D02*
X52670528Y-51259619D01*
X53009195Y-50243619D01*
X53928433Y-51162857D02*
X53880052Y-51211238D01*
X53734909Y-51259619D01*
X53638147Y-51259619D01*
X53493004Y-51211238D01*
X53396242Y-51114476D01*
X53347861Y-51017714D01*
X53299480Y-50824190D01*
X53299480Y-50679047D01*
X53347861Y-50485523D01*
X53396242Y-50388761D01*
X53493004Y-50292000D01*
X53638147Y-50243619D01*
X53734909Y-50243619D01*
X53880052Y-50292000D01*
X53928433Y-50340380D01*
X54944433Y-51162857D02*
X54896052Y-51211238D01*
X54750909Y-51259619D01*
X54654147Y-51259619D01*
X54509004Y-51211238D01*
X54412242Y-51114476D01*
X54363861Y-51017714D01*
X54315480Y-50824190D01*
X54315480Y-50679047D01*
X54363861Y-50485523D01*
X54412242Y-50388761D01*
X54509004Y-50292000D01*
X54654147Y-50243619D01*
X54750909Y-50243619D01*
X54896052Y-50292000D01*
X54944433Y-50340380D01*
X53009195Y-52832000D02*
X52912433Y-52783619D01*
X52767290Y-52783619D01*
X52622147Y-52832000D01*
X52525385Y-52928761D01*
X52477004Y-53025523D01*
X52428623Y-53219047D01*
X52428623Y-53364190D01*
X52477004Y-53557714D01*
X52525385Y-53654476D01*
X52622147Y-53751238D01*
X52767290Y-53799619D01*
X52864052Y-53799619D01*
X53009195Y-53751238D01*
X53057576Y-53702857D01*
X53057576Y-53364190D01*
X52864052Y-53364190D01*
X53493004Y-53799619D02*
X53493004Y-52783619D01*
X54073576Y-53799619D01*
X54073576Y-52783619D01*
X54557385Y-53799619D02*
X54557385Y-52783619D01*
X54799290Y-52783619D01*
X54944433Y-52832000D01*
X55041195Y-52928761D01*
X55089576Y-53025523D01*
X55137957Y-53219047D01*
X55137957Y-53364190D01*
X55089576Y-53557714D01*
X55041195Y-53654476D01*
X54944433Y-53751238D01*
X54799290Y-53799619D01*
X54557385Y-53799619D01*
D13*
X56458571Y-99260000D02*
X57030000Y-99260000D01*
X56344285Y-99602857D02*
X56744285Y-98402857D01*
X57144285Y-99602857D01*
X57372857Y-98402857D02*
X58058571Y-98402857D01*
X57715714Y-99602857D02*
X57715714Y-98402857D01*
X58858571Y-98974285D02*
X58458571Y-98974285D01*
X58458571Y-99602857D02*
X58458571Y-98402857D01*
X59030000Y-98402857D01*
X60115714Y-99602857D02*
X59430000Y-99602857D01*
X59772857Y-99602857D02*
X59772857Y-98402857D01*
X59658571Y-98574285D01*
X59544285Y-98688571D01*
X59430000Y-98745714D01*
X61201428Y-98402857D02*
X60630000Y-98402857D01*
X60572857Y-98974285D01*
X60630000Y-98917142D01*
X60744285Y-98860000D01*
X61030000Y-98860000D01*
X61144285Y-98917142D01*
X61201428Y-98974285D01*
X61258571Y-99088571D01*
X61258571Y-99374285D01*
X61201428Y-99488571D01*
X61144285Y-99545714D01*
X61030000Y-99602857D01*
X60744285Y-99602857D01*
X60630000Y-99545714D01*
X60572857Y-99488571D01*
X61658571Y-99602857D02*
X62287142Y-98802857D01*
X61658571Y-98802857D02*
X62287142Y-99602857D01*
X62630000Y-99602857D02*
X63258571Y-98802857D01*
X62630000Y-98802857D02*
X63258571Y-99602857D01*
X63658571Y-99260000D02*
X64230000Y-99260000D01*
X63544285Y-99602857D02*
X63944285Y-98402857D01*
X64344285Y-99602857D01*
X64687142Y-99545714D02*
X64858571Y-99602857D01*
X65144285Y-99602857D01*
X65258571Y-99545714D01*
X65315714Y-99488571D01*
X65372857Y-99374285D01*
X65372857Y-99260000D01*
X65315714Y-99145714D01*
X65258571Y-99088571D01*
X65144285Y-99031428D01*
X64915714Y-98974285D01*
X64801428Y-98917142D01*
X64744285Y-98860000D01*
X64687142Y-98745714D01*
X64687142Y-98631428D01*
X64744285Y-98517142D01*
X64801428Y-98460000D01*
X64915714Y-98402857D01*
X65201428Y-98402857D01*
X65372857Y-98460000D01*
X66230000Y-100060000D02*
X66172857Y-100002857D01*
X66058571Y-99831428D01*
X66001428Y-99717142D01*
X65944285Y-99545714D01*
X65887142Y-99260000D01*
X65887142Y-99031428D01*
X65944285Y-98745714D01*
X66001428Y-98574285D01*
X66058571Y-98460000D01*
X66172857Y-98288571D01*
X66230000Y-98231428D01*
X66515714Y-98402857D02*
X66915714Y-99602857D01*
X67315714Y-98402857D01*
X67601428Y-100060000D02*
X67658571Y-100002857D01*
X67772857Y-99831428D01*
X67830000Y-99717142D01*
X67887142Y-99545714D01*
X67944285Y-99260000D01*
X67944285Y-99031428D01*
X67887142Y-98745714D01*
X67830000Y-98574285D01*
X67772857Y-98460000D01*
X67658571Y-98288571D01*
X67601428Y-98231428D01*
D10*
X63770000Y-84870000D02*
X65770000Y-84870000D01*
X63770000Y-87670000D02*
X63770000Y-84870000D01*
X65770000Y-87670000D02*
X63770000Y-87670000D01*
X65770000Y-84870000D02*
X65770000Y-87670000D01*
X58690000Y-84870000D02*
X60690000Y-84870000D01*
X58690000Y-87670000D02*
X58690000Y-84870000D01*
X60690000Y-87670000D02*
X58690000Y-87670000D01*
X60690000Y-84870000D02*
X60690000Y-87670000D01*
X65480000Y-90543748D02*
X65480000Y-91066252D01*
X64060000Y-90543748D02*
X64060000Y-91066252D01*
X62940000Y-89273748D02*
X62940000Y-89796252D01*
X61520000Y-89273748D02*
X61520000Y-89796252D01*
X60400000Y-90543748D02*
X60400000Y-91066252D01*
X58980000Y-90543748D02*
X58980000Y-91066252D01*
X64035000Y-94695000D02*
X64035000Y-97155000D01*
X64035000Y-97155000D02*
X65505000Y-97155000D01*
X65505000Y-97155000D02*
X65505000Y-94695000D01*
X61495000Y-93425000D02*
X61495000Y-95885000D01*
X61495000Y-95885000D02*
X62965000Y-95885000D01*
X62965000Y-95885000D02*
X62965000Y-93425000D01*
X58955000Y-94695000D02*
X58955000Y-97155000D01*
X58955000Y-97155000D02*
X60425000Y-97155000D01*
X60425000Y-97155000D02*
X60425000Y-94695000D01*
D14*
X62230000Y-67611445D02*
X61823414Y-68018031D01*
X69548555Y-74930000D02*
X69071258Y-75407297D01*
X62230000Y-82248555D02*
X62707297Y-81771258D01*
X54911445Y-74930000D02*
X55388742Y-74452703D01*
X62230000Y-67611445D02*
X62707297Y-68088742D01*
X54911445Y-74930000D02*
X55388742Y-75407297D01*
X62230000Y-82248555D02*
X61752703Y-81771258D01*
X69548555Y-74930000D02*
X69071258Y-74452703D01*
X61823414Y-68018031D02*
X60921852Y-67116470D01*
D10*
X59630000Y-62290000D02*
X64830000Y-62290000D01*
X59630000Y-57150000D02*
X59630000Y-62290000D01*
X64830000Y-54550000D02*
X64830000Y-62290000D01*
X59630000Y-57150000D02*
X62230000Y-57150000D01*
X62230000Y-57150000D02*
X62230000Y-54550000D01*
X62230000Y-54550000D02*
X64830000Y-54550000D01*
X59630000Y-55880000D02*
X59630000Y-54550000D01*
X59630000Y-54550000D02*
X60960000Y-54550000D01*
M02*
