M48
; DRILL file {KiCad 5.99.0-unknown-8bd2765~86~ubuntu18.04.1} date Sun 15 Dec 2019 06:04:23 PM UTC
; FORMAT={-:-/ absolute / metric / decimal}
; #@! TF.CreationDate,2019-12-15T18:04:23+00:00
; #@! TF.GenerationSoftware,Kicad,Pcbnew,5.99.0-unknown-8bd2765~86~ubuntu18.04.1
FMAT,2
METRIC
T1C0.400
T2C1.000
%
G90
G05
T1
X52.705Y-68.58
X54.102Y-59.69
X55.372Y-58.42
X57.404Y-73.914
X58.42Y-77.216
X59.366Y-78.097
X60.198Y-70.612
X62.23Y-84.455
X62.23Y-96.765
X63.246Y-79.756
X63.754Y-70.612
X66.04Y-77.216
X67.056Y-73.914
X69.088Y-58.42
X69.1Y-84.062
X70.358Y-59.69
X71.628Y-79.756
T2
X73.66Y-50.8
X73.66Y-53.34
X73.66Y-55.88
X73.66Y-58.42
X73.66Y-60.96
X73.66Y-63.5
X73.66Y-66.04
X73.66Y-68.58
X73.66Y-71.12
X73.66Y-73.66
X73.66Y-76.2
X73.66Y-78.74
X73.66Y-81.28
X73.66Y-83.82
X73.66Y-86.36
X73.66Y-88.9
X73.66Y-91.44
X73.66Y-93.98
X73.66Y-96.52
X73.66Y-99.06
X50.8Y-50.8
X50.8Y-53.34
X50.8Y-55.88
X50.8Y-58.42
X50.8Y-60.96
X50.8Y-63.5
X50.8Y-66.04
X50.8Y-68.58
X50.8Y-71.12
X50.8Y-73.66
X50.8Y-76.2
X50.8Y-78.74
X50.8Y-81.28
X50.8Y-83.82
X50.8Y-86.36
X50.8Y-88.9
X50.8Y-91.44
X50.8Y-93.98
X50.8Y-96.52
X50.8Y-99.06
X60.96Y-55.88
X60.96Y-58.42
X60.96Y-60.96
X63.5Y-55.88
X63.5Y-58.42
X63.5Y-60.96
T0
M30
