G04 #@! TF.GenerationSoftware,KiCad,Pcbnew,(5.99.0-8453-g50e22de3ba)*
G04 #@! TF.CreationDate,2021-01-21T16:08:03-08:00*
G04 #@! TF.ProjectId,ATF1502AS-EVB,41544631-3530-4324-9153-2d4556422e6b,rev?*
G04 #@! TF.SameCoordinates,Original*
G04 #@! TF.FileFunction,Soldermask,Top*
G04 #@! TF.FilePolarity,Negative*
%FSLAX46Y46*%
G04 Gerber Fmt 4.6, Leading zero omitted, Abs format (unit mm)*
G04 Created by KiCad (PCBNEW (5.99.0-8453-g50e22de3ba)) date 2021-01-21 16:08:03*
%MOMM*%
%LPD*%
G01*
G04 APERTURE LIST*
G04 Aperture macros list*
%AMRoundRect*
0 Rectangle with rounded corners*
0 $1 Rounding radius*
0 $2 $3 $4 $5 $6 $7 $8 $9 X,Y pos of 4 corners*
0 Add a 4 corners polygon primitive as box body*
4,1,4,$2,$3,$4,$5,$6,$7,$8,$9,$2,$3,0*
0 Add four circle primitives for the rounded corners*
1,1,$1+$1,$2,$3*
1,1,$1+$1,$4,$5*
1,1,$1+$1,$6,$7*
1,1,$1+$1,$8,$9*
0 Add four rect primitives between the rounded corners*
20,1,$1+$1,$2,$3,$4,$5,0*
20,1,$1+$1,$4,$5,$6,$7,0*
20,1,$1+$1,$6,$7,$8,$9,0*
20,1,$1+$1,$8,$9,$2,$3,0*%
G04 Aperture macros list end*
%ADD10O,1.802000X1.802000*%
%ADD11RoundRect,0.051000X-0.850000X-0.850000X0.850000X-0.850000X0.850000X0.850000X-0.850000X0.850000X0*%
%ADD12RoundRect,0.272174X-0.478826X0.353826X-0.478826X-0.353826X0.478826X-0.353826X0.478826X0.353826X0*%
%ADD13RoundRect,0.263000X0.263000X-0.313000X0.263000X0.313000X-0.263000X0.313000X-0.263000X-0.313000X0*%
%ADD14RoundRect,0.051000X-0.335876X-0.724784X0.724784X0.335876X0.335876X0.724784X-0.724784X-0.335876X0*%
%ADD15RoundRect,0.051000X-0.724784X0.335876X0.335876X-0.724784X0.724784X-0.335876X-0.335876X0.724784X0*%
G04 APERTURE END LIST*
D10*
X73660000Y-99060000D03*
X73660000Y-96520000D03*
X73660000Y-93980000D03*
X73660000Y-91440000D03*
X73660000Y-88900000D03*
X73660000Y-86360000D03*
X73660000Y-83820000D03*
X73660000Y-81280000D03*
X73660000Y-78740000D03*
X73660000Y-76200000D03*
X73660000Y-73660000D03*
X73660000Y-71120000D03*
X73660000Y-68580000D03*
X73660000Y-66040000D03*
X73660000Y-63500000D03*
X73660000Y-60960000D03*
X73660000Y-58420000D03*
X73660000Y-55880000D03*
X73660000Y-53340000D03*
X73660000Y-50800000D03*
X50800000Y-50800000D03*
X50800000Y-53340000D03*
D11*
X50800000Y-55880000D03*
D10*
X50800000Y-58420000D03*
X50800000Y-60960000D03*
X50800000Y-63500000D03*
X50800000Y-66040000D03*
X50800000Y-68580000D03*
X50800000Y-71120000D03*
X50800000Y-73660000D03*
X50800000Y-76200000D03*
X50800000Y-78740000D03*
X50800000Y-81280000D03*
X50800000Y-83820000D03*
X50800000Y-86360000D03*
X50800000Y-88900000D03*
X50800000Y-91440000D03*
X50800000Y-93980000D03*
X50800000Y-96520000D03*
X50800000Y-99060000D03*
G36*
X65556062Y-86081062D02*
G01*
X65548290Y-86087435D01*
X64798290Y-86587435D01*
X64759998Y-86595010D01*
X64741710Y-86587435D01*
X63991710Y-86087435D01*
X63969990Y-86055002D01*
X63969000Y-86045000D01*
X63969000Y-85045000D01*
X63983938Y-85008938D01*
X64020000Y-84994000D01*
X65520000Y-84994000D01*
X65556062Y-85008938D01*
X65571000Y-85045000D01*
X65571000Y-86045000D01*
X65556062Y-86081062D01*
G37*
G36*
X65556062Y-87531062D02*
G01*
X65520000Y-87546000D01*
X64020000Y-87546000D01*
X63983938Y-87531062D01*
X63969000Y-87495000D01*
X63969000Y-86345000D01*
X63983938Y-86308938D01*
X64020000Y-86294000D01*
X64048290Y-86302565D01*
X64770000Y-86783705D01*
X65491710Y-86302565D01*
X65530002Y-86294990D01*
X65562435Y-86316710D01*
X65571000Y-86345000D01*
X65571000Y-87495000D01*
X65556062Y-87531062D01*
G37*
G36*
X60476062Y-86081062D02*
G01*
X60468290Y-86087435D01*
X59718290Y-86587435D01*
X59679998Y-86595010D01*
X59661710Y-86587435D01*
X58911710Y-86087435D01*
X58889990Y-86055002D01*
X58889000Y-86045000D01*
X58889000Y-85045000D01*
X58903938Y-85008938D01*
X58940000Y-84994000D01*
X60440000Y-84994000D01*
X60476062Y-85008938D01*
X60491000Y-85045000D01*
X60491000Y-86045000D01*
X60476062Y-86081062D01*
G37*
G36*
X60476062Y-87531062D02*
G01*
X60440000Y-87546000D01*
X58940000Y-87546000D01*
X58903938Y-87531062D01*
X58889000Y-87495000D01*
X58889000Y-86345000D01*
X58903938Y-86308938D01*
X58940000Y-86294000D01*
X58968290Y-86302565D01*
X59690000Y-86783705D01*
X60411710Y-86302565D01*
X60450002Y-86294990D01*
X60482435Y-86316710D01*
X60491000Y-86345000D01*
X60491000Y-87495000D01*
X60476062Y-87531062D01*
G37*
D12*
X64770000Y-91830000D03*
X64770000Y-89780000D03*
X62230000Y-90560000D03*
X62230000Y-88510000D03*
X59690000Y-91830000D03*
X59690000Y-89780000D03*
D13*
X64770000Y-94620000D03*
X64770000Y-96370000D03*
X62230000Y-93350000D03*
X62230000Y-95100000D03*
X59690000Y-94620000D03*
X59690000Y-96370000D03*
D14*
X63432082Y-68071064D03*
X63997767Y-68636750D03*
X64563452Y-69202435D03*
X65129138Y-69768120D03*
X65694823Y-70333806D03*
X66260509Y-70899491D03*
X66826194Y-71465177D03*
X67391880Y-72030862D03*
X67957565Y-72596548D03*
X68523250Y-73162233D03*
X69088936Y-73727918D03*
D15*
X69088936Y-76132082D03*
X68523250Y-76697767D03*
X67957565Y-77263452D03*
X67391880Y-77829138D03*
X66826194Y-78394823D03*
X66260509Y-78960509D03*
X65694823Y-79526194D03*
X65129138Y-80091880D03*
X64563452Y-80657565D03*
X63997767Y-81223250D03*
X63432082Y-81788936D03*
D14*
X61027918Y-81788936D03*
X60462233Y-81223250D03*
X59896548Y-80657565D03*
X59330862Y-80091880D03*
X58765177Y-79526194D03*
X58199491Y-78960509D03*
X57633806Y-78394823D03*
X57068120Y-77829138D03*
X56502435Y-77263452D03*
X55936750Y-76697767D03*
X55371064Y-76132082D03*
D15*
X55371064Y-73727918D03*
X55936750Y-73162233D03*
X56502435Y-72596548D03*
X57068120Y-72030862D03*
X57633806Y-71465177D03*
X58199491Y-70899491D03*
X58765177Y-70333806D03*
X59330862Y-69768120D03*
X59896548Y-69202435D03*
X60462233Y-68636750D03*
X61027918Y-68071064D03*
D10*
X63500000Y-60960000D03*
X60960000Y-60960000D03*
X63500000Y-58420000D03*
X60960000Y-58420000D03*
X63500000Y-55880000D03*
D11*
X60960000Y-55880000D03*
G36*
X60463639Y-86091737D02*
G01*
X60463177Y-86093150D01*
X60462560Y-86093887D01*
X60462294Y-86094150D01*
X60460589Y-86095548D01*
X60460660Y-86095979D01*
X60460321Y-86096558D01*
X60418329Y-86146691D01*
X60409621Y-86215400D01*
X60439471Y-86277970D01*
X60452115Y-86286938D01*
X60452374Y-86287156D01*
X60463998Y-86298804D01*
X60464513Y-86300737D01*
X60463098Y-86302149D01*
X60461815Y-86302064D01*
X60449602Y-86296990D01*
X60430499Y-86296970D01*
X60412653Y-86304340D01*
X59691109Y-86785369D01*
X59689114Y-86785498D01*
X59688891Y-86785369D01*
X58967263Y-86304283D01*
X58958838Y-86299787D01*
X58940000Y-86296040D01*
X58923619Y-86299298D01*
X58921725Y-86298655D01*
X58921335Y-86296693D01*
X58921694Y-86296053D01*
X58963455Y-86246081D01*
X58972086Y-86177365D01*
X58942121Y-86114735D01*
X58923455Y-86098579D01*
X58923351Y-86098482D01*
X58920546Y-86095682D01*
X58920027Y-86093751D01*
X58921440Y-86092336D01*
X58923068Y-86092603D01*
X59662655Y-86585661D01*
X59680397Y-86593010D01*
X59699501Y-86593030D01*
X59717347Y-86585660D01*
X60460534Y-86090202D01*
X60462529Y-86090073D01*
X60463639Y-86091737D01*
G37*
G36*
X65543639Y-86091737D02*
G01*
X65543177Y-86093150D01*
X65542560Y-86093887D01*
X65542294Y-86094150D01*
X65540589Y-86095548D01*
X65540660Y-86095979D01*
X65540321Y-86096558D01*
X65498329Y-86146691D01*
X65489621Y-86215400D01*
X65519471Y-86277970D01*
X65532115Y-86286938D01*
X65532374Y-86287156D01*
X65543998Y-86298804D01*
X65544513Y-86300737D01*
X65543098Y-86302149D01*
X65541815Y-86302064D01*
X65529602Y-86296990D01*
X65510499Y-86296970D01*
X65492653Y-86304340D01*
X64771109Y-86785369D01*
X64769114Y-86785498D01*
X64768891Y-86785369D01*
X64047263Y-86304283D01*
X64038838Y-86299787D01*
X64020000Y-86296040D01*
X64003619Y-86299298D01*
X64001725Y-86298655D01*
X64001335Y-86296693D01*
X64001694Y-86296053D01*
X64043455Y-86246081D01*
X64052086Y-86177365D01*
X64022121Y-86114735D01*
X64003455Y-86098579D01*
X64003351Y-86098482D01*
X64000546Y-86095682D01*
X64000027Y-86093751D01*
X64001440Y-86092336D01*
X64003068Y-86092603D01*
X64742655Y-86585661D01*
X64760397Y-86593010D01*
X64779501Y-86593030D01*
X64797347Y-86585660D01*
X65540534Y-86090202D01*
X65542529Y-86090073D01*
X65543639Y-86091737D01*
G37*
G36*
X63224526Y-80892025D02*
G01*
X63225169Y-80893139D01*
X63227750Y-80906111D01*
X63238475Y-80922162D01*
X64298855Y-81982542D01*
X64314906Y-81993267D01*
X64327878Y-81995848D01*
X64329382Y-81997167D01*
X64328992Y-81999129D01*
X64327878Y-81999772D01*
X64311609Y-82003008D01*
X64312018Y-82005060D01*
X64311375Y-82006954D01*
X64310235Y-82007442D01*
X64287652Y-82009467D01*
X64232965Y-82051962D01*
X64215412Y-82101739D01*
X64213893Y-82103040D01*
X64213136Y-82103036D01*
X64211840Y-82102778D01*
X64208604Y-82119047D01*
X64207285Y-82120551D01*
X64205323Y-82120161D01*
X64204680Y-82119047D01*
X64202099Y-82106075D01*
X64191374Y-82090024D01*
X63130994Y-81029644D01*
X63114943Y-81018919D01*
X63101971Y-81016338D01*
X63100467Y-81015019D01*
X63100857Y-81013057D01*
X63101971Y-81012414D01*
X63118240Y-81009178D01*
X63117831Y-81007126D01*
X63118474Y-81005232D01*
X63119614Y-81004744D01*
X63142197Y-81002719D01*
X63196884Y-80960224D01*
X63214437Y-80910447D01*
X63215956Y-80909146D01*
X63216713Y-80909150D01*
X63218009Y-80909408D01*
X63221245Y-80893139D01*
X63222564Y-80891635D01*
X63224526Y-80892025D01*
G37*
G36*
X61238112Y-80892025D02*
G01*
X61238755Y-80893139D01*
X61241991Y-80909408D01*
X61244046Y-80908999D01*
X61245940Y-80909642D01*
X61246428Y-80910782D01*
X61248459Y-80933389D01*
X61290964Y-80988068D01*
X61340722Y-81005602D01*
X61342023Y-81007121D01*
X61342019Y-81007878D01*
X61341760Y-81009178D01*
X61358029Y-81012414D01*
X61359533Y-81013733D01*
X61359143Y-81015695D01*
X61358029Y-81016338D01*
X61345057Y-81018919D01*
X61329006Y-81029644D01*
X60268626Y-82090024D01*
X60257901Y-82106075D01*
X60255320Y-82119047D01*
X60254001Y-82120551D01*
X60252039Y-82120161D01*
X60251396Y-82119047D01*
X60248160Y-82102778D01*
X60246105Y-82103187D01*
X60244211Y-82102544D01*
X60243723Y-82101404D01*
X60241692Y-82078797D01*
X60199187Y-82024118D01*
X60149429Y-82006584D01*
X60148128Y-82005065D01*
X60148132Y-82004308D01*
X60148391Y-82003008D01*
X60132122Y-81999772D01*
X60130618Y-81998453D01*
X60131008Y-81996491D01*
X60132122Y-81995848D01*
X60145094Y-81993267D01*
X60161145Y-81982542D01*
X61221525Y-80922162D01*
X61232250Y-80906111D01*
X61234831Y-80893139D01*
X61236150Y-80891635D01*
X61238112Y-80892025D01*
G37*
G36*
X60672427Y-80326340D02*
G01*
X60673070Y-80327454D01*
X60676306Y-80343723D01*
X60678358Y-80343314D01*
X60680252Y-80343957D01*
X60680740Y-80345097D01*
X60682765Y-80367680D01*
X60725260Y-80422367D01*
X60775036Y-80439920D01*
X60776337Y-80441439D01*
X60776333Y-80442196D01*
X60776075Y-80443492D01*
X60792344Y-80446728D01*
X60793848Y-80448047D01*
X60793458Y-80450009D01*
X60792344Y-80450652D01*
X60779372Y-80453233D01*
X60763321Y-80463958D01*
X59702941Y-81524338D01*
X59692216Y-81540389D01*
X59689635Y-81553361D01*
X59688316Y-81554865D01*
X59686354Y-81554475D01*
X59685711Y-81553361D01*
X59682475Y-81537092D01*
X59680423Y-81537501D01*
X59678529Y-81536858D01*
X59678041Y-81535718D01*
X59676016Y-81513135D01*
X59633521Y-81458448D01*
X59583745Y-81440895D01*
X59582444Y-81439376D01*
X59582448Y-81438619D01*
X59582706Y-81437323D01*
X59566437Y-81434087D01*
X59564933Y-81432768D01*
X59565323Y-81430806D01*
X59566437Y-81430163D01*
X59579409Y-81427582D01*
X59595460Y-81416857D01*
X60655840Y-80356477D01*
X60666565Y-80340426D01*
X60669146Y-80327454D01*
X60670465Y-80325950D01*
X60672427Y-80326340D01*
G37*
G36*
X63790211Y-80326340D02*
G01*
X63790854Y-80327454D01*
X63793435Y-80340426D01*
X63804160Y-80356477D01*
X64864540Y-81416857D01*
X64880591Y-81427582D01*
X64893563Y-81430163D01*
X64895067Y-81431482D01*
X64894677Y-81433444D01*
X64893563Y-81434087D01*
X64877294Y-81437323D01*
X64877703Y-81439375D01*
X64877060Y-81441269D01*
X64875920Y-81441757D01*
X64853337Y-81443782D01*
X64798650Y-81486277D01*
X64781097Y-81536053D01*
X64779578Y-81537354D01*
X64778821Y-81537350D01*
X64777525Y-81537092D01*
X64774289Y-81553361D01*
X64772970Y-81554865D01*
X64771008Y-81554475D01*
X64770365Y-81553361D01*
X64767784Y-81540389D01*
X64757059Y-81524338D01*
X63696679Y-80463958D01*
X63680628Y-80453233D01*
X63667656Y-80450652D01*
X63666152Y-80449333D01*
X63666542Y-80447371D01*
X63667656Y-80446728D01*
X63683925Y-80443492D01*
X63683516Y-80441440D01*
X63684159Y-80439546D01*
X63685299Y-80439058D01*
X63707882Y-80437033D01*
X63762569Y-80394538D01*
X63780122Y-80344762D01*
X63781641Y-80343461D01*
X63782398Y-80343465D01*
X63783694Y-80343723D01*
X63786930Y-80327454D01*
X63788249Y-80325950D01*
X63790211Y-80326340D01*
G37*
G36*
X64355897Y-79760655D02*
G01*
X64356540Y-79761769D01*
X64359121Y-79774741D01*
X64369846Y-79790792D01*
X65430226Y-80851172D01*
X65446277Y-80861897D01*
X65459249Y-80864478D01*
X65460753Y-80865797D01*
X65460363Y-80867759D01*
X65459249Y-80868402D01*
X65442980Y-80871638D01*
X65443389Y-80873693D01*
X65442746Y-80875587D01*
X65441606Y-80876075D01*
X65418999Y-80878106D01*
X65364320Y-80920611D01*
X65346786Y-80970369D01*
X65345267Y-80971670D01*
X65344510Y-80971666D01*
X65343210Y-80971407D01*
X65339974Y-80987676D01*
X65338655Y-80989180D01*
X65336693Y-80988790D01*
X65336050Y-80987676D01*
X65333469Y-80974704D01*
X65322744Y-80958653D01*
X64262364Y-79898273D01*
X64246313Y-79887548D01*
X64233341Y-79884967D01*
X64231837Y-79883648D01*
X64232227Y-79881686D01*
X64233341Y-79881043D01*
X64249610Y-79877807D01*
X64249201Y-79875752D01*
X64249844Y-79873858D01*
X64250984Y-79873370D01*
X64273591Y-79871339D01*
X64328270Y-79828834D01*
X64345804Y-79779076D01*
X64347323Y-79777775D01*
X64348080Y-79777779D01*
X64349380Y-79778038D01*
X64352616Y-79761769D01*
X64353935Y-79760265D01*
X64355897Y-79760655D01*
G37*
G36*
X60106741Y-79760655D02*
G01*
X60107384Y-79761769D01*
X60110620Y-79778038D01*
X60112672Y-79777629D01*
X60114566Y-79778272D01*
X60115054Y-79779412D01*
X60117079Y-79801995D01*
X60159574Y-79856682D01*
X60209351Y-79874235D01*
X60210652Y-79875754D01*
X60210648Y-79876511D01*
X60210390Y-79877807D01*
X60226659Y-79881043D01*
X60228163Y-79882362D01*
X60227773Y-79884324D01*
X60226659Y-79884967D01*
X60213687Y-79887548D01*
X60197636Y-79898273D01*
X59137256Y-80958653D01*
X59126531Y-80974704D01*
X59123950Y-80987676D01*
X59122631Y-80989180D01*
X59120669Y-80988790D01*
X59120026Y-80987676D01*
X59116790Y-80971407D01*
X59114738Y-80971816D01*
X59112844Y-80971173D01*
X59112356Y-80970033D01*
X59110331Y-80947450D01*
X59067836Y-80892763D01*
X59018059Y-80875210D01*
X59016758Y-80873691D01*
X59016762Y-80872934D01*
X59017020Y-80871638D01*
X59000751Y-80868402D01*
X58999247Y-80867083D01*
X58999637Y-80865121D01*
X59000751Y-80864478D01*
X59013723Y-80861897D01*
X59029774Y-80851172D01*
X60090154Y-79790792D01*
X60100879Y-79774741D01*
X60103460Y-79761769D01*
X60104779Y-79760265D01*
X60106741Y-79760655D01*
G37*
G36*
X59541056Y-79194969D02*
G01*
X59541699Y-79196083D01*
X59544935Y-79212352D01*
X59546990Y-79211943D01*
X59548884Y-79212586D01*
X59549372Y-79213726D01*
X59551403Y-79236333D01*
X59593908Y-79291012D01*
X59643666Y-79308546D01*
X59644967Y-79310065D01*
X59644963Y-79310822D01*
X59644704Y-79312122D01*
X59660973Y-79315358D01*
X59662477Y-79316677D01*
X59662087Y-79318639D01*
X59660973Y-79319282D01*
X59648001Y-79321863D01*
X59631950Y-79332588D01*
X58571570Y-80392968D01*
X58560845Y-80409019D01*
X58558264Y-80421991D01*
X58556945Y-80423495D01*
X58554983Y-80423105D01*
X58554340Y-80421991D01*
X58551104Y-80405722D01*
X58549049Y-80406131D01*
X58547155Y-80405488D01*
X58546667Y-80404348D01*
X58544636Y-80381741D01*
X58502131Y-80327062D01*
X58452373Y-80309528D01*
X58451072Y-80308009D01*
X58451076Y-80307252D01*
X58451335Y-80305952D01*
X58435066Y-80302716D01*
X58433562Y-80301397D01*
X58433952Y-80299435D01*
X58435066Y-80298792D01*
X58448038Y-80296211D01*
X58464089Y-80285486D01*
X59524469Y-79225106D01*
X59535194Y-79209055D01*
X59537775Y-79196083D01*
X59539094Y-79194579D01*
X59541056Y-79194969D01*
G37*
G36*
X64921582Y-79194969D02*
G01*
X64922225Y-79196083D01*
X64924806Y-79209055D01*
X64935531Y-79225106D01*
X65995911Y-80285486D01*
X66011962Y-80296211D01*
X66024934Y-80298792D01*
X66026438Y-80300111D01*
X66026048Y-80302073D01*
X66024934Y-80302716D01*
X66008665Y-80305952D01*
X66009074Y-80308004D01*
X66008431Y-80309898D01*
X66007291Y-80310386D01*
X65984708Y-80312411D01*
X65930021Y-80354906D01*
X65912468Y-80404683D01*
X65910949Y-80405984D01*
X65910192Y-80405980D01*
X65908896Y-80405722D01*
X65905660Y-80421991D01*
X65904341Y-80423495D01*
X65902379Y-80423105D01*
X65901736Y-80421991D01*
X65899155Y-80409019D01*
X65888430Y-80392968D01*
X64828050Y-79332588D01*
X64811999Y-79321863D01*
X64799027Y-79319282D01*
X64797523Y-79317963D01*
X64797913Y-79316001D01*
X64799027Y-79315358D01*
X64815296Y-79312122D01*
X64814887Y-79310070D01*
X64815530Y-79308176D01*
X64816670Y-79307688D01*
X64839253Y-79305663D01*
X64893940Y-79263168D01*
X64911493Y-79213391D01*
X64913012Y-79212090D01*
X64913769Y-79212094D01*
X64915065Y-79212352D01*
X64918301Y-79196083D01*
X64919620Y-79194579D01*
X64921582Y-79194969D01*
G37*
G36*
X58975370Y-78629284D02*
G01*
X58976013Y-78630398D01*
X58979249Y-78646667D01*
X58981301Y-78646258D01*
X58983195Y-78646901D01*
X58983683Y-78648041D01*
X58985708Y-78670624D01*
X59028203Y-78725311D01*
X59077980Y-78742864D01*
X59079281Y-78744383D01*
X59079277Y-78745140D01*
X59079019Y-78746436D01*
X59095288Y-78749672D01*
X59096792Y-78750991D01*
X59096402Y-78752953D01*
X59095288Y-78753596D01*
X59082316Y-78756177D01*
X59066265Y-78766902D01*
X58005885Y-79827282D01*
X57995160Y-79843333D01*
X57992579Y-79856305D01*
X57991260Y-79857809D01*
X57989298Y-79857419D01*
X57988655Y-79856305D01*
X57985419Y-79840036D01*
X57983367Y-79840445D01*
X57981473Y-79839802D01*
X57980985Y-79838662D01*
X57978960Y-79816079D01*
X57936465Y-79761392D01*
X57886688Y-79743839D01*
X57885387Y-79742320D01*
X57885391Y-79741563D01*
X57885649Y-79740267D01*
X57869380Y-79737031D01*
X57867876Y-79735712D01*
X57868266Y-79733750D01*
X57869380Y-79733107D01*
X57882352Y-79730526D01*
X57898403Y-79719801D01*
X58958783Y-78659421D01*
X58969508Y-78643370D01*
X58972089Y-78630398D01*
X58973408Y-78628894D01*
X58975370Y-78629284D01*
G37*
G36*
X65487268Y-78629284D02*
G01*
X65487911Y-78630398D01*
X65490492Y-78643370D01*
X65501217Y-78659421D01*
X66561597Y-79719801D01*
X66577648Y-79730526D01*
X66590620Y-79733107D01*
X66592124Y-79734426D01*
X66591734Y-79736388D01*
X66590620Y-79737031D01*
X66574351Y-79740267D01*
X66574760Y-79742322D01*
X66574117Y-79744216D01*
X66572977Y-79744704D01*
X66550370Y-79746735D01*
X66495691Y-79789240D01*
X66478157Y-79838998D01*
X66476638Y-79840299D01*
X66475881Y-79840295D01*
X66474581Y-79840036D01*
X66471345Y-79856305D01*
X66470026Y-79857809D01*
X66468064Y-79857419D01*
X66467421Y-79856305D01*
X66464840Y-79843333D01*
X66454115Y-79827282D01*
X65393735Y-78766902D01*
X65377684Y-78756177D01*
X65364712Y-78753596D01*
X65363208Y-78752277D01*
X65363598Y-78750315D01*
X65364712Y-78749672D01*
X65380981Y-78746436D01*
X65380572Y-78744381D01*
X65381215Y-78742487D01*
X65382355Y-78741999D01*
X65404962Y-78739968D01*
X65459641Y-78697463D01*
X65477175Y-78647705D01*
X65478694Y-78646404D01*
X65479451Y-78646408D01*
X65480751Y-78646667D01*
X65483987Y-78630398D01*
X65485306Y-78628894D01*
X65487268Y-78629284D01*
G37*
G36*
X66052953Y-78063598D02*
G01*
X66053596Y-78064712D01*
X66056177Y-78077684D01*
X66066902Y-78093735D01*
X67127282Y-79154115D01*
X67143333Y-79164840D01*
X67156305Y-79167421D01*
X67157809Y-79168740D01*
X67157419Y-79170702D01*
X67156305Y-79171345D01*
X67140036Y-79174581D01*
X67140445Y-79176633D01*
X67139802Y-79178527D01*
X67138662Y-79179015D01*
X67116079Y-79181040D01*
X67061392Y-79223535D01*
X67043839Y-79273312D01*
X67042320Y-79274613D01*
X67041563Y-79274609D01*
X67040267Y-79274351D01*
X67037031Y-79290620D01*
X67035712Y-79292124D01*
X67033750Y-79291734D01*
X67033107Y-79290620D01*
X67030526Y-79277648D01*
X67019801Y-79261597D01*
X65959421Y-78201217D01*
X65943370Y-78190492D01*
X65930398Y-78187911D01*
X65928894Y-78186592D01*
X65929284Y-78184630D01*
X65930398Y-78183987D01*
X65946667Y-78180751D01*
X65946258Y-78178699D01*
X65946901Y-78176805D01*
X65948041Y-78176317D01*
X65970624Y-78174292D01*
X66025311Y-78131797D01*
X66042864Y-78082020D01*
X66044383Y-78080719D01*
X66045140Y-78080723D01*
X66046436Y-78080981D01*
X66049672Y-78064712D01*
X66050991Y-78063208D01*
X66052953Y-78063598D01*
G37*
G36*
X58409685Y-78063598D02*
G01*
X58410328Y-78064712D01*
X58413564Y-78080981D01*
X58415619Y-78080572D01*
X58417513Y-78081215D01*
X58418001Y-78082355D01*
X58420032Y-78104962D01*
X58462537Y-78159641D01*
X58512295Y-78177175D01*
X58513596Y-78178694D01*
X58513592Y-78179451D01*
X58513333Y-78180751D01*
X58529602Y-78183987D01*
X58531106Y-78185306D01*
X58530716Y-78187268D01*
X58529602Y-78187911D01*
X58516630Y-78190492D01*
X58500579Y-78201217D01*
X57440199Y-79261597D01*
X57429474Y-79277648D01*
X57426893Y-79290620D01*
X57425574Y-79292124D01*
X57423612Y-79291734D01*
X57422969Y-79290620D01*
X57419733Y-79274351D01*
X57417678Y-79274760D01*
X57415784Y-79274117D01*
X57415296Y-79272977D01*
X57413265Y-79250370D01*
X57370760Y-79195691D01*
X57321002Y-79178157D01*
X57319701Y-79176638D01*
X57319705Y-79175881D01*
X57319964Y-79174581D01*
X57303695Y-79171345D01*
X57302191Y-79170026D01*
X57302581Y-79168064D01*
X57303695Y-79167421D01*
X57316667Y-79164840D01*
X57332718Y-79154115D01*
X58393098Y-78093735D01*
X58403823Y-78077684D01*
X58406404Y-78064712D01*
X58407723Y-78063208D01*
X58409685Y-78063598D01*
G37*
G36*
X66618639Y-77497913D02*
G01*
X66619282Y-77499027D01*
X66621863Y-77511999D01*
X66632588Y-77528050D01*
X67692968Y-78588430D01*
X67709019Y-78599155D01*
X67721991Y-78601736D01*
X67723495Y-78603055D01*
X67723105Y-78605017D01*
X67721991Y-78605660D01*
X67705722Y-78608896D01*
X67706131Y-78610951D01*
X67705488Y-78612845D01*
X67704348Y-78613333D01*
X67681741Y-78615364D01*
X67627062Y-78657869D01*
X67609528Y-78707627D01*
X67608009Y-78708928D01*
X67607252Y-78708924D01*
X67605952Y-78708665D01*
X67602716Y-78724934D01*
X67601397Y-78726438D01*
X67599435Y-78726048D01*
X67598792Y-78724934D01*
X67596211Y-78711962D01*
X67585486Y-78695911D01*
X66525106Y-77635531D01*
X66509055Y-77624806D01*
X66496083Y-77622225D01*
X66494579Y-77620906D01*
X66494969Y-77618944D01*
X66496083Y-77618301D01*
X66512352Y-77615065D01*
X66511943Y-77613010D01*
X66512586Y-77611116D01*
X66513726Y-77610628D01*
X66536333Y-77608597D01*
X66591012Y-77566092D01*
X66608546Y-77516334D01*
X66610065Y-77515033D01*
X66610822Y-77515037D01*
X66612122Y-77515296D01*
X66615358Y-77499027D01*
X66616677Y-77497523D01*
X66618639Y-77497913D01*
G37*
G36*
X57843999Y-77497913D02*
G01*
X57844642Y-77499027D01*
X57847878Y-77515296D01*
X57849930Y-77514887D01*
X57851824Y-77515530D01*
X57852312Y-77516670D01*
X57854337Y-77539253D01*
X57896832Y-77593940D01*
X57946609Y-77611493D01*
X57947910Y-77613012D01*
X57947906Y-77613769D01*
X57947648Y-77615065D01*
X57963917Y-77618301D01*
X57965421Y-77619620D01*
X57965031Y-77621582D01*
X57963917Y-77622225D01*
X57950945Y-77624806D01*
X57934894Y-77635531D01*
X56874514Y-78695911D01*
X56863789Y-78711962D01*
X56861208Y-78724934D01*
X56859889Y-78726438D01*
X56857927Y-78726048D01*
X56857284Y-78724934D01*
X56854048Y-78708665D01*
X56851996Y-78709074D01*
X56850102Y-78708431D01*
X56849614Y-78707291D01*
X56847589Y-78684708D01*
X56805094Y-78630021D01*
X56755317Y-78612468D01*
X56754016Y-78610949D01*
X56754020Y-78610192D01*
X56754278Y-78608896D01*
X56738009Y-78605660D01*
X56736505Y-78604341D01*
X56736895Y-78602379D01*
X56738009Y-78601736D01*
X56750981Y-78599155D01*
X56767032Y-78588430D01*
X57827412Y-77528050D01*
X57838137Y-77511999D01*
X57840718Y-77499027D01*
X57842037Y-77497523D01*
X57843999Y-77497913D01*
G37*
G36*
X57278314Y-76932227D02*
G01*
X57278957Y-76933341D01*
X57282193Y-76949610D01*
X57284248Y-76949201D01*
X57286142Y-76949844D01*
X57286630Y-76950984D01*
X57288661Y-76973591D01*
X57331166Y-77028270D01*
X57380924Y-77045804D01*
X57382225Y-77047323D01*
X57382221Y-77048080D01*
X57381962Y-77049380D01*
X57398231Y-77052616D01*
X57399735Y-77053935D01*
X57399345Y-77055897D01*
X57398231Y-77056540D01*
X57385259Y-77059121D01*
X57369208Y-77069846D01*
X56308828Y-78130226D01*
X56298103Y-78146277D01*
X56295522Y-78159249D01*
X56294203Y-78160753D01*
X56292241Y-78160363D01*
X56291598Y-78159249D01*
X56288362Y-78142980D01*
X56286307Y-78143389D01*
X56284413Y-78142746D01*
X56283925Y-78141606D01*
X56281894Y-78118999D01*
X56239389Y-78064320D01*
X56189631Y-78046786D01*
X56188330Y-78045267D01*
X56188334Y-78044510D01*
X56188593Y-78043210D01*
X56172324Y-78039974D01*
X56170820Y-78038655D01*
X56171210Y-78036693D01*
X56172324Y-78036050D01*
X56185296Y-78033469D01*
X56201347Y-78022744D01*
X57261727Y-76962364D01*
X57272452Y-76946313D01*
X57275033Y-76933341D01*
X57276352Y-76931837D01*
X57278314Y-76932227D01*
G37*
G36*
X67184324Y-76932227D02*
G01*
X67184967Y-76933341D01*
X67187548Y-76946313D01*
X67198273Y-76962364D01*
X68258653Y-78022744D01*
X68274704Y-78033469D01*
X68287676Y-78036050D01*
X68289180Y-78037369D01*
X68288790Y-78039331D01*
X68287676Y-78039974D01*
X68271407Y-78043210D01*
X68271816Y-78045262D01*
X68271173Y-78047156D01*
X68270033Y-78047644D01*
X68247450Y-78049669D01*
X68192763Y-78092164D01*
X68175210Y-78141941D01*
X68173691Y-78143242D01*
X68172934Y-78143238D01*
X68171638Y-78142980D01*
X68168402Y-78159249D01*
X68167083Y-78160753D01*
X68165121Y-78160363D01*
X68164478Y-78159249D01*
X68161897Y-78146277D01*
X68151172Y-78130226D01*
X67090792Y-77069846D01*
X67074741Y-77059121D01*
X67061769Y-77056540D01*
X67060265Y-77055221D01*
X67060655Y-77053259D01*
X67061769Y-77052616D01*
X67078038Y-77049380D01*
X67077629Y-77047328D01*
X67078272Y-77045434D01*
X67079412Y-77044946D01*
X67101995Y-77042921D01*
X67156682Y-77000426D01*
X67174235Y-76950649D01*
X67175754Y-76949348D01*
X67176511Y-76949352D01*
X67177807Y-76949610D01*
X67181043Y-76933341D01*
X67182362Y-76931837D01*
X67184324Y-76932227D01*
G37*
G36*
X56712629Y-76366542D02*
G01*
X56713272Y-76367656D01*
X56716508Y-76383925D01*
X56718560Y-76383516D01*
X56720454Y-76384159D01*
X56720942Y-76385299D01*
X56722967Y-76407882D01*
X56765462Y-76462569D01*
X56815238Y-76480122D01*
X56816539Y-76481641D01*
X56816535Y-76482398D01*
X56816277Y-76483694D01*
X56832546Y-76486930D01*
X56834050Y-76488249D01*
X56833660Y-76490211D01*
X56832546Y-76490854D01*
X56819574Y-76493435D01*
X56803523Y-76504160D01*
X55743143Y-77564540D01*
X55732418Y-77580591D01*
X55729837Y-77593563D01*
X55728518Y-77595067D01*
X55726556Y-77594677D01*
X55725913Y-77593563D01*
X55722677Y-77577294D01*
X55720625Y-77577703D01*
X55718731Y-77577060D01*
X55718243Y-77575920D01*
X55716218Y-77553337D01*
X55673723Y-77498650D01*
X55623947Y-77481097D01*
X55622646Y-77479578D01*
X55622650Y-77478821D01*
X55622908Y-77477525D01*
X55606639Y-77474289D01*
X55605135Y-77472970D01*
X55605525Y-77471008D01*
X55606639Y-77470365D01*
X55619611Y-77467784D01*
X55635662Y-77457059D01*
X56696042Y-76396679D01*
X56706767Y-76380628D01*
X56709348Y-76367656D01*
X56710667Y-76366152D01*
X56712629Y-76366542D01*
G37*
G36*
X67750009Y-76366542D02*
G01*
X67750652Y-76367656D01*
X67753233Y-76380628D01*
X67763958Y-76396679D01*
X68824338Y-77457059D01*
X68840389Y-77467784D01*
X68853361Y-77470365D01*
X68854865Y-77471684D01*
X68854475Y-77473646D01*
X68853361Y-77474289D01*
X68837092Y-77477525D01*
X68837501Y-77479577D01*
X68836858Y-77481471D01*
X68835718Y-77481959D01*
X68813135Y-77483984D01*
X68758448Y-77526479D01*
X68740895Y-77576255D01*
X68739376Y-77577556D01*
X68738619Y-77577552D01*
X68737323Y-77577294D01*
X68734087Y-77593563D01*
X68732768Y-77595067D01*
X68730806Y-77594677D01*
X68730163Y-77593563D01*
X68727582Y-77580591D01*
X68716857Y-77564540D01*
X67656477Y-76504160D01*
X67640426Y-76493435D01*
X67627454Y-76490854D01*
X67625950Y-76489535D01*
X67626340Y-76487573D01*
X67627454Y-76486930D01*
X67643723Y-76483694D01*
X67643314Y-76481642D01*
X67643957Y-76479748D01*
X67645097Y-76479260D01*
X67667680Y-76477235D01*
X67722367Y-76434740D01*
X67739920Y-76384964D01*
X67741439Y-76383663D01*
X67742196Y-76383667D01*
X67743492Y-76383925D01*
X67746728Y-76367656D01*
X67748047Y-76366152D01*
X67750009Y-76366542D01*
G37*
G36*
X56146943Y-75800857D02*
G01*
X56147586Y-75801971D01*
X56150822Y-75818240D01*
X56152874Y-75817831D01*
X56154768Y-75818474D01*
X56155256Y-75819614D01*
X56157281Y-75842197D01*
X56199776Y-75896884D01*
X56249553Y-75914437D01*
X56250854Y-75915956D01*
X56250850Y-75916713D01*
X56250592Y-75918009D01*
X56266861Y-75921245D01*
X56268365Y-75922564D01*
X56267975Y-75924526D01*
X56266861Y-75925169D01*
X56253889Y-75927750D01*
X56237838Y-75938475D01*
X55177458Y-76998855D01*
X55166733Y-77014906D01*
X55164152Y-77027878D01*
X55162833Y-77029382D01*
X55160871Y-77028992D01*
X55160228Y-77027878D01*
X55156992Y-77011609D01*
X55154940Y-77012018D01*
X55153046Y-77011375D01*
X55152558Y-77010235D01*
X55150533Y-76987652D01*
X55108038Y-76932965D01*
X55058261Y-76915412D01*
X55056960Y-76913893D01*
X55056964Y-76913136D01*
X55057222Y-76911840D01*
X55040953Y-76908604D01*
X55039449Y-76907285D01*
X55039839Y-76905323D01*
X55040953Y-76904680D01*
X55053925Y-76902099D01*
X55069976Y-76891374D01*
X56130356Y-75830994D01*
X56141081Y-75814943D01*
X56143662Y-75801971D01*
X56144981Y-75800467D01*
X56146943Y-75800857D01*
G37*
G36*
X68315695Y-75800857D02*
G01*
X68316338Y-75801971D01*
X68318919Y-75814943D01*
X68329644Y-75830994D01*
X69390024Y-76891374D01*
X69406075Y-76902099D01*
X69419047Y-76904680D01*
X69420551Y-76905999D01*
X69420161Y-76907961D01*
X69419047Y-76908604D01*
X69402778Y-76911840D01*
X69403187Y-76913895D01*
X69402544Y-76915789D01*
X69401404Y-76916277D01*
X69378797Y-76918308D01*
X69324118Y-76960813D01*
X69306584Y-77010571D01*
X69305065Y-77011872D01*
X69304308Y-77011868D01*
X69303008Y-77011609D01*
X69299772Y-77027878D01*
X69298453Y-77029382D01*
X69296491Y-77028992D01*
X69295848Y-77027878D01*
X69293267Y-77014906D01*
X69282542Y-76998855D01*
X68222162Y-75938475D01*
X68206111Y-75927750D01*
X68193139Y-75925169D01*
X68191635Y-75923850D01*
X68192025Y-75921888D01*
X68193139Y-75921245D01*
X68209408Y-75918009D01*
X68208999Y-75915954D01*
X68209642Y-75914060D01*
X68210782Y-75913572D01*
X68233389Y-75911541D01*
X68288068Y-75869036D01*
X68305602Y-75819278D01*
X68307121Y-75817977D01*
X68307878Y-75817981D01*
X68309178Y-75818240D01*
X68312414Y-75801971D01*
X68313733Y-75800467D01*
X68315695Y-75800857D01*
G37*
G36*
X69299129Y-72831008D02*
G01*
X69299772Y-72832122D01*
X69303008Y-72848391D01*
X69305060Y-72847982D01*
X69306954Y-72848625D01*
X69307442Y-72849765D01*
X69309467Y-72872348D01*
X69351962Y-72927035D01*
X69401739Y-72944588D01*
X69403040Y-72946107D01*
X69403036Y-72946864D01*
X69402778Y-72948160D01*
X69419047Y-72951396D01*
X69420551Y-72952715D01*
X69420161Y-72954677D01*
X69419047Y-72955320D01*
X69406075Y-72957901D01*
X69390024Y-72968626D01*
X68329644Y-74029006D01*
X68318919Y-74045057D01*
X68316338Y-74058029D01*
X68315019Y-74059533D01*
X68313057Y-74059143D01*
X68312414Y-74058029D01*
X68309178Y-74041760D01*
X68307126Y-74042169D01*
X68305232Y-74041526D01*
X68304744Y-74040386D01*
X68302719Y-74017803D01*
X68260224Y-73963116D01*
X68210447Y-73945563D01*
X68209146Y-73944044D01*
X68209150Y-73943287D01*
X68209408Y-73941991D01*
X68193139Y-73938755D01*
X68191635Y-73937436D01*
X68192025Y-73935474D01*
X68193139Y-73934831D01*
X68206111Y-73932250D01*
X68222162Y-73921525D01*
X69282542Y-72861145D01*
X69293267Y-72845094D01*
X69295848Y-72832122D01*
X69297167Y-72830618D01*
X69299129Y-72831008D01*
G37*
G36*
X55163509Y-72831008D02*
G01*
X55164152Y-72832122D01*
X55166733Y-72845094D01*
X55177458Y-72861145D01*
X56237838Y-73921525D01*
X56253889Y-73932250D01*
X56266861Y-73934831D01*
X56268365Y-73936150D01*
X56267975Y-73938112D01*
X56266861Y-73938755D01*
X56250592Y-73941991D01*
X56251001Y-73944046D01*
X56250358Y-73945940D01*
X56249218Y-73946428D01*
X56226611Y-73948459D01*
X56171932Y-73990964D01*
X56154398Y-74040722D01*
X56152879Y-74042023D01*
X56152122Y-74042019D01*
X56150822Y-74041760D01*
X56147586Y-74058029D01*
X56146267Y-74059533D01*
X56144305Y-74059143D01*
X56143662Y-74058029D01*
X56141081Y-74045057D01*
X56130356Y-74029006D01*
X55069976Y-72968626D01*
X55053925Y-72957901D01*
X55040953Y-72955320D01*
X55039449Y-72954001D01*
X55039839Y-72952039D01*
X55040953Y-72951396D01*
X55057222Y-72948160D01*
X55056813Y-72946105D01*
X55057456Y-72944211D01*
X55058596Y-72943723D01*
X55081203Y-72941692D01*
X55135882Y-72899187D01*
X55153416Y-72849429D01*
X55154935Y-72848128D01*
X55155692Y-72848132D01*
X55156992Y-72848391D01*
X55160228Y-72832122D01*
X55161547Y-72830618D01*
X55163509Y-72831008D01*
G37*
G36*
X55729194Y-72265323D02*
G01*
X55729837Y-72266437D01*
X55732418Y-72279409D01*
X55743143Y-72295460D01*
X56803523Y-73355840D01*
X56819574Y-73366565D01*
X56832546Y-73369146D01*
X56834050Y-73370465D01*
X56833660Y-73372427D01*
X56832546Y-73373070D01*
X56816277Y-73376306D01*
X56816686Y-73378358D01*
X56816043Y-73380252D01*
X56814903Y-73380740D01*
X56792320Y-73382765D01*
X56737633Y-73425260D01*
X56720080Y-73475036D01*
X56718561Y-73476337D01*
X56717804Y-73476333D01*
X56716508Y-73476075D01*
X56713272Y-73492344D01*
X56711953Y-73493848D01*
X56709991Y-73493458D01*
X56709348Y-73492344D01*
X56706767Y-73479372D01*
X56696042Y-73463321D01*
X55635662Y-72402941D01*
X55619611Y-72392216D01*
X55606639Y-72389635D01*
X55605135Y-72388316D01*
X55605525Y-72386354D01*
X55606639Y-72385711D01*
X55622908Y-72382475D01*
X55622499Y-72380423D01*
X55623142Y-72378529D01*
X55624282Y-72378041D01*
X55646865Y-72376016D01*
X55701552Y-72333521D01*
X55719105Y-72283745D01*
X55720624Y-72282444D01*
X55721381Y-72282448D01*
X55722677Y-72282706D01*
X55725913Y-72266437D01*
X55727232Y-72264933D01*
X55729194Y-72265323D01*
G37*
G36*
X68733444Y-72265323D02*
G01*
X68734087Y-72266437D01*
X68737323Y-72282706D01*
X68739375Y-72282297D01*
X68741269Y-72282940D01*
X68741757Y-72284080D01*
X68743782Y-72306663D01*
X68786277Y-72361350D01*
X68836053Y-72378903D01*
X68837354Y-72380422D01*
X68837350Y-72381179D01*
X68837092Y-72382475D01*
X68853361Y-72385711D01*
X68854865Y-72387030D01*
X68854475Y-72388992D01*
X68853361Y-72389635D01*
X68840389Y-72392216D01*
X68824338Y-72402941D01*
X67763958Y-73463321D01*
X67753233Y-73479372D01*
X67750652Y-73492344D01*
X67749333Y-73493848D01*
X67747371Y-73493458D01*
X67746728Y-73492344D01*
X67743492Y-73476075D01*
X67741440Y-73476484D01*
X67739546Y-73475841D01*
X67739058Y-73474701D01*
X67737033Y-73452118D01*
X67694538Y-73397431D01*
X67644762Y-73379878D01*
X67643461Y-73378359D01*
X67643465Y-73377602D01*
X67643723Y-73376306D01*
X67627454Y-73373070D01*
X67625950Y-73371751D01*
X67626340Y-73369789D01*
X67627454Y-73369146D01*
X67640426Y-73366565D01*
X67656477Y-73355840D01*
X68716857Y-72295460D01*
X68727582Y-72279409D01*
X68730163Y-72266437D01*
X68731482Y-72264933D01*
X68733444Y-72265323D01*
G37*
G36*
X56294879Y-71699637D02*
G01*
X56295522Y-71700751D01*
X56298103Y-71713723D01*
X56308828Y-71729774D01*
X57369208Y-72790154D01*
X57385259Y-72800879D01*
X57398231Y-72803460D01*
X57399735Y-72804779D01*
X57399345Y-72806741D01*
X57398231Y-72807384D01*
X57381962Y-72810620D01*
X57382371Y-72812672D01*
X57381728Y-72814566D01*
X57380588Y-72815054D01*
X57358005Y-72817079D01*
X57303318Y-72859574D01*
X57285765Y-72909351D01*
X57284246Y-72910652D01*
X57283489Y-72910648D01*
X57282193Y-72910390D01*
X57278957Y-72926659D01*
X57277638Y-72928163D01*
X57275676Y-72927773D01*
X57275033Y-72926659D01*
X57272452Y-72913687D01*
X57261727Y-72897636D01*
X56201347Y-71837256D01*
X56185296Y-71826531D01*
X56172324Y-71823950D01*
X56170820Y-71822631D01*
X56171210Y-71820669D01*
X56172324Y-71820026D01*
X56188593Y-71816790D01*
X56188184Y-71814738D01*
X56188827Y-71812844D01*
X56189967Y-71812356D01*
X56212550Y-71810331D01*
X56267237Y-71767836D01*
X56284790Y-71718059D01*
X56286309Y-71716758D01*
X56287066Y-71716762D01*
X56288362Y-71717020D01*
X56291598Y-71700751D01*
X56292917Y-71699247D01*
X56294879Y-71699637D01*
G37*
G36*
X68167759Y-71699637D02*
G01*
X68168402Y-71700751D01*
X68171638Y-71717020D01*
X68173693Y-71716611D01*
X68175587Y-71717254D01*
X68176075Y-71718394D01*
X68178106Y-71741001D01*
X68220611Y-71795680D01*
X68270369Y-71813214D01*
X68271670Y-71814733D01*
X68271666Y-71815490D01*
X68271407Y-71816790D01*
X68287676Y-71820026D01*
X68289180Y-71821345D01*
X68288790Y-71823307D01*
X68287676Y-71823950D01*
X68274704Y-71826531D01*
X68258653Y-71837256D01*
X67198273Y-72897636D01*
X67187548Y-72913687D01*
X67184967Y-72926659D01*
X67183648Y-72928163D01*
X67181686Y-72927773D01*
X67181043Y-72926659D01*
X67177807Y-72910390D01*
X67175752Y-72910799D01*
X67173858Y-72910156D01*
X67173370Y-72909016D01*
X67171339Y-72886409D01*
X67128834Y-72831730D01*
X67079076Y-72814196D01*
X67077775Y-72812677D01*
X67077779Y-72811920D01*
X67078038Y-72810620D01*
X67061769Y-72807384D01*
X67060265Y-72806065D01*
X67060655Y-72804103D01*
X67061769Y-72803460D01*
X67074741Y-72800879D01*
X67090792Y-72790154D01*
X68151172Y-71729774D01*
X68161897Y-71713723D01*
X68164478Y-71700751D01*
X68165797Y-71699247D01*
X68167759Y-71699637D01*
G37*
G36*
X67602073Y-71133952D02*
G01*
X67602716Y-71135066D01*
X67605952Y-71151335D01*
X67608004Y-71150926D01*
X67609898Y-71151569D01*
X67610386Y-71152709D01*
X67612411Y-71175292D01*
X67654906Y-71229979D01*
X67704683Y-71247532D01*
X67705984Y-71249051D01*
X67705980Y-71249808D01*
X67705722Y-71251104D01*
X67721991Y-71254340D01*
X67723495Y-71255659D01*
X67723105Y-71257621D01*
X67721991Y-71258264D01*
X67709019Y-71260845D01*
X67692968Y-71271570D01*
X66632588Y-72331950D01*
X66621863Y-72348001D01*
X66619282Y-72360973D01*
X66617963Y-72362477D01*
X66616001Y-72362087D01*
X66615358Y-72360973D01*
X66612122Y-72344704D01*
X66610070Y-72345113D01*
X66608176Y-72344470D01*
X66607688Y-72343330D01*
X66605663Y-72320747D01*
X66563168Y-72266060D01*
X66513391Y-72248507D01*
X66512090Y-72246988D01*
X66512094Y-72246231D01*
X66512352Y-72244935D01*
X66496083Y-72241699D01*
X66494579Y-72240380D01*
X66494969Y-72238418D01*
X66496083Y-72237775D01*
X66509055Y-72235194D01*
X66525106Y-72224469D01*
X67585486Y-71164089D01*
X67596211Y-71148038D01*
X67598792Y-71135066D01*
X67600111Y-71133562D01*
X67602073Y-71133952D01*
G37*
G36*
X56860565Y-71133952D02*
G01*
X56861208Y-71135066D01*
X56863789Y-71148038D01*
X56874514Y-71164089D01*
X57934894Y-72224469D01*
X57950945Y-72235194D01*
X57963917Y-72237775D01*
X57965421Y-72239094D01*
X57965031Y-72241056D01*
X57963917Y-72241699D01*
X57947648Y-72244935D01*
X57948057Y-72246990D01*
X57947414Y-72248884D01*
X57946274Y-72249372D01*
X57923667Y-72251403D01*
X57868988Y-72293908D01*
X57851454Y-72343666D01*
X57849935Y-72344967D01*
X57849178Y-72344963D01*
X57847878Y-72344704D01*
X57844642Y-72360973D01*
X57843323Y-72362477D01*
X57841361Y-72362087D01*
X57840718Y-72360973D01*
X57838137Y-72348001D01*
X57827412Y-72331950D01*
X56767032Y-71271570D01*
X56750981Y-71260845D01*
X56738009Y-71258264D01*
X56736505Y-71256945D01*
X56736895Y-71254983D01*
X56738009Y-71254340D01*
X56754278Y-71251104D01*
X56753869Y-71249049D01*
X56754512Y-71247155D01*
X56755652Y-71246667D01*
X56778259Y-71244636D01*
X56832938Y-71202131D01*
X56850472Y-71152373D01*
X56851991Y-71151072D01*
X56852748Y-71151076D01*
X56854048Y-71151335D01*
X56857284Y-71135066D01*
X56858603Y-71133562D01*
X56860565Y-71133952D01*
G37*
G36*
X57426250Y-70568266D02*
G01*
X57426893Y-70569380D01*
X57429474Y-70582352D01*
X57440199Y-70598403D01*
X58500579Y-71658783D01*
X58516630Y-71669508D01*
X58529602Y-71672089D01*
X58531106Y-71673408D01*
X58530716Y-71675370D01*
X58529602Y-71676013D01*
X58513333Y-71679249D01*
X58513742Y-71681301D01*
X58513099Y-71683195D01*
X58511959Y-71683683D01*
X58489376Y-71685708D01*
X58434689Y-71728203D01*
X58417136Y-71777980D01*
X58415617Y-71779281D01*
X58414860Y-71779277D01*
X58413564Y-71779019D01*
X58410328Y-71795288D01*
X58409009Y-71796792D01*
X58407047Y-71796402D01*
X58406404Y-71795288D01*
X58403823Y-71782316D01*
X58393098Y-71766265D01*
X57332718Y-70705885D01*
X57316667Y-70695160D01*
X57303695Y-70692579D01*
X57302191Y-70691260D01*
X57302581Y-70689298D01*
X57303695Y-70688655D01*
X57319964Y-70685419D01*
X57319555Y-70683367D01*
X57320198Y-70681473D01*
X57321338Y-70680985D01*
X57343921Y-70678960D01*
X57398608Y-70636465D01*
X57416161Y-70586688D01*
X57417680Y-70585387D01*
X57418437Y-70585391D01*
X57419733Y-70585649D01*
X57422969Y-70569380D01*
X57424288Y-70567876D01*
X57426250Y-70568266D01*
G37*
G36*
X67036388Y-70568266D02*
G01*
X67037031Y-70569380D01*
X67040267Y-70585649D01*
X67042322Y-70585240D01*
X67044216Y-70585883D01*
X67044704Y-70587023D01*
X67046735Y-70609630D01*
X67089240Y-70664309D01*
X67138998Y-70681843D01*
X67140299Y-70683362D01*
X67140295Y-70684119D01*
X67140036Y-70685419D01*
X67156305Y-70688655D01*
X67157809Y-70689974D01*
X67157419Y-70691936D01*
X67156305Y-70692579D01*
X67143333Y-70695160D01*
X67127282Y-70705885D01*
X66066902Y-71766265D01*
X66056177Y-71782316D01*
X66053596Y-71795288D01*
X66052277Y-71796792D01*
X66050315Y-71796402D01*
X66049672Y-71795288D01*
X66046436Y-71779019D01*
X66044381Y-71779428D01*
X66042487Y-71778785D01*
X66041999Y-71777645D01*
X66039968Y-71755038D01*
X65997463Y-71700359D01*
X65947705Y-71682825D01*
X65946404Y-71681306D01*
X65946408Y-71680549D01*
X65946667Y-71679249D01*
X65930398Y-71676013D01*
X65928894Y-71674694D01*
X65929284Y-71672732D01*
X65930398Y-71672089D01*
X65943370Y-71669508D01*
X65959421Y-71658783D01*
X67019801Y-70598403D01*
X67030526Y-70582352D01*
X67033107Y-70569380D01*
X67034426Y-70567876D01*
X67036388Y-70568266D01*
G37*
G36*
X66470702Y-70002581D02*
G01*
X66471345Y-70003695D01*
X66474581Y-70019964D01*
X66476633Y-70019555D01*
X66478527Y-70020198D01*
X66479015Y-70021338D01*
X66481040Y-70043921D01*
X66523535Y-70098608D01*
X66573312Y-70116161D01*
X66574613Y-70117680D01*
X66574609Y-70118437D01*
X66574351Y-70119733D01*
X66590620Y-70122969D01*
X66592124Y-70124288D01*
X66591734Y-70126250D01*
X66590620Y-70126893D01*
X66577648Y-70129474D01*
X66561597Y-70140199D01*
X65501217Y-71200579D01*
X65490492Y-71216630D01*
X65487911Y-71229602D01*
X65486592Y-71231106D01*
X65484630Y-71230716D01*
X65483987Y-71229602D01*
X65480751Y-71213333D01*
X65478699Y-71213742D01*
X65476805Y-71213099D01*
X65476317Y-71211959D01*
X65474292Y-71189376D01*
X65431797Y-71134689D01*
X65382020Y-71117136D01*
X65380719Y-71115617D01*
X65380723Y-71114860D01*
X65380981Y-71113564D01*
X65364712Y-71110328D01*
X65363208Y-71109009D01*
X65363598Y-71107047D01*
X65364712Y-71106404D01*
X65377684Y-71103823D01*
X65393735Y-71093098D01*
X66454115Y-70032718D01*
X66464840Y-70016667D01*
X66467421Y-70003695D01*
X66468740Y-70002191D01*
X66470702Y-70002581D01*
G37*
G36*
X57991936Y-70002581D02*
G01*
X57992579Y-70003695D01*
X57995160Y-70016667D01*
X58005885Y-70032718D01*
X59066265Y-71093098D01*
X59082316Y-71103823D01*
X59095288Y-71106404D01*
X59096792Y-71107723D01*
X59096402Y-71109685D01*
X59095288Y-71110328D01*
X59079019Y-71113564D01*
X59079428Y-71115619D01*
X59078785Y-71117513D01*
X59077645Y-71118001D01*
X59055038Y-71120032D01*
X59000359Y-71162537D01*
X58982825Y-71212295D01*
X58981306Y-71213596D01*
X58980549Y-71213592D01*
X58979249Y-71213333D01*
X58976013Y-71229602D01*
X58974694Y-71231106D01*
X58972732Y-71230716D01*
X58972089Y-71229602D01*
X58969508Y-71216630D01*
X58958783Y-71200579D01*
X57898403Y-70140199D01*
X57882352Y-70129474D01*
X57869380Y-70126893D01*
X57867876Y-70125574D01*
X57868266Y-70123612D01*
X57869380Y-70122969D01*
X57885649Y-70119733D01*
X57885240Y-70117678D01*
X57885883Y-70115784D01*
X57887023Y-70115296D01*
X57909630Y-70113265D01*
X57964309Y-70070760D01*
X57981843Y-70021002D01*
X57983362Y-70019701D01*
X57984119Y-70019705D01*
X57985419Y-70019964D01*
X57988655Y-70003695D01*
X57989974Y-70002191D01*
X57991936Y-70002581D01*
G37*
G36*
X58557621Y-69436895D02*
G01*
X58558264Y-69438009D01*
X58560845Y-69450981D01*
X58571570Y-69467032D01*
X59631950Y-70527412D01*
X59648001Y-70538137D01*
X59660973Y-70540718D01*
X59662477Y-70542037D01*
X59662087Y-70543999D01*
X59660973Y-70544642D01*
X59644704Y-70547878D01*
X59645113Y-70549930D01*
X59644470Y-70551824D01*
X59643330Y-70552312D01*
X59620747Y-70554337D01*
X59566060Y-70596832D01*
X59548507Y-70646609D01*
X59546988Y-70647910D01*
X59546231Y-70647906D01*
X59544935Y-70647648D01*
X59541699Y-70663917D01*
X59540380Y-70665421D01*
X59538418Y-70665031D01*
X59537775Y-70663917D01*
X59535194Y-70650945D01*
X59524469Y-70634894D01*
X58464089Y-69574514D01*
X58448038Y-69563789D01*
X58435066Y-69561208D01*
X58433562Y-69559889D01*
X58433952Y-69557927D01*
X58435066Y-69557284D01*
X58451335Y-69554048D01*
X58450926Y-69551996D01*
X58451569Y-69550102D01*
X58452709Y-69549614D01*
X58475292Y-69547589D01*
X58529979Y-69505094D01*
X58547532Y-69455317D01*
X58549051Y-69454016D01*
X58549808Y-69454020D01*
X58551104Y-69454278D01*
X58554340Y-69438009D01*
X58555659Y-69436505D01*
X58557621Y-69436895D01*
G37*
G36*
X65905017Y-69436895D02*
G01*
X65905660Y-69438009D01*
X65908896Y-69454278D01*
X65910951Y-69453869D01*
X65912845Y-69454512D01*
X65913333Y-69455652D01*
X65915364Y-69478259D01*
X65957869Y-69532938D01*
X66007627Y-69550472D01*
X66008928Y-69551991D01*
X66008924Y-69552748D01*
X66008665Y-69554048D01*
X66024934Y-69557284D01*
X66026438Y-69558603D01*
X66026048Y-69560565D01*
X66024934Y-69561208D01*
X66011962Y-69563789D01*
X65995911Y-69574514D01*
X64935531Y-70634894D01*
X64924806Y-70650945D01*
X64922225Y-70663917D01*
X64920906Y-70665421D01*
X64918944Y-70665031D01*
X64918301Y-70663917D01*
X64915065Y-70647648D01*
X64913010Y-70648057D01*
X64911116Y-70647414D01*
X64910628Y-70646274D01*
X64908597Y-70623667D01*
X64866092Y-70568988D01*
X64816334Y-70551454D01*
X64815033Y-70549935D01*
X64815037Y-70549178D01*
X64815296Y-70547878D01*
X64799027Y-70544642D01*
X64797523Y-70543323D01*
X64797913Y-70541361D01*
X64799027Y-70540718D01*
X64811999Y-70538137D01*
X64828050Y-70527412D01*
X65888430Y-69467032D01*
X65899155Y-69450981D01*
X65901736Y-69438009D01*
X65903055Y-69436505D01*
X65905017Y-69436895D01*
G37*
G36*
X59123307Y-68871210D02*
G01*
X59123950Y-68872324D01*
X59126531Y-68885296D01*
X59137256Y-68901347D01*
X60197636Y-69961727D01*
X60213687Y-69972452D01*
X60226659Y-69975033D01*
X60228163Y-69976352D01*
X60227773Y-69978314D01*
X60226659Y-69978957D01*
X60210390Y-69982193D01*
X60210799Y-69984248D01*
X60210156Y-69986142D01*
X60209016Y-69986630D01*
X60186409Y-69988661D01*
X60131730Y-70031166D01*
X60114196Y-70080924D01*
X60112677Y-70082225D01*
X60111920Y-70082221D01*
X60110620Y-70081962D01*
X60107384Y-70098231D01*
X60106065Y-70099735D01*
X60104103Y-70099345D01*
X60103460Y-70098231D01*
X60100879Y-70085259D01*
X60090154Y-70069208D01*
X59029774Y-69008828D01*
X59013723Y-68998103D01*
X59000751Y-68995522D01*
X58999247Y-68994203D01*
X58999637Y-68992241D01*
X59000751Y-68991598D01*
X59017020Y-68988362D01*
X59016611Y-68986307D01*
X59017254Y-68984413D01*
X59018394Y-68983925D01*
X59041001Y-68981894D01*
X59095680Y-68939389D01*
X59113214Y-68889631D01*
X59114733Y-68888330D01*
X59115490Y-68888334D01*
X59116790Y-68888593D01*
X59120026Y-68872324D01*
X59121345Y-68870820D01*
X59123307Y-68871210D01*
G37*
G36*
X65339331Y-68871210D02*
G01*
X65339974Y-68872324D01*
X65343210Y-68888593D01*
X65345262Y-68888184D01*
X65347156Y-68888827D01*
X65347644Y-68889967D01*
X65349669Y-68912550D01*
X65392164Y-68967237D01*
X65441941Y-68984790D01*
X65443242Y-68986309D01*
X65443238Y-68987066D01*
X65442980Y-68988362D01*
X65459249Y-68991598D01*
X65460753Y-68992917D01*
X65460363Y-68994879D01*
X65459249Y-68995522D01*
X65446277Y-68998103D01*
X65430226Y-69008828D01*
X64369846Y-70069208D01*
X64359121Y-70085259D01*
X64356540Y-70098231D01*
X64355221Y-70099735D01*
X64353259Y-70099345D01*
X64352616Y-70098231D01*
X64349380Y-70081962D01*
X64347328Y-70082371D01*
X64345434Y-70081728D01*
X64344946Y-70080588D01*
X64342921Y-70058005D01*
X64300426Y-70003318D01*
X64250649Y-69985765D01*
X64249348Y-69984246D01*
X64249352Y-69983489D01*
X64249610Y-69982193D01*
X64233341Y-69978957D01*
X64231837Y-69977638D01*
X64232227Y-69975676D01*
X64233341Y-69975033D01*
X64246313Y-69972452D01*
X64262364Y-69961727D01*
X65322744Y-68901347D01*
X65333469Y-68885296D01*
X65336050Y-68872324D01*
X65337369Y-68870820D01*
X65339331Y-68871210D01*
G37*
G36*
X59688992Y-68305525D02*
G01*
X59689635Y-68306639D01*
X59692216Y-68319611D01*
X59702941Y-68335662D01*
X60763321Y-69396042D01*
X60779372Y-69406767D01*
X60792344Y-69409348D01*
X60793848Y-69410667D01*
X60793458Y-69412629D01*
X60792344Y-69413272D01*
X60776075Y-69416508D01*
X60776484Y-69418560D01*
X60775841Y-69420454D01*
X60774701Y-69420942D01*
X60752118Y-69422967D01*
X60697431Y-69465462D01*
X60679878Y-69515238D01*
X60678359Y-69516539D01*
X60677602Y-69516535D01*
X60676306Y-69516277D01*
X60673070Y-69532546D01*
X60671751Y-69534050D01*
X60669789Y-69533660D01*
X60669146Y-69532546D01*
X60666565Y-69519574D01*
X60655840Y-69503523D01*
X59595460Y-68443143D01*
X59579409Y-68432418D01*
X59566437Y-68429837D01*
X59564933Y-68428518D01*
X59565323Y-68426556D01*
X59566437Y-68425913D01*
X59582706Y-68422677D01*
X59582297Y-68420625D01*
X59582940Y-68418731D01*
X59584080Y-68418243D01*
X59606663Y-68416218D01*
X59661350Y-68373723D01*
X59678903Y-68323947D01*
X59680422Y-68322646D01*
X59681179Y-68322650D01*
X59682475Y-68322908D01*
X59685711Y-68306639D01*
X59687030Y-68305135D01*
X59688992Y-68305525D01*
G37*
G36*
X64773646Y-68305525D02*
G01*
X64774289Y-68306639D01*
X64777525Y-68322908D01*
X64779577Y-68322499D01*
X64781471Y-68323142D01*
X64781959Y-68324282D01*
X64783984Y-68346865D01*
X64826479Y-68401552D01*
X64876255Y-68419105D01*
X64877556Y-68420624D01*
X64877552Y-68421381D01*
X64877294Y-68422677D01*
X64893563Y-68425913D01*
X64895067Y-68427232D01*
X64894677Y-68429194D01*
X64893563Y-68429837D01*
X64880591Y-68432418D01*
X64864540Y-68443143D01*
X63804160Y-69503523D01*
X63793435Y-69519574D01*
X63790854Y-69532546D01*
X63789535Y-69534050D01*
X63787573Y-69533660D01*
X63786930Y-69532546D01*
X63783694Y-69516277D01*
X63781642Y-69516686D01*
X63779748Y-69516043D01*
X63779260Y-69514903D01*
X63777235Y-69492320D01*
X63734740Y-69437633D01*
X63684964Y-69420080D01*
X63683663Y-69418561D01*
X63683667Y-69417804D01*
X63683925Y-69416508D01*
X63667656Y-69413272D01*
X63666152Y-69411953D01*
X63666542Y-69409991D01*
X63667656Y-69409348D01*
X63680628Y-69406767D01*
X63696679Y-69396042D01*
X64757059Y-68335662D01*
X64767784Y-68319611D01*
X64770365Y-68306639D01*
X64771684Y-68305135D01*
X64773646Y-68305525D01*
G37*
G36*
X60254677Y-67739839D02*
G01*
X60255320Y-67740953D01*
X60257901Y-67753925D01*
X60268626Y-67769976D01*
X61329006Y-68830356D01*
X61345057Y-68841081D01*
X61358029Y-68843662D01*
X61359533Y-68844981D01*
X61359143Y-68846943D01*
X61358029Y-68847586D01*
X61341760Y-68850822D01*
X61342169Y-68852874D01*
X61341526Y-68854768D01*
X61340386Y-68855256D01*
X61317803Y-68857281D01*
X61263116Y-68899776D01*
X61245563Y-68949553D01*
X61244044Y-68950854D01*
X61243287Y-68950850D01*
X61241991Y-68950592D01*
X61238755Y-68966861D01*
X61237436Y-68968365D01*
X61235474Y-68967975D01*
X61234831Y-68966861D01*
X61232250Y-68953889D01*
X61221525Y-68937838D01*
X60161145Y-67877458D01*
X60145094Y-67866733D01*
X60132122Y-67864152D01*
X60130618Y-67862833D01*
X60131008Y-67860871D01*
X60132122Y-67860228D01*
X60148391Y-67856992D01*
X60147982Y-67854940D01*
X60148625Y-67853046D01*
X60149765Y-67852558D01*
X60172348Y-67850533D01*
X60227035Y-67808038D01*
X60244588Y-67758261D01*
X60246107Y-67756960D01*
X60246864Y-67756964D01*
X60248160Y-67757222D01*
X60251396Y-67740953D01*
X60252715Y-67739449D01*
X60254677Y-67739839D01*
G37*
G36*
X64207961Y-67739839D02*
G01*
X64208604Y-67740953D01*
X64211840Y-67757222D01*
X64213895Y-67756813D01*
X64215789Y-67757456D01*
X64216277Y-67758596D01*
X64218308Y-67781203D01*
X64260813Y-67835882D01*
X64310571Y-67853416D01*
X64311872Y-67854935D01*
X64311868Y-67855692D01*
X64311609Y-67856992D01*
X64327878Y-67860228D01*
X64329382Y-67861547D01*
X64328992Y-67863509D01*
X64327878Y-67864152D01*
X64314906Y-67866733D01*
X64298855Y-67877458D01*
X63238475Y-68937838D01*
X63227750Y-68953889D01*
X63225169Y-68966861D01*
X63223850Y-68968365D01*
X63221888Y-68967975D01*
X63221245Y-68966861D01*
X63218009Y-68950592D01*
X63215954Y-68951001D01*
X63214060Y-68950358D01*
X63213572Y-68949218D01*
X63211541Y-68926611D01*
X63169036Y-68871932D01*
X63119278Y-68854398D01*
X63117977Y-68852879D01*
X63117981Y-68852122D01*
X63118240Y-68850822D01*
X63101971Y-68847586D01*
X63100467Y-68846267D01*
X63100857Y-68844305D01*
X63101971Y-68843662D01*
X63114943Y-68841081D01*
X63130994Y-68830356D01*
X64191374Y-67769976D01*
X64202099Y-67753925D01*
X64204680Y-67740953D01*
X64205999Y-67739449D01*
X64207961Y-67739839D01*
G37*
M02*
