G04 #@! TF.GenerationSoftware,KiCad,Pcbnew,(5.99.0-8453-g50e22de3ba)*
G04 #@! TF.CreationDate,2021-01-21T16:08:04-08:00*
G04 #@! TF.ProjectId,ATF1502AS-EVB,41544631-3530-4324-9153-2d4556422e6b,rev?*
G04 #@! TF.SameCoordinates,Original*
G04 #@! TF.FileFunction,Soldermask,Bot*
G04 #@! TF.FilePolarity,Negative*
%FSLAX46Y46*%
G04 Gerber Fmt 4.6, Leading zero omitted, Abs format (unit mm)*
G04 Created by KiCad (PCBNEW (5.99.0-8453-g50e22de3ba)) date 2021-01-21 16:08:04*
%MOMM*%
%LPD*%
G01*
G04 APERTURE LIST*
G04 Aperture macros list*
%AMRoundRect*
0 Rectangle with rounded corners*
0 $1 Rounding radius*
0 $2 $3 $4 $5 $6 $7 $8 $9 X,Y pos of 4 corners*
0 Add a 4 corners polygon primitive as box body*
4,1,4,$2,$3,$4,$5,$6,$7,$8,$9,$2,$3,0*
0 Add four circle primitives for the rounded corners*
1,1,$1+$1,$2,$3*
1,1,$1+$1,$4,$5*
1,1,$1+$1,$6,$7*
1,1,$1+$1,$8,$9*
0 Add four rect primitives between the rounded corners*
20,1,$1+$1,$2,$3,$4,$5,0*
20,1,$1+$1,$4,$5,$6,$7,0*
20,1,$1+$1,$6,$7,$8,$9,0*
20,1,$1+$1,$8,$9,$2,$3,0*%
G04 Aperture macros list end*
%ADD10O,1.802000X1.802000*%
%ADD11RoundRect,0.051000X-0.850000X-0.850000X0.850000X-0.850000X0.850000X0.850000X-0.850000X0.850000X0*%
%ADD12RoundRect,0.272174X-0.588774X-0.088388X-0.088388X-0.588774X0.588774X0.088388X0.088388X0.588774X0*%
%ADD13RoundRect,0.272174X0.588774X0.088388X0.088388X0.588774X-0.588774X-0.088388X-0.088388X-0.588774X0*%
%ADD14RoundRect,0.272174X-0.088388X0.588774X-0.588774X0.088388X0.088388X-0.588774X0.588774X-0.088388X0*%
%ADD15RoundRect,0.272174X0.088388X-0.588774X0.588774X-0.088388X-0.088388X0.588774X-0.588774X0.088388X0*%
G04 APERTURE END LIST*
D10*
X73660000Y-99060000D03*
X73660000Y-96520000D03*
X73660000Y-93980000D03*
X73660000Y-91440000D03*
X73660000Y-88900000D03*
X73660000Y-86360000D03*
X73660000Y-83820000D03*
X73660000Y-81280000D03*
X73660000Y-78740000D03*
X73660000Y-76200000D03*
X73660000Y-73660000D03*
X73660000Y-71120000D03*
X73660000Y-68580000D03*
X73660000Y-66040000D03*
X73660000Y-63500000D03*
X73660000Y-60960000D03*
X73660000Y-58420000D03*
X73660000Y-55880000D03*
X73660000Y-53340000D03*
X73660000Y-50800000D03*
X50800000Y-50800000D03*
X50800000Y-53340000D03*
D11*
X50800000Y-55880000D03*
D10*
X50800000Y-58420000D03*
X50800000Y-60960000D03*
X50800000Y-63500000D03*
X50800000Y-66040000D03*
X50800000Y-68580000D03*
X50800000Y-71120000D03*
X50800000Y-73660000D03*
X50800000Y-76200000D03*
X50800000Y-78740000D03*
X50800000Y-81280000D03*
X50800000Y-83820000D03*
X50800000Y-86360000D03*
X50800000Y-88900000D03*
X50800000Y-91440000D03*
X50800000Y-93980000D03*
X50800000Y-96520000D03*
X50800000Y-99060000D03*
X63500000Y-60960000D03*
X60960000Y-60960000D03*
X63500000Y-58420000D03*
X60960000Y-58420000D03*
X63500000Y-55880000D03*
D11*
X60960000Y-55880000D03*
D12*
X65240784Y-73368784D03*
X63791216Y-71919216D03*
D13*
X59219216Y-76491216D03*
X60668784Y-77940784D03*
D14*
X63791216Y-77940784D03*
X65240784Y-76491216D03*
D15*
X60668784Y-71919216D03*
X59219216Y-73368784D03*
M02*
