G04 #@! TF.GenerationSoftware,KiCad,Pcbnew,5.99.0-unknown-8bd2765~86~ubuntu18.04.1*
G04 #@! TF.CreationDate,2019-12-15T18:04:06+00:00*
G04 #@! TF.ProjectId,ATF1502AS-EVB,41544631-3530-4324-9153-2d4556422e6b,rev?*
G04 #@! TF.SameCoordinates,Original*
G04 #@! TF.FileFunction,Soldermask,Top*
G04 #@! TF.FilePolarity,Negative*
%FSLAX46Y46*%
G04 Gerber Fmt 4.6, Leading zero omitted, Abs format (unit mm)*
G04 Created by KiCad (PCBNEW 5.99.0-unknown-8bd2765~86~ubuntu18.04.1) date 2019-12-15 18:04:06*
%MOMM*%
%LPD*%
G04 APERTURE LIST*
G04 APERTURE END LIST*
G36*
X50849902Y-98159283D02*
G01*
X50894637Y-98159595D01*
X50938460Y-98168590D01*
X50988360Y-98173835D01*
X51030132Y-98187408D01*
X51067723Y-98195124D01*
X51114851Y-98214935D01*
X51168488Y-98232363D01*
X51201099Y-98251191D01*
X51230614Y-98263598D01*
X51278301Y-98295763D01*
X51332511Y-98327061D01*
X51355826Y-98348054D01*
X51377101Y-98362404D01*
X51422183Y-98407802D01*
X51473261Y-98453793D01*
X51488003Y-98474083D01*
X51501608Y-98487784D01*
X51540643Y-98546537D01*
X51584586Y-98607019D01*
X51592221Y-98624168D01*
X51599388Y-98634955D01*
X51628865Y-98706472D01*
X51661621Y-98780042D01*
X51664211Y-98792225D01*
X51666724Y-98798323D01*
X51683292Y-98881997D01*
X51700999Y-98965301D01*
X51700999Y-99154699D01*
X51698115Y-99168269D01*
X51698030Y-99174331D01*
X51679342Y-99256585D01*
X51661621Y-99339958D01*
X51659129Y-99345555D01*
X51659078Y-99345780D01*
X51587210Y-99507197D01*
X51587078Y-99507385D01*
X51584586Y-99512981D01*
X51534480Y-99581946D01*
X51485357Y-99651582D01*
X51480585Y-99656126D01*
X51473261Y-99666207D01*
X51413396Y-99720110D01*
X51357396Y-99773438D01*
X51346464Y-99780376D01*
X51332511Y-99792939D01*
X51267764Y-99830321D01*
X51208211Y-99868114D01*
X51190209Y-99875097D01*
X51168488Y-99887637D01*
X51103115Y-99908878D01*
X51043468Y-99932014D01*
X51018200Y-99936469D01*
X50988360Y-99946165D01*
X50926095Y-99952709D01*
X50869460Y-99962695D01*
X50837459Y-99962025D01*
X50800000Y-99965962D01*
X50743902Y-99960066D01*
X50692799Y-99958996D01*
X50655323Y-99950756D01*
X50611640Y-99946165D01*
X50563917Y-99930659D01*
X50520225Y-99921052D01*
X50479230Y-99903142D01*
X50431512Y-99887637D01*
X50393473Y-99865675D01*
X50358310Y-99850313D01*
X50316337Y-99821141D01*
X50267489Y-99792939D01*
X50239504Y-99767741D01*
X50213215Y-99749470D01*
X50173257Y-99708092D01*
X50126739Y-99666207D01*
X50108296Y-99640823D01*
X50090473Y-99622366D01*
X50055821Y-99568597D01*
X50015414Y-99512981D01*
X50005212Y-99490066D01*
X49994754Y-99473839D01*
X49968789Y-99408261D01*
X49938379Y-99339958D01*
X49934476Y-99321596D01*
X49929707Y-99309551D01*
X49915740Y-99233448D01*
X49899001Y-99154699D01*
X49899001Y-99142246D01*
X49897811Y-99135762D01*
X49899001Y-99050535D01*
X49899001Y-98965301D01*
X49900275Y-98959308D01*
X49900278Y-98959077D01*
X49937015Y-98786246D01*
X49937105Y-98786036D01*
X49938379Y-98780042D01*
X49973042Y-98702188D01*
X50006622Y-98623839D01*
X50010348Y-98618397D01*
X50015414Y-98607019D01*
X50062746Y-98541872D01*
X50106452Y-98478041D01*
X50115706Y-98468979D01*
X50126739Y-98453793D01*
X50182297Y-98403769D01*
X50232693Y-98354417D01*
X50248848Y-98343846D01*
X50267489Y-98327061D01*
X50327026Y-98292687D01*
X50380551Y-98257662D01*
X50404340Y-98248050D01*
X50431512Y-98232363D01*
X50491045Y-98213019D01*
X50544376Y-98191472D01*
X50575820Y-98185474D01*
X50611640Y-98173835D01*
X50667744Y-98167938D01*
X50717945Y-98158362D01*
X50756312Y-98158630D01*
X50800000Y-98154038D01*
X50849902Y-98159283D01*
G37*
G36*
X73709902Y-98159283D02*
G01*
X73754637Y-98159595D01*
X73798460Y-98168590D01*
X73848360Y-98173835D01*
X73890132Y-98187408D01*
X73927723Y-98195124D01*
X73974851Y-98214935D01*
X74028488Y-98232363D01*
X74061099Y-98251191D01*
X74090614Y-98263598D01*
X74138301Y-98295763D01*
X74192511Y-98327061D01*
X74215826Y-98348054D01*
X74237101Y-98362404D01*
X74282183Y-98407802D01*
X74333261Y-98453793D01*
X74348003Y-98474083D01*
X74361608Y-98487784D01*
X74400643Y-98546537D01*
X74444586Y-98607019D01*
X74452221Y-98624168D01*
X74459388Y-98634955D01*
X74488865Y-98706472D01*
X74521621Y-98780042D01*
X74524211Y-98792225D01*
X74526724Y-98798323D01*
X74543292Y-98881997D01*
X74560999Y-98965301D01*
X74560999Y-99154699D01*
X74558115Y-99168269D01*
X74558030Y-99174331D01*
X74539342Y-99256585D01*
X74521621Y-99339958D01*
X74519129Y-99345555D01*
X74519078Y-99345780D01*
X74447210Y-99507197D01*
X74447078Y-99507385D01*
X74444586Y-99512981D01*
X74394480Y-99581946D01*
X74345357Y-99651582D01*
X74340585Y-99656126D01*
X74333261Y-99666207D01*
X74273396Y-99720110D01*
X74217396Y-99773438D01*
X74206464Y-99780376D01*
X74192511Y-99792939D01*
X74127764Y-99830321D01*
X74068211Y-99868114D01*
X74050209Y-99875097D01*
X74028488Y-99887637D01*
X73963115Y-99908878D01*
X73903468Y-99932014D01*
X73878200Y-99936469D01*
X73848360Y-99946165D01*
X73786095Y-99952709D01*
X73729460Y-99962695D01*
X73697459Y-99962025D01*
X73660000Y-99965962D01*
X73603902Y-99960066D01*
X73552799Y-99958996D01*
X73515323Y-99950756D01*
X73471640Y-99946165D01*
X73423917Y-99930659D01*
X73380225Y-99921052D01*
X73339230Y-99903142D01*
X73291512Y-99887637D01*
X73253473Y-99865675D01*
X73218310Y-99850313D01*
X73176337Y-99821141D01*
X73127489Y-99792939D01*
X73099504Y-99767741D01*
X73073215Y-99749470D01*
X73033257Y-99708092D01*
X72986739Y-99666207D01*
X72968296Y-99640823D01*
X72950473Y-99622366D01*
X72915821Y-99568597D01*
X72875414Y-99512981D01*
X72865212Y-99490066D01*
X72854754Y-99473839D01*
X72828789Y-99408261D01*
X72798379Y-99339958D01*
X72794476Y-99321596D01*
X72789707Y-99309551D01*
X72775740Y-99233448D01*
X72759001Y-99154699D01*
X72759001Y-99142246D01*
X72757811Y-99135762D01*
X72759001Y-99050535D01*
X72759001Y-98965301D01*
X72760275Y-98959308D01*
X72760278Y-98959077D01*
X72797015Y-98786246D01*
X72797105Y-98786036D01*
X72798379Y-98780042D01*
X72833042Y-98702188D01*
X72866622Y-98623839D01*
X72870348Y-98618397D01*
X72875414Y-98607019D01*
X72922746Y-98541872D01*
X72966452Y-98478041D01*
X72975706Y-98468979D01*
X72986739Y-98453793D01*
X73042297Y-98403769D01*
X73092693Y-98354417D01*
X73108848Y-98343846D01*
X73127489Y-98327061D01*
X73187026Y-98292687D01*
X73240551Y-98257662D01*
X73264340Y-98248050D01*
X73291512Y-98232363D01*
X73351045Y-98213019D01*
X73404376Y-98191472D01*
X73435820Y-98185474D01*
X73471640Y-98173835D01*
X73527744Y-98167938D01*
X73577945Y-98158362D01*
X73616312Y-98158630D01*
X73660000Y-98154038D01*
X73709902Y-98159283D01*
G37*
G36*
X50849902Y-95619283D02*
G01*
X50894637Y-95619595D01*
X50938460Y-95628590D01*
X50988360Y-95633835D01*
X51030132Y-95647408D01*
X51067723Y-95655124D01*
X51114851Y-95674935D01*
X51168488Y-95692363D01*
X51201099Y-95711191D01*
X51230614Y-95723598D01*
X51278301Y-95755763D01*
X51332511Y-95787061D01*
X51355826Y-95808054D01*
X51377101Y-95822404D01*
X51422183Y-95867802D01*
X51473261Y-95913793D01*
X51488003Y-95934083D01*
X51501608Y-95947784D01*
X51540643Y-96006537D01*
X51584586Y-96067019D01*
X51592221Y-96084168D01*
X51599388Y-96094955D01*
X51628865Y-96166472D01*
X51661621Y-96240042D01*
X51664211Y-96252225D01*
X51666724Y-96258323D01*
X51683292Y-96341997D01*
X51700999Y-96425301D01*
X51700999Y-96614699D01*
X51698115Y-96628269D01*
X51698030Y-96634331D01*
X51679342Y-96716585D01*
X51661621Y-96799958D01*
X51659129Y-96805555D01*
X51659078Y-96805780D01*
X51587210Y-96967197D01*
X51587078Y-96967385D01*
X51584586Y-96972981D01*
X51534480Y-97041946D01*
X51485357Y-97111582D01*
X51480585Y-97116126D01*
X51473261Y-97126207D01*
X51413396Y-97180110D01*
X51357396Y-97233438D01*
X51346464Y-97240376D01*
X51332511Y-97252939D01*
X51267764Y-97290321D01*
X51208211Y-97328114D01*
X51190209Y-97335097D01*
X51168488Y-97347637D01*
X51103115Y-97368878D01*
X51043468Y-97392014D01*
X51018200Y-97396469D01*
X50988360Y-97406165D01*
X50926095Y-97412709D01*
X50869460Y-97422695D01*
X50837459Y-97422025D01*
X50800000Y-97425962D01*
X50743902Y-97420066D01*
X50692799Y-97418996D01*
X50655323Y-97410756D01*
X50611640Y-97406165D01*
X50563917Y-97390659D01*
X50520225Y-97381052D01*
X50479230Y-97363142D01*
X50431512Y-97347637D01*
X50393473Y-97325675D01*
X50358310Y-97310313D01*
X50316337Y-97281141D01*
X50267489Y-97252939D01*
X50239504Y-97227741D01*
X50213215Y-97209470D01*
X50173257Y-97168092D01*
X50126739Y-97126207D01*
X50108296Y-97100823D01*
X50090473Y-97082366D01*
X50055821Y-97028597D01*
X50015414Y-96972981D01*
X50005212Y-96950066D01*
X49994754Y-96933839D01*
X49968789Y-96868261D01*
X49938379Y-96799958D01*
X49934476Y-96781596D01*
X49929707Y-96769551D01*
X49915740Y-96693448D01*
X49899001Y-96614699D01*
X49899001Y-96602246D01*
X49897811Y-96595762D01*
X49899001Y-96510535D01*
X49899001Y-96425301D01*
X49900275Y-96419308D01*
X49900278Y-96419077D01*
X49937015Y-96246246D01*
X49937105Y-96246036D01*
X49938379Y-96240042D01*
X49973042Y-96162188D01*
X50006622Y-96083839D01*
X50010348Y-96078397D01*
X50015414Y-96067019D01*
X50062746Y-96001872D01*
X50106452Y-95938041D01*
X50115706Y-95928979D01*
X50126739Y-95913793D01*
X50182297Y-95863769D01*
X50232693Y-95814417D01*
X50248848Y-95803846D01*
X50267489Y-95787061D01*
X50327026Y-95752687D01*
X50380551Y-95717662D01*
X50404340Y-95708050D01*
X50431512Y-95692363D01*
X50491045Y-95673019D01*
X50544376Y-95651472D01*
X50575820Y-95645474D01*
X50611640Y-95633835D01*
X50667744Y-95627938D01*
X50717945Y-95618362D01*
X50756312Y-95618630D01*
X50800000Y-95614038D01*
X50849902Y-95619283D01*
G37*
G36*
X73709902Y-95619283D02*
G01*
X73754637Y-95619595D01*
X73798460Y-95628590D01*
X73848360Y-95633835D01*
X73890132Y-95647408D01*
X73927723Y-95655124D01*
X73974851Y-95674935D01*
X74028488Y-95692363D01*
X74061099Y-95711191D01*
X74090614Y-95723598D01*
X74138301Y-95755763D01*
X74192511Y-95787061D01*
X74215826Y-95808054D01*
X74237101Y-95822404D01*
X74282183Y-95867802D01*
X74333261Y-95913793D01*
X74348003Y-95934083D01*
X74361608Y-95947784D01*
X74400643Y-96006537D01*
X74444586Y-96067019D01*
X74452221Y-96084168D01*
X74459388Y-96094955D01*
X74488865Y-96166472D01*
X74521621Y-96240042D01*
X74524211Y-96252225D01*
X74526724Y-96258323D01*
X74543292Y-96341997D01*
X74560999Y-96425301D01*
X74560999Y-96614699D01*
X74558115Y-96628269D01*
X74558030Y-96634331D01*
X74539342Y-96716585D01*
X74521621Y-96799958D01*
X74519129Y-96805555D01*
X74519078Y-96805780D01*
X74447210Y-96967197D01*
X74447078Y-96967385D01*
X74444586Y-96972981D01*
X74394480Y-97041946D01*
X74345357Y-97111582D01*
X74340585Y-97116126D01*
X74333261Y-97126207D01*
X74273396Y-97180110D01*
X74217396Y-97233438D01*
X74206464Y-97240376D01*
X74192511Y-97252939D01*
X74127764Y-97290321D01*
X74068211Y-97328114D01*
X74050209Y-97335097D01*
X74028488Y-97347637D01*
X73963115Y-97368878D01*
X73903468Y-97392014D01*
X73878200Y-97396469D01*
X73848360Y-97406165D01*
X73786095Y-97412709D01*
X73729460Y-97422695D01*
X73697459Y-97422025D01*
X73660000Y-97425962D01*
X73603902Y-97420066D01*
X73552799Y-97418996D01*
X73515323Y-97410756D01*
X73471640Y-97406165D01*
X73423917Y-97390659D01*
X73380225Y-97381052D01*
X73339230Y-97363142D01*
X73291512Y-97347637D01*
X73253473Y-97325675D01*
X73218310Y-97310313D01*
X73176337Y-97281141D01*
X73127489Y-97252939D01*
X73099504Y-97227741D01*
X73073215Y-97209470D01*
X73033257Y-97168092D01*
X72986739Y-97126207D01*
X72968296Y-97100823D01*
X72950473Y-97082366D01*
X72915821Y-97028597D01*
X72875414Y-96972981D01*
X72865212Y-96950066D01*
X72854754Y-96933839D01*
X72828789Y-96868261D01*
X72798379Y-96799958D01*
X72794476Y-96781596D01*
X72789707Y-96769551D01*
X72775740Y-96693448D01*
X72759001Y-96614699D01*
X72759001Y-96602246D01*
X72757811Y-96595762D01*
X72759001Y-96510535D01*
X72759001Y-96425301D01*
X72760275Y-96419308D01*
X72760278Y-96419077D01*
X72797015Y-96246246D01*
X72797105Y-96246036D01*
X72798379Y-96240042D01*
X72833042Y-96162188D01*
X72866622Y-96083839D01*
X72870348Y-96078397D01*
X72875414Y-96067019D01*
X72922746Y-96001872D01*
X72966452Y-95938041D01*
X72975706Y-95928979D01*
X72986739Y-95913793D01*
X73042297Y-95863769D01*
X73092693Y-95814417D01*
X73108848Y-95803846D01*
X73127489Y-95787061D01*
X73187026Y-95752687D01*
X73240551Y-95717662D01*
X73264340Y-95708050D01*
X73291512Y-95692363D01*
X73351045Y-95673019D01*
X73404376Y-95651472D01*
X73435820Y-95645474D01*
X73471640Y-95633835D01*
X73527744Y-95627938D01*
X73577945Y-95618362D01*
X73616312Y-95618630D01*
X73660000Y-95614038D01*
X73709902Y-95619283D01*
G37*
G36*
X59922980Y-95793117D02*
G01*
X59923386Y-95793117D01*
X59925637Y-95793538D01*
X60014801Y-95807660D01*
X60022691Y-95811680D01*
X60029409Y-95812936D01*
X60049176Y-95825175D01*
X60096229Y-95849150D01*
X60109776Y-95862697D01*
X60121114Y-95869717D01*
X60134432Y-95887353D01*
X60160850Y-95913771D01*
X60174267Y-95940103D01*
X60186114Y-95955791D01*
X60189418Y-95969838D01*
X60202340Y-95995199D01*
X60216686Y-96085777D01*
X60216883Y-96086614D01*
X60216883Y-96087020D01*
X60218194Y-96095297D01*
X60218194Y-96644703D01*
X60216883Y-96652980D01*
X60216883Y-96653386D01*
X60216462Y-96655637D01*
X60202340Y-96744801D01*
X60198320Y-96752691D01*
X60197064Y-96759409D01*
X60184825Y-96779176D01*
X60160850Y-96826229D01*
X60147303Y-96839776D01*
X60140283Y-96851114D01*
X60122647Y-96864432D01*
X60096229Y-96890850D01*
X60069897Y-96904267D01*
X60054209Y-96916114D01*
X60040162Y-96919418D01*
X60014801Y-96932340D01*
X59924223Y-96946686D01*
X59923386Y-96946883D01*
X59922980Y-96946883D01*
X59914703Y-96948194D01*
X59465297Y-96948194D01*
X59457020Y-96946883D01*
X59456614Y-96946883D01*
X59454363Y-96946462D01*
X59365199Y-96932340D01*
X59357309Y-96928320D01*
X59350591Y-96927064D01*
X59330824Y-96914825D01*
X59283771Y-96890850D01*
X59270224Y-96877303D01*
X59258886Y-96870283D01*
X59245568Y-96852647D01*
X59219150Y-96826229D01*
X59205733Y-96799897D01*
X59193886Y-96784209D01*
X59190582Y-96770162D01*
X59177660Y-96744801D01*
X59163314Y-96654223D01*
X59163117Y-96653386D01*
X59163117Y-96652980D01*
X59161806Y-96644703D01*
X59161806Y-96095297D01*
X59163117Y-96087020D01*
X59163117Y-96086614D01*
X59163538Y-96084363D01*
X59177660Y-95995199D01*
X59181680Y-95987309D01*
X59182936Y-95980591D01*
X59195175Y-95960824D01*
X59219150Y-95913771D01*
X59232697Y-95900224D01*
X59239717Y-95888886D01*
X59257353Y-95875568D01*
X59283771Y-95849150D01*
X59310103Y-95835733D01*
X59325791Y-95823886D01*
X59339838Y-95820582D01*
X59365199Y-95807660D01*
X59455777Y-95793314D01*
X59456614Y-95793117D01*
X59457020Y-95793117D01*
X59465297Y-95791806D01*
X59914703Y-95791806D01*
X59922980Y-95793117D01*
G37*
G36*
X65002980Y-95793117D02*
G01*
X65003386Y-95793117D01*
X65005637Y-95793538D01*
X65094801Y-95807660D01*
X65102691Y-95811680D01*
X65109409Y-95812936D01*
X65129176Y-95825175D01*
X65176229Y-95849150D01*
X65189776Y-95862697D01*
X65201114Y-95869717D01*
X65214432Y-95887353D01*
X65240850Y-95913771D01*
X65254267Y-95940103D01*
X65266114Y-95955791D01*
X65269418Y-95969838D01*
X65282340Y-95995199D01*
X65296686Y-96085777D01*
X65296883Y-96086614D01*
X65296883Y-96087020D01*
X65298194Y-96095297D01*
X65298194Y-96644703D01*
X65296883Y-96652980D01*
X65296883Y-96653386D01*
X65296462Y-96655637D01*
X65282340Y-96744801D01*
X65278320Y-96752691D01*
X65277064Y-96759409D01*
X65264825Y-96779176D01*
X65240850Y-96826229D01*
X65227303Y-96839776D01*
X65220283Y-96851114D01*
X65202647Y-96864432D01*
X65176229Y-96890850D01*
X65149897Y-96904267D01*
X65134209Y-96916114D01*
X65120162Y-96919418D01*
X65094801Y-96932340D01*
X65004223Y-96946686D01*
X65003386Y-96946883D01*
X65002980Y-96946883D01*
X64994703Y-96948194D01*
X64545297Y-96948194D01*
X64537020Y-96946883D01*
X64536614Y-96946883D01*
X64534363Y-96946462D01*
X64445199Y-96932340D01*
X64437309Y-96928320D01*
X64430591Y-96927064D01*
X64410824Y-96914825D01*
X64363771Y-96890850D01*
X64350224Y-96877303D01*
X64338886Y-96870283D01*
X64325568Y-96852647D01*
X64299150Y-96826229D01*
X64285733Y-96799897D01*
X64273886Y-96784209D01*
X64270582Y-96770162D01*
X64257660Y-96744801D01*
X64243314Y-96654223D01*
X64243117Y-96653386D01*
X64243117Y-96652980D01*
X64241806Y-96644703D01*
X64241806Y-96095297D01*
X64243117Y-96087020D01*
X64243117Y-96086614D01*
X64243538Y-96084363D01*
X64257660Y-95995199D01*
X64261680Y-95987309D01*
X64262936Y-95980591D01*
X64275175Y-95960824D01*
X64299150Y-95913771D01*
X64312697Y-95900224D01*
X64319717Y-95888886D01*
X64337353Y-95875568D01*
X64363771Y-95849150D01*
X64390103Y-95835733D01*
X64405791Y-95823886D01*
X64419838Y-95820582D01*
X64445199Y-95807660D01*
X64535777Y-95793314D01*
X64536614Y-95793117D01*
X64537020Y-95793117D01*
X64545297Y-95791806D01*
X64994703Y-95791806D01*
X65002980Y-95793117D01*
G37*
G36*
X62462980Y-94523117D02*
G01*
X62463386Y-94523117D01*
X62465637Y-94523538D01*
X62554801Y-94537660D01*
X62562691Y-94541680D01*
X62569409Y-94542936D01*
X62589176Y-94555175D01*
X62636229Y-94579150D01*
X62649776Y-94592697D01*
X62661114Y-94599717D01*
X62674432Y-94617353D01*
X62700850Y-94643771D01*
X62714267Y-94670103D01*
X62726114Y-94685791D01*
X62729418Y-94699838D01*
X62742340Y-94725199D01*
X62756686Y-94815777D01*
X62756883Y-94816614D01*
X62756883Y-94817020D01*
X62758194Y-94825297D01*
X62758194Y-95374703D01*
X62756883Y-95382980D01*
X62756883Y-95383386D01*
X62756462Y-95385637D01*
X62742340Y-95474801D01*
X62738320Y-95482691D01*
X62737064Y-95489409D01*
X62724825Y-95509176D01*
X62700850Y-95556229D01*
X62687303Y-95569776D01*
X62680283Y-95581114D01*
X62662647Y-95594432D01*
X62636229Y-95620850D01*
X62609897Y-95634267D01*
X62594209Y-95646114D01*
X62580162Y-95649418D01*
X62554801Y-95662340D01*
X62464223Y-95676686D01*
X62463386Y-95676883D01*
X62462980Y-95676883D01*
X62454703Y-95678194D01*
X62005297Y-95678194D01*
X61997020Y-95676883D01*
X61996614Y-95676883D01*
X61994363Y-95676462D01*
X61905199Y-95662340D01*
X61897309Y-95658320D01*
X61890591Y-95657064D01*
X61870824Y-95644825D01*
X61823771Y-95620850D01*
X61810224Y-95607303D01*
X61798886Y-95600283D01*
X61785568Y-95582647D01*
X61759150Y-95556229D01*
X61745733Y-95529897D01*
X61733886Y-95514209D01*
X61730582Y-95500162D01*
X61717660Y-95474801D01*
X61703314Y-95384223D01*
X61703117Y-95383386D01*
X61703117Y-95382980D01*
X61701806Y-95374703D01*
X61701806Y-94825297D01*
X61703117Y-94817020D01*
X61703117Y-94816614D01*
X61703538Y-94814363D01*
X61717660Y-94725199D01*
X61721680Y-94717309D01*
X61722936Y-94710591D01*
X61735175Y-94690824D01*
X61759150Y-94643771D01*
X61772697Y-94630224D01*
X61779717Y-94618886D01*
X61797353Y-94605568D01*
X61823771Y-94579150D01*
X61850103Y-94565733D01*
X61865791Y-94553886D01*
X61879838Y-94550582D01*
X61905199Y-94537660D01*
X61995777Y-94523314D01*
X61996614Y-94523117D01*
X61997020Y-94523117D01*
X62005297Y-94521806D01*
X62454703Y-94521806D01*
X62462980Y-94523117D01*
G37*
G36*
X65002980Y-94043117D02*
G01*
X65003386Y-94043117D01*
X65005637Y-94043538D01*
X65094801Y-94057660D01*
X65102691Y-94061680D01*
X65109409Y-94062936D01*
X65129176Y-94075175D01*
X65176229Y-94099150D01*
X65189776Y-94112697D01*
X65201114Y-94119717D01*
X65214432Y-94137353D01*
X65240850Y-94163771D01*
X65254267Y-94190103D01*
X65266114Y-94205791D01*
X65269418Y-94219838D01*
X65282340Y-94245199D01*
X65296686Y-94335777D01*
X65296883Y-94336614D01*
X65296883Y-94337020D01*
X65298194Y-94345297D01*
X65298194Y-94894703D01*
X65296883Y-94902980D01*
X65296883Y-94903386D01*
X65296462Y-94905637D01*
X65282340Y-94994801D01*
X65278320Y-95002691D01*
X65277064Y-95009409D01*
X65264825Y-95029176D01*
X65240850Y-95076229D01*
X65227303Y-95089776D01*
X65220283Y-95101114D01*
X65202647Y-95114432D01*
X65176229Y-95140850D01*
X65149897Y-95154267D01*
X65134209Y-95166114D01*
X65120162Y-95169418D01*
X65094801Y-95182340D01*
X65004223Y-95196686D01*
X65003386Y-95196883D01*
X65002980Y-95196883D01*
X64994703Y-95198194D01*
X64545297Y-95198194D01*
X64537020Y-95196883D01*
X64536614Y-95196883D01*
X64534363Y-95196462D01*
X64445199Y-95182340D01*
X64437309Y-95178320D01*
X64430591Y-95177064D01*
X64410824Y-95164825D01*
X64363771Y-95140850D01*
X64350224Y-95127303D01*
X64338886Y-95120283D01*
X64325568Y-95102647D01*
X64299150Y-95076229D01*
X64285733Y-95049897D01*
X64273886Y-95034209D01*
X64270582Y-95020162D01*
X64257660Y-94994801D01*
X64243314Y-94904223D01*
X64243117Y-94903386D01*
X64243117Y-94902980D01*
X64241806Y-94894703D01*
X64241806Y-94345297D01*
X64243117Y-94337020D01*
X64243117Y-94336614D01*
X64243538Y-94334363D01*
X64257660Y-94245199D01*
X64261680Y-94237309D01*
X64262936Y-94230591D01*
X64275175Y-94210824D01*
X64299150Y-94163771D01*
X64312697Y-94150224D01*
X64319717Y-94138886D01*
X64337353Y-94125568D01*
X64363771Y-94099150D01*
X64390103Y-94085733D01*
X64405791Y-94073886D01*
X64419838Y-94070582D01*
X64445199Y-94057660D01*
X64535777Y-94043314D01*
X64536614Y-94043117D01*
X64537020Y-94043117D01*
X64545297Y-94041806D01*
X64994703Y-94041806D01*
X65002980Y-94043117D01*
G37*
G36*
X59922980Y-94043117D02*
G01*
X59923386Y-94043117D01*
X59925637Y-94043538D01*
X60014801Y-94057660D01*
X60022691Y-94061680D01*
X60029409Y-94062936D01*
X60049176Y-94075175D01*
X60096229Y-94099150D01*
X60109776Y-94112697D01*
X60121114Y-94119717D01*
X60134432Y-94137353D01*
X60160850Y-94163771D01*
X60174267Y-94190103D01*
X60186114Y-94205791D01*
X60189418Y-94219838D01*
X60202340Y-94245199D01*
X60216686Y-94335777D01*
X60216883Y-94336614D01*
X60216883Y-94337020D01*
X60218194Y-94345297D01*
X60218194Y-94894703D01*
X60216883Y-94902980D01*
X60216883Y-94903386D01*
X60216462Y-94905637D01*
X60202340Y-94994801D01*
X60198320Y-95002691D01*
X60197064Y-95009409D01*
X60184825Y-95029176D01*
X60160850Y-95076229D01*
X60147303Y-95089776D01*
X60140283Y-95101114D01*
X60122647Y-95114432D01*
X60096229Y-95140850D01*
X60069897Y-95154267D01*
X60054209Y-95166114D01*
X60040162Y-95169418D01*
X60014801Y-95182340D01*
X59924223Y-95196686D01*
X59923386Y-95196883D01*
X59922980Y-95196883D01*
X59914703Y-95198194D01*
X59465297Y-95198194D01*
X59457020Y-95196883D01*
X59456614Y-95196883D01*
X59454363Y-95196462D01*
X59365199Y-95182340D01*
X59357309Y-95178320D01*
X59350591Y-95177064D01*
X59330824Y-95164825D01*
X59283771Y-95140850D01*
X59270224Y-95127303D01*
X59258886Y-95120283D01*
X59245568Y-95102647D01*
X59219150Y-95076229D01*
X59205733Y-95049897D01*
X59193886Y-95034209D01*
X59190582Y-95020162D01*
X59177660Y-94994801D01*
X59163314Y-94904223D01*
X59163117Y-94903386D01*
X59163117Y-94902980D01*
X59161806Y-94894703D01*
X59161806Y-94345297D01*
X59163117Y-94337020D01*
X59163117Y-94336614D01*
X59163538Y-94334363D01*
X59177660Y-94245199D01*
X59181680Y-94237309D01*
X59182936Y-94230591D01*
X59195175Y-94210824D01*
X59219150Y-94163771D01*
X59232697Y-94150224D01*
X59239717Y-94138886D01*
X59257353Y-94125568D01*
X59283771Y-94099150D01*
X59310103Y-94085733D01*
X59325791Y-94073886D01*
X59339838Y-94070582D01*
X59365199Y-94057660D01*
X59455777Y-94043314D01*
X59456614Y-94043117D01*
X59457020Y-94043117D01*
X59465297Y-94041806D01*
X59914703Y-94041806D01*
X59922980Y-94043117D01*
G37*
G36*
X73709902Y-93079283D02*
G01*
X73754637Y-93079595D01*
X73798460Y-93088590D01*
X73848360Y-93093835D01*
X73890132Y-93107408D01*
X73927723Y-93115124D01*
X73974851Y-93134935D01*
X74028488Y-93152363D01*
X74061099Y-93171191D01*
X74090614Y-93183598D01*
X74138301Y-93215763D01*
X74192511Y-93247061D01*
X74215826Y-93268054D01*
X74237101Y-93282404D01*
X74282183Y-93327802D01*
X74333261Y-93373793D01*
X74348003Y-93394083D01*
X74361608Y-93407784D01*
X74400643Y-93466537D01*
X74444586Y-93527019D01*
X74452221Y-93544168D01*
X74459388Y-93554955D01*
X74488865Y-93626472D01*
X74521621Y-93700042D01*
X74524211Y-93712225D01*
X74526724Y-93718323D01*
X74543292Y-93801997D01*
X74560999Y-93885301D01*
X74560999Y-94074699D01*
X74558115Y-94088269D01*
X74558030Y-94094331D01*
X74539342Y-94176585D01*
X74521621Y-94259958D01*
X74519129Y-94265555D01*
X74519078Y-94265780D01*
X74447210Y-94427197D01*
X74447078Y-94427385D01*
X74444586Y-94432981D01*
X74394480Y-94501946D01*
X74345357Y-94571582D01*
X74340585Y-94576126D01*
X74333261Y-94586207D01*
X74273396Y-94640110D01*
X74217396Y-94693438D01*
X74206464Y-94700376D01*
X74192511Y-94712939D01*
X74127764Y-94750321D01*
X74068211Y-94788114D01*
X74050209Y-94795097D01*
X74028488Y-94807637D01*
X73963115Y-94828878D01*
X73903468Y-94852014D01*
X73878200Y-94856469D01*
X73848360Y-94866165D01*
X73786095Y-94872709D01*
X73729460Y-94882695D01*
X73697459Y-94882025D01*
X73660000Y-94885962D01*
X73603902Y-94880066D01*
X73552799Y-94878996D01*
X73515323Y-94870756D01*
X73471640Y-94866165D01*
X73423917Y-94850659D01*
X73380225Y-94841052D01*
X73339230Y-94823142D01*
X73291512Y-94807637D01*
X73253473Y-94785675D01*
X73218310Y-94770313D01*
X73176337Y-94741141D01*
X73127489Y-94712939D01*
X73099504Y-94687741D01*
X73073215Y-94669470D01*
X73033257Y-94628092D01*
X72986739Y-94586207D01*
X72968296Y-94560823D01*
X72950473Y-94542366D01*
X72915821Y-94488597D01*
X72875414Y-94432981D01*
X72865212Y-94410066D01*
X72854754Y-94393839D01*
X72828789Y-94328261D01*
X72798379Y-94259958D01*
X72794476Y-94241596D01*
X72789707Y-94229551D01*
X72775740Y-94153448D01*
X72759001Y-94074699D01*
X72759001Y-94062246D01*
X72757811Y-94055762D01*
X72759001Y-93970535D01*
X72759001Y-93885301D01*
X72760275Y-93879308D01*
X72760278Y-93879077D01*
X72797015Y-93706246D01*
X72797105Y-93706036D01*
X72798379Y-93700042D01*
X72833042Y-93622188D01*
X72866622Y-93543839D01*
X72870348Y-93538397D01*
X72875414Y-93527019D01*
X72922746Y-93461872D01*
X72966452Y-93398041D01*
X72975706Y-93388979D01*
X72986739Y-93373793D01*
X73042297Y-93323769D01*
X73092693Y-93274417D01*
X73108848Y-93263846D01*
X73127489Y-93247061D01*
X73187026Y-93212687D01*
X73240551Y-93177662D01*
X73264340Y-93168050D01*
X73291512Y-93152363D01*
X73351045Y-93133019D01*
X73404376Y-93111472D01*
X73435820Y-93105474D01*
X73471640Y-93093835D01*
X73527744Y-93087938D01*
X73577945Y-93078362D01*
X73616312Y-93078630D01*
X73660000Y-93074038D01*
X73709902Y-93079283D01*
G37*
G36*
X50849902Y-93079283D02*
G01*
X50894637Y-93079595D01*
X50938460Y-93088590D01*
X50988360Y-93093835D01*
X51030132Y-93107408D01*
X51067723Y-93115124D01*
X51114851Y-93134935D01*
X51168488Y-93152363D01*
X51201099Y-93171191D01*
X51230614Y-93183598D01*
X51278301Y-93215763D01*
X51332511Y-93247061D01*
X51355826Y-93268054D01*
X51377101Y-93282404D01*
X51422183Y-93327802D01*
X51473261Y-93373793D01*
X51488003Y-93394083D01*
X51501608Y-93407784D01*
X51540643Y-93466537D01*
X51584586Y-93527019D01*
X51592221Y-93544168D01*
X51599388Y-93554955D01*
X51628865Y-93626472D01*
X51661621Y-93700042D01*
X51664211Y-93712225D01*
X51666724Y-93718323D01*
X51683292Y-93801997D01*
X51700999Y-93885301D01*
X51700999Y-94074699D01*
X51698115Y-94088269D01*
X51698030Y-94094331D01*
X51679342Y-94176585D01*
X51661621Y-94259958D01*
X51659129Y-94265555D01*
X51659078Y-94265780D01*
X51587210Y-94427197D01*
X51587078Y-94427385D01*
X51584586Y-94432981D01*
X51534480Y-94501946D01*
X51485357Y-94571582D01*
X51480585Y-94576126D01*
X51473261Y-94586207D01*
X51413396Y-94640110D01*
X51357396Y-94693438D01*
X51346464Y-94700376D01*
X51332511Y-94712939D01*
X51267764Y-94750321D01*
X51208211Y-94788114D01*
X51190209Y-94795097D01*
X51168488Y-94807637D01*
X51103115Y-94828878D01*
X51043468Y-94852014D01*
X51018200Y-94856469D01*
X50988360Y-94866165D01*
X50926095Y-94872709D01*
X50869460Y-94882695D01*
X50837459Y-94882025D01*
X50800000Y-94885962D01*
X50743902Y-94880066D01*
X50692799Y-94878996D01*
X50655323Y-94870756D01*
X50611640Y-94866165D01*
X50563917Y-94850659D01*
X50520225Y-94841052D01*
X50479230Y-94823142D01*
X50431512Y-94807637D01*
X50393473Y-94785675D01*
X50358310Y-94770313D01*
X50316337Y-94741141D01*
X50267489Y-94712939D01*
X50239504Y-94687741D01*
X50213215Y-94669470D01*
X50173257Y-94628092D01*
X50126739Y-94586207D01*
X50108296Y-94560823D01*
X50090473Y-94542366D01*
X50055821Y-94488597D01*
X50015414Y-94432981D01*
X50005212Y-94410066D01*
X49994754Y-94393839D01*
X49968789Y-94328261D01*
X49938379Y-94259958D01*
X49934476Y-94241596D01*
X49929707Y-94229551D01*
X49915740Y-94153448D01*
X49899001Y-94074699D01*
X49899001Y-94062246D01*
X49897811Y-94055762D01*
X49899001Y-93970535D01*
X49899001Y-93885301D01*
X49900275Y-93879308D01*
X49900278Y-93879077D01*
X49937015Y-93706246D01*
X49937105Y-93706036D01*
X49938379Y-93700042D01*
X49973042Y-93622188D01*
X50006622Y-93543839D01*
X50010348Y-93538397D01*
X50015414Y-93527019D01*
X50062746Y-93461872D01*
X50106452Y-93398041D01*
X50115706Y-93388979D01*
X50126739Y-93373793D01*
X50182297Y-93323769D01*
X50232693Y-93274417D01*
X50248848Y-93263846D01*
X50267489Y-93247061D01*
X50327026Y-93212687D01*
X50380551Y-93177662D01*
X50404340Y-93168050D01*
X50431512Y-93152363D01*
X50491045Y-93133019D01*
X50544376Y-93111472D01*
X50575820Y-93105474D01*
X50611640Y-93093835D01*
X50667744Y-93087938D01*
X50717945Y-93078362D01*
X50756312Y-93078630D01*
X50800000Y-93074038D01*
X50849902Y-93079283D01*
G37*
G36*
X62462980Y-92773117D02*
G01*
X62463386Y-92773117D01*
X62465637Y-92773538D01*
X62554801Y-92787660D01*
X62562691Y-92791680D01*
X62569409Y-92792936D01*
X62589176Y-92805175D01*
X62636229Y-92829150D01*
X62649776Y-92842697D01*
X62661114Y-92849717D01*
X62674432Y-92867353D01*
X62700850Y-92893771D01*
X62714267Y-92920103D01*
X62726114Y-92935791D01*
X62729418Y-92949838D01*
X62742340Y-92975199D01*
X62756686Y-93065777D01*
X62756883Y-93066614D01*
X62756883Y-93067020D01*
X62758194Y-93075297D01*
X62758194Y-93624703D01*
X62756883Y-93632980D01*
X62756883Y-93633386D01*
X62756462Y-93635637D01*
X62742340Y-93724801D01*
X62738320Y-93732691D01*
X62737064Y-93739409D01*
X62724825Y-93759176D01*
X62700850Y-93806229D01*
X62687303Y-93819776D01*
X62680283Y-93831114D01*
X62662647Y-93844432D01*
X62636229Y-93870850D01*
X62609897Y-93884267D01*
X62594209Y-93896114D01*
X62580162Y-93899418D01*
X62554801Y-93912340D01*
X62464223Y-93926686D01*
X62463386Y-93926883D01*
X62462980Y-93926883D01*
X62454703Y-93928194D01*
X62005297Y-93928194D01*
X61997020Y-93926883D01*
X61996614Y-93926883D01*
X61994363Y-93926462D01*
X61905199Y-93912340D01*
X61897309Y-93908320D01*
X61890591Y-93907064D01*
X61870824Y-93894825D01*
X61823771Y-93870850D01*
X61810224Y-93857303D01*
X61798886Y-93850283D01*
X61785568Y-93832647D01*
X61759150Y-93806229D01*
X61745733Y-93779897D01*
X61733886Y-93764209D01*
X61730582Y-93750162D01*
X61717660Y-93724801D01*
X61703314Y-93634223D01*
X61703117Y-93633386D01*
X61703117Y-93632980D01*
X61701806Y-93624703D01*
X61701806Y-93075297D01*
X61703117Y-93067020D01*
X61703117Y-93066614D01*
X61703538Y-93064363D01*
X61717660Y-92975199D01*
X61721680Y-92967309D01*
X61722936Y-92960591D01*
X61735175Y-92940824D01*
X61759150Y-92893771D01*
X61772697Y-92880224D01*
X61779717Y-92868886D01*
X61797353Y-92855568D01*
X61823771Y-92829150D01*
X61850103Y-92815733D01*
X61865791Y-92803886D01*
X61879838Y-92800582D01*
X61905199Y-92787660D01*
X61995777Y-92773314D01*
X61996614Y-92773117D01*
X61997020Y-92773117D01*
X62005297Y-92771806D01*
X62454703Y-92771806D01*
X62462980Y-92773117D01*
G37*
G36*
X65306756Y-91216764D02*
G01*
X65318227Y-91222288D01*
X65326287Y-91223795D01*
X65343547Y-91234482D01*
X65388638Y-91256197D01*
X65408738Y-91274847D01*
X65421964Y-91283036D01*
X65432265Y-91296676D01*
X65455264Y-91318016D01*
X65477614Y-91356727D01*
X65489781Y-91372839D01*
X65491751Y-91381213D01*
X65499506Y-91394646D01*
X65518419Y-91494601D01*
X65521883Y-91509330D01*
X65521883Y-91512909D01*
X65523194Y-91519838D01*
X65523194Y-92142517D01*
X65508236Y-92241756D01*
X65502712Y-92253227D01*
X65501205Y-92261287D01*
X65490518Y-92278547D01*
X65468803Y-92323638D01*
X65450153Y-92343738D01*
X65441964Y-92356964D01*
X65428324Y-92367265D01*
X65406984Y-92390264D01*
X65368273Y-92412614D01*
X65352161Y-92424781D01*
X65343787Y-92426751D01*
X65330354Y-92434506D01*
X65230399Y-92453419D01*
X65215670Y-92456883D01*
X65212091Y-92456883D01*
X65205162Y-92458194D01*
X64332483Y-92458194D01*
X64233244Y-92443236D01*
X64221773Y-92437712D01*
X64213713Y-92436205D01*
X64196453Y-92425518D01*
X64151362Y-92403803D01*
X64131262Y-92385153D01*
X64118036Y-92376964D01*
X64107735Y-92363324D01*
X64084736Y-92341984D01*
X64062386Y-92303273D01*
X64050219Y-92287161D01*
X64048249Y-92278787D01*
X64040494Y-92265354D01*
X64021581Y-92165399D01*
X64018117Y-92150670D01*
X64018117Y-92147091D01*
X64016806Y-92140162D01*
X64016806Y-91517483D01*
X64031764Y-91418244D01*
X64037288Y-91406773D01*
X64038795Y-91398713D01*
X64049482Y-91381453D01*
X64071197Y-91336362D01*
X64089847Y-91316262D01*
X64098036Y-91303036D01*
X64111676Y-91292735D01*
X64133016Y-91269736D01*
X64171727Y-91247386D01*
X64187839Y-91235219D01*
X64196213Y-91233249D01*
X64209646Y-91225494D01*
X64309601Y-91206581D01*
X64324330Y-91203117D01*
X64327909Y-91203117D01*
X64334838Y-91201806D01*
X65207517Y-91201806D01*
X65306756Y-91216764D01*
G37*
G36*
X60226756Y-91216764D02*
G01*
X60238227Y-91222288D01*
X60246287Y-91223795D01*
X60263547Y-91234482D01*
X60308638Y-91256197D01*
X60328738Y-91274847D01*
X60341964Y-91283036D01*
X60352265Y-91296676D01*
X60375264Y-91318016D01*
X60397614Y-91356727D01*
X60409781Y-91372839D01*
X60411751Y-91381213D01*
X60419506Y-91394646D01*
X60438419Y-91494601D01*
X60441883Y-91509330D01*
X60441883Y-91512909D01*
X60443194Y-91519838D01*
X60443194Y-92142517D01*
X60428236Y-92241756D01*
X60422712Y-92253227D01*
X60421205Y-92261287D01*
X60410518Y-92278547D01*
X60388803Y-92323638D01*
X60370153Y-92343738D01*
X60361964Y-92356964D01*
X60348324Y-92367265D01*
X60326984Y-92390264D01*
X60288273Y-92412614D01*
X60272161Y-92424781D01*
X60263787Y-92426751D01*
X60250354Y-92434506D01*
X60150399Y-92453419D01*
X60135670Y-92456883D01*
X60132091Y-92456883D01*
X60125162Y-92458194D01*
X59252483Y-92458194D01*
X59153244Y-92443236D01*
X59141773Y-92437712D01*
X59133713Y-92436205D01*
X59116453Y-92425518D01*
X59071362Y-92403803D01*
X59051262Y-92385153D01*
X59038036Y-92376964D01*
X59027735Y-92363324D01*
X59004736Y-92341984D01*
X58982386Y-92303273D01*
X58970219Y-92287161D01*
X58968249Y-92278787D01*
X58960494Y-92265354D01*
X58941581Y-92165399D01*
X58938117Y-92150670D01*
X58938117Y-92147091D01*
X58936806Y-92140162D01*
X58936806Y-91517483D01*
X58951764Y-91418244D01*
X58957288Y-91406773D01*
X58958795Y-91398713D01*
X58969482Y-91381453D01*
X58991197Y-91336362D01*
X59009847Y-91316262D01*
X59018036Y-91303036D01*
X59031676Y-91292735D01*
X59053016Y-91269736D01*
X59091727Y-91247386D01*
X59107839Y-91235219D01*
X59116213Y-91233249D01*
X59129646Y-91225494D01*
X59229601Y-91206581D01*
X59244330Y-91203117D01*
X59247909Y-91203117D01*
X59254838Y-91201806D01*
X60127517Y-91201806D01*
X60226756Y-91216764D01*
G37*
G36*
X50849902Y-90539283D02*
G01*
X50894637Y-90539595D01*
X50938460Y-90548590D01*
X50988360Y-90553835D01*
X51030132Y-90567408D01*
X51067723Y-90575124D01*
X51114851Y-90594935D01*
X51168488Y-90612363D01*
X51201099Y-90631191D01*
X51230614Y-90643598D01*
X51278301Y-90675763D01*
X51332511Y-90707061D01*
X51355826Y-90728054D01*
X51377101Y-90742404D01*
X51422183Y-90787802D01*
X51473261Y-90833793D01*
X51488003Y-90854083D01*
X51501608Y-90867784D01*
X51540643Y-90926537D01*
X51584586Y-90987019D01*
X51592221Y-91004168D01*
X51599388Y-91014955D01*
X51628865Y-91086472D01*
X51661621Y-91160042D01*
X51664211Y-91172225D01*
X51666724Y-91178323D01*
X51683292Y-91261997D01*
X51700999Y-91345301D01*
X51700999Y-91534699D01*
X51698115Y-91548269D01*
X51698030Y-91554331D01*
X51679342Y-91636585D01*
X51661621Y-91719958D01*
X51659129Y-91725555D01*
X51659078Y-91725780D01*
X51587210Y-91887197D01*
X51587078Y-91887385D01*
X51584586Y-91892981D01*
X51534480Y-91961946D01*
X51485357Y-92031582D01*
X51480585Y-92036126D01*
X51473261Y-92046207D01*
X51413396Y-92100110D01*
X51357396Y-92153438D01*
X51346464Y-92160376D01*
X51332511Y-92172939D01*
X51267764Y-92210321D01*
X51208211Y-92248114D01*
X51190209Y-92255097D01*
X51168488Y-92267637D01*
X51103115Y-92288878D01*
X51043468Y-92312014D01*
X51018200Y-92316469D01*
X50988360Y-92326165D01*
X50926095Y-92332709D01*
X50869460Y-92342695D01*
X50837459Y-92342025D01*
X50800000Y-92345962D01*
X50743902Y-92340066D01*
X50692799Y-92338996D01*
X50655323Y-92330756D01*
X50611640Y-92326165D01*
X50563917Y-92310659D01*
X50520225Y-92301052D01*
X50479230Y-92283142D01*
X50431512Y-92267637D01*
X50393473Y-92245675D01*
X50358310Y-92230313D01*
X50316337Y-92201141D01*
X50267489Y-92172939D01*
X50239504Y-92147741D01*
X50213215Y-92129470D01*
X50173257Y-92088092D01*
X50126739Y-92046207D01*
X50108296Y-92020823D01*
X50090473Y-92002366D01*
X50055821Y-91948597D01*
X50015414Y-91892981D01*
X50005212Y-91870066D01*
X49994754Y-91853839D01*
X49968789Y-91788261D01*
X49938379Y-91719958D01*
X49934476Y-91701596D01*
X49929707Y-91689551D01*
X49915740Y-91613448D01*
X49899001Y-91534699D01*
X49899001Y-91522246D01*
X49897811Y-91515762D01*
X49899001Y-91430535D01*
X49899001Y-91345301D01*
X49900275Y-91339308D01*
X49900278Y-91339077D01*
X49937015Y-91166246D01*
X49937105Y-91166036D01*
X49938379Y-91160042D01*
X49973042Y-91082188D01*
X50006622Y-91003839D01*
X50010348Y-90998397D01*
X50015414Y-90987019D01*
X50062746Y-90921872D01*
X50106452Y-90858041D01*
X50115706Y-90848979D01*
X50126739Y-90833793D01*
X50182297Y-90783769D01*
X50232693Y-90734417D01*
X50248848Y-90723846D01*
X50267489Y-90707061D01*
X50327026Y-90672687D01*
X50380551Y-90637662D01*
X50404340Y-90628050D01*
X50431512Y-90612363D01*
X50491045Y-90593019D01*
X50544376Y-90571472D01*
X50575820Y-90565474D01*
X50611640Y-90553835D01*
X50667744Y-90547938D01*
X50717945Y-90538362D01*
X50756312Y-90538630D01*
X50800000Y-90534038D01*
X50849902Y-90539283D01*
G37*
G36*
X73709902Y-90539283D02*
G01*
X73754637Y-90539595D01*
X73798460Y-90548590D01*
X73848360Y-90553835D01*
X73890132Y-90567408D01*
X73927723Y-90575124D01*
X73974851Y-90594935D01*
X74028488Y-90612363D01*
X74061099Y-90631191D01*
X74090614Y-90643598D01*
X74138301Y-90675763D01*
X74192511Y-90707061D01*
X74215826Y-90728054D01*
X74237101Y-90742404D01*
X74282183Y-90787802D01*
X74333261Y-90833793D01*
X74348003Y-90854083D01*
X74361608Y-90867784D01*
X74400643Y-90926537D01*
X74444586Y-90987019D01*
X74452221Y-91004168D01*
X74459388Y-91014955D01*
X74488865Y-91086472D01*
X74521621Y-91160042D01*
X74524211Y-91172225D01*
X74526724Y-91178323D01*
X74543292Y-91261997D01*
X74560999Y-91345301D01*
X74560999Y-91534699D01*
X74558115Y-91548269D01*
X74558030Y-91554331D01*
X74539342Y-91636585D01*
X74521621Y-91719958D01*
X74519129Y-91725555D01*
X74519078Y-91725780D01*
X74447210Y-91887197D01*
X74447078Y-91887385D01*
X74444586Y-91892981D01*
X74394480Y-91961946D01*
X74345357Y-92031582D01*
X74340585Y-92036126D01*
X74333261Y-92046207D01*
X74273396Y-92100110D01*
X74217396Y-92153438D01*
X74206464Y-92160376D01*
X74192511Y-92172939D01*
X74127764Y-92210321D01*
X74068211Y-92248114D01*
X74050209Y-92255097D01*
X74028488Y-92267637D01*
X73963115Y-92288878D01*
X73903468Y-92312014D01*
X73878200Y-92316469D01*
X73848360Y-92326165D01*
X73786095Y-92332709D01*
X73729460Y-92342695D01*
X73697459Y-92342025D01*
X73660000Y-92345962D01*
X73603902Y-92340066D01*
X73552799Y-92338996D01*
X73515323Y-92330756D01*
X73471640Y-92326165D01*
X73423917Y-92310659D01*
X73380225Y-92301052D01*
X73339230Y-92283142D01*
X73291512Y-92267637D01*
X73253473Y-92245675D01*
X73218310Y-92230313D01*
X73176337Y-92201141D01*
X73127489Y-92172939D01*
X73099504Y-92147741D01*
X73073215Y-92129470D01*
X73033257Y-92088092D01*
X72986739Y-92046207D01*
X72968296Y-92020823D01*
X72950473Y-92002366D01*
X72915821Y-91948597D01*
X72875414Y-91892981D01*
X72865212Y-91870066D01*
X72854754Y-91853839D01*
X72828789Y-91788261D01*
X72798379Y-91719958D01*
X72794476Y-91701596D01*
X72789707Y-91689551D01*
X72775740Y-91613448D01*
X72759001Y-91534699D01*
X72759001Y-91522246D01*
X72757811Y-91515762D01*
X72759001Y-91430535D01*
X72759001Y-91345301D01*
X72760275Y-91339308D01*
X72760278Y-91339077D01*
X72797015Y-91166246D01*
X72797105Y-91166036D01*
X72798379Y-91160042D01*
X72833042Y-91082188D01*
X72866622Y-91003839D01*
X72870348Y-90998397D01*
X72875414Y-90987019D01*
X72922746Y-90921872D01*
X72966452Y-90858041D01*
X72975706Y-90848979D01*
X72986739Y-90833793D01*
X73042297Y-90783769D01*
X73092693Y-90734417D01*
X73108848Y-90723846D01*
X73127489Y-90707061D01*
X73187026Y-90672687D01*
X73240551Y-90637662D01*
X73264340Y-90628050D01*
X73291512Y-90612363D01*
X73351045Y-90593019D01*
X73404376Y-90571472D01*
X73435820Y-90565474D01*
X73471640Y-90553835D01*
X73527744Y-90547938D01*
X73577945Y-90538362D01*
X73616312Y-90538630D01*
X73660000Y-90534038D01*
X73709902Y-90539283D01*
G37*
G36*
X62766756Y-89946764D02*
G01*
X62778227Y-89952288D01*
X62786287Y-89953795D01*
X62803547Y-89964482D01*
X62848638Y-89986197D01*
X62868738Y-90004847D01*
X62881964Y-90013036D01*
X62892265Y-90026676D01*
X62915264Y-90048016D01*
X62937614Y-90086727D01*
X62949781Y-90102839D01*
X62951751Y-90111213D01*
X62959506Y-90124646D01*
X62978419Y-90224601D01*
X62981883Y-90239330D01*
X62981883Y-90242909D01*
X62983194Y-90249838D01*
X62983194Y-90872517D01*
X62968236Y-90971756D01*
X62962712Y-90983227D01*
X62961205Y-90991287D01*
X62950518Y-91008547D01*
X62928803Y-91053638D01*
X62910153Y-91073738D01*
X62901964Y-91086964D01*
X62888324Y-91097265D01*
X62866984Y-91120264D01*
X62828273Y-91142614D01*
X62812161Y-91154781D01*
X62803787Y-91156751D01*
X62790354Y-91164506D01*
X62690399Y-91183419D01*
X62675670Y-91186883D01*
X62672091Y-91186883D01*
X62665162Y-91188194D01*
X61792483Y-91188194D01*
X61693244Y-91173236D01*
X61681773Y-91167712D01*
X61673713Y-91166205D01*
X61656453Y-91155518D01*
X61611362Y-91133803D01*
X61591262Y-91115153D01*
X61578036Y-91106964D01*
X61567735Y-91093324D01*
X61544736Y-91071984D01*
X61522386Y-91033273D01*
X61510219Y-91017161D01*
X61508249Y-91008787D01*
X61500494Y-90995354D01*
X61481581Y-90895399D01*
X61478117Y-90880670D01*
X61478117Y-90877091D01*
X61476806Y-90870162D01*
X61476806Y-90247483D01*
X61491764Y-90148244D01*
X61497288Y-90136773D01*
X61498795Y-90128713D01*
X61509482Y-90111453D01*
X61531197Y-90066362D01*
X61549847Y-90046262D01*
X61558036Y-90033036D01*
X61571676Y-90022735D01*
X61593016Y-89999736D01*
X61631727Y-89977386D01*
X61647839Y-89965219D01*
X61656213Y-89963249D01*
X61669646Y-89955494D01*
X61769601Y-89936581D01*
X61784330Y-89933117D01*
X61787909Y-89933117D01*
X61794838Y-89931806D01*
X62667517Y-89931806D01*
X62766756Y-89946764D01*
G37*
G36*
X65306756Y-89166764D02*
G01*
X65318227Y-89172288D01*
X65326287Y-89173795D01*
X65343547Y-89184482D01*
X65388638Y-89206197D01*
X65408738Y-89224847D01*
X65421964Y-89233036D01*
X65432265Y-89246676D01*
X65455264Y-89268016D01*
X65477614Y-89306727D01*
X65489781Y-89322839D01*
X65491751Y-89331213D01*
X65499506Y-89344646D01*
X65518419Y-89444601D01*
X65521883Y-89459330D01*
X65521883Y-89462909D01*
X65523194Y-89469838D01*
X65523194Y-90092517D01*
X65508236Y-90191756D01*
X65502712Y-90203227D01*
X65501205Y-90211287D01*
X65490518Y-90228547D01*
X65468803Y-90273638D01*
X65450153Y-90293738D01*
X65441964Y-90306964D01*
X65428324Y-90317265D01*
X65406984Y-90340264D01*
X65368273Y-90362614D01*
X65352161Y-90374781D01*
X65343787Y-90376751D01*
X65330354Y-90384506D01*
X65230399Y-90403419D01*
X65215670Y-90406883D01*
X65212091Y-90406883D01*
X65205162Y-90408194D01*
X64332483Y-90408194D01*
X64233244Y-90393236D01*
X64221773Y-90387712D01*
X64213713Y-90386205D01*
X64196453Y-90375518D01*
X64151362Y-90353803D01*
X64131262Y-90335153D01*
X64118036Y-90326964D01*
X64107735Y-90313324D01*
X64084736Y-90291984D01*
X64062386Y-90253273D01*
X64050219Y-90237161D01*
X64048249Y-90228787D01*
X64040494Y-90215354D01*
X64021581Y-90115399D01*
X64018117Y-90100670D01*
X64018117Y-90097091D01*
X64016806Y-90090162D01*
X64016806Y-89467483D01*
X64031764Y-89368244D01*
X64037288Y-89356773D01*
X64038795Y-89348713D01*
X64049482Y-89331453D01*
X64071197Y-89286362D01*
X64089847Y-89266262D01*
X64098036Y-89253036D01*
X64111676Y-89242735D01*
X64133016Y-89219736D01*
X64171727Y-89197386D01*
X64187839Y-89185219D01*
X64196213Y-89183249D01*
X64209646Y-89175494D01*
X64309601Y-89156581D01*
X64324330Y-89153117D01*
X64327909Y-89153117D01*
X64334838Y-89151806D01*
X65207517Y-89151806D01*
X65306756Y-89166764D01*
G37*
G36*
X60226756Y-89166764D02*
G01*
X60238227Y-89172288D01*
X60246287Y-89173795D01*
X60263547Y-89184482D01*
X60308638Y-89206197D01*
X60328738Y-89224847D01*
X60341964Y-89233036D01*
X60352265Y-89246676D01*
X60375264Y-89268016D01*
X60397614Y-89306727D01*
X60409781Y-89322839D01*
X60411751Y-89331213D01*
X60419506Y-89344646D01*
X60438419Y-89444601D01*
X60441883Y-89459330D01*
X60441883Y-89462909D01*
X60443194Y-89469838D01*
X60443194Y-90092517D01*
X60428236Y-90191756D01*
X60422712Y-90203227D01*
X60421205Y-90211287D01*
X60410518Y-90228547D01*
X60388803Y-90273638D01*
X60370153Y-90293738D01*
X60361964Y-90306964D01*
X60348324Y-90317265D01*
X60326984Y-90340264D01*
X60288273Y-90362614D01*
X60272161Y-90374781D01*
X60263787Y-90376751D01*
X60250354Y-90384506D01*
X60150399Y-90403419D01*
X60135670Y-90406883D01*
X60132091Y-90406883D01*
X60125162Y-90408194D01*
X59252483Y-90408194D01*
X59153244Y-90393236D01*
X59141773Y-90387712D01*
X59133713Y-90386205D01*
X59116453Y-90375518D01*
X59071362Y-90353803D01*
X59051262Y-90335153D01*
X59038036Y-90326964D01*
X59027735Y-90313324D01*
X59004736Y-90291984D01*
X58982386Y-90253273D01*
X58970219Y-90237161D01*
X58968249Y-90228787D01*
X58960494Y-90215354D01*
X58941581Y-90115399D01*
X58938117Y-90100670D01*
X58938117Y-90097091D01*
X58936806Y-90090162D01*
X58936806Y-89467483D01*
X58951764Y-89368244D01*
X58957288Y-89356773D01*
X58958795Y-89348713D01*
X58969482Y-89331453D01*
X58991197Y-89286362D01*
X59009847Y-89266262D01*
X59018036Y-89253036D01*
X59031676Y-89242735D01*
X59053016Y-89219736D01*
X59091727Y-89197386D01*
X59107839Y-89185219D01*
X59116213Y-89183249D01*
X59129646Y-89175494D01*
X59229601Y-89156581D01*
X59244330Y-89153117D01*
X59247909Y-89153117D01*
X59254838Y-89151806D01*
X60127517Y-89151806D01*
X60226756Y-89166764D01*
G37*
G36*
X50849902Y-87999283D02*
G01*
X50894637Y-87999595D01*
X50938460Y-88008590D01*
X50988360Y-88013835D01*
X51030132Y-88027408D01*
X51067723Y-88035124D01*
X51114851Y-88054935D01*
X51168488Y-88072363D01*
X51201099Y-88091191D01*
X51230614Y-88103598D01*
X51278301Y-88135763D01*
X51332511Y-88167061D01*
X51355826Y-88188054D01*
X51377101Y-88202404D01*
X51422183Y-88247802D01*
X51473261Y-88293793D01*
X51488003Y-88314083D01*
X51501608Y-88327784D01*
X51540643Y-88386537D01*
X51584586Y-88447019D01*
X51592221Y-88464168D01*
X51599388Y-88474955D01*
X51628865Y-88546472D01*
X51661621Y-88620042D01*
X51664211Y-88632225D01*
X51666724Y-88638323D01*
X51683292Y-88721997D01*
X51700999Y-88805301D01*
X51700999Y-88994699D01*
X51698115Y-89008269D01*
X51698030Y-89014331D01*
X51679342Y-89096585D01*
X51661621Y-89179958D01*
X51659129Y-89185555D01*
X51659078Y-89185780D01*
X51587210Y-89347197D01*
X51587078Y-89347385D01*
X51584586Y-89352981D01*
X51534480Y-89421946D01*
X51485357Y-89491582D01*
X51480585Y-89496126D01*
X51473261Y-89506207D01*
X51413396Y-89560110D01*
X51357396Y-89613438D01*
X51346464Y-89620376D01*
X51332511Y-89632939D01*
X51267764Y-89670321D01*
X51208211Y-89708114D01*
X51190209Y-89715097D01*
X51168488Y-89727637D01*
X51103115Y-89748878D01*
X51043468Y-89772014D01*
X51018200Y-89776469D01*
X50988360Y-89786165D01*
X50926095Y-89792709D01*
X50869460Y-89802695D01*
X50837459Y-89802025D01*
X50800000Y-89805962D01*
X50743902Y-89800066D01*
X50692799Y-89798996D01*
X50655323Y-89790756D01*
X50611640Y-89786165D01*
X50563917Y-89770659D01*
X50520225Y-89761052D01*
X50479230Y-89743142D01*
X50431512Y-89727637D01*
X50393473Y-89705675D01*
X50358310Y-89690313D01*
X50316337Y-89661141D01*
X50267489Y-89632939D01*
X50239504Y-89607741D01*
X50213215Y-89589470D01*
X50173257Y-89548092D01*
X50126739Y-89506207D01*
X50108296Y-89480823D01*
X50090473Y-89462366D01*
X50055821Y-89408597D01*
X50015414Y-89352981D01*
X50005212Y-89330066D01*
X49994754Y-89313839D01*
X49968789Y-89248261D01*
X49938379Y-89179958D01*
X49934476Y-89161596D01*
X49929707Y-89149551D01*
X49915740Y-89073448D01*
X49899001Y-88994699D01*
X49899001Y-88982246D01*
X49897811Y-88975762D01*
X49899001Y-88890535D01*
X49899001Y-88805301D01*
X49900275Y-88799308D01*
X49900278Y-88799077D01*
X49937015Y-88626246D01*
X49937105Y-88626036D01*
X49938379Y-88620042D01*
X49973042Y-88542188D01*
X50006622Y-88463839D01*
X50010348Y-88458397D01*
X50015414Y-88447019D01*
X50062746Y-88381872D01*
X50106452Y-88318041D01*
X50115706Y-88308979D01*
X50126739Y-88293793D01*
X50182297Y-88243769D01*
X50232693Y-88194417D01*
X50248848Y-88183846D01*
X50267489Y-88167061D01*
X50327026Y-88132687D01*
X50380551Y-88097662D01*
X50404340Y-88088050D01*
X50431512Y-88072363D01*
X50491045Y-88053019D01*
X50544376Y-88031472D01*
X50575820Y-88025474D01*
X50611640Y-88013835D01*
X50667744Y-88007938D01*
X50717945Y-87998362D01*
X50756312Y-87998630D01*
X50800000Y-87994038D01*
X50849902Y-87999283D01*
G37*
G36*
X73709902Y-87999283D02*
G01*
X73754637Y-87999595D01*
X73798460Y-88008590D01*
X73848360Y-88013835D01*
X73890132Y-88027408D01*
X73927723Y-88035124D01*
X73974851Y-88054935D01*
X74028488Y-88072363D01*
X74061099Y-88091191D01*
X74090614Y-88103598D01*
X74138301Y-88135763D01*
X74192511Y-88167061D01*
X74215826Y-88188054D01*
X74237101Y-88202404D01*
X74282183Y-88247802D01*
X74333261Y-88293793D01*
X74348003Y-88314083D01*
X74361608Y-88327784D01*
X74400643Y-88386537D01*
X74444586Y-88447019D01*
X74452221Y-88464168D01*
X74459388Y-88474955D01*
X74488865Y-88546472D01*
X74521621Y-88620042D01*
X74524211Y-88632225D01*
X74526724Y-88638323D01*
X74543292Y-88721997D01*
X74560999Y-88805301D01*
X74560999Y-88994699D01*
X74558115Y-89008269D01*
X74558030Y-89014331D01*
X74539342Y-89096585D01*
X74521621Y-89179958D01*
X74519129Y-89185555D01*
X74519078Y-89185780D01*
X74447210Y-89347197D01*
X74447078Y-89347385D01*
X74444586Y-89352981D01*
X74394480Y-89421946D01*
X74345357Y-89491582D01*
X74340585Y-89496126D01*
X74333261Y-89506207D01*
X74273396Y-89560110D01*
X74217396Y-89613438D01*
X74206464Y-89620376D01*
X74192511Y-89632939D01*
X74127764Y-89670321D01*
X74068211Y-89708114D01*
X74050209Y-89715097D01*
X74028488Y-89727637D01*
X73963115Y-89748878D01*
X73903468Y-89772014D01*
X73878200Y-89776469D01*
X73848360Y-89786165D01*
X73786095Y-89792709D01*
X73729460Y-89802695D01*
X73697459Y-89802025D01*
X73660000Y-89805962D01*
X73603902Y-89800066D01*
X73552799Y-89798996D01*
X73515323Y-89790756D01*
X73471640Y-89786165D01*
X73423917Y-89770659D01*
X73380225Y-89761052D01*
X73339230Y-89743142D01*
X73291512Y-89727637D01*
X73253473Y-89705675D01*
X73218310Y-89690313D01*
X73176337Y-89661141D01*
X73127489Y-89632939D01*
X73099504Y-89607741D01*
X73073215Y-89589470D01*
X73033257Y-89548092D01*
X72986739Y-89506207D01*
X72968296Y-89480823D01*
X72950473Y-89462366D01*
X72915821Y-89408597D01*
X72875414Y-89352981D01*
X72865212Y-89330066D01*
X72854754Y-89313839D01*
X72828789Y-89248261D01*
X72798379Y-89179958D01*
X72794476Y-89161596D01*
X72789707Y-89149551D01*
X72775740Y-89073448D01*
X72759001Y-88994699D01*
X72759001Y-88982246D01*
X72757811Y-88975762D01*
X72759001Y-88890535D01*
X72759001Y-88805301D01*
X72760275Y-88799308D01*
X72760278Y-88799077D01*
X72797015Y-88626246D01*
X72797105Y-88626036D01*
X72798379Y-88620042D01*
X72833042Y-88542188D01*
X72866622Y-88463839D01*
X72870348Y-88458397D01*
X72875414Y-88447019D01*
X72922746Y-88381872D01*
X72966452Y-88318041D01*
X72975706Y-88308979D01*
X72986739Y-88293793D01*
X73042297Y-88243769D01*
X73092693Y-88194417D01*
X73108848Y-88183846D01*
X73127489Y-88167061D01*
X73187026Y-88132687D01*
X73240551Y-88097662D01*
X73264340Y-88088050D01*
X73291512Y-88072363D01*
X73351045Y-88053019D01*
X73404376Y-88031472D01*
X73435820Y-88025474D01*
X73471640Y-88013835D01*
X73527744Y-88007938D01*
X73577945Y-87998362D01*
X73616312Y-87998630D01*
X73660000Y-87994038D01*
X73709902Y-87999283D01*
G37*
G36*
X62766756Y-87896764D02*
G01*
X62778227Y-87902288D01*
X62786287Y-87903795D01*
X62803547Y-87914482D01*
X62848638Y-87936197D01*
X62868738Y-87954847D01*
X62881964Y-87963036D01*
X62892265Y-87976676D01*
X62915264Y-87998016D01*
X62937614Y-88036727D01*
X62949781Y-88052839D01*
X62951751Y-88061213D01*
X62959506Y-88074646D01*
X62978419Y-88174601D01*
X62981883Y-88189330D01*
X62981883Y-88192909D01*
X62983194Y-88199838D01*
X62983194Y-88822517D01*
X62968236Y-88921756D01*
X62962712Y-88933227D01*
X62961205Y-88941287D01*
X62950518Y-88958547D01*
X62928803Y-89003638D01*
X62910153Y-89023738D01*
X62901964Y-89036964D01*
X62888324Y-89047265D01*
X62866984Y-89070264D01*
X62828273Y-89092614D01*
X62812161Y-89104781D01*
X62803787Y-89106751D01*
X62790354Y-89114506D01*
X62690399Y-89133419D01*
X62675670Y-89136883D01*
X62672091Y-89136883D01*
X62665162Y-89138194D01*
X61792483Y-89138194D01*
X61693244Y-89123236D01*
X61681773Y-89117712D01*
X61673713Y-89116205D01*
X61656453Y-89105518D01*
X61611362Y-89083803D01*
X61591262Y-89065153D01*
X61578036Y-89056964D01*
X61567735Y-89043324D01*
X61544736Y-89021984D01*
X61522386Y-88983273D01*
X61510219Y-88967161D01*
X61508249Y-88958787D01*
X61500494Y-88945354D01*
X61481581Y-88845399D01*
X61478117Y-88830670D01*
X61478117Y-88827091D01*
X61476806Y-88820162D01*
X61476806Y-88197483D01*
X61491764Y-88098244D01*
X61497288Y-88086773D01*
X61498795Y-88078713D01*
X61509482Y-88061453D01*
X61531197Y-88016362D01*
X61549847Y-87996262D01*
X61558036Y-87983036D01*
X61571676Y-87972735D01*
X61593016Y-87949736D01*
X61631727Y-87927386D01*
X61647839Y-87915219D01*
X61656213Y-87913249D01*
X61669646Y-87905494D01*
X61769601Y-87886581D01*
X61784330Y-87883117D01*
X61787909Y-87883117D01*
X61794838Y-87881806D01*
X62667517Y-87881806D01*
X62766756Y-87896764D01*
G37*
G36*
X65539899Y-84996959D02*
G01*
X65556769Y-85008231D01*
X65568041Y-85025101D01*
X65574448Y-85057312D01*
X65574448Y-86032688D01*
X65571999Y-86045000D01*
X65568041Y-86064899D01*
X65556769Y-86081769D01*
X65556768Y-86081770D01*
X65553275Y-86086997D01*
X65540291Y-86097642D01*
X65541859Y-86099554D01*
X65503629Y-86145200D01*
X65494779Y-86215075D01*
X65525110Y-86278642D01*
X65532023Y-86283546D01*
X65531371Y-86284196D01*
X65548933Y-86301795D01*
X65548934Y-86301795D01*
X65563266Y-86316156D01*
X65571999Y-86345000D01*
X65571999Y-86355422D01*
X65574448Y-86363510D01*
X65574448Y-87482688D01*
X65571999Y-87495000D01*
X65568041Y-87514899D01*
X65556769Y-87531769D01*
X65539899Y-87543041D01*
X65520000Y-87546999D01*
X65507688Y-87549448D01*
X64032312Y-87549448D01*
X64000101Y-87543041D01*
X63983231Y-87531769D01*
X63971959Y-87514899D01*
X63965552Y-87482688D01*
X63965552Y-86357312D01*
X63971959Y-86325101D01*
X63983231Y-86308231D01*
X63994050Y-86301002D01*
X64039215Y-86246958D01*
X64047992Y-86177074D01*
X64004740Y-86109855D01*
X64008757Y-86105829D01*
X63991161Y-86088269D01*
X63991156Y-86088266D01*
X63976795Y-86073934D01*
X63969011Y-86055198D01*
X63969011Y-86055195D01*
X63966599Y-86049390D01*
X63965552Y-86038822D01*
X63965552Y-85057312D01*
X63971959Y-85025101D01*
X63983231Y-85008231D01*
X64000101Y-84996959D01*
X64032312Y-84990552D01*
X65507688Y-84990552D01*
X65539899Y-84996959D01*
G37*
G36*
X60459899Y-84996959D02*
G01*
X60476769Y-85008231D01*
X60488041Y-85025101D01*
X60494448Y-85057312D01*
X60494448Y-86032688D01*
X60491999Y-86045000D01*
X60488041Y-86064899D01*
X60476769Y-86081769D01*
X60476768Y-86081770D01*
X60473275Y-86086997D01*
X60460291Y-86097642D01*
X60461859Y-86099554D01*
X60423629Y-86145200D01*
X60414779Y-86215075D01*
X60445110Y-86278642D01*
X60452023Y-86283546D01*
X60451371Y-86284196D01*
X60468933Y-86301795D01*
X60468934Y-86301795D01*
X60483266Y-86316156D01*
X60491999Y-86345000D01*
X60491999Y-86355422D01*
X60494448Y-86363510D01*
X60494448Y-87482688D01*
X60491999Y-87495000D01*
X60488041Y-87514899D01*
X60476769Y-87531769D01*
X60459899Y-87543041D01*
X60440000Y-87546999D01*
X60427688Y-87549448D01*
X58952312Y-87549448D01*
X58920101Y-87543041D01*
X58903231Y-87531769D01*
X58891959Y-87514899D01*
X58885552Y-87482688D01*
X58885552Y-86357312D01*
X58891959Y-86325101D01*
X58903231Y-86308231D01*
X58914050Y-86301002D01*
X58959215Y-86246958D01*
X58967992Y-86177074D01*
X58924740Y-86109855D01*
X58928757Y-86105829D01*
X58911161Y-86088269D01*
X58911156Y-86088266D01*
X58896795Y-86073934D01*
X58889011Y-86055198D01*
X58889011Y-86055195D01*
X58886599Y-86049390D01*
X58885552Y-86038822D01*
X58885552Y-85057312D01*
X58891959Y-85025101D01*
X58903231Y-85008231D01*
X58920101Y-84996959D01*
X58952312Y-84990552D01*
X60427688Y-84990552D01*
X60459899Y-84996959D01*
G37*
G36*
X73709902Y-85459283D02*
G01*
X73754637Y-85459595D01*
X73798460Y-85468590D01*
X73848360Y-85473835D01*
X73890132Y-85487408D01*
X73927723Y-85495124D01*
X73974851Y-85514935D01*
X74028488Y-85532363D01*
X74061099Y-85551191D01*
X74090614Y-85563598D01*
X74138301Y-85595763D01*
X74192511Y-85627061D01*
X74215826Y-85648054D01*
X74237101Y-85662404D01*
X74282183Y-85707802D01*
X74333261Y-85753793D01*
X74348003Y-85774083D01*
X74361608Y-85787784D01*
X74400643Y-85846537D01*
X74444586Y-85907019D01*
X74452221Y-85924168D01*
X74459388Y-85934955D01*
X74488865Y-86006472D01*
X74521621Y-86080042D01*
X74524211Y-86092225D01*
X74526724Y-86098323D01*
X74543292Y-86181997D01*
X74560999Y-86265301D01*
X74560999Y-86454699D01*
X74558115Y-86468269D01*
X74558030Y-86474331D01*
X74539342Y-86556585D01*
X74521621Y-86639958D01*
X74519129Y-86645555D01*
X74519078Y-86645780D01*
X74447210Y-86807197D01*
X74447078Y-86807385D01*
X74444586Y-86812981D01*
X74394480Y-86881946D01*
X74345357Y-86951582D01*
X74340585Y-86956126D01*
X74333261Y-86966207D01*
X74273396Y-87020110D01*
X74217396Y-87073438D01*
X74206464Y-87080376D01*
X74192511Y-87092939D01*
X74127764Y-87130321D01*
X74068211Y-87168114D01*
X74050209Y-87175097D01*
X74028488Y-87187637D01*
X73963115Y-87208878D01*
X73903468Y-87232014D01*
X73878200Y-87236469D01*
X73848360Y-87246165D01*
X73786095Y-87252709D01*
X73729460Y-87262695D01*
X73697459Y-87262025D01*
X73660000Y-87265962D01*
X73603902Y-87260066D01*
X73552799Y-87258996D01*
X73515323Y-87250756D01*
X73471640Y-87246165D01*
X73423917Y-87230659D01*
X73380225Y-87221052D01*
X73339230Y-87203142D01*
X73291512Y-87187637D01*
X73253473Y-87165675D01*
X73218310Y-87150313D01*
X73176337Y-87121141D01*
X73127489Y-87092939D01*
X73099504Y-87067741D01*
X73073215Y-87049470D01*
X73033257Y-87008092D01*
X72986739Y-86966207D01*
X72968296Y-86940823D01*
X72950473Y-86922366D01*
X72915821Y-86868597D01*
X72875414Y-86812981D01*
X72865212Y-86790066D01*
X72854754Y-86773839D01*
X72828789Y-86708261D01*
X72798379Y-86639958D01*
X72794476Y-86621596D01*
X72789707Y-86609551D01*
X72775740Y-86533448D01*
X72759001Y-86454699D01*
X72759001Y-86442246D01*
X72757811Y-86435762D01*
X72759001Y-86350535D01*
X72759001Y-86265301D01*
X72760275Y-86259308D01*
X72760278Y-86259077D01*
X72797015Y-86086246D01*
X72797105Y-86086036D01*
X72798379Y-86080042D01*
X72833042Y-86002188D01*
X72866622Y-85923839D01*
X72870348Y-85918397D01*
X72875414Y-85907019D01*
X72922746Y-85841872D01*
X72966452Y-85778041D01*
X72975706Y-85768979D01*
X72986739Y-85753793D01*
X73042297Y-85703769D01*
X73092693Y-85654417D01*
X73108848Y-85643846D01*
X73127489Y-85627061D01*
X73187026Y-85592687D01*
X73240551Y-85557662D01*
X73264340Y-85548050D01*
X73291512Y-85532363D01*
X73351045Y-85513019D01*
X73404376Y-85491472D01*
X73435820Y-85485474D01*
X73471640Y-85473835D01*
X73527744Y-85467938D01*
X73577945Y-85458362D01*
X73616312Y-85458630D01*
X73660000Y-85454038D01*
X73709902Y-85459283D01*
G37*
G36*
X50849902Y-85459283D02*
G01*
X50894637Y-85459595D01*
X50938460Y-85468590D01*
X50988360Y-85473835D01*
X51030132Y-85487408D01*
X51067723Y-85495124D01*
X51114851Y-85514935D01*
X51168488Y-85532363D01*
X51201099Y-85551191D01*
X51230614Y-85563598D01*
X51278301Y-85595763D01*
X51332511Y-85627061D01*
X51355826Y-85648054D01*
X51377101Y-85662404D01*
X51422183Y-85707802D01*
X51473261Y-85753793D01*
X51488003Y-85774083D01*
X51501608Y-85787784D01*
X51540643Y-85846537D01*
X51584586Y-85907019D01*
X51592221Y-85924168D01*
X51599388Y-85934955D01*
X51628865Y-86006472D01*
X51661621Y-86080042D01*
X51664211Y-86092225D01*
X51666724Y-86098323D01*
X51683292Y-86181997D01*
X51700999Y-86265301D01*
X51700999Y-86454699D01*
X51698115Y-86468269D01*
X51698030Y-86474331D01*
X51679342Y-86556585D01*
X51661621Y-86639958D01*
X51659129Y-86645555D01*
X51659078Y-86645780D01*
X51587210Y-86807197D01*
X51587078Y-86807385D01*
X51584586Y-86812981D01*
X51534480Y-86881946D01*
X51485357Y-86951582D01*
X51480585Y-86956126D01*
X51473261Y-86966207D01*
X51413396Y-87020110D01*
X51357396Y-87073438D01*
X51346464Y-87080376D01*
X51332511Y-87092939D01*
X51267764Y-87130321D01*
X51208211Y-87168114D01*
X51190209Y-87175097D01*
X51168488Y-87187637D01*
X51103115Y-87208878D01*
X51043468Y-87232014D01*
X51018200Y-87236469D01*
X50988360Y-87246165D01*
X50926095Y-87252709D01*
X50869460Y-87262695D01*
X50837459Y-87262025D01*
X50800000Y-87265962D01*
X50743902Y-87260066D01*
X50692799Y-87258996D01*
X50655323Y-87250756D01*
X50611640Y-87246165D01*
X50563917Y-87230659D01*
X50520225Y-87221052D01*
X50479230Y-87203142D01*
X50431512Y-87187637D01*
X50393473Y-87165675D01*
X50358310Y-87150313D01*
X50316337Y-87121141D01*
X50267489Y-87092939D01*
X50239504Y-87067741D01*
X50213215Y-87049470D01*
X50173257Y-87008092D01*
X50126739Y-86966207D01*
X50108296Y-86940823D01*
X50090473Y-86922366D01*
X50055821Y-86868597D01*
X50015414Y-86812981D01*
X50005212Y-86790066D01*
X49994754Y-86773839D01*
X49968789Y-86708261D01*
X49938379Y-86639958D01*
X49934476Y-86621596D01*
X49929707Y-86609551D01*
X49915740Y-86533448D01*
X49899001Y-86454699D01*
X49899001Y-86442246D01*
X49897811Y-86435762D01*
X49899001Y-86350535D01*
X49899001Y-86265301D01*
X49900275Y-86259308D01*
X49900278Y-86259077D01*
X49937015Y-86086246D01*
X49937105Y-86086036D01*
X49938379Y-86080042D01*
X49973042Y-86002188D01*
X50006622Y-85923839D01*
X50010348Y-85918397D01*
X50015414Y-85907019D01*
X50062746Y-85841872D01*
X50106452Y-85778041D01*
X50115706Y-85768979D01*
X50126739Y-85753793D01*
X50182297Y-85703769D01*
X50232693Y-85654417D01*
X50248848Y-85643846D01*
X50267489Y-85627061D01*
X50327026Y-85592687D01*
X50380551Y-85557662D01*
X50404340Y-85548050D01*
X50431512Y-85532363D01*
X50491045Y-85513019D01*
X50544376Y-85491472D01*
X50575820Y-85485474D01*
X50611640Y-85473835D01*
X50667744Y-85467938D01*
X50717945Y-85458362D01*
X50756312Y-85458630D01*
X50800000Y-85454038D01*
X50849902Y-85459283D01*
G37*
G36*
X50849902Y-82919283D02*
G01*
X50894637Y-82919595D01*
X50938460Y-82928590D01*
X50988360Y-82933835D01*
X51030132Y-82947408D01*
X51067723Y-82955124D01*
X51114851Y-82974935D01*
X51168488Y-82992363D01*
X51201099Y-83011191D01*
X51230614Y-83023598D01*
X51278301Y-83055763D01*
X51332511Y-83087061D01*
X51355826Y-83108054D01*
X51377101Y-83122404D01*
X51422183Y-83167802D01*
X51473261Y-83213793D01*
X51488003Y-83234083D01*
X51501608Y-83247784D01*
X51540643Y-83306537D01*
X51584586Y-83367019D01*
X51592221Y-83384168D01*
X51599388Y-83394955D01*
X51628865Y-83466472D01*
X51661621Y-83540042D01*
X51664211Y-83552225D01*
X51666724Y-83558323D01*
X51683292Y-83641997D01*
X51700999Y-83725301D01*
X51700999Y-83914699D01*
X51698115Y-83928269D01*
X51698030Y-83934331D01*
X51679342Y-84016585D01*
X51661621Y-84099958D01*
X51659129Y-84105555D01*
X51659078Y-84105780D01*
X51587210Y-84267197D01*
X51587078Y-84267385D01*
X51584586Y-84272981D01*
X51534480Y-84341946D01*
X51485357Y-84411582D01*
X51480585Y-84416126D01*
X51473261Y-84426207D01*
X51413396Y-84480110D01*
X51357396Y-84533438D01*
X51346464Y-84540376D01*
X51332511Y-84552939D01*
X51267764Y-84590321D01*
X51208211Y-84628114D01*
X51190209Y-84635097D01*
X51168488Y-84647637D01*
X51103115Y-84668878D01*
X51043468Y-84692014D01*
X51018200Y-84696469D01*
X50988360Y-84706165D01*
X50926095Y-84712709D01*
X50869460Y-84722695D01*
X50837459Y-84722025D01*
X50800000Y-84725962D01*
X50743902Y-84720066D01*
X50692799Y-84718996D01*
X50655323Y-84710756D01*
X50611640Y-84706165D01*
X50563917Y-84690659D01*
X50520225Y-84681052D01*
X50479230Y-84663142D01*
X50431512Y-84647637D01*
X50393473Y-84625675D01*
X50358310Y-84610313D01*
X50316337Y-84581141D01*
X50267489Y-84552939D01*
X50239504Y-84527741D01*
X50213215Y-84509470D01*
X50173257Y-84468092D01*
X50126739Y-84426207D01*
X50108296Y-84400823D01*
X50090473Y-84382366D01*
X50055821Y-84328597D01*
X50015414Y-84272981D01*
X50005212Y-84250066D01*
X49994754Y-84233839D01*
X49968789Y-84168261D01*
X49938379Y-84099958D01*
X49934476Y-84081596D01*
X49929707Y-84069551D01*
X49915740Y-83993448D01*
X49899001Y-83914699D01*
X49899001Y-83902246D01*
X49897811Y-83895762D01*
X49899001Y-83810535D01*
X49899001Y-83725301D01*
X49900275Y-83719308D01*
X49900278Y-83719077D01*
X49937015Y-83546246D01*
X49937105Y-83546036D01*
X49938379Y-83540042D01*
X49973042Y-83462188D01*
X50006622Y-83383839D01*
X50010348Y-83378397D01*
X50015414Y-83367019D01*
X50062746Y-83301872D01*
X50106452Y-83238041D01*
X50115706Y-83228979D01*
X50126739Y-83213793D01*
X50182297Y-83163769D01*
X50232693Y-83114417D01*
X50248848Y-83103846D01*
X50267489Y-83087061D01*
X50327026Y-83052687D01*
X50380551Y-83017662D01*
X50404340Y-83008050D01*
X50431512Y-82992363D01*
X50491045Y-82973019D01*
X50544376Y-82951472D01*
X50575820Y-82945474D01*
X50611640Y-82933835D01*
X50667744Y-82927938D01*
X50717945Y-82918362D01*
X50756312Y-82918630D01*
X50800000Y-82914038D01*
X50849902Y-82919283D01*
G37*
G36*
X73709902Y-82919283D02*
G01*
X73754637Y-82919595D01*
X73798460Y-82928590D01*
X73848360Y-82933835D01*
X73890132Y-82947408D01*
X73927723Y-82955124D01*
X73974851Y-82974935D01*
X74028488Y-82992363D01*
X74061099Y-83011191D01*
X74090614Y-83023598D01*
X74138301Y-83055763D01*
X74192511Y-83087061D01*
X74215826Y-83108054D01*
X74237101Y-83122404D01*
X74282183Y-83167802D01*
X74333261Y-83213793D01*
X74348003Y-83234083D01*
X74361608Y-83247784D01*
X74400643Y-83306537D01*
X74444586Y-83367019D01*
X74452221Y-83384168D01*
X74459388Y-83394955D01*
X74488865Y-83466472D01*
X74521621Y-83540042D01*
X74524211Y-83552225D01*
X74526724Y-83558323D01*
X74543292Y-83641997D01*
X74560999Y-83725301D01*
X74560999Y-83914699D01*
X74558115Y-83928269D01*
X74558030Y-83934331D01*
X74539342Y-84016585D01*
X74521621Y-84099958D01*
X74519129Y-84105555D01*
X74519078Y-84105780D01*
X74447210Y-84267197D01*
X74447078Y-84267385D01*
X74444586Y-84272981D01*
X74394480Y-84341946D01*
X74345357Y-84411582D01*
X74340585Y-84416126D01*
X74333261Y-84426207D01*
X74273396Y-84480110D01*
X74217396Y-84533438D01*
X74206464Y-84540376D01*
X74192511Y-84552939D01*
X74127764Y-84590321D01*
X74068211Y-84628114D01*
X74050209Y-84635097D01*
X74028488Y-84647637D01*
X73963115Y-84668878D01*
X73903468Y-84692014D01*
X73878200Y-84696469D01*
X73848360Y-84706165D01*
X73786095Y-84712709D01*
X73729460Y-84722695D01*
X73697459Y-84722025D01*
X73660000Y-84725962D01*
X73603902Y-84720066D01*
X73552799Y-84718996D01*
X73515323Y-84710756D01*
X73471640Y-84706165D01*
X73423917Y-84690659D01*
X73380225Y-84681052D01*
X73339230Y-84663142D01*
X73291512Y-84647637D01*
X73253473Y-84625675D01*
X73218310Y-84610313D01*
X73176337Y-84581141D01*
X73127489Y-84552939D01*
X73099504Y-84527741D01*
X73073215Y-84509470D01*
X73033257Y-84468092D01*
X72986739Y-84426207D01*
X72968296Y-84400823D01*
X72950473Y-84382366D01*
X72915821Y-84328597D01*
X72875414Y-84272981D01*
X72865212Y-84250066D01*
X72854754Y-84233839D01*
X72828789Y-84168261D01*
X72798379Y-84099958D01*
X72794476Y-84081596D01*
X72789707Y-84069551D01*
X72775740Y-83993448D01*
X72759001Y-83914699D01*
X72759001Y-83902246D01*
X72757811Y-83895762D01*
X72759001Y-83810535D01*
X72759001Y-83725301D01*
X72760275Y-83719308D01*
X72760278Y-83719077D01*
X72797015Y-83546246D01*
X72797105Y-83546036D01*
X72798379Y-83540042D01*
X72833042Y-83462188D01*
X72866622Y-83383839D01*
X72870348Y-83378397D01*
X72875414Y-83367019D01*
X72922746Y-83301872D01*
X72966452Y-83238041D01*
X72975706Y-83228979D01*
X72986739Y-83213793D01*
X73042297Y-83163769D01*
X73092693Y-83114417D01*
X73108848Y-83103846D01*
X73127489Y-83087061D01*
X73187026Y-83052687D01*
X73240551Y-83017662D01*
X73264340Y-83008050D01*
X73291512Y-82992363D01*
X73351045Y-82973019D01*
X73404376Y-82951472D01*
X73435820Y-82945474D01*
X73471640Y-82933835D01*
X73527744Y-82927938D01*
X73577945Y-82918362D01*
X73616312Y-82918630D01*
X73660000Y-82914038D01*
X73709902Y-82919283D01*
G37*
G36*
X55726839Y-75359257D02*
G01*
X55754143Y-75377501D01*
X56125645Y-75749003D01*
X56143889Y-75776307D01*
X56152255Y-75818366D01*
X56184901Y-75880776D01*
X56250465Y-75916576D01*
X56272625Y-75920984D01*
X56272626Y-75920984D01*
X56292525Y-75924942D01*
X56309395Y-75936214D01*
X56319829Y-75943186D01*
X56691331Y-76314688D01*
X56709575Y-76341992D01*
X56717941Y-76384051D01*
X56750587Y-76446461D01*
X56816151Y-76482261D01*
X56858210Y-76490627D01*
X56885514Y-76508871D01*
X57257016Y-76880373D01*
X57263987Y-76890806D01*
X57263988Y-76890807D01*
X57275260Y-76907677D01*
X57279218Y-76927576D01*
X57283626Y-76949737D01*
X57316272Y-77012146D01*
X57381836Y-77047947D01*
X57409964Y-77053542D01*
X57423895Y-77056313D01*
X57430988Y-77061052D01*
X57451199Y-77074557D01*
X57822701Y-77446059D01*
X57829672Y-77456492D01*
X57829673Y-77456493D01*
X57840945Y-77473363D01*
X57849311Y-77515422D01*
X57881957Y-77577832D01*
X57947521Y-77613632D01*
X57969681Y-77618040D01*
X57969682Y-77618040D01*
X57989581Y-77621998D01*
X57989583Y-77621999D01*
X57989582Y-77621999D01*
X58016885Y-77640242D01*
X58388387Y-78011744D01*
X58395358Y-78022177D01*
X58395359Y-78022178D01*
X58406631Y-78039048D01*
X58410589Y-78058947D01*
X58414997Y-78081108D01*
X58447643Y-78143517D01*
X58513207Y-78179318D01*
X58555266Y-78187684D01*
X58582570Y-78205928D01*
X58954072Y-78577430D01*
X58961043Y-78587863D01*
X58961044Y-78587864D01*
X58972316Y-78604734D01*
X58980682Y-78646793D01*
X59013328Y-78709203D01*
X59078892Y-78745003D01*
X59101052Y-78749411D01*
X59101053Y-78749411D01*
X59120952Y-78753369D01*
X59120954Y-78753370D01*
X59120953Y-78753370D01*
X59148256Y-78771613D01*
X59519758Y-79143115D01*
X59526729Y-79153548D01*
X59526730Y-79153549D01*
X59538002Y-79170419D01*
X59541339Y-79187197D01*
X59546368Y-79212479D01*
X59579014Y-79274888D01*
X59644578Y-79310689D01*
X59686637Y-79319055D01*
X59713941Y-79337299D01*
X60085443Y-79708801D01*
X60092414Y-79719234D01*
X60092415Y-79719235D01*
X60103687Y-79736105D01*
X60112053Y-79778164D01*
X60144699Y-79840574D01*
X60210263Y-79876374D01*
X60232423Y-79880782D01*
X60232424Y-79880782D01*
X60252323Y-79884740D01*
X60252325Y-79884741D01*
X60252324Y-79884741D01*
X60279627Y-79902984D01*
X60651129Y-80274486D01*
X60658100Y-80284919D01*
X60658101Y-80284920D01*
X60669373Y-80301790D01*
X60677739Y-80343849D01*
X60710385Y-80406259D01*
X60775949Y-80442059D01*
X60818008Y-80450425D01*
X60845312Y-80468669D01*
X61216814Y-80840171D01*
X61223785Y-80850604D01*
X61223786Y-80850605D01*
X61235058Y-80867475D01*
X61239016Y-80887374D01*
X61243424Y-80909535D01*
X61276070Y-80971944D01*
X61341634Y-81007745D01*
X61369762Y-81013340D01*
X61383693Y-81016111D01*
X61387004Y-81018323D01*
X61410997Y-81034355D01*
X61782499Y-81405857D01*
X61789470Y-81416290D01*
X61789471Y-81416291D01*
X61800743Y-81433161D01*
X61804701Y-81453060D01*
X61800743Y-81472959D01*
X61782499Y-81500263D01*
X60739245Y-82543517D01*
X60711941Y-82561761D01*
X60692042Y-82565719D01*
X60672143Y-82561761D01*
X60655273Y-82550489D01*
X60655272Y-82550488D01*
X60644839Y-82543517D01*
X60273337Y-82172015D01*
X60255094Y-82144712D01*
X60255093Y-82144711D01*
X60251135Y-82124812D01*
X60251135Y-82124811D01*
X60246727Y-82102651D01*
X60214081Y-82040242D01*
X60148517Y-82004441D01*
X60106458Y-81996075D01*
X60079154Y-81977831D01*
X59707652Y-81606329D01*
X59689408Y-81579025D01*
X59681042Y-81536966D01*
X59648396Y-81474556D01*
X59582832Y-81438756D01*
X59540773Y-81430390D01*
X59513469Y-81412146D01*
X59141967Y-81040644D01*
X59127053Y-81018323D01*
X59123723Y-81013340D01*
X59119765Y-80993441D01*
X59115357Y-80971281D01*
X59082711Y-80908871D01*
X59017147Y-80873071D01*
X58994987Y-80868663D01*
X58994986Y-80868663D01*
X58975087Y-80864705D01*
X58958217Y-80853433D01*
X58958216Y-80853432D01*
X58947783Y-80846461D01*
X58576281Y-80474959D01*
X58569309Y-80464525D01*
X58558037Y-80447655D01*
X58554079Y-80427756D01*
X58554079Y-80427755D01*
X58549671Y-80405595D01*
X58517025Y-80343186D01*
X58451461Y-80307385D01*
X58409402Y-80299019D01*
X58382098Y-80280775D01*
X58010596Y-79909273D01*
X57994204Y-79884740D01*
X57992352Y-79881969D01*
X57988394Y-79862070D01*
X57983986Y-79839910D01*
X57951340Y-79777500D01*
X57885776Y-79741700D01*
X57863616Y-79737292D01*
X57863615Y-79737292D01*
X57843716Y-79733334D01*
X57826846Y-79722062D01*
X57826845Y-79722061D01*
X57816412Y-79715090D01*
X57444910Y-79343588D01*
X57436049Y-79330327D01*
X57426666Y-79316284D01*
X57422708Y-79296385D01*
X57422708Y-79296384D01*
X57418300Y-79274224D01*
X57385654Y-79211815D01*
X57320090Y-79176014D01*
X57278031Y-79167648D01*
X57250727Y-79149404D01*
X56879225Y-78777902D01*
X56862833Y-78753369D01*
X56860981Y-78750598D01*
X56857023Y-78730699D01*
X56852615Y-78708539D01*
X56819969Y-78646129D01*
X56754405Y-78610329D01*
X56732245Y-78605921D01*
X56732244Y-78605921D01*
X56712345Y-78601963D01*
X56695475Y-78590691D01*
X56695474Y-78590690D01*
X56685041Y-78583719D01*
X56313539Y-78212217D01*
X56304678Y-78198956D01*
X56295295Y-78184913D01*
X56291337Y-78165014D01*
X56291337Y-78165013D01*
X56286929Y-78142853D01*
X56254283Y-78080444D01*
X56188719Y-78044643D01*
X56146660Y-78036277D01*
X56119356Y-78018033D01*
X55747854Y-77646531D01*
X55731462Y-77621998D01*
X55729610Y-77619227D01*
X55725652Y-77599328D01*
X55721244Y-77577168D01*
X55688598Y-77514758D01*
X55623034Y-77478958D01*
X55580975Y-77470592D01*
X55553671Y-77452348D01*
X55182169Y-77080846D01*
X55165777Y-77056313D01*
X55163925Y-77053542D01*
X55159967Y-77033643D01*
X55155559Y-77011483D01*
X55122913Y-76949073D01*
X55057349Y-76913273D01*
X55035189Y-76908865D01*
X55035188Y-76908865D01*
X55015289Y-76904907D01*
X54998419Y-76893635D01*
X54998418Y-76893634D01*
X54987985Y-76886663D01*
X54616483Y-76515161D01*
X54607622Y-76501899D01*
X54598239Y-76487857D01*
X54594281Y-76467958D01*
X54598239Y-76448059D01*
X54609511Y-76431189D01*
X54609512Y-76431188D01*
X54616483Y-76420755D01*
X55659737Y-75377501D01*
X55687041Y-75359257D01*
X55706940Y-75355299D01*
X55726839Y-75359257D01*
G37*
G36*
X68772959Y-75359257D02*
G01*
X68800263Y-75377501D01*
X69843517Y-76420755D01*
X69850488Y-76431188D01*
X69850489Y-76431189D01*
X69861761Y-76448059D01*
X69865719Y-76467958D01*
X69861761Y-76487857D01*
X69852379Y-76501899D01*
X69843517Y-76515161D01*
X69472015Y-76886663D01*
X69461582Y-76893634D01*
X69461581Y-76893635D01*
X69444711Y-76904907D01*
X69424812Y-76908865D01*
X69424811Y-76908865D01*
X69402651Y-76913273D01*
X69340242Y-76945919D01*
X69304441Y-77011483D01*
X69300033Y-77033643D01*
X69296075Y-77053542D01*
X69294224Y-77056313D01*
X69277831Y-77080846D01*
X68906329Y-77452348D01*
X68879025Y-77470592D01*
X68836966Y-77478958D01*
X68774556Y-77511604D01*
X68738756Y-77577168D01*
X68734348Y-77599328D01*
X68730390Y-77619227D01*
X68728539Y-77621998D01*
X68712146Y-77646531D01*
X68340644Y-78018033D01*
X68313340Y-78036277D01*
X68271281Y-78044643D01*
X68208871Y-78077289D01*
X68173071Y-78142853D01*
X68168663Y-78165013D01*
X68168663Y-78165014D01*
X68164705Y-78184913D01*
X68155322Y-78198956D01*
X68146461Y-78212217D01*
X67774959Y-78583719D01*
X67764526Y-78590690D01*
X67764525Y-78590691D01*
X67747655Y-78601963D01*
X67727756Y-78605921D01*
X67727755Y-78605921D01*
X67705595Y-78610329D01*
X67643186Y-78642975D01*
X67607385Y-78708539D01*
X67602977Y-78730699D01*
X67599019Y-78750598D01*
X67597168Y-78753369D01*
X67580775Y-78777902D01*
X67209273Y-79149404D01*
X67181969Y-79167648D01*
X67139910Y-79176014D01*
X67077500Y-79208660D01*
X67041700Y-79274224D01*
X67037292Y-79296384D01*
X67037292Y-79296385D01*
X67033334Y-79316284D01*
X67023951Y-79330327D01*
X67015090Y-79343588D01*
X66643588Y-79715090D01*
X66633155Y-79722061D01*
X66633154Y-79722062D01*
X66616284Y-79733334D01*
X66596385Y-79737292D01*
X66596384Y-79737292D01*
X66574224Y-79741700D01*
X66511815Y-79774346D01*
X66476014Y-79839910D01*
X66471606Y-79862070D01*
X66467648Y-79881969D01*
X66465797Y-79884740D01*
X66449404Y-79909273D01*
X66077902Y-80280775D01*
X66050598Y-80299019D01*
X66008539Y-80307385D01*
X65946129Y-80340031D01*
X65910329Y-80405595D01*
X65905921Y-80427755D01*
X65905921Y-80427756D01*
X65901963Y-80447655D01*
X65890691Y-80464525D01*
X65883719Y-80474959D01*
X65512217Y-80846461D01*
X65501784Y-80853432D01*
X65501783Y-80853433D01*
X65484913Y-80864705D01*
X65465014Y-80868663D01*
X65465013Y-80868663D01*
X65442853Y-80873071D01*
X65380444Y-80905717D01*
X65344643Y-80971281D01*
X65340235Y-80993441D01*
X65336277Y-81013340D01*
X65332948Y-81018323D01*
X65318033Y-81040644D01*
X64946531Y-81412146D01*
X64919227Y-81430390D01*
X64877168Y-81438756D01*
X64814758Y-81471402D01*
X64778958Y-81536966D01*
X64770592Y-81579025D01*
X64752348Y-81606329D01*
X64380846Y-81977831D01*
X64353542Y-81996075D01*
X64311483Y-82004441D01*
X64249073Y-82037087D01*
X64213273Y-82102651D01*
X64208865Y-82124811D01*
X64208865Y-82124812D01*
X64204907Y-82144711D01*
X64204906Y-82144712D01*
X64186663Y-82172015D01*
X63815161Y-82543517D01*
X63804728Y-82550488D01*
X63804727Y-82550489D01*
X63787857Y-82561761D01*
X63767958Y-82565719D01*
X63748059Y-82561761D01*
X63720755Y-82543517D01*
X62677501Y-81500263D01*
X62659257Y-81472959D01*
X62655299Y-81453060D01*
X62659257Y-81433161D01*
X62670529Y-81416291D01*
X62670530Y-81416290D01*
X62677501Y-81405857D01*
X63049003Y-81034355D01*
X63072997Y-81018323D01*
X63076307Y-81016111D01*
X63090238Y-81013340D01*
X63118366Y-81007745D01*
X63180776Y-80975099D01*
X63216576Y-80909535D01*
X63220984Y-80887374D01*
X63224942Y-80867475D01*
X63236214Y-80850605D01*
X63236215Y-80850604D01*
X63243186Y-80840171D01*
X63614688Y-80468669D01*
X63641992Y-80450425D01*
X63684051Y-80442059D01*
X63746461Y-80409413D01*
X63782261Y-80343849D01*
X63790627Y-80301790D01*
X63801899Y-80284920D01*
X63801900Y-80284919D01*
X63808871Y-80274486D01*
X64180373Y-79902984D01*
X64207676Y-79884741D01*
X64207675Y-79884741D01*
X64207677Y-79884740D01*
X64227576Y-79880782D01*
X64227577Y-79880782D01*
X64249737Y-79876374D01*
X64312146Y-79843728D01*
X64347947Y-79778164D01*
X64356313Y-79736105D01*
X64367585Y-79719235D01*
X64367586Y-79719234D01*
X64374557Y-79708801D01*
X64746059Y-79337299D01*
X64773363Y-79319055D01*
X64815422Y-79310689D01*
X64877832Y-79278043D01*
X64913632Y-79212479D01*
X64918661Y-79187197D01*
X64921998Y-79170419D01*
X64933270Y-79153549D01*
X64933271Y-79153548D01*
X64940242Y-79143115D01*
X65311744Y-78771613D01*
X65339047Y-78753370D01*
X65339046Y-78753370D01*
X65339048Y-78753369D01*
X65358947Y-78749411D01*
X65358948Y-78749411D01*
X65381108Y-78745003D01*
X65443517Y-78712357D01*
X65479318Y-78646793D01*
X65487684Y-78604734D01*
X65498956Y-78587864D01*
X65498957Y-78587863D01*
X65505928Y-78577430D01*
X65877430Y-78205928D01*
X65904734Y-78187684D01*
X65946793Y-78179318D01*
X66009203Y-78146672D01*
X66045003Y-78081108D01*
X66049411Y-78058947D01*
X66053369Y-78039048D01*
X66064641Y-78022178D01*
X66064642Y-78022177D01*
X66071613Y-78011744D01*
X66443115Y-77640242D01*
X66470418Y-77621999D01*
X66470417Y-77621999D01*
X66470419Y-77621998D01*
X66490318Y-77618040D01*
X66490319Y-77618040D01*
X66512479Y-77613632D01*
X66574888Y-77580986D01*
X66610689Y-77515422D01*
X66619055Y-77473363D01*
X66630327Y-77456493D01*
X66630328Y-77456492D01*
X66637299Y-77446059D01*
X67008801Y-77074557D01*
X67029013Y-77061052D01*
X67036105Y-77056313D01*
X67050036Y-77053542D01*
X67078164Y-77047947D01*
X67140574Y-77015301D01*
X67176374Y-76949737D01*
X67180782Y-76927576D01*
X67184740Y-76907677D01*
X67196012Y-76890807D01*
X67196013Y-76890806D01*
X67202984Y-76880373D01*
X67574486Y-76508871D01*
X67601790Y-76490627D01*
X67643849Y-76482261D01*
X67706259Y-76449615D01*
X67742059Y-76384051D01*
X67750425Y-76341992D01*
X67768669Y-76314688D01*
X68140171Y-75943186D01*
X68150605Y-75936214D01*
X68167475Y-75924942D01*
X68187374Y-75920984D01*
X68187375Y-75920984D01*
X68209535Y-75916576D01*
X68271944Y-75883930D01*
X68307745Y-75818366D01*
X68316111Y-75776307D01*
X68334355Y-75749003D01*
X68705857Y-75377501D01*
X68733161Y-75359257D01*
X68753060Y-75355299D01*
X68772959Y-75359257D01*
G37*
G36*
X50849902Y-80379283D02*
G01*
X50894637Y-80379595D01*
X50938460Y-80388590D01*
X50988360Y-80393835D01*
X51030132Y-80407408D01*
X51067723Y-80415124D01*
X51114851Y-80434935D01*
X51168488Y-80452363D01*
X51201099Y-80471191D01*
X51230614Y-80483598D01*
X51278301Y-80515763D01*
X51332511Y-80547061D01*
X51355826Y-80568054D01*
X51377101Y-80582404D01*
X51422183Y-80627802D01*
X51473261Y-80673793D01*
X51488003Y-80694083D01*
X51501608Y-80707784D01*
X51540643Y-80766537D01*
X51584586Y-80827019D01*
X51592221Y-80844168D01*
X51599388Y-80854955D01*
X51628865Y-80926472D01*
X51661621Y-81000042D01*
X51664211Y-81012225D01*
X51666724Y-81018323D01*
X51683292Y-81101997D01*
X51700999Y-81185301D01*
X51700999Y-81374699D01*
X51698115Y-81388269D01*
X51698030Y-81394331D01*
X51679342Y-81476585D01*
X51661621Y-81559958D01*
X51659129Y-81565555D01*
X51659078Y-81565780D01*
X51587210Y-81727197D01*
X51587078Y-81727385D01*
X51584586Y-81732981D01*
X51534480Y-81801946D01*
X51485357Y-81871582D01*
X51480585Y-81876126D01*
X51473261Y-81886207D01*
X51413396Y-81940110D01*
X51357396Y-81993438D01*
X51346464Y-82000376D01*
X51332511Y-82012939D01*
X51267764Y-82050321D01*
X51208211Y-82088114D01*
X51190209Y-82095097D01*
X51168488Y-82107637D01*
X51103115Y-82128878D01*
X51043468Y-82152014D01*
X51018200Y-82156469D01*
X50988360Y-82166165D01*
X50926095Y-82172709D01*
X50869460Y-82182695D01*
X50837459Y-82182025D01*
X50800000Y-82185962D01*
X50743902Y-82180066D01*
X50692799Y-82178996D01*
X50655323Y-82170756D01*
X50611640Y-82166165D01*
X50563917Y-82150659D01*
X50520225Y-82141052D01*
X50479230Y-82123142D01*
X50431512Y-82107637D01*
X50393473Y-82085675D01*
X50358310Y-82070313D01*
X50316337Y-82041141D01*
X50267489Y-82012939D01*
X50239504Y-81987741D01*
X50213215Y-81969470D01*
X50173257Y-81928092D01*
X50126739Y-81886207D01*
X50108296Y-81860823D01*
X50090473Y-81842366D01*
X50055821Y-81788597D01*
X50015414Y-81732981D01*
X50005212Y-81710066D01*
X49994754Y-81693839D01*
X49968789Y-81628261D01*
X49938379Y-81559958D01*
X49934476Y-81541596D01*
X49929707Y-81529551D01*
X49915740Y-81453448D01*
X49899001Y-81374699D01*
X49899001Y-81362246D01*
X49897811Y-81355762D01*
X49899001Y-81270535D01*
X49899001Y-81185301D01*
X49900275Y-81179308D01*
X49900278Y-81179077D01*
X49937015Y-81006246D01*
X49937105Y-81006036D01*
X49938379Y-81000042D01*
X49973042Y-80922188D01*
X50006622Y-80843839D01*
X50010348Y-80838397D01*
X50015414Y-80827019D01*
X50062746Y-80761872D01*
X50106452Y-80698041D01*
X50115706Y-80688979D01*
X50126739Y-80673793D01*
X50182297Y-80623769D01*
X50232693Y-80574417D01*
X50248848Y-80563846D01*
X50267489Y-80547061D01*
X50327026Y-80512687D01*
X50380551Y-80477662D01*
X50404340Y-80468050D01*
X50431512Y-80452363D01*
X50491045Y-80433019D01*
X50544376Y-80411472D01*
X50575820Y-80405474D01*
X50611640Y-80393835D01*
X50667744Y-80387938D01*
X50717945Y-80378362D01*
X50756312Y-80378630D01*
X50800000Y-80374038D01*
X50849902Y-80379283D01*
G37*
G36*
X73709902Y-80379283D02*
G01*
X73754637Y-80379595D01*
X73798460Y-80388590D01*
X73848360Y-80393835D01*
X73890132Y-80407408D01*
X73927723Y-80415124D01*
X73974851Y-80434935D01*
X74028488Y-80452363D01*
X74061099Y-80471191D01*
X74090614Y-80483598D01*
X74138301Y-80515763D01*
X74192511Y-80547061D01*
X74215826Y-80568054D01*
X74237101Y-80582404D01*
X74282183Y-80627802D01*
X74333261Y-80673793D01*
X74348003Y-80694083D01*
X74361608Y-80707784D01*
X74400643Y-80766537D01*
X74444586Y-80827019D01*
X74452221Y-80844168D01*
X74459388Y-80854955D01*
X74488865Y-80926472D01*
X74521621Y-81000042D01*
X74524211Y-81012225D01*
X74526724Y-81018323D01*
X74543292Y-81101997D01*
X74560999Y-81185301D01*
X74560999Y-81374699D01*
X74558115Y-81388269D01*
X74558030Y-81394331D01*
X74539342Y-81476585D01*
X74521621Y-81559958D01*
X74519129Y-81565555D01*
X74519078Y-81565780D01*
X74447210Y-81727197D01*
X74447078Y-81727385D01*
X74444586Y-81732981D01*
X74394480Y-81801946D01*
X74345357Y-81871582D01*
X74340585Y-81876126D01*
X74333261Y-81886207D01*
X74273396Y-81940110D01*
X74217396Y-81993438D01*
X74206464Y-82000376D01*
X74192511Y-82012939D01*
X74127764Y-82050321D01*
X74068211Y-82088114D01*
X74050209Y-82095097D01*
X74028488Y-82107637D01*
X73963115Y-82128878D01*
X73903468Y-82152014D01*
X73878200Y-82156469D01*
X73848360Y-82166165D01*
X73786095Y-82172709D01*
X73729460Y-82182695D01*
X73697459Y-82182025D01*
X73660000Y-82185962D01*
X73603902Y-82180066D01*
X73552799Y-82178996D01*
X73515323Y-82170756D01*
X73471640Y-82166165D01*
X73423917Y-82150659D01*
X73380225Y-82141052D01*
X73339230Y-82123142D01*
X73291512Y-82107637D01*
X73253473Y-82085675D01*
X73218310Y-82070313D01*
X73176337Y-82041141D01*
X73127489Y-82012939D01*
X73099504Y-81987741D01*
X73073215Y-81969470D01*
X73033257Y-81928092D01*
X72986739Y-81886207D01*
X72968296Y-81860823D01*
X72950473Y-81842366D01*
X72915821Y-81788597D01*
X72875414Y-81732981D01*
X72865212Y-81710066D01*
X72854754Y-81693839D01*
X72828789Y-81628261D01*
X72798379Y-81559958D01*
X72794476Y-81541596D01*
X72789707Y-81529551D01*
X72775740Y-81453448D01*
X72759001Y-81374699D01*
X72759001Y-81362246D01*
X72757811Y-81355762D01*
X72759001Y-81270535D01*
X72759001Y-81185301D01*
X72760275Y-81179308D01*
X72760278Y-81179077D01*
X72797015Y-81006246D01*
X72797105Y-81006036D01*
X72798379Y-81000042D01*
X72833042Y-80922188D01*
X72866622Y-80843839D01*
X72870348Y-80838397D01*
X72875414Y-80827019D01*
X72922746Y-80761872D01*
X72966452Y-80698041D01*
X72975706Y-80688979D01*
X72986739Y-80673793D01*
X73042297Y-80623769D01*
X73092693Y-80574417D01*
X73108848Y-80563846D01*
X73127489Y-80547061D01*
X73187026Y-80512687D01*
X73240551Y-80477662D01*
X73264340Y-80468050D01*
X73291512Y-80452363D01*
X73351045Y-80433019D01*
X73404376Y-80411472D01*
X73435820Y-80405474D01*
X73471640Y-80393835D01*
X73527744Y-80387938D01*
X73577945Y-80378362D01*
X73616312Y-80378630D01*
X73660000Y-80374038D01*
X73709902Y-80379283D01*
G37*
G36*
X50849902Y-77839283D02*
G01*
X50894637Y-77839595D01*
X50938460Y-77848590D01*
X50988360Y-77853835D01*
X51030132Y-77867408D01*
X51067723Y-77875124D01*
X51114851Y-77894935D01*
X51168488Y-77912363D01*
X51201099Y-77931191D01*
X51230614Y-77943598D01*
X51278301Y-77975763D01*
X51332511Y-78007061D01*
X51355826Y-78028054D01*
X51377101Y-78042404D01*
X51422183Y-78087802D01*
X51473261Y-78133793D01*
X51488003Y-78154083D01*
X51501608Y-78167784D01*
X51540643Y-78226537D01*
X51584586Y-78287019D01*
X51592221Y-78304168D01*
X51599388Y-78314955D01*
X51628865Y-78386472D01*
X51661621Y-78460042D01*
X51664211Y-78472225D01*
X51666724Y-78478323D01*
X51683292Y-78561997D01*
X51700999Y-78645301D01*
X51700999Y-78834699D01*
X51698115Y-78848269D01*
X51698030Y-78854331D01*
X51679342Y-78936585D01*
X51661621Y-79019958D01*
X51659129Y-79025555D01*
X51659078Y-79025780D01*
X51587210Y-79187197D01*
X51587078Y-79187385D01*
X51584586Y-79192981D01*
X51534480Y-79261946D01*
X51485357Y-79331582D01*
X51480585Y-79336126D01*
X51473261Y-79346207D01*
X51413396Y-79400110D01*
X51357396Y-79453438D01*
X51346464Y-79460376D01*
X51332511Y-79472939D01*
X51267764Y-79510321D01*
X51208211Y-79548114D01*
X51190209Y-79555097D01*
X51168488Y-79567637D01*
X51103115Y-79588878D01*
X51043468Y-79612014D01*
X51018200Y-79616469D01*
X50988360Y-79626165D01*
X50926095Y-79632709D01*
X50869460Y-79642695D01*
X50837459Y-79642025D01*
X50800000Y-79645962D01*
X50743902Y-79640066D01*
X50692799Y-79638996D01*
X50655323Y-79630756D01*
X50611640Y-79626165D01*
X50563917Y-79610659D01*
X50520225Y-79601052D01*
X50479230Y-79583142D01*
X50431512Y-79567637D01*
X50393473Y-79545675D01*
X50358310Y-79530313D01*
X50316337Y-79501141D01*
X50267489Y-79472939D01*
X50239504Y-79447741D01*
X50213215Y-79429470D01*
X50173257Y-79388092D01*
X50126739Y-79346207D01*
X50108296Y-79320823D01*
X50090473Y-79302366D01*
X50055821Y-79248597D01*
X50015414Y-79192981D01*
X50005212Y-79170066D01*
X49994754Y-79153839D01*
X49968789Y-79088261D01*
X49938379Y-79019958D01*
X49934476Y-79001596D01*
X49929707Y-78989551D01*
X49915740Y-78913448D01*
X49899001Y-78834699D01*
X49899001Y-78822246D01*
X49897811Y-78815762D01*
X49899001Y-78730535D01*
X49899001Y-78645301D01*
X49900275Y-78639308D01*
X49900278Y-78639077D01*
X49937015Y-78466246D01*
X49937105Y-78466036D01*
X49938379Y-78460042D01*
X49973042Y-78382188D01*
X50006622Y-78303839D01*
X50010348Y-78298397D01*
X50015414Y-78287019D01*
X50062746Y-78221872D01*
X50106452Y-78158041D01*
X50115706Y-78148979D01*
X50126739Y-78133793D01*
X50182297Y-78083769D01*
X50232693Y-78034417D01*
X50248848Y-78023846D01*
X50267489Y-78007061D01*
X50327026Y-77972687D01*
X50380551Y-77937662D01*
X50404340Y-77928050D01*
X50431512Y-77912363D01*
X50491045Y-77893019D01*
X50544376Y-77871472D01*
X50575820Y-77865474D01*
X50611640Y-77853835D01*
X50667744Y-77847938D01*
X50717945Y-77838362D01*
X50756312Y-77838630D01*
X50800000Y-77834038D01*
X50849902Y-77839283D01*
G37*
G36*
X73709902Y-77839283D02*
G01*
X73754637Y-77839595D01*
X73798460Y-77848590D01*
X73848360Y-77853835D01*
X73890132Y-77867408D01*
X73927723Y-77875124D01*
X73974851Y-77894935D01*
X74028488Y-77912363D01*
X74061099Y-77931191D01*
X74090614Y-77943598D01*
X74138301Y-77975763D01*
X74192511Y-78007061D01*
X74215826Y-78028054D01*
X74237101Y-78042404D01*
X74282183Y-78087802D01*
X74333261Y-78133793D01*
X74348003Y-78154083D01*
X74361608Y-78167784D01*
X74400643Y-78226537D01*
X74444586Y-78287019D01*
X74452221Y-78304168D01*
X74459388Y-78314955D01*
X74488865Y-78386472D01*
X74521621Y-78460042D01*
X74524211Y-78472225D01*
X74526724Y-78478323D01*
X74543292Y-78561997D01*
X74560999Y-78645301D01*
X74560999Y-78834699D01*
X74558115Y-78848269D01*
X74558030Y-78854331D01*
X74539342Y-78936585D01*
X74521621Y-79019958D01*
X74519129Y-79025555D01*
X74519078Y-79025780D01*
X74447210Y-79187197D01*
X74447078Y-79187385D01*
X74444586Y-79192981D01*
X74394480Y-79261946D01*
X74345357Y-79331582D01*
X74340585Y-79336126D01*
X74333261Y-79346207D01*
X74273396Y-79400110D01*
X74217396Y-79453438D01*
X74206464Y-79460376D01*
X74192511Y-79472939D01*
X74127764Y-79510321D01*
X74068211Y-79548114D01*
X74050209Y-79555097D01*
X74028488Y-79567637D01*
X73963115Y-79588878D01*
X73903468Y-79612014D01*
X73878200Y-79616469D01*
X73848360Y-79626165D01*
X73786095Y-79632709D01*
X73729460Y-79642695D01*
X73697459Y-79642025D01*
X73660000Y-79645962D01*
X73603902Y-79640066D01*
X73552799Y-79638996D01*
X73515323Y-79630756D01*
X73471640Y-79626165D01*
X73423917Y-79610659D01*
X73380225Y-79601052D01*
X73339230Y-79583142D01*
X73291512Y-79567637D01*
X73253473Y-79545675D01*
X73218310Y-79530313D01*
X73176337Y-79501141D01*
X73127489Y-79472939D01*
X73099504Y-79447741D01*
X73073215Y-79429470D01*
X73033257Y-79388092D01*
X72986739Y-79346207D01*
X72968296Y-79320823D01*
X72950473Y-79302366D01*
X72915821Y-79248597D01*
X72875414Y-79192981D01*
X72865212Y-79170066D01*
X72854754Y-79153839D01*
X72828789Y-79088261D01*
X72798379Y-79019958D01*
X72794476Y-79001596D01*
X72789707Y-78989551D01*
X72775740Y-78913448D01*
X72759001Y-78834699D01*
X72759001Y-78822246D01*
X72757811Y-78815762D01*
X72759001Y-78730535D01*
X72759001Y-78645301D01*
X72760275Y-78639308D01*
X72760278Y-78639077D01*
X72797015Y-78466246D01*
X72797105Y-78466036D01*
X72798379Y-78460042D01*
X72833042Y-78382188D01*
X72866622Y-78303839D01*
X72870348Y-78298397D01*
X72875414Y-78287019D01*
X72922746Y-78221872D01*
X72966452Y-78158041D01*
X72975706Y-78148979D01*
X72986739Y-78133793D01*
X73042297Y-78083769D01*
X73092693Y-78034417D01*
X73108848Y-78023846D01*
X73127489Y-78007061D01*
X73187026Y-77972687D01*
X73240551Y-77937662D01*
X73264340Y-77928050D01*
X73291512Y-77912363D01*
X73351045Y-77893019D01*
X73404376Y-77871472D01*
X73435820Y-77865474D01*
X73471640Y-77853835D01*
X73527744Y-77847938D01*
X73577945Y-77838362D01*
X73616312Y-77838630D01*
X73660000Y-77834038D01*
X73709902Y-77839283D01*
G37*
G36*
X50849902Y-75299283D02*
G01*
X50894637Y-75299595D01*
X50938460Y-75308590D01*
X50988360Y-75313835D01*
X51030132Y-75327408D01*
X51067723Y-75335124D01*
X51114851Y-75354935D01*
X51168488Y-75372363D01*
X51201099Y-75391191D01*
X51230614Y-75403598D01*
X51278301Y-75435763D01*
X51332511Y-75467061D01*
X51355826Y-75488054D01*
X51377101Y-75502404D01*
X51422183Y-75547802D01*
X51473261Y-75593793D01*
X51488003Y-75614083D01*
X51501608Y-75627784D01*
X51540643Y-75686537D01*
X51584586Y-75747019D01*
X51592221Y-75764168D01*
X51599388Y-75774955D01*
X51628865Y-75846472D01*
X51661621Y-75920042D01*
X51664211Y-75932225D01*
X51666724Y-75938323D01*
X51683292Y-76021997D01*
X51700999Y-76105301D01*
X51700999Y-76294699D01*
X51698115Y-76308269D01*
X51698030Y-76314331D01*
X51679342Y-76396585D01*
X51661621Y-76479958D01*
X51659129Y-76485555D01*
X51659078Y-76485780D01*
X51587210Y-76647197D01*
X51587078Y-76647385D01*
X51584586Y-76652981D01*
X51534480Y-76721946D01*
X51485357Y-76791582D01*
X51480585Y-76796126D01*
X51473261Y-76806207D01*
X51413396Y-76860110D01*
X51357396Y-76913438D01*
X51346464Y-76920376D01*
X51332511Y-76932939D01*
X51267764Y-76970321D01*
X51208211Y-77008114D01*
X51190209Y-77015097D01*
X51168488Y-77027637D01*
X51103115Y-77048878D01*
X51043468Y-77072014D01*
X51018200Y-77076469D01*
X50988360Y-77086165D01*
X50926095Y-77092709D01*
X50869460Y-77102695D01*
X50837459Y-77102025D01*
X50800000Y-77105962D01*
X50743902Y-77100066D01*
X50692799Y-77098996D01*
X50655323Y-77090756D01*
X50611640Y-77086165D01*
X50563917Y-77070659D01*
X50520225Y-77061052D01*
X50479230Y-77043142D01*
X50431512Y-77027637D01*
X50393473Y-77005675D01*
X50358310Y-76990313D01*
X50316337Y-76961141D01*
X50267489Y-76932939D01*
X50239504Y-76907741D01*
X50213215Y-76889470D01*
X50173257Y-76848092D01*
X50126739Y-76806207D01*
X50108296Y-76780823D01*
X50090473Y-76762366D01*
X50055821Y-76708597D01*
X50015414Y-76652981D01*
X50005212Y-76630066D01*
X49994754Y-76613839D01*
X49968789Y-76548261D01*
X49938379Y-76479958D01*
X49934476Y-76461596D01*
X49929707Y-76449551D01*
X49915740Y-76373448D01*
X49899001Y-76294699D01*
X49899001Y-76282246D01*
X49897811Y-76275762D01*
X49899001Y-76190535D01*
X49899001Y-76105301D01*
X49900275Y-76099308D01*
X49900278Y-76099077D01*
X49937015Y-75926246D01*
X49937105Y-75926036D01*
X49938379Y-75920042D01*
X49973042Y-75842188D01*
X50006622Y-75763839D01*
X50010348Y-75758397D01*
X50015414Y-75747019D01*
X50062746Y-75681872D01*
X50106452Y-75618041D01*
X50115706Y-75608979D01*
X50126739Y-75593793D01*
X50182297Y-75543769D01*
X50232693Y-75494417D01*
X50248848Y-75483846D01*
X50267489Y-75467061D01*
X50327026Y-75432687D01*
X50380551Y-75397662D01*
X50404340Y-75388050D01*
X50431512Y-75372363D01*
X50491045Y-75353019D01*
X50544376Y-75331472D01*
X50575820Y-75325474D01*
X50611640Y-75313835D01*
X50667744Y-75307938D01*
X50717945Y-75298362D01*
X50756312Y-75298630D01*
X50800000Y-75294038D01*
X50849902Y-75299283D01*
G37*
G36*
X73709902Y-75299283D02*
G01*
X73754637Y-75299595D01*
X73798460Y-75308590D01*
X73848360Y-75313835D01*
X73890132Y-75327408D01*
X73927723Y-75335124D01*
X73974851Y-75354935D01*
X74028488Y-75372363D01*
X74061099Y-75391191D01*
X74090614Y-75403598D01*
X74138301Y-75435763D01*
X74192511Y-75467061D01*
X74215826Y-75488054D01*
X74237101Y-75502404D01*
X74282183Y-75547802D01*
X74333261Y-75593793D01*
X74348003Y-75614083D01*
X74361608Y-75627784D01*
X74400643Y-75686537D01*
X74444586Y-75747019D01*
X74452221Y-75764168D01*
X74459388Y-75774955D01*
X74488865Y-75846472D01*
X74521621Y-75920042D01*
X74524211Y-75932225D01*
X74526724Y-75938323D01*
X74543292Y-76021997D01*
X74560999Y-76105301D01*
X74560999Y-76294699D01*
X74558115Y-76308269D01*
X74558030Y-76314331D01*
X74539342Y-76396585D01*
X74521621Y-76479958D01*
X74519129Y-76485555D01*
X74519078Y-76485780D01*
X74447210Y-76647197D01*
X74447078Y-76647385D01*
X74444586Y-76652981D01*
X74394480Y-76721946D01*
X74345357Y-76791582D01*
X74340585Y-76796126D01*
X74333261Y-76806207D01*
X74273396Y-76860110D01*
X74217396Y-76913438D01*
X74206464Y-76920376D01*
X74192511Y-76932939D01*
X74127764Y-76970321D01*
X74068211Y-77008114D01*
X74050209Y-77015097D01*
X74028488Y-77027637D01*
X73963115Y-77048878D01*
X73903468Y-77072014D01*
X73878200Y-77076469D01*
X73848360Y-77086165D01*
X73786095Y-77092709D01*
X73729460Y-77102695D01*
X73697459Y-77102025D01*
X73660000Y-77105962D01*
X73603902Y-77100066D01*
X73552799Y-77098996D01*
X73515323Y-77090756D01*
X73471640Y-77086165D01*
X73423917Y-77070659D01*
X73380225Y-77061052D01*
X73339230Y-77043142D01*
X73291512Y-77027637D01*
X73253473Y-77005675D01*
X73218310Y-76990313D01*
X73176337Y-76961141D01*
X73127489Y-76932939D01*
X73099504Y-76907741D01*
X73073215Y-76889470D01*
X73033257Y-76848092D01*
X72986739Y-76806207D01*
X72968296Y-76780823D01*
X72950473Y-76762366D01*
X72915821Y-76708597D01*
X72875414Y-76652981D01*
X72865212Y-76630066D01*
X72854754Y-76613839D01*
X72828789Y-76548261D01*
X72798379Y-76479958D01*
X72794476Y-76461596D01*
X72789707Y-76449551D01*
X72775740Y-76373448D01*
X72759001Y-76294699D01*
X72759001Y-76282246D01*
X72757811Y-76275762D01*
X72759001Y-76190535D01*
X72759001Y-76105301D01*
X72760275Y-76099308D01*
X72760278Y-76099077D01*
X72797015Y-75926246D01*
X72797105Y-75926036D01*
X72798379Y-75920042D01*
X72833042Y-75842188D01*
X72866622Y-75763839D01*
X72870348Y-75758397D01*
X72875414Y-75747019D01*
X72922746Y-75681872D01*
X72966452Y-75618041D01*
X72975706Y-75608979D01*
X72986739Y-75593793D01*
X73042297Y-75543769D01*
X73092693Y-75494417D01*
X73108848Y-75483846D01*
X73127489Y-75467061D01*
X73187026Y-75432687D01*
X73240551Y-75397662D01*
X73264340Y-75388050D01*
X73291512Y-75372363D01*
X73351045Y-75353019D01*
X73404376Y-75331472D01*
X73435820Y-75325474D01*
X73471640Y-75313835D01*
X73527744Y-75307938D01*
X73577945Y-75298362D01*
X73616312Y-75298630D01*
X73660000Y-75294038D01*
X73709902Y-75299283D01*
G37*
G36*
X73709902Y-72759283D02*
G01*
X73754637Y-72759595D01*
X73798460Y-72768590D01*
X73848360Y-72773835D01*
X73890132Y-72787408D01*
X73927723Y-72795124D01*
X73974851Y-72814935D01*
X74028488Y-72832363D01*
X74061099Y-72851191D01*
X74090614Y-72863598D01*
X74138301Y-72895763D01*
X74192511Y-72927061D01*
X74215826Y-72948054D01*
X74237101Y-72962404D01*
X74282183Y-73007802D01*
X74333261Y-73053793D01*
X74348003Y-73074083D01*
X74361608Y-73087784D01*
X74400643Y-73146537D01*
X74444586Y-73207019D01*
X74452221Y-73224168D01*
X74459388Y-73234955D01*
X74488865Y-73306472D01*
X74521621Y-73380042D01*
X74524211Y-73392225D01*
X74526724Y-73398323D01*
X74543292Y-73481997D01*
X74560999Y-73565301D01*
X74560999Y-73754699D01*
X74558115Y-73768269D01*
X74558030Y-73774331D01*
X74539342Y-73856585D01*
X74521621Y-73939958D01*
X74519129Y-73945555D01*
X74519078Y-73945780D01*
X74447210Y-74107197D01*
X74447078Y-74107385D01*
X74444586Y-74112981D01*
X74394480Y-74181946D01*
X74345357Y-74251582D01*
X74340585Y-74256126D01*
X74333261Y-74266207D01*
X74273396Y-74320110D01*
X74217396Y-74373438D01*
X74206464Y-74380376D01*
X74192511Y-74392939D01*
X74127764Y-74430321D01*
X74068211Y-74468114D01*
X74050209Y-74475097D01*
X74028488Y-74487637D01*
X73963115Y-74508878D01*
X73903468Y-74532014D01*
X73878200Y-74536469D01*
X73848360Y-74546165D01*
X73786095Y-74552709D01*
X73729460Y-74562695D01*
X73697459Y-74562025D01*
X73660000Y-74565962D01*
X73603902Y-74560066D01*
X73552799Y-74558996D01*
X73515323Y-74550756D01*
X73471640Y-74546165D01*
X73423917Y-74530659D01*
X73380225Y-74521052D01*
X73339230Y-74503142D01*
X73291512Y-74487637D01*
X73253473Y-74465675D01*
X73218310Y-74450313D01*
X73176337Y-74421141D01*
X73127489Y-74392939D01*
X73099504Y-74367741D01*
X73073215Y-74349470D01*
X73033257Y-74308092D01*
X72986739Y-74266207D01*
X72968296Y-74240823D01*
X72950473Y-74222366D01*
X72915821Y-74168597D01*
X72875414Y-74112981D01*
X72865212Y-74090066D01*
X72854754Y-74073839D01*
X72828789Y-74008261D01*
X72798379Y-73939958D01*
X72794476Y-73921596D01*
X72789707Y-73909551D01*
X72775740Y-73833448D01*
X72759001Y-73754699D01*
X72759001Y-73742246D01*
X72757811Y-73735762D01*
X72759001Y-73650535D01*
X72759001Y-73565301D01*
X72760275Y-73559308D01*
X72760278Y-73559077D01*
X72797015Y-73386246D01*
X72797105Y-73386036D01*
X72798379Y-73380042D01*
X72833042Y-73302188D01*
X72866622Y-73223839D01*
X72870348Y-73218397D01*
X72875414Y-73207019D01*
X72922746Y-73141872D01*
X72966452Y-73078041D01*
X72975706Y-73068979D01*
X72986739Y-73053793D01*
X73042297Y-73003769D01*
X73092693Y-72954417D01*
X73108848Y-72943846D01*
X73127489Y-72927061D01*
X73187026Y-72892687D01*
X73240551Y-72857662D01*
X73264340Y-72848050D01*
X73291512Y-72832363D01*
X73351045Y-72813019D01*
X73404376Y-72791472D01*
X73435820Y-72785474D01*
X73471640Y-72773835D01*
X73527744Y-72767938D01*
X73577945Y-72758362D01*
X73616312Y-72758630D01*
X73660000Y-72754038D01*
X73709902Y-72759283D01*
G37*
G36*
X50849902Y-72759283D02*
G01*
X50894637Y-72759595D01*
X50938460Y-72768590D01*
X50988360Y-72773835D01*
X51030132Y-72787408D01*
X51067723Y-72795124D01*
X51114851Y-72814935D01*
X51168488Y-72832363D01*
X51201099Y-72851191D01*
X51230614Y-72863598D01*
X51278301Y-72895763D01*
X51332511Y-72927061D01*
X51355826Y-72948054D01*
X51377101Y-72962404D01*
X51422183Y-73007802D01*
X51473261Y-73053793D01*
X51488003Y-73074083D01*
X51501608Y-73087784D01*
X51540643Y-73146537D01*
X51584586Y-73207019D01*
X51592221Y-73224168D01*
X51599388Y-73234955D01*
X51628865Y-73306472D01*
X51661621Y-73380042D01*
X51664211Y-73392225D01*
X51666724Y-73398323D01*
X51683292Y-73481997D01*
X51700999Y-73565301D01*
X51700999Y-73754699D01*
X51698115Y-73768269D01*
X51698030Y-73774331D01*
X51679342Y-73856585D01*
X51661621Y-73939958D01*
X51659129Y-73945555D01*
X51659078Y-73945780D01*
X51587210Y-74107197D01*
X51587078Y-74107385D01*
X51584586Y-74112981D01*
X51534480Y-74181946D01*
X51485357Y-74251582D01*
X51480585Y-74256126D01*
X51473261Y-74266207D01*
X51413396Y-74320110D01*
X51357396Y-74373438D01*
X51346464Y-74380376D01*
X51332511Y-74392939D01*
X51267764Y-74430321D01*
X51208211Y-74468114D01*
X51190209Y-74475097D01*
X51168488Y-74487637D01*
X51103115Y-74508878D01*
X51043468Y-74532014D01*
X51018200Y-74536469D01*
X50988360Y-74546165D01*
X50926095Y-74552709D01*
X50869460Y-74562695D01*
X50837459Y-74562025D01*
X50800000Y-74565962D01*
X50743902Y-74560066D01*
X50692799Y-74558996D01*
X50655323Y-74550756D01*
X50611640Y-74546165D01*
X50563917Y-74530659D01*
X50520225Y-74521052D01*
X50479230Y-74503142D01*
X50431512Y-74487637D01*
X50393473Y-74465675D01*
X50358310Y-74450313D01*
X50316337Y-74421141D01*
X50267489Y-74392939D01*
X50239504Y-74367741D01*
X50213215Y-74349470D01*
X50173257Y-74308092D01*
X50126739Y-74266207D01*
X50108296Y-74240823D01*
X50090473Y-74222366D01*
X50055821Y-74168597D01*
X50015414Y-74112981D01*
X50005212Y-74090066D01*
X49994754Y-74073839D01*
X49968789Y-74008261D01*
X49938379Y-73939958D01*
X49934476Y-73921596D01*
X49929707Y-73909551D01*
X49915740Y-73833448D01*
X49899001Y-73754699D01*
X49899001Y-73742246D01*
X49897811Y-73735762D01*
X49899001Y-73650535D01*
X49899001Y-73565301D01*
X49900275Y-73559308D01*
X49900278Y-73559077D01*
X49937015Y-73386246D01*
X49937105Y-73386036D01*
X49938379Y-73380042D01*
X49973042Y-73302188D01*
X50006622Y-73223839D01*
X50010348Y-73218397D01*
X50015414Y-73207019D01*
X50062746Y-73141872D01*
X50106452Y-73078041D01*
X50115706Y-73068979D01*
X50126739Y-73053793D01*
X50182297Y-73003769D01*
X50232693Y-72954417D01*
X50248848Y-72943846D01*
X50267489Y-72927061D01*
X50327026Y-72892687D01*
X50380551Y-72857662D01*
X50404340Y-72848050D01*
X50431512Y-72832363D01*
X50491045Y-72813019D01*
X50544376Y-72791472D01*
X50575820Y-72785474D01*
X50611640Y-72773835D01*
X50667744Y-72767938D01*
X50717945Y-72758362D01*
X50756312Y-72758630D01*
X50800000Y-72754038D01*
X50849902Y-72759283D01*
G37*
G36*
X63787857Y-67298239D02*
G01*
X63815161Y-67316483D01*
X64186663Y-67687985D01*
X64193634Y-67698418D01*
X64193635Y-67698419D01*
X64204907Y-67715289D01*
X64208865Y-67735188D01*
X64213273Y-67757349D01*
X64245919Y-67819758D01*
X64311483Y-67855559D01*
X64353542Y-67863925D01*
X64369245Y-67874417D01*
X64380846Y-67882169D01*
X64752348Y-68253671D01*
X64770592Y-68280975D01*
X64778958Y-68323034D01*
X64811604Y-68385444D01*
X64877168Y-68421244D01*
X64919227Y-68429610D01*
X64946531Y-68447854D01*
X65318033Y-68819356D01*
X65325004Y-68829789D01*
X65325005Y-68829790D01*
X65336277Y-68846660D01*
X65344643Y-68888719D01*
X65377289Y-68951129D01*
X65442853Y-68986929D01*
X65465013Y-68991337D01*
X65465014Y-68991337D01*
X65484913Y-68995295D01*
X65484915Y-68995296D01*
X65484914Y-68995296D01*
X65512217Y-69013539D01*
X65883719Y-69385041D01*
X65890690Y-69395474D01*
X65890691Y-69395475D01*
X65901963Y-69412345D01*
X65905921Y-69432244D01*
X65910329Y-69454405D01*
X65942975Y-69516814D01*
X66008539Y-69552615D01*
X66050598Y-69560981D01*
X66077902Y-69579225D01*
X66449404Y-69950727D01*
X66456375Y-69961160D01*
X66456376Y-69961161D01*
X66467648Y-69978031D01*
X66476014Y-70020090D01*
X66508660Y-70082500D01*
X66574224Y-70118300D01*
X66596384Y-70122708D01*
X66596385Y-70122708D01*
X66616284Y-70126666D01*
X66616286Y-70126667D01*
X66616285Y-70126667D01*
X66643588Y-70144910D01*
X67015090Y-70516412D01*
X67022061Y-70526845D01*
X67022062Y-70526846D01*
X67033334Y-70543716D01*
X67037292Y-70563615D01*
X67041700Y-70585776D01*
X67074346Y-70648185D01*
X67139910Y-70683986D01*
X67181969Y-70692352D01*
X67209273Y-70710596D01*
X67580775Y-71082098D01*
X67587746Y-71092531D01*
X67587747Y-71092532D01*
X67599019Y-71109402D01*
X67607385Y-71151461D01*
X67640031Y-71213871D01*
X67705595Y-71249671D01*
X67727755Y-71254079D01*
X67727756Y-71254079D01*
X67747655Y-71258037D01*
X67747657Y-71258038D01*
X67747656Y-71258038D01*
X67774959Y-71276281D01*
X68146461Y-71647783D01*
X68153432Y-71658216D01*
X68153433Y-71658217D01*
X68164705Y-71675087D01*
X68168663Y-71694986D01*
X68173071Y-71717147D01*
X68205717Y-71779556D01*
X68271281Y-71815357D01*
X68299409Y-71820952D01*
X68313340Y-71823723D01*
X68327880Y-71833438D01*
X68340644Y-71841967D01*
X68712146Y-72213469D01*
X68719117Y-72223902D01*
X68719118Y-72223903D01*
X68730390Y-72240773D01*
X68738756Y-72282832D01*
X68771402Y-72345242D01*
X68836966Y-72381042D01*
X68879025Y-72389408D01*
X68906329Y-72407652D01*
X69277831Y-72779154D01*
X69284802Y-72789587D01*
X69284803Y-72789588D01*
X69296075Y-72806458D01*
X69304441Y-72848517D01*
X69337087Y-72910927D01*
X69402651Y-72946727D01*
X69424811Y-72951135D01*
X69424812Y-72951135D01*
X69444711Y-72955093D01*
X69461581Y-72966365D01*
X69472015Y-72973337D01*
X69843517Y-73344839D01*
X69850488Y-73355272D01*
X69850489Y-73355273D01*
X69859910Y-73369373D01*
X69861761Y-73372143D01*
X69865719Y-73392042D01*
X69861761Y-73411941D01*
X69843517Y-73439245D01*
X68800263Y-74482499D01*
X68772959Y-74500743D01*
X68753060Y-74504701D01*
X68733161Y-74500743D01*
X68716291Y-74489471D01*
X68716290Y-74489470D01*
X68705857Y-74482499D01*
X68334355Y-74110997D01*
X68316111Y-74083693D01*
X68307745Y-74041634D01*
X68275099Y-73979224D01*
X68209535Y-73943424D01*
X68187375Y-73939016D01*
X68187374Y-73939016D01*
X68167475Y-73935058D01*
X68150605Y-73923786D01*
X68150604Y-73923785D01*
X68140171Y-73916814D01*
X67768669Y-73545312D01*
X67750425Y-73518008D01*
X67742059Y-73475949D01*
X67709413Y-73413539D01*
X67643849Y-73377739D01*
X67601790Y-73369373D01*
X67574486Y-73351129D01*
X67202984Y-72979627D01*
X67196012Y-72969193D01*
X67184740Y-72952323D01*
X67180782Y-72932424D01*
X67180782Y-72932423D01*
X67176374Y-72910263D01*
X67143728Y-72847854D01*
X67078164Y-72812053D01*
X67036105Y-72803687D01*
X67019235Y-72792415D01*
X67019234Y-72792414D01*
X67008801Y-72785443D01*
X66637299Y-72413941D01*
X66620907Y-72389408D01*
X66619055Y-72386637D01*
X66615097Y-72366738D01*
X66610689Y-72344578D01*
X66578043Y-72282168D01*
X66512479Y-72246368D01*
X66490319Y-72241960D01*
X66490318Y-72241960D01*
X66470419Y-72238002D01*
X66453549Y-72226730D01*
X66453548Y-72226729D01*
X66443115Y-72219758D01*
X66071613Y-71848256D01*
X66061712Y-71833438D01*
X66053369Y-71820952D01*
X66049411Y-71801053D01*
X66049411Y-71801052D01*
X66045003Y-71778892D01*
X66012357Y-71716483D01*
X65946793Y-71680682D01*
X65904734Y-71672316D01*
X65877430Y-71654072D01*
X65505928Y-71282570D01*
X65489536Y-71258037D01*
X65487684Y-71255266D01*
X65483726Y-71235367D01*
X65479318Y-71213207D01*
X65446672Y-71150797D01*
X65381108Y-71114997D01*
X65358948Y-71110589D01*
X65358947Y-71110589D01*
X65339048Y-71106631D01*
X65322178Y-71095359D01*
X65322177Y-71095358D01*
X65311744Y-71088387D01*
X64940242Y-70716885D01*
X64925589Y-70694955D01*
X64921998Y-70689581D01*
X64918040Y-70669682D01*
X64918040Y-70669681D01*
X64913632Y-70647521D01*
X64880986Y-70585112D01*
X64815422Y-70549311D01*
X64773363Y-70540945D01*
X64746059Y-70522701D01*
X64374557Y-70151199D01*
X64358165Y-70126666D01*
X64356313Y-70123895D01*
X64352355Y-70103996D01*
X64347947Y-70081836D01*
X64315301Y-70019426D01*
X64249737Y-69983626D01*
X64227577Y-69979218D01*
X64227576Y-69979218D01*
X64207677Y-69975260D01*
X64190807Y-69963988D01*
X64190806Y-69963987D01*
X64180373Y-69957016D01*
X63808871Y-69585514D01*
X63792479Y-69560981D01*
X63790627Y-69558210D01*
X63786669Y-69538311D01*
X63782261Y-69516151D01*
X63749615Y-69453741D01*
X63684051Y-69417941D01*
X63641992Y-69409575D01*
X63614688Y-69391331D01*
X63243186Y-69019829D01*
X63236214Y-69009395D01*
X63224942Y-68992525D01*
X63220984Y-68972626D01*
X63220984Y-68972625D01*
X63216576Y-68950465D01*
X63183930Y-68888056D01*
X63118366Y-68852255D01*
X63076307Y-68843889D01*
X63049003Y-68825645D01*
X62677501Y-68454143D01*
X62661109Y-68429610D01*
X62659257Y-68426839D01*
X62655299Y-68406940D01*
X62659257Y-68387041D01*
X62670529Y-68370171D01*
X62670530Y-68370170D01*
X62677501Y-68359737D01*
X63720755Y-67316483D01*
X63748059Y-67298239D01*
X63767958Y-67294281D01*
X63787857Y-67298239D01*
G37*
G36*
X60711941Y-67298239D02*
G01*
X60739245Y-67316483D01*
X61782499Y-68359737D01*
X61789470Y-68370170D01*
X61789471Y-68370171D01*
X61800743Y-68387041D01*
X61804701Y-68406940D01*
X61800743Y-68426839D01*
X61798892Y-68429610D01*
X61782499Y-68454143D01*
X61410997Y-68825645D01*
X61383693Y-68843889D01*
X61341634Y-68852255D01*
X61279224Y-68884901D01*
X61243424Y-68950465D01*
X61239016Y-68972625D01*
X61239016Y-68972626D01*
X61235058Y-68992525D01*
X61223786Y-69009395D01*
X61216814Y-69019829D01*
X60845312Y-69391331D01*
X60818008Y-69409575D01*
X60775949Y-69417941D01*
X60713539Y-69450587D01*
X60677739Y-69516151D01*
X60673331Y-69538311D01*
X60669373Y-69558210D01*
X60667522Y-69560981D01*
X60651129Y-69585514D01*
X60279627Y-69957016D01*
X60269194Y-69963987D01*
X60269193Y-69963988D01*
X60252323Y-69975260D01*
X60232424Y-69979218D01*
X60232423Y-69979218D01*
X60210263Y-69983626D01*
X60147854Y-70016272D01*
X60112053Y-70081836D01*
X60107645Y-70103996D01*
X60103687Y-70123895D01*
X60101836Y-70126666D01*
X60085443Y-70151199D01*
X59713941Y-70522701D01*
X59686637Y-70540945D01*
X59644578Y-70549311D01*
X59582168Y-70581957D01*
X59546368Y-70647521D01*
X59541960Y-70669681D01*
X59541960Y-70669682D01*
X59538002Y-70689581D01*
X59534411Y-70694955D01*
X59519758Y-70716885D01*
X59148256Y-71088387D01*
X59137823Y-71095358D01*
X59137822Y-71095359D01*
X59120952Y-71106631D01*
X59101053Y-71110589D01*
X59101052Y-71110589D01*
X59078892Y-71114997D01*
X59016483Y-71147643D01*
X58980682Y-71213207D01*
X58976274Y-71235367D01*
X58972316Y-71255266D01*
X58970465Y-71258037D01*
X58954072Y-71282570D01*
X58582570Y-71654072D01*
X58555266Y-71672316D01*
X58513207Y-71680682D01*
X58450797Y-71713328D01*
X58414997Y-71778892D01*
X58410589Y-71801052D01*
X58410589Y-71801053D01*
X58406631Y-71820952D01*
X58398288Y-71833438D01*
X58388387Y-71848256D01*
X58016885Y-72219758D01*
X58006452Y-72226729D01*
X58006451Y-72226730D01*
X57989581Y-72238002D01*
X57969682Y-72241960D01*
X57969681Y-72241960D01*
X57947521Y-72246368D01*
X57885112Y-72279014D01*
X57849311Y-72344578D01*
X57844903Y-72366738D01*
X57840945Y-72386637D01*
X57839094Y-72389408D01*
X57822701Y-72413941D01*
X57451199Y-72785443D01*
X57440766Y-72792414D01*
X57440765Y-72792415D01*
X57423895Y-72803687D01*
X57381836Y-72812053D01*
X57319426Y-72844699D01*
X57283626Y-72910263D01*
X57279218Y-72932423D01*
X57279218Y-72932424D01*
X57275260Y-72952323D01*
X57263988Y-72969193D01*
X57257016Y-72979627D01*
X56885514Y-73351129D01*
X56858210Y-73369373D01*
X56816151Y-73377739D01*
X56753741Y-73410385D01*
X56717941Y-73475949D01*
X56709575Y-73518008D01*
X56691331Y-73545312D01*
X56319829Y-73916814D01*
X56309396Y-73923785D01*
X56309395Y-73923786D01*
X56292525Y-73935058D01*
X56272626Y-73939016D01*
X56272625Y-73939016D01*
X56250465Y-73943424D01*
X56188056Y-73976070D01*
X56152255Y-74041634D01*
X56143889Y-74083693D01*
X56125645Y-74110997D01*
X55754143Y-74482499D01*
X55743710Y-74489470D01*
X55743709Y-74489471D01*
X55726839Y-74500743D01*
X55706940Y-74504701D01*
X55687041Y-74500743D01*
X55659737Y-74482499D01*
X54616483Y-73439245D01*
X54598239Y-73411941D01*
X54594281Y-73392042D01*
X54598239Y-73372143D01*
X54600090Y-73369373D01*
X54609511Y-73355273D01*
X54609512Y-73355272D01*
X54616483Y-73344839D01*
X54987985Y-72973337D01*
X54998419Y-72966365D01*
X55015289Y-72955093D01*
X55035188Y-72951135D01*
X55035189Y-72951135D01*
X55057349Y-72946727D01*
X55119758Y-72914081D01*
X55155559Y-72848517D01*
X55163925Y-72806458D01*
X55175197Y-72789588D01*
X55175198Y-72789587D01*
X55182169Y-72779154D01*
X55553671Y-72407652D01*
X55580975Y-72389408D01*
X55623034Y-72381042D01*
X55685444Y-72348396D01*
X55721244Y-72282832D01*
X55729610Y-72240773D01*
X55740882Y-72223903D01*
X55740883Y-72223902D01*
X55747854Y-72213469D01*
X56119356Y-71841967D01*
X56132121Y-71833438D01*
X56146660Y-71823723D01*
X56160591Y-71820952D01*
X56188719Y-71815357D01*
X56251129Y-71782711D01*
X56286929Y-71717147D01*
X56291337Y-71694986D01*
X56295295Y-71675087D01*
X56306567Y-71658217D01*
X56306568Y-71658216D01*
X56313539Y-71647783D01*
X56685041Y-71276281D01*
X56712344Y-71258038D01*
X56712343Y-71258038D01*
X56712345Y-71258037D01*
X56732244Y-71254079D01*
X56732245Y-71254079D01*
X56754405Y-71249671D01*
X56816814Y-71217025D01*
X56852615Y-71151461D01*
X56860981Y-71109402D01*
X56872253Y-71092532D01*
X56872254Y-71092531D01*
X56879225Y-71082098D01*
X57250727Y-70710596D01*
X57278031Y-70692352D01*
X57320090Y-70683986D01*
X57382500Y-70651340D01*
X57418300Y-70585776D01*
X57422708Y-70563615D01*
X57426666Y-70543716D01*
X57437938Y-70526846D01*
X57437939Y-70526845D01*
X57444910Y-70516412D01*
X57816412Y-70144910D01*
X57843715Y-70126667D01*
X57843714Y-70126667D01*
X57843716Y-70126666D01*
X57863615Y-70122708D01*
X57863616Y-70122708D01*
X57885776Y-70118300D01*
X57948185Y-70085654D01*
X57983986Y-70020090D01*
X57992352Y-69978031D01*
X58003624Y-69961161D01*
X58003625Y-69961160D01*
X58010596Y-69950727D01*
X58382098Y-69579225D01*
X58409402Y-69560981D01*
X58451461Y-69552615D01*
X58513871Y-69519969D01*
X58549671Y-69454405D01*
X58554079Y-69432244D01*
X58558037Y-69412345D01*
X58569309Y-69395475D01*
X58569310Y-69395474D01*
X58576281Y-69385041D01*
X58947783Y-69013539D01*
X58975086Y-68995296D01*
X58975085Y-68995296D01*
X58975087Y-68995295D01*
X58994986Y-68991337D01*
X58994987Y-68991337D01*
X59017147Y-68986929D01*
X59079556Y-68954283D01*
X59115357Y-68888719D01*
X59123723Y-68846660D01*
X59134995Y-68829790D01*
X59134996Y-68829789D01*
X59141967Y-68819356D01*
X59513469Y-68447854D01*
X59540773Y-68429610D01*
X59582832Y-68421244D01*
X59645242Y-68388598D01*
X59681042Y-68323034D01*
X59689408Y-68280975D01*
X59707652Y-68253671D01*
X60079154Y-67882169D01*
X60090756Y-67874417D01*
X60106458Y-67863925D01*
X60148517Y-67855559D01*
X60210927Y-67822913D01*
X60246727Y-67757349D01*
X60251135Y-67735188D01*
X60255093Y-67715289D01*
X60266365Y-67698419D01*
X60266366Y-67698418D01*
X60273337Y-67687985D01*
X60644839Y-67316483D01*
X60672143Y-67298239D01*
X60692042Y-67294281D01*
X60711941Y-67298239D01*
G37*
G36*
X73709902Y-70219283D02*
G01*
X73754637Y-70219595D01*
X73798460Y-70228590D01*
X73848360Y-70233835D01*
X73890132Y-70247408D01*
X73927723Y-70255124D01*
X73974851Y-70274935D01*
X74028488Y-70292363D01*
X74061099Y-70311191D01*
X74090614Y-70323598D01*
X74138301Y-70355763D01*
X74192511Y-70387061D01*
X74215826Y-70408054D01*
X74237101Y-70422404D01*
X74282183Y-70467802D01*
X74333261Y-70513793D01*
X74348003Y-70534083D01*
X74361608Y-70547784D01*
X74400643Y-70606537D01*
X74444586Y-70667019D01*
X74452221Y-70684168D01*
X74459388Y-70694955D01*
X74488865Y-70766472D01*
X74521621Y-70840042D01*
X74524211Y-70852225D01*
X74526724Y-70858323D01*
X74543292Y-70941997D01*
X74560999Y-71025301D01*
X74560999Y-71214699D01*
X74558115Y-71228269D01*
X74558030Y-71234331D01*
X74539342Y-71316585D01*
X74521621Y-71399958D01*
X74519129Y-71405555D01*
X74519078Y-71405780D01*
X74447210Y-71567197D01*
X74447078Y-71567385D01*
X74444586Y-71572981D01*
X74394480Y-71641946D01*
X74345357Y-71711582D01*
X74340585Y-71716126D01*
X74333261Y-71726207D01*
X74273396Y-71780110D01*
X74217396Y-71833438D01*
X74206464Y-71840376D01*
X74192511Y-71852939D01*
X74127764Y-71890321D01*
X74068211Y-71928114D01*
X74050209Y-71935097D01*
X74028488Y-71947637D01*
X73963115Y-71968878D01*
X73903468Y-71992014D01*
X73878200Y-71996469D01*
X73848360Y-72006165D01*
X73786095Y-72012709D01*
X73729460Y-72022695D01*
X73697459Y-72022025D01*
X73660000Y-72025962D01*
X73603902Y-72020066D01*
X73552799Y-72018996D01*
X73515323Y-72010756D01*
X73471640Y-72006165D01*
X73423917Y-71990659D01*
X73380225Y-71981052D01*
X73339230Y-71963142D01*
X73291512Y-71947637D01*
X73253473Y-71925675D01*
X73218310Y-71910313D01*
X73176337Y-71881141D01*
X73127489Y-71852939D01*
X73099504Y-71827741D01*
X73073215Y-71809470D01*
X73033257Y-71768092D01*
X72986739Y-71726207D01*
X72968296Y-71700823D01*
X72950473Y-71682366D01*
X72915821Y-71628597D01*
X72875414Y-71572981D01*
X72865212Y-71550066D01*
X72854754Y-71533839D01*
X72828789Y-71468261D01*
X72798379Y-71399958D01*
X72794476Y-71381596D01*
X72789707Y-71369551D01*
X72775740Y-71293448D01*
X72759001Y-71214699D01*
X72759001Y-71202246D01*
X72757811Y-71195762D01*
X72759001Y-71110535D01*
X72759001Y-71025301D01*
X72760275Y-71019308D01*
X72760278Y-71019077D01*
X72797015Y-70846246D01*
X72797105Y-70846036D01*
X72798379Y-70840042D01*
X72833042Y-70762188D01*
X72866622Y-70683839D01*
X72870348Y-70678397D01*
X72875414Y-70667019D01*
X72922746Y-70601872D01*
X72966452Y-70538041D01*
X72975706Y-70528979D01*
X72986739Y-70513793D01*
X73042297Y-70463769D01*
X73092693Y-70414417D01*
X73108848Y-70403846D01*
X73127489Y-70387061D01*
X73187026Y-70352687D01*
X73240551Y-70317662D01*
X73264340Y-70308050D01*
X73291512Y-70292363D01*
X73351045Y-70273019D01*
X73404376Y-70251472D01*
X73435820Y-70245474D01*
X73471640Y-70233835D01*
X73527744Y-70227938D01*
X73577945Y-70218362D01*
X73616312Y-70218630D01*
X73660000Y-70214038D01*
X73709902Y-70219283D01*
G37*
G36*
X50849902Y-70219283D02*
G01*
X50894637Y-70219595D01*
X50938460Y-70228590D01*
X50988360Y-70233835D01*
X51030132Y-70247408D01*
X51067723Y-70255124D01*
X51114851Y-70274935D01*
X51168488Y-70292363D01*
X51201099Y-70311191D01*
X51230614Y-70323598D01*
X51278301Y-70355763D01*
X51332511Y-70387061D01*
X51355826Y-70408054D01*
X51377101Y-70422404D01*
X51422183Y-70467802D01*
X51473261Y-70513793D01*
X51488003Y-70534083D01*
X51501608Y-70547784D01*
X51540643Y-70606537D01*
X51584586Y-70667019D01*
X51592221Y-70684168D01*
X51599388Y-70694955D01*
X51628865Y-70766472D01*
X51661621Y-70840042D01*
X51664211Y-70852225D01*
X51666724Y-70858323D01*
X51683292Y-70941997D01*
X51700999Y-71025301D01*
X51700999Y-71214699D01*
X51698115Y-71228269D01*
X51698030Y-71234331D01*
X51679342Y-71316585D01*
X51661621Y-71399958D01*
X51659129Y-71405555D01*
X51659078Y-71405780D01*
X51587210Y-71567197D01*
X51587078Y-71567385D01*
X51584586Y-71572981D01*
X51534480Y-71641946D01*
X51485357Y-71711582D01*
X51480585Y-71716126D01*
X51473261Y-71726207D01*
X51413396Y-71780110D01*
X51357396Y-71833438D01*
X51346464Y-71840376D01*
X51332511Y-71852939D01*
X51267764Y-71890321D01*
X51208211Y-71928114D01*
X51190209Y-71935097D01*
X51168488Y-71947637D01*
X51103115Y-71968878D01*
X51043468Y-71992014D01*
X51018200Y-71996469D01*
X50988360Y-72006165D01*
X50926095Y-72012709D01*
X50869460Y-72022695D01*
X50837459Y-72022025D01*
X50800000Y-72025962D01*
X50743902Y-72020066D01*
X50692799Y-72018996D01*
X50655323Y-72010756D01*
X50611640Y-72006165D01*
X50563917Y-71990659D01*
X50520225Y-71981052D01*
X50479230Y-71963142D01*
X50431512Y-71947637D01*
X50393473Y-71925675D01*
X50358310Y-71910313D01*
X50316337Y-71881141D01*
X50267489Y-71852939D01*
X50239504Y-71827741D01*
X50213215Y-71809470D01*
X50173257Y-71768092D01*
X50126739Y-71726207D01*
X50108296Y-71700823D01*
X50090473Y-71682366D01*
X50055821Y-71628597D01*
X50015414Y-71572981D01*
X50005212Y-71550066D01*
X49994754Y-71533839D01*
X49968789Y-71468261D01*
X49938379Y-71399958D01*
X49934476Y-71381596D01*
X49929707Y-71369551D01*
X49915740Y-71293448D01*
X49899001Y-71214699D01*
X49899001Y-71202246D01*
X49897811Y-71195762D01*
X49899001Y-71110535D01*
X49899001Y-71025301D01*
X49900275Y-71019308D01*
X49900278Y-71019077D01*
X49937015Y-70846246D01*
X49937105Y-70846036D01*
X49938379Y-70840042D01*
X49973042Y-70762188D01*
X50006622Y-70683839D01*
X50010348Y-70678397D01*
X50015414Y-70667019D01*
X50062746Y-70601872D01*
X50106452Y-70538041D01*
X50115706Y-70528979D01*
X50126739Y-70513793D01*
X50182297Y-70463769D01*
X50232693Y-70414417D01*
X50248848Y-70403846D01*
X50267489Y-70387061D01*
X50327026Y-70352687D01*
X50380551Y-70317662D01*
X50404340Y-70308050D01*
X50431512Y-70292363D01*
X50491045Y-70273019D01*
X50544376Y-70251472D01*
X50575820Y-70245474D01*
X50611640Y-70233835D01*
X50667744Y-70227938D01*
X50717945Y-70218362D01*
X50756312Y-70218630D01*
X50800000Y-70214038D01*
X50849902Y-70219283D01*
G37*
G36*
X73709902Y-67679283D02*
G01*
X73754637Y-67679595D01*
X73798460Y-67688590D01*
X73848360Y-67693835D01*
X73890132Y-67707408D01*
X73927723Y-67715124D01*
X73974851Y-67734935D01*
X74028488Y-67752363D01*
X74061099Y-67771191D01*
X74090614Y-67783598D01*
X74138301Y-67815763D01*
X74192511Y-67847061D01*
X74215826Y-67868054D01*
X74237101Y-67882404D01*
X74282183Y-67927802D01*
X74333261Y-67973793D01*
X74348003Y-67994083D01*
X74361608Y-68007784D01*
X74400643Y-68066537D01*
X74444586Y-68127019D01*
X74452221Y-68144168D01*
X74459388Y-68154955D01*
X74488865Y-68226472D01*
X74521621Y-68300042D01*
X74524211Y-68312225D01*
X74526724Y-68318323D01*
X74543292Y-68401997D01*
X74560999Y-68485301D01*
X74560999Y-68674699D01*
X74558115Y-68688269D01*
X74558030Y-68694331D01*
X74539342Y-68776585D01*
X74521621Y-68859958D01*
X74519129Y-68865555D01*
X74519078Y-68865780D01*
X74447210Y-69027197D01*
X74447078Y-69027385D01*
X74444586Y-69032981D01*
X74394480Y-69101946D01*
X74345357Y-69171582D01*
X74340585Y-69176126D01*
X74333261Y-69186207D01*
X74273396Y-69240110D01*
X74217396Y-69293438D01*
X74206464Y-69300376D01*
X74192511Y-69312939D01*
X74127764Y-69350321D01*
X74068211Y-69388114D01*
X74050209Y-69395097D01*
X74028488Y-69407637D01*
X73963115Y-69428878D01*
X73903468Y-69452014D01*
X73878200Y-69456469D01*
X73848360Y-69466165D01*
X73786095Y-69472709D01*
X73729460Y-69482695D01*
X73697459Y-69482025D01*
X73660000Y-69485962D01*
X73603902Y-69480066D01*
X73552799Y-69478996D01*
X73515323Y-69470756D01*
X73471640Y-69466165D01*
X73423917Y-69450659D01*
X73380225Y-69441052D01*
X73339230Y-69423142D01*
X73291512Y-69407637D01*
X73253473Y-69385675D01*
X73218310Y-69370313D01*
X73176337Y-69341141D01*
X73127489Y-69312939D01*
X73099504Y-69287741D01*
X73073215Y-69269470D01*
X73033257Y-69228092D01*
X72986739Y-69186207D01*
X72968296Y-69160823D01*
X72950473Y-69142366D01*
X72915821Y-69088597D01*
X72875414Y-69032981D01*
X72865212Y-69010066D01*
X72854754Y-68993839D01*
X72828789Y-68928261D01*
X72798379Y-68859958D01*
X72794476Y-68841596D01*
X72789707Y-68829551D01*
X72775740Y-68753448D01*
X72759001Y-68674699D01*
X72759001Y-68662246D01*
X72757811Y-68655762D01*
X72759001Y-68570535D01*
X72759001Y-68485301D01*
X72760275Y-68479308D01*
X72760278Y-68479077D01*
X72797015Y-68306246D01*
X72797105Y-68306036D01*
X72798379Y-68300042D01*
X72833042Y-68222188D01*
X72866622Y-68143839D01*
X72870348Y-68138397D01*
X72875414Y-68127019D01*
X72922746Y-68061872D01*
X72966452Y-67998041D01*
X72975706Y-67988979D01*
X72986739Y-67973793D01*
X73042297Y-67923769D01*
X73092693Y-67874417D01*
X73108848Y-67863846D01*
X73127489Y-67847061D01*
X73187026Y-67812687D01*
X73240551Y-67777662D01*
X73264340Y-67768050D01*
X73291512Y-67752363D01*
X73351045Y-67733019D01*
X73404376Y-67711472D01*
X73435820Y-67705474D01*
X73471640Y-67693835D01*
X73527744Y-67687938D01*
X73577945Y-67678362D01*
X73616312Y-67678630D01*
X73660000Y-67674038D01*
X73709902Y-67679283D01*
G37*
G36*
X50849902Y-67679283D02*
G01*
X50894637Y-67679595D01*
X50938460Y-67688590D01*
X50988360Y-67693835D01*
X51030132Y-67707408D01*
X51067723Y-67715124D01*
X51114851Y-67734935D01*
X51168488Y-67752363D01*
X51201099Y-67771191D01*
X51230614Y-67783598D01*
X51278301Y-67815763D01*
X51332511Y-67847061D01*
X51355826Y-67868054D01*
X51377101Y-67882404D01*
X51422183Y-67927802D01*
X51473261Y-67973793D01*
X51488003Y-67994083D01*
X51501608Y-68007784D01*
X51540643Y-68066537D01*
X51584586Y-68127019D01*
X51592221Y-68144168D01*
X51599388Y-68154955D01*
X51628865Y-68226472D01*
X51661621Y-68300042D01*
X51664211Y-68312225D01*
X51666724Y-68318323D01*
X51683292Y-68401997D01*
X51700999Y-68485301D01*
X51700999Y-68674699D01*
X51698115Y-68688269D01*
X51698030Y-68694331D01*
X51679342Y-68776585D01*
X51661621Y-68859958D01*
X51659129Y-68865555D01*
X51659078Y-68865780D01*
X51587210Y-69027197D01*
X51587078Y-69027385D01*
X51584586Y-69032981D01*
X51534480Y-69101946D01*
X51485357Y-69171582D01*
X51480585Y-69176126D01*
X51473261Y-69186207D01*
X51413396Y-69240110D01*
X51357396Y-69293438D01*
X51346464Y-69300376D01*
X51332511Y-69312939D01*
X51267764Y-69350321D01*
X51208211Y-69388114D01*
X51190209Y-69395097D01*
X51168488Y-69407637D01*
X51103115Y-69428878D01*
X51043468Y-69452014D01*
X51018200Y-69456469D01*
X50988360Y-69466165D01*
X50926095Y-69472709D01*
X50869460Y-69482695D01*
X50837459Y-69482025D01*
X50800000Y-69485962D01*
X50743902Y-69480066D01*
X50692799Y-69478996D01*
X50655323Y-69470756D01*
X50611640Y-69466165D01*
X50563917Y-69450659D01*
X50520225Y-69441052D01*
X50479230Y-69423142D01*
X50431512Y-69407637D01*
X50393473Y-69385675D01*
X50358310Y-69370313D01*
X50316337Y-69341141D01*
X50267489Y-69312939D01*
X50239504Y-69287741D01*
X50213215Y-69269470D01*
X50173257Y-69228092D01*
X50126739Y-69186207D01*
X50108296Y-69160823D01*
X50090473Y-69142366D01*
X50055821Y-69088597D01*
X50015414Y-69032981D01*
X50005212Y-69010066D01*
X49994754Y-68993839D01*
X49968789Y-68928261D01*
X49938379Y-68859958D01*
X49934476Y-68841596D01*
X49929707Y-68829551D01*
X49915740Y-68753448D01*
X49899001Y-68674699D01*
X49899001Y-68662246D01*
X49897811Y-68655762D01*
X49899001Y-68570535D01*
X49899001Y-68485301D01*
X49900275Y-68479308D01*
X49900278Y-68479077D01*
X49937015Y-68306246D01*
X49937105Y-68306036D01*
X49938379Y-68300042D01*
X49973042Y-68222188D01*
X50006622Y-68143839D01*
X50010348Y-68138397D01*
X50015414Y-68127019D01*
X50062746Y-68061872D01*
X50106452Y-67998041D01*
X50115706Y-67988979D01*
X50126739Y-67973793D01*
X50182297Y-67923769D01*
X50232693Y-67874417D01*
X50248848Y-67863846D01*
X50267489Y-67847061D01*
X50327026Y-67812687D01*
X50380551Y-67777662D01*
X50404340Y-67768050D01*
X50431512Y-67752363D01*
X50491045Y-67733019D01*
X50544376Y-67711472D01*
X50575820Y-67705474D01*
X50611640Y-67693835D01*
X50667744Y-67687938D01*
X50717945Y-67678362D01*
X50756312Y-67678630D01*
X50800000Y-67674038D01*
X50849902Y-67679283D01*
G37*
G36*
X73709902Y-65139283D02*
G01*
X73754637Y-65139595D01*
X73798460Y-65148590D01*
X73848360Y-65153835D01*
X73890132Y-65167408D01*
X73927723Y-65175124D01*
X73974851Y-65194935D01*
X74028488Y-65212363D01*
X74061099Y-65231191D01*
X74090614Y-65243598D01*
X74138301Y-65275763D01*
X74192511Y-65307061D01*
X74215826Y-65328054D01*
X74237101Y-65342404D01*
X74282183Y-65387802D01*
X74333261Y-65433793D01*
X74348003Y-65454083D01*
X74361608Y-65467784D01*
X74400643Y-65526537D01*
X74444586Y-65587019D01*
X74452221Y-65604168D01*
X74459388Y-65614955D01*
X74488865Y-65686472D01*
X74521621Y-65760042D01*
X74524211Y-65772225D01*
X74526724Y-65778323D01*
X74543292Y-65861997D01*
X74560999Y-65945301D01*
X74560999Y-66134699D01*
X74558115Y-66148269D01*
X74558030Y-66154331D01*
X74539342Y-66236585D01*
X74521621Y-66319958D01*
X74519129Y-66325555D01*
X74519078Y-66325780D01*
X74447210Y-66487197D01*
X74447078Y-66487385D01*
X74444586Y-66492981D01*
X74394480Y-66561946D01*
X74345357Y-66631582D01*
X74340585Y-66636126D01*
X74333261Y-66646207D01*
X74273396Y-66700110D01*
X74217396Y-66753438D01*
X74206464Y-66760376D01*
X74192511Y-66772939D01*
X74127764Y-66810321D01*
X74068211Y-66848114D01*
X74050209Y-66855097D01*
X74028488Y-66867637D01*
X73963115Y-66888878D01*
X73903468Y-66912014D01*
X73878200Y-66916469D01*
X73848360Y-66926165D01*
X73786095Y-66932709D01*
X73729460Y-66942695D01*
X73697459Y-66942025D01*
X73660000Y-66945962D01*
X73603902Y-66940066D01*
X73552799Y-66938996D01*
X73515323Y-66930756D01*
X73471640Y-66926165D01*
X73423917Y-66910659D01*
X73380225Y-66901052D01*
X73339230Y-66883142D01*
X73291512Y-66867637D01*
X73253473Y-66845675D01*
X73218310Y-66830313D01*
X73176337Y-66801141D01*
X73127489Y-66772939D01*
X73099504Y-66747741D01*
X73073215Y-66729470D01*
X73033257Y-66688092D01*
X72986739Y-66646207D01*
X72968296Y-66620823D01*
X72950473Y-66602366D01*
X72915821Y-66548597D01*
X72875414Y-66492981D01*
X72865212Y-66470066D01*
X72854754Y-66453839D01*
X72828789Y-66388261D01*
X72798379Y-66319958D01*
X72794476Y-66301596D01*
X72789707Y-66289551D01*
X72775740Y-66213448D01*
X72759001Y-66134699D01*
X72759001Y-66122246D01*
X72757811Y-66115762D01*
X72759001Y-66030535D01*
X72759001Y-65945301D01*
X72760275Y-65939308D01*
X72760278Y-65939077D01*
X72797015Y-65766246D01*
X72797105Y-65766036D01*
X72798379Y-65760042D01*
X72833042Y-65682188D01*
X72866622Y-65603839D01*
X72870348Y-65598397D01*
X72875414Y-65587019D01*
X72922746Y-65521872D01*
X72966452Y-65458041D01*
X72975706Y-65448979D01*
X72986739Y-65433793D01*
X73042297Y-65383769D01*
X73092693Y-65334417D01*
X73108848Y-65323846D01*
X73127489Y-65307061D01*
X73187026Y-65272687D01*
X73240551Y-65237662D01*
X73264340Y-65228050D01*
X73291512Y-65212363D01*
X73351045Y-65193019D01*
X73404376Y-65171472D01*
X73435820Y-65165474D01*
X73471640Y-65153835D01*
X73527744Y-65147938D01*
X73577945Y-65138362D01*
X73616312Y-65138630D01*
X73660000Y-65134038D01*
X73709902Y-65139283D01*
G37*
G36*
X50849902Y-65139283D02*
G01*
X50894637Y-65139595D01*
X50938460Y-65148590D01*
X50988360Y-65153835D01*
X51030132Y-65167408D01*
X51067723Y-65175124D01*
X51114851Y-65194935D01*
X51168488Y-65212363D01*
X51201099Y-65231191D01*
X51230614Y-65243598D01*
X51278301Y-65275763D01*
X51332511Y-65307061D01*
X51355826Y-65328054D01*
X51377101Y-65342404D01*
X51422183Y-65387802D01*
X51473261Y-65433793D01*
X51488003Y-65454083D01*
X51501608Y-65467784D01*
X51540643Y-65526537D01*
X51584586Y-65587019D01*
X51592221Y-65604168D01*
X51599388Y-65614955D01*
X51628865Y-65686472D01*
X51661621Y-65760042D01*
X51664211Y-65772225D01*
X51666724Y-65778323D01*
X51683292Y-65861997D01*
X51700999Y-65945301D01*
X51700999Y-66134699D01*
X51698115Y-66148269D01*
X51698030Y-66154331D01*
X51679342Y-66236585D01*
X51661621Y-66319958D01*
X51659129Y-66325555D01*
X51659078Y-66325780D01*
X51587210Y-66487197D01*
X51587078Y-66487385D01*
X51584586Y-66492981D01*
X51534480Y-66561946D01*
X51485357Y-66631582D01*
X51480585Y-66636126D01*
X51473261Y-66646207D01*
X51413396Y-66700110D01*
X51357396Y-66753438D01*
X51346464Y-66760376D01*
X51332511Y-66772939D01*
X51267764Y-66810321D01*
X51208211Y-66848114D01*
X51190209Y-66855097D01*
X51168488Y-66867637D01*
X51103115Y-66888878D01*
X51043468Y-66912014D01*
X51018200Y-66916469D01*
X50988360Y-66926165D01*
X50926095Y-66932709D01*
X50869460Y-66942695D01*
X50837459Y-66942025D01*
X50800000Y-66945962D01*
X50743902Y-66940066D01*
X50692799Y-66938996D01*
X50655323Y-66930756D01*
X50611640Y-66926165D01*
X50563917Y-66910659D01*
X50520225Y-66901052D01*
X50479230Y-66883142D01*
X50431512Y-66867637D01*
X50393473Y-66845675D01*
X50358310Y-66830313D01*
X50316337Y-66801141D01*
X50267489Y-66772939D01*
X50239504Y-66747741D01*
X50213215Y-66729470D01*
X50173257Y-66688092D01*
X50126739Y-66646207D01*
X50108296Y-66620823D01*
X50090473Y-66602366D01*
X50055821Y-66548597D01*
X50015414Y-66492981D01*
X50005212Y-66470066D01*
X49994754Y-66453839D01*
X49968789Y-66388261D01*
X49938379Y-66319958D01*
X49934476Y-66301596D01*
X49929707Y-66289551D01*
X49915740Y-66213448D01*
X49899001Y-66134699D01*
X49899001Y-66122246D01*
X49897811Y-66115762D01*
X49899001Y-66030535D01*
X49899001Y-65945301D01*
X49900275Y-65939308D01*
X49900278Y-65939077D01*
X49937015Y-65766246D01*
X49937105Y-65766036D01*
X49938379Y-65760042D01*
X49973042Y-65682188D01*
X50006622Y-65603839D01*
X50010348Y-65598397D01*
X50015414Y-65587019D01*
X50062746Y-65521872D01*
X50106452Y-65458041D01*
X50115706Y-65448979D01*
X50126739Y-65433793D01*
X50182297Y-65383769D01*
X50232693Y-65334417D01*
X50248848Y-65323846D01*
X50267489Y-65307061D01*
X50327026Y-65272687D01*
X50380551Y-65237662D01*
X50404340Y-65228050D01*
X50431512Y-65212363D01*
X50491045Y-65193019D01*
X50544376Y-65171472D01*
X50575820Y-65165474D01*
X50611640Y-65153835D01*
X50667744Y-65147938D01*
X50717945Y-65138362D01*
X50756312Y-65138630D01*
X50800000Y-65134038D01*
X50849902Y-65139283D01*
G37*
G36*
X50849902Y-62599283D02*
G01*
X50894637Y-62599595D01*
X50938460Y-62608590D01*
X50988360Y-62613835D01*
X51030132Y-62627408D01*
X51067723Y-62635124D01*
X51114851Y-62654935D01*
X51168488Y-62672363D01*
X51201099Y-62691191D01*
X51230614Y-62703598D01*
X51278301Y-62735763D01*
X51332511Y-62767061D01*
X51355826Y-62788054D01*
X51377101Y-62802404D01*
X51422183Y-62847802D01*
X51473261Y-62893793D01*
X51488003Y-62914083D01*
X51501608Y-62927784D01*
X51540643Y-62986537D01*
X51584586Y-63047019D01*
X51592221Y-63064168D01*
X51599388Y-63074955D01*
X51628865Y-63146472D01*
X51661621Y-63220042D01*
X51664211Y-63232225D01*
X51666724Y-63238323D01*
X51683292Y-63321997D01*
X51700999Y-63405301D01*
X51700999Y-63594699D01*
X51698115Y-63608269D01*
X51698030Y-63614331D01*
X51679342Y-63696585D01*
X51661621Y-63779958D01*
X51659129Y-63785555D01*
X51659078Y-63785780D01*
X51587210Y-63947197D01*
X51587078Y-63947385D01*
X51584586Y-63952981D01*
X51534480Y-64021946D01*
X51485357Y-64091582D01*
X51480585Y-64096126D01*
X51473261Y-64106207D01*
X51413396Y-64160110D01*
X51357396Y-64213438D01*
X51346464Y-64220376D01*
X51332511Y-64232939D01*
X51267764Y-64270321D01*
X51208211Y-64308114D01*
X51190209Y-64315097D01*
X51168488Y-64327637D01*
X51103115Y-64348878D01*
X51043468Y-64372014D01*
X51018200Y-64376469D01*
X50988360Y-64386165D01*
X50926095Y-64392709D01*
X50869460Y-64402695D01*
X50837459Y-64402025D01*
X50800000Y-64405962D01*
X50743902Y-64400066D01*
X50692799Y-64398996D01*
X50655323Y-64390756D01*
X50611640Y-64386165D01*
X50563917Y-64370659D01*
X50520225Y-64361052D01*
X50479230Y-64343142D01*
X50431512Y-64327637D01*
X50393473Y-64305675D01*
X50358310Y-64290313D01*
X50316337Y-64261141D01*
X50267489Y-64232939D01*
X50239504Y-64207741D01*
X50213215Y-64189470D01*
X50173257Y-64148092D01*
X50126739Y-64106207D01*
X50108296Y-64080823D01*
X50090473Y-64062366D01*
X50055821Y-64008597D01*
X50015414Y-63952981D01*
X50005212Y-63930066D01*
X49994754Y-63913839D01*
X49968789Y-63848261D01*
X49938379Y-63779958D01*
X49934476Y-63761596D01*
X49929707Y-63749551D01*
X49915740Y-63673448D01*
X49899001Y-63594699D01*
X49899001Y-63582246D01*
X49897811Y-63575762D01*
X49899001Y-63490535D01*
X49899001Y-63405301D01*
X49900275Y-63399308D01*
X49900278Y-63399077D01*
X49937015Y-63226246D01*
X49937105Y-63226036D01*
X49938379Y-63220042D01*
X49973042Y-63142188D01*
X50006622Y-63063839D01*
X50010348Y-63058397D01*
X50015414Y-63047019D01*
X50062746Y-62981872D01*
X50106452Y-62918041D01*
X50115706Y-62908979D01*
X50126739Y-62893793D01*
X50182297Y-62843769D01*
X50232693Y-62794417D01*
X50248848Y-62783846D01*
X50267489Y-62767061D01*
X50327026Y-62732687D01*
X50380551Y-62697662D01*
X50404340Y-62688050D01*
X50431512Y-62672363D01*
X50491045Y-62653019D01*
X50544376Y-62631472D01*
X50575820Y-62625474D01*
X50611640Y-62613835D01*
X50667744Y-62607938D01*
X50717945Y-62598362D01*
X50756312Y-62598630D01*
X50800000Y-62594038D01*
X50849902Y-62599283D01*
G37*
G36*
X73709902Y-62599283D02*
G01*
X73754637Y-62599595D01*
X73798460Y-62608590D01*
X73848360Y-62613835D01*
X73890132Y-62627408D01*
X73927723Y-62635124D01*
X73974851Y-62654935D01*
X74028488Y-62672363D01*
X74061099Y-62691191D01*
X74090614Y-62703598D01*
X74138301Y-62735763D01*
X74192511Y-62767061D01*
X74215826Y-62788054D01*
X74237101Y-62802404D01*
X74282183Y-62847802D01*
X74333261Y-62893793D01*
X74348003Y-62914083D01*
X74361608Y-62927784D01*
X74400643Y-62986537D01*
X74444586Y-63047019D01*
X74452221Y-63064168D01*
X74459388Y-63074955D01*
X74488865Y-63146472D01*
X74521621Y-63220042D01*
X74524211Y-63232225D01*
X74526724Y-63238323D01*
X74543292Y-63321997D01*
X74560999Y-63405301D01*
X74560999Y-63594699D01*
X74558115Y-63608269D01*
X74558030Y-63614331D01*
X74539342Y-63696585D01*
X74521621Y-63779958D01*
X74519129Y-63785555D01*
X74519078Y-63785780D01*
X74447210Y-63947197D01*
X74447078Y-63947385D01*
X74444586Y-63952981D01*
X74394480Y-64021946D01*
X74345357Y-64091582D01*
X74340585Y-64096126D01*
X74333261Y-64106207D01*
X74273396Y-64160110D01*
X74217396Y-64213438D01*
X74206464Y-64220376D01*
X74192511Y-64232939D01*
X74127764Y-64270321D01*
X74068211Y-64308114D01*
X74050209Y-64315097D01*
X74028488Y-64327637D01*
X73963115Y-64348878D01*
X73903468Y-64372014D01*
X73878200Y-64376469D01*
X73848360Y-64386165D01*
X73786095Y-64392709D01*
X73729460Y-64402695D01*
X73697459Y-64402025D01*
X73660000Y-64405962D01*
X73603902Y-64400066D01*
X73552799Y-64398996D01*
X73515323Y-64390756D01*
X73471640Y-64386165D01*
X73423917Y-64370659D01*
X73380225Y-64361052D01*
X73339230Y-64343142D01*
X73291512Y-64327637D01*
X73253473Y-64305675D01*
X73218310Y-64290313D01*
X73176337Y-64261141D01*
X73127489Y-64232939D01*
X73099504Y-64207741D01*
X73073215Y-64189470D01*
X73033257Y-64148092D01*
X72986739Y-64106207D01*
X72968296Y-64080823D01*
X72950473Y-64062366D01*
X72915821Y-64008597D01*
X72875414Y-63952981D01*
X72865212Y-63930066D01*
X72854754Y-63913839D01*
X72828789Y-63848261D01*
X72798379Y-63779958D01*
X72794476Y-63761596D01*
X72789707Y-63749551D01*
X72775740Y-63673448D01*
X72759001Y-63594699D01*
X72759001Y-63582246D01*
X72757811Y-63575762D01*
X72759001Y-63490535D01*
X72759001Y-63405301D01*
X72760275Y-63399308D01*
X72760278Y-63399077D01*
X72797015Y-63226246D01*
X72797105Y-63226036D01*
X72798379Y-63220042D01*
X72833042Y-63142188D01*
X72866622Y-63063839D01*
X72870348Y-63058397D01*
X72875414Y-63047019D01*
X72922746Y-62981872D01*
X72966452Y-62918041D01*
X72975706Y-62908979D01*
X72986739Y-62893793D01*
X73042297Y-62843769D01*
X73092693Y-62794417D01*
X73108848Y-62783846D01*
X73127489Y-62767061D01*
X73187026Y-62732687D01*
X73240551Y-62697662D01*
X73264340Y-62688050D01*
X73291512Y-62672363D01*
X73351045Y-62653019D01*
X73404376Y-62631472D01*
X73435820Y-62625474D01*
X73471640Y-62613835D01*
X73527744Y-62607938D01*
X73577945Y-62598362D01*
X73616312Y-62598630D01*
X73660000Y-62594038D01*
X73709902Y-62599283D01*
G37*
G36*
X63549902Y-60059283D02*
G01*
X63594637Y-60059595D01*
X63638460Y-60068590D01*
X63688360Y-60073835D01*
X63730132Y-60087408D01*
X63767723Y-60095124D01*
X63814851Y-60114935D01*
X63868488Y-60132363D01*
X63901099Y-60151191D01*
X63930614Y-60163598D01*
X63978301Y-60195763D01*
X64032511Y-60227061D01*
X64055826Y-60248054D01*
X64077101Y-60262404D01*
X64122183Y-60307802D01*
X64173261Y-60353793D01*
X64188003Y-60374083D01*
X64201608Y-60387784D01*
X64240643Y-60446537D01*
X64284586Y-60507019D01*
X64292221Y-60524168D01*
X64299388Y-60534955D01*
X64328865Y-60606472D01*
X64361621Y-60680042D01*
X64364211Y-60692225D01*
X64366724Y-60698323D01*
X64383292Y-60781997D01*
X64400999Y-60865301D01*
X64400999Y-61054699D01*
X64398115Y-61068269D01*
X64398030Y-61074331D01*
X64379342Y-61156585D01*
X64361621Y-61239958D01*
X64359129Y-61245555D01*
X64359078Y-61245780D01*
X64287210Y-61407197D01*
X64287078Y-61407385D01*
X64284586Y-61412981D01*
X64234480Y-61481946D01*
X64185357Y-61551582D01*
X64180585Y-61556126D01*
X64173261Y-61566207D01*
X64113396Y-61620110D01*
X64057396Y-61673438D01*
X64046464Y-61680376D01*
X64032511Y-61692939D01*
X63967764Y-61730321D01*
X63908211Y-61768114D01*
X63890209Y-61775097D01*
X63868488Y-61787637D01*
X63803115Y-61808878D01*
X63743468Y-61832014D01*
X63718200Y-61836469D01*
X63688360Y-61846165D01*
X63626095Y-61852709D01*
X63569460Y-61862695D01*
X63537459Y-61862025D01*
X63500000Y-61865962D01*
X63443902Y-61860066D01*
X63392799Y-61858996D01*
X63355323Y-61850756D01*
X63311640Y-61846165D01*
X63263917Y-61830659D01*
X63220225Y-61821052D01*
X63179230Y-61803142D01*
X63131512Y-61787637D01*
X63093473Y-61765675D01*
X63058310Y-61750313D01*
X63016337Y-61721141D01*
X62967489Y-61692939D01*
X62939504Y-61667741D01*
X62913215Y-61649470D01*
X62873257Y-61608092D01*
X62826739Y-61566207D01*
X62808296Y-61540823D01*
X62790473Y-61522366D01*
X62755821Y-61468597D01*
X62715414Y-61412981D01*
X62705212Y-61390066D01*
X62694754Y-61373839D01*
X62668789Y-61308261D01*
X62638379Y-61239958D01*
X62634476Y-61221596D01*
X62629707Y-61209551D01*
X62615740Y-61133448D01*
X62599001Y-61054699D01*
X62599001Y-61042246D01*
X62597811Y-61035762D01*
X62599001Y-60950535D01*
X62599001Y-60865301D01*
X62600275Y-60859308D01*
X62600278Y-60859077D01*
X62637015Y-60686246D01*
X62637105Y-60686036D01*
X62638379Y-60680042D01*
X62673042Y-60602188D01*
X62706622Y-60523839D01*
X62710348Y-60518397D01*
X62715414Y-60507019D01*
X62762746Y-60441872D01*
X62806452Y-60378041D01*
X62815706Y-60368979D01*
X62826739Y-60353793D01*
X62882297Y-60303769D01*
X62932693Y-60254417D01*
X62948848Y-60243846D01*
X62967489Y-60227061D01*
X63027026Y-60192687D01*
X63080551Y-60157662D01*
X63104340Y-60148050D01*
X63131512Y-60132363D01*
X63191045Y-60113019D01*
X63244376Y-60091472D01*
X63275820Y-60085474D01*
X63311640Y-60073835D01*
X63367744Y-60067938D01*
X63417945Y-60058362D01*
X63456312Y-60058630D01*
X63500000Y-60054038D01*
X63549902Y-60059283D01*
G37*
G36*
X50849902Y-60059283D02*
G01*
X50894637Y-60059595D01*
X50938460Y-60068590D01*
X50988360Y-60073835D01*
X51030132Y-60087408D01*
X51067723Y-60095124D01*
X51114851Y-60114935D01*
X51168488Y-60132363D01*
X51201099Y-60151191D01*
X51230614Y-60163598D01*
X51278301Y-60195763D01*
X51332511Y-60227061D01*
X51355826Y-60248054D01*
X51377101Y-60262404D01*
X51422183Y-60307802D01*
X51473261Y-60353793D01*
X51488003Y-60374083D01*
X51501608Y-60387784D01*
X51540643Y-60446537D01*
X51584586Y-60507019D01*
X51592221Y-60524168D01*
X51599388Y-60534955D01*
X51628865Y-60606472D01*
X51661621Y-60680042D01*
X51664211Y-60692225D01*
X51666724Y-60698323D01*
X51683292Y-60781997D01*
X51700999Y-60865301D01*
X51700999Y-61054699D01*
X51698115Y-61068269D01*
X51698030Y-61074331D01*
X51679342Y-61156585D01*
X51661621Y-61239958D01*
X51659129Y-61245555D01*
X51659078Y-61245780D01*
X51587210Y-61407197D01*
X51587078Y-61407385D01*
X51584586Y-61412981D01*
X51534480Y-61481946D01*
X51485357Y-61551582D01*
X51480585Y-61556126D01*
X51473261Y-61566207D01*
X51413396Y-61620110D01*
X51357396Y-61673438D01*
X51346464Y-61680376D01*
X51332511Y-61692939D01*
X51267764Y-61730321D01*
X51208211Y-61768114D01*
X51190209Y-61775097D01*
X51168488Y-61787637D01*
X51103115Y-61808878D01*
X51043468Y-61832014D01*
X51018200Y-61836469D01*
X50988360Y-61846165D01*
X50926095Y-61852709D01*
X50869460Y-61862695D01*
X50837459Y-61862025D01*
X50800000Y-61865962D01*
X50743902Y-61860066D01*
X50692799Y-61858996D01*
X50655323Y-61850756D01*
X50611640Y-61846165D01*
X50563917Y-61830659D01*
X50520225Y-61821052D01*
X50479230Y-61803142D01*
X50431512Y-61787637D01*
X50393473Y-61765675D01*
X50358310Y-61750313D01*
X50316337Y-61721141D01*
X50267489Y-61692939D01*
X50239504Y-61667741D01*
X50213215Y-61649470D01*
X50173257Y-61608092D01*
X50126739Y-61566207D01*
X50108296Y-61540823D01*
X50090473Y-61522366D01*
X50055821Y-61468597D01*
X50015414Y-61412981D01*
X50005212Y-61390066D01*
X49994754Y-61373839D01*
X49968789Y-61308261D01*
X49938379Y-61239958D01*
X49934476Y-61221596D01*
X49929707Y-61209551D01*
X49915740Y-61133448D01*
X49899001Y-61054699D01*
X49899001Y-61042246D01*
X49897811Y-61035762D01*
X49899001Y-60950535D01*
X49899001Y-60865301D01*
X49900275Y-60859308D01*
X49900278Y-60859077D01*
X49937015Y-60686246D01*
X49937105Y-60686036D01*
X49938379Y-60680042D01*
X49973042Y-60602188D01*
X50006622Y-60523839D01*
X50010348Y-60518397D01*
X50015414Y-60507019D01*
X50062746Y-60441872D01*
X50106452Y-60378041D01*
X50115706Y-60368979D01*
X50126739Y-60353793D01*
X50182297Y-60303769D01*
X50232693Y-60254417D01*
X50248848Y-60243846D01*
X50267489Y-60227061D01*
X50327026Y-60192687D01*
X50380551Y-60157662D01*
X50404340Y-60148050D01*
X50431512Y-60132363D01*
X50491045Y-60113019D01*
X50544376Y-60091472D01*
X50575820Y-60085474D01*
X50611640Y-60073835D01*
X50667744Y-60067938D01*
X50717945Y-60058362D01*
X50756312Y-60058630D01*
X50800000Y-60054038D01*
X50849902Y-60059283D01*
G37*
G36*
X61009902Y-60059283D02*
G01*
X61054637Y-60059595D01*
X61098460Y-60068590D01*
X61148360Y-60073835D01*
X61190132Y-60087408D01*
X61227723Y-60095124D01*
X61274851Y-60114935D01*
X61328488Y-60132363D01*
X61361099Y-60151191D01*
X61390614Y-60163598D01*
X61438301Y-60195763D01*
X61492511Y-60227061D01*
X61515826Y-60248054D01*
X61537101Y-60262404D01*
X61582183Y-60307802D01*
X61633261Y-60353793D01*
X61648003Y-60374083D01*
X61661608Y-60387784D01*
X61700643Y-60446537D01*
X61744586Y-60507019D01*
X61752221Y-60524168D01*
X61759388Y-60534955D01*
X61788865Y-60606472D01*
X61821621Y-60680042D01*
X61824211Y-60692225D01*
X61826724Y-60698323D01*
X61843292Y-60781997D01*
X61860999Y-60865301D01*
X61860999Y-61054699D01*
X61858115Y-61068269D01*
X61858030Y-61074331D01*
X61839342Y-61156585D01*
X61821621Y-61239958D01*
X61819129Y-61245555D01*
X61819078Y-61245780D01*
X61747210Y-61407197D01*
X61747078Y-61407385D01*
X61744586Y-61412981D01*
X61694480Y-61481946D01*
X61645357Y-61551582D01*
X61640585Y-61556126D01*
X61633261Y-61566207D01*
X61573396Y-61620110D01*
X61517396Y-61673438D01*
X61506464Y-61680376D01*
X61492511Y-61692939D01*
X61427764Y-61730321D01*
X61368211Y-61768114D01*
X61350209Y-61775097D01*
X61328488Y-61787637D01*
X61263115Y-61808878D01*
X61203468Y-61832014D01*
X61178200Y-61836469D01*
X61148360Y-61846165D01*
X61086095Y-61852709D01*
X61029460Y-61862695D01*
X60997459Y-61862025D01*
X60960000Y-61865962D01*
X60903902Y-61860066D01*
X60852799Y-61858996D01*
X60815323Y-61850756D01*
X60771640Y-61846165D01*
X60723917Y-61830659D01*
X60680225Y-61821052D01*
X60639230Y-61803142D01*
X60591512Y-61787637D01*
X60553473Y-61765675D01*
X60518310Y-61750313D01*
X60476337Y-61721141D01*
X60427489Y-61692939D01*
X60399504Y-61667741D01*
X60373215Y-61649470D01*
X60333257Y-61608092D01*
X60286739Y-61566207D01*
X60268296Y-61540823D01*
X60250473Y-61522366D01*
X60215821Y-61468597D01*
X60175414Y-61412981D01*
X60165212Y-61390066D01*
X60154754Y-61373839D01*
X60128789Y-61308261D01*
X60098379Y-61239958D01*
X60094476Y-61221596D01*
X60089707Y-61209551D01*
X60075740Y-61133448D01*
X60059001Y-61054699D01*
X60059001Y-61042246D01*
X60057811Y-61035762D01*
X60059001Y-60950535D01*
X60059001Y-60865301D01*
X60060275Y-60859308D01*
X60060278Y-60859077D01*
X60097015Y-60686246D01*
X60097105Y-60686036D01*
X60098379Y-60680042D01*
X60133042Y-60602188D01*
X60166622Y-60523839D01*
X60170348Y-60518397D01*
X60175414Y-60507019D01*
X60222746Y-60441872D01*
X60266452Y-60378041D01*
X60275706Y-60368979D01*
X60286739Y-60353793D01*
X60342297Y-60303769D01*
X60392693Y-60254417D01*
X60408848Y-60243846D01*
X60427489Y-60227061D01*
X60487026Y-60192687D01*
X60540551Y-60157662D01*
X60564340Y-60148050D01*
X60591512Y-60132363D01*
X60651045Y-60113019D01*
X60704376Y-60091472D01*
X60735820Y-60085474D01*
X60771640Y-60073835D01*
X60827744Y-60067938D01*
X60877945Y-60058362D01*
X60916312Y-60058630D01*
X60960000Y-60054038D01*
X61009902Y-60059283D01*
G37*
G36*
X73709902Y-60059283D02*
G01*
X73754637Y-60059595D01*
X73798460Y-60068590D01*
X73848360Y-60073835D01*
X73890132Y-60087408D01*
X73927723Y-60095124D01*
X73974851Y-60114935D01*
X74028488Y-60132363D01*
X74061099Y-60151191D01*
X74090614Y-60163598D01*
X74138301Y-60195763D01*
X74192511Y-60227061D01*
X74215826Y-60248054D01*
X74237101Y-60262404D01*
X74282183Y-60307802D01*
X74333261Y-60353793D01*
X74348003Y-60374083D01*
X74361608Y-60387784D01*
X74400643Y-60446537D01*
X74444586Y-60507019D01*
X74452221Y-60524168D01*
X74459388Y-60534955D01*
X74488865Y-60606472D01*
X74521621Y-60680042D01*
X74524211Y-60692225D01*
X74526724Y-60698323D01*
X74543292Y-60781997D01*
X74560999Y-60865301D01*
X74560999Y-61054699D01*
X74558115Y-61068269D01*
X74558030Y-61074331D01*
X74539342Y-61156585D01*
X74521621Y-61239958D01*
X74519129Y-61245555D01*
X74519078Y-61245780D01*
X74447210Y-61407197D01*
X74447078Y-61407385D01*
X74444586Y-61412981D01*
X74394480Y-61481946D01*
X74345357Y-61551582D01*
X74340585Y-61556126D01*
X74333261Y-61566207D01*
X74273396Y-61620110D01*
X74217396Y-61673438D01*
X74206464Y-61680376D01*
X74192511Y-61692939D01*
X74127764Y-61730321D01*
X74068211Y-61768114D01*
X74050209Y-61775097D01*
X74028488Y-61787637D01*
X73963115Y-61808878D01*
X73903468Y-61832014D01*
X73878200Y-61836469D01*
X73848360Y-61846165D01*
X73786095Y-61852709D01*
X73729460Y-61862695D01*
X73697459Y-61862025D01*
X73660000Y-61865962D01*
X73603902Y-61860066D01*
X73552799Y-61858996D01*
X73515323Y-61850756D01*
X73471640Y-61846165D01*
X73423917Y-61830659D01*
X73380225Y-61821052D01*
X73339230Y-61803142D01*
X73291512Y-61787637D01*
X73253473Y-61765675D01*
X73218310Y-61750313D01*
X73176337Y-61721141D01*
X73127489Y-61692939D01*
X73099504Y-61667741D01*
X73073215Y-61649470D01*
X73033257Y-61608092D01*
X72986739Y-61566207D01*
X72968296Y-61540823D01*
X72950473Y-61522366D01*
X72915821Y-61468597D01*
X72875414Y-61412981D01*
X72865212Y-61390066D01*
X72854754Y-61373839D01*
X72828789Y-61308261D01*
X72798379Y-61239958D01*
X72794476Y-61221596D01*
X72789707Y-61209551D01*
X72775740Y-61133448D01*
X72759001Y-61054699D01*
X72759001Y-61042246D01*
X72757811Y-61035762D01*
X72759001Y-60950535D01*
X72759001Y-60865301D01*
X72760275Y-60859308D01*
X72760278Y-60859077D01*
X72797015Y-60686246D01*
X72797105Y-60686036D01*
X72798379Y-60680042D01*
X72833042Y-60602188D01*
X72866622Y-60523839D01*
X72870348Y-60518397D01*
X72875414Y-60507019D01*
X72922746Y-60441872D01*
X72966452Y-60378041D01*
X72975706Y-60368979D01*
X72986739Y-60353793D01*
X73042297Y-60303769D01*
X73092693Y-60254417D01*
X73108848Y-60243846D01*
X73127489Y-60227061D01*
X73187026Y-60192687D01*
X73240551Y-60157662D01*
X73264340Y-60148050D01*
X73291512Y-60132363D01*
X73351045Y-60113019D01*
X73404376Y-60091472D01*
X73435820Y-60085474D01*
X73471640Y-60073835D01*
X73527744Y-60067938D01*
X73577945Y-60058362D01*
X73616312Y-60058630D01*
X73660000Y-60054038D01*
X73709902Y-60059283D01*
G37*
G36*
X73709902Y-57519283D02*
G01*
X73754637Y-57519595D01*
X73798460Y-57528590D01*
X73848360Y-57533835D01*
X73890132Y-57547408D01*
X73927723Y-57555124D01*
X73974851Y-57574935D01*
X74028488Y-57592363D01*
X74061099Y-57611191D01*
X74090614Y-57623598D01*
X74138301Y-57655763D01*
X74192511Y-57687061D01*
X74215826Y-57708054D01*
X74237101Y-57722404D01*
X74282183Y-57767802D01*
X74333261Y-57813793D01*
X74348003Y-57834083D01*
X74361608Y-57847784D01*
X74400643Y-57906537D01*
X74444586Y-57967019D01*
X74452221Y-57984168D01*
X74459388Y-57994955D01*
X74488865Y-58066472D01*
X74521621Y-58140042D01*
X74524211Y-58152225D01*
X74526724Y-58158323D01*
X74543292Y-58241997D01*
X74560999Y-58325301D01*
X74560999Y-58514699D01*
X74558115Y-58528269D01*
X74558030Y-58534331D01*
X74539342Y-58616585D01*
X74521621Y-58699958D01*
X74519129Y-58705555D01*
X74519078Y-58705780D01*
X74447210Y-58867197D01*
X74447078Y-58867385D01*
X74444586Y-58872981D01*
X74394480Y-58941946D01*
X74345357Y-59011582D01*
X74340585Y-59016126D01*
X74333261Y-59026207D01*
X74273396Y-59080110D01*
X74217396Y-59133438D01*
X74206464Y-59140376D01*
X74192511Y-59152939D01*
X74127764Y-59190321D01*
X74068211Y-59228114D01*
X74050209Y-59235097D01*
X74028488Y-59247637D01*
X73963115Y-59268878D01*
X73903468Y-59292014D01*
X73878200Y-59296469D01*
X73848360Y-59306165D01*
X73786095Y-59312709D01*
X73729460Y-59322695D01*
X73697459Y-59322025D01*
X73660000Y-59325962D01*
X73603902Y-59320066D01*
X73552799Y-59318996D01*
X73515323Y-59310756D01*
X73471640Y-59306165D01*
X73423917Y-59290659D01*
X73380225Y-59281052D01*
X73339230Y-59263142D01*
X73291512Y-59247637D01*
X73253473Y-59225675D01*
X73218310Y-59210313D01*
X73176337Y-59181141D01*
X73127489Y-59152939D01*
X73099504Y-59127741D01*
X73073215Y-59109470D01*
X73033257Y-59068092D01*
X72986739Y-59026207D01*
X72968296Y-59000823D01*
X72950473Y-58982366D01*
X72915821Y-58928597D01*
X72875414Y-58872981D01*
X72865212Y-58850066D01*
X72854754Y-58833839D01*
X72828789Y-58768261D01*
X72798379Y-58699958D01*
X72794476Y-58681596D01*
X72789707Y-58669551D01*
X72775740Y-58593448D01*
X72759001Y-58514699D01*
X72759001Y-58502246D01*
X72757811Y-58495762D01*
X72759001Y-58410535D01*
X72759001Y-58325301D01*
X72760275Y-58319308D01*
X72760278Y-58319077D01*
X72797015Y-58146246D01*
X72797105Y-58146036D01*
X72798379Y-58140042D01*
X72833042Y-58062188D01*
X72866622Y-57983839D01*
X72870348Y-57978397D01*
X72875414Y-57967019D01*
X72922746Y-57901872D01*
X72966452Y-57838041D01*
X72975706Y-57828979D01*
X72986739Y-57813793D01*
X73042297Y-57763769D01*
X73092693Y-57714417D01*
X73108848Y-57703846D01*
X73127489Y-57687061D01*
X73187026Y-57652687D01*
X73240551Y-57617662D01*
X73264340Y-57608050D01*
X73291512Y-57592363D01*
X73351045Y-57573019D01*
X73404376Y-57551472D01*
X73435820Y-57545474D01*
X73471640Y-57533835D01*
X73527744Y-57527938D01*
X73577945Y-57518362D01*
X73616312Y-57518630D01*
X73660000Y-57514038D01*
X73709902Y-57519283D01*
G37*
G36*
X61009902Y-57519283D02*
G01*
X61054637Y-57519595D01*
X61098460Y-57528590D01*
X61148360Y-57533835D01*
X61190132Y-57547408D01*
X61227723Y-57555124D01*
X61274851Y-57574935D01*
X61328488Y-57592363D01*
X61361099Y-57611191D01*
X61390614Y-57623598D01*
X61438301Y-57655763D01*
X61492511Y-57687061D01*
X61515826Y-57708054D01*
X61537101Y-57722404D01*
X61582183Y-57767802D01*
X61633261Y-57813793D01*
X61648003Y-57834083D01*
X61661608Y-57847784D01*
X61700643Y-57906537D01*
X61744586Y-57967019D01*
X61752221Y-57984168D01*
X61759388Y-57994955D01*
X61788865Y-58066472D01*
X61821621Y-58140042D01*
X61824211Y-58152225D01*
X61826724Y-58158323D01*
X61843292Y-58241997D01*
X61860999Y-58325301D01*
X61860999Y-58514699D01*
X61858115Y-58528269D01*
X61858030Y-58534331D01*
X61839342Y-58616585D01*
X61821621Y-58699958D01*
X61819129Y-58705555D01*
X61819078Y-58705780D01*
X61747210Y-58867197D01*
X61747078Y-58867385D01*
X61744586Y-58872981D01*
X61694480Y-58941946D01*
X61645357Y-59011582D01*
X61640585Y-59016126D01*
X61633261Y-59026207D01*
X61573396Y-59080110D01*
X61517396Y-59133438D01*
X61506464Y-59140376D01*
X61492511Y-59152939D01*
X61427764Y-59190321D01*
X61368211Y-59228114D01*
X61350209Y-59235097D01*
X61328488Y-59247637D01*
X61263115Y-59268878D01*
X61203468Y-59292014D01*
X61178200Y-59296469D01*
X61148360Y-59306165D01*
X61086095Y-59312709D01*
X61029460Y-59322695D01*
X60997459Y-59322025D01*
X60960000Y-59325962D01*
X60903902Y-59320066D01*
X60852799Y-59318996D01*
X60815323Y-59310756D01*
X60771640Y-59306165D01*
X60723917Y-59290659D01*
X60680225Y-59281052D01*
X60639230Y-59263142D01*
X60591512Y-59247637D01*
X60553473Y-59225675D01*
X60518310Y-59210313D01*
X60476337Y-59181141D01*
X60427489Y-59152939D01*
X60399504Y-59127741D01*
X60373215Y-59109470D01*
X60333257Y-59068092D01*
X60286739Y-59026207D01*
X60268296Y-59000823D01*
X60250473Y-58982366D01*
X60215821Y-58928597D01*
X60175414Y-58872981D01*
X60165212Y-58850066D01*
X60154754Y-58833839D01*
X60128789Y-58768261D01*
X60098379Y-58699958D01*
X60094476Y-58681596D01*
X60089707Y-58669551D01*
X60075740Y-58593448D01*
X60059001Y-58514699D01*
X60059001Y-58502246D01*
X60057811Y-58495762D01*
X60059001Y-58410535D01*
X60059001Y-58325301D01*
X60060275Y-58319308D01*
X60060278Y-58319077D01*
X60097015Y-58146246D01*
X60097105Y-58146036D01*
X60098379Y-58140042D01*
X60133042Y-58062188D01*
X60166622Y-57983839D01*
X60170348Y-57978397D01*
X60175414Y-57967019D01*
X60222746Y-57901872D01*
X60266452Y-57838041D01*
X60275706Y-57828979D01*
X60286739Y-57813793D01*
X60342297Y-57763769D01*
X60392693Y-57714417D01*
X60408848Y-57703846D01*
X60427489Y-57687061D01*
X60487026Y-57652687D01*
X60540551Y-57617662D01*
X60564340Y-57608050D01*
X60591512Y-57592363D01*
X60651045Y-57573019D01*
X60704376Y-57551472D01*
X60735820Y-57545474D01*
X60771640Y-57533835D01*
X60827744Y-57527938D01*
X60877945Y-57518362D01*
X60916312Y-57518630D01*
X60960000Y-57514038D01*
X61009902Y-57519283D01*
G37*
G36*
X63549902Y-57519283D02*
G01*
X63594637Y-57519595D01*
X63638460Y-57528590D01*
X63688360Y-57533835D01*
X63730132Y-57547408D01*
X63767723Y-57555124D01*
X63814851Y-57574935D01*
X63868488Y-57592363D01*
X63901099Y-57611191D01*
X63930614Y-57623598D01*
X63978301Y-57655763D01*
X64032511Y-57687061D01*
X64055826Y-57708054D01*
X64077101Y-57722404D01*
X64122183Y-57767802D01*
X64173261Y-57813793D01*
X64188003Y-57834083D01*
X64201608Y-57847784D01*
X64240643Y-57906537D01*
X64284586Y-57967019D01*
X64292221Y-57984168D01*
X64299388Y-57994955D01*
X64328865Y-58066472D01*
X64361621Y-58140042D01*
X64364211Y-58152225D01*
X64366724Y-58158323D01*
X64383292Y-58241997D01*
X64400999Y-58325301D01*
X64400999Y-58514699D01*
X64398115Y-58528269D01*
X64398030Y-58534331D01*
X64379342Y-58616585D01*
X64361621Y-58699958D01*
X64359129Y-58705555D01*
X64359078Y-58705780D01*
X64287210Y-58867197D01*
X64287078Y-58867385D01*
X64284586Y-58872981D01*
X64234480Y-58941946D01*
X64185357Y-59011582D01*
X64180585Y-59016126D01*
X64173261Y-59026207D01*
X64113396Y-59080110D01*
X64057396Y-59133438D01*
X64046464Y-59140376D01*
X64032511Y-59152939D01*
X63967764Y-59190321D01*
X63908211Y-59228114D01*
X63890209Y-59235097D01*
X63868488Y-59247637D01*
X63803115Y-59268878D01*
X63743468Y-59292014D01*
X63718200Y-59296469D01*
X63688360Y-59306165D01*
X63626095Y-59312709D01*
X63569460Y-59322695D01*
X63537459Y-59322025D01*
X63500000Y-59325962D01*
X63443902Y-59320066D01*
X63392799Y-59318996D01*
X63355323Y-59310756D01*
X63311640Y-59306165D01*
X63263917Y-59290659D01*
X63220225Y-59281052D01*
X63179230Y-59263142D01*
X63131512Y-59247637D01*
X63093473Y-59225675D01*
X63058310Y-59210313D01*
X63016337Y-59181141D01*
X62967489Y-59152939D01*
X62939504Y-59127741D01*
X62913215Y-59109470D01*
X62873257Y-59068092D01*
X62826739Y-59026207D01*
X62808296Y-59000823D01*
X62790473Y-58982366D01*
X62755821Y-58928597D01*
X62715414Y-58872981D01*
X62705212Y-58850066D01*
X62694754Y-58833839D01*
X62668789Y-58768261D01*
X62638379Y-58699958D01*
X62634476Y-58681596D01*
X62629707Y-58669551D01*
X62615740Y-58593448D01*
X62599001Y-58514699D01*
X62599001Y-58502246D01*
X62597811Y-58495762D01*
X62599001Y-58410535D01*
X62599001Y-58325301D01*
X62600275Y-58319308D01*
X62600278Y-58319077D01*
X62637015Y-58146246D01*
X62637105Y-58146036D01*
X62638379Y-58140042D01*
X62673042Y-58062188D01*
X62706622Y-57983839D01*
X62710348Y-57978397D01*
X62715414Y-57967019D01*
X62762746Y-57901872D01*
X62806452Y-57838041D01*
X62815706Y-57828979D01*
X62826739Y-57813793D01*
X62882297Y-57763769D01*
X62932693Y-57714417D01*
X62948848Y-57703846D01*
X62967489Y-57687061D01*
X63027026Y-57652687D01*
X63080551Y-57617662D01*
X63104340Y-57608050D01*
X63131512Y-57592363D01*
X63191045Y-57573019D01*
X63244376Y-57551472D01*
X63275820Y-57545474D01*
X63311640Y-57533835D01*
X63367744Y-57527938D01*
X63417945Y-57518362D01*
X63456312Y-57518630D01*
X63500000Y-57514038D01*
X63549902Y-57519283D01*
G37*
G36*
X50849902Y-57519283D02*
G01*
X50894637Y-57519595D01*
X50938460Y-57528590D01*
X50988360Y-57533835D01*
X51030132Y-57547408D01*
X51067723Y-57555124D01*
X51114851Y-57574935D01*
X51168488Y-57592363D01*
X51201099Y-57611191D01*
X51230614Y-57623598D01*
X51278301Y-57655763D01*
X51332511Y-57687061D01*
X51355826Y-57708054D01*
X51377101Y-57722404D01*
X51422183Y-57767802D01*
X51473261Y-57813793D01*
X51488003Y-57834083D01*
X51501608Y-57847784D01*
X51540643Y-57906537D01*
X51584586Y-57967019D01*
X51592221Y-57984168D01*
X51599388Y-57994955D01*
X51628865Y-58066472D01*
X51661621Y-58140042D01*
X51664211Y-58152225D01*
X51666724Y-58158323D01*
X51683292Y-58241997D01*
X51700999Y-58325301D01*
X51700999Y-58514699D01*
X51698115Y-58528269D01*
X51698030Y-58534331D01*
X51679342Y-58616585D01*
X51661621Y-58699958D01*
X51659129Y-58705555D01*
X51659078Y-58705780D01*
X51587210Y-58867197D01*
X51587078Y-58867385D01*
X51584586Y-58872981D01*
X51534480Y-58941946D01*
X51485357Y-59011582D01*
X51480585Y-59016126D01*
X51473261Y-59026207D01*
X51413396Y-59080110D01*
X51357396Y-59133438D01*
X51346464Y-59140376D01*
X51332511Y-59152939D01*
X51267764Y-59190321D01*
X51208211Y-59228114D01*
X51190209Y-59235097D01*
X51168488Y-59247637D01*
X51103115Y-59268878D01*
X51043468Y-59292014D01*
X51018200Y-59296469D01*
X50988360Y-59306165D01*
X50926095Y-59312709D01*
X50869460Y-59322695D01*
X50837459Y-59322025D01*
X50800000Y-59325962D01*
X50743902Y-59320066D01*
X50692799Y-59318996D01*
X50655323Y-59310756D01*
X50611640Y-59306165D01*
X50563917Y-59290659D01*
X50520225Y-59281052D01*
X50479230Y-59263142D01*
X50431512Y-59247637D01*
X50393473Y-59225675D01*
X50358310Y-59210313D01*
X50316337Y-59181141D01*
X50267489Y-59152939D01*
X50239504Y-59127741D01*
X50213215Y-59109470D01*
X50173257Y-59068092D01*
X50126739Y-59026207D01*
X50108296Y-59000823D01*
X50090473Y-58982366D01*
X50055821Y-58928597D01*
X50015414Y-58872981D01*
X50005212Y-58850066D01*
X49994754Y-58833839D01*
X49968789Y-58768261D01*
X49938379Y-58699958D01*
X49934476Y-58681596D01*
X49929707Y-58669551D01*
X49915740Y-58593448D01*
X49899001Y-58514699D01*
X49899001Y-58502246D01*
X49897811Y-58495762D01*
X49899001Y-58410535D01*
X49899001Y-58325301D01*
X49900275Y-58319308D01*
X49900278Y-58319077D01*
X49937015Y-58146246D01*
X49937105Y-58146036D01*
X49938379Y-58140042D01*
X49973042Y-58062188D01*
X50006622Y-57983839D01*
X50010348Y-57978397D01*
X50015414Y-57967019D01*
X50062746Y-57901872D01*
X50106452Y-57838041D01*
X50115706Y-57828979D01*
X50126739Y-57813793D01*
X50182297Y-57763769D01*
X50232693Y-57714417D01*
X50248848Y-57703846D01*
X50267489Y-57687061D01*
X50327026Y-57652687D01*
X50380551Y-57617662D01*
X50404340Y-57608050D01*
X50431512Y-57592363D01*
X50491045Y-57573019D01*
X50544376Y-57551472D01*
X50575820Y-57545474D01*
X50611640Y-57533835D01*
X50667744Y-57527938D01*
X50717945Y-57518362D01*
X50756312Y-57518630D01*
X50800000Y-57514038D01*
X50849902Y-57519283D01*
G37*
G36*
X63549902Y-54979283D02*
G01*
X63594637Y-54979595D01*
X63638460Y-54988590D01*
X63688360Y-54993835D01*
X63730132Y-55007408D01*
X63767723Y-55015124D01*
X63814851Y-55034935D01*
X63868488Y-55052363D01*
X63901099Y-55071191D01*
X63930614Y-55083598D01*
X63978301Y-55115763D01*
X64032511Y-55147061D01*
X64055826Y-55168054D01*
X64077101Y-55182404D01*
X64122183Y-55227802D01*
X64173261Y-55273793D01*
X64188003Y-55294083D01*
X64201608Y-55307784D01*
X64240643Y-55366537D01*
X64284586Y-55427019D01*
X64292221Y-55444168D01*
X64299388Y-55454955D01*
X64328865Y-55526472D01*
X64361621Y-55600042D01*
X64364211Y-55612225D01*
X64366724Y-55618323D01*
X64383292Y-55701997D01*
X64400999Y-55785301D01*
X64400999Y-55974699D01*
X64398115Y-55988269D01*
X64398030Y-55994331D01*
X64379342Y-56076585D01*
X64361621Y-56159958D01*
X64359129Y-56165555D01*
X64359078Y-56165780D01*
X64287210Y-56327197D01*
X64287078Y-56327385D01*
X64284586Y-56332981D01*
X64234480Y-56401946D01*
X64185357Y-56471582D01*
X64180585Y-56476126D01*
X64173261Y-56486207D01*
X64113396Y-56540110D01*
X64057396Y-56593438D01*
X64046464Y-56600376D01*
X64032511Y-56612939D01*
X63967764Y-56650321D01*
X63908211Y-56688114D01*
X63890209Y-56695097D01*
X63868488Y-56707637D01*
X63803115Y-56728878D01*
X63743468Y-56752014D01*
X63718200Y-56756469D01*
X63688360Y-56766165D01*
X63626095Y-56772709D01*
X63569460Y-56782695D01*
X63537459Y-56782025D01*
X63500000Y-56785962D01*
X63443902Y-56780066D01*
X63392799Y-56778996D01*
X63355323Y-56770756D01*
X63311640Y-56766165D01*
X63263917Y-56750659D01*
X63220225Y-56741052D01*
X63179230Y-56723142D01*
X63131512Y-56707637D01*
X63093473Y-56685675D01*
X63058310Y-56670313D01*
X63016337Y-56641141D01*
X62967489Y-56612939D01*
X62939504Y-56587741D01*
X62913215Y-56569470D01*
X62873257Y-56528092D01*
X62826739Y-56486207D01*
X62808296Y-56460823D01*
X62790473Y-56442366D01*
X62755821Y-56388597D01*
X62715414Y-56332981D01*
X62705212Y-56310066D01*
X62694754Y-56293839D01*
X62668789Y-56228261D01*
X62638379Y-56159958D01*
X62634476Y-56141596D01*
X62629707Y-56129551D01*
X62615740Y-56053448D01*
X62599001Y-55974699D01*
X62599001Y-55962246D01*
X62597811Y-55955762D01*
X62599001Y-55870535D01*
X62599001Y-55785301D01*
X62600275Y-55779308D01*
X62600278Y-55779077D01*
X62637015Y-55606246D01*
X62637105Y-55606036D01*
X62638379Y-55600042D01*
X62673042Y-55522188D01*
X62706622Y-55443839D01*
X62710348Y-55438397D01*
X62715414Y-55427019D01*
X62762746Y-55361872D01*
X62806452Y-55298041D01*
X62815706Y-55288979D01*
X62826739Y-55273793D01*
X62882297Y-55223769D01*
X62932693Y-55174417D01*
X62948848Y-55163846D01*
X62967489Y-55147061D01*
X63027026Y-55112687D01*
X63080551Y-55077662D01*
X63104340Y-55068050D01*
X63131512Y-55052363D01*
X63191045Y-55033019D01*
X63244376Y-55011472D01*
X63275820Y-55005474D01*
X63311640Y-54993835D01*
X63367744Y-54987938D01*
X63417945Y-54978362D01*
X63456312Y-54978630D01*
X63500000Y-54974038D01*
X63549902Y-54979283D01*
G37*
G36*
X73709902Y-54979283D02*
G01*
X73754637Y-54979595D01*
X73798460Y-54988590D01*
X73848360Y-54993835D01*
X73890132Y-55007408D01*
X73927723Y-55015124D01*
X73974851Y-55034935D01*
X74028488Y-55052363D01*
X74061099Y-55071191D01*
X74090614Y-55083598D01*
X74138301Y-55115763D01*
X74192511Y-55147061D01*
X74215826Y-55168054D01*
X74237101Y-55182404D01*
X74282183Y-55227802D01*
X74333261Y-55273793D01*
X74348003Y-55294083D01*
X74361608Y-55307784D01*
X74400643Y-55366537D01*
X74444586Y-55427019D01*
X74452221Y-55444168D01*
X74459388Y-55454955D01*
X74488865Y-55526472D01*
X74521621Y-55600042D01*
X74524211Y-55612225D01*
X74526724Y-55618323D01*
X74543292Y-55701997D01*
X74560999Y-55785301D01*
X74560999Y-55974699D01*
X74558115Y-55988269D01*
X74558030Y-55994331D01*
X74539342Y-56076585D01*
X74521621Y-56159958D01*
X74519129Y-56165555D01*
X74519078Y-56165780D01*
X74447210Y-56327197D01*
X74447078Y-56327385D01*
X74444586Y-56332981D01*
X74394480Y-56401946D01*
X74345357Y-56471582D01*
X74340585Y-56476126D01*
X74333261Y-56486207D01*
X74273396Y-56540110D01*
X74217396Y-56593438D01*
X74206464Y-56600376D01*
X74192511Y-56612939D01*
X74127764Y-56650321D01*
X74068211Y-56688114D01*
X74050209Y-56695097D01*
X74028488Y-56707637D01*
X73963115Y-56728878D01*
X73903468Y-56752014D01*
X73878200Y-56756469D01*
X73848360Y-56766165D01*
X73786095Y-56772709D01*
X73729460Y-56782695D01*
X73697459Y-56782025D01*
X73660000Y-56785962D01*
X73603902Y-56780066D01*
X73552799Y-56778996D01*
X73515323Y-56770756D01*
X73471640Y-56766165D01*
X73423917Y-56750659D01*
X73380225Y-56741052D01*
X73339230Y-56723142D01*
X73291512Y-56707637D01*
X73253473Y-56685675D01*
X73218310Y-56670313D01*
X73176337Y-56641141D01*
X73127489Y-56612939D01*
X73099504Y-56587741D01*
X73073215Y-56569470D01*
X73033257Y-56528092D01*
X72986739Y-56486207D01*
X72968296Y-56460823D01*
X72950473Y-56442366D01*
X72915821Y-56388597D01*
X72875414Y-56332981D01*
X72865212Y-56310066D01*
X72854754Y-56293839D01*
X72828789Y-56228261D01*
X72798379Y-56159958D01*
X72794476Y-56141596D01*
X72789707Y-56129551D01*
X72775740Y-56053448D01*
X72759001Y-55974699D01*
X72759001Y-55962246D01*
X72757811Y-55955762D01*
X72759001Y-55870535D01*
X72759001Y-55785301D01*
X72760275Y-55779308D01*
X72760278Y-55779077D01*
X72797015Y-55606246D01*
X72797105Y-55606036D01*
X72798379Y-55600042D01*
X72833042Y-55522188D01*
X72866622Y-55443839D01*
X72870348Y-55438397D01*
X72875414Y-55427019D01*
X72922746Y-55361872D01*
X72966452Y-55298041D01*
X72975706Y-55288979D01*
X72986739Y-55273793D01*
X73042297Y-55223769D01*
X73092693Y-55174417D01*
X73108848Y-55163846D01*
X73127489Y-55147061D01*
X73187026Y-55112687D01*
X73240551Y-55077662D01*
X73264340Y-55068050D01*
X73291512Y-55052363D01*
X73351045Y-55033019D01*
X73404376Y-55011472D01*
X73435820Y-55005474D01*
X73471640Y-54993835D01*
X73527744Y-54987938D01*
X73577945Y-54978362D01*
X73616312Y-54978630D01*
X73660000Y-54974038D01*
X73709902Y-54979283D01*
G37*
G36*
X61829899Y-54981959D02*
G01*
X61846769Y-54993231D01*
X61858041Y-55010101D01*
X61864448Y-55042312D01*
X61864448Y-56717688D01*
X61861999Y-56730000D01*
X61858041Y-56749899D01*
X61846769Y-56766769D01*
X61829899Y-56778041D01*
X61810000Y-56781999D01*
X61797688Y-56784448D01*
X60122312Y-56784448D01*
X60090101Y-56778041D01*
X60073231Y-56766769D01*
X60061959Y-56749899D01*
X60055552Y-56717688D01*
X60055552Y-55042312D01*
X60061959Y-55010101D01*
X60073231Y-54993231D01*
X60090101Y-54981959D01*
X60122312Y-54975552D01*
X61797688Y-54975552D01*
X61829899Y-54981959D01*
G37*
G36*
X51669899Y-54981959D02*
G01*
X51686769Y-54993231D01*
X51698041Y-55010101D01*
X51704448Y-55042312D01*
X51704448Y-56717688D01*
X51701999Y-56730000D01*
X51698041Y-56749899D01*
X51686769Y-56766769D01*
X51669899Y-56778041D01*
X51650000Y-56781999D01*
X51637688Y-56784448D01*
X49962312Y-56784448D01*
X49930101Y-56778041D01*
X49913231Y-56766769D01*
X49901959Y-56749899D01*
X49895552Y-56717688D01*
X49895552Y-55042312D01*
X49901959Y-55010101D01*
X49913231Y-54993231D01*
X49930101Y-54981959D01*
X49962312Y-54975552D01*
X51637688Y-54975552D01*
X51669899Y-54981959D01*
G37*
G36*
X50849902Y-52439283D02*
G01*
X50894637Y-52439595D01*
X50938460Y-52448590D01*
X50988360Y-52453835D01*
X51030132Y-52467408D01*
X51067723Y-52475124D01*
X51114851Y-52494935D01*
X51168488Y-52512363D01*
X51201099Y-52531191D01*
X51230614Y-52543598D01*
X51278301Y-52575763D01*
X51332511Y-52607061D01*
X51355826Y-52628054D01*
X51377101Y-52642404D01*
X51422183Y-52687802D01*
X51473261Y-52733793D01*
X51488003Y-52754083D01*
X51501608Y-52767784D01*
X51540643Y-52826537D01*
X51584586Y-52887019D01*
X51592221Y-52904168D01*
X51599388Y-52914955D01*
X51628865Y-52986472D01*
X51661621Y-53060042D01*
X51664211Y-53072225D01*
X51666724Y-53078323D01*
X51683292Y-53161997D01*
X51700999Y-53245301D01*
X51700999Y-53434699D01*
X51698115Y-53448269D01*
X51698030Y-53454331D01*
X51679342Y-53536585D01*
X51661621Y-53619958D01*
X51659129Y-53625555D01*
X51659078Y-53625780D01*
X51587210Y-53787197D01*
X51587078Y-53787385D01*
X51584586Y-53792981D01*
X51534480Y-53861946D01*
X51485357Y-53931582D01*
X51480585Y-53936126D01*
X51473261Y-53946207D01*
X51413396Y-54000110D01*
X51357396Y-54053438D01*
X51346464Y-54060376D01*
X51332511Y-54072939D01*
X51267764Y-54110321D01*
X51208211Y-54148114D01*
X51190209Y-54155097D01*
X51168488Y-54167637D01*
X51103115Y-54188878D01*
X51043468Y-54212014D01*
X51018200Y-54216469D01*
X50988360Y-54226165D01*
X50926095Y-54232709D01*
X50869460Y-54242695D01*
X50837459Y-54242025D01*
X50800000Y-54245962D01*
X50743902Y-54240066D01*
X50692799Y-54238996D01*
X50655323Y-54230756D01*
X50611640Y-54226165D01*
X50563917Y-54210659D01*
X50520225Y-54201052D01*
X50479230Y-54183142D01*
X50431512Y-54167637D01*
X50393473Y-54145675D01*
X50358310Y-54130313D01*
X50316337Y-54101141D01*
X50267489Y-54072939D01*
X50239504Y-54047741D01*
X50213215Y-54029470D01*
X50173257Y-53988092D01*
X50126739Y-53946207D01*
X50108296Y-53920823D01*
X50090473Y-53902366D01*
X50055821Y-53848597D01*
X50015414Y-53792981D01*
X50005212Y-53770066D01*
X49994754Y-53753839D01*
X49968789Y-53688261D01*
X49938379Y-53619958D01*
X49934476Y-53601596D01*
X49929707Y-53589551D01*
X49915740Y-53513448D01*
X49899001Y-53434699D01*
X49899001Y-53422246D01*
X49897811Y-53415762D01*
X49899001Y-53330535D01*
X49899001Y-53245301D01*
X49900275Y-53239308D01*
X49900278Y-53239077D01*
X49937015Y-53066246D01*
X49937105Y-53066036D01*
X49938379Y-53060042D01*
X49973042Y-52982188D01*
X50006622Y-52903839D01*
X50010348Y-52898397D01*
X50015414Y-52887019D01*
X50062746Y-52821872D01*
X50106452Y-52758041D01*
X50115706Y-52748979D01*
X50126739Y-52733793D01*
X50182297Y-52683769D01*
X50232693Y-52634417D01*
X50248848Y-52623846D01*
X50267489Y-52607061D01*
X50327026Y-52572687D01*
X50380551Y-52537662D01*
X50404340Y-52528050D01*
X50431512Y-52512363D01*
X50491045Y-52493019D01*
X50544376Y-52471472D01*
X50575820Y-52465474D01*
X50611640Y-52453835D01*
X50667744Y-52447938D01*
X50717945Y-52438362D01*
X50756312Y-52438630D01*
X50800000Y-52434038D01*
X50849902Y-52439283D01*
G37*
G36*
X73709902Y-52439283D02*
G01*
X73754637Y-52439595D01*
X73798460Y-52448590D01*
X73848360Y-52453835D01*
X73890132Y-52467408D01*
X73927723Y-52475124D01*
X73974851Y-52494935D01*
X74028488Y-52512363D01*
X74061099Y-52531191D01*
X74090614Y-52543598D01*
X74138301Y-52575763D01*
X74192511Y-52607061D01*
X74215826Y-52628054D01*
X74237101Y-52642404D01*
X74282183Y-52687802D01*
X74333261Y-52733793D01*
X74348003Y-52754083D01*
X74361608Y-52767784D01*
X74400643Y-52826537D01*
X74444586Y-52887019D01*
X74452221Y-52904168D01*
X74459388Y-52914955D01*
X74488865Y-52986472D01*
X74521621Y-53060042D01*
X74524211Y-53072225D01*
X74526724Y-53078323D01*
X74543292Y-53161997D01*
X74560999Y-53245301D01*
X74560999Y-53434699D01*
X74558115Y-53448269D01*
X74558030Y-53454331D01*
X74539342Y-53536585D01*
X74521621Y-53619958D01*
X74519129Y-53625555D01*
X74519078Y-53625780D01*
X74447210Y-53787197D01*
X74447078Y-53787385D01*
X74444586Y-53792981D01*
X74394480Y-53861946D01*
X74345357Y-53931582D01*
X74340585Y-53936126D01*
X74333261Y-53946207D01*
X74273396Y-54000110D01*
X74217396Y-54053438D01*
X74206464Y-54060376D01*
X74192511Y-54072939D01*
X74127764Y-54110321D01*
X74068211Y-54148114D01*
X74050209Y-54155097D01*
X74028488Y-54167637D01*
X73963115Y-54188878D01*
X73903468Y-54212014D01*
X73878200Y-54216469D01*
X73848360Y-54226165D01*
X73786095Y-54232709D01*
X73729460Y-54242695D01*
X73697459Y-54242025D01*
X73660000Y-54245962D01*
X73603902Y-54240066D01*
X73552799Y-54238996D01*
X73515323Y-54230756D01*
X73471640Y-54226165D01*
X73423917Y-54210659D01*
X73380225Y-54201052D01*
X73339230Y-54183142D01*
X73291512Y-54167637D01*
X73253473Y-54145675D01*
X73218310Y-54130313D01*
X73176337Y-54101141D01*
X73127489Y-54072939D01*
X73099504Y-54047741D01*
X73073215Y-54029470D01*
X73033257Y-53988092D01*
X72986739Y-53946207D01*
X72968296Y-53920823D01*
X72950473Y-53902366D01*
X72915821Y-53848597D01*
X72875414Y-53792981D01*
X72865212Y-53770066D01*
X72854754Y-53753839D01*
X72828789Y-53688261D01*
X72798379Y-53619958D01*
X72794476Y-53601596D01*
X72789707Y-53589551D01*
X72775740Y-53513448D01*
X72759001Y-53434699D01*
X72759001Y-53422246D01*
X72757811Y-53415762D01*
X72759001Y-53330535D01*
X72759001Y-53245301D01*
X72760275Y-53239308D01*
X72760278Y-53239077D01*
X72797015Y-53066246D01*
X72797105Y-53066036D01*
X72798379Y-53060042D01*
X72833042Y-52982188D01*
X72866622Y-52903839D01*
X72870348Y-52898397D01*
X72875414Y-52887019D01*
X72922746Y-52821872D01*
X72966452Y-52758041D01*
X72975706Y-52748979D01*
X72986739Y-52733793D01*
X73042297Y-52683769D01*
X73092693Y-52634417D01*
X73108848Y-52623846D01*
X73127489Y-52607061D01*
X73187026Y-52572687D01*
X73240551Y-52537662D01*
X73264340Y-52528050D01*
X73291512Y-52512363D01*
X73351045Y-52493019D01*
X73404376Y-52471472D01*
X73435820Y-52465474D01*
X73471640Y-52453835D01*
X73527744Y-52447938D01*
X73577945Y-52438362D01*
X73616312Y-52438630D01*
X73660000Y-52434038D01*
X73709902Y-52439283D01*
G37*
G36*
X50849902Y-49899283D02*
G01*
X50894637Y-49899595D01*
X50938460Y-49908590D01*
X50988360Y-49913835D01*
X51030132Y-49927408D01*
X51067723Y-49935124D01*
X51114851Y-49954935D01*
X51168488Y-49972363D01*
X51201099Y-49991191D01*
X51230614Y-50003598D01*
X51278301Y-50035763D01*
X51332511Y-50067061D01*
X51355826Y-50088054D01*
X51377101Y-50102404D01*
X51422183Y-50147802D01*
X51473261Y-50193793D01*
X51488003Y-50214083D01*
X51501608Y-50227784D01*
X51540643Y-50286537D01*
X51584586Y-50347019D01*
X51592221Y-50364168D01*
X51599388Y-50374955D01*
X51628865Y-50446472D01*
X51661621Y-50520042D01*
X51664211Y-50532225D01*
X51666724Y-50538323D01*
X51683292Y-50621997D01*
X51700999Y-50705301D01*
X51700999Y-50894699D01*
X51698115Y-50908269D01*
X51698030Y-50914331D01*
X51679342Y-50996585D01*
X51661621Y-51079958D01*
X51659129Y-51085555D01*
X51659078Y-51085780D01*
X51587210Y-51247197D01*
X51587078Y-51247385D01*
X51584586Y-51252981D01*
X51534480Y-51321946D01*
X51485357Y-51391582D01*
X51480585Y-51396126D01*
X51473261Y-51406207D01*
X51413396Y-51460110D01*
X51357396Y-51513438D01*
X51346464Y-51520376D01*
X51332511Y-51532939D01*
X51267764Y-51570321D01*
X51208211Y-51608114D01*
X51190209Y-51615097D01*
X51168488Y-51627637D01*
X51103115Y-51648878D01*
X51043468Y-51672014D01*
X51018200Y-51676469D01*
X50988360Y-51686165D01*
X50926095Y-51692709D01*
X50869460Y-51702695D01*
X50837459Y-51702025D01*
X50800000Y-51705962D01*
X50743902Y-51700066D01*
X50692799Y-51698996D01*
X50655323Y-51690756D01*
X50611640Y-51686165D01*
X50563917Y-51670659D01*
X50520225Y-51661052D01*
X50479230Y-51643142D01*
X50431512Y-51627637D01*
X50393473Y-51605675D01*
X50358310Y-51590313D01*
X50316337Y-51561141D01*
X50267489Y-51532939D01*
X50239504Y-51507741D01*
X50213215Y-51489470D01*
X50173257Y-51448092D01*
X50126739Y-51406207D01*
X50108296Y-51380823D01*
X50090473Y-51362366D01*
X50055821Y-51308597D01*
X50015414Y-51252981D01*
X50005212Y-51230066D01*
X49994754Y-51213839D01*
X49968789Y-51148261D01*
X49938379Y-51079958D01*
X49934476Y-51061596D01*
X49929707Y-51049551D01*
X49915740Y-50973448D01*
X49899001Y-50894699D01*
X49899001Y-50882246D01*
X49897811Y-50875762D01*
X49899001Y-50790535D01*
X49899001Y-50705301D01*
X49900275Y-50699308D01*
X49900278Y-50699077D01*
X49937015Y-50526246D01*
X49937105Y-50526036D01*
X49938379Y-50520042D01*
X49973042Y-50442188D01*
X50006622Y-50363839D01*
X50010348Y-50358397D01*
X50015414Y-50347019D01*
X50062746Y-50281872D01*
X50106452Y-50218041D01*
X50115706Y-50208979D01*
X50126739Y-50193793D01*
X50182297Y-50143769D01*
X50232693Y-50094417D01*
X50248848Y-50083846D01*
X50267489Y-50067061D01*
X50327026Y-50032687D01*
X50380551Y-49997662D01*
X50404340Y-49988050D01*
X50431512Y-49972363D01*
X50491045Y-49953019D01*
X50544376Y-49931472D01*
X50575820Y-49925474D01*
X50611640Y-49913835D01*
X50667744Y-49907938D01*
X50717945Y-49898362D01*
X50756312Y-49898630D01*
X50800000Y-49894038D01*
X50849902Y-49899283D01*
G37*
G36*
X73709902Y-49899283D02*
G01*
X73754637Y-49899595D01*
X73798460Y-49908590D01*
X73848360Y-49913835D01*
X73890132Y-49927408D01*
X73927723Y-49935124D01*
X73974851Y-49954935D01*
X74028488Y-49972363D01*
X74061099Y-49991191D01*
X74090614Y-50003598D01*
X74138301Y-50035763D01*
X74192511Y-50067061D01*
X74215826Y-50088054D01*
X74237101Y-50102404D01*
X74282183Y-50147802D01*
X74333261Y-50193793D01*
X74348003Y-50214083D01*
X74361608Y-50227784D01*
X74400643Y-50286537D01*
X74444586Y-50347019D01*
X74452221Y-50364168D01*
X74459388Y-50374955D01*
X74488865Y-50446472D01*
X74521621Y-50520042D01*
X74524211Y-50532225D01*
X74526724Y-50538323D01*
X74543292Y-50621997D01*
X74560999Y-50705301D01*
X74560999Y-50894699D01*
X74558115Y-50908269D01*
X74558030Y-50914331D01*
X74539342Y-50996585D01*
X74521621Y-51079958D01*
X74519129Y-51085555D01*
X74519078Y-51085780D01*
X74447210Y-51247197D01*
X74447078Y-51247385D01*
X74444586Y-51252981D01*
X74394480Y-51321946D01*
X74345357Y-51391582D01*
X74340585Y-51396126D01*
X74333261Y-51406207D01*
X74273396Y-51460110D01*
X74217396Y-51513438D01*
X74206464Y-51520376D01*
X74192511Y-51532939D01*
X74127764Y-51570321D01*
X74068211Y-51608114D01*
X74050209Y-51615097D01*
X74028488Y-51627637D01*
X73963115Y-51648878D01*
X73903468Y-51672014D01*
X73878200Y-51676469D01*
X73848360Y-51686165D01*
X73786095Y-51692709D01*
X73729460Y-51702695D01*
X73697459Y-51702025D01*
X73660000Y-51705962D01*
X73603902Y-51700066D01*
X73552799Y-51698996D01*
X73515323Y-51690756D01*
X73471640Y-51686165D01*
X73423917Y-51670659D01*
X73380225Y-51661052D01*
X73339230Y-51643142D01*
X73291512Y-51627637D01*
X73253473Y-51605675D01*
X73218310Y-51590313D01*
X73176337Y-51561141D01*
X73127489Y-51532939D01*
X73099504Y-51507741D01*
X73073215Y-51489470D01*
X73033257Y-51448092D01*
X72986739Y-51406207D01*
X72968296Y-51380823D01*
X72950473Y-51362366D01*
X72915821Y-51308597D01*
X72875414Y-51252981D01*
X72865212Y-51230066D01*
X72854754Y-51213839D01*
X72828789Y-51148261D01*
X72798379Y-51079958D01*
X72794476Y-51061596D01*
X72789707Y-51049551D01*
X72775740Y-50973448D01*
X72759001Y-50894699D01*
X72759001Y-50882246D01*
X72757811Y-50875762D01*
X72759001Y-50790535D01*
X72759001Y-50705301D01*
X72760275Y-50699308D01*
X72760278Y-50699077D01*
X72797015Y-50526246D01*
X72797105Y-50526036D01*
X72798379Y-50520042D01*
X72833042Y-50442188D01*
X72866622Y-50363839D01*
X72870348Y-50358397D01*
X72875414Y-50347019D01*
X72922746Y-50281872D01*
X72966452Y-50218041D01*
X72975706Y-50208979D01*
X72986739Y-50193793D01*
X73042297Y-50143769D01*
X73092693Y-50094417D01*
X73108848Y-50083846D01*
X73127489Y-50067061D01*
X73187026Y-50032687D01*
X73240551Y-49997662D01*
X73264340Y-49988050D01*
X73291512Y-49972363D01*
X73351045Y-49953019D01*
X73404376Y-49931472D01*
X73435820Y-49925474D01*
X73471640Y-49913835D01*
X73527744Y-49907938D01*
X73577945Y-49898362D01*
X73616312Y-49898630D01*
X73660000Y-49894038D01*
X73709902Y-49899283D01*
G37*
M02*
