G04 #@! TF.GenerationSoftware,KiCad,Pcbnew,(5.99.0-8453-g50e22de3ba)*
G04 #@! TF.CreationDate,2021-01-21T16:08:03-08:00*
G04 #@! TF.ProjectId,ATF1502AS-EVB,41544631-3530-4324-9153-2d4556422e6b,rev?*
G04 #@! TF.SameCoordinates,Original*
G04 #@! TF.FileFunction,Legend,Bot*
G04 #@! TF.FilePolarity,Positive*
%FSLAX46Y46*%
G04 Gerber Fmt 4.6, Leading zero omitted, Abs format (unit mm)*
G04 Created by KiCad (PCBNEW (5.99.0-8453-g50e22de3ba)) date 2021-01-21 16:08:03*
%MOMM*%
%LPD*%
G01*
G04 APERTURE LIST*
%ADD10C,0.140000*%
%ADD11C,0.200000*%
%ADD12C,0.120000*%
%ADD13C,0.203200*%
%ADD14C,0.254000*%
%ADD15C,0.010000*%
G04 APERTURE END LIST*
D10*
X56230000Y-88130000D02*
X68030000Y-88130000D01*
X68030000Y-88130000D02*
X68030000Y-91930000D01*
X68030000Y-91930000D02*
X56230000Y-91930000D01*
X56230000Y-91930000D02*
X56230000Y-88130000D01*
D11*
X61109523Y-89491666D02*
X60633333Y-89491666D01*
X61204761Y-89777380D02*
X60871428Y-88777380D01*
X60538095Y-89777380D01*
X60252380Y-89729761D02*
X60109523Y-89777380D01*
X59871428Y-89777380D01*
X59776190Y-89729761D01*
X59728571Y-89682142D01*
X59680952Y-89586904D01*
X59680952Y-89491666D01*
X59728571Y-89396428D01*
X59776190Y-89348809D01*
X59871428Y-89301190D01*
X60061904Y-89253571D01*
X60157142Y-89205952D01*
X60204761Y-89158333D01*
X60252380Y-89063095D01*
X60252380Y-88967857D01*
X60204761Y-88872619D01*
X60157142Y-88825000D01*
X60061904Y-88777380D01*
X59823809Y-88777380D01*
X59680952Y-88825000D01*
X59395238Y-88777380D02*
X59061904Y-89777380D01*
X58728571Y-88777380D01*
X58109523Y-90158333D02*
X58157142Y-90110714D01*
X58252380Y-89967857D01*
X58300000Y-89872619D01*
X58347619Y-89729761D01*
X58395238Y-89491666D01*
X58395238Y-89301190D01*
X58347619Y-89063095D01*
X58300000Y-88920238D01*
X58252380Y-88825000D01*
X58157142Y-88682142D01*
X58109523Y-88634523D01*
X57252380Y-89777380D02*
X57728571Y-89777380D01*
X57728571Y-88777380D01*
X57014285Y-90158333D02*
X56966666Y-90110714D01*
X56871428Y-89967857D01*
X56823809Y-89872619D01*
X56776190Y-89729761D01*
X56728571Y-89491666D01*
X56728571Y-89301190D01*
X56776190Y-89063095D01*
X56823809Y-88920238D01*
X56871428Y-88825000D01*
X56966666Y-88682142D01*
X57014285Y-88634523D01*
X61109523Y-91101666D02*
X60633333Y-91101666D01*
X61204761Y-91387380D02*
X60871428Y-90387380D01*
X60538095Y-91387380D01*
X60252380Y-91339761D02*
X60109523Y-91387380D01*
X59871428Y-91387380D01*
X59776190Y-91339761D01*
X59728571Y-91292142D01*
X59680952Y-91196904D01*
X59680952Y-91101666D01*
X59728571Y-91006428D01*
X59776190Y-90958809D01*
X59871428Y-90911190D01*
X60061904Y-90863571D01*
X60157142Y-90815952D01*
X60204761Y-90768333D01*
X60252380Y-90673095D01*
X60252380Y-90577857D01*
X60204761Y-90482619D01*
X60157142Y-90435000D01*
X60061904Y-90387380D01*
X59823809Y-90387380D01*
X59680952Y-90435000D01*
D12*
X63030000Y-90330000D02*
X62030000Y-90330000D01*
X62030000Y-90330000D02*
X62030000Y-91330000D01*
X62030000Y-91330000D02*
X63030000Y-91330000D01*
X63030000Y-91330000D02*
X63030000Y-90330000D01*
G36*
X63030000Y-90330000D02*
G01*
X62030000Y-90330000D01*
X62030000Y-91330000D01*
X63030000Y-91330000D01*
X63030000Y-90330000D01*
G37*
X63030000Y-88730000D02*
X62030000Y-88730000D01*
X62030000Y-88730000D02*
X62030000Y-89730000D01*
X62030000Y-89730000D02*
X63030000Y-89730000D01*
X63030000Y-89730000D02*
X63030000Y-88730000D01*
G36*
X63030000Y-88730000D02*
G01*
X62030000Y-88730000D01*
X62030000Y-89730000D01*
X63030000Y-89730000D01*
X63030000Y-88730000D01*
G37*
D11*
X67521904Y-89396428D02*
X66760000Y-89396428D01*
X67140952Y-89777380D02*
X67140952Y-89015476D01*
X66379047Y-88777380D02*
X65760000Y-88777380D01*
X66093333Y-89158333D01*
X65950476Y-89158333D01*
X65855238Y-89205952D01*
X65807619Y-89253571D01*
X65760000Y-89348809D01*
X65760000Y-89586904D01*
X65807619Y-89682142D01*
X65855238Y-89729761D01*
X65950476Y-89777380D01*
X66236190Y-89777380D01*
X66331428Y-89729761D01*
X66379047Y-89682142D01*
X65474285Y-88777380D02*
X65140952Y-89777380D01*
X64807619Y-88777380D01*
X64569523Y-88777380D02*
X63950476Y-88777380D01*
X64283809Y-89158333D01*
X64140952Y-89158333D01*
X64045714Y-89205952D01*
X63998095Y-89253571D01*
X63950476Y-89348809D01*
X63950476Y-89586904D01*
X63998095Y-89682142D01*
X64045714Y-89729761D01*
X64140952Y-89777380D01*
X64426666Y-89777380D01*
X64521904Y-89729761D01*
X64569523Y-89682142D01*
X66569523Y-91006428D02*
X65807619Y-91006428D01*
X66188571Y-91387380D02*
X66188571Y-90625476D01*
X64855238Y-90387380D02*
X65331428Y-90387380D01*
X65379047Y-90863571D01*
X65331428Y-90815952D01*
X65236190Y-90768333D01*
X64998095Y-90768333D01*
X64902857Y-90815952D01*
X64855238Y-90863571D01*
X64807619Y-90958809D01*
X64807619Y-91196904D01*
X64855238Y-91292142D01*
X64902857Y-91339761D01*
X64998095Y-91387380D01*
X65236190Y-91387380D01*
X65331428Y-91339761D01*
X65379047Y-91292142D01*
X64521904Y-90387380D02*
X64188571Y-91387380D01*
X63855238Y-90387380D01*
D13*
X71882000Y-72390000D02*
X70485000Y-72390000D01*
X66850380Y-60270571D02*
X67527714Y-60270571D01*
X67866380Y-60270571D02*
X67818000Y-60318952D01*
X67769619Y-60270571D01*
X67818000Y-60222190D01*
X67866380Y-60270571D01*
X67769619Y-60270571D01*
X67527714Y-59786761D02*
X66850380Y-59786761D01*
X67430952Y-59786761D02*
X67479333Y-59738380D01*
X67527714Y-59641619D01*
X67527714Y-59496476D01*
X67479333Y-59399714D01*
X67382571Y-59351333D01*
X66850380Y-59351333D01*
X67527714Y-58867523D02*
X66511714Y-58867523D01*
X67479333Y-58867523D02*
X67527714Y-58770761D01*
X67527714Y-58577238D01*
X67479333Y-58480476D01*
X67430952Y-58432095D01*
X67334190Y-58383714D01*
X67043904Y-58383714D01*
X66947142Y-58432095D01*
X66898761Y-58480476D01*
X66850380Y-58577238D01*
X66850380Y-58770761D01*
X66898761Y-58867523D01*
X67527714Y-57512857D02*
X66850380Y-57512857D01*
X67527714Y-57948285D02*
X66995523Y-57948285D01*
X66898761Y-57899904D01*
X66850380Y-57803142D01*
X66850380Y-57658000D01*
X66898761Y-57561238D01*
X66947142Y-57512857D01*
X67527714Y-57174190D02*
X67527714Y-56787142D01*
X67866380Y-57029047D02*
X66995523Y-57029047D01*
X66898761Y-56980666D01*
X66850380Y-56883904D01*
X66850380Y-56787142D01*
X66850380Y-55529238D02*
X66898761Y-55626000D01*
X66947142Y-55674380D01*
X67043904Y-55722761D01*
X67334190Y-55722761D01*
X67430952Y-55674380D01*
X67479333Y-55626000D01*
X67527714Y-55529238D01*
X67527714Y-55384095D01*
X67479333Y-55287333D01*
X67430952Y-55238952D01*
X67334190Y-55190571D01*
X67043904Y-55190571D01*
X66947142Y-55238952D01*
X66898761Y-55287333D01*
X66850380Y-55384095D01*
X66850380Y-55529238D01*
X67527714Y-54755142D02*
X66850380Y-54755142D01*
X67430952Y-54755142D02*
X67479333Y-54706761D01*
X67527714Y-54610000D01*
X67527714Y-54464857D01*
X67479333Y-54368095D01*
X67382571Y-54319714D01*
X66850380Y-54319714D01*
X66850380Y-53690761D02*
X66898761Y-53787523D01*
X66995523Y-53835904D01*
X67866380Y-53835904D01*
X67527714Y-53400476D02*
X66850380Y-53158571D01*
X67527714Y-52916666D02*
X66850380Y-53158571D01*
X66608476Y-53255333D01*
X66560095Y-53303714D01*
X66511714Y-53400476D01*
X67310000Y-62230000D02*
X67310000Y-60960000D01*
X71882000Y-62230000D02*
X67310000Y-62230000D01*
X71882000Y-72390000D02*
X71882000Y-62230000D01*
D14*
X71629814Y-88440380D02*
X71581433Y-88392000D01*
X71484671Y-88343619D01*
X71242766Y-88343619D01*
X71146004Y-88392000D01*
X71097623Y-88440380D01*
X71049242Y-88537142D01*
X71049242Y-88633904D01*
X71097623Y-88779047D01*
X71678195Y-89359619D01*
X71049242Y-89359619D01*
X70468671Y-88779047D02*
X70565433Y-88730666D01*
X70613814Y-88682285D01*
X70662195Y-88585523D01*
X70662195Y-88537142D01*
X70613814Y-88440380D01*
X70565433Y-88392000D01*
X70468671Y-88343619D01*
X70275147Y-88343619D01*
X70178385Y-88392000D01*
X70130004Y-88440380D01*
X70081623Y-88537142D01*
X70081623Y-88585523D01*
X70130004Y-88682285D01*
X70178385Y-88730666D01*
X70275147Y-88779047D01*
X70468671Y-88779047D01*
X70565433Y-88827428D01*
X70613814Y-88875809D01*
X70662195Y-88972571D01*
X70662195Y-89166095D01*
X70613814Y-89262857D01*
X70565433Y-89311238D01*
X70468671Y-89359619D01*
X70275147Y-89359619D01*
X70178385Y-89311238D01*
X70130004Y-89262857D01*
X70081623Y-89166095D01*
X70081623Y-88972571D01*
X70130004Y-88875809D01*
X70178385Y-88827428D01*
X70275147Y-88779047D01*
X71629814Y-93520380D02*
X71581433Y-93472000D01*
X71484671Y-93423619D01*
X71242766Y-93423619D01*
X71146004Y-93472000D01*
X71097624Y-93520380D01*
X71049243Y-93617142D01*
X71049243Y-93713904D01*
X71097624Y-93859047D01*
X71678195Y-94439619D01*
X71049243Y-94439619D01*
X70178385Y-93423619D02*
X70371909Y-93423619D01*
X70468671Y-93472000D01*
X70517052Y-93520380D01*
X70613814Y-93665523D01*
X70662195Y-93859047D01*
X70662195Y-94246095D01*
X70613814Y-94342857D01*
X70565433Y-94391238D01*
X70468671Y-94439619D01*
X70275147Y-94439619D01*
X70178385Y-94391238D01*
X70130004Y-94342857D01*
X70081624Y-94246095D01*
X70081624Y-94004190D01*
X70130004Y-93907428D01*
X70178385Y-93859047D01*
X70275147Y-93810666D01*
X70468671Y-93810666D01*
X70565433Y-93859047D01*
X70613814Y-93907428D01*
X70662195Y-94004190D01*
X68920481Y-93375238D02*
X69791338Y-94681523D01*
X68726957Y-93423619D02*
X68146385Y-93423619D01*
X68436671Y-94439619D02*
X68436671Y-93423619D01*
X67227147Y-94342857D02*
X67275528Y-94391238D01*
X67420671Y-94439619D01*
X67517433Y-94439619D01*
X67662576Y-94391238D01*
X67759338Y-94294476D01*
X67807719Y-94197714D01*
X67856100Y-94004190D01*
X67856100Y-93859047D01*
X67807719Y-93665523D01*
X67759338Y-93568761D01*
X67662576Y-93472000D01*
X67517433Y-93423619D01*
X67420671Y-93423619D01*
X67275528Y-93472000D01*
X67227147Y-93520380D01*
X66791719Y-94439619D02*
X66791719Y-93423619D01*
X66211147Y-94439619D02*
X66646576Y-93859047D01*
X66211147Y-93423619D02*
X66791719Y-94004190D01*
X71678195Y-83263619D02*
X71049242Y-83263619D01*
X71387909Y-83650666D01*
X71242766Y-83650666D01*
X71146004Y-83699047D01*
X71097623Y-83747428D01*
X71049242Y-83844190D01*
X71049242Y-84086095D01*
X71097623Y-84182857D01*
X71146004Y-84231238D01*
X71242766Y-84279619D01*
X71533052Y-84279619D01*
X71629814Y-84231238D01*
X71678195Y-84182857D01*
X70081623Y-84279619D02*
X70662195Y-84279619D01*
X70371909Y-84279619D02*
X70371909Y-83263619D01*
X70468671Y-83408761D01*
X70565433Y-83505523D01*
X70662195Y-83553904D01*
X71678195Y-78183619D02*
X71049242Y-78183619D01*
X71387909Y-78570666D01*
X71242766Y-78570666D01*
X71146004Y-78619047D01*
X71097623Y-78667428D01*
X71049242Y-78764190D01*
X71049242Y-79006095D01*
X71097623Y-79102857D01*
X71146004Y-79151238D01*
X71242766Y-79199619D01*
X71533052Y-79199619D01*
X71629814Y-79151238D01*
X71678195Y-79102857D01*
X70710576Y-78183619D02*
X70081623Y-78183619D01*
X70420290Y-78570666D01*
X70275147Y-78570666D01*
X70178385Y-78619047D01*
X70130004Y-78667428D01*
X70081623Y-78764190D01*
X70081623Y-79006095D01*
X70130004Y-79102857D01*
X70178385Y-79151238D01*
X70275147Y-79199619D01*
X70565433Y-79199619D01*
X70662195Y-79151238D01*
X70710576Y-79102857D01*
X71533052Y-50243619D02*
X71194385Y-51259619D01*
X70855718Y-50243619D01*
X69936480Y-51162857D02*
X69984861Y-51211238D01*
X70130004Y-51259619D01*
X70226766Y-51259619D01*
X70371909Y-51211238D01*
X70468671Y-51114476D01*
X70517052Y-51017714D01*
X70565433Y-50824190D01*
X70565433Y-50679047D01*
X70517052Y-50485523D01*
X70468671Y-50388761D01*
X70371909Y-50292000D01*
X70226766Y-50243619D01*
X70130004Y-50243619D01*
X69984861Y-50292000D01*
X69936480Y-50340380D01*
X68920480Y-51162857D02*
X68968861Y-51211238D01*
X69114004Y-51259619D01*
X69210766Y-51259619D01*
X69355909Y-51211238D01*
X69452671Y-51114476D01*
X69501052Y-51017714D01*
X69549433Y-50824190D01*
X69549433Y-50679047D01*
X69501052Y-50485523D01*
X69452671Y-50388761D01*
X69355909Y-50292000D01*
X69210766Y-50243619D01*
X69114004Y-50243619D01*
X68968861Y-50292000D01*
X68920480Y-50340380D01*
X71049242Y-52832000D02*
X71146004Y-52783619D01*
X71291147Y-52783619D01*
X71436290Y-52832000D01*
X71533052Y-52928761D01*
X71581433Y-53025523D01*
X71629814Y-53219047D01*
X71629814Y-53364190D01*
X71581433Y-53557714D01*
X71533052Y-53654476D01*
X71436290Y-53751238D01*
X71291147Y-53799619D01*
X71194385Y-53799619D01*
X71049242Y-53751238D01*
X71000861Y-53702857D01*
X71000861Y-53364190D01*
X71194385Y-53364190D01*
X70565433Y-53799619D02*
X70565433Y-52783619D01*
X69984861Y-53799619D01*
X69984861Y-52783619D01*
X69501052Y-53799619D02*
X69501052Y-52783619D01*
X69259147Y-52783619D01*
X69114004Y-52832000D01*
X69017242Y-52928761D01*
X68968861Y-53025523D01*
X68920480Y-53219047D01*
X68920480Y-53364190D01*
X68968861Y-53557714D01*
X69017242Y-53654476D01*
X69114004Y-53751238D01*
X69259147Y-53799619D01*
X69501052Y-53799619D01*
X71678195Y-85803619D02*
X71049242Y-85803619D01*
X71387909Y-86190666D01*
X71242766Y-86190666D01*
X71146004Y-86239047D01*
X71097623Y-86287428D01*
X71049242Y-86384190D01*
X71049242Y-86626095D01*
X71097623Y-86722857D01*
X71146004Y-86771238D01*
X71242766Y-86819619D01*
X71533052Y-86819619D01*
X71629814Y-86771238D01*
X71678195Y-86722857D01*
X70420290Y-85803619D02*
X70323528Y-85803619D01*
X70226766Y-85852000D01*
X70178385Y-85900380D01*
X70130004Y-85997142D01*
X70081623Y-86190666D01*
X70081623Y-86432571D01*
X70130004Y-86626095D01*
X70178385Y-86722857D01*
X70226766Y-86771238D01*
X70323528Y-86819619D01*
X70420290Y-86819619D01*
X70517052Y-86771238D01*
X70565433Y-86722857D01*
X70613814Y-86626095D01*
X70662195Y-86432571D01*
X70662195Y-86190666D01*
X70613814Y-85997142D01*
X70565433Y-85900380D01*
X70517052Y-85852000D01*
X70420290Y-85803619D01*
X71345576Y-70563619D02*
X70716623Y-70563619D01*
X71055290Y-70950666D01*
X70910147Y-70950666D01*
X70813385Y-70999047D01*
X70765004Y-71047428D01*
X70716623Y-71144190D01*
X70716623Y-71386095D01*
X70765004Y-71482857D01*
X70813385Y-71531238D01*
X70910147Y-71579619D01*
X71200433Y-71579619D01*
X71297195Y-71531238D01*
X71345576Y-71482857D01*
X70377957Y-70563619D02*
X69700623Y-70563619D01*
X70136052Y-71579619D01*
X68587861Y-70515238D02*
X69458719Y-71821523D01*
X67668623Y-71482857D02*
X67717004Y-71531238D01*
X67862147Y-71579619D01*
X67958909Y-71579619D01*
X68104052Y-71531238D01*
X68200814Y-71434476D01*
X68249195Y-71337714D01*
X68297576Y-71144190D01*
X68297576Y-70999047D01*
X68249195Y-70805523D01*
X68200814Y-70708761D01*
X68104052Y-70612000D01*
X67958909Y-70563619D01*
X67862147Y-70563619D01*
X67717004Y-70612000D01*
X67668623Y-70660380D01*
X66701004Y-71579619D02*
X67281576Y-71579619D01*
X66991290Y-71579619D02*
X66991290Y-70563619D01*
X67088052Y-70708761D01*
X67184814Y-70805523D01*
X67281576Y-70853904D01*
X71629814Y-96060380D02*
X71581433Y-96012000D01*
X71484671Y-95963619D01*
X71242766Y-95963619D01*
X71146004Y-96012000D01*
X71097623Y-96060380D01*
X71049242Y-96157142D01*
X71049242Y-96253904D01*
X71097623Y-96399047D01*
X71678195Y-96979619D01*
X71049242Y-96979619D01*
X70130004Y-95963619D02*
X70613814Y-95963619D01*
X70662195Y-96447428D01*
X70613814Y-96399047D01*
X70517052Y-96350666D01*
X70275147Y-96350666D01*
X70178385Y-96399047D01*
X70130004Y-96447428D01*
X70081623Y-96544190D01*
X70081623Y-96786095D01*
X70130004Y-96882857D01*
X70178385Y-96931238D01*
X70275147Y-96979619D01*
X70517052Y-96979619D01*
X70613814Y-96931238D01*
X70662195Y-96882857D01*
X71629814Y-98600380D02*
X71581433Y-98552000D01*
X71484671Y-98503619D01*
X71242766Y-98503619D01*
X71146005Y-98552000D01*
X71097624Y-98600380D01*
X71049243Y-98697142D01*
X71049243Y-98793904D01*
X71097624Y-98939047D01*
X71678195Y-99519619D01*
X71049243Y-99519619D01*
X70710576Y-98503619D02*
X70081624Y-98503619D01*
X70420290Y-98890666D01*
X70275147Y-98890666D01*
X70178386Y-98939047D01*
X70130005Y-98987428D01*
X70081624Y-99084190D01*
X70081624Y-99326095D01*
X70130005Y-99422857D01*
X70178386Y-99471238D01*
X70275147Y-99519619D01*
X70565433Y-99519619D01*
X70662195Y-99471238D01*
X70710576Y-99422857D01*
X68920481Y-98455238D02*
X69791338Y-99761523D01*
X68098005Y-99519619D02*
X68581814Y-99519619D01*
X68581814Y-98503619D01*
X67759338Y-98987428D02*
X67420671Y-98987428D01*
X67275528Y-99519619D02*
X67759338Y-99519619D01*
X67759338Y-98503619D01*
X67275528Y-98503619D01*
X66840100Y-99519619D02*
X66840100Y-98503619D01*
X66598195Y-98503619D01*
X66453052Y-98552000D01*
X66356290Y-98648761D01*
X66307909Y-98745523D01*
X66259528Y-98939047D01*
X66259528Y-99084190D01*
X66307909Y-99277714D01*
X66356290Y-99374476D01*
X66453052Y-99471238D01*
X66598195Y-99519619D01*
X66840100Y-99519619D01*
X65872481Y-98600380D02*
X65824100Y-98552000D01*
X65727338Y-98503619D01*
X65485433Y-98503619D01*
X65388671Y-98552000D01*
X65340290Y-98600380D01*
X65291909Y-98697142D01*
X65291909Y-98793904D01*
X65340290Y-98939047D01*
X65920862Y-99519619D01*
X65291909Y-99519619D01*
X71345576Y-68023619D02*
X70716623Y-68023619D01*
X71055290Y-68410666D01*
X70910147Y-68410666D01*
X70813385Y-68459047D01*
X70765004Y-68507428D01*
X70716623Y-68604190D01*
X70716623Y-68846095D01*
X70765004Y-68942857D01*
X70813385Y-68991238D01*
X70910147Y-69039619D01*
X71200433Y-69039619D01*
X71297195Y-68991238D01*
X71345576Y-68942857D01*
X70136052Y-68459047D02*
X70232814Y-68410666D01*
X70281195Y-68362285D01*
X70329576Y-68265523D01*
X70329576Y-68217142D01*
X70281195Y-68120380D01*
X70232814Y-68072000D01*
X70136052Y-68023619D01*
X69942528Y-68023619D01*
X69845766Y-68072000D01*
X69797385Y-68120380D01*
X69749004Y-68217142D01*
X69749004Y-68265523D01*
X69797385Y-68362285D01*
X69845766Y-68410666D01*
X69942528Y-68459047D01*
X70136052Y-68459047D01*
X70232814Y-68507428D01*
X70281195Y-68555809D01*
X70329576Y-68652571D01*
X70329576Y-68846095D01*
X70281195Y-68942857D01*
X70232814Y-68991238D01*
X70136052Y-69039619D01*
X69942528Y-69039619D01*
X69845766Y-68991238D01*
X69797385Y-68942857D01*
X69749004Y-68846095D01*
X69749004Y-68652571D01*
X69797385Y-68555809D01*
X69845766Y-68507428D01*
X69942528Y-68459047D01*
X68587862Y-67975238D02*
X69458719Y-69281523D01*
X68055671Y-68023619D02*
X67862147Y-68023619D01*
X67765385Y-68072000D01*
X67668623Y-68168761D01*
X67620242Y-68362285D01*
X67620242Y-68700952D01*
X67668623Y-68894476D01*
X67765385Y-68991238D01*
X67862147Y-69039619D01*
X68055671Y-69039619D01*
X68152433Y-68991238D01*
X68249195Y-68894476D01*
X68297576Y-68700952D01*
X68297576Y-68362285D01*
X68249195Y-68168761D01*
X68152433Y-68072000D01*
X68055671Y-68023619D01*
X67184814Y-68507428D02*
X66846147Y-68507428D01*
X66701004Y-69039619D02*
X67184814Y-69039619D01*
X67184814Y-68023619D01*
X66701004Y-68023619D01*
X65733385Y-69039619D02*
X66313957Y-69039619D01*
X66023671Y-69039619D02*
X66023671Y-68023619D01*
X66120433Y-68168761D01*
X66217195Y-68265523D01*
X66313957Y-68313904D01*
X70813385Y-63282285D02*
X70813385Y-63959619D01*
X71055290Y-62895238D02*
X71297195Y-63620952D01*
X70668242Y-63620952D01*
X70087671Y-62943619D02*
X69990909Y-62943619D01*
X69894147Y-62992000D01*
X69845766Y-63040380D01*
X69797385Y-63137142D01*
X69749004Y-63330666D01*
X69749004Y-63572571D01*
X69797385Y-63766095D01*
X69845766Y-63862857D01*
X69894147Y-63911238D01*
X69990909Y-63959619D01*
X70087671Y-63959619D01*
X70184433Y-63911238D01*
X70232814Y-63862857D01*
X70281195Y-63766095D01*
X70329576Y-63572571D01*
X70329576Y-63330666D01*
X70281195Y-63137142D01*
X70232814Y-63040380D01*
X70184433Y-62992000D01*
X70087671Y-62943619D01*
X68587862Y-62895238D02*
X69458719Y-64201523D01*
X68055671Y-62943619D02*
X67862147Y-62943619D01*
X67765385Y-62992000D01*
X67668623Y-63088761D01*
X67620242Y-63282285D01*
X67620242Y-63620952D01*
X67668623Y-63814476D01*
X67765385Y-63911238D01*
X67862147Y-63959619D01*
X68055671Y-63959619D01*
X68152433Y-63911238D01*
X68249195Y-63814476D01*
X68297576Y-63620952D01*
X68297576Y-63282285D01*
X68249195Y-63088761D01*
X68152433Y-62992000D01*
X68055671Y-62943619D01*
X67184814Y-63427428D02*
X66846147Y-63427428D01*
X66701004Y-63959619D02*
X67184814Y-63959619D01*
X67184814Y-62943619D01*
X66701004Y-62943619D01*
X66313957Y-63040380D02*
X66265576Y-62992000D01*
X66168814Y-62943619D01*
X65926909Y-62943619D01*
X65830147Y-62992000D01*
X65781766Y-63040380D01*
X65733385Y-63137142D01*
X65733385Y-63233904D01*
X65781766Y-63379047D01*
X66362338Y-63959619D01*
X65733385Y-63959619D01*
X64572242Y-62895238D02*
X65443100Y-64201523D01*
X63653004Y-63862857D02*
X63701385Y-63911238D01*
X63846528Y-63959619D01*
X63943290Y-63959619D01*
X64088433Y-63911238D01*
X64185195Y-63814476D01*
X64233576Y-63717714D01*
X64281957Y-63524190D01*
X64281957Y-63379047D01*
X64233576Y-63185523D01*
X64185195Y-63088761D01*
X64088433Y-62992000D01*
X63943290Y-62943619D01*
X63846528Y-62943619D01*
X63701385Y-62992000D01*
X63653004Y-63040380D01*
X63265957Y-63040380D02*
X63217576Y-62992000D01*
X63120814Y-62943619D01*
X62878909Y-62943619D01*
X62782147Y-62992000D01*
X62733766Y-63040380D01*
X62685385Y-63137142D01*
X62685385Y-63233904D01*
X62733766Y-63379047D01*
X63314338Y-63959619D01*
X62685385Y-63959619D01*
X71678195Y-80723619D02*
X71049243Y-80723619D01*
X71387909Y-81110666D01*
X71242766Y-81110666D01*
X71146004Y-81159047D01*
X71097623Y-81207428D01*
X71049243Y-81304190D01*
X71049243Y-81546095D01*
X71097623Y-81642857D01*
X71146004Y-81691238D01*
X71242766Y-81739619D01*
X71533052Y-81739619D01*
X71629814Y-81691238D01*
X71678195Y-81642857D01*
X70662195Y-80820380D02*
X70613814Y-80772000D01*
X70517052Y-80723619D01*
X70275147Y-80723619D01*
X70178385Y-80772000D01*
X70130004Y-80820380D01*
X70081623Y-80917142D01*
X70081623Y-81013904D01*
X70130004Y-81159047D01*
X70710576Y-81739619D01*
X70081623Y-81739619D01*
X68920481Y-80675238D02*
X69791338Y-81981523D01*
X68726957Y-80723619D02*
X68146385Y-80723619D01*
X68436671Y-81739619D02*
X68436671Y-80723619D01*
X67807719Y-81739619D02*
X67807719Y-80723619D01*
X67565814Y-80723619D01*
X67420671Y-80772000D01*
X67323909Y-80868761D01*
X67275528Y-80965523D01*
X67227147Y-81159047D01*
X67227147Y-81304190D01*
X67275528Y-81497714D01*
X67323909Y-81594476D01*
X67420671Y-81691238D01*
X67565814Y-81739619D01*
X67807719Y-81739619D01*
X66598195Y-80723619D02*
X66404671Y-80723619D01*
X66307909Y-80772000D01*
X66211147Y-80868761D01*
X66162766Y-81062285D01*
X66162766Y-81400952D01*
X66211147Y-81594476D01*
X66307909Y-81691238D01*
X66404671Y-81739619D01*
X66598195Y-81739619D01*
X66694957Y-81691238D01*
X66791719Y-81594476D01*
X66840100Y-81400952D01*
X66840100Y-81062285D01*
X66791719Y-80868761D01*
X66694957Y-80772000D01*
X66598195Y-80723619D01*
X71146004Y-55662285D02*
X71146004Y-56339619D01*
X71387909Y-55275238D02*
X71629814Y-56000952D01*
X71000861Y-56000952D01*
X70178385Y-55662285D02*
X70178385Y-56339619D01*
X70420290Y-55275238D02*
X70662195Y-56000952D01*
X70033242Y-56000952D01*
X71146004Y-58202285D02*
X71146004Y-58879619D01*
X71387909Y-57815238D02*
X71629814Y-58540952D01*
X71000861Y-58540952D01*
X70710576Y-57863619D02*
X70081623Y-57863619D01*
X70420290Y-58250666D01*
X70275147Y-58250666D01*
X70178385Y-58299047D01*
X70130004Y-58347428D01*
X70081623Y-58444190D01*
X70081623Y-58686095D01*
X70130004Y-58782857D01*
X70178385Y-58831238D01*
X70275147Y-58879619D01*
X70565433Y-58879619D01*
X70662195Y-58831238D01*
X70710576Y-58782857D01*
X71146004Y-60742285D02*
X71146004Y-61419619D01*
X71387909Y-60355238D02*
X71629814Y-61080952D01*
X71000861Y-61080952D01*
X70662195Y-60500380D02*
X70613814Y-60452000D01*
X70517052Y-60403619D01*
X70275147Y-60403619D01*
X70178385Y-60452000D01*
X70130004Y-60500380D01*
X70081623Y-60597142D01*
X70081623Y-60693904D01*
X70130004Y-60839047D01*
X70710576Y-61419619D01*
X70081623Y-61419619D01*
X71345576Y-65483619D02*
X70716623Y-65483619D01*
X71055290Y-65870666D01*
X70910147Y-65870666D01*
X70813385Y-65919047D01*
X70765004Y-65967428D01*
X70716623Y-66064190D01*
X70716623Y-66306095D01*
X70765004Y-66402857D01*
X70813385Y-66451238D01*
X70910147Y-66499619D01*
X71200433Y-66499619D01*
X71297195Y-66451238D01*
X71345576Y-66402857D01*
X70232814Y-66499619D02*
X70039290Y-66499619D01*
X69942528Y-66451238D01*
X69894147Y-66402857D01*
X69797385Y-66257714D01*
X69749004Y-66064190D01*
X69749004Y-65677142D01*
X69797385Y-65580380D01*
X69845766Y-65532000D01*
X69942528Y-65483619D01*
X70136052Y-65483619D01*
X70232814Y-65532000D01*
X70281195Y-65580380D01*
X70329576Y-65677142D01*
X70329576Y-65919047D01*
X70281195Y-66015809D01*
X70232814Y-66064190D01*
X70136052Y-66112571D01*
X69942528Y-66112571D01*
X69845766Y-66064190D01*
X69797385Y-66015809D01*
X69749004Y-65919047D01*
X68587861Y-65435238D02*
X69458719Y-66741523D01*
X67668623Y-66499619D02*
X68007290Y-66015809D01*
X68249195Y-66499619D02*
X68249195Y-65483619D01*
X67862147Y-65483619D01*
X67765385Y-65532000D01*
X67717004Y-65580380D01*
X67668623Y-65677142D01*
X67668623Y-65822285D01*
X67717004Y-65919047D01*
X67765385Y-65967428D01*
X67862147Y-66015809D01*
X68249195Y-66015809D01*
X71678195Y-73103619D02*
X71049242Y-73103619D01*
X71387909Y-73490666D01*
X71242766Y-73490666D01*
X71146004Y-73539047D01*
X71097623Y-73587428D01*
X71049242Y-73684190D01*
X71049242Y-73926095D01*
X71097623Y-74022857D01*
X71146004Y-74071238D01*
X71242766Y-74119619D01*
X71533052Y-74119619D01*
X71629814Y-74071238D01*
X71678195Y-74022857D01*
X70130004Y-73103619D02*
X70613814Y-73103619D01*
X70662195Y-73587428D01*
X70613814Y-73539047D01*
X70517052Y-73490666D01*
X70275147Y-73490666D01*
X70178385Y-73539047D01*
X70130004Y-73587428D01*
X70081623Y-73684190D01*
X70081623Y-73926095D01*
X70130004Y-74022857D01*
X70178385Y-74071238D01*
X70275147Y-74119619D01*
X70517052Y-74119619D01*
X70613814Y-74071238D01*
X70662195Y-74022857D01*
X68920480Y-73055238D02*
X69791338Y-74361523D01*
X68001242Y-74022857D02*
X68049623Y-74071238D01*
X68194766Y-74119619D01*
X68291528Y-74119619D01*
X68436671Y-74071238D01*
X68533433Y-73974476D01*
X68581814Y-73877714D01*
X68630195Y-73684190D01*
X68630195Y-73539047D01*
X68581814Y-73345523D01*
X68533433Y-73248761D01*
X68436671Y-73152000D01*
X68291528Y-73103619D01*
X68194766Y-73103619D01*
X68049623Y-73152000D01*
X68001242Y-73200380D01*
X67662576Y-73103619D02*
X67033623Y-73103619D01*
X67372290Y-73490666D01*
X67227147Y-73490666D01*
X67130385Y-73539047D01*
X67082004Y-73587428D01*
X67033623Y-73684190D01*
X67033623Y-73926095D01*
X67082004Y-74022857D01*
X67130385Y-74071238D01*
X67227147Y-74119619D01*
X67517433Y-74119619D01*
X67614195Y-74071238D01*
X67662576Y-74022857D01*
X71629814Y-90980380D02*
X71581433Y-90932000D01*
X71484671Y-90883619D01*
X71242766Y-90883619D01*
X71146004Y-90932000D01*
X71097623Y-90980380D01*
X71049242Y-91077142D01*
X71049242Y-91173904D01*
X71097623Y-91319047D01*
X71678195Y-91899619D01*
X71049242Y-91899619D01*
X70710576Y-90883619D02*
X70033242Y-90883619D01*
X70468671Y-91899619D01*
X71678195Y-75643619D02*
X71049242Y-75643619D01*
X71387909Y-76030666D01*
X71242766Y-76030666D01*
X71146004Y-76079047D01*
X71097623Y-76127428D01*
X71049242Y-76224190D01*
X71049242Y-76466095D01*
X71097623Y-76562857D01*
X71146004Y-76611238D01*
X71242766Y-76659619D01*
X71533052Y-76659619D01*
X71629814Y-76611238D01*
X71678195Y-76562857D01*
X70178385Y-75982285D02*
X70178385Y-76659619D01*
X70420290Y-75595238D02*
X70662195Y-76320952D01*
X70033242Y-76320952D01*
X53670804Y-86819619D02*
X54251376Y-86819619D01*
X53961090Y-86819619D02*
X53961090Y-85803619D01*
X54057852Y-85948761D01*
X54154614Y-86045523D01*
X54251376Y-86093904D01*
X52751566Y-85803619D02*
X53235376Y-85803619D01*
X53283757Y-86287428D01*
X53235376Y-86239047D01*
X53138614Y-86190666D01*
X52896709Y-86190666D01*
X52799947Y-86239047D01*
X52751566Y-86287428D01*
X52703185Y-86384190D01*
X52703185Y-86626095D01*
X52751566Y-86722857D01*
X52799947Y-86771238D01*
X52896709Y-86819619D01*
X53138614Y-86819619D01*
X53235376Y-86771238D01*
X53283757Y-86722857D01*
X53670804Y-76659619D02*
X54251376Y-76659619D01*
X53961090Y-76659619D02*
X53961090Y-75643619D01*
X54057852Y-75788761D01*
X54154614Y-75885523D01*
X54251376Y-75933904D01*
X52703185Y-76659619D02*
X53283757Y-76659619D01*
X52993471Y-76659619D02*
X52993471Y-75643619D01*
X53090233Y-75788761D01*
X53186995Y-75885523D01*
X53283757Y-75933904D01*
X53332138Y-60403619D02*
X52703185Y-60403619D01*
X53041852Y-60790666D01*
X52896709Y-60790666D01*
X52799947Y-60839047D01*
X52751566Y-60887428D01*
X52703185Y-60984190D01*
X52703185Y-61226095D01*
X52751566Y-61322857D01*
X52799947Y-61371238D01*
X52896709Y-61419619D01*
X53186995Y-61419619D01*
X53283757Y-61371238D01*
X53332138Y-61322857D01*
X55509281Y-50243619D02*
X55170614Y-51259619D01*
X54831947Y-50243619D01*
X53912709Y-51162857D02*
X53961090Y-51211238D01*
X54106233Y-51259619D01*
X54202995Y-51259619D01*
X54348138Y-51211238D01*
X54444900Y-51114476D01*
X54493281Y-51017714D01*
X54541662Y-50824190D01*
X54541662Y-50679047D01*
X54493281Y-50485523D01*
X54444900Y-50388761D01*
X54348138Y-50292000D01*
X54202995Y-50243619D01*
X54106233Y-50243619D01*
X53961090Y-50292000D01*
X53912709Y-50340380D01*
X52896709Y-51162857D02*
X52945090Y-51211238D01*
X53090233Y-51259619D01*
X53186995Y-51259619D01*
X53332138Y-51211238D01*
X53428900Y-51114476D01*
X53477281Y-51017714D01*
X53525662Y-50824190D01*
X53525662Y-50679047D01*
X53477281Y-50485523D01*
X53428900Y-50388761D01*
X53332138Y-50292000D01*
X53186995Y-50243619D01*
X53090233Y-50243619D01*
X52945090Y-50292000D01*
X52896709Y-50340380D01*
X54251376Y-93520380D02*
X54202995Y-93472000D01*
X54106233Y-93423619D01*
X53864328Y-93423619D01*
X53767566Y-93472000D01*
X53719185Y-93520380D01*
X53670804Y-93617142D01*
X53670804Y-93713904D01*
X53719185Y-93859047D01*
X54299757Y-94439619D01*
X53670804Y-94439619D01*
X53041852Y-93423619D02*
X52945090Y-93423619D01*
X52848328Y-93472000D01*
X52799947Y-93520380D01*
X52751566Y-93617142D01*
X52703185Y-93810666D01*
X52703185Y-94052571D01*
X52751566Y-94246095D01*
X52799947Y-94342857D01*
X52848328Y-94391238D01*
X52945090Y-94439619D01*
X53041852Y-94439619D01*
X53138614Y-94391238D01*
X53186995Y-94342857D01*
X53235376Y-94246095D01*
X53283757Y-94052571D01*
X53283757Y-93810666D01*
X53235376Y-93617142D01*
X53186995Y-93520380D01*
X53138614Y-93472000D01*
X53041852Y-93423619D01*
X54251376Y-96060380D02*
X54202995Y-96012000D01*
X54106233Y-95963619D01*
X53864328Y-95963619D01*
X53767566Y-96012000D01*
X53719185Y-96060380D01*
X53670804Y-96157142D01*
X53670804Y-96253904D01*
X53719185Y-96399047D01*
X54299757Y-96979619D01*
X53670804Y-96979619D01*
X52703185Y-96979619D02*
X53283757Y-96979619D01*
X52993471Y-96979619D02*
X52993471Y-95963619D01*
X53090233Y-96108761D01*
X53186995Y-96205523D01*
X53283757Y-96253904D01*
X53670804Y-91899619D02*
X54251376Y-91899619D01*
X53961090Y-91899619D02*
X53961090Y-90883619D01*
X54057852Y-91028761D01*
X54154614Y-91125523D01*
X54251376Y-91173904D01*
X53186995Y-91899619D02*
X52993471Y-91899619D01*
X52896709Y-91851238D01*
X52848328Y-91802857D01*
X52751566Y-91657714D01*
X52703185Y-91464190D01*
X52703185Y-91077142D01*
X52751566Y-90980380D01*
X52799947Y-90932000D01*
X52896709Y-90883619D01*
X53090233Y-90883619D01*
X53186995Y-90932000D01*
X53235376Y-90980380D01*
X53283757Y-91077142D01*
X53283757Y-91319047D01*
X53235376Y-91415809D01*
X53186995Y-91464190D01*
X53090233Y-91512571D01*
X52896709Y-91512571D01*
X52799947Y-91464190D01*
X52751566Y-91415809D01*
X52703185Y-91319047D01*
X52799947Y-65483619D02*
X52993471Y-65483619D01*
X53090233Y-65532000D01*
X53138614Y-65580380D01*
X53235376Y-65725523D01*
X53283757Y-65919047D01*
X53283757Y-66306095D01*
X53235376Y-66402857D01*
X53186995Y-66451238D01*
X53090233Y-66499619D01*
X52896709Y-66499619D01*
X52799947Y-66451238D01*
X52751566Y-66402857D01*
X52703185Y-66306095D01*
X52703185Y-66064190D01*
X52751566Y-65967428D01*
X52799947Y-65919047D01*
X52896709Y-65870666D01*
X53090233Y-65870666D01*
X53186995Y-65919047D01*
X53235376Y-65967428D01*
X53283757Y-66064190D01*
X53670804Y-89359619D02*
X54251376Y-89359619D01*
X53961090Y-89359619D02*
X53961090Y-88343619D01*
X54057852Y-88488761D01*
X54154614Y-88585523D01*
X54251376Y-88633904D01*
X53090233Y-88779047D02*
X53186995Y-88730666D01*
X53235376Y-88682285D01*
X53283757Y-88585523D01*
X53283757Y-88537142D01*
X53235376Y-88440380D01*
X53186995Y-88392000D01*
X53090233Y-88343619D01*
X52896709Y-88343619D01*
X52799947Y-88392000D01*
X52751566Y-88440380D01*
X52703185Y-88537142D01*
X52703185Y-88585523D01*
X52751566Y-88682285D01*
X52799947Y-88730666D01*
X52896709Y-88779047D01*
X53090233Y-88779047D01*
X53186995Y-88827428D01*
X53235376Y-88875809D01*
X53283757Y-88972571D01*
X53283757Y-89166095D01*
X53235376Y-89262857D01*
X53186995Y-89311238D01*
X53090233Y-89359619D01*
X52896709Y-89359619D01*
X52799947Y-89311238D01*
X52751566Y-89262857D01*
X52703185Y-89166095D01*
X52703185Y-88972571D01*
X52751566Y-88875809D01*
X52799947Y-88827428D01*
X52896709Y-88779047D01*
X53090233Y-70999047D02*
X53186995Y-70950666D01*
X53235376Y-70902285D01*
X53283757Y-70805523D01*
X53283757Y-70757142D01*
X53235376Y-70660380D01*
X53186995Y-70612000D01*
X53090233Y-70563619D01*
X52896709Y-70563619D01*
X52799947Y-70612000D01*
X52751566Y-70660380D01*
X52703185Y-70757142D01*
X52703185Y-70805523D01*
X52751566Y-70902285D01*
X52799947Y-70950666D01*
X52896709Y-70999047D01*
X53090233Y-70999047D01*
X53186995Y-71047428D01*
X53235376Y-71095809D01*
X53283757Y-71192571D01*
X53283757Y-71386095D01*
X53235376Y-71482857D01*
X53186995Y-71531238D01*
X53090233Y-71579619D01*
X52896709Y-71579619D01*
X52799947Y-71531238D01*
X52751566Y-71482857D01*
X52703185Y-71386095D01*
X52703185Y-71192571D01*
X52751566Y-71095809D01*
X52799947Y-71047428D01*
X52896709Y-70999047D01*
X52751566Y-62943619D02*
X53235376Y-62943619D01*
X53283757Y-63427428D01*
X53235376Y-63379047D01*
X53138614Y-63330666D01*
X52896709Y-63330666D01*
X52799947Y-63379047D01*
X52751566Y-63427428D01*
X52703185Y-63524190D01*
X52703185Y-63766095D01*
X52751566Y-63862857D01*
X52799947Y-63911238D01*
X52896709Y-63959619D01*
X53138614Y-63959619D01*
X53235376Y-63911238D01*
X53283757Y-63862857D01*
X53283757Y-57960380D02*
X53235376Y-57912000D01*
X53138614Y-57863619D01*
X52896709Y-57863619D01*
X52799947Y-57912000D01*
X52751566Y-57960380D01*
X52703185Y-58057142D01*
X52703185Y-58153904D01*
X52751566Y-58299047D01*
X53332138Y-58879619D01*
X52703185Y-58879619D01*
X53670804Y-79199619D02*
X54251376Y-79199619D01*
X53961090Y-79199619D02*
X53961090Y-78183619D01*
X54057852Y-78328761D01*
X54154614Y-78425523D01*
X54251376Y-78473904D01*
X53283757Y-78280380D02*
X53235376Y-78232000D01*
X53138614Y-78183619D01*
X52896709Y-78183619D01*
X52799947Y-78232000D01*
X52751566Y-78280380D01*
X52703185Y-78377142D01*
X52703185Y-78473904D01*
X52751566Y-78619047D01*
X53332138Y-79199619D01*
X52703185Y-79199619D01*
X53670804Y-81739619D02*
X54251376Y-81739619D01*
X53961090Y-81739619D02*
X53961090Y-80723619D01*
X54057852Y-80868761D01*
X54154614Y-80965523D01*
X54251376Y-81013904D01*
X53332138Y-80723619D02*
X52703185Y-80723619D01*
X53041852Y-81110666D01*
X52896709Y-81110666D01*
X52799947Y-81159047D01*
X52751566Y-81207428D01*
X52703185Y-81304190D01*
X52703185Y-81546095D01*
X52751566Y-81642857D01*
X52799947Y-81691238D01*
X52896709Y-81739619D01*
X53186995Y-81739619D01*
X53283757Y-81691238D01*
X53332138Y-81642857D01*
X53670804Y-84279619D02*
X54251376Y-84279619D01*
X53961090Y-84279619D02*
X53961090Y-83263619D01*
X54057852Y-83408761D01*
X54154614Y-83505523D01*
X54251376Y-83553904D01*
X52799947Y-83602285D02*
X52799947Y-84279619D01*
X53041852Y-83215238D02*
X53283757Y-83940952D01*
X52654804Y-83940952D01*
X57347757Y-68023619D02*
X56767185Y-68023619D01*
X57057471Y-69039619D02*
X57057471Y-68023619D01*
X56428519Y-69039619D02*
X56428519Y-68023619D01*
X56089852Y-68749333D01*
X55751185Y-68023619D01*
X55751185Y-69039619D01*
X55315757Y-68991238D02*
X55170614Y-69039619D01*
X54928709Y-69039619D01*
X54831947Y-68991238D01*
X54783566Y-68942857D01*
X54735185Y-68846095D01*
X54735185Y-68749333D01*
X54783566Y-68652571D01*
X54831947Y-68604190D01*
X54928709Y-68555809D01*
X55122233Y-68507428D01*
X55218995Y-68459047D01*
X55267376Y-68410666D01*
X55315757Y-68313904D01*
X55315757Y-68217142D01*
X55267376Y-68120380D01*
X55218995Y-68072000D01*
X55122233Y-68023619D01*
X54880328Y-68023619D01*
X54735185Y-68072000D01*
X53574042Y-67975238D02*
X54444899Y-69281523D01*
X53332138Y-68023619D02*
X52654804Y-68023619D01*
X53090233Y-69039619D01*
X58508899Y-99519619D02*
X58992709Y-99519619D01*
X58992709Y-98503619D01*
X58170233Y-98987428D02*
X57831566Y-98987428D01*
X57686423Y-99519619D02*
X58170233Y-99519619D01*
X58170233Y-98503619D01*
X57686423Y-98503619D01*
X57250994Y-99519619D02*
X57250994Y-98503619D01*
X57009090Y-98503619D01*
X56863947Y-98552000D01*
X56767185Y-98648761D01*
X56718804Y-98745523D01*
X56670423Y-98939047D01*
X56670423Y-99084190D01*
X56718804Y-99277714D01*
X56767185Y-99374476D01*
X56863947Y-99471238D01*
X57009090Y-99519619D01*
X57250994Y-99519619D01*
X55702804Y-99519619D02*
X56283375Y-99519619D01*
X55993090Y-99519619D02*
X55993090Y-98503619D01*
X56089852Y-98648761D01*
X56186614Y-98745523D01*
X56283375Y-98793904D01*
X54541661Y-98455238D02*
X55412518Y-99761523D01*
X54251375Y-98600380D02*
X54202994Y-98552000D01*
X54106233Y-98503619D01*
X53864328Y-98503619D01*
X53767566Y-98552000D01*
X53719185Y-98600380D01*
X53670804Y-98697142D01*
X53670804Y-98793904D01*
X53719185Y-98939047D01*
X54299756Y-99519619D01*
X53670804Y-99519619D01*
X53283756Y-98600380D02*
X53235375Y-98552000D01*
X53138614Y-98503619D01*
X52896709Y-98503619D01*
X52799947Y-98552000D01*
X52751566Y-98600380D01*
X52703185Y-98697142D01*
X52703185Y-98793904D01*
X52751566Y-98939047D01*
X53332137Y-99519619D01*
X52703185Y-99519619D01*
X56718805Y-55323619D02*
X56138233Y-55323619D01*
X56428519Y-56339619D02*
X56428519Y-55323619D01*
X55799567Y-56339619D02*
X55799567Y-55323619D01*
X55557662Y-55323619D01*
X55412519Y-55372000D01*
X55315757Y-55468761D01*
X55267376Y-55565523D01*
X55218995Y-55759047D01*
X55218995Y-55904190D01*
X55267376Y-56097714D01*
X55315757Y-56194476D01*
X55412519Y-56291238D01*
X55557662Y-56339619D01*
X55799567Y-56339619D01*
X54783567Y-56339619D02*
X54783567Y-55323619D01*
X53574043Y-55275238D02*
X54444900Y-56581523D01*
X52703186Y-56339619D02*
X53283757Y-56339619D01*
X52993471Y-56339619D02*
X52993471Y-55323619D01*
X53090233Y-55468761D01*
X53186995Y-55565523D01*
X53283757Y-55613904D01*
X53670804Y-74119619D02*
X54251376Y-74119619D01*
X53961090Y-74119619D02*
X53961090Y-73103619D01*
X54057852Y-73248761D01*
X54154614Y-73345523D01*
X54251376Y-73393904D01*
X53041852Y-73103619D02*
X52945090Y-73103619D01*
X52848328Y-73152000D01*
X52799947Y-73200380D01*
X52751566Y-73297142D01*
X52703185Y-73490666D01*
X52703185Y-73732571D01*
X52751566Y-73926095D01*
X52799947Y-74022857D01*
X52848328Y-74071238D01*
X52945090Y-74119619D01*
X53041852Y-74119619D01*
X53138614Y-74071238D01*
X53186995Y-74022857D01*
X53235376Y-73926095D01*
X53283757Y-73732571D01*
X53283757Y-73490666D01*
X53235376Y-73297142D01*
X53186995Y-73200380D01*
X53138614Y-73152000D01*
X53041852Y-73103619D01*
X54831947Y-52832000D02*
X54928709Y-52783619D01*
X55073852Y-52783619D01*
X55218995Y-52832000D01*
X55315757Y-52928761D01*
X55364138Y-53025523D01*
X55412519Y-53219047D01*
X55412519Y-53364190D01*
X55364138Y-53557714D01*
X55315757Y-53654476D01*
X55218995Y-53751238D01*
X55073852Y-53799619D01*
X54977090Y-53799619D01*
X54831947Y-53751238D01*
X54783566Y-53702857D01*
X54783566Y-53364190D01*
X54977090Y-53364190D01*
X54348138Y-53799619D02*
X54348138Y-52783619D01*
X53767566Y-53799619D01*
X53767566Y-52783619D01*
X53283757Y-53799619D02*
X53283757Y-52783619D01*
X53041852Y-52783619D01*
X52896709Y-52832000D01*
X52799947Y-52928761D01*
X52751566Y-53025523D01*
X52703185Y-53219047D01*
X52703185Y-53364190D01*
X52751566Y-53557714D01*
X52799947Y-53654476D01*
X52896709Y-53751238D01*
X53041852Y-53799619D01*
X53283757Y-53799619D01*
D15*
X65461114Y-86514505D02*
X65386461Y-86551727D01*
X65386461Y-86551727D02*
X65320569Y-86620261D01*
X65320569Y-86620261D02*
X65302423Y-86645648D01*
X65302423Y-86645648D02*
X65282655Y-86678866D01*
X65282655Y-86678866D02*
X65269828Y-86714945D01*
X65269828Y-86714945D02*
X65262490Y-86763098D01*
X65262490Y-86763098D02*
X65259187Y-86832536D01*
X65259187Y-86832536D02*
X65258462Y-86924206D01*
X65258462Y-86924206D02*
X65261737Y-87049830D01*
X65261737Y-87049830D02*
X65273123Y-87144154D01*
X65273123Y-87144154D02*
X65294959Y-87214523D01*
X65294959Y-87214523D02*
X65329581Y-87268286D01*
X65329581Y-87268286D02*
X65379330Y-87312788D01*
X65379330Y-87312788D02*
X65382986Y-87315423D01*
X65382986Y-87315423D02*
X65432015Y-87342377D01*
X65432015Y-87342377D02*
X65491055Y-87355712D01*
X65491055Y-87355712D02*
X65566141Y-87359000D01*
X65566141Y-87359000D02*
X65688205Y-87359000D01*
X65688205Y-87359000D02*
X65688256Y-87477497D01*
X65688256Y-87477497D02*
X65689392Y-87543492D01*
X65689392Y-87543492D02*
X65696314Y-87582202D01*
X65696314Y-87582202D02*
X65714402Y-87605419D01*
X65714402Y-87605419D02*
X65749038Y-87624933D01*
X65749038Y-87624933D02*
X65757355Y-87628920D01*
X65757355Y-87628920D02*
X65796280Y-87647603D01*
X65796280Y-87647603D02*
X65826417Y-87659403D01*
X65826417Y-87659403D02*
X65848826Y-87660422D01*
X65848826Y-87660422D02*
X65864567Y-87646761D01*
X65864567Y-87646761D02*
X65874698Y-87614522D01*
X65874698Y-87614522D02*
X65880277Y-87559804D01*
X65880277Y-87559804D02*
X65882365Y-87478711D01*
X65882365Y-87478711D02*
X65882019Y-87367344D01*
X65882019Y-87367344D02*
X65880300Y-87221802D01*
X65880300Y-87221802D02*
X65879763Y-87178269D01*
X65879763Y-87178269D02*
X65877828Y-87028205D01*
X65877828Y-87028205D02*
X65876096Y-86930042D01*
X65876096Y-86930042D02*
X65688308Y-86930042D01*
X65688308Y-86930042D02*
X65687252Y-87013364D01*
X65687252Y-87013364D02*
X65682562Y-87067880D01*
X65682562Y-87067880D02*
X65671949Y-87103837D01*
X65671949Y-87103837D02*
X65653128Y-87131482D01*
X65653128Y-87131482D02*
X65640350Y-87144965D01*
X65640350Y-87144965D02*
X65588110Y-87184417D01*
X65588110Y-87184417D02*
X65541858Y-87187628D01*
X65541858Y-87187628D02*
X65494133Y-87155049D01*
X65494133Y-87155049D02*
X65492923Y-87153846D01*
X65492923Y-87153846D02*
X65473506Y-87128668D01*
X65473506Y-87128668D02*
X65461693Y-87094447D01*
X65461693Y-87094447D02*
X65455735Y-87041748D01*
X65455735Y-87041748D02*
X65453880Y-86961131D01*
X65453880Y-86961131D02*
X65453846Y-86943271D01*
X65453846Y-86943271D02*
X65458330Y-86832175D01*
X65458330Y-86832175D02*
X65472926Y-86755161D01*
X65472926Y-86755161D02*
X65499350Y-86708147D01*
X65499350Y-86708147D02*
X65539317Y-86687050D01*
X65539317Y-86687050D02*
X65562416Y-86684923D01*
X65562416Y-86684923D02*
X65617238Y-86694900D01*
X65617238Y-86694900D02*
X65654842Y-86727752D01*
X65654842Y-86727752D02*
X65677477Y-86787857D01*
X65677477Y-86787857D02*
X65687394Y-86879598D01*
X65687394Y-86879598D02*
X65688308Y-86930042D01*
X65688308Y-86930042D02*
X65876096Y-86930042D01*
X65876096Y-86930042D02*
X65875778Y-86912060D01*
X65875778Y-86912060D02*
X65873127Y-86824679D01*
X65873127Y-86824679D02*
X65869394Y-86760905D01*
X65869394Y-86760905D02*
X65864093Y-86715582D01*
X65864093Y-86715582D02*
X65856742Y-86683555D01*
X65856742Y-86683555D02*
X65846857Y-86659668D01*
X65846857Y-86659668D02*
X65833954Y-86638764D01*
X65833954Y-86638764D02*
X65828421Y-86630898D01*
X65828421Y-86630898D02*
X65755031Y-86556595D01*
X65755031Y-86556595D02*
X65662240Y-86514467D01*
X65662240Y-86514467D02*
X65554904Y-86502722D01*
X65554904Y-86502722D02*
X65461114Y-86514505D01*
X65461114Y-86514505D02*
X65461114Y-86514505D01*
G36*
X65879763Y-87178269D02*
G01*
X65880300Y-87221802D01*
X65882019Y-87367344D01*
X65882365Y-87478711D01*
X65880277Y-87559804D01*
X65874698Y-87614522D01*
X65864567Y-87646761D01*
X65848826Y-87660422D01*
X65826417Y-87659403D01*
X65796280Y-87647603D01*
X65757355Y-87628920D01*
X65749038Y-87624933D01*
X65714402Y-87605419D01*
X65696314Y-87582202D01*
X65689392Y-87543492D01*
X65688256Y-87477497D01*
X65688205Y-87359000D01*
X65566141Y-87359000D01*
X65491055Y-87355712D01*
X65432015Y-87342377D01*
X65382986Y-87315423D01*
X65379330Y-87312788D01*
X65329581Y-87268286D01*
X65294959Y-87214523D01*
X65273123Y-87144154D01*
X65261737Y-87049830D01*
X65258959Y-86943271D01*
X65453846Y-86943271D01*
X65453880Y-86961131D01*
X65455735Y-87041748D01*
X65461693Y-87094447D01*
X65473506Y-87128668D01*
X65492923Y-87153846D01*
X65494133Y-87155049D01*
X65541858Y-87187628D01*
X65588110Y-87184417D01*
X65640350Y-87144965D01*
X65653128Y-87131482D01*
X65671949Y-87103837D01*
X65682562Y-87067880D01*
X65687252Y-87013364D01*
X65688308Y-86930042D01*
X65687394Y-86879598D01*
X65677477Y-86787857D01*
X65654842Y-86727752D01*
X65617238Y-86694900D01*
X65562416Y-86684923D01*
X65539317Y-86687050D01*
X65499350Y-86708147D01*
X65472926Y-86755161D01*
X65458330Y-86832175D01*
X65453846Y-86943271D01*
X65258959Y-86943271D01*
X65258462Y-86924206D01*
X65259187Y-86832536D01*
X65262490Y-86763098D01*
X65269828Y-86714945D01*
X65282655Y-86678866D01*
X65302423Y-86645648D01*
X65320569Y-86620261D01*
X65386461Y-86551727D01*
X65461114Y-86514505D01*
X65554904Y-86502722D01*
X65662240Y-86514467D01*
X65755031Y-86556595D01*
X65828421Y-86630898D01*
X65833954Y-86638764D01*
X65846857Y-86659668D01*
X65856742Y-86683555D01*
X65864093Y-86715582D01*
X65869394Y-86760905D01*
X65873127Y-86824679D01*
X65875778Y-86912060D01*
X65876096Y-86930042D01*
X65877828Y-87028205D01*
X65879763Y-87178269D01*
G37*
X65879763Y-87178269D02*
X65880300Y-87221802D01*
X65882019Y-87367344D01*
X65882365Y-87478711D01*
X65880277Y-87559804D01*
X65874698Y-87614522D01*
X65864567Y-87646761D01*
X65848826Y-87660422D01*
X65826417Y-87659403D01*
X65796280Y-87647603D01*
X65757355Y-87628920D01*
X65749038Y-87624933D01*
X65714402Y-87605419D01*
X65696314Y-87582202D01*
X65689392Y-87543492D01*
X65688256Y-87477497D01*
X65688205Y-87359000D01*
X65566141Y-87359000D01*
X65491055Y-87355712D01*
X65432015Y-87342377D01*
X65382986Y-87315423D01*
X65379330Y-87312788D01*
X65329581Y-87268286D01*
X65294959Y-87214523D01*
X65273123Y-87144154D01*
X65261737Y-87049830D01*
X65258959Y-86943271D01*
X65453846Y-86943271D01*
X65453880Y-86961131D01*
X65455735Y-87041748D01*
X65461693Y-87094447D01*
X65473506Y-87128668D01*
X65492923Y-87153846D01*
X65494133Y-87155049D01*
X65541858Y-87187628D01*
X65588110Y-87184417D01*
X65640350Y-87144965D01*
X65653128Y-87131482D01*
X65671949Y-87103837D01*
X65682562Y-87067880D01*
X65687252Y-87013364D01*
X65688308Y-86930042D01*
X65687394Y-86879598D01*
X65677477Y-86787857D01*
X65654842Y-86727752D01*
X65617238Y-86694900D01*
X65562416Y-86684923D01*
X65539317Y-86687050D01*
X65499350Y-86708147D01*
X65472926Y-86755161D01*
X65458330Y-86832175D01*
X65453846Y-86943271D01*
X65258959Y-86943271D01*
X65258462Y-86924206D01*
X65259187Y-86832536D01*
X65262490Y-86763098D01*
X65269828Y-86714945D01*
X65282655Y-86678866D01*
X65302423Y-86645648D01*
X65320569Y-86620261D01*
X65386461Y-86551727D01*
X65461114Y-86514505D01*
X65554904Y-86502722D01*
X65662240Y-86514467D01*
X65755031Y-86556595D01*
X65828421Y-86630898D01*
X65833954Y-86638764D01*
X65846857Y-86659668D01*
X65856742Y-86683555D01*
X65864093Y-86715582D01*
X65869394Y-86760905D01*
X65873127Y-86824679D01*
X65875778Y-86912060D01*
X65876096Y-86930042D01*
X65877828Y-87028205D01*
X65879763Y-87178269D01*
X63958336Y-86525089D02*
X63895633Y-86561358D01*
X63895633Y-86561358D02*
X63852039Y-86597358D01*
X63852039Y-86597358D02*
X63820155Y-86635075D01*
X63820155Y-86635075D02*
X63798190Y-86681199D01*
X63798190Y-86681199D02*
X63784351Y-86742421D01*
X63784351Y-86742421D02*
X63776847Y-86825431D01*
X63776847Y-86825431D02*
X63773883Y-86936919D01*
X63773883Y-86936919D02*
X63773539Y-87017062D01*
X63773539Y-87017062D02*
X63773539Y-87312065D01*
X63773539Y-87312065D02*
X63939615Y-87386515D01*
X63939615Y-87386515D02*
X63949385Y-87063402D01*
X63949385Y-87063402D02*
X63953421Y-86942729D01*
X63953421Y-86942729D02*
X63957656Y-86855141D01*
X63957656Y-86855141D02*
X63962903Y-86794650D01*
X63962903Y-86794650D02*
X63969975Y-86755268D01*
X63969975Y-86755268D02*
X63979689Y-86731007D01*
X63979689Y-86731007D02*
X63992856Y-86715880D01*
X63992856Y-86715880D02*
X63997081Y-86712606D01*
X63997081Y-86712606D02*
X64061091Y-86687034D01*
X64061091Y-86687034D02*
X64125792Y-86697153D01*
X64125792Y-86697153D02*
X64164308Y-86724000D01*
X64164308Y-86724000D02*
X64179975Y-86743024D01*
X64179975Y-86743024D02*
X64190820Y-86767988D01*
X64190820Y-86767988D02*
X64197712Y-86805834D01*
X64197712Y-86805834D02*
X64201521Y-86863502D01*
X64201521Y-86863502D02*
X64203117Y-86947935D01*
X64203117Y-86947935D02*
X64203385Y-87035928D01*
X64203385Y-87035928D02*
X64203437Y-87146323D01*
X64203437Y-87146323D02*
X64205328Y-87224463D01*
X64205328Y-87224463D02*
X64211655Y-87277165D01*
X64211655Y-87277165D02*
X64225017Y-87311242D01*
X64225017Y-87311242D02*
X64248015Y-87333511D01*
X64248015Y-87333511D02*
X64283246Y-87350787D01*
X64283246Y-87350787D02*
X64330303Y-87368738D01*
X64330303Y-87368738D02*
X64381697Y-87388278D01*
X64381697Y-87388278D02*
X64375579Y-87041485D01*
X64375579Y-87041485D02*
X64373116Y-86916468D01*
X64373116Y-86916468D02*
X64370233Y-86824082D01*
X64370233Y-86824082D02*
X64366102Y-86757881D01*
X64366102Y-86757881D02*
X64359893Y-86711420D01*
X64359893Y-86711420D02*
X64350774Y-86678256D01*
X64350774Y-86678256D02*
X64337917Y-86651944D01*
X64337917Y-86651944D02*
X64322416Y-86628729D01*
X64322416Y-86628729D02*
X64247629Y-86554569D01*
X64247629Y-86554569D02*
X64156372Y-86511684D01*
X64156372Y-86511684D02*
X64057117Y-86501412D01*
X64057117Y-86501412D02*
X63958336Y-86525089D01*
X63958336Y-86525089D02*
X63958336Y-86525089D01*
G36*
X64156372Y-86511684D02*
G01*
X64247629Y-86554569D01*
X64322416Y-86628729D01*
X64337917Y-86651944D01*
X64350774Y-86678256D01*
X64359893Y-86711420D01*
X64366102Y-86757881D01*
X64370233Y-86824082D01*
X64373116Y-86916468D01*
X64375579Y-87041485D01*
X64381697Y-87388278D01*
X64330303Y-87368738D01*
X64283246Y-87350787D01*
X64248015Y-87333511D01*
X64225017Y-87311242D01*
X64211655Y-87277165D01*
X64205328Y-87224463D01*
X64203437Y-87146323D01*
X64203385Y-87035928D01*
X64203117Y-86947935D01*
X64201521Y-86863502D01*
X64197712Y-86805834D01*
X64190820Y-86767988D01*
X64179975Y-86743024D01*
X64164308Y-86724000D01*
X64125792Y-86697153D01*
X64061091Y-86687034D01*
X63997081Y-86712606D01*
X63992856Y-86715880D01*
X63979689Y-86731007D01*
X63969975Y-86755268D01*
X63962903Y-86794650D01*
X63957656Y-86855141D01*
X63953421Y-86942729D01*
X63949385Y-87063402D01*
X63939615Y-87386515D01*
X63773539Y-87312065D01*
X63773539Y-87017062D01*
X63773883Y-86936919D01*
X63776847Y-86825431D01*
X63784351Y-86742421D01*
X63798190Y-86681199D01*
X63820155Y-86635075D01*
X63852039Y-86597358D01*
X63895633Y-86561358D01*
X63958336Y-86525089D01*
X64057117Y-86501412D01*
X64156372Y-86511684D01*
G37*
X64156372Y-86511684D02*
X64247629Y-86554569D01*
X64322416Y-86628729D01*
X64337917Y-86651944D01*
X64350774Y-86678256D01*
X64359893Y-86711420D01*
X64366102Y-86757881D01*
X64370233Y-86824082D01*
X64373116Y-86916468D01*
X64375579Y-87041485D01*
X64381697Y-87388278D01*
X64330303Y-87368738D01*
X64283246Y-87350787D01*
X64248015Y-87333511D01*
X64225017Y-87311242D01*
X64211655Y-87277165D01*
X64205328Y-87224463D01*
X64203437Y-87146323D01*
X64203385Y-87035928D01*
X64203117Y-86947935D01*
X64201521Y-86863502D01*
X64197712Y-86805834D01*
X64190820Y-86767988D01*
X64179975Y-86743024D01*
X64164308Y-86724000D01*
X64125792Y-86697153D01*
X64061091Y-86687034D01*
X63997081Y-86712606D01*
X63992856Y-86715880D01*
X63979689Y-86731007D01*
X63969975Y-86755268D01*
X63962903Y-86794650D01*
X63957656Y-86855141D01*
X63953421Y-86942729D01*
X63949385Y-87063402D01*
X63939615Y-87386515D01*
X63773539Y-87312065D01*
X63773539Y-87017062D01*
X63773883Y-86936919D01*
X63776847Y-86825431D01*
X63784351Y-86742421D01*
X63798190Y-86681199D01*
X63820155Y-86635075D01*
X63852039Y-86597358D01*
X63895633Y-86561358D01*
X63958336Y-86525089D01*
X64057117Y-86501412D01*
X64156372Y-86511684D01*
X66213114Y-86517256D02*
X66121536Y-86565409D01*
X66121536Y-86565409D02*
X66053951Y-86642905D01*
X66053951Y-86642905D02*
X66029943Y-86692727D01*
X66029943Y-86692727D02*
X66011262Y-86767533D01*
X66011262Y-86767533D02*
X66001699Y-86862052D01*
X66001699Y-86862052D02*
X66000792Y-86965210D01*
X66000792Y-86965210D02*
X66008079Y-87065935D01*
X66008079Y-87065935D02*
X66023097Y-87153153D01*
X66023097Y-87153153D02*
X66045385Y-87215791D01*
X66045385Y-87215791D02*
X66052235Y-87226579D01*
X66052235Y-87226579D02*
X66133368Y-87307105D01*
X66133368Y-87307105D02*
X66229734Y-87355336D01*
X66229734Y-87355336D02*
X66334299Y-87369450D01*
X66334299Y-87369450D02*
X66440032Y-87347629D01*
X66440032Y-87347629D02*
X66469457Y-87334547D01*
X66469457Y-87334547D02*
X66526759Y-87294231D01*
X66526759Y-87294231D02*
X66577050Y-87240775D01*
X66577050Y-87240775D02*
X66581803Y-87233995D01*
X66581803Y-87233995D02*
X66601122Y-87201321D01*
X66601122Y-87201321D02*
X66613892Y-87166394D01*
X66613892Y-87166394D02*
X66621436Y-87120414D01*
X66621436Y-87120414D02*
X66625076Y-87054584D01*
X66625076Y-87054584D02*
X66626135Y-86960105D01*
X66626135Y-86960105D02*
X66626154Y-86938923D01*
X66626154Y-86938923D02*
X66626106Y-86932182D01*
X66626106Y-86932182D02*
X66430769Y-86932182D01*
X66430769Y-86932182D02*
X66429632Y-87021349D01*
X66429632Y-87021349D02*
X66425159Y-87080520D01*
X66425159Y-87080520D02*
X66415754Y-87118741D01*
X66415754Y-87118741D02*
X66399824Y-87145053D01*
X66399824Y-87145053D02*
X66391692Y-87153846D01*
X66391692Y-87153846D02*
X66344942Y-87187261D01*
X66344942Y-87187261D02*
X66299553Y-87185737D01*
X66299553Y-87185737D02*
X66253660Y-87156752D01*
X66253660Y-87156752D02*
X66226288Y-87125809D01*
X66226288Y-87125809D02*
X66210077Y-87080643D01*
X66210077Y-87080643D02*
X66200974Y-87009420D01*
X66200974Y-87009420D02*
X66200349Y-87001114D01*
X66200349Y-87001114D02*
X66198796Y-86872037D01*
X66198796Y-86872037D02*
X66215035Y-86776172D01*
X66215035Y-86776172D02*
X66248848Y-86714107D01*
X66248848Y-86714107D02*
X66300016Y-86686432D01*
X66300016Y-86686432D02*
X66318280Y-86684923D01*
X66318280Y-86684923D02*
X66366240Y-86692513D01*
X66366240Y-86692513D02*
X66399047Y-86718808D01*
X66399047Y-86718808D02*
X66419105Y-86769095D01*
X66419105Y-86769095D02*
X66428822Y-86848664D01*
X66428822Y-86848664D02*
X66430769Y-86932182D01*
X66430769Y-86932182D02*
X66626106Y-86932182D01*
X66626106Y-86932182D02*
X66625426Y-86838249D01*
X66625426Y-86838249D02*
X66622371Y-86767906D01*
X66622371Y-86767906D02*
X66615678Y-86719163D01*
X66615678Y-86719163D02*
X66604040Y-86683288D01*
X66604040Y-86683288D02*
X66586147Y-86651548D01*
X66586147Y-86651548D02*
X66582192Y-86645648D01*
X66582192Y-86645648D02*
X66515733Y-86566104D01*
X66515733Y-86566104D02*
X66443315Y-86519929D01*
X66443315Y-86519929D02*
X66355151Y-86501599D01*
X66355151Y-86501599D02*
X66325213Y-86500703D01*
X66325213Y-86500703D02*
X66213114Y-86517256D01*
X66213114Y-86517256D02*
X66213114Y-86517256D01*
G36*
X66626135Y-86960105D02*
G01*
X66625076Y-87054584D01*
X66621436Y-87120414D01*
X66613892Y-87166394D01*
X66601122Y-87201321D01*
X66581803Y-87233995D01*
X66577050Y-87240775D01*
X66526759Y-87294231D01*
X66469457Y-87334547D01*
X66440032Y-87347629D01*
X66334299Y-87369450D01*
X66229734Y-87355336D01*
X66133368Y-87307105D01*
X66052235Y-87226579D01*
X66045385Y-87215791D01*
X66023097Y-87153153D01*
X66008079Y-87065935D01*
X66000792Y-86965210D01*
X66001611Y-86872037D01*
X66198796Y-86872037D01*
X66200349Y-87001114D01*
X66200974Y-87009420D01*
X66210077Y-87080643D01*
X66226288Y-87125809D01*
X66253660Y-87156752D01*
X66299553Y-87185737D01*
X66344942Y-87187261D01*
X66391692Y-87153846D01*
X66399824Y-87145053D01*
X66415754Y-87118741D01*
X66425159Y-87080520D01*
X66429632Y-87021349D01*
X66430769Y-86932182D01*
X66428822Y-86848664D01*
X66419105Y-86769095D01*
X66399047Y-86718808D01*
X66366240Y-86692513D01*
X66318280Y-86684923D01*
X66300016Y-86686432D01*
X66248848Y-86714107D01*
X66215035Y-86776172D01*
X66198796Y-86872037D01*
X66001611Y-86872037D01*
X66001699Y-86862052D01*
X66011262Y-86767533D01*
X66029943Y-86692727D01*
X66053951Y-86642905D01*
X66121536Y-86565409D01*
X66213114Y-86517256D01*
X66325213Y-86500703D01*
X66355151Y-86501599D01*
X66443315Y-86519929D01*
X66515733Y-86566104D01*
X66582192Y-86645648D01*
X66586147Y-86651548D01*
X66604040Y-86683288D01*
X66615678Y-86719163D01*
X66622371Y-86767906D01*
X66625426Y-86838249D01*
X66626106Y-86932182D01*
X66626154Y-86938923D01*
X66626135Y-86960105D01*
G37*
X66626135Y-86960105D02*
X66625076Y-87054584D01*
X66621436Y-87120414D01*
X66613892Y-87166394D01*
X66601122Y-87201321D01*
X66581803Y-87233995D01*
X66577050Y-87240775D01*
X66526759Y-87294231D01*
X66469457Y-87334547D01*
X66440032Y-87347629D01*
X66334299Y-87369450D01*
X66229734Y-87355336D01*
X66133368Y-87307105D01*
X66052235Y-87226579D01*
X66045385Y-87215791D01*
X66023097Y-87153153D01*
X66008079Y-87065935D01*
X66000792Y-86965210D01*
X66001611Y-86872037D01*
X66198796Y-86872037D01*
X66200349Y-87001114D01*
X66200974Y-87009420D01*
X66210077Y-87080643D01*
X66226288Y-87125809D01*
X66253660Y-87156752D01*
X66299553Y-87185737D01*
X66344942Y-87187261D01*
X66391692Y-87153846D01*
X66399824Y-87145053D01*
X66415754Y-87118741D01*
X66425159Y-87080520D01*
X66429632Y-87021349D01*
X66430769Y-86932182D01*
X66428822Y-86848664D01*
X66419105Y-86769095D01*
X66399047Y-86718808D01*
X66366240Y-86692513D01*
X66318280Y-86684923D01*
X66300016Y-86686432D01*
X66248848Y-86714107D01*
X66215035Y-86776172D01*
X66198796Y-86872037D01*
X66001611Y-86872037D01*
X66001699Y-86862052D01*
X66011262Y-86767533D01*
X66029943Y-86692727D01*
X66053951Y-86642905D01*
X66121536Y-86565409D01*
X66213114Y-86517256D01*
X66325213Y-86500703D01*
X66355151Y-86501599D01*
X66443315Y-86519929D01*
X66515733Y-86566104D01*
X66582192Y-86645648D01*
X66586147Y-86651548D01*
X66604040Y-86683288D01*
X66615678Y-86719163D01*
X66622371Y-86767906D01*
X66625426Y-86838249D01*
X66626106Y-86932182D01*
X66626154Y-86938923D01*
X66626135Y-86960105D01*
X64695746Y-86529745D02*
X64618714Y-86581567D01*
X64618714Y-86581567D02*
X64559184Y-86656412D01*
X64559184Y-86656412D02*
X64523622Y-86751654D01*
X64523622Y-86751654D02*
X64516429Y-86821756D01*
X64516429Y-86821756D02*
X64517246Y-86851009D01*
X64517246Y-86851009D02*
X64524086Y-86873407D01*
X64524086Y-86873407D02*
X64542888Y-86893474D01*
X64542888Y-86893474D02*
X64579592Y-86915733D01*
X64579592Y-86915733D02*
X64640138Y-86944709D01*
X64640138Y-86944709D02*
X64730466Y-86984927D01*
X64730466Y-86984927D02*
X64730923Y-86985129D01*
X64730923Y-86985129D02*
X64814067Y-87023210D01*
X64814067Y-87023210D02*
X64882247Y-87057025D01*
X64882247Y-87057025D02*
X64928495Y-87082933D01*
X64928495Y-87082933D02*
X64945842Y-87097295D01*
X64945842Y-87097295D02*
X64945846Y-87097411D01*
X64945846Y-87097411D02*
X64930557Y-87128685D01*
X64930557Y-87128685D02*
X64894804Y-87163157D01*
X64894804Y-87163157D02*
X64853758Y-87187990D01*
X64853758Y-87187990D02*
X64832963Y-87192923D01*
X64832963Y-87192923D02*
X64776230Y-87175862D01*
X64776230Y-87175862D02*
X64727373Y-87133133D01*
X64727373Y-87133133D02*
X64703535Y-87086155D01*
X64703535Y-87086155D02*
X64680603Y-87051522D01*
X64680603Y-87051522D02*
X64635682Y-87012081D01*
X64635682Y-87012081D02*
X64582877Y-86978009D01*
X64582877Y-86978009D02*
X64536290Y-86959480D01*
X64536290Y-86959480D02*
X64526548Y-86958462D01*
X64526548Y-86958462D02*
X64515582Y-86975215D01*
X64515582Y-86975215D02*
X64514921Y-87018039D01*
X64514921Y-87018039D02*
X64522980Y-87075781D01*
X64522980Y-87075781D02*
X64538173Y-87137289D01*
X64538173Y-87137289D02*
X64558914Y-87191409D01*
X64558914Y-87191409D02*
X64559962Y-87193510D01*
X64559962Y-87193510D02*
X64622379Y-87280660D01*
X64622379Y-87280660D02*
X64703274Y-87339939D01*
X64703274Y-87339939D02*
X64795144Y-87369034D01*
X64795144Y-87369034D02*
X64890487Y-87365634D01*
X64890487Y-87365634D02*
X64981802Y-87327428D01*
X64981802Y-87327428D02*
X64985862Y-87324741D01*
X64985862Y-87324741D02*
X65057694Y-87259642D01*
X65057694Y-87259642D02*
X65104927Y-87174705D01*
X65104927Y-87174705D02*
X65131066Y-87063021D01*
X65131066Y-87063021D02*
X65134574Y-87031643D01*
X65134574Y-87031643D02*
X65140787Y-86883536D01*
X65140787Y-86883536D02*
X65133339Y-86814468D01*
X65133339Y-86814468D02*
X64945846Y-86814468D01*
X64945846Y-86814468D02*
X64943410Y-86857552D01*
X64943410Y-86857552D02*
X64930086Y-86870126D01*
X64930086Y-86870126D02*
X64896868Y-86860719D01*
X64896868Y-86860719D02*
X64844506Y-86838483D01*
X64844506Y-86838483D02*
X64785976Y-86810610D01*
X64785976Y-86810610D02*
X64784521Y-86809872D01*
X64784521Y-86809872D02*
X64734911Y-86783777D01*
X64734911Y-86783777D02*
X64715000Y-86766363D01*
X64715000Y-86766363D02*
X64719910Y-86748107D01*
X64719910Y-86748107D02*
X64740584Y-86724120D01*
X64740584Y-86724120D02*
X64793181Y-86689406D01*
X64793181Y-86689406D02*
X64849823Y-86686856D01*
X64849823Y-86686856D02*
X64900631Y-86712119D01*
X64900631Y-86712119D02*
X64935724Y-86760847D01*
X64935724Y-86760847D02*
X64945846Y-86814468D01*
X64945846Y-86814468D02*
X65133339Y-86814468D01*
X65133339Y-86814468D02*
X65128008Y-86765036D01*
X65128008Y-86765036D02*
X65095222Y-86671055D01*
X65095222Y-86671055D02*
X65049579Y-86605215D01*
X65049579Y-86605215D02*
X64967198Y-86538681D01*
X64967198Y-86538681D02*
X64876454Y-86505676D01*
X64876454Y-86505676D02*
X64783815Y-86503573D01*
X64783815Y-86503573D02*
X64695746Y-86529745D01*
X64695746Y-86529745D02*
X64695746Y-86529745D01*
G36*
X65134574Y-87031643D02*
G01*
X65131066Y-87063021D01*
X65104927Y-87174705D01*
X65057694Y-87259642D01*
X64985862Y-87324741D01*
X64981802Y-87327428D01*
X64890487Y-87365634D01*
X64795144Y-87369034D01*
X64703274Y-87339939D01*
X64622379Y-87280660D01*
X64559962Y-87193510D01*
X64558914Y-87191409D01*
X64538173Y-87137289D01*
X64522980Y-87075781D01*
X64514921Y-87018039D01*
X64515582Y-86975215D01*
X64526548Y-86958462D01*
X64536290Y-86959480D01*
X64582877Y-86978009D01*
X64635682Y-87012081D01*
X64680603Y-87051522D01*
X64703535Y-87086155D01*
X64727373Y-87133133D01*
X64776230Y-87175862D01*
X64832963Y-87192923D01*
X64853758Y-87187990D01*
X64894804Y-87163157D01*
X64930557Y-87128685D01*
X64945846Y-87097411D01*
X64945842Y-87097295D01*
X64928495Y-87082933D01*
X64882247Y-87057025D01*
X64814067Y-87023210D01*
X64730923Y-86985129D01*
X64730466Y-86984927D01*
X64640138Y-86944709D01*
X64579592Y-86915733D01*
X64542888Y-86893474D01*
X64524086Y-86873407D01*
X64517246Y-86851009D01*
X64516429Y-86821756D01*
X64522113Y-86766363D01*
X64715000Y-86766363D01*
X64734911Y-86783777D01*
X64784521Y-86809872D01*
X64785976Y-86810610D01*
X64844506Y-86838483D01*
X64896868Y-86860719D01*
X64930086Y-86870126D01*
X64943410Y-86857552D01*
X64945846Y-86814468D01*
X64935724Y-86760847D01*
X64900631Y-86712119D01*
X64849823Y-86686856D01*
X64793181Y-86689406D01*
X64740584Y-86724120D01*
X64719910Y-86748107D01*
X64715000Y-86766363D01*
X64522113Y-86766363D01*
X64523622Y-86751654D01*
X64559184Y-86656412D01*
X64618714Y-86581567D01*
X64695746Y-86529745D01*
X64783815Y-86503573D01*
X64876454Y-86505676D01*
X64967198Y-86538681D01*
X65049579Y-86605215D01*
X65095222Y-86671055D01*
X65128008Y-86765036D01*
X65133339Y-86814468D01*
X65140787Y-86883536D01*
X65134574Y-87031643D01*
G37*
X65134574Y-87031643D02*
X65131066Y-87063021D01*
X65104927Y-87174705D01*
X65057694Y-87259642D01*
X64985862Y-87324741D01*
X64981802Y-87327428D01*
X64890487Y-87365634D01*
X64795144Y-87369034D01*
X64703274Y-87339939D01*
X64622379Y-87280660D01*
X64559962Y-87193510D01*
X64558914Y-87191409D01*
X64538173Y-87137289D01*
X64522980Y-87075781D01*
X64514921Y-87018039D01*
X64515582Y-86975215D01*
X64526548Y-86958462D01*
X64536290Y-86959480D01*
X64582877Y-86978009D01*
X64635682Y-87012081D01*
X64680603Y-87051522D01*
X64703535Y-87086155D01*
X64727373Y-87133133D01*
X64776230Y-87175862D01*
X64832963Y-87192923D01*
X64853758Y-87187990D01*
X64894804Y-87163157D01*
X64930557Y-87128685D01*
X64945846Y-87097411D01*
X64945842Y-87097295D01*
X64928495Y-87082933D01*
X64882247Y-87057025D01*
X64814067Y-87023210D01*
X64730923Y-86985129D01*
X64730466Y-86984927D01*
X64640138Y-86944709D01*
X64579592Y-86915733D01*
X64542888Y-86893474D01*
X64524086Y-86873407D01*
X64517246Y-86851009D01*
X64516429Y-86821756D01*
X64522113Y-86766363D01*
X64715000Y-86766363D01*
X64734911Y-86783777D01*
X64784521Y-86809872D01*
X64785976Y-86810610D01*
X64844506Y-86838483D01*
X64896868Y-86860719D01*
X64930086Y-86870126D01*
X64943410Y-86857552D01*
X64945846Y-86814468D01*
X64935724Y-86760847D01*
X64900631Y-86712119D01*
X64849823Y-86686856D01*
X64793181Y-86689406D01*
X64740584Y-86724120D01*
X64719910Y-86748107D01*
X64715000Y-86766363D01*
X64522113Y-86766363D01*
X64523622Y-86751654D01*
X64559184Y-86656412D01*
X64618714Y-86581567D01*
X64695746Y-86529745D01*
X64783815Y-86503573D01*
X64876454Y-86505676D01*
X64967198Y-86538681D01*
X65049579Y-86605215D01*
X65095222Y-86671055D01*
X65128008Y-86765036D01*
X65133339Y-86814468D01*
X65140787Y-86883536D01*
X65134574Y-87031643D01*
X63070154Y-86422120D02*
X63064428Y-86501980D01*
X63064428Y-86501980D02*
X63057851Y-86549039D01*
X63057851Y-86549039D02*
X63048738Y-86569566D01*
X63048738Y-86569566D02*
X63035402Y-86569829D01*
X63035402Y-86569829D02*
X63031077Y-86567378D01*
X63031077Y-86567378D02*
X62973556Y-86549636D01*
X62973556Y-86549636D02*
X62898732Y-86550672D01*
X62898732Y-86550672D02*
X62822661Y-86568910D01*
X62822661Y-86568910D02*
X62775082Y-86592505D01*
X62775082Y-86592505D02*
X62726298Y-86630198D01*
X62726298Y-86630198D02*
X62690636Y-86672855D01*
X62690636Y-86672855D02*
X62666155Y-86727057D01*
X62666155Y-86727057D02*
X62650913Y-86799384D01*
X62650913Y-86799384D02*
X62642970Y-86896419D01*
X62642970Y-86896419D02*
X62640384Y-87024742D01*
X62640384Y-87024742D02*
X62640338Y-87049358D01*
X62640338Y-87049358D02*
X62640308Y-87325870D01*
X62640308Y-87325870D02*
X62701839Y-87347320D01*
X62701839Y-87347320D02*
X62745541Y-87361912D01*
X62745541Y-87361912D02*
X62769518Y-87368706D01*
X62769518Y-87368706D02*
X62770223Y-87368769D01*
X62770223Y-87368769D02*
X62772585Y-87350345D01*
X62772585Y-87350345D02*
X62774594Y-87299526D01*
X62774594Y-87299526D02*
X62776099Y-87222993D01*
X62776099Y-87222993D02*
X62776947Y-87127430D01*
X62776947Y-87127430D02*
X62777077Y-87069329D01*
X62777077Y-87069329D02*
X62777349Y-86954771D01*
X62777349Y-86954771D02*
X62778748Y-86872667D01*
X62778748Y-86872667D02*
X62782151Y-86816393D01*
X62782151Y-86816393D02*
X62788433Y-86779326D01*
X62788433Y-86779326D02*
X62798471Y-86754844D01*
X62798471Y-86754844D02*
X62813139Y-86736325D01*
X62813139Y-86736325D02*
X62822298Y-86727406D01*
X62822298Y-86727406D02*
X62885211Y-86691466D01*
X62885211Y-86691466D02*
X62953864Y-86688775D01*
X62953864Y-86688775D02*
X63016152Y-86719170D01*
X63016152Y-86719170D02*
X63027671Y-86730144D01*
X63027671Y-86730144D02*
X63044567Y-86750779D01*
X63044567Y-86750779D02*
X63056286Y-86775256D01*
X63056286Y-86775256D02*
X63063767Y-86810647D01*
X63063767Y-86810647D02*
X63067946Y-86864026D01*
X63067946Y-86864026D02*
X63069763Y-86942466D01*
X63069763Y-86942466D02*
X63070154Y-87050617D01*
X63070154Y-87050617D02*
X63070154Y-87325870D01*
X63070154Y-87325870D02*
X63131685Y-87347320D01*
X63131685Y-87347320D02*
X63175387Y-87361912D01*
X63175387Y-87361912D02*
X63199364Y-87368706D01*
X63199364Y-87368706D02*
X63200070Y-87368769D01*
X63200070Y-87368769D02*
X63201874Y-87350069D01*
X63201874Y-87350069D02*
X63203500Y-87297322D01*
X63203500Y-87297322D02*
X63204883Y-87215557D01*
X63204883Y-87215557D02*
X63205958Y-87109805D01*
X63205958Y-87109805D02*
X63206660Y-86985094D01*
X63206660Y-86985094D02*
X63206923Y-86846455D01*
X63206923Y-86846455D02*
X63206923Y-86311806D01*
X63206923Y-86311806D02*
X63079923Y-86258236D01*
X63079923Y-86258236D02*
X63070154Y-86422120D01*
X63070154Y-86422120D02*
X63070154Y-86422120D01*
G36*
X63206923Y-86311806D02*
G01*
X63206923Y-86846455D01*
X63206660Y-86985094D01*
X63205958Y-87109805D01*
X63204883Y-87215557D01*
X63203500Y-87297322D01*
X63201874Y-87350069D01*
X63200070Y-87368769D01*
X63199364Y-87368706D01*
X63175387Y-87361912D01*
X63131685Y-87347320D01*
X63070154Y-87325870D01*
X63070154Y-87050617D01*
X63069763Y-86942466D01*
X63067946Y-86864026D01*
X63063767Y-86810647D01*
X63056286Y-86775256D01*
X63044567Y-86750779D01*
X63027671Y-86730144D01*
X63016152Y-86719170D01*
X62953864Y-86688775D01*
X62885211Y-86691466D01*
X62822298Y-86727406D01*
X62813139Y-86736325D01*
X62798471Y-86754844D01*
X62788433Y-86779326D01*
X62782151Y-86816393D01*
X62778748Y-86872667D01*
X62777349Y-86954771D01*
X62777077Y-87069329D01*
X62776947Y-87127430D01*
X62776099Y-87222993D01*
X62774594Y-87299526D01*
X62772585Y-87350345D01*
X62770223Y-87368769D01*
X62769518Y-87368706D01*
X62745541Y-87361912D01*
X62701839Y-87347320D01*
X62640308Y-87325870D01*
X62640338Y-87049358D01*
X62640384Y-87024742D01*
X62642970Y-86896419D01*
X62650913Y-86799384D01*
X62666155Y-86727057D01*
X62690636Y-86672855D01*
X62726298Y-86630198D01*
X62775082Y-86592505D01*
X62822661Y-86568910D01*
X62898732Y-86550672D01*
X62973556Y-86549636D01*
X63031077Y-86567378D01*
X63035402Y-86569829D01*
X63048738Y-86569566D01*
X63057851Y-86549039D01*
X63064428Y-86501980D01*
X63070154Y-86422120D01*
X63079923Y-86258236D01*
X63206923Y-86311806D01*
G37*
X63206923Y-86311806D02*
X63206923Y-86846455D01*
X63206660Y-86985094D01*
X63205958Y-87109805D01*
X63204883Y-87215557D01*
X63203500Y-87297322D01*
X63201874Y-87350069D01*
X63200070Y-87368769D01*
X63199364Y-87368706D01*
X63175387Y-87361912D01*
X63131685Y-87347320D01*
X63070154Y-87325870D01*
X63070154Y-87050617D01*
X63069763Y-86942466D01*
X63067946Y-86864026D01*
X63063767Y-86810647D01*
X63056286Y-86775256D01*
X63044567Y-86750779D01*
X63027671Y-86730144D01*
X63016152Y-86719170D01*
X62953864Y-86688775D01*
X62885211Y-86691466D01*
X62822298Y-86727406D01*
X62813139Y-86736325D01*
X62798471Y-86754844D01*
X62788433Y-86779326D01*
X62782151Y-86816393D01*
X62778748Y-86872667D01*
X62777349Y-86954771D01*
X62777077Y-87069329D01*
X62776947Y-87127430D01*
X62776099Y-87222993D01*
X62774594Y-87299526D01*
X62772585Y-87350345D01*
X62770223Y-87368769D01*
X62769518Y-87368706D01*
X62745541Y-87361912D01*
X62701839Y-87347320D01*
X62640308Y-87325870D01*
X62640338Y-87049358D01*
X62640384Y-87024742D01*
X62642970Y-86896419D01*
X62650913Y-86799384D01*
X62666155Y-86727057D01*
X62690636Y-86672855D01*
X62726298Y-86630198D01*
X62775082Y-86592505D01*
X62822661Y-86568910D01*
X62898732Y-86550672D01*
X62973556Y-86549636D01*
X63031077Y-86567378D01*
X63035402Y-86569829D01*
X63048738Y-86569566D01*
X63057851Y-86549039D01*
X63064428Y-86501980D01*
X63070154Y-86422120D01*
X63079923Y-86258236D01*
X63206923Y-86311806D01*
X62176499Y-86556303D02*
X62099940Y-86584733D01*
X62099940Y-86584733D02*
X62099064Y-86585279D01*
X62099064Y-86585279D02*
X62051715Y-86620127D01*
X62051715Y-86620127D02*
X62016759Y-86660852D01*
X62016759Y-86660852D02*
X61992175Y-86713925D01*
X61992175Y-86713925D02*
X61975938Y-86785814D01*
X61975938Y-86785814D02*
X61966025Y-86882992D01*
X61966025Y-86882992D02*
X61960414Y-87011928D01*
X61960414Y-87011928D02*
X61959923Y-87030298D01*
X61959923Y-87030298D02*
X61952859Y-87307287D01*
X61952859Y-87307287D02*
X62012305Y-87338028D01*
X62012305Y-87338028D02*
X62055319Y-87358802D01*
X62055319Y-87358802D02*
X62081290Y-87368646D01*
X62081290Y-87368646D02*
X62082491Y-87368769D01*
X62082491Y-87368769D02*
X62086986Y-87350606D01*
X62086986Y-87350606D02*
X62090556Y-87301612D01*
X62090556Y-87301612D02*
X62092752Y-87230031D01*
X62092752Y-87230031D02*
X62093231Y-87172068D01*
X62093231Y-87172068D02*
X62093242Y-87078170D01*
X62093242Y-87078170D02*
X62097534Y-87019203D01*
X62097534Y-87019203D02*
X62112497Y-86991079D01*
X62112497Y-86991079D02*
X62144518Y-86989706D01*
X62144518Y-86989706D02*
X62199986Y-87010998D01*
X62199986Y-87010998D02*
X62283731Y-87050136D01*
X62283731Y-87050136D02*
X62345311Y-87082643D01*
X62345311Y-87082643D02*
X62376983Y-87110845D01*
X62376983Y-87110845D02*
X62386294Y-87141582D01*
X62386294Y-87141582D02*
X62386308Y-87143104D01*
X62386308Y-87143104D02*
X62370943Y-87196054D01*
X62370943Y-87196054D02*
X62325453Y-87224660D01*
X62325453Y-87224660D02*
X62255834Y-87228803D01*
X62255834Y-87228803D02*
X62205687Y-87228084D01*
X62205687Y-87228084D02*
X62179246Y-87242527D01*
X62179246Y-87242527D02*
X62162757Y-87277218D01*
X62162757Y-87277218D02*
X62153267Y-87321416D01*
X62153267Y-87321416D02*
X62166943Y-87346493D01*
X62166943Y-87346493D02*
X62172093Y-87350082D01*
X62172093Y-87350082D02*
X62220575Y-87364496D01*
X62220575Y-87364496D02*
X62288469Y-87366537D01*
X62288469Y-87366537D02*
X62358388Y-87356983D01*
X62358388Y-87356983D02*
X62407932Y-87339522D01*
X62407932Y-87339522D02*
X62476430Y-87281364D01*
X62476430Y-87281364D02*
X62515366Y-87200408D01*
X62515366Y-87200408D02*
X62523077Y-87137160D01*
X62523077Y-87137160D02*
X62517193Y-87080111D01*
X62517193Y-87080111D02*
X62495899Y-87033542D01*
X62495899Y-87033542D02*
X62453735Y-86992181D01*
X62453735Y-86992181D02*
X62385241Y-86950755D01*
X62385241Y-86950755D02*
X62284956Y-86903993D01*
X62284956Y-86903993D02*
X62278846Y-86901350D01*
X62278846Y-86901350D02*
X62188510Y-86859617D01*
X62188510Y-86859617D02*
X62132765Y-86825391D01*
X62132765Y-86825391D02*
X62108871Y-86794635D01*
X62108871Y-86794635D02*
X62114087Y-86763311D01*
X62114087Y-86763311D02*
X62145672Y-86727383D01*
X62145672Y-86727383D02*
X62155117Y-86719116D01*
X62155117Y-86719116D02*
X62218383Y-86687058D01*
X62218383Y-86687058D02*
X62283936Y-86688407D01*
X62283936Y-86688407D02*
X62341028Y-86719838D01*
X62341028Y-86719838D02*
X62378907Y-86778024D01*
X62378907Y-86778024D02*
X62382426Y-86789446D01*
X62382426Y-86789446D02*
X62416700Y-86844837D01*
X62416700Y-86844837D02*
X62460191Y-86871518D01*
X62460191Y-86871518D02*
X62523077Y-86897960D01*
X62523077Y-86897960D02*
X62523077Y-86829548D01*
X62523077Y-86829548D02*
X62503948Y-86730110D01*
X62503948Y-86730110D02*
X62447169Y-86638902D01*
X62447169Y-86638902D02*
X62417622Y-86608389D01*
X62417622Y-86608389D02*
X62350458Y-86569228D01*
X62350458Y-86569228D02*
X62265044Y-86551500D01*
X62265044Y-86551500D02*
X62176499Y-86556303D01*
X62176499Y-86556303D02*
X62176499Y-86556303D01*
G36*
X62350458Y-86569228D02*
G01*
X62417622Y-86608389D01*
X62447169Y-86638902D01*
X62503948Y-86730110D01*
X62523077Y-86829548D01*
X62523077Y-86897960D01*
X62460191Y-86871518D01*
X62416700Y-86844837D01*
X62382426Y-86789446D01*
X62378907Y-86778024D01*
X62341028Y-86719838D01*
X62283936Y-86688407D01*
X62218383Y-86687058D01*
X62155117Y-86719116D01*
X62145672Y-86727383D01*
X62114087Y-86763311D01*
X62108871Y-86794635D01*
X62132765Y-86825391D01*
X62188510Y-86859617D01*
X62278846Y-86901350D01*
X62284956Y-86903993D01*
X62385241Y-86950755D01*
X62453735Y-86992181D01*
X62495899Y-87033542D01*
X62517193Y-87080111D01*
X62523077Y-87137160D01*
X62515366Y-87200408D01*
X62476430Y-87281364D01*
X62407932Y-87339522D01*
X62358388Y-87356983D01*
X62288469Y-87366537D01*
X62220575Y-87364496D01*
X62172093Y-87350082D01*
X62166943Y-87346493D01*
X62153267Y-87321416D01*
X62162757Y-87277218D01*
X62179246Y-87242527D01*
X62205687Y-87228084D01*
X62255834Y-87228803D01*
X62325453Y-87224660D01*
X62370943Y-87196054D01*
X62386308Y-87143104D01*
X62386294Y-87141582D01*
X62376983Y-87110845D01*
X62345311Y-87082643D01*
X62283731Y-87050136D01*
X62199986Y-87010998D01*
X62144518Y-86989706D01*
X62112497Y-86991079D01*
X62097534Y-87019203D01*
X62093242Y-87078170D01*
X62093231Y-87172068D01*
X62092752Y-87230031D01*
X62090556Y-87301612D01*
X62086986Y-87350606D01*
X62082491Y-87368769D01*
X62081290Y-87368646D01*
X62055319Y-87358802D01*
X62012305Y-87338028D01*
X61952859Y-87307287D01*
X61959923Y-87030298D01*
X61960414Y-87011928D01*
X61966025Y-86882992D01*
X61975938Y-86785814D01*
X61992175Y-86713925D01*
X62016759Y-86660852D01*
X62051715Y-86620127D01*
X62099064Y-86585279D01*
X62099940Y-86584733D01*
X62176499Y-86556303D01*
X62265044Y-86551500D01*
X62350458Y-86569228D01*
G37*
X62350458Y-86569228D02*
X62417622Y-86608389D01*
X62447169Y-86638902D01*
X62503948Y-86730110D01*
X62523077Y-86829548D01*
X62523077Y-86897960D01*
X62460191Y-86871518D01*
X62416700Y-86844837D01*
X62382426Y-86789446D01*
X62378907Y-86778024D01*
X62341028Y-86719838D01*
X62283936Y-86688407D01*
X62218383Y-86687058D01*
X62155117Y-86719116D01*
X62145672Y-86727383D01*
X62114087Y-86763311D01*
X62108871Y-86794635D01*
X62132765Y-86825391D01*
X62188510Y-86859617D01*
X62278846Y-86901350D01*
X62284956Y-86903993D01*
X62385241Y-86950755D01*
X62453735Y-86992181D01*
X62495899Y-87033542D01*
X62517193Y-87080111D01*
X62523077Y-87137160D01*
X62515366Y-87200408D01*
X62476430Y-87281364D01*
X62407932Y-87339522D01*
X62358388Y-87356983D01*
X62288469Y-87366537D01*
X62220575Y-87364496D01*
X62172093Y-87350082D01*
X62166943Y-87346493D01*
X62153267Y-87321416D01*
X62162757Y-87277218D01*
X62179246Y-87242527D01*
X62205687Y-87228084D01*
X62255834Y-87228803D01*
X62325453Y-87224660D01*
X62370943Y-87196054D01*
X62386308Y-87143104D01*
X62386294Y-87141582D01*
X62376983Y-87110845D01*
X62345311Y-87082643D01*
X62283731Y-87050136D01*
X62199986Y-87010998D01*
X62144518Y-86989706D01*
X62112497Y-86991079D01*
X62097534Y-87019203D01*
X62093242Y-87078170D01*
X62093231Y-87172068D01*
X62092752Y-87230031D01*
X62090556Y-87301612D01*
X62086986Y-87350606D01*
X62082491Y-87368769D01*
X62081290Y-87368646D01*
X62055319Y-87358802D01*
X62012305Y-87338028D01*
X61952859Y-87307287D01*
X61959923Y-87030298D01*
X61960414Y-87011928D01*
X61966025Y-86882992D01*
X61975938Y-86785814D01*
X61992175Y-86713925D01*
X62016759Y-86660852D01*
X62051715Y-86620127D01*
X62099064Y-86585279D01*
X62099940Y-86584733D01*
X62176499Y-86556303D01*
X62265044Y-86551500D01*
X62350458Y-86569228D01*
X61516638Y-86554670D02*
X61427883Y-86587421D01*
X61427883Y-86587421D02*
X61355978Y-86645350D01*
X61355978Y-86645350D02*
X61327856Y-86686128D01*
X61327856Y-86686128D02*
X61297198Y-86760954D01*
X61297198Y-86760954D02*
X61297835Y-86815058D01*
X61297835Y-86815058D02*
X61330013Y-86851446D01*
X61330013Y-86851446D02*
X61341919Y-86857633D01*
X61341919Y-86857633D02*
X61393325Y-86876925D01*
X61393325Y-86876925D02*
X61419578Y-86871982D01*
X61419578Y-86871982D02*
X61428470Y-86839587D01*
X61428470Y-86839587D02*
X61428923Y-86821692D01*
X61428923Y-86821692D02*
X61445203Y-86755859D01*
X61445203Y-86755859D02*
X61487635Y-86709807D01*
X61487635Y-86709807D02*
X61546612Y-86687564D01*
X61546612Y-86687564D02*
X61612525Y-86693161D01*
X61612525Y-86693161D02*
X61666105Y-86722229D01*
X61666105Y-86722229D02*
X61684202Y-86738810D01*
X61684202Y-86738810D02*
X61697029Y-86758925D01*
X61697029Y-86758925D02*
X61705694Y-86789332D01*
X61705694Y-86789332D02*
X61711304Y-86836788D01*
X61711304Y-86836788D02*
X61714965Y-86908050D01*
X61714965Y-86908050D02*
X61717785Y-87009875D01*
X61717785Y-87009875D02*
X61718516Y-87042115D01*
X61718516Y-87042115D02*
X61721180Y-87152410D01*
X61721180Y-87152410D02*
X61724208Y-87230036D01*
X61724208Y-87230036D02*
X61728750Y-87281396D01*
X61728750Y-87281396D02*
X61735954Y-87312890D01*
X61735954Y-87312890D02*
X61746967Y-87330920D01*
X61746967Y-87330920D02*
X61762940Y-87341888D01*
X61762940Y-87341888D02*
X61773166Y-87346733D01*
X61773166Y-87346733D02*
X61816594Y-87363301D01*
X61816594Y-87363301D02*
X61842158Y-87368769D01*
X61842158Y-87368769D02*
X61850605Y-87350507D01*
X61850605Y-87350507D02*
X61855761Y-87295296D01*
X61855761Y-87295296D02*
X61857654Y-87202499D01*
X61857654Y-87202499D02*
X61856311Y-87071478D01*
X61856311Y-87071478D02*
X61855893Y-87051269D01*
X61855893Y-87051269D02*
X61852942Y-86931733D01*
X61852942Y-86931733D02*
X61849452Y-86844449D01*
X61849452Y-86844449D02*
X61844486Y-86782591D01*
X61844486Y-86782591D02*
X61837107Y-86739336D01*
X61837107Y-86739336D02*
X61826376Y-86707860D01*
X61826376Y-86707860D02*
X61811355Y-86681339D01*
X61811355Y-86681339D02*
X61803498Y-86669975D01*
X61803498Y-86669975D02*
X61758447Y-86619692D01*
X61758447Y-86619692D02*
X61708060Y-86580581D01*
X61708060Y-86580581D02*
X61701892Y-86577167D01*
X61701892Y-86577167D02*
X61611542Y-86550212D01*
X61611542Y-86550212D02*
X61516638Y-86554670D01*
X61516638Y-86554670D02*
X61516638Y-86554670D01*
G36*
X61701892Y-86577167D02*
G01*
X61708060Y-86580581D01*
X61758447Y-86619692D01*
X61803498Y-86669975D01*
X61811355Y-86681339D01*
X61826376Y-86707860D01*
X61837107Y-86739336D01*
X61844486Y-86782591D01*
X61849452Y-86844449D01*
X61852942Y-86931733D01*
X61855893Y-87051269D01*
X61856311Y-87071478D01*
X61857654Y-87202499D01*
X61855761Y-87295296D01*
X61850605Y-87350507D01*
X61842158Y-87368769D01*
X61816594Y-87363301D01*
X61773166Y-87346733D01*
X61762940Y-87341888D01*
X61746967Y-87330920D01*
X61735954Y-87312890D01*
X61728750Y-87281396D01*
X61724208Y-87230036D01*
X61721180Y-87152410D01*
X61718516Y-87042115D01*
X61717785Y-87009875D01*
X61714965Y-86908050D01*
X61711304Y-86836788D01*
X61705694Y-86789332D01*
X61697029Y-86758925D01*
X61684202Y-86738810D01*
X61666105Y-86722229D01*
X61612525Y-86693161D01*
X61546612Y-86687564D01*
X61487635Y-86709807D01*
X61445203Y-86755859D01*
X61428923Y-86821692D01*
X61428470Y-86839587D01*
X61419578Y-86871982D01*
X61393325Y-86876925D01*
X61341919Y-86857633D01*
X61330013Y-86851446D01*
X61297835Y-86815058D01*
X61297198Y-86760954D01*
X61327856Y-86686128D01*
X61355978Y-86645350D01*
X61427883Y-86587421D01*
X61516638Y-86554670D01*
X61611542Y-86550212D01*
X61701892Y-86577167D01*
G37*
X61701892Y-86577167D02*
X61708060Y-86580581D01*
X61758447Y-86619692D01*
X61803498Y-86669975D01*
X61811355Y-86681339D01*
X61826376Y-86707860D01*
X61837107Y-86739336D01*
X61844486Y-86782591D01*
X61849452Y-86844449D01*
X61852942Y-86931733D01*
X61855893Y-87051269D01*
X61856311Y-87071478D01*
X61857654Y-87202499D01*
X61855761Y-87295296D01*
X61850605Y-87350507D01*
X61842158Y-87368769D01*
X61816594Y-87363301D01*
X61773166Y-87346733D01*
X61762940Y-87341888D01*
X61746967Y-87330920D01*
X61735954Y-87312890D01*
X61728750Y-87281396D01*
X61724208Y-87230036D01*
X61721180Y-87152410D01*
X61718516Y-87042115D01*
X61717785Y-87009875D01*
X61714965Y-86908050D01*
X61711304Y-86836788D01*
X61705694Y-86789332D01*
X61697029Y-86758925D01*
X61684202Y-86738810D01*
X61666105Y-86722229D01*
X61612525Y-86693161D01*
X61546612Y-86687564D01*
X61487635Y-86709807D01*
X61445203Y-86755859D01*
X61428923Y-86821692D01*
X61428470Y-86839587D01*
X61419578Y-86871982D01*
X61393325Y-86876925D01*
X61341919Y-86857633D01*
X61330013Y-86851446D01*
X61297835Y-86815058D01*
X61297198Y-86760954D01*
X61327856Y-86686128D01*
X61355978Y-86645350D01*
X61427883Y-86587421D01*
X61516638Y-86554670D01*
X61611542Y-86550212D01*
X61701892Y-86577167D01*
X60627919Y-86710289D02*
X60628167Y-86856320D01*
X60628167Y-86856320D02*
X60629128Y-86968655D01*
X60629128Y-86968655D02*
X60631206Y-87052678D01*
X60631206Y-87052678D02*
X60634807Y-87113769D01*
X60634807Y-87113769D02*
X60640335Y-87157309D01*
X60640335Y-87157309D02*
X60648196Y-87188679D01*
X60648196Y-87188679D02*
X60658793Y-87213262D01*
X60658793Y-87213262D02*
X60666818Y-87227294D01*
X60666818Y-87227294D02*
X60733272Y-87303388D01*
X60733272Y-87303388D02*
X60817530Y-87351084D01*
X60817530Y-87351084D02*
X60910751Y-87368199D01*
X60910751Y-87368199D02*
X61004100Y-87352546D01*
X61004100Y-87352546D02*
X61059688Y-87324418D01*
X61059688Y-87324418D02*
X61118043Y-87275760D01*
X61118043Y-87275760D02*
X61157814Y-87216333D01*
X61157814Y-87216333D02*
X61181810Y-87138507D01*
X61181810Y-87138507D02*
X61192839Y-87034652D01*
X61192839Y-87034652D02*
X61194401Y-86958462D01*
X61194401Y-86958462D02*
X61194191Y-86952986D01*
X61194191Y-86952986D02*
X61057692Y-86952986D01*
X61057692Y-86952986D02*
X61056859Y-87040355D01*
X61056859Y-87040355D02*
X61053039Y-87098192D01*
X61053039Y-87098192D02*
X61044254Y-87136029D01*
X61044254Y-87136029D02*
X61028526Y-87163398D01*
X61028526Y-87163398D02*
X61009734Y-87184042D01*
X61009734Y-87184042D02*
X60946625Y-87223890D01*
X60946625Y-87223890D02*
X60878863Y-87227295D01*
X60878863Y-87227295D02*
X60814821Y-87194025D01*
X60814821Y-87194025D02*
X60809836Y-87189517D01*
X60809836Y-87189517D02*
X60788561Y-87166067D01*
X60788561Y-87166067D02*
X60775221Y-87138166D01*
X60775221Y-87138166D02*
X60767999Y-87096641D01*
X60767999Y-87096641D02*
X60765077Y-87032316D01*
X60765077Y-87032316D02*
X60764615Y-86961200D01*
X60764615Y-86961200D02*
X60765617Y-86871858D01*
X60765617Y-86871858D02*
X60769762Y-86812258D01*
X60769762Y-86812258D02*
X60778764Y-86773089D01*
X60778764Y-86773089D02*
X60794333Y-86745040D01*
X60794333Y-86745040D02*
X60807098Y-86730144D01*
X60807098Y-86730144D02*
X60866400Y-86692575D01*
X60866400Y-86692575D02*
X60934699Y-86688057D01*
X60934699Y-86688057D02*
X60999890Y-86716753D01*
X60999890Y-86716753D02*
X61012472Y-86727406D01*
X61012472Y-86727406D02*
X61033889Y-86751063D01*
X61033889Y-86751063D02*
X61047256Y-86779251D01*
X61047256Y-86779251D02*
X61054434Y-86821245D01*
X61054434Y-86821245D02*
X61057281Y-86886319D01*
X61057281Y-86886319D02*
X61057692Y-86952986D01*
X61057692Y-86952986D02*
X61194191Y-86952986D01*
X61194191Y-86952986D02*
X61189678Y-86835765D01*
X61189678Y-86835765D02*
X61173638Y-86743577D01*
X61173638Y-86743577D02*
X61143472Y-86674269D01*
X61143472Y-86674269D02*
X61096371Y-86620211D01*
X61096371Y-86620211D02*
X61059688Y-86592505D01*
X61059688Y-86592505D02*
X60993010Y-86562572D01*
X60993010Y-86562572D02*
X60915728Y-86548678D01*
X60915728Y-86548678D02*
X60843890Y-86552397D01*
X60843890Y-86552397D02*
X60803692Y-86567400D01*
X60803692Y-86567400D02*
X60787918Y-86571670D01*
X60787918Y-86571670D02*
X60777450Y-86555750D01*
X60777450Y-86555750D02*
X60770144Y-86513089D01*
X60770144Y-86513089D02*
X60764615Y-86448106D01*
X60764615Y-86448106D02*
X60758563Y-86375732D01*
X60758563Y-86375732D02*
X60750156Y-86332187D01*
X60750156Y-86332187D02*
X60734859Y-86307287D01*
X60734859Y-86307287D02*
X60708136Y-86290845D01*
X60708136Y-86290845D02*
X60691346Y-86283564D01*
X60691346Y-86283564D02*
X60627846Y-86256963D01*
X60627846Y-86256963D02*
X60627919Y-86710289D01*
X60627919Y-86710289D02*
X60627919Y-86710289D01*
G36*
X61192839Y-87034652D02*
G01*
X61181810Y-87138507D01*
X61157814Y-87216333D01*
X61118043Y-87275760D01*
X61059688Y-87324418D01*
X61004100Y-87352546D01*
X60910751Y-87368199D01*
X60817530Y-87351084D01*
X60733272Y-87303388D01*
X60666818Y-87227294D01*
X60658793Y-87213262D01*
X60648196Y-87188679D01*
X60640335Y-87157309D01*
X60634807Y-87113769D01*
X60631206Y-87052678D01*
X60629128Y-86968655D01*
X60629064Y-86961200D01*
X60764615Y-86961200D01*
X60765077Y-87032316D01*
X60767999Y-87096641D01*
X60775221Y-87138166D01*
X60788561Y-87166067D01*
X60809836Y-87189517D01*
X60814821Y-87194025D01*
X60878863Y-87227295D01*
X60946625Y-87223890D01*
X61009734Y-87184042D01*
X61028526Y-87163398D01*
X61044254Y-87136029D01*
X61053039Y-87098192D01*
X61056859Y-87040355D01*
X61057692Y-86952986D01*
X61057281Y-86886319D01*
X61054434Y-86821245D01*
X61047256Y-86779251D01*
X61033889Y-86751063D01*
X61012472Y-86727406D01*
X60999890Y-86716753D01*
X60934699Y-86688057D01*
X60866400Y-86692575D01*
X60807098Y-86730144D01*
X60794333Y-86745040D01*
X60778764Y-86773089D01*
X60769762Y-86812258D01*
X60765617Y-86871858D01*
X60764615Y-86961200D01*
X60629064Y-86961200D01*
X60628167Y-86856320D01*
X60627919Y-86710289D01*
X60627846Y-86256963D01*
X60691346Y-86283564D01*
X60708136Y-86290845D01*
X60734859Y-86307287D01*
X60750156Y-86332187D01*
X60758563Y-86375732D01*
X60764615Y-86448106D01*
X60770144Y-86513089D01*
X60777450Y-86555750D01*
X60787918Y-86571670D01*
X60803692Y-86567400D01*
X60843890Y-86552397D01*
X60915728Y-86548678D01*
X60993010Y-86562572D01*
X61059688Y-86592505D01*
X61096371Y-86620211D01*
X61143472Y-86674269D01*
X61173638Y-86743577D01*
X61189678Y-86835765D01*
X61194191Y-86952986D01*
X61194401Y-86958462D01*
X61192839Y-87034652D01*
G37*
X61192839Y-87034652D02*
X61181810Y-87138507D01*
X61157814Y-87216333D01*
X61118043Y-87275760D01*
X61059688Y-87324418D01*
X61004100Y-87352546D01*
X60910751Y-87368199D01*
X60817530Y-87351084D01*
X60733272Y-87303388D01*
X60666818Y-87227294D01*
X60658793Y-87213262D01*
X60648196Y-87188679D01*
X60640335Y-87157309D01*
X60634807Y-87113769D01*
X60631206Y-87052678D01*
X60629128Y-86968655D01*
X60629064Y-86961200D01*
X60764615Y-86961200D01*
X60765077Y-87032316D01*
X60767999Y-87096641D01*
X60775221Y-87138166D01*
X60788561Y-87166067D01*
X60809836Y-87189517D01*
X60814821Y-87194025D01*
X60878863Y-87227295D01*
X60946625Y-87223890D01*
X61009734Y-87184042D01*
X61028526Y-87163398D01*
X61044254Y-87136029D01*
X61053039Y-87098192D01*
X61056859Y-87040355D01*
X61057692Y-86952986D01*
X61057281Y-86886319D01*
X61054434Y-86821245D01*
X61047256Y-86779251D01*
X61033889Y-86751063D01*
X61012472Y-86727406D01*
X60999890Y-86716753D01*
X60934699Y-86688057D01*
X60866400Y-86692575D01*
X60807098Y-86730144D01*
X60794333Y-86745040D01*
X60778764Y-86773089D01*
X60769762Y-86812258D01*
X60765617Y-86871858D01*
X60764615Y-86961200D01*
X60629064Y-86961200D01*
X60628167Y-86856320D01*
X60627919Y-86710289D01*
X60627846Y-86256963D01*
X60691346Y-86283564D01*
X60708136Y-86290845D01*
X60734859Y-86307287D01*
X60750156Y-86332187D01*
X60758563Y-86375732D01*
X60764615Y-86448106D01*
X60770144Y-86513089D01*
X60777450Y-86555750D01*
X60787918Y-86571670D01*
X60803692Y-86567400D01*
X60843890Y-86552397D01*
X60915728Y-86548678D01*
X60993010Y-86562572D01*
X61059688Y-86592505D01*
X61096371Y-86620211D01*
X61143472Y-86674269D01*
X61173638Y-86743577D01*
X61189678Y-86835765D01*
X61194191Y-86952986D01*
X61194401Y-86958462D01*
X61192839Y-87034652D01*
X59834071Y-86566662D02*
X59831089Y-86618068D01*
X59831089Y-86618068D02*
X59828753Y-86696192D01*
X59828753Y-86696192D02*
X59827251Y-86794857D01*
X59827251Y-86794857D02*
X59826769Y-86898343D01*
X59826769Y-86898343D02*
X59826769Y-87248533D01*
X59826769Y-87248533D02*
X59888599Y-87310363D01*
X59888599Y-87310363D02*
X59931207Y-87348462D01*
X59931207Y-87348462D02*
X59968610Y-87363895D01*
X59968610Y-87363895D02*
X60019730Y-87362918D01*
X60019730Y-87362918D02*
X60040022Y-87360433D01*
X60040022Y-87360433D02*
X60103446Y-87353200D01*
X60103446Y-87353200D02*
X60155905Y-87349055D01*
X60155905Y-87349055D02*
X60168692Y-87348672D01*
X60168692Y-87348672D02*
X60211801Y-87351176D01*
X60211801Y-87351176D02*
X60273456Y-87357462D01*
X60273456Y-87357462D02*
X60297362Y-87360433D01*
X60297362Y-87360433D02*
X60356078Y-87365028D01*
X60356078Y-87365028D02*
X60395536Y-87355046D01*
X60395536Y-87355046D02*
X60434662Y-87324228D01*
X60434662Y-87324228D02*
X60448785Y-87310363D01*
X60448785Y-87310363D02*
X60510615Y-87248533D01*
X60510615Y-87248533D02*
X60510615Y-86593503D01*
X60510615Y-86593503D02*
X60460850Y-86570829D01*
X60460850Y-86570829D02*
X60417998Y-86554034D01*
X60417998Y-86554034D02*
X60392927Y-86548154D01*
X60392927Y-86548154D02*
X60386499Y-86566736D01*
X60386499Y-86566736D02*
X60380491Y-86618655D01*
X60380491Y-86618655D02*
X60375303Y-86698172D01*
X60375303Y-86698172D02*
X60371336Y-86799546D01*
X60371336Y-86799546D02*
X60369423Y-86885192D01*
X60369423Y-86885192D02*
X60364077Y-87222231D01*
X60364077Y-87222231D02*
X60317440Y-87228825D01*
X60317440Y-87228825D02*
X60275024Y-87224214D01*
X60275024Y-87224214D02*
X60254240Y-87209287D01*
X60254240Y-87209287D02*
X60248430Y-87181377D01*
X60248430Y-87181377D02*
X60243470Y-87121925D01*
X60243470Y-87121925D02*
X60239754Y-87038466D01*
X60239754Y-87038466D02*
X60237676Y-86938532D01*
X60237676Y-86938532D02*
X60237376Y-86887104D01*
X60237376Y-86887104D02*
X60237077Y-86591054D01*
X60237077Y-86591054D02*
X60175546Y-86569604D01*
X60175546Y-86569604D02*
X60131996Y-86555020D01*
X60131996Y-86555020D02*
X60108306Y-86548219D01*
X60108306Y-86548219D02*
X60107623Y-86548154D01*
X60107623Y-86548154D02*
X60105246Y-86566642D01*
X60105246Y-86566642D02*
X60102634Y-86617906D01*
X60102634Y-86617906D02*
X60100005Y-86695649D01*
X60100005Y-86695649D02*
X60097579Y-86793574D01*
X60097579Y-86793574D02*
X60095885Y-86885192D01*
X60095885Y-86885192D02*
X60090539Y-87222231D01*
X60090539Y-87222231D02*
X59973308Y-87222231D01*
X59973308Y-87222231D02*
X59967928Y-86914746D01*
X59967928Y-86914746D02*
X59962549Y-86607261D01*
X59962549Y-86607261D02*
X59905399Y-86577707D01*
X59905399Y-86577707D02*
X59863203Y-86557413D01*
X59863203Y-86557413D02*
X59838230Y-86548204D01*
X59838230Y-86548204D02*
X59837509Y-86548154D01*
X59837509Y-86548154D02*
X59834071Y-86566662D01*
X59834071Y-86566662D02*
X59834071Y-86566662D01*
G36*
X60417998Y-86554034D02*
G01*
X60460850Y-86570829D01*
X60510615Y-86593503D01*
X60510615Y-87248533D01*
X60448785Y-87310363D01*
X60434662Y-87324228D01*
X60395536Y-87355046D01*
X60356078Y-87365028D01*
X60297362Y-87360433D01*
X60273456Y-87357462D01*
X60211801Y-87351176D01*
X60168692Y-87348672D01*
X60155905Y-87349055D01*
X60103446Y-87353200D01*
X60040022Y-87360433D01*
X60019730Y-87362918D01*
X59968610Y-87363895D01*
X59931207Y-87348462D01*
X59888599Y-87310363D01*
X59826769Y-87248533D01*
X59826769Y-86898343D01*
X59827251Y-86794857D01*
X59828753Y-86696192D01*
X59831089Y-86618068D01*
X59834071Y-86566662D01*
X59837509Y-86548154D01*
X59838230Y-86548204D01*
X59863203Y-86557413D01*
X59905399Y-86577707D01*
X59962549Y-86607261D01*
X59967928Y-86914746D01*
X59973308Y-87222231D01*
X60090539Y-87222231D01*
X60095885Y-86885192D01*
X60097579Y-86793574D01*
X60100005Y-86695649D01*
X60102634Y-86617906D01*
X60105246Y-86566642D01*
X60107623Y-86548154D01*
X60108306Y-86548219D01*
X60131996Y-86555020D01*
X60175546Y-86569604D01*
X60237077Y-86591054D01*
X60237376Y-86887104D01*
X60237676Y-86938532D01*
X60239754Y-87038466D01*
X60243470Y-87121925D01*
X60248430Y-87181377D01*
X60254240Y-87209287D01*
X60275024Y-87224214D01*
X60317440Y-87228825D01*
X60364077Y-87222231D01*
X60369423Y-86885192D01*
X60371336Y-86799546D01*
X60375303Y-86698172D01*
X60380491Y-86618655D01*
X60386499Y-86566736D01*
X60392927Y-86548154D01*
X60417998Y-86554034D01*
G37*
X60417998Y-86554034D02*
X60460850Y-86570829D01*
X60510615Y-86593503D01*
X60510615Y-87248533D01*
X60448785Y-87310363D01*
X60434662Y-87324228D01*
X60395536Y-87355046D01*
X60356078Y-87365028D01*
X60297362Y-87360433D01*
X60273456Y-87357462D01*
X60211801Y-87351176D01*
X60168692Y-87348672D01*
X60155905Y-87349055D01*
X60103446Y-87353200D01*
X60040022Y-87360433D01*
X60019730Y-87362918D01*
X59968610Y-87363895D01*
X59931207Y-87348462D01*
X59888599Y-87310363D01*
X59826769Y-87248533D01*
X59826769Y-86898343D01*
X59827251Y-86794857D01*
X59828753Y-86696192D01*
X59831089Y-86618068D01*
X59834071Y-86566662D01*
X59837509Y-86548154D01*
X59838230Y-86548204D01*
X59863203Y-86557413D01*
X59905399Y-86577707D01*
X59962549Y-86607261D01*
X59967928Y-86914746D01*
X59973308Y-87222231D01*
X60090539Y-87222231D01*
X60095885Y-86885192D01*
X60097579Y-86793574D01*
X60100005Y-86695649D01*
X60102634Y-86617906D01*
X60105246Y-86566642D01*
X60107623Y-86548154D01*
X60108306Y-86548219D01*
X60131996Y-86555020D01*
X60175546Y-86569604D01*
X60237077Y-86591054D01*
X60237376Y-86887104D01*
X60237676Y-86938532D01*
X60239754Y-87038466D01*
X60243470Y-87121925D01*
X60248430Y-87181377D01*
X60254240Y-87209287D01*
X60275024Y-87224214D01*
X60317440Y-87228825D01*
X60364077Y-87222231D01*
X60369423Y-86885192D01*
X60371336Y-86799546D01*
X60375303Y-86698172D01*
X60380491Y-86618655D01*
X60386499Y-86566736D01*
X60392927Y-86548154D01*
X60417998Y-86554034D01*
X59342667Y-86563528D02*
X59286410Y-86589117D01*
X59286410Y-86589117D02*
X59242253Y-86620124D01*
X59242253Y-86620124D02*
X59209899Y-86654795D01*
X59209899Y-86654795D02*
X59187562Y-86699520D01*
X59187562Y-86699520D02*
X59173454Y-86760692D01*
X59173454Y-86760692D02*
X59165789Y-86844701D01*
X59165789Y-86844701D02*
X59162780Y-86957940D01*
X59162780Y-86957940D02*
X59162462Y-87032509D01*
X59162462Y-87032509D02*
X59162462Y-87323420D01*
X59162462Y-87323420D02*
X59212227Y-87346095D01*
X59212227Y-87346095D02*
X59251424Y-87362667D01*
X59251424Y-87362667D02*
X59270843Y-87368769D01*
X59270843Y-87368769D02*
X59274558Y-87350610D01*
X59274558Y-87350610D02*
X59277505Y-87301648D01*
X59277505Y-87301648D02*
X59279309Y-87230153D01*
X59279309Y-87230153D02*
X59279692Y-87173385D01*
X59279692Y-87173385D02*
X59281339Y-87091371D01*
X59281339Y-87091371D02*
X59285778Y-87026309D01*
X59285778Y-87026309D02*
X59292260Y-86986467D01*
X59292260Y-86986467D02*
X59297410Y-86978000D01*
X59297410Y-86978000D02*
X59332023Y-86986646D01*
X59332023Y-86986646D02*
X59386360Y-87008823D01*
X59386360Y-87008823D02*
X59449278Y-87038886D01*
X59449278Y-87038886D02*
X59509632Y-87071192D01*
X59509632Y-87071192D02*
X59556279Y-87100098D01*
X59556279Y-87100098D02*
X59578074Y-87119961D01*
X59578074Y-87119961D02*
X59578161Y-87120175D01*
X59578161Y-87120175D02*
X59576286Y-87156935D01*
X59576286Y-87156935D02*
X59559475Y-87192026D01*
X59559475Y-87192026D02*
X59529961Y-87220528D01*
X59529961Y-87220528D02*
X59486884Y-87230061D01*
X59486884Y-87230061D02*
X59450068Y-87228950D01*
X59450068Y-87228950D02*
X59397926Y-87228133D01*
X59397926Y-87228133D02*
X59370556Y-87240349D01*
X59370556Y-87240349D02*
X59354118Y-87272624D01*
X59354118Y-87272624D02*
X59352045Y-87278710D01*
X59352045Y-87278710D02*
X59344919Y-87324739D01*
X59344919Y-87324739D02*
X59363976Y-87352687D01*
X59363976Y-87352687D02*
X59413647Y-87366007D01*
X59413647Y-87366007D02*
X59467303Y-87368470D01*
X59467303Y-87368470D02*
X59563858Y-87350210D01*
X59563858Y-87350210D02*
X59613841Y-87324131D01*
X59613841Y-87324131D02*
X59675571Y-87262868D01*
X59675571Y-87262868D02*
X59708310Y-87187670D01*
X59708310Y-87187670D02*
X59711247Y-87108211D01*
X59711247Y-87108211D02*
X59683576Y-87034167D01*
X59683576Y-87034167D02*
X59641953Y-86987769D01*
X59641953Y-86987769D02*
X59600396Y-86961793D01*
X59600396Y-86961793D02*
X59535078Y-86928907D01*
X59535078Y-86928907D02*
X59458962Y-86895557D01*
X59458962Y-86895557D02*
X59446274Y-86890461D01*
X59446274Y-86890461D02*
X59362667Y-86853565D01*
X59362667Y-86853565D02*
X59314470Y-86821046D01*
X59314470Y-86821046D02*
X59298970Y-86788718D01*
X59298970Y-86788718D02*
X59313450Y-86752394D01*
X59313450Y-86752394D02*
X59338308Y-86724000D01*
X59338308Y-86724000D02*
X59397061Y-86689039D01*
X59397061Y-86689039D02*
X59461707Y-86686417D01*
X59461707Y-86686417D02*
X59520992Y-86713358D01*
X59520992Y-86713358D02*
X59563661Y-86767088D01*
X59563661Y-86767088D02*
X59569261Y-86780950D01*
X59569261Y-86780950D02*
X59601867Y-86831936D01*
X59601867Y-86831936D02*
X59649470Y-86869787D01*
X59649470Y-86869787D02*
X59709539Y-86900850D01*
X59709539Y-86900850D02*
X59709539Y-86812768D01*
X59709539Y-86812768D02*
X59706003Y-86758951D01*
X59706003Y-86758951D02*
X59690844Y-86716534D01*
X59690844Y-86716534D02*
X59657232Y-86671279D01*
X59657232Y-86671279D02*
X59624965Y-86636420D01*
X59624965Y-86636420D02*
X59574791Y-86587062D01*
X59574791Y-86587062D02*
X59535807Y-86560547D01*
X59535807Y-86560547D02*
X59493936Y-86549911D01*
X59493936Y-86549911D02*
X59446540Y-86548154D01*
X59446540Y-86548154D02*
X59342667Y-86563528D01*
X59342667Y-86563528D02*
X59342667Y-86563528D01*
G36*
X59493936Y-86549911D02*
G01*
X59535807Y-86560547D01*
X59574791Y-86587062D01*
X59624965Y-86636420D01*
X59657232Y-86671279D01*
X59690844Y-86716534D01*
X59706003Y-86758951D01*
X59709539Y-86812768D01*
X59709539Y-86900850D01*
X59649470Y-86869787D01*
X59601867Y-86831936D01*
X59569261Y-86780950D01*
X59563661Y-86767088D01*
X59520992Y-86713358D01*
X59461707Y-86686417D01*
X59397061Y-86689039D01*
X59338308Y-86724000D01*
X59313450Y-86752394D01*
X59298970Y-86788718D01*
X59314470Y-86821046D01*
X59362667Y-86853565D01*
X59446274Y-86890461D01*
X59458962Y-86895557D01*
X59535078Y-86928907D01*
X59600396Y-86961793D01*
X59641953Y-86987769D01*
X59683576Y-87034167D01*
X59711247Y-87108211D01*
X59708310Y-87187670D01*
X59675571Y-87262868D01*
X59613841Y-87324131D01*
X59563858Y-87350210D01*
X59467303Y-87368470D01*
X59413647Y-87366007D01*
X59363976Y-87352687D01*
X59344919Y-87324739D01*
X59352045Y-87278710D01*
X59354118Y-87272624D01*
X59370556Y-87240349D01*
X59397926Y-87228133D01*
X59450068Y-87228950D01*
X59486884Y-87230061D01*
X59529961Y-87220528D01*
X59559475Y-87192026D01*
X59576286Y-87156935D01*
X59578161Y-87120175D01*
X59578074Y-87119961D01*
X59556279Y-87100098D01*
X59509632Y-87071192D01*
X59449278Y-87038886D01*
X59386360Y-87008823D01*
X59332023Y-86986646D01*
X59297410Y-86978000D01*
X59292260Y-86986467D01*
X59285778Y-87026309D01*
X59281339Y-87091371D01*
X59279692Y-87173385D01*
X59279309Y-87230153D01*
X59277505Y-87301648D01*
X59274558Y-87350610D01*
X59270843Y-87368769D01*
X59251424Y-87362667D01*
X59212227Y-87346095D01*
X59162462Y-87323420D01*
X59162462Y-87032509D01*
X59162780Y-86957940D01*
X59165789Y-86844701D01*
X59173454Y-86760692D01*
X59187562Y-86699520D01*
X59209899Y-86654795D01*
X59242253Y-86620124D01*
X59286410Y-86589117D01*
X59342667Y-86563528D01*
X59446540Y-86548154D01*
X59493936Y-86549911D01*
G37*
X59493936Y-86549911D02*
X59535807Y-86560547D01*
X59574791Y-86587062D01*
X59624965Y-86636420D01*
X59657232Y-86671279D01*
X59690844Y-86716534D01*
X59706003Y-86758951D01*
X59709539Y-86812768D01*
X59709539Y-86900850D01*
X59649470Y-86869787D01*
X59601867Y-86831936D01*
X59569261Y-86780950D01*
X59563661Y-86767088D01*
X59520992Y-86713358D01*
X59461707Y-86686417D01*
X59397061Y-86689039D01*
X59338308Y-86724000D01*
X59313450Y-86752394D01*
X59298970Y-86788718D01*
X59314470Y-86821046D01*
X59362667Y-86853565D01*
X59446274Y-86890461D01*
X59458962Y-86895557D01*
X59535078Y-86928907D01*
X59600396Y-86961793D01*
X59641953Y-86987769D01*
X59683576Y-87034167D01*
X59711247Y-87108211D01*
X59708310Y-87187670D01*
X59675571Y-87262868D01*
X59613841Y-87324131D01*
X59563858Y-87350210D01*
X59467303Y-87368470D01*
X59413647Y-87366007D01*
X59363976Y-87352687D01*
X59344919Y-87324739D01*
X59352045Y-87278710D01*
X59354118Y-87272624D01*
X59370556Y-87240349D01*
X59397926Y-87228133D01*
X59450068Y-87228950D01*
X59486884Y-87230061D01*
X59529961Y-87220528D01*
X59559475Y-87192026D01*
X59576286Y-87156935D01*
X59578161Y-87120175D01*
X59578074Y-87119961D01*
X59556279Y-87100098D01*
X59509632Y-87071192D01*
X59449278Y-87038886D01*
X59386360Y-87008823D01*
X59332023Y-86986646D01*
X59297410Y-86978000D01*
X59292260Y-86986467D01*
X59285778Y-87026309D01*
X59281339Y-87091371D01*
X59279692Y-87173385D01*
X59279309Y-87230153D01*
X59277505Y-87301648D01*
X59274558Y-87350610D01*
X59270843Y-87368769D01*
X59251424Y-87362667D01*
X59212227Y-87346095D01*
X59162462Y-87323420D01*
X59162462Y-87032509D01*
X59162780Y-86957940D01*
X59165789Y-86844701D01*
X59173454Y-86760692D01*
X59187562Y-86699520D01*
X59209899Y-86654795D01*
X59242253Y-86620124D01*
X59286410Y-86589117D01*
X59342667Y-86563528D01*
X59446540Y-86548154D01*
X59493936Y-86549911D01*
X58659193Y-86566782D02*
X58635839Y-86576988D01*
X58635839Y-86576988D02*
X58580098Y-86621134D01*
X58580098Y-86621134D02*
X58532431Y-86684967D01*
X58532431Y-86684967D02*
X58502952Y-86753087D01*
X58502952Y-86753087D02*
X58498154Y-86786670D01*
X58498154Y-86786670D02*
X58514240Y-86833556D01*
X58514240Y-86833556D02*
X58549525Y-86858365D01*
X58549525Y-86858365D02*
X58587356Y-86873387D01*
X58587356Y-86873387D02*
X58604679Y-86876155D01*
X58604679Y-86876155D02*
X58613114Y-86856066D01*
X58613114Y-86856066D02*
X58629770Y-86812351D01*
X58629770Y-86812351D02*
X58637077Y-86792598D01*
X58637077Y-86792598D02*
X58678052Y-86724271D01*
X58678052Y-86724271D02*
X58737378Y-86690191D01*
X58737378Y-86690191D02*
X58813448Y-86691239D01*
X58813448Y-86691239D02*
X58819082Y-86692581D01*
X58819082Y-86692581D02*
X58859695Y-86711836D01*
X58859695Y-86711836D02*
X58889552Y-86749375D01*
X58889552Y-86749375D02*
X58909945Y-86809809D01*
X58909945Y-86809809D02*
X58922164Y-86897751D01*
X58922164Y-86897751D02*
X58927500Y-87017813D01*
X58927500Y-87017813D02*
X58928000Y-87081698D01*
X58928000Y-87081698D02*
X58928248Y-87182403D01*
X58928248Y-87182403D02*
X58929874Y-87251054D01*
X58929874Y-87251054D02*
X58934199Y-87294673D01*
X58934199Y-87294673D02*
X58942546Y-87320282D01*
X58942546Y-87320282D02*
X58956235Y-87334903D01*
X58956235Y-87334903D02*
X58976589Y-87345558D01*
X58976589Y-87345558D02*
X58977766Y-87346095D01*
X58977766Y-87346095D02*
X59016962Y-87362667D01*
X59016962Y-87362667D02*
X59036381Y-87368769D01*
X59036381Y-87368769D02*
X59039365Y-87350319D01*
X59039365Y-87350319D02*
X59041919Y-87299323D01*
X59041919Y-87299323D02*
X59043860Y-87222308D01*
X59043860Y-87222308D02*
X59045003Y-87125805D01*
X59045003Y-87125805D02*
X59045231Y-87055184D01*
X59045231Y-87055184D02*
X59044068Y-86918525D01*
X59044068Y-86918525D02*
X59039521Y-86814851D01*
X59039521Y-86814851D02*
X59030001Y-86738108D01*
X59030001Y-86738108D02*
X59013919Y-86682246D01*
X59013919Y-86682246D02*
X58989687Y-86641212D01*
X58989687Y-86641212D02*
X58955714Y-86608954D01*
X58955714Y-86608954D02*
X58922167Y-86586440D01*
X58922167Y-86586440D02*
X58841501Y-86556476D01*
X58841501Y-86556476D02*
X58747619Y-86549718D01*
X58747619Y-86549718D02*
X58659193Y-86566782D01*
X58659193Y-86566782D02*
X58659193Y-86566782D01*
G36*
X58841501Y-86556476D02*
G01*
X58922167Y-86586440D01*
X58955714Y-86608954D01*
X58989687Y-86641212D01*
X59013919Y-86682246D01*
X59030001Y-86738108D01*
X59039521Y-86814851D01*
X59044068Y-86918525D01*
X59045231Y-87055184D01*
X59045003Y-87125805D01*
X59043860Y-87222308D01*
X59041919Y-87299323D01*
X59039365Y-87350319D01*
X59036381Y-87368769D01*
X59016962Y-87362667D01*
X58977766Y-87346095D01*
X58976589Y-87345558D01*
X58956235Y-87334903D01*
X58942546Y-87320282D01*
X58934199Y-87294673D01*
X58929874Y-87251054D01*
X58928248Y-87182403D01*
X58928000Y-87081698D01*
X58927500Y-87017813D01*
X58922164Y-86897751D01*
X58909945Y-86809809D01*
X58889552Y-86749375D01*
X58859695Y-86711836D01*
X58819082Y-86692581D01*
X58813448Y-86691239D01*
X58737378Y-86690191D01*
X58678052Y-86724271D01*
X58637077Y-86792598D01*
X58629770Y-86812351D01*
X58613114Y-86856066D01*
X58604679Y-86876155D01*
X58587356Y-86873387D01*
X58549525Y-86858365D01*
X58514240Y-86833556D01*
X58498154Y-86786670D01*
X58502952Y-86753087D01*
X58532431Y-86684967D01*
X58580098Y-86621134D01*
X58635839Y-86576988D01*
X58659193Y-86566782D01*
X58747619Y-86549718D01*
X58841501Y-86556476D01*
G37*
X58841501Y-86556476D02*
X58922167Y-86586440D01*
X58955714Y-86608954D01*
X58989687Y-86641212D01*
X59013919Y-86682246D01*
X59030001Y-86738108D01*
X59039521Y-86814851D01*
X59044068Y-86918525D01*
X59045231Y-87055184D01*
X59045003Y-87125805D01*
X59043860Y-87222308D01*
X59041919Y-87299323D01*
X59039365Y-87350319D01*
X59036381Y-87368769D01*
X59016962Y-87362667D01*
X58977766Y-87346095D01*
X58976589Y-87345558D01*
X58956235Y-87334903D01*
X58942546Y-87320282D01*
X58934199Y-87294673D01*
X58929874Y-87251054D01*
X58928248Y-87182403D01*
X58928000Y-87081698D01*
X58927500Y-87017813D01*
X58922164Y-86897751D01*
X58909945Y-86809809D01*
X58889552Y-86749375D01*
X58859695Y-86711836D01*
X58819082Y-86692581D01*
X58813448Y-86691239D01*
X58737378Y-86690191D01*
X58678052Y-86724271D01*
X58637077Y-86792598D01*
X58629770Y-86812351D01*
X58613114Y-86856066D01*
X58604679Y-86876155D01*
X58587356Y-86873387D01*
X58549525Y-86858365D01*
X58514240Y-86833556D01*
X58498154Y-86786670D01*
X58502952Y-86753087D01*
X58532431Y-86684967D01*
X58580098Y-86621134D01*
X58635839Y-86576988D01*
X58659193Y-86566782D01*
X58747619Y-86549718D01*
X58841501Y-86556476D01*
X57984776Y-86577838D02*
X57907472Y-86628361D01*
X57907472Y-86628361D02*
X57870186Y-86673590D01*
X57870186Y-86673590D02*
X57840647Y-86755663D01*
X57840647Y-86755663D02*
X57838301Y-86820607D01*
X57838301Y-86820607D02*
X57843615Y-86907445D01*
X57843615Y-86907445D02*
X58043885Y-86995103D01*
X58043885Y-86995103D02*
X58141261Y-87039887D01*
X58141261Y-87039887D02*
X58204887Y-87075913D01*
X58204887Y-87075913D02*
X58237971Y-87107117D01*
X58237971Y-87107117D02*
X58243720Y-87137436D01*
X58243720Y-87137436D02*
X58225342Y-87170805D01*
X58225342Y-87170805D02*
X58205077Y-87192923D01*
X58205077Y-87192923D02*
X58146111Y-87228393D01*
X58146111Y-87228393D02*
X58081976Y-87230879D01*
X58081976Y-87230879D02*
X58023074Y-87203235D01*
X58023074Y-87203235D02*
X57979803Y-87148320D01*
X57979803Y-87148320D02*
X57972064Y-87128928D01*
X57972064Y-87128928D02*
X57934994Y-87068364D01*
X57934994Y-87068364D02*
X57892346Y-87042552D01*
X57892346Y-87042552D02*
X57833846Y-87020471D01*
X57833846Y-87020471D02*
X57833846Y-87104184D01*
X57833846Y-87104184D02*
X57839018Y-87161150D01*
X57839018Y-87161150D02*
X57859277Y-87209189D01*
X57859277Y-87209189D02*
X57901738Y-87264346D01*
X57901738Y-87264346D02*
X57908049Y-87271514D01*
X57908049Y-87271514D02*
X57955280Y-87320585D01*
X57955280Y-87320585D02*
X57995879Y-87346920D01*
X57995879Y-87346920D02*
X58046672Y-87359035D01*
X58046672Y-87359035D02*
X58088780Y-87363003D01*
X58088780Y-87363003D02*
X58164098Y-87363991D01*
X58164098Y-87363991D02*
X58217714Y-87351466D01*
X58217714Y-87351466D02*
X58251162Y-87332869D01*
X58251162Y-87332869D02*
X58303732Y-87291975D01*
X58303732Y-87291975D02*
X58340121Y-87247748D01*
X58340121Y-87247748D02*
X58363150Y-87192126D01*
X58363150Y-87192126D02*
X58375641Y-87117047D01*
X58375641Y-87117047D02*
X58380413Y-87014449D01*
X58380413Y-87014449D02*
X58380794Y-86962376D01*
X58380794Y-86962376D02*
X58379499Y-86899948D01*
X58379499Y-86899948D02*
X58261529Y-86899948D01*
X58261529Y-86899948D02*
X58260161Y-86933438D01*
X58260161Y-86933438D02*
X58256751Y-86938923D01*
X58256751Y-86938923D02*
X58234247Y-86931472D01*
X58234247Y-86931472D02*
X58185818Y-86911753D01*
X58185818Y-86911753D02*
X58121092Y-86883718D01*
X58121092Y-86883718D02*
X58107557Y-86877692D01*
X58107557Y-86877692D02*
X58025756Y-86836096D01*
X58025756Y-86836096D02*
X57980688Y-86799538D01*
X57980688Y-86799538D02*
X57970783Y-86765296D01*
X57970783Y-86765296D02*
X57994474Y-86730648D01*
X57994474Y-86730648D02*
X58014040Y-86715339D01*
X58014040Y-86715339D02*
X58084640Y-86684721D01*
X58084640Y-86684721D02*
X58150720Y-86689780D01*
X58150720Y-86689780D02*
X58206041Y-86727151D01*
X58206041Y-86727151D02*
X58244364Y-86793473D01*
X58244364Y-86793473D02*
X58256651Y-86846116D01*
X58256651Y-86846116D02*
X58261529Y-86899948D01*
X58261529Y-86899948D02*
X58379499Y-86899948D01*
X58379499Y-86899948D02*
X58378270Y-86840720D01*
X58378270Y-86840720D02*
X58368968Y-86750710D01*
X58368968Y-86750710D02*
X58350540Y-86685167D01*
X58350540Y-86685167D02*
X58320640Y-86636912D01*
X58320640Y-86636912D02*
X58276920Y-86598767D01*
X58276920Y-86598767D02*
X58257859Y-86586440D01*
X58257859Y-86586440D02*
X58171274Y-86554336D01*
X58171274Y-86554336D02*
X58076478Y-86552316D01*
X58076478Y-86552316D02*
X57984776Y-86577838D01*
X57984776Y-86577838D02*
X57984776Y-86577838D01*
G36*
X58380413Y-87014449D02*
G01*
X58375641Y-87117047D01*
X58363150Y-87192126D01*
X58340121Y-87247748D01*
X58303732Y-87291975D01*
X58251162Y-87332869D01*
X58217714Y-87351466D01*
X58164098Y-87363991D01*
X58088780Y-87363003D01*
X58046672Y-87359035D01*
X57995879Y-87346920D01*
X57955280Y-87320585D01*
X57908049Y-87271514D01*
X57901738Y-87264346D01*
X57859277Y-87209189D01*
X57839018Y-87161150D01*
X57833846Y-87104184D01*
X57833846Y-87020471D01*
X57892346Y-87042552D01*
X57934994Y-87068364D01*
X57972064Y-87128928D01*
X57979803Y-87148320D01*
X58023074Y-87203235D01*
X58081976Y-87230879D01*
X58146111Y-87228393D01*
X58205077Y-87192923D01*
X58225342Y-87170805D01*
X58243720Y-87137436D01*
X58237971Y-87107117D01*
X58204887Y-87075913D01*
X58141261Y-87039887D01*
X58043885Y-86995103D01*
X57843615Y-86907445D01*
X57838301Y-86820607D01*
X57840299Y-86765296D01*
X57970783Y-86765296D01*
X57980688Y-86799538D01*
X58025756Y-86836096D01*
X58107557Y-86877692D01*
X58121092Y-86883718D01*
X58185818Y-86911753D01*
X58234247Y-86931472D01*
X58256751Y-86938923D01*
X58260161Y-86933438D01*
X58261529Y-86899948D01*
X58256651Y-86846116D01*
X58244364Y-86793473D01*
X58206041Y-86727151D01*
X58150720Y-86689780D01*
X58084640Y-86684721D01*
X58014040Y-86715339D01*
X57994474Y-86730648D01*
X57970783Y-86765296D01*
X57840299Y-86765296D01*
X57840647Y-86755663D01*
X57870186Y-86673590D01*
X57907472Y-86628361D01*
X57984776Y-86577838D01*
X58076478Y-86552316D01*
X58171274Y-86554336D01*
X58257859Y-86586440D01*
X58276920Y-86598767D01*
X58320640Y-86636912D01*
X58350540Y-86685167D01*
X58368968Y-86750710D01*
X58378270Y-86840720D01*
X58379499Y-86899948D01*
X58380794Y-86962376D01*
X58380413Y-87014449D01*
G37*
X58380413Y-87014449D02*
X58375641Y-87117047D01*
X58363150Y-87192126D01*
X58340121Y-87247748D01*
X58303732Y-87291975D01*
X58251162Y-87332869D01*
X58217714Y-87351466D01*
X58164098Y-87363991D01*
X58088780Y-87363003D01*
X58046672Y-87359035D01*
X57995879Y-87346920D01*
X57955280Y-87320585D01*
X57908049Y-87271514D01*
X57901738Y-87264346D01*
X57859277Y-87209189D01*
X57839018Y-87161150D01*
X57833846Y-87104184D01*
X57833846Y-87020471D01*
X57892346Y-87042552D01*
X57934994Y-87068364D01*
X57972064Y-87128928D01*
X57979803Y-87148320D01*
X58023074Y-87203235D01*
X58081976Y-87230879D01*
X58146111Y-87228393D01*
X58205077Y-87192923D01*
X58225342Y-87170805D01*
X58243720Y-87137436D01*
X58237971Y-87107117D01*
X58204887Y-87075913D01*
X58141261Y-87039887D01*
X58043885Y-86995103D01*
X57843615Y-86907445D01*
X57838301Y-86820607D01*
X57840299Y-86765296D01*
X57970783Y-86765296D01*
X57980688Y-86799538D01*
X58025756Y-86836096D01*
X58107557Y-86877692D01*
X58121092Y-86883718D01*
X58185818Y-86911753D01*
X58234247Y-86931472D01*
X58256751Y-86938923D01*
X58260161Y-86933438D01*
X58261529Y-86899948D01*
X58256651Y-86846116D01*
X58244364Y-86793473D01*
X58206041Y-86727151D01*
X58150720Y-86689780D01*
X58084640Y-86684721D01*
X58014040Y-86715339D01*
X57994474Y-86730648D01*
X57970783Y-86765296D01*
X57840299Y-86765296D01*
X57840647Y-86755663D01*
X57870186Y-86673590D01*
X57907472Y-86628361D01*
X57984776Y-86577838D01*
X58076478Y-86552316D01*
X58171274Y-86554336D01*
X58257859Y-86586440D01*
X58276920Y-86598767D01*
X58320640Y-86636912D01*
X58350540Y-86685167D01*
X58368968Y-86750710D01*
X58378270Y-86840720D01*
X58379499Y-86899948D01*
X58380794Y-86962376D01*
X58380413Y-87014449D01*
X62090122Y-80217776D02*
X61984388Y-80218355D01*
X61984388Y-80218355D02*
X61907868Y-80219922D01*
X61907868Y-80219922D02*
X61855628Y-80222972D01*
X61855628Y-80222972D02*
X61822737Y-80227996D01*
X61822737Y-80227996D02*
X61804263Y-80235489D01*
X61804263Y-80235489D02*
X61795273Y-80245944D01*
X61795273Y-80245944D02*
X61790837Y-80259853D01*
X61790837Y-80259853D02*
X61790406Y-80261654D01*
X61790406Y-80261654D02*
X61783667Y-80294145D01*
X61783667Y-80294145D02*
X61771192Y-80358252D01*
X61771192Y-80358252D02*
X61754281Y-80447151D01*
X61754281Y-80447151D02*
X61734229Y-80554019D01*
X61734229Y-80554019D02*
X61712336Y-80672033D01*
X61712336Y-80672033D02*
X61711571Y-80676178D01*
X61711571Y-80676178D02*
X61689641Y-80791831D01*
X61689641Y-80791831D02*
X61669123Y-80894014D01*
X61669123Y-80894014D02*
X61651341Y-80976598D01*
X61651341Y-80976598D02*
X61637619Y-81033456D01*
X61637619Y-81033456D02*
X61629282Y-81058458D01*
X61629282Y-81058458D02*
X61628884Y-81058901D01*
X61628884Y-81058901D02*
X61604323Y-81071110D01*
X61604323Y-81071110D02*
X61553685Y-81091456D01*
X61553685Y-81091456D02*
X61487905Y-81115545D01*
X61487905Y-81115545D02*
X61487539Y-81115674D01*
X61487539Y-81115674D02*
X61404683Y-81146818D01*
X61404683Y-81146818D02*
X61307000Y-81186491D01*
X61307000Y-81186491D02*
X61214923Y-81226381D01*
X61214923Y-81226381D02*
X61210566Y-81228353D01*
X61210566Y-81228353D02*
X61060593Y-81296420D01*
X61060593Y-81296420D02*
X60728502Y-81069639D01*
X60728502Y-81069639D02*
X60626626Y-81000504D01*
X60626626Y-81000504D02*
X60534343Y-80938697D01*
X60534343Y-80938697D02*
X60456997Y-80887733D01*
X60456997Y-80887733D02*
X60399936Y-80851127D01*
X60399936Y-80851127D02*
X60368505Y-80832394D01*
X60368505Y-80832394D02*
X60365521Y-80831004D01*
X60365521Y-80831004D02*
X60342679Y-80837190D01*
X60342679Y-80837190D02*
X60300018Y-80867035D01*
X60300018Y-80867035D02*
X60235872Y-80921947D01*
X60235872Y-80921947D02*
X60148579Y-81003334D01*
X60148579Y-81003334D02*
X60059465Y-81089922D01*
X60059465Y-81089922D02*
X59973559Y-81175247D01*
X59973559Y-81175247D02*
X59896673Y-81253108D01*
X59896673Y-81253108D02*
X59833436Y-81318697D01*
X59833436Y-81318697D02*
X59788477Y-81367205D01*
X59788477Y-81367205D02*
X59766424Y-81393825D01*
X59766424Y-81393825D02*
X59765604Y-81395195D01*
X59765604Y-81395195D02*
X59763166Y-81413463D01*
X59763166Y-81413463D02*
X59772350Y-81443295D01*
X59772350Y-81443295D02*
X59795426Y-81488721D01*
X59795426Y-81488721D02*
X59834663Y-81553770D01*
X59834663Y-81553770D02*
X59892330Y-81642470D01*
X59892330Y-81642470D02*
X59969205Y-81756657D01*
X59969205Y-81756657D02*
X60037430Y-81857162D01*
X60037430Y-81857162D02*
X60098418Y-81947303D01*
X60098418Y-81947303D02*
X60148644Y-82021849D01*
X60148644Y-82021849D02*
X60184584Y-82075565D01*
X60184584Y-82075565D02*
X60202713Y-82103218D01*
X60202713Y-82103218D02*
X60203854Y-82105095D01*
X60203854Y-82105095D02*
X60201641Y-82131590D01*
X60201641Y-82131590D02*
X60184862Y-82183086D01*
X60184862Y-82183086D02*
X60156858Y-82249851D01*
X60156858Y-82249851D02*
X60146878Y-82271172D01*
X60146878Y-82271172D02*
X60103328Y-82366159D01*
X60103328Y-82366159D02*
X60056866Y-82473937D01*
X60056866Y-82473937D02*
X60019123Y-82567192D01*
X60019123Y-82567192D02*
X59991927Y-82636406D01*
X59991927Y-82636406D02*
X59970325Y-82689006D01*
X59970325Y-82689006D02*
X59957842Y-82716497D01*
X59957842Y-82716497D02*
X59956291Y-82718616D01*
X59956291Y-82718616D02*
X59933332Y-82722124D01*
X59933332Y-82722124D02*
X59879214Y-82731738D01*
X59879214Y-82731738D02*
X59801132Y-82746089D01*
X59801132Y-82746089D02*
X59706281Y-82763807D01*
X59706281Y-82763807D02*
X59601857Y-82783525D01*
X59601857Y-82783525D02*
X59495056Y-82803874D01*
X59495056Y-82803874D02*
X59393074Y-82823486D01*
X59393074Y-82823486D02*
X59303106Y-82840991D01*
X59303106Y-82840991D02*
X59232347Y-82855022D01*
X59232347Y-82855022D02*
X59187994Y-82864209D01*
X59187994Y-82864209D02*
X59177115Y-82866807D01*
X59177115Y-82866807D02*
X59165878Y-82873218D01*
X59165878Y-82873218D02*
X59157395Y-82887697D01*
X59157395Y-82887697D02*
X59151286Y-82915133D01*
X59151286Y-82915133D02*
X59147168Y-82960411D01*
X59147168Y-82960411D02*
X59144659Y-83028420D01*
X59144659Y-83028420D02*
X59143379Y-83124047D01*
X59143379Y-83124047D02*
X59142946Y-83252180D01*
X59142946Y-83252180D02*
X59142923Y-83304701D01*
X59142923Y-83304701D02*
X59142923Y-83731845D01*
X59142923Y-83731845D02*
X59245500Y-83752091D01*
X59245500Y-83752091D02*
X59302569Y-83763070D01*
X59302569Y-83763070D02*
X59387731Y-83779095D01*
X59387731Y-83779095D02*
X59490628Y-83798233D01*
X59490628Y-83798233D02*
X59600904Y-83818551D01*
X59600904Y-83818551D02*
X59631385Y-83824132D01*
X59631385Y-83824132D02*
X59733145Y-83843917D01*
X59733145Y-83843917D02*
X59821795Y-83863373D01*
X59821795Y-83863373D02*
X59889892Y-83880697D01*
X59889892Y-83880697D02*
X59929996Y-83894088D01*
X59929996Y-83894088D02*
X59936677Y-83898079D01*
X59936677Y-83898079D02*
X59953081Y-83926342D01*
X59953081Y-83926342D02*
X59976601Y-83981109D01*
X59976601Y-83981109D02*
X60002684Y-84051588D01*
X60002684Y-84051588D02*
X60007858Y-84066769D01*
X60007858Y-84066769D02*
X60042044Y-84160896D01*
X60042044Y-84160896D02*
X60084477Y-84267101D01*
X60084477Y-84267101D02*
X60126003Y-84362473D01*
X60126003Y-84362473D02*
X60126208Y-84362916D01*
X60126208Y-84362916D02*
X60195360Y-84512525D01*
X60195360Y-84512525D02*
X59740488Y-85181617D01*
X59740488Y-85181617D02*
X60032500Y-85474116D01*
X60032500Y-85474116D02*
X60120820Y-85561170D01*
X60120820Y-85561170D02*
X60201375Y-85637909D01*
X60201375Y-85637909D02*
X60269640Y-85700237D01*
X60269640Y-85700237D02*
X60321092Y-85744056D01*
X60321092Y-85744056D02*
X60351206Y-85765270D01*
X60351206Y-85765270D02*
X60355526Y-85766616D01*
X60355526Y-85766616D02*
X60380889Y-85756016D01*
X60380889Y-85756016D02*
X60432642Y-85726547D01*
X60432642Y-85726547D02*
X60505132Y-85681705D01*
X60505132Y-85681705D02*
X60592706Y-85624984D01*
X60592706Y-85624984D02*
X60687388Y-85561462D01*
X60687388Y-85561462D02*
X60783484Y-85496668D01*
X60783484Y-85496668D02*
X60869163Y-85440287D01*
X60869163Y-85440287D02*
X60938984Y-85395788D01*
X60938984Y-85395788D02*
X60987506Y-85366639D01*
X60987506Y-85366639D02*
X61009218Y-85356308D01*
X61009218Y-85356308D02*
X61035707Y-85365050D01*
X61035707Y-85365050D02*
X61085938Y-85388087D01*
X61085938Y-85388087D02*
X61149549Y-85420631D01*
X61149549Y-85420631D02*
X61156292Y-85424249D01*
X61156292Y-85424249D02*
X61241954Y-85467210D01*
X61241954Y-85467210D02*
X61300694Y-85488279D01*
X61300694Y-85488279D02*
X61337228Y-85488503D01*
X61337228Y-85488503D02*
X61356269Y-85468928D01*
X61356269Y-85468928D02*
X61356380Y-85468654D01*
X61356380Y-85468654D02*
X61365898Y-85445472D01*
X61365898Y-85445472D02*
X61388597Y-85390441D01*
X61388597Y-85390441D02*
X61422718Y-85307822D01*
X61422718Y-85307822D02*
X61466500Y-85201872D01*
X61466500Y-85201872D02*
X61518184Y-85076852D01*
X61518184Y-85076852D02*
X61576008Y-84937020D01*
X61576008Y-84937020D02*
X61632009Y-84801637D01*
X61632009Y-84801637D02*
X61693553Y-84652234D01*
X61693553Y-84652234D02*
X61750061Y-84513832D01*
X61750061Y-84513832D02*
X61799839Y-84390673D01*
X61799839Y-84390673D02*
X61841194Y-84287002D01*
X61841194Y-84287002D02*
X61872432Y-84207059D01*
X61872432Y-84207059D02*
X61891859Y-84155088D01*
X61891859Y-84155088D02*
X61897846Y-84135692D01*
X61897846Y-84135692D02*
X61882832Y-84113443D01*
X61882832Y-84113443D02*
X61843561Y-84077982D01*
X61843561Y-84077982D02*
X61791193Y-84038887D01*
X61791193Y-84038887D02*
X61642059Y-83915245D01*
X61642059Y-83915245D02*
X61525489Y-83773522D01*
X61525489Y-83773522D02*
X61442882Y-83616704D01*
X61442882Y-83616704D02*
X61395634Y-83447775D01*
X61395634Y-83447775D02*
X61385143Y-83269722D01*
X61385143Y-83269722D02*
X61392769Y-83187539D01*
X61392769Y-83187539D02*
X61434318Y-83017031D01*
X61434318Y-83017031D02*
X61505877Y-82866459D01*
X61505877Y-82866459D02*
X61603005Y-82737309D01*
X61603005Y-82737309D02*
X61721266Y-82631064D01*
X61721266Y-82631064D02*
X61856220Y-82549210D01*
X61856220Y-82549210D02*
X62003429Y-82493232D01*
X62003429Y-82493232D02*
X62158456Y-82464615D01*
X62158456Y-82464615D02*
X62316861Y-82464844D01*
X62316861Y-82464844D02*
X62474206Y-82495405D01*
X62474206Y-82495405D02*
X62626054Y-82557782D01*
X62626054Y-82557782D02*
X62767965Y-82653460D01*
X62767965Y-82653460D02*
X62827197Y-82707572D01*
X62827197Y-82707572D02*
X62940797Y-82846520D01*
X62940797Y-82846520D02*
X63019894Y-82998361D01*
X63019894Y-82998361D02*
X63065014Y-83158667D01*
X63065014Y-83158667D02*
X63076684Y-83323012D01*
X63076684Y-83323012D02*
X63055431Y-83486971D01*
X63055431Y-83486971D02*
X63001780Y-83646118D01*
X63001780Y-83646118D02*
X62916260Y-83796025D01*
X62916260Y-83796025D02*
X62799395Y-83932267D01*
X62799395Y-83932267D02*
X62668807Y-84038887D01*
X62668807Y-84038887D02*
X62614412Y-84079642D01*
X62614412Y-84079642D02*
X62575986Y-84114718D01*
X62575986Y-84114718D02*
X62562154Y-84135726D01*
X62562154Y-84135726D02*
X62569397Y-84158635D01*
X62569397Y-84158635D02*
X62589995Y-84213365D01*
X62589995Y-84213365D02*
X62622254Y-84295672D01*
X62622254Y-84295672D02*
X62664479Y-84401315D01*
X62664479Y-84401315D02*
X62714977Y-84526050D01*
X62714977Y-84526050D02*
X62772052Y-84665636D01*
X62772052Y-84665636D02*
X62828146Y-84801670D01*
X62828146Y-84801670D02*
X62890033Y-84951201D01*
X62890033Y-84951201D02*
X62947356Y-85089767D01*
X62947356Y-85089767D02*
X62998356Y-85213107D01*
X62998356Y-85213107D02*
X63041273Y-85316964D01*
X63041273Y-85316964D02*
X63074347Y-85397080D01*
X63074347Y-85397080D02*
X63095819Y-85449195D01*
X63095819Y-85449195D02*
X63103775Y-85468654D01*
X63103775Y-85468654D02*
X63122571Y-85488423D01*
X63122571Y-85488423D02*
X63158926Y-85488365D01*
X63158926Y-85488365D02*
X63217521Y-85467441D01*
X63217521Y-85467441D02*
X63303032Y-85424613D01*
X63303032Y-85424613D02*
X63303708Y-85424249D01*
X63303708Y-85424249D02*
X63368093Y-85391012D01*
X63368093Y-85391012D02*
X63420139Y-85366802D01*
X63420139Y-85366802D02*
X63449488Y-85356404D01*
X63449488Y-85356404D02*
X63450783Y-85356308D01*
X63450783Y-85356308D02*
X63472876Y-85366855D01*
X63472876Y-85366855D02*
X63521652Y-85396184D01*
X63521652Y-85396184D02*
X63591669Y-85440827D01*
X63591669Y-85440827D02*
X63677486Y-85497314D01*
X63677486Y-85497314D02*
X63772612Y-85561462D01*
X63772612Y-85561462D02*
X63869460Y-85626411D01*
X63869460Y-85626411D02*
X63956747Y-85682896D01*
X63956747Y-85682896D02*
X64028819Y-85727421D01*
X64028819Y-85727421D02*
X64080023Y-85756490D01*
X64080023Y-85756490D02*
X64104474Y-85766616D01*
X64104474Y-85766616D02*
X64126990Y-85753307D01*
X64126990Y-85753307D02*
X64172258Y-85716112D01*
X64172258Y-85716112D02*
X64235756Y-85659128D01*
X64235756Y-85659128D02*
X64312961Y-85586449D01*
X64312961Y-85586449D02*
X64399349Y-85502171D01*
X64399349Y-85502171D02*
X64427601Y-85474016D01*
X64427601Y-85474016D02*
X64719713Y-85181416D01*
X64719713Y-85181416D02*
X64497369Y-84855104D01*
X64497369Y-84855104D02*
X64429798Y-84754897D01*
X64429798Y-84754897D02*
X64370493Y-84664963D01*
X64370493Y-84664963D02*
X64322783Y-84590510D01*
X64322783Y-84590510D02*
X64289993Y-84536751D01*
X64289993Y-84536751D02*
X64275452Y-84508894D01*
X64275452Y-84508894D02*
X64275026Y-84506912D01*
X64275026Y-84506912D02*
X64282692Y-84480655D01*
X64282692Y-84480655D02*
X64303311Y-84427837D01*
X64303311Y-84427837D02*
X64333315Y-84357310D01*
X64333315Y-84357310D02*
X64354375Y-84310093D01*
X64354375Y-84310093D02*
X64393752Y-84219694D01*
X64393752Y-84219694D02*
X64430835Y-84128366D01*
X64430835Y-84128366D02*
X64459585Y-84051200D01*
X64459585Y-84051200D02*
X64467395Y-84027692D01*
X64467395Y-84027692D02*
X64489583Y-83964916D01*
X64489583Y-83964916D02*
X64511273Y-83916411D01*
X64511273Y-83916411D02*
X64523187Y-83898079D01*
X64523187Y-83898079D02*
X64549477Y-83886859D01*
X64549477Y-83886859D02*
X64606858Y-83870954D01*
X64606858Y-83870954D02*
X64687882Y-83852167D01*
X64687882Y-83852167D02*
X64785105Y-83832299D01*
X64785105Y-83832299D02*
X64828615Y-83824132D01*
X64828615Y-83824132D02*
X64939104Y-83803829D01*
X64939104Y-83803829D02*
X65045084Y-83784170D01*
X65045084Y-83784170D02*
X65136199Y-83767088D01*
X65136199Y-83767088D02*
X65202092Y-83754518D01*
X65202092Y-83754518D02*
X65214500Y-83752091D01*
X65214500Y-83752091D02*
X65317077Y-83731845D01*
X65317077Y-83731845D02*
X65317077Y-83304701D01*
X65317077Y-83304701D02*
X65316847Y-83164246D01*
X65316847Y-83164246D02*
X65315901Y-83057979D01*
X65315901Y-83057979D02*
X65313859Y-82981013D01*
X65313859Y-82981013D02*
X65310338Y-82928460D01*
X65310338Y-82928460D02*
X65304957Y-82895433D01*
X65304957Y-82895433D02*
X65297334Y-82877045D01*
X65297334Y-82877045D02*
X65287088Y-82868408D01*
X65287088Y-82868408D02*
X65282885Y-82866807D01*
X65282885Y-82866807D02*
X65257530Y-82861127D01*
X65257530Y-82861127D02*
X65201516Y-82849795D01*
X65201516Y-82849795D02*
X65122036Y-82834179D01*
X65122036Y-82834179D02*
X65026288Y-82815647D01*
X65026288Y-82815647D02*
X64921467Y-82795569D01*
X64921467Y-82795569D02*
X64814768Y-82775312D01*
X64814768Y-82775312D02*
X64713387Y-82756246D01*
X64713387Y-82756246D02*
X64624521Y-82739739D01*
X64624521Y-82739739D02*
X64555363Y-82727159D01*
X64555363Y-82727159D02*
X64513111Y-82719875D01*
X64513111Y-82719875D02*
X64503710Y-82718616D01*
X64503710Y-82718616D02*
X64495193Y-82701763D01*
X64495193Y-82701763D02*
X64476340Y-82656870D01*
X64476340Y-82656870D02*
X64450676Y-82592430D01*
X64450676Y-82592430D02*
X64440877Y-82567192D01*
X64440877Y-82567192D02*
X64401352Y-82469686D01*
X64401352Y-82469686D02*
X64354808Y-82361959D01*
X64354808Y-82361959D02*
X64313123Y-82271172D01*
X64313123Y-82271172D02*
X64282450Y-82201753D01*
X64282450Y-82201753D02*
X64262044Y-82144710D01*
X64262044Y-82144710D02*
X64255232Y-82109777D01*
X64255232Y-82109777D02*
X64256318Y-82105095D01*
X64256318Y-82105095D02*
X64270715Y-82082991D01*
X64270715Y-82082991D02*
X64303588Y-82033831D01*
X64303588Y-82033831D02*
X64351410Y-81962848D01*
X64351410Y-81962848D02*
X64410652Y-81875278D01*
X64410652Y-81875278D02*
X64477785Y-81776357D01*
X64477785Y-81776357D02*
X64491059Y-81756830D01*
X64491059Y-81756830D02*
X64568954Y-81641140D01*
X64568954Y-81641140D02*
X64626213Y-81553044D01*
X64626213Y-81553044D02*
X64665119Y-81488486D01*
X64665119Y-81488486D02*
X64687956Y-81443411D01*
X64687956Y-81443411D02*
X64697006Y-81413763D01*
X64697006Y-81413763D02*
X64694552Y-81395485D01*
X64694552Y-81395485D02*
X64694489Y-81395369D01*
X64694489Y-81395369D02*
X64675173Y-81371361D01*
X64675173Y-81371361D02*
X64632449Y-81324947D01*
X64632449Y-81324947D02*
X64570949Y-81260937D01*
X64570949Y-81260937D02*
X64495302Y-81184145D01*
X64495302Y-81184145D02*
X64410139Y-81099382D01*
X64410139Y-81099382D02*
X64400535Y-81089922D01*
X64400535Y-81089922D02*
X64293210Y-80985989D01*
X64293210Y-80985989D02*
X64210385Y-80909675D01*
X64210385Y-80909675D02*
X64150395Y-80859571D01*
X64150395Y-80859571D02*
X64111577Y-80834270D01*
X64111577Y-80834270D02*
X64094480Y-80831004D01*
X64094480Y-80831004D02*
X64069527Y-80845250D01*
X64069527Y-80845250D02*
X64017745Y-80878156D01*
X64017745Y-80878156D02*
X63944480Y-80926208D01*
X63944480Y-80926208D02*
X63855080Y-80985890D01*
X63855080Y-80985890D02*
X63754889Y-81053688D01*
X63754889Y-81053688D02*
X63731499Y-81069639D01*
X63731499Y-81069639D02*
X63399407Y-81296420D01*
X63399407Y-81296420D02*
X63249435Y-81228353D01*
X63249435Y-81228353D02*
X63158230Y-81188685D01*
X63158230Y-81188685D02*
X63060331Y-81148791D01*
X63060331Y-81148791D02*
X62976169Y-81116983D01*
X62976169Y-81116983D02*
X62972462Y-81115674D01*
X62972462Y-81115674D02*
X62906631Y-81091576D01*
X62906631Y-81091576D02*
X62855884Y-81071200D01*
X62855884Y-81071200D02*
X62831158Y-81058936D01*
X62831158Y-81058936D02*
X62831116Y-81058901D01*
X62831116Y-81058901D02*
X62823271Y-81036734D01*
X62823271Y-81036734D02*
X62809934Y-80982217D01*
X62809934Y-80982217D02*
X62792430Y-80901480D01*
X62792430Y-80901480D02*
X62772083Y-80800650D01*
X62772083Y-80800650D02*
X62750218Y-80685856D01*
X62750218Y-80685856D02*
X62748429Y-80676178D01*
X62748429Y-80676178D02*
X62726496Y-80557904D01*
X62726496Y-80557904D02*
X62706360Y-80450542D01*
X62706360Y-80450542D02*
X62689320Y-80360917D01*
X62689320Y-80360917D02*
X62676672Y-80295851D01*
X62676672Y-80295851D02*
X62669716Y-80262168D01*
X62669716Y-80262168D02*
X62669594Y-80261654D01*
X62669594Y-80261654D02*
X62665361Y-80247325D01*
X62665361Y-80247325D02*
X62657129Y-80236507D01*
X62657129Y-80236507D02*
X62639967Y-80228706D01*
X62639967Y-80228706D02*
X62608942Y-80223429D01*
X62608942Y-80223429D02*
X62559122Y-80220182D01*
X62559122Y-80220182D02*
X62485576Y-80218472D01*
X62485576Y-80218472D02*
X62383371Y-80217807D01*
X62383371Y-80217807D02*
X62247575Y-80217693D01*
X62247575Y-80217693D02*
X62230000Y-80217692D01*
X62230000Y-80217692D02*
X62090122Y-80217776D01*
X62090122Y-80217776D02*
X62090122Y-80217776D01*
G36*
X62247575Y-80217693D02*
G01*
X62383371Y-80217807D01*
X62485576Y-80218472D01*
X62559122Y-80220182D01*
X62608942Y-80223429D01*
X62639967Y-80228706D01*
X62657129Y-80236507D01*
X62665361Y-80247325D01*
X62669594Y-80261654D01*
X62669716Y-80262168D01*
X62676672Y-80295851D01*
X62689320Y-80360917D01*
X62706360Y-80450542D01*
X62726496Y-80557904D01*
X62748429Y-80676178D01*
X62750218Y-80685856D01*
X62772083Y-80800650D01*
X62792430Y-80901480D01*
X62809934Y-80982217D01*
X62823271Y-81036734D01*
X62831116Y-81058901D01*
X62831158Y-81058936D01*
X62855884Y-81071200D01*
X62906631Y-81091576D01*
X62972462Y-81115674D01*
X62976169Y-81116983D01*
X63060331Y-81148791D01*
X63158230Y-81188685D01*
X63249435Y-81228353D01*
X63399407Y-81296420D01*
X63731499Y-81069639D01*
X63754889Y-81053688D01*
X63855080Y-80985890D01*
X63944480Y-80926208D01*
X64017745Y-80878156D01*
X64069527Y-80845250D01*
X64094480Y-80831004D01*
X64111577Y-80834270D01*
X64150395Y-80859571D01*
X64210385Y-80909675D01*
X64293210Y-80985989D01*
X64400535Y-81089922D01*
X64410139Y-81099382D01*
X64495302Y-81184145D01*
X64570949Y-81260937D01*
X64632449Y-81324947D01*
X64675173Y-81371361D01*
X64694489Y-81395369D01*
X64694552Y-81395485D01*
X64697006Y-81413763D01*
X64687956Y-81443411D01*
X64665119Y-81488486D01*
X64626213Y-81553044D01*
X64568954Y-81641140D01*
X64491059Y-81756830D01*
X64477785Y-81776357D01*
X64410652Y-81875278D01*
X64351410Y-81962848D01*
X64303588Y-82033831D01*
X64270715Y-82082991D01*
X64256318Y-82105095D01*
X64255232Y-82109777D01*
X64262044Y-82144710D01*
X64282450Y-82201753D01*
X64313123Y-82271172D01*
X64354808Y-82361959D01*
X64401352Y-82469686D01*
X64440877Y-82567192D01*
X64450676Y-82592430D01*
X64476340Y-82656870D01*
X64495193Y-82701763D01*
X64503710Y-82718616D01*
X64513111Y-82719875D01*
X64555363Y-82727159D01*
X64624521Y-82739739D01*
X64713387Y-82756246D01*
X64814768Y-82775312D01*
X64921467Y-82795569D01*
X65026288Y-82815647D01*
X65122036Y-82834179D01*
X65201516Y-82849795D01*
X65257530Y-82861127D01*
X65282885Y-82866807D01*
X65287088Y-82868408D01*
X65297334Y-82877045D01*
X65304957Y-82895433D01*
X65310338Y-82928460D01*
X65313859Y-82981013D01*
X65315901Y-83057979D01*
X65316847Y-83164246D01*
X65317077Y-83304701D01*
X65317077Y-83731845D01*
X65214500Y-83752091D01*
X65202092Y-83754518D01*
X65136199Y-83767088D01*
X65045084Y-83784170D01*
X64939104Y-83803829D01*
X64828615Y-83824132D01*
X64785105Y-83832299D01*
X64687882Y-83852167D01*
X64606858Y-83870954D01*
X64549477Y-83886859D01*
X64523187Y-83898079D01*
X64511273Y-83916411D01*
X64489583Y-83964916D01*
X64467395Y-84027692D01*
X64459585Y-84051200D01*
X64430835Y-84128366D01*
X64393752Y-84219694D01*
X64354375Y-84310093D01*
X64333315Y-84357310D01*
X64303311Y-84427837D01*
X64282692Y-84480655D01*
X64275026Y-84506912D01*
X64275452Y-84508894D01*
X64289993Y-84536751D01*
X64322783Y-84590510D01*
X64370493Y-84664963D01*
X64429798Y-84754897D01*
X64497369Y-84855104D01*
X64719713Y-85181416D01*
X64427601Y-85474016D01*
X64399349Y-85502171D01*
X64312961Y-85586449D01*
X64235756Y-85659128D01*
X64172258Y-85716112D01*
X64126990Y-85753307D01*
X64104474Y-85766616D01*
X64080023Y-85756490D01*
X64028819Y-85727421D01*
X63956747Y-85682896D01*
X63869460Y-85626411D01*
X63772612Y-85561462D01*
X63677486Y-85497314D01*
X63591669Y-85440827D01*
X63521652Y-85396184D01*
X63472876Y-85366855D01*
X63450783Y-85356308D01*
X63449488Y-85356404D01*
X63420139Y-85366802D01*
X63368093Y-85391012D01*
X63303708Y-85424249D01*
X63303032Y-85424613D01*
X63217521Y-85467441D01*
X63158926Y-85488365D01*
X63122571Y-85488423D01*
X63103775Y-85468654D01*
X63095819Y-85449195D01*
X63074347Y-85397080D01*
X63041273Y-85316964D01*
X62998356Y-85213107D01*
X62947356Y-85089767D01*
X62890033Y-84951201D01*
X62828146Y-84801670D01*
X62772052Y-84665636D01*
X62714977Y-84526050D01*
X62664479Y-84401315D01*
X62622254Y-84295672D01*
X62589995Y-84213365D01*
X62569397Y-84158635D01*
X62562154Y-84135726D01*
X62575986Y-84114718D01*
X62614412Y-84079642D01*
X62668807Y-84038887D01*
X62799395Y-83932267D01*
X62916260Y-83796025D01*
X63001780Y-83646118D01*
X63055431Y-83486971D01*
X63076684Y-83323012D01*
X63065014Y-83158667D01*
X63019894Y-82998361D01*
X62940797Y-82846520D01*
X62827197Y-82707572D01*
X62767965Y-82653460D01*
X62626054Y-82557782D01*
X62474206Y-82495405D01*
X62316861Y-82464844D01*
X62158456Y-82464615D01*
X62003429Y-82493232D01*
X61856220Y-82549210D01*
X61721266Y-82631064D01*
X61603005Y-82737309D01*
X61505877Y-82866459D01*
X61434318Y-83017031D01*
X61392769Y-83187539D01*
X61385143Y-83269722D01*
X61395634Y-83447775D01*
X61442882Y-83616704D01*
X61525489Y-83773522D01*
X61642059Y-83915245D01*
X61791193Y-84038887D01*
X61843561Y-84077982D01*
X61882832Y-84113443D01*
X61897846Y-84135692D01*
X61891859Y-84155088D01*
X61872432Y-84207059D01*
X61841194Y-84287002D01*
X61799839Y-84390673D01*
X61750061Y-84513832D01*
X61693553Y-84652234D01*
X61632009Y-84801637D01*
X61576008Y-84937020D01*
X61518184Y-85076852D01*
X61466500Y-85201872D01*
X61422718Y-85307822D01*
X61388597Y-85390441D01*
X61365898Y-85445472D01*
X61356380Y-85468654D01*
X61356269Y-85468928D01*
X61337228Y-85488503D01*
X61300694Y-85488279D01*
X61241954Y-85467210D01*
X61156292Y-85424249D01*
X61149549Y-85420631D01*
X61085938Y-85388087D01*
X61035707Y-85365050D01*
X61009218Y-85356308D01*
X60987506Y-85366639D01*
X60938984Y-85395788D01*
X60869163Y-85440287D01*
X60783484Y-85496668D01*
X60687388Y-85561462D01*
X60592706Y-85624984D01*
X60505132Y-85681705D01*
X60432642Y-85726547D01*
X60380889Y-85756016D01*
X60355526Y-85766616D01*
X60351206Y-85765270D01*
X60321092Y-85744056D01*
X60269640Y-85700237D01*
X60201375Y-85637909D01*
X60120820Y-85561170D01*
X60032500Y-85474116D01*
X59740488Y-85181617D01*
X60195360Y-84512525D01*
X60126208Y-84362916D01*
X60126003Y-84362473D01*
X60084477Y-84267101D01*
X60042044Y-84160896D01*
X60007858Y-84066769D01*
X60002684Y-84051588D01*
X59976601Y-83981109D01*
X59953081Y-83926342D01*
X59936677Y-83898079D01*
X59929996Y-83894088D01*
X59889892Y-83880697D01*
X59821795Y-83863373D01*
X59733145Y-83843917D01*
X59631385Y-83824132D01*
X59600904Y-83818551D01*
X59490628Y-83798233D01*
X59387731Y-83779095D01*
X59302569Y-83763070D01*
X59245500Y-83752091D01*
X59142923Y-83731845D01*
X59142923Y-83304701D01*
X59142946Y-83252180D01*
X59143379Y-83124047D01*
X59144659Y-83028420D01*
X59147168Y-82960411D01*
X59151286Y-82915133D01*
X59157395Y-82887697D01*
X59165878Y-82873218D01*
X59177115Y-82866807D01*
X59187994Y-82864209D01*
X59232347Y-82855022D01*
X59303106Y-82840991D01*
X59393074Y-82823486D01*
X59495056Y-82803874D01*
X59601857Y-82783525D01*
X59706281Y-82763807D01*
X59801132Y-82746089D01*
X59879214Y-82731738D01*
X59933332Y-82722124D01*
X59956291Y-82718616D01*
X59957842Y-82716497D01*
X59970325Y-82689006D01*
X59991927Y-82636406D01*
X60019123Y-82567192D01*
X60056866Y-82473937D01*
X60103328Y-82366159D01*
X60146878Y-82271172D01*
X60156858Y-82249851D01*
X60184862Y-82183086D01*
X60201641Y-82131590D01*
X60203854Y-82105095D01*
X60202713Y-82103218D01*
X60184584Y-82075565D01*
X60148644Y-82021849D01*
X60098418Y-81947303D01*
X60037430Y-81857162D01*
X59969205Y-81756657D01*
X59892330Y-81642470D01*
X59834663Y-81553770D01*
X59795426Y-81488721D01*
X59772350Y-81443295D01*
X59763166Y-81413463D01*
X59765604Y-81395195D01*
X59766424Y-81393825D01*
X59788477Y-81367205D01*
X59833436Y-81318697D01*
X59896673Y-81253108D01*
X59973559Y-81175247D01*
X60059465Y-81089922D01*
X60148579Y-81003334D01*
X60235872Y-80921947D01*
X60300018Y-80867035D01*
X60342679Y-80837190D01*
X60365521Y-80831004D01*
X60368505Y-80832394D01*
X60399936Y-80851127D01*
X60456997Y-80887733D01*
X60534343Y-80938697D01*
X60626626Y-81000504D01*
X60728502Y-81069639D01*
X61060593Y-81296420D01*
X61210566Y-81228353D01*
X61214923Y-81226381D01*
X61307000Y-81186491D01*
X61404683Y-81146818D01*
X61487539Y-81115674D01*
X61487905Y-81115545D01*
X61553685Y-81091456D01*
X61604323Y-81071110D01*
X61628884Y-81058901D01*
X61629282Y-81058458D01*
X61637619Y-81033456D01*
X61651341Y-80976598D01*
X61669123Y-80894014D01*
X61689641Y-80791831D01*
X61711571Y-80676178D01*
X61712336Y-80672033D01*
X61734229Y-80554019D01*
X61754281Y-80447151D01*
X61771192Y-80358252D01*
X61783667Y-80294145D01*
X61790406Y-80261654D01*
X61790837Y-80259853D01*
X61795273Y-80245944D01*
X61804263Y-80235489D01*
X61822737Y-80227996D01*
X61855628Y-80222972D01*
X61907868Y-80219922D01*
X61984388Y-80218355D01*
X62090122Y-80217776D01*
X62230000Y-80217692D01*
X62247575Y-80217693D01*
G37*
X62247575Y-80217693D02*
X62383371Y-80217807D01*
X62485576Y-80218472D01*
X62559122Y-80220182D01*
X62608942Y-80223429D01*
X62639967Y-80228706D01*
X62657129Y-80236507D01*
X62665361Y-80247325D01*
X62669594Y-80261654D01*
X62669716Y-80262168D01*
X62676672Y-80295851D01*
X62689320Y-80360917D01*
X62706360Y-80450542D01*
X62726496Y-80557904D01*
X62748429Y-80676178D01*
X62750218Y-80685856D01*
X62772083Y-80800650D01*
X62792430Y-80901480D01*
X62809934Y-80982217D01*
X62823271Y-81036734D01*
X62831116Y-81058901D01*
X62831158Y-81058936D01*
X62855884Y-81071200D01*
X62906631Y-81091576D01*
X62972462Y-81115674D01*
X62976169Y-81116983D01*
X63060331Y-81148791D01*
X63158230Y-81188685D01*
X63249435Y-81228353D01*
X63399407Y-81296420D01*
X63731499Y-81069639D01*
X63754889Y-81053688D01*
X63855080Y-80985890D01*
X63944480Y-80926208D01*
X64017745Y-80878156D01*
X64069527Y-80845250D01*
X64094480Y-80831004D01*
X64111577Y-80834270D01*
X64150395Y-80859571D01*
X64210385Y-80909675D01*
X64293210Y-80985989D01*
X64400535Y-81089922D01*
X64410139Y-81099382D01*
X64495302Y-81184145D01*
X64570949Y-81260937D01*
X64632449Y-81324947D01*
X64675173Y-81371361D01*
X64694489Y-81395369D01*
X64694552Y-81395485D01*
X64697006Y-81413763D01*
X64687956Y-81443411D01*
X64665119Y-81488486D01*
X64626213Y-81553044D01*
X64568954Y-81641140D01*
X64491059Y-81756830D01*
X64477785Y-81776357D01*
X64410652Y-81875278D01*
X64351410Y-81962848D01*
X64303588Y-82033831D01*
X64270715Y-82082991D01*
X64256318Y-82105095D01*
X64255232Y-82109777D01*
X64262044Y-82144710D01*
X64282450Y-82201753D01*
X64313123Y-82271172D01*
X64354808Y-82361959D01*
X64401352Y-82469686D01*
X64440877Y-82567192D01*
X64450676Y-82592430D01*
X64476340Y-82656870D01*
X64495193Y-82701763D01*
X64503710Y-82718616D01*
X64513111Y-82719875D01*
X64555363Y-82727159D01*
X64624521Y-82739739D01*
X64713387Y-82756246D01*
X64814768Y-82775312D01*
X64921467Y-82795569D01*
X65026288Y-82815647D01*
X65122036Y-82834179D01*
X65201516Y-82849795D01*
X65257530Y-82861127D01*
X65282885Y-82866807D01*
X65287088Y-82868408D01*
X65297334Y-82877045D01*
X65304957Y-82895433D01*
X65310338Y-82928460D01*
X65313859Y-82981013D01*
X65315901Y-83057979D01*
X65316847Y-83164246D01*
X65317077Y-83304701D01*
X65317077Y-83731845D01*
X65214500Y-83752091D01*
X65202092Y-83754518D01*
X65136199Y-83767088D01*
X65045084Y-83784170D01*
X64939104Y-83803829D01*
X64828615Y-83824132D01*
X64785105Y-83832299D01*
X64687882Y-83852167D01*
X64606858Y-83870954D01*
X64549477Y-83886859D01*
X64523187Y-83898079D01*
X64511273Y-83916411D01*
X64489583Y-83964916D01*
X64467395Y-84027692D01*
X64459585Y-84051200D01*
X64430835Y-84128366D01*
X64393752Y-84219694D01*
X64354375Y-84310093D01*
X64333315Y-84357310D01*
X64303311Y-84427837D01*
X64282692Y-84480655D01*
X64275026Y-84506912D01*
X64275452Y-84508894D01*
X64289993Y-84536751D01*
X64322783Y-84590510D01*
X64370493Y-84664963D01*
X64429798Y-84754897D01*
X64497369Y-84855104D01*
X64719713Y-85181416D01*
X64427601Y-85474016D01*
X64399349Y-85502171D01*
X64312961Y-85586449D01*
X64235756Y-85659128D01*
X64172258Y-85716112D01*
X64126990Y-85753307D01*
X64104474Y-85766616D01*
X64080023Y-85756490D01*
X64028819Y-85727421D01*
X63956747Y-85682896D01*
X63869460Y-85626411D01*
X63772612Y-85561462D01*
X63677486Y-85497314D01*
X63591669Y-85440827D01*
X63521652Y-85396184D01*
X63472876Y-85366855D01*
X63450783Y-85356308D01*
X63449488Y-85356404D01*
X63420139Y-85366802D01*
X63368093Y-85391012D01*
X63303708Y-85424249D01*
X63303032Y-85424613D01*
X63217521Y-85467441D01*
X63158926Y-85488365D01*
X63122571Y-85488423D01*
X63103775Y-85468654D01*
X63095819Y-85449195D01*
X63074347Y-85397080D01*
X63041273Y-85316964D01*
X62998356Y-85213107D01*
X62947356Y-85089767D01*
X62890033Y-84951201D01*
X62828146Y-84801670D01*
X62772052Y-84665636D01*
X62714977Y-84526050D01*
X62664479Y-84401315D01*
X62622254Y-84295672D01*
X62589995Y-84213365D01*
X62569397Y-84158635D01*
X62562154Y-84135726D01*
X62575986Y-84114718D01*
X62614412Y-84079642D01*
X62668807Y-84038887D01*
X62799395Y-83932267D01*
X62916260Y-83796025D01*
X63001780Y-83646118D01*
X63055431Y-83486971D01*
X63076684Y-83323012D01*
X63065014Y-83158667D01*
X63019894Y-82998361D01*
X62940797Y-82846520D01*
X62827197Y-82707572D01*
X62767965Y-82653460D01*
X62626054Y-82557782D01*
X62474206Y-82495405D01*
X62316861Y-82464844D01*
X62158456Y-82464615D01*
X62003429Y-82493232D01*
X61856220Y-82549210D01*
X61721266Y-82631064D01*
X61603005Y-82737309D01*
X61505877Y-82866459D01*
X61434318Y-83017031D01*
X61392769Y-83187539D01*
X61385143Y-83269722D01*
X61395634Y-83447775D01*
X61442882Y-83616704D01*
X61525489Y-83773522D01*
X61642059Y-83915245D01*
X61791193Y-84038887D01*
X61843561Y-84077982D01*
X61882832Y-84113443D01*
X61897846Y-84135692D01*
X61891859Y-84155088D01*
X61872432Y-84207059D01*
X61841194Y-84287002D01*
X61799839Y-84390673D01*
X61750061Y-84513832D01*
X61693553Y-84652234D01*
X61632009Y-84801637D01*
X61576008Y-84937020D01*
X61518184Y-85076852D01*
X61466500Y-85201872D01*
X61422718Y-85307822D01*
X61388597Y-85390441D01*
X61365898Y-85445472D01*
X61356380Y-85468654D01*
X61356269Y-85468928D01*
X61337228Y-85488503D01*
X61300694Y-85488279D01*
X61241954Y-85467210D01*
X61156292Y-85424249D01*
X61149549Y-85420631D01*
X61085938Y-85388087D01*
X61035707Y-85365050D01*
X61009218Y-85356308D01*
X60987506Y-85366639D01*
X60938984Y-85395788D01*
X60869163Y-85440287D01*
X60783484Y-85496668D01*
X60687388Y-85561462D01*
X60592706Y-85624984D01*
X60505132Y-85681705D01*
X60432642Y-85726547D01*
X60380889Y-85756016D01*
X60355526Y-85766616D01*
X60351206Y-85765270D01*
X60321092Y-85744056D01*
X60269640Y-85700237D01*
X60201375Y-85637909D01*
X60120820Y-85561170D01*
X60032500Y-85474116D01*
X59740488Y-85181617D01*
X60195360Y-84512525D01*
X60126208Y-84362916D01*
X60126003Y-84362473D01*
X60084477Y-84267101D01*
X60042044Y-84160896D01*
X60007858Y-84066769D01*
X60002684Y-84051588D01*
X59976601Y-83981109D01*
X59953081Y-83926342D01*
X59936677Y-83898079D01*
X59929996Y-83894088D01*
X59889892Y-83880697D01*
X59821795Y-83863373D01*
X59733145Y-83843917D01*
X59631385Y-83824132D01*
X59600904Y-83818551D01*
X59490628Y-83798233D01*
X59387731Y-83779095D01*
X59302569Y-83763070D01*
X59245500Y-83752091D01*
X59142923Y-83731845D01*
X59142923Y-83304701D01*
X59142946Y-83252180D01*
X59143379Y-83124047D01*
X59144659Y-83028420D01*
X59147168Y-82960411D01*
X59151286Y-82915133D01*
X59157395Y-82887697D01*
X59165878Y-82873218D01*
X59177115Y-82866807D01*
X59187994Y-82864209D01*
X59232347Y-82855022D01*
X59303106Y-82840991D01*
X59393074Y-82823486D01*
X59495056Y-82803874D01*
X59601857Y-82783525D01*
X59706281Y-82763807D01*
X59801132Y-82746089D01*
X59879214Y-82731738D01*
X59933332Y-82722124D01*
X59956291Y-82718616D01*
X59957842Y-82716497D01*
X59970325Y-82689006D01*
X59991927Y-82636406D01*
X60019123Y-82567192D01*
X60056866Y-82473937D01*
X60103328Y-82366159D01*
X60146878Y-82271172D01*
X60156858Y-82249851D01*
X60184862Y-82183086D01*
X60201641Y-82131590D01*
X60203854Y-82105095D01*
X60202713Y-82103218D01*
X60184584Y-82075565D01*
X60148644Y-82021849D01*
X60098418Y-81947303D01*
X60037430Y-81857162D01*
X59969205Y-81756657D01*
X59892330Y-81642470D01*
X59834663Y-81553770D01*
X59795426Y-81488721D01*
X59772350Y-81443295D01*
X59763166Y-81413463D01*
X59765604Y-81395195D01*
X59766424Y-81393825D01*
X59788477Y-81367205D01*
X59833436Y-81318697D01*
X59896673Y-81253108D01*
X59973559Y-81175247D01*
X60059465Y-81089922D01*
X60148579Y-81003334D01*
X60235872Y-80921947D01*
X60300018Y-80867035D01*
X60342679Y-80837190D01*
X60365521Y-80831004D01*
X60368505Y-80832394D01*
X60399936Y-80851127D01*
X60456997Y-80887733D01*
X60534343Y-80938697D01*
X60626626Y-81000504D01*
X60728502Y-81069639D01*
X61060593Y-81296420D01*
X61210566Y-81228353D01*
X61214923Y-81226381D01*
X61307000Y-81186491D01*
X61404683Y-81146818D01*
X61487539Y-81115674D01*
X61487905Y-81115545D01*
X61553685Y-81091456D01*
X61604323Y-81071110D01*
X61628884Y-81058901D01*
X61629282Y-81058458D01*
X61637619Y-81033456D01*
X61651341Y-80976598D01*
X61669123Y-80894014D01*
X61689641Y-80791831D01*
X61711571Y-80676178D01*
X61712336Y-80672033D01*
X61734229Y-80554019D01*
X61754281Y-80447151D01*
X61771192Y-80358252D01*
X61783667Y-80294145D01*
X61790406Y-80261654D01*
X61790837Y-80259853D01*
X61795273Y-80245944D01*
X61804263Y-80235489D01*
X61822737Y-80227996D01*
X61855628Y-80222972D01*
X61907868Y-80219922D01*
X61984388Y-80218355D01*
X62090122Y-80217776D01*
X62230000Y-80217692D01*
X62247575Y-80217693D01*
D12*
X63829221Y-72961313D02*
X64198687Y-73330779D01*
X64833313Y-71957221D02*
X65202779Y-72326687D01*
X60630779Y-76898687D02*
X60261313Y-76529221D01*
X59626687Y-77902779D02*
X59257221Y-77533313D01*
X64198687Y-76529221D02*
X63829221Y-76898687D01*
X65202779Y-77533313D02*
X64833313Y-77902779D01*
X60261313Y-73330779D02*
X60630779Y-72961313D01*
X59257221Y-72326687D02*
X59626687Y-71957221D01*
M02*
