G04 #@! TF.GenerationSoftware,KiCad,Pcbnew,(5.99.0-8453-g50e22de3ba)*
G04 #@! TF.CreationDate,2021-01-21T16:08:03-08:00*
G04 #@! TF.ProjectId,ATF1502AS-EVB,41544631-3530-4324-9153-2d4556422e6b,rev?*
G04 #@! TF.SameCoordinates,Original*
G04 #@! TF.FileFunction,Copper,L1,Top*
G04 #@! TF.FilePolarity,Positive*
%FSLAX46Y46*%
G04 Gerber Fmt 4.6, Leading zero omitted, Abs format (unit mm)*
G04 Created by KiCad (PCBNEW (5.99.0-8453-g50e22de3ba)) date 2021-01-21 16:08:03*
%MOMM*%
%LPD*%
G01*
G04 APERTURE LIST*
G04 Aperture macros list*
%AMRoundRect*
0 Rectangle with rounded corners*
0 $1 Rounding radius*
0 $2 $3 $4 $5 $6 $7 $8 $9 X,Y pos of 4 corners*
0 Add a 4 corners polygon primitive as box body*
4,1,4,$2,$3,$4,$5,$6,$7,$8,$9,$2,$3,0*
0 Add four circle primitives for the rounded corners*
1,1,$1+$1,$2,$3*
1,1,$1+$1,$4,$5*
1,1,$1+$1,$6,$7*
1,1,$1+$1,$8,$9*
0 Add four rect primitives between the rounded corners*
20,1,$1+$1,$2,$3,$4,$5,0*
20,1,$1+$1,$4,$5,$6,$7,0*
20,1,$1+$1,$6,$7,$8,$9,0*
20,1,$1+$1,$8,$9,$2,$3,0*%
%AMRotRect*
0 Rectangle, with rotation*
0 The origin of the aperture is its center*
0 $1 length*
0 $2 width*
0 $3 Rotation angle, in degrees counterclockwise*
0 Add horizontal line*
21,1,$1,$2,0,0,$3*%
G04 Aperture macros list end*
G04 #@! TA.AperFunction,ComponentPad*
%ADD10O,1.700000X1.700000*%
G04 #@! TD*
G04 #@! TA.AperFunction,ComponentPad*
%ADD11R,1.700000X1.700000*%
G04 #@! TD*
G04 #@! TA.AperFunction,SMDPad,CuDef*
%ADD12RoundRect,0.250000X-0.450000X0.325000X-0.450000X-0.325000X0.450000X-0.325000X0.450000X0.325000X0*%
G04 #@! TD*
G04 #@! TA.AperFunction,SMDPad,CuDef*
%ADD13RoundRect,0.237500X0.237500X-0.287500X0.237500X0.287500X-0.237500X0.287500X-0.237500X-0.287500X0*%
G04 #@! TD*
G04 #@! TA.AperFunction,SMDPad,CuDef*
%ADD14RotRect,1.500000X0.550000X45.000000*%
G04 #@! TD*
G04 #@! TA.AperFunction,SMDPad,CuDef*
%ADD15RotRect,1.500000X0.550000X315.000000*%
G04 #@! TD*
G04 #@! TA.AperFunction,ViaPad*
%ADD16C,0.800000*%
G04 #@! TD*
G04 #@! TA.AperFunction,Conductor*
%ADD17C,0.250000*%
G04 #@! TD*
G04 #@! TA.AperFunction,Conductor*
%ADD18C,0.500000*%
G04 #@! TD*
G04 APERTURE END LIST*
D10*
X73660000Y-99060000D03*
X73660000Y-96520000D03*
X73660000Y-93980000D03*
X73660000Y-91440000D03*
X73660000Y-88900000D03*
X73660000Y-86360000D03*
X73660000Y-83820000D03*
X73660000Y-81280000D03*
X73660000Y-78740000D03*
X73660000Y-76200000D03*
X73660000Y-73660000D03*
X73660000Y-71120000D03*
X73660000Y-68580000D03*
X73660000Y-66040000D03*
X73660000Y-63500000D03*
X73660000Y-60960000D03*
X73660000Y-58420000D03*
X73660000Y-55880000D03*
X73660000Y-53340000D03*
X73660000Y-50800000D03*
X50800000Y-50800000D03*
X50800000Y-53340000D03*
D11*
X50800000Y-55880000D03*
D10*
X50800000Y-58420000D03*
X50800000Y-60960000D03*
X50800000Y-63500000D03*
X50800000Y-66040000D03*
X50800000Y-68580000D03*
X50800000Y-71120000D03*
X50800000Y-73660000D03*
X50800000Y-76200000D03*
X50800000Y-78740000D03*
X50800000Y-81280000D03*
X50800000Y-83820000D03*
X50800000Y-86360000D03*
X50800000Y-88900000D03*
X50800000Y-91440000D03*
X50800000Y-93980000D03*
X50800000Y-96520000D03*
X50800000Y-99060000D03*
G04 #@! TA.AperFunction,SMDPad,CuDef*
G36*
X64770000Y-86545000D02*
G01*
X64020000Y-86045000D01*
X64020000Y-85045000D01*
X65520000Y-85045000D01*
X65520000Y-86045000D01*
X64770000Y-86545000D01*
G37*
G04 #@! TD.AperFunction*
G04 #@! TA.AperFunction,SMDPad,CuDef*
G36*
X64020000Y-87495000D02*
G01*
X64020000Y-86345000D01*
X64770000Y-86845000D01*
X65520000Y-86345000D01*
X65520000Y-87495000D01*
X64020000Y-87495000D01*
G37*
G04 #@! TD.AperFunction*
G04 #@! TA.AperFunction,SMDPad,CuDef*
G36*
X59690000Y-86545000D02*
G01*
X58940000Y-86045000D01*
X58940000Y-85045000D01*
X60440000Y-85045000D01*
X60440000Y-86045000D01*
X59690000Y-86545000D01*
G37*
G04 #@! TD.AperFunction*
G04 #@! TA.AperFunction,SMDPad,CuDef*
G36*
X58940000Y-87495000D02*
G01*
X58940000Y-86345000D01*
X59690000Y-86845000D01*
X60440000Y-86345000D01*
X60440000Y-87495000D01*
X58940000Y-87495000D01*
G37*
G04 #@! TD.AperFunction*
D12*
X64770000Y-91830000D03*
X64770000Y-89780000D03*
X62230000Y-90560000D03*
X62230000Y-88510000D03*
X59690000Y-91830000D03*
X59690000Y-89780000D03*
D13*
X64770000Y-94620000D03*
X64770000Y-96370000D03*
X62230000Y-93350000D03*
X62230000Y-95100000D03*
X59690000Y-94620000D03*
X59690000Y-96370000D03*
D14*
X63432082Y-68071064D03*
X63997767Y-68636750D03*
X64563452Y-69202435D03*
X65129138Y-69768120D03*
X65694823Y-70333806D03*
X66260509Y-70899491D03*
X66826194Y-71465177D03*
X67391880Y-72030862D03*
X67957565Y-72596548D03*
X68523250Y-73162233D03*
X69088936Y-73727918D03*
D15*
X69088936Y-76132082D03*
X68523250Y-76697767D03*
X67957565Y-77263452D03*
X67391880Y-77829138D03*
X66826194Y-78394823D03*
X66260509Y-78960509D03*
X65694823Y-79526194D03*
X65129138Y-80091880D03*
X64563452Y-80657565D03*
X63997767Y-81223250D03*
X63432082Y-81788936D03*
D14*
X61027918Y-81788936D03*
X60462233Y-81223250D03*
X59896548Y-80657565D03*
X59330862Y-80091880D03*
X58765177Y-79526194D03*
X58199491Y-78960509D03*
X57633806Y-78394823D03*
X57068120Y-77829138D03*
X56502435Y-77263452D03*
X55936750Y-76697767D03*
X55371064Y-76132082D03*
D15*
X55371064Y-73727918D03*
X55936750Y-73162233D03*
X56502435Y-72596548D03*
X57068120Y-72030862D03*
X57633806Y-71465177D03*
X58199491Y-70899491D03*
X58765177Y-70333806D03*
X59330862Y-69768120D03*
X59896548Y-69202435D03*
X60462233Y-68636750D03*
X61027918Y-68071064D03*
D10*
X63500000Y-60960000D03*
X60960000Y-60960000D03*
X63500000Y-58420000D03*
X60960000Y-58420000D03*
X63500000Y-55880000D03*
D11*
X60960000Y-55880000D03*
D16*
X69088000Y-58420000D03*
X62230000Y-96765000D03*
X62230000Y-84455000D03*
X52705000Y-68580000D03*
X71628000Y-79756000D03*
X70358000Y-59690000D03*
X69099629Y-84062371D03*
X57404000Y-73914000D03*
X60198000Y-70612000D03*
X63754000Y-70612000D03*
X67056000Y-73914000D03*
X63246000Y-79756000D03*
X66040000Y-77216000D03*
X59365793Y-78097268D03*
X58420000Y-77216000D03*
X54102000Y-59690000D03*
X55372000Y-58420000D03*
D17*
X53340000Y-59690000D02*
X53340000Y-58420000D01*
X53340000Y-60383146D02*
X53340000Y-59690000D01*
X66040000Y-59690000D02*
X64770000Y-60960000D01*
X64770000Y-60960000D02*
X63500000Y-60960000D01*
X70358000Y-59690000D02*
X66040000Y-59690000D01*
X63500000Y-58420000D02*
X69088000Y-58420000D01*
D18*
X63500000Y-55880000D02*
X63500000Y-50800000D01*
D17*
X64770000Y-89780000D02*
X64770000Y-86995000D01*
X62230000Y-88510000D02*
X62230000Y-85970000D01*
X62230000Y-85970000D02*
X62230000Y-84455000D01*
X59690000Y-89780000D02*
X59690000Y-86995000D01*
X64770000Y-83185000D02*
X63432082Y-81788936D01*
X67945000Y-86301854D02*
X64770000Y-83185000D01*
X64770000Y-85545000D02*
X64770000Y-83185000D01*
X59690000Y-83185000D02*
X56515000Y-86301854D01*
X61027918Y-81788936D02*
X59690000Y-83185000D01*
X59690000Y-85545000D02*
X59690000Y-83185000D01*
X62230000Y-90170000D02*
X62230000Y-93350000D01*
X63895000Y-96370000D02*
X63500000Y-96765000D01*
X64770000Y-96370000D02*
X63895000Y-96370000D01*
X63500000Y-96765000D02*
X62230000Y-96765000D01*
X60565000Y-96370000D02*
X60960000Y-96765000D01*
X59690000Y-96370000D02*
X60565000Y-96370000D01*
X60960000Y-96765000D02*
X62230000Y-96765000D01*
X62230000Y-95100000D02*
X62230000Y-96765000D01*
X64770000Y-91440000D02*
X64770000Y-94620000D01*
X59690000Y-91440000D02*
X59690000Y-94620000D01*
X73660000Y-81280000D02*
X73152000Y-81280000D01*
X73152000Y-81280000D02*
X71628000Y-79756000D01*
X50800000Y-68580000D02*
X52705000Y-68580000D01*
X57633806Y-71465177D02*
X54748629Y-68580000D01*
X53270685Y-68580000D02*
X52705000Y-68580000D01*
X54748629Y-68580000D02*
X53270685Y-68580000D01*
X53340000Y-58420000D02*
X51649999Y-56729999D01*
X61027918Y-68071064D02*
X53340000Y-60383146D01*
X51649999Y-56729999D02*
X50800000Y-55880000D01*
X51435000Y-58420000D02*
X52705000Y-59690000D01*
X50800000Y-58420000D02*
X51435000Y-58420000D01*
X52705000Y-59690000D02*
X52705000Y-60879517D01*
X52705000Y-60879517D02*
X60462233Y-68636750D01*
X71120000Y-58420000D02*
X71120000Y-60383146D01*
X71120000Y-60383146D02*
X63432082Y-68071064D01*
X73660000Y-55880000D02*
X71120000Y-58420000D01*
X68523250Y-76697767D02*
X71581483Y-79756000D01*
X71581483Y-79756000D02*
X71628000Y-79756000D01*
X72457919Y-73660000D02*
X71187919Y-72390000D01*
X69295483Y-72390000D02*
X68523250Y-73162233D01*
X73660000Y-73660000D02*
X72457919Y-73660000D01*
X71187919Y-72390000D02*
X69295483Y-72390000D01*
X69099629Y-84062371D02*
X65129138Y-80091880D01*
X69215000Y-84177742D02*
X69099629Y-84062371D01*
X57404000Y-73498113D02*
X57404000Y-73914000D01*
X56502435Y-72596548D02*
X57404000Y-73498113D01*
X59354120Y-69768120D02*
X60198000Y-70612000D01*
X59330862Y-69768120D02*
X59354120Y-69768120D01*
X64285258Y-70612000D02*
X63754000Y-70612000D01*
X65129138Y-69768120D02*
X64285258Y-70612000D01*
X67056000Y-73498113D02*
X67056000Y-73914000D01*
X67957565Y-72596548D02*
X67056000Y-73498113D01*
X63246000Y-80321685D02*
X63246000Y-79756000D01*
X63246000Y-80471483D02*
X63246000Y-80321685D01*
X63997767Y-81223250D02*
X63246000Y-80471483D01*
X66040000Y-77608629D02*
X66040000Y-77216000D01*
X66826194Y-78394823D02*
X66040000Y-77608629D01*
X59062732Y-78097268D02*
X59365793Y-78097268D01*
X58199491Y-78960509D02*
X59062732Y-78097268D01*
X58420000Y-77608629D02*
X58420000Y-77216000D01*
X57633806Y-78394823D02*
X58420000Y-77608629D01*
D18*
X63500000Y-50800000D02*
X73660000Y-50800000D01*
X50800000Y-50800000D02*
X63500000Y-50800000D01*
D17*
X59896548Y-69202435D02*
X51654113Y-60960000D01*
X51654113Y-60960000D02*
X50800000Y-60960000D01*
X58765177Y-70333806D02*
X58765177Y-70263096D01*
X58765177Y-70263096D02*
X52002081Y-63500000D01*
X52002081Y-63500000D02*
X50800000Y-63500000D01*
X58199491Y-70899491D02*
X53340000Y-66040000D01*
X53340000Y-66040000D02*
X50800000Y-66040000D01*
X57068120Y-72030862D02*
X56157258Y-71120000D01*
X56157258Y-71120000D02*
X50800000Y-71120000D01*
X71755000Y-60879517D02*
X71755000Y-59690000D01*
X63997767Y-68636750D02*
X71755000Y-60879517D01*
X71755000Y-59690000D02*
X73025000Y-58420000D01*
X73025000Y-58420000D02*
X73660000Y-58420000D01*
X73660000Y-60960000D02*
X72805887Y-60960000D01*
X72805887Y-60960000D02*
X64563452Y-69202435D01*
X65694823Y-70333806D02*
X65694823Y-70263096D01*
X65694823Y-70263096D02*
X72457919Y-63500000D01*
X72457919Y-63500000D02*
X73660000Y-63500000D01*
X72390000Y-66040000D02*
X73660000Y-66040000D01*
X66260509Y-70899491D02*
X71120000Y-66040000D01*
X71120000Y-66040000D02*
X72390000Y-66040000D01*
X66826194Y-71465177D02*
X69711371Y-68580000D01*
X69711371Y-68580000D02*
X73660000Y-68580000D01*
X67391880Y-72030862D02*
X68302742Y-71120000D01*
X68302742Y-71120000D02*
X73660000Y-71120000D01*
X55164517Y-72390000D02*
X53340000Y-72390000D01*
X55936750Y-73162233D02*
X55164517Y-72390000D01*
X53340000Y-72390000D02*
X52070000Y-73660000D01*
X52070000Y-73660000D02*
X50800000Y-73660000D01*
X50800000Y-76200000D02*
X52898982Y-76200000D01*
X52898982Y-76200000D02*
X55371064Y-73727918D01*
X71561018Y-76200000D02*
X73660000Y-76200000D01*
X69088936Y-73727918D02*
X71561018Y-76200000D01*
X73660000Y-78740000D02*
X71696854Y-78740000D01*
X71696854Y-78740000D02*
X69088936Y-76132082D01*
X71755000Y-81915000D02*
X71755000Y-81060887D01*
X73660000Y-83820000D02*
X71755000Y-81915000D01*
X71755000Y-81060887D02*
X67957565Y-77263452D01*
X71120000Y-83820000D02*
X71120000Y-81557258D01*
X73660000Y-86360000D02*
X71120000Y-83820000D01*
X71120000Y-81557258D02*
X67391880Y-77829138D01*
X73025000Y-88900000D02*
X70485000Y-86360000D01*
X73660000Y-88900000D02*
X73025000Y-88900000D01*
X70485000Y-86360000D02*
X70485000Y-83185000D01*
X70485000Y-83185000D02*
X66260509Y-78960509D01*
X51435000Y-88900000D02*
X53975000Y-86360000D01*
X50800000Y-88900000D02*
X51435000Y-88900000D01*
X53975000Y-86360000D02*
X53975000Y-84316371D01*
X53975000Y-84316371D02*
X58765177Y-79526194D01*
X73025000Y-91440000D02*
X69850000Y-88265000D01*
X73660000Y-91440000D02*
X73025000Y-91440000D01*
X69850000Y-88265000D02*
X69850000Y-83681371D01*
X69850000Y-83681371D02*
X65694823Y-79526194D01*
X73025000Y-93980000D02*
X69215000Y-90170000D01*
X73660000Y-93980000D02*
X73025000Y-93980000D01*
X69215000Y-90170000D02*
X69215000Y-84177742D01*
X73025000Y-96520000D02*
X68580000Y-92075000D01*
X73660000Y-96520000D02*
X73025000Y-96520000D01*
X68580000Y-92075000D02*
X68580000Y-84674113D01*
X68580000Y-84674113D02*
X64563452Y-80657565D01*
X73025000Y-99060000D02*
X67945000Y-93980000D01*
X67945000Y-93980000D02*
X67945000Y-86301854D01*
X73660000Y-99060000D02*
X73025000Y-99060000D01*
X51435000Y-91440000D02*
X54610000Y-88265000D01*
X50800000Y-91440000D02*
X51435000Y-91440000D01*
X54610000Y-88265000D02*
X54610000Y-84812742D01*
X54610000Y-84812742D02*
X59330862Y-80091880D01*
X55245000Y-85309113D02*
X55245000Y-90170000D01*
X55245000Y-90170000D02*
X51435000Y-93980000D01*
X59896548Y-80657565D02*
X55245000Y-85309113D01*
X51435000Y-93980000D02*
X50800000Y-93980000D01*
X51435000Y-96520000D02*
X55880000Y-92075000D01*
X55880000Y-92075000D02*
X55880000Y-85805483D01*
X50800000Y-96520000D02*
X51435000Y-96520000D01*
X55880000Y-85805483D02*
X60462233Y-81223250D01*
X56515000Y-86301854D02*
X56515000Y-93980000D01*
X56515000Y-93980000D02*
X51435000Y-99060000D01*
X51435000Y-99060000D02*
X50800000Y-99060000D01*
X53340000Y-81557258D02*
X53340000Y-83820000D01*
X53340000Y-83820000D02*
X51649999Y-85510001D01*
X57068120Y-77829138D02*
X53340000Y-81557258D01*
X51649999Y-85510001D02*
X50800000Y-86360000D01*
X52705000Y-81915000D02*
X52705000Y-81060887D01*
X50800000Y-83820000D02*
X52705000Y-81915000D01*
X52705000Y-81060887D02*
X56502435Y-77263452D01*
X50800000Y-81280000D02*
X51354517Y-81280000D01*
X51354517Y-81280000D02*
X55936750Y-76697767D01*
X50800000Y-78740000D02*
X52763146Y-78740000D01*
X52763146Y-78740000D02*
X55371064Y-76132082D01*
X53340000Y-59690000D02*
X54102000Y-59690000D01*
X60960000Y-58420000D02*
X55372000Y-58420000D01*
X58420000Y-59690000D02*
X54102000Y-59690000D01*
X60960000Y-60960000D02*
X59690000Y-60960000D01*
X59690000Y-60960000D02*
X58420000Y-59690000D01*
M02*
