M48
; DRILL file {KiCad (5.99.0-8453-g50e22de3ba)} date 01/21/21 16:09:45
; FORMAT={-:-/ absolute / metric / decimal}
; #@! TF.CreationDate,2021-01-21T16:09:45-08:00
; #@! TF.GenerationSoftware,Kicad,Pcbnew,(5.99.0-8453-g50e22de3ba)
FMAT,2
METRIC
T1C0.400
T2C1.000
%
G90
G05
T1
X-9.525Y6.35
X-8.128Y15.24
X-6.858Y16.51
X-4.826Y1.016
X-3.81Y-2.286
X-2.864Y-3.167
X-2.032Y4.318
X0.0Y-9.525
X0.0Y-21.835
X1.016Y-4.826
X1.524Y4.318
X3.81Y-2.286
X4.826Y1.016
X6.858Y16.51
X6.87Y-9.132
X8.128Y15.24
X9.398Y-4.826
T2
X-11.43Y24.13
X-11.43Y21.59
X-11.43Y19.05
X-11.43Y16.51
X-11.43Y13.97
X-11.43Y11.43
X-11.43Y8.89
X-11.43Y6.35
X-11.43Y3.81
X-11.43Y1.27
X-11.43Y-1.27
X-11.43Y-3.81
X-11.43Y-6.35
X-11.43Y-8.89
X-11.43Y-11.43
X-11.43Y-13.97
X-11.43Y-16.51
X-11.43Y-19.05
X-11.43Y-21.59
X-11.43Y-24.13
X-1.27Y19.05
X-1.27Y16.51
X-1.27Y13.97
X1.27Y19.05
X1.27Y16.51
X1.27Y13.97
X11.43Y24.13
X11.43Y21.59
X11.43Y19.05
X11.43Y16.51
X11.43Y13.97
X11.43Y11.43
X11.43Y8.89
X11.43Y6.35
X11.43Y3.81
X11.43Y1.27
X11.43Y-1.27
X11.43Y-3.81
X11.43Y-6.35
X11.43Y-8.89
X11.43Y-11.43
X11.43Y-13.97
X11.43Y-16.51
X11.43Y-19.05
X11.43Y-21.59
X11.43Y-24.13
T0
M30
